<svg id="Layer_1" data-name="Layer 1" xmlns="http://www.w3.org/2000/svg" viewBox="0 0 75 75">
  <g id="shapes">
    <circle cx="37.5" cy="37.5" r="36" fill="#ff9" stroke="#000" stroke-miterlimit="10" stroke-width="3"/>
  </g>
  <g id="mobile">
    <g>
      <path d="M49.65467,37.521q0,9.78489-.00043,19.56978a7.60481,7.60481,0,0,1-.01325.79992A2.22187,2.22187,0,0,1,47.34074,59.999c-2.01529-.06134-4.03378-.0177-6.05094-.01769q-6.67443,0-13.34887-.00043c-1.77814-.00055-2.58056-.81106-2.59442-2.61313-.00114-.14825-.00025-.29651-.00025-.44477q0-19.43636.00006-38.8727c0-.26686-.01351-.53465.00372-.80042a2.2626,2.2626,0,0,1,2.274-2.25111q.042.00021.08393.002,9.789.036,19.57826-.00066a2.26417,2.26417,0,0,1,2.36265,2.16119q.00174.03928.00213.07861c.01493.23629.0036.47427.00361.71148Q49.65475,27.73615,49.65467,37.521Z"/>
      <path d="M39.03392,56.27646a1.528,1.528,0,0,1-3.05521.06937q-.00066-.02891-.00022-.05781a1.53105,1.53105,0,1,1,3.05543-.01156Z" fill="#fbfbfb"/>
      <path d="M27.606,20.96348c.25112-.23108.56183-.14291.848-.14313q9.053-.00725,18.106-.00005c.286.00022.59749-.08872.84537.14943a.54084.54084,0,0,1-.36009.35942,3.46953,3.46953,0,0,1-.9701.07308q-8.56964.00409-17.13926,0a3.4445,3.4445,0,0,1-.971-.07418A.54683.54683,0,0,1,27.606,20.96348Z" fill="#c9cacc"/>
      <path d="M47.75337,21.32384c.2507.238.17866.54989.17876.83751Q47.937,36.86042,47.93,51.55951c-.00014.25062.10084.53907-.15737.7417a.17236.17236,0,0,1-.26384-.0952,1.24128,1.24128,0,0,1-.01905-.33837c.02326-9.61273.0021-19.225.0116-28.83715A6.63677,6.63677,0,0,1,47.5612,21.615.63337.63337,0,0,1,47.75337,21.32384Z" fill="#d4d5d6"/>
      <path d="M27.2344,52.309c-.23522-.21351-.14648-.498-.14661-.75181q-.00756-14.7136-.00246-29.42722c0-.14684.02544-.29367.039-.44051a.23712.23712,0,0,1,.28456.13841,3.6313,3.6313,0,0,1,.11469,1.40434q.00678,13.62253.00352,27.24507c0,.47326-.00714.94666.01834,1.41934a.66644.66644,0,0,1-.02515.33709.19672.19672,0,0,1-.26388.08812Z" fill="#e2e3e4"/>
      <path d="M37.44639,19.07061c-.74164.00044-1.48351.011-2.2248-.0051-.27176-.00591-.67561.09305-.68057-.34816-.00462-.411.36481-.397.66277-.3978,1.30528-.00348,2.61059-.00171,3.91588-.00171.267,0,.53406-.00349.801.002.28532.00587.56481.06289.55189.422-.01189.33023-.30505.32137-.53425.32423C39.10775,19.07645,38.277,19.07017,37.44639,19.07061Z" fill="#f7f7f8"/>
      <path d="M47.42423,52.68433c-.20178.26168-.49061.15295-.7397.15323q-9.17389.01044-18.34778.00159c-.25292-.00022-.53675.09408-.75089-.14093a.46583.46583,0,0,1,.2366-.2066,1.56351,1.56351,0,0,1,.48488-.08q9.19593-.02233,18.39052-.00237a1.59514,1.59514,0,0,1,.48354.07263A.50025.50025,0,0,1,47.42423,52.68433Z" fill="#fcfcfc"/>
      <path d="M37.942,16.8869a.441.441,0,0,1-.3949.48271l-.027.00187a.41044.41044,0,0,1-.44682-.44454.39184.39184,0,0,1,.35829-.42274l.01127-.00077a.42451.42451,0,0,1,.49917.38347Z" fill="#dedfe1"/>
      <path d="M27.25261,21.68966l-.06413.00061-.06414-.00086a.68959.68959,0,0,1,.48161-.72593l.20165.16893a.391.391,0,0,1-.10734.2515,1.62436,1.62436,0,0,1-.19459.20132A.36552.36552,0,0,1,27.25261,21.68966Z" fill="#d7d8da"/>
      <path d="M47.75337,21.32384a.10072.10072,0,0,0,.00021.09244.30158.30158,0,0,1-.13835.148.49165.49165,0,0,1-.272-.1491.4.4,0,0,1-.12306-.28231l.18516-.16314A.417.417,0,0,1,47.75337,21.32384Z" fill="#e1e2e3"/>
      <path d="M47.59034,52.30143l.18227-.00022a.3785.3785,0,0,1-.34838.38312l-.01943-.02406a.15069.15069,0,0,1-.07607-.18026A.31093.31093,0,0,1,47.59034,52.30143Z" fill="#fcfcfc"/>
      <path d="M27.2344,52.309a.448.448,0,0,0,.165-.00664.15983.15983,0,0,1,.13973.13165.21458.21458,0,0,1-.08457.182C27.28951,52.5793,27.24479,52.45642,27.2344,52.309Z" fill="#f2f3f3"/>
      <path d="M27.45456,52.61594a1.14309,1.14309,0,0,0-.00748-.11812c.18306-.07854.22664-.00738.17653.16433l-.03772.036a.09892.09892,0,0,1-.12627-.06021Z" fill="#f3f4f4"/>
      <path d="M47.22018,21.13287c.09117.03852.17378.08532.1899.19636a.69421.69421,0,0,1-.28723.194,3.55989,3.55989,0,0,1-1.05929.08865q-8.49794.00435-16.99585.00017A4.86581,4.86581,0,0,1,28.00423,21.54a.832.832,0,0,1-.31163-.14967c-.09936-.14731.0031-.20468.115-.25784,2.7183.007,5.43661.02025,8.15491.0196Q41.59135,21.15065,47.22018,21.13287Z" fill="#4a4a4c"/>
      <path d="M47.58941,21.48985q.08214-.03638.16422-.07317-.00176,14.84241-.01033,29.68562c-.00033.33671.14.71227-.15541,1.01031-.04126-.04227-.08253-.08455-.12431-.12649a2.10251,2.10251,0,0,1-.13985-1.04538q-.00538-14.13925-.001-28.27852a3.29955,3.29955,0,0,1,.06485-.8844A.63965.63965,0,0,1,47.58941,21.48985Z" fill="#95979a"/>
      <path d="M47.59034,52.30143l-.21383.16219c-.14855.09949-.183-.00758-.21558-.11891a.393.393,0,0,1,.19125-.267.13585.13585,0,0,1,.18062.06551l.00077.00167.05432-.03228Z" fill="#49494b"/>
      <path d="M27.25261,21.68966l.20567-.17984a.22342.22342,0,0,1,.29394.10854,2.79964,2.79964,0,0,1,.16448,1.31015q.00615,13.87713-.00042,27.75427a2.52528,2.52528,0,0,1-.20219,1.38865.24787.24787,0,0,1-.31534.0636c-.22864-.32173-.11695-.68834-.1172-1.03208q-.01033-14.174-.0065-28.348C27.275,22.39987,27.26042,22.04476,27.25261,21.68966Z" fill="#7d7f81"/>
      <path d="M27.39875,52.135l.2168-.01488a2.79131,2.79131,0,0,1,.96415-.11314c5.74175.0052,11.4835-.00239,17.22523.00884.48773.001,1.02017-.115,1.42093.31469l.15065.13307.02828.19664-.37553-.03535a1.33633,1.33633,0,0,0-.61058-.06335q-8.90634-.00217-17.81267,0a1.3348,1.3348,0,0,0-.61054.06354l-.37185.03705c.04115-.162-.06021-.17124-.17652-.1644l-.0477-.19543Z" fill="#747578"/>
      <path d="M27.99547,52.62509c.25608-.22218.56615-.13182.85289-.13207q8.664-.00771,17.32807,0c.28666.00026.59678-.0906.85283.13185-.91864.0089-1.83727.02506-2.75592.02551q-7.65051.00377-15.301.00006C28.6467,52.65036,28.32108,52.63393,27.99547,52.62509Z" fill="#67686b"/>
      <path d="M27.633,21.50986l-.08737.0049-.08738-.00494c.02734-.13767.09155-.20412.23383-.12012l-.01465-.01481a.08409.08409,0,0,1-.04443.135Z" fill="#4b4b4d"/>
      <path d="M47.58941,21.48985l-.03365.18917a.1618.1618,0,0,1-.19845.0517c-.128-.09958-.228-.21049-.15658-.39005l.20934-.01144C47.52585,21.3203,47.56841,21.39306,47.58941,21.48985Z" fill="#6f7073"/>
      <path d="M47.20073,21.34067l.21278.34409a1.83222,1.83222,0,0,1,.06457.78893q.00408,14.43183-.00007,28.86366a1.76971,1.76971,0,0,1-.06674.7882l-.18541.205c-.17694.01084-.35387.03109-.53081.03115q-9.09129.00282-18.18259-.001c-.31453-.0002-.66079.07182-.89691-.24056q-.00341-14.995-.00578-29.99014c0-.20673.01517-.41346.02326-.62018a.1103.1103,0,0,0,.04443-.135c.20632-.01444.41264-.04151.619-.04148Q37.74858,21.33459,47.20073,21.34067Z" fill="#fff"/>
      <path d="M47.41127,52.12555c-.00571-1.00553-.01622-2.01107-.01637-3.0166q-.002-13.22439.00006-26.44877c0-.32514.01208-.65028.01855-.97542a.55458.55458,0,0,0,.14235-.00569c.00538,1.62834.01525,3.25673.01558,4.88512q.00243,12.21405-.0009,24.42809c-.0001.38415-.024.76829-.03687,1.15252A.35527.35527,0,0,0,47.41127,52.12555Z" fill="#7d7f81"/>
    </g>
    <g>
      <g>
        <path d="M37.52423,32.106c.03539.02515.06906.05323.1064.075q1.373.80126,2.74738,1.59987a.18782.18782,0,0,1,.11284.18713q-.00479,1.61556.00344,3.23114a.17828.17828,0,0,1-.10366.17963q-1.39621.8095-2.78752,1.62744a.17628.17628,0,0,1-.2069,0q-1.38258-.80879-2.76981-1.60956a.17132.17132,0,0,1-.1004-.17q-.00037-1.6338-.01009-3.26757a.17921.17921,0,0,1,.10477-.18015q1.37628-.79542,2.74848-1.598c.03736-.02177.07106-.04983.10646-.075Zm-.31835,6.07851c0-.80126.00118-1.57879-.00346-2.35629a.169.169,0,0,0-.079-.11531q-.95057-.56267-1.90556-1.11783a.78091.78091,0,0,0-.08859-.03757c-.003.02909-.006.04473-.006.06038.002.76147.00271,1.523.01035,2.28438a.19419.19419,0,0,0,.08783.13535c.62388.36785,1.25081.73055,1.87722,1.0941.027.01561.056.02769.10721.05276Zm-1.77254-4.1711a.47526.47526,0,0,0,.04332.03318c.65228.382,1.30539.76261,1.95617,1.14716a.13985.13985,0,0,0,.16446-.01111q.94125-.55251,1.884-1.10246c.02993-.01752.058-.03815.09075-.05982a.43813.43813,0,0,0-.03769-.02937c-.65639-.383-1.31232-.76678-1.971-1.14574a.16511.16511,0,0,0-.13841.00642q-.95687.54971-1.90925,1.10723c-.0271.01574-.05241.03455-.08235.05448Zm4.44438.54491a.50045.50045,0,0,0-.05194.02181c-.6498.37916-1.30016.75739-1.94721,1.14118a.18208.18208,0,0,0-.06556.13555c-.00649.73687-.00789,1.47379-.00986,2.21071-.0001.03313.00544.06629.009.10712.02975-.0138.045-.01941.05876-.02745.64639-.377,1.29187-.75553,1.94-1.12943a.15145.15145,0,0,0,.077-.15874q-.004-1.09323-.00489-2.18644c0-.03472-.00311-.0694-.0053-.11434Z"/>
        <path d="M43.59635,41.076c0,.53464-.00206,1.06929.00206,1.60389a.179.179,0,0,1-.10114.182q-1.40183.81288-2.79869,1.63426a.1674.1674,0,0,1-.19522,0q-1.3886-.81144-2.78146-1.61551a.16958.16958,0,0,1-.0984-.17067q.00174-1.64035-.00427-3.28071a.15172.15172,0,0,1,.085-.1537q1.40811-.81408,2.8122-1.63511a.148.148,0,0,1,.17421.00282q1.39817.81914,2.80012,1.63177a.17147.17147,0,0,1,.09709.1727c-.0033.54272-.0017,1.08546-.0017,1.62819Zm-.608-1.033c-.04.017-.05866.02261-.075.03216-.64594.3769-1.291.75538-1.9385,1.12949-.0675.039-.06876.0886-.06878.15071q-.00032,1.09866-.00215,2.19734c0,.03384.004.0677.00676.11155.03045-.01494.04857-.02245.06535-.03223q.969-.56524,1.9386-1.12932a.1425.1425,0,0,0,.07775-.14521c-.00316-.526-.0032-1.05212-.00393-1.57819-.00035-.23818-.00007-.47637-.00007-.7363Zm-.31171-.533a.51409.51409,0,0,0-.04477-.03394c-.65293-.381-1.30537-.76282-1.96084-1.13938a.17805.17805,0,0,0-.14958.00445c-.63448.36443-1.26619.73371-1.89828,1.10229-.02888.01684-.05557.03743-.08755.05917.02077.0159.02969.02436.04.03041q.97836.5733,1.95594,1.14789a.14031.14031,0,0,0,.16486-.01q.936-.54956,1.87382-1.09612c.03451-.02016.06826-.04151.10643-.06477Zm-4.44.53058a.29453.29453,0,0,0-.00874.04093c.00046.77317-.0002,1.54635.00555,2.31948a.18083.18083,0,0,0,.08463.12355q.936.55027,1.87676,1.09234c.029.01679.06041.02932.09551.04614a.46857.46857,0,0,0,.00711-.05016c.002-.761.0053-1.52207.00167-2.28307a.1935.1935,0,0,0-.08718-.13531c-.62241-.36951-1.24789-.73387-1.87279-1.0992-.03043-.01786-.06228-.03338-.10246-.05473Z"/>
        <path d="M31.40345,41.06469c0-.54275.00168-1.0855-.00187-1.62822a.16014.16014,0,0,1,.09116-.16263Q32.901,38.46,34.305,37.6388a.13952.13952,0,0,1,.1638.0005q1.4088.825,2.82111,1.64409a.15318.15318,0,0,1,.08631.15341q-.00135,1.63431.00461,3.2686a.15205.15205,0,0,1-.09.15093q-1.41151.82038-2.81937,1.647a.14859.14859,0,0,1-.17439-.00286q-1.39438-.81357-2.79241-1.6209a.1618.1618,0,0,1-.09383-.1624c.00321-.55082.00169-1.10167.00169-1.65251Zm.61062-1.02852c0,.804-.00124,1.58955.00372,2.375a.17334.17334,0,0,0,.0851.113q.942.55307,1.88814,1.09906a.7418.7418,0,0,0,.08729.03632c.00325-.02878.00655-.04459.0066-.06042.0026-.75736.00361-1.51473.00923-2.27207.00058-.07715-.04034-.10406-.09481-.13581q-.93849-.54714-1.87571-1.09645C32.093,40.07693,32.061,40.06123,32.01407,40.03617Zm.30463-.5344c.02262.01632.03712.0287.05331.03819q.97312.57,1.94557,1.14109a.14035.14035,0,0,0,.16479-.01044q.94123-.55245,1.88423-1.10189c.03024-.01768.05893-.038.09106-.0589a.27346.27346,0,0,0-.03342-.02917c-.65628-.3831-1.312-.76708-1.971-1.14558a.179.179,0,0,0-.14971.00807c-.638.36625-1.27332.73717-1.90907,1.10734C32.3707,39.46434,32.34874,39.48133,32.3187,39.50177ZM34.68908,43.665c.04-.01869.062-.027.08209-.03865.64237-.37469,1.28393-.75079,1.92775-1.123a.14275.14275,0,0,0,.07541-.1469q-.00367-1.10451-.00393-2.209c-.00005-.03083-.00324-.06165-.00562-.10407-.02727.01279-.04526.0196-.06165.02916-.64593.37661-1.29255.75205-1.93546,1.13374a.197.197,0,0,0-.06966.14635c-.007.50971-.00729,1.0195-.0088,1.52928C34.68845,43.1364,34.68908,43.39087,34.68908,43.665Z"/>
        <path d="M37.20588,38.18448c-.05121-.02507-.08023-.03715-.10719-.05279-.62641-.36355-1.25334-.72625-1.87722-1.0941a.19419.19419,0,0,1-.08783-.13535c-.00764-.76142-.00835-1.52291-.01035-2.28438,0-.01565.003-.03129.006-.06038a.7791.7791,0,0,1,.08859.03757q.95382.55719,1.90556,1.11783a.169.169,0,0,1,.079.11531C37.20706,36.60569,37.20588,37.38322,37.20588,38.18448Z" fill="#fff"/>
        <path d="M35.43334,34.01338c.02994-.01993.05525-.03874.08233-.05451q.95374-.55512,1.90925-1.10724a.16516.16516,0,0,1,.1384-.00642c.65873.379,1.31466.76275,1.971,1.14575a.43311.43311,0,0,1,.03769.02937c-.03271.02167-.06082.0423-.09075.05982q-.942.55118-1.884,1.10246a.13983.13983,0,0,1-.16446.0111c-.65078-.38454-1.30389-.76516-1.95617-1.14716A.47654.47654,0,0,1,35.43334,34.01338Z" fill="#fff"/>
        <path d="M39.87772,34.55829c.00219.04494.00528.07962.00535.11431q.00233,1.09321.00489,2.18644a.15147.15147,0,0,1-.077.15875c-.64816.3739-1.29365.75244-1.94,1.12943-.01379.008-.029.01365-.05877.02745-.00359-.04084-.00912-.074-.009-.10713.002-.73691.00337-1.47383.00986-2.2107a.18215.18215,0,0,1,.06556-.13556c.64706-.38379,1.29741-.762,1.94721-1.14118A.5029.5029,0,0,1,39.87772,34.55829Z" fill="#fff"/>
        <path d="M42.98838,40.043c0,.25991-.00028.4981.00006.73629.00073.52607.00077,1.05214.00393,1.57819a.14249.14249,0,0,1-.07775.14521q-.971.5618-1.9386,1.12932c-.01678.00979-.0349.0173-.06535.03223-.00277-.04385-.00678-.0777-.00676-.11154q.00091-1.09867.00215-2.19735c0-.06211.00128-.11172.06878-.15071.64754-.37411,1.29256-.75259,1.9385-1.12949C42.92972,40.06563,42.94838,40.06,42.98838,40.043Z" fill="#fff"/>
        <path d="M42.67667,39.51c-.03817.02329-.07192.04464-.10637.06478q-.93707.54779-1.87382,1.09612a.14031.14031,0,0,1-.16486.01q-.97608-.57714-1.95594-1.14789c-.01034-.006-.01926-.01451-.04-.03041.032-.02174.05867-.04233.08755-.05917.63209-.36858,1.2638-.73786,1.89828-1.10229a.17805.17805,0,0,1,.14958-.00445c.65547.37656,1.30791.75841,1.96084,1.13938A.51155.51155,0,0,1,42.67667,39.51Z" fill="#fff"/>
        <path d="M38.2367,40.04055c.04018.02135.072.03687.10252.0547.6249.36533,1.25038.72969,1.87279,1.0992a.1935.1935,0,0,1,.08718.13531c.00363.761.00033,1.522-.00167,2.28307a.46569.46569,0,0,1-.00711.05016c-.0351-.01682-.06654-.02935-.09551-.04614q-.93933-.54453-1.87676-1.09234a.18083.18083,0,0,1-.08463-.12355c-.00575-.77313-.00509-1.54631-.00555-2.31948A.29484.29484,0,0,1,38.2367,40.04055Z" fill="#fff"/>
        <path d="M32.01407,40.03617c.047.02506.07891.04076.10956.05868q.9378.54831,1.87571,1.09645c.05447.03175.09539.05866.09481.13581-.00562.75734-.00663,1.51471-.00923,2.27207,0,.01583-.00335.03164-.0066.06042a.73856.73856,0,0,1-.0873-.03632q-.945-.54788-1.88814-1.09906a.17335.17335,0,0,1-.0851-.113C32.01283,41.62572,32.01407,40.84021,32.01407,40.03617Z" fill="#fff"/>
        <path d="M32.3187,39.50177c.03-.02044.052-.03743.07579-.05129.63575-.37017,1.27107-.74109,1.90907-1.10734a.179.179,0,0,1,.14971-.00807c.65892.3785,1.31469.76248,1.971,1.14558a.27346.27346,0,0,1,.03342.02917c-.03214.02088-.06082.04122-.09106.0589q-.94221.55079-1.88423,1.10189a.14035.14035,0,0,1-.16479.01044q-.971-.57366-1.94557-1.14109C32.35582,39.53047,32.34132,39.51809,32.3187,39.50177Z" fill="#fff"/>
        <path d="M34.68908,43.665c0-.27415-.00063-.52862.00013-.78308.00151-.50978.00183-1.01957.0088-1.52928a.197.197,0,0,1,.06966-.14635c.64291-.38169,1.28953-.75713,1.93546-1.13374.01639-.00956.03438-.01637.06165-.02916.00238.04242.00557.07324.00562.10407q.00179,1.10451.00393,2.209a.14275.14275,0,0,1-.07541.1469c-.64382.37218-1.28538.74828-1.92775,1.123C34.75112,43.63806,34.72907,43.64633,34.68908,43.665Z" fill="#fff"/>
      </g>
      <path d="M42.9202,36.04554a3.8264,3.8264,0,0,0,1.15369-7.4527.83388.83388,0,0,1-.55444-.57806,6.0003,6.0003,0,0,0-10.574-1.36381,1.0607,1.0607,0,0,1-.78446.48836,4.47973,4.47973,0,0,0,.45386,8.909" fill="none" stroke="#000" stroke-miterlimit="10"/>
    </g>
  </g>
</svg>
