<svg id="Layer_1" data-name="Layer 1" xmlns="http://www.w3.org/2000/svg" viewBox="0 0 75 75">
  <g id="shapes">
    <circle cx="37.5" cy="37.5" r="36" fill="#ff9" stroke="#000" stroke-miterlimit="10" stroke-width="3"/>
  </g>
  <g id="mobile">
    <g>
      <path d="M49.65467,37.521q0,9.78489-.00043,19.56978a7.60481,7.60481,0,0,1-.01325.79992A2.22187,2.22187,0,0,1,47.34074,59.999c-2.01529-.06134-4.03378-.0177-6.05094-.01769q-6.67443,0-13.34887-.00043c-1.77814-.00055-2.58056-.81106-2.59442-2.61313-.00114-.14825-.00025-.29651-.00025-.44477q0-19.43636.00006-38.8727c0-.26686-.01351-.53465.00372-.80042a2.2626,2.2626,0,0,1,2.274-2.25111q.042.00021.08393.002,9.789.036,19.57826-.00066a2.26417,2.26417,0,0,1,2.36265,2.16119q.00174.03928.00213.07861c.01493.23629.0036.47427.00361.71148Q49.65475,27.73615,49.65467,37.521Z"/>
      <path d="M39.03392,56.27646a1.528,1.528,0,0,1-3.05521.06937q-.00066-.02891-.00022-.05781a1.53105,1.53105,0,1,1,3.05543-.01156Z" fill="#fbfbfb"/>
      <path d="M27.606,20.96348c.25112-.23108.56183-.14291.848-.14313q9.053-.00725,18.106-.00005c.286.00022.59749-.08872.84537.14943a.54084.54084,0,0,1-.36009.35942,3.46953,3.46953,0,0,1-.9701.07308q-8.56964.00409-17.13926,0a3.4445,3.4445,0,0,1-.971-.07418A.54683.54683,0,0,1,27.606,20.96348Z" fill="#c9cacc"/>
      <path d="M47.75337,21.32384c.2507.238.17866.54989.17876.83751Q47.937,36.86042,47.93,51.55951c-.00014.25062.10084.53907-.15737.7417a.17236.17236,0,0,1-.26384-.0952,1.24128,1.24128,0,0,1-.01905-.33837c.02326-9.61273.0021-19.225.0116-28.83715A6.63677,6.63677,0,0,1,47.5612,21.615.63337.63337,0,0,1,47.75337,21.32384Z" fill="#d4d5d6"/>
      <path d="M27.2344,52.309c-.23522-.21351-.14648-.498-.14661-.75181q-.00756-14.7136-.00246-29.42722c0-.14684.02544-.29367.039-.44051a.23712.23712,0,0,1,.28456.13841,3.6313,3.6313,0,0,1,.11469,1.40434q.00678,13.62253.00352,27.24507c0,.47326-.00714.94666.01834,1.41934a.66644.66644,0,0,1-.02515.33709.19672.19672,0,0,1-.26388.08812Z" fill="#e2e3e4"/>
      <path d="M37.44639,19.07061c-.74164.00044-1.48351.011-2.2248-.0051-.27176-.00591-.67561.09305-.68057-.34816-.00462-.411.36481-.397.66277-.3978,1.30528-.00348,2.61059-.00171,3.91588-.00171.267,0,.53406-.00349.801.002.28532.00587.56481.06289.55189.422-.01189.33023-.30505.32137-.53425.32423C39.10775,19.07645,38.277,19.07017,37.44639,19.07061Z" fill="#f7f7f8"/>
      <path d="M47.42423,52.68433c-.20178.26168-.49061.15295-.7397.15323q-9.17389.01044-18.34778.00159c-.25292-.00022-.53675.09408-.75089-.14093a.46583.46583,0,0,1,.2366-.2066,1.56351,1.56351,0,0,1,.48488-.08q9.19593-.02233,18.39052-.00237a1.59514,1.59514,0,0,1,.48354.07263A.50025.50025,0,0,1,47.42423,52.68433Z" fill="#fcfcfc"/>
      <path d="M37.942,16.8869a.441.441,0,0,1-.3949.48271l-.027.00187a.41044.41044,0,0,1-.44682-.44454.39184.39184,0,0,1,.35829-.42274l.01127-.00077a.42451.42451,0,0,1,.49917.38347Z" fill="#dedfe1"/>
      <path d="M27.25261,21.68966l-.06413.00061-.06414-.00086a.68959.68959,0,0,1,.48161-.72593l.20165.16893a.391.391,0,0,1-.10734.2515,1.62436,1.62436,0,0,1-.19459.20132A.36552.36552,0,0,1,27.25261,21.68966Z" fill="#d7d8da"/>
      <path d="M47.75337,21.32384a.10072.10072,0,0,0,.00021.09244.30158.30158,0,0,1-.13835.148.49165.49165,0,0,1-.272-.1491.4.4,0,0,1-.12306-.28231l.18516-.16314A.417.417,0,0,1,47.75337,21.32384Z" fill="#e1e2e3"/>
      <path d="M47.59034,52.30143l.18227-.00022a.3785.3785,0,0,1-.34838.38312l-.01943-.02406a.15069.15069,0,0,1-.07607-.18026A.31093.31093,0,0,1,47.59034,52.30143Z" fill="#fcfcfc"/>
      <path d="M27.2344,52.309a.448.448,0,0,0,.165-.00664.15983.15983,0,0,1,.13973.13165.21458.21458,0,0,1-.08457.182C27.28951,52.5793,27.24479,52.45642,27.2344,52.309Z" fill="#f2f3f3"/>
      <path d="M27.45456,52.61594a1.14309,1.14309,0,0,0-.00748-.11812c.18306-.07854.22664-.00738.17653.16433l-.03772.036a.09892.09892,0,0,1-.12627-.06021Z" fill="#f3f4f4"/>
      <path d="M47.22018,21.13287c.09117.03852.17378.08532.1899.19636a.69421.69421,0,0,1-.28723.194,3.55989,3.55989,0,0,1-1.05929.08865q-8.49794.00435-16.99585.00017A4.86581,4.86581,0,0,1,28.00423,21.54a.832.832,0,0,1-.31163-.14967c-.09936-.14731.0031-.20468.115-.25784,2.7183.007,5.43661.02025,8.15491.0196Q41.59135,21.15065,47.22018,21.13287Z" fill="#4a4a4c"/>
      <path d="M47.58941,21.48985q.08214-.03638.16422-.07317-.00176,14.84241-.01033,29.68562c-.00033.33671.14.71227-.15541,1.01031-.04126-.04227-.08253-.08455-.12431-.12649a2.10251,2.10251,0,0,1-.13985-1.04538q-.00538-14.13925-.001-28.27852a3.29955,3.29955,0,0,1,.06485-.8844A.63965.63965,0,0,1,47.58941,21.48985Z" fill="#95979a"/>
      <path d="M47.59034,52.30143l-.21383.16219c-.14855.09949-.183-.00758-.21558-.11891a.393.393,0,0,1,.19125-.267.13585.13585,0,0,1,.18062.06551l.00077.00167.05432-.03228Z" fill="#49494b"/>
      <path d="M27.25261,21.68966l.20567-.17984a.22342.22342,0,0,1,.29394.10854,2.79964,2.79964,0,0,1,.16448,1.31015q.00615,13.87713-.00042,27.75427a2.52528,2.52528,0,0,1-.20219,1.38865.24787.24787,0,0,1-.31534.0636c-.22864-.32173-.11695-.68834-.1172-1.03208q-.01033-14.174-.0065-28.348C27.275,22.39987,27.26042,22.04476,27.25261,21.68966Z" fill="#7d7f81"/>
      <path d="M27.39875,52.135l.2168-.01488a2.79131,2.79131,0,0,1,.96415-.11314c5.74175.0052,11.4835-.00239,17.22523.00884.48773.001,1.02017-.115,1.42093.31469l.15065.13307.02828.19664-.37553-.03535a1.33633,1.33633,0,0,0-.61058-.06335q-8.90634-.00217-17.81267,0a1.3348,1.3348,0,0,0-.61054.06354l-.37185.03705c.04115-.162-.06021-.17124-.17652-.1644l-.0477-.19543Z" fill="#747578"/>
      <path d="M27.99547,52.62509c.25608-.22218.56615-.13182.85289-.13207q8.664-.00771,17.32807,0c.28666.00026.59678-.0906.85283.13185-.91864.0089-1.83727.02506-2.75592.02551q-7.65051.00377-15.301.00006C28.6467,52.65036,28.32108,52.63393,27.99547,52.62509Z" fill="#67686b"/>
      <path d="M27.633,21.50986l-.08737.0049-.08738-.00494c.02734-.13767.09155-.20412.23383-.12012l-.01465-.01481a.08409.08409,0,0,1-.04443.135Z" fill="#4b4b4d"/>
      <path d="M47.58941,21.48985l-.03365.18917a.1618.1618,0,0,1-.19845.0517c-.128-.09958-.228-.21049-.15658-.39005l.20934-.01144C47.52585,21.3203,47.56841,21.39306,47.58941,21.48985Z" fill="#6f7073"/>
      <path d="M47.20073,21.34067l.21278.34409a1.83222,1.83222,0,0,1,.06457.78893q.00408,14.43183-.00007,28.86366a1.76971,1.76971,0,0,1-.06674.7882l-.18541.205c-.17694.01084-.35387.03109-.53081.03115q-9.09129.00282-18.18259-.001c-.31453-.0002-.66079.07182-.89691-.24056q-.00341-14.995-.00578-29.99014c0-.20673.01517-.41346.02326-.62018a.1103.1103,0,0,0,.04443-.135c.20632-.01444.41264-.04151.619-.04148Q37.74858,21.33459,47.20073,21.34067Z" fill="#fff"/>
      <path d="M47.41127,52.12555c-.00571-1.00553-.01622-2.01107-.01637-3.0166q-.002-13.22439.00006-26.44877c0-.32514.01208-.65028.01855-.97542a.55458.55458,0,0,0,.14235-.00569c.00538,1.62834.01525,3.25673.01558,4.88512q.00243,12.21405-.0009,24.42809c-.0001.38415-.024.76829-.03687,1.15252A.35527.35527,0,0,0,47.41127,52.12555Z" fill="#7d7f81"/>
    </g>
    <g>
      <g>
        <path d="M19.71543,37.50964q0,4.49361-.0002,8.98721a3.49278,3.49278,0,0,1-.00608.36736,1.02036,1.02036,0,0,1-1.05636.96818c-.92551-.02817-1.85248-.00812-2.77884-.00812q-3.06516,0-6.13032-.0002c-.81659-.00025-1.18509-.37247-1.19146-1.2-.00052-.06808-.00011-.13617-.00011-.20425V28.568c0-.12255-.0062-.24553.00171-.36759a1.03907,1.03907,0,0,1,1.04432-1.03379l.03853.00091q4.4955.01656,8.9911-.0003a1.0398,1.0398,0,0,1,1.085.99252l.001.03608c.00685.10852.00165.21781.00165.32674Q19.71548,33.01606,19.71543,37.50964Z"/>
        <path d="M14.838,46.12289a.70174.70174,0,1,1-1.40307.03383q-.00035-.01427-.00011-.02853a.70312.70312,0,1,1,1.40318-.0053Z" fill="#fbfbfb"/>
        <path d="M9.5898,29.90578c.11532-.10612.258-.06563.38944-.06573q4.15749-.00333,8.315,0c.13133.0001.27439-.04074.38823.06862a.2484.2484,0,0,1-.16537.16506,1.59286,1.59286,0,0,1-.44551.03356q-3.93552.00188-7.871,0a1.58138,1.58138,0,0,1-.44593-.03407A.2511.2511,0,0,1,9.5898,29.90578Z" fill="#c9cacc"/>
        <path d="M18.84228,30.07127c.11513.1093.08205.25254.08209.38462q.00225,6.75039-.001,13.50079c-.00007.11509.04631.24756-.07227.34061a.07916.07916,0,0,1-.12117-.04371.57.57,0,0,1-.00875-.15539c.01068-4.41455.001-8.82886.00533-13.24316a3.04794,3.04794,0,0,1,.0275-.65A.29088.29088,0,0,1,18.84228,30.07127Z" fill="#d4d5d6"/>
        <path d="M9.41916,44.30085c-.108-.098-.06727-.2287-.06733-.34526q-.00346-6.75707-.00112-13.51413c0-.06744.01168-.13487.01791-.2023a.10889.10889,0,0,1,.13068.06356,1.66756,1.66756,0,0,1,.05267.64493q.00312,6.256.00162,12.512c0,.21734-.00328.43475.00842.65182a.306.306,0,0,1-.01155.1548.09034.09034,0,0,1-.12118.04048Z" fill="#e2e3e4"/>
        <path d="M14.10891,29.0365c-.34059.00021-.68128.00506-1.02172-.00234-.1248-.00271-.31026.04273-.31254-.15989-.00212-.18875.16754-.18232.30437-.18269.59944-.00159,1.19888-.00078,1.79833-.00078.12261,0,.24526-.0016.36782.00092.131.00269.25939.02888.25345.19381-.00546.15165-.14009.14758-.24534.1489C14.87187,29.03918,14.49037,29.0363,14.10891,29.0365Z" fill="#f7f7f8"/>
        <path d="M18.69113,44.47324c-.09267.12017-.22531.07024-.3397.07037q-4.213.0048-8.426.00073c-.11615-.0001-.2465.0432-.34484-.06472a.214.214,0,0,1,.10865-.09488A.71783.71783,0,0,1,9.9119,44.348q4.22313-.01026,8.44565-.00109a.73272.73272,0,0,1,.22206.03335A.22981.22981,0,0,1,18.69113,44.47324Z" fill="#fcfcfc"/>
        <path d="M14.33652,28.03366a.20254.20254,0,0,1-.18139.22169l-.01237.00085a.1885.1885,0,0,1-.2052-.20415.18.18,0,0,1,.16463-.19415l.00509-.00035a.195.195,0,0,1,.22673.157Z" fill="#dedfe1"/>
        <path d="M9.42753,30.23927l-.02946.00028-.02945-.00039a.31668.31668,0,0,1,.22118-.33338l.0926.07758a.17951.17951,0,0,1-.04929.1155.7457.7457,0,0,1-.08937.09245A.16788.16788,0,0,1,9.42753,30.23927Z" fill="#d7d8da"/>
        <path d="M18.84228,30.07127a.04626.04626,0,0,0,.0001.04245.13848.13848,0,0,1-.06354.068.22584.22584,0,0,1-.12491-.06847.18371.18371,0,0,1-.05651-.12965l.085-.07492A.1915.1915,0,0,1,18.84228,30.07127Z" fill="#e1e2e3"/>
        <path d="M18.76741,44.2974l.08371-.00011a.17383.17383,0,0,1-.16.176l-.00893-.011a.0692.0692,0,0,1-.03493-.08278A.14277.14277,0,0,1,18.76741,44.2974Z" fill="#fcfcfc"/>
        <path d="M9.41916,44.30085a.20578.20578,0,0,0,.07578-.003.07342.07342,0,0,1,.06417.06046.09859.09859,0,0,1-.03884.08357C9.44447,44.425,9.42394,44.36858,9.41916,44.30085Z" fill="#f2f3f3"/>
        <path d="M9.52027,44.44183a.52578.52578,0,0,0-.00343-.05424c.08406-.03607.10408-.00339.08106.07547l-.01732.01654a.04542.04542,0,0,1-.058-.02764Z" fill="#f3f4f4"/>
        <path d="M18.59742,29.98357c.04187.01769.0798.03918.08721.09018a.31887.31887,0,0,1-.13191.08907,1.63563,1.63563,0,0,1-.48647.04071q-3.90258.002-7.80516.00008a2.23518,2.23518,0,0,1-.48839-.0331.38206.38206,0,0,1-.14311-.06874c-.04563-.06765.00142-.094.05281-.11841,1.24835.00323,2.4967.0093,3.74506.009Q16.01244,29.99175,18.59742,29.98357Z" fill="#4a4a4c"/>
        <path d="M18.767,30.14751l.07542-.0336q-.00081,6.81621-.00474,13.6328c-.00016.15463.06428.3271-.07137.464l-.05709-.05809a.96561.96561,0,0,1-.06423-.48007q-.00246-6.49329-.00048-12.98661a1.51575,1.51575,0,0,1,.02978-.40615A.29389.29389,0,0,1,18.767,30.14751Z" fill="#95979a"/>
        <path d="M18.76741,44.2974l-.0982.07448c-.06822.04569-.08405-.00348-.099-.05461a.18045.18045,0,0,1,.08783-.12261.06239.06239,0,0,1,.083.03008l.00035.00077.025-.01482Z" fill="#49494b"/>
        <path d="M9.42753,30.23927l.09445-.08259a.10261.10261,0,0,1,.135.04985,1.28576,1.28576,0,0,1,.07553.60167q.00284,6.37293-.00019,12.74585a1.15966,1.15966,0,0,1-.09285.63771.11382.11382,0,0,1-.14482.02921c-.105-.14775-.05371-.3161-.05382-.474q-.00476-6.50925-.003-13.0185C9.43781,30.56543,9.43111,30.40235,9.42753,30.23927Z" fill="#7d7f81"/>
        <path d="M9.49464,44.221l.09956-.00683a1.28175,1.28175,0,0,1,.44278-.052c2.63683.0024,5.27367-.00109,7.9105.00406.224.00043.4685-.0528.65255.14451l.06918.06112.013.09031-.17246-.01624a.61364.61364,0,0,0-.2804-.0291q-4.09014-.001-8.18028,0a.61288.61288,0,0,0-.28038.02918l-.17077.017c.0189-.0744-.02765-.07864-.08106-.0755L9.495,44.29776Z" fill="#747578"/>
        <path d="M9.76868,44.446c.1176-.102.26-.06053.39168-.06065q3.97885-.00354,7.95773,0c.13164.00011.27406-.04161.39165.06055-.42188.00408-.84375.0115-1.26562.01171q-3.51342.00174-7.02684,0C10.06775,44.45764,9.91821,44.45009,9.76868,44.446Z" fill="#67686b"/>
        <path d="M9.60223,30.1567l-.04012.00225L9.522,30.15668c.01256-.06322.042-.09374.10738-.05516l-.00672-.0068a.03861.03861,0,0,1-.02043.062Z" fill="#4b4b4d"/>
        <path d="M18.767,30.14751l-.01545.08688a.07429.07429,0,0,1-.09113.02374c-.05877-.04573-.10474-.09667-.07191-.17913l.09613-.00525C18.7378,30.06965,18.75734,30.10306,18.767,30.14751Z" fill="#6f7073"/>
        <path d="M18.58849,30.079l.09771.158a.84158.84158,0,0,1,.02966.36231q.00188,6.62766,0,13.25532a.81273.81273,0,0,1-.03065.362L18.6,44.31076c-.08126.005-.16252.01428-.24377.01431q-4.17509.00129-8.35016-.00045c-.14444-.00009-.30346.033-.4119-.11047q-.00156-6.88632-.00265-13.77264c0-.09494.007-.18987.01068-.28481a.05063.05063,0,0,0,.0204-.062c.09476-.00663.18951-.01906.28426-.01905Q14.24768,30.07622,18.58849,30.079Z" fill="#fff"/>
        <path d="M18.68517,44.21663c-.00262-.46179-.00744-.92357-.00751-1.38535q-.0009-6.07315,0-12.1463c0-.14932.00555-.29864.00852-.448a.25472.25472,0,0,0,.06537-.00261c.00247.7478.007,1.49562.00716,2.24344q.00111,5.60916-.00041,11.21834c0,.17641-.011.35282-.01694.52928A.16291.16291,0,0,0,18.68517,44.21663Z" fill="#7d7f81"/>
      </g>
      <g>
        <path d="M66.44837,37.50964q0,4.49361-.0002,8.98721a3.49278,3.49278,0,0,1-.00608.36736,1.02036,1.02036,0,0,1-1.05637.96818c-.9255-.02817-1.85247-.00812-2.77883-.00812q-3.06516,0-6.13032-.0002c-.81659-.00025-1.18509-.37247-1.19146-1.2-.00052-.06808-.00011-.13617-.00011-.20425q0-8.92595,0-17.85187c0-.12255-.0062-.24553.00171-.36759A1.03905,1.03905,0,0,1,56.331,27.16657l.03853.00091q4.49552.01656,8.9911-.0003a1.0398,1.0398,0,0,1,1.085.99252l.001.03608c.00685.10852.00164.21781.00164.32674Q66.44842,33.01606,66.44837,37.50964Z"/>
        <path d="M61.57091,46.12289a.70174.70174,0,1,1-1.40307.03387q-.00034-.01428-.00011-.02857a.70312.70312,0,1,1,1.40318-.0053Z" fill="#fbfbfb"/>
        <path d="M56.32274,29.90578c.11532-.10612.258-.06563.38944-.06573q4.15749-.00333,8.315,0c.13133.0001.27439-.04074.38823.06862a.24838.24838,0,0,1-.16537.16506,1.59286,1.59286,0,0,1-.44551.03356q-3.9355.00188-7.871,0a1.58138,1.58138,0,0,1-.44593-.03407A.2511.2511,0,0,1,56.32274,29.90578Z" fill="#c9cacc"/>
        <path d="M65.57522,30.07127c.11513.1093.082.25254.08209.38462q.00225,6.75039-.001,13.50079c-.00006.11509.04631.24756-.07227.34061a.07913.07913,0,0,1-.12116-.04371.57.57,0,0,1-.00876-.15539c.01069-4.41455.001-8.82886.00534-13.24316a3.04728,3.04728,0,0,1,.02749-.65A.29088.29088,0,0,1,65.57522,30.07127Z" fill="#d4d5d6"/>
        <path d="M56.1521,44.30085c-.108-.098-.06727-.2287-.06733-.34526q-.00346-6.75707-.00112-13.51413c0-.06744.01168-.13487.01791-.2023a.1089.1089,0,0,1,.13068.06356,1.66756,1.66756,0,0,1,.05267.64493q.00312,6.256.00162,12.512c0,.21734-.00328.43475.00842.65182a.306.306,0,0,1-.01155.1548.09034.09034,0,0,1-.12118.04048Z" fill="#e2e3e4"/>
        <path d="M60.84185,29.0365c-.34059.00021-.68129.00506-1.02172-.00234-.1248-.00271-.31026.04273-.31254-.15989-.00212-.18875.16754-.18232.30437-.18269.59944-.00159,1.19888-.00078,1.79833-.00078.12261,0,.24526-.0016.36782.00092.131.00269.25939.02888.25345.19381-.00546.15165-.14009.14758-.24534.1489C61.60481,29.03918,61.22331,29.0363,60.84185,29.0365Z" fill="#f7f7f8"/>
        <path d="M65.42407,44.47324c-.09266.12017-.22531.07024-.3397.07037q-4.213.0048-8.426.00073c-.11615-.0001-.24649.0432-.34482-.06472a.214.214,0,0,1,.10865-.09488.71791.71791,0,0,1,.22267-.03676q4.22315-.01026,8.44565-.00109a.73263.73263,0,0,1,.22206.03335A.22984.22984,0,0,1,65.42407,44.47324Z" fill="#fcfcfc"/>
        <path d="M61.06946,28.03366a.20256.20256,0,0,1-.18143.22169l-.01233.00085a.1885.1885,0,0,1-.2052-.20415.18.18,0,0,1,.16464-.19415l.00508-.00035a.195.195,0,0,1,.22674.157Z" fill="#dedfe1"/>
        <path d="M56.16047,30.23927l-.02946.00028-.02945-.00039a.31668.31668,0,0,1,.22118-.33338l.0926.07758a.17951.17951,0,0,1-.04929.1155.7457.7457,0,0,1-.08937.09245A.16788.16788,0,0,1,56.16047,30.23927Z" fill="#d7d8da"/>
        <path d="M65.57522,30.07127a.04623.04623,0,0,0,.0001.04245.13852.13852,0,0,1-.06354.068.22581.22581,0,0,1-.12491-.06847.18371.18371,0,0,1-.05651-.12965l.085-.07492A.1915.1915,0,0,1,65.57522,30.07127Z" fill="#e1e2e3"/>
        <path d="M65.50035,44.2974l.0837-.00011a.17381.17381,0,0,1-.16.176l-.00893-.011a.06918.06918,0,0,1-.03492-.08278A.14275.14275,0,0,1,65.50035,44.2974Z" fill="#fcfcfc"/>
        <path d="M56.1521,44.30085a.20578.20578,0,0,0,.07578-.003.07342.07342,0,0,1,.06417.06046.09859.09859,0,0,1-.03884.08357C56.17741,44.425,56.15688,44.36858,56.1521,44.30085Z" fill="#f2f3f3"/>
        <path d="M56.25321,44.44183a.52578.52578,0,0,0-.00343-.05424c.08406-.03607.10408-.00339.08106.07547l-.01732.01654a.04542.04542,0,0,1-.058-.02764Z" fill="#f3f4f4"/>
        <path d="M65.33036,29.98357c.04187.01769.0798.03918.08721.09018a.3188.3188,0,0,1-.13191.08907,1.63563,1.63563,0,0,1-.48647.04071q-3.90258.002-7.80516.00008a2.23531,2.23531,0,0,1-.4884-.0331.382.382,0,0,1-.1431-.06874c-.04564-.06765.00142-.094.05281-.11841,1.24834.00323,2.4967.0093,3.74506.009Q62.74538,29.99175,65.33036,29.98357Z" fill="#4a4a4c"/>
        <path d="M65.49992,30.14751l.07542-.0336q-.00081,6.81621-.00474,13.6328c-.00016.15463.06428.3271-.07138.464l-.05708-.05809a.9655.9655,0,0,1-.06423-.48007q-.00246-6.49329-.00048-12.98661a1.51534,1.51534,0,0,1,.02977-.40615A.294.294,0,0,1,65.49992,30.14751Z" fill="#95979a"/>
        <path d="M65.50035,44.2974l-.0982.07448c-.06822.04569-.08405-.00348-.099-.05461a.18048.18048,0,0,1,.08783-.12261.06239.06239,0,0,1,.08295.03006l.00036.00079.02494-.01482Z" fill="#49494b"/>
        <path d="M56.16047,30.23927l.09445-.08259a.10261.10261,0,0,1,.135.04985,1.28563,1.28563,0,0,1,.07553.60167q.00282,6.37293-.00019,12.74585a1.15965,1.15965,0,0,1-.09286.63771.11381.11381,0,0,1-.14481.02921c-.105-.14775-.05371-.3161-.05382-.474q-.00477-6.50925-.003-13.0185C56.17075,30.56543,56.16405,30.40235,56.16047,30.23927Z" fill="#7d7f81"/>
        <path d="M56.22758,44.221l.09956-.00683a1.28175,1.28175,0,0,1,.44278-.052c2.63683.0024,5.27367-.00109,7.9105.00406.224.00043.4685-.0528.65255.14451l.06918.06112.013.09031-.17246-.01624a.61364.61364,0,0,0-.2804-.0291q-4.09015-.001-8.18028,0a.61288.61288,0,0,0-.28038.02918l-.17077.017c.0189-.0744-.02765-.07864-.08106-.0755l-.02191-.08975Z" fill="#747578"/>
        <path d="M56.50162,44.446c.1176-.102.26-.06053.39168-.06065q3.97885-.00354,7.95774,0c.13163.00011.27406-.04161.39164.06055-.42188.00408-.84375.0115-1.26563.01171q-3.5134.00174-7.02682,0C56.80069,44.45764,56.65115,44.45009,56.50162,44.446Z" fill="#67686b"/>
        <path d="M56.33517,30.1567l-.04017.0023-.04012-.00227c.01256-.06322.042-.09374.10738-.05516l-.00673-.0068a.03861.03861,0,0,1-.02036.06193Z" fill="#4b4b4d"/>
        <path d="M65.49992,30.14751l-.01545.08688a.07429.07429,0,0,1-.09113.02374c-.05877-.04573-.10474-.09667-.07192-.17913l.09614-.00525C65.47073,30.06965,65.49028,30.10306,65.49992,30.14751Z" fill="#6f7073"/>
        <path d="M65.32142,30.079l.09772.158a.84173.84173,0,0,1,.02966.36231q.00186,6.62766,0,13.25532a.81273.81273,0,0,1-.03065.362l-.08513.09413c-.08127.005-.16253.01428-.24377.01431q-4.17509.00129-8.35016-.00045c-.14444-.00009-.30346.033-.4119-.11047q-.00156-6.88632-.00265-13.77264c0-.09494.007-.18987.01068-.28481a.05063.05063,0,0,0,.0204-.062c.09476-.00663.1895-.01906.28426-.01905Q60.98063,30.07622,65.32142,30.079Z" fill="#fff"/>
        <path d="M65.41811,44.21663c-.00261-.46179-.00743-.92357-.0075-1.38535q-.00092-6.07315,0-12.1463c0-.14932.00554-.29864.00852-.448a.25472.25472,0,0,0,.06537-.00261c.00247.7478.007,1.49562.00715,2.24344q.00111,5.60916-.00041,11.21834c-.00005.17641-.011.35282-.01694.52928A.16307.16307,0,0,0,65.41811,44.21663Z" fill="#7d7f81"/>
      </g>
    </g>
    <g>
      <path d="M61.0708,49.73268a27.12939,27.12939,0,0,1-45.4108,4.689" fill="none" stroke="#000" stroke-miterlimit="10"/>
      <polygon points="20.392 54.664 16.434 55.39 14.209 58.743 12.467 49.376 20.392 54.664"/>
    </g>
    <g>
      <path d="M12.57249,25.4092a27.12932,27.12932,0,0,1,45.33087-5.01841" fill="none" stroke="#000" stroke-miterlimit="10"/>
      <polygon points="53.171 20.189 57.122 19.429 59.317 16.057 61.141 25.408 53.171 20.189"/>
    </g>
    <g>
      <path d="M37.41639,34.4305a15.8789,15.8789,0,0,1-5.157-.8173,4.52579,4.52579,0,0,1-1.41859-.77691,1.13259,1.13259,0,0,1,.00647-1.92853,6.04373,6.04373,0,0,1,2.708-1.15807,17.43724,17.43724,0,0,1,9.00579.31992,4.3556,4.3556,0,0,1,1.62607.87109,1.10586,1.10586,0,0,1-.00658,1.86383,6.57762,6.57762,0,0,1-3.01082,1.25619A18.64989,18.64989,0,0,1,37.41639,34.4305Z"/>
      <path d="M44.706,40.89955c0,.802.00254,1.48326-.0008,2.16447a1.45736,1.45736,0,0,1-.76556,1.20489,6.87819,6.87819,0,0,1-2.62573,1.019,17.41336,17.41336,0,0,1-9.00812-.40457,6.09925,6.09925,0,0,1-.8475-.37671A1.80364,1.80364,0,0,1,30.3076,42.579a15.11719,15.11719,0,0,0,.0102-1.61425c1.55573,1.35619,3.44113,1.61492,5.33681,1.798a17.7876,17.7876,0,0,0,6.55668-.49693A4.94578,4.94578,0,0,0,44.706,40.89955Z"/>
      <path d="M44.70244,37.1437c0,.83006.01915,1.55566-.00665,2.27966a1.40123,1.40123,0,0,1-.73319,1.07558A7.0119,7.0119,0,0,1,41.20669,41.557a17.47269,17.47269,0,0,1-8.82511-.40054,6.95093,6.95093,0,0,1-.80935-.34671,1.86642,1.86642,0,0,1-1.26392-2.04139,13.9891,13.9891,0,0,0,.01015-1.5785,7.20441,7.20441,0,0,0,4.08195,1.666,18.28691,18.28691,0,0,0,8.02147-.407A4.58783,4.58783,0,0,0,44.70244,37.1437Z"/>
      <path d="M30.3116,33.41783a5.89524,5.89524,0,0,0,3.21959,1.52161,18.22462,18.22462,0,0,0,9.06981-.30711,4.32287,4.32287,0,0,0,2.08036-1.22787c0,.84852.03937,1.61673-.01435,2.37837a1.4371,1.4371,0,0,1-.80765,1.02756,8.31092,8.31092,0,0,1-3.27839,1.111,17.69827,17.69827,0,0,1-7.885-.40533,5.1107,5.1107,0,0,1-1.82087-.90291,1.40955,1.40955,0,0,1-.5691-1.21049C30.32953,34.7685,30.3116,34.1328,30.3116,33.41783Z"/>
    </g>
    <g>
      <path d="M13.82705,36.17486a6.53552,6.53552,0,0,1-2.12249-.33639,1.86285,1.86285,0,0,1-.58386-.31976.46615.46615,0,0,1,.00266-.79374,2.48747,2.48747,0,0,1,1.11456-.47664,7.17678,7.17678,0,0,1,3.7066.13168,1.79261,1.79261,0,0,1,.66925.35852.45514.45514,0,0,1-.00271.76711,2.70726,2.70726,0,0,1-1.23919.517A7.67618,7.67618,0,0,1,13.82705,36.17486Z"/>
      <path d="M16.8273,38.83738c0,.33009.001.61047-.00033.89084a.59984.59984,0,0,1-.31508.49591,2.831,2.831,0,0,1-1.0807.41938,7.1669,7.1669,0,0,1-3.70755-.16651,2.51073,2.51073,0,0,1-.34881-.155.74236.74236,0,0,1-.47361-.79335,6.221,6.221,0,0,0,.0042-.6644,3.65956,3.65956,0,0,0,2.19652.74,7.32092,7.32092,0,0,0,2.69859-.20453A2.0355,2.0355,0,0,0,16.8273,38.83738Z"/>
      <path d="M16.82583,37.29155c0,.34163.00788.64028-.00274.93826a.57667.57667,0,0,1-.30176.44268,2.886,2.886,0,0,1-1.13428.43548,7.19133,7.19133,0,0,1-3.63222-.16485,2.86084,2.86084,0,0,1-.33311-.1427.76819.76819,0,0,1-.52021-.84019,5.7544,5.7544,0,0,0,.00418-.64968,2.96528,2.96528,0,0,0,1.68.68569,7.52675,7.52675,0,0,0,3.30146-.16752A1.8883,1.8883,0,0,0,16.82583,37.29155Z"/>
      <path d="M10.90287,35.75806a2.42637,2.42637,0,0,0,1.32511.62626,7.50088,7.50088,0,0,0,3.73294-.1264,1.77915,1.77915,0,0,0,.85624-.50536c0,.34923.0162.66541-.00591.97889a.59149.59149,0,0,1-.33241.42292,3.42078,3.42078,0,0,1-1.34932.45726,7.28407,7.28407,0,0,1-3.24531-.16683,2.1032,2.1032,0,0,1-.74944-.37162.58012.58012,0,0,1-.23422-.4982C10.91025,36.314,10.90287,36.05233,10.90287,35.75806Z"/>
    </g>
    <g>
      <path d="M60.967,35.89116a6.53525,6.53525,0,0,1-2.12249-.33639,1.86285,1.86285,0,0,1-.58386-.31976.46615.46615,0,0,1,.00266-.79374,2.48751,2.48751,0,0,1,1.11457-.47664,7.17674,7.17674,0,0,1,3.70659.13168,1.79261,1.79261,0,0,1,.66925.35852.45516.45516,0,0,1-.0027.76711,2.70725,2.70725,0,0,1-1.2392.517A7.67618,7.67618,0,0,1,60.967,35.89116Z"/>
      <path d="M63.96729,38.55368c0,.33009.001.61047-.00033.89085a.59981.59981,0,0,1-.31509.4959,2.83092,2.83092,0,0,1-1.08069.41939,7.1669,7.1669,0,0,1-3.70755-.16652,2.50849,2.50849,0,0,1-.34882-.155.74232.74232,0,0,1-.4736-.79335,6.22078,6.22078,0,0,0,.00419-.66439,3.65954,3.65954,0,0,0,2.19652.74,7.32091,7.32091,0,0,0,2.69859-.20452A2.03564,2.03564,0,0,0,63.96729,38.55368Z"/>
      <path d="M63.96581,37.00785c0,.34164.00789.64028-.00273.93826a.57669.57669,0,0,1-.30177.44268,2.88578,2.88578,0,0,1-1.13427.43548,7.19137,7.19137,0,0,1-3.63223-.16485,2.86255,2.86255,0,0,1-.33311-.1427.76816.76816,0,0,1-.5202-.84019,5.75675,5.75675,0,0,0,.00418-.64968,2.96521,2.96521,0,0,0,1.68.68569,7.52643,7.52643,0,0,0,3.30146-.16752A1.88815,1.88815,0,0,0,63.96581,37.00785Z"/>
      <path d="M58.04285,35.47436a2.4264,2.4264,0,0,0,1.32512.62626,7.501,7.501,0,0,0,3.73294-.12639,1.77926,1.77926,0,0,0,.85623-.50537c0,.34923.0162.66541-.00591.97889a.59146.59146,0,0,1-.33241.42292,3.42035,3.42035,0,0,1-1.34932.45726,7.28422,7.28422,0,0,1-3.24531-.16682,2.1034,2.1034,0,0,1-.74943-.37162.58013.58013,0,0,1-.23423-.49821C58.05023,36.03027,58.04285,35.76863,58.04285,35.47436Z"/>
    </g>
  </g>
</svg>
