<svg id="Layer_1" data-name="Layer 1" xmlns="http://www.w3.org/2000/svg" viewBox="0 0 75 75">
  <g id="shapes">
    <circle cx="37.5" cy="37.5" r="36" fill="#ff9" stroke="#000" stroke-miterlimit="10" stroke-width="3"/>
  </g>
  <g id="lightbulb">
    <g>
      <path d="M37.48,58.06c-1.53,0-3.05.01-4.58,0-1.09-.01-1.49-.35-1.59-1.44-.12-1.32-.12-2.65-.3-3.95a19.71789,19.71789,0,0,0-3.8-9.12,22.34592,22.34592,0,0,1-3.03-4.82A14.34518,14.34518,0,0,1,29.5,21.56a13.99957,13.99957,0,0,1,16.64.45,13.81406,13.81406,0,0,1,5.59,13.03,13.502,13.502,0,0,1-2.8,7,26.56748,26.56748,0,0,0-3.8,6.46,19.68292,19.68292,0,0,0-1.4,7.58q0,.33-.03.66a1.2745,1.2745,0,0,1-1.46,1.32c-.96.02-1.93,0-2.89,0Zm-3.7-2.54h7.44c.01-.21.03-.37.03-.53A23.40819,23.40819,0,0,1,43.06,47a32.62964,32.62964,0,0,1,4.07-6.72,11.19943,11.19943,0,0,0,1.96-9.31,11.77819,11.77819,0,0,0-18.22-7.34,11.92952,11.92952,0,0,0-4.97,12.2,13.34021,13.34021,0,0,0,2.84,5.64,22.63311,22.63311,0,0,1,3.98,7.57A24.1343,24.1343,0,0,1,33.78,55.52Z"/>
      <path d="M37.52,62.27c-1.58,0-3.17.01-4.75,0-1.11-.01-1.73-.73-1.43-1.62a1.236,1.236,0,0,1,1.3-.86c3.25,0,6.5-.01,9.75,0a1.24032,1.24032,0,1,1,.01,2.47c-1.2.03-2.41.01-3.61.01Z"/>
      <path d="M37.48,66.99c-.98,0-1.96.01-2.95,0a1.143,1.143,0,0,1-1.21-.71,1.59516,1.59516,0,0,1,.12-1.22,1.57791,1.57791,0,0,1,1.11-.54c1.96-.05,3.93-.04,5.89-.02a1.25363,1.25363,0,1,1-.02,2.49C39.44,67.01,38.46,67,37.48,66.99Z"/>
      <path d="M26.16,18.62a1.25632,1.25632,0,0,1-1.72,1.27,1.83447,1.83447,0,0,1-.53-.38c-.94-.93-1.88-1.86-2.8-2.81a1.24055,1.24055,0,1,1,1.73-1.76c.98.95,1.94,1.91,2.88,2.89A3.62127,3.62127,0,0,1,26.16,18.62Z"/>
      <path d="M50.05,20.13a5.11051,5.11051,0,0,1-.99-.74.97748.97748,0,0,1-.02-1.23,4.17243,4.17243,0,0,1,.58-.68c.83-.84,1.66-1.68,2.51-2.51a1.2435,1.2435,0,1,1,1.77,1.72c-.94.96-1.88,1.92-2.85,2.84A5.26967,5.26967,0,0,1,50.05,20.13Z"/>
      <path d="M38.73,11.44c0,.68.02,1.36-.01,2.04a1.21883,1.21883,0,0,1-1.21,1.3,1.19189,1.19189,0,0,1-1.23-1.27q-.03-2.1,0-4.2A1.2394,1.2394,0,0,1,37.49,8a1.25347,1.25347,0,0,1,1.24,1.34C38.74,10.04,38.73,10.74,38.73,11.44Z"/>
      <path d="M17.56,30.12c.68,0,1.36-.02,2.04,0a1.228,1.228,0,0,1,1.33,1.24,1.21309,1.21309,0,0,1-1.3,1.21q-2.1.03-4.2,0a1.22867,1.22867,0,0,1-1.28-1.23,1.24559,1.24559,0,0,1,1.31-1.21C16.16,30.11,16.86,30.12,17.56,30.12Z"/>
      <path d="M57.41,32.58c-.66,0-1.32.01-1.98,0a1.2375,1.2375,0,0,1-1.36-1.21,1.22259,1.22259,0,0,1,1.33-1.24q2.07-.03,4.14,0a1.2394,1.2394,0,0,1,1.31,1.21,1.25928,1.25928,0,0,1-1.34,1.24h-2.1Z"/>
      <path d="M33.78,55.52a24.402,24.402,0,0,0-1.05-6.5,22.81557,22.81557,0,0,0-3.98-7.57,13.34021,13.34021,0,0,1-2.84-5.64,11.91214,11.91214,0,0,1,4.97-12.2A11.78248,11.78248,0,0,1,49.1,30.95a11.23465,11.23465,0,0,1-1.96,9.31,33.16876,33.16876,0,0,0-4.07,6.72,23.17717,23.17717,0,0,0-1.81,7.99c-.01.16-.02.32-.03.53C38.75,55.52,36.3,55.52,33.78,55.52Z" fill="#fff"/>
    </g>
  </g>
</svg>
