<svg id="Layer_1" data-name="Layer 1" xmlns="http://www.w3.org/2000/svg" viewBox="0 0 75 75">
  <g id="shapes">
    <circle cx="37.5" cy="37.5" r="36" fill="#ff9" stroke="#000" stroke-miterlimit="10" stroke-width="3"/>
  </g>
  <g id="internet">
    <g id="server">
      <path d="M67.44,37.93v9.68c0,1.39-.47,1.85-1.88,1.85-2.76,0-5.53.01-8.29,0-1.24,0-1.75-.5-1.75-1.74q-.015-9.855,0-19.7c0-1.23.52-1.73,1.76-1.73,2.82,0,5.64-.01,8.45,0,1.18,0,1.7.53,1.71,1.7Z"/>
      <path d="M61.45,45.35c1.06,0,2.13.01,3.19,0,.43,0,.78.08.79.59.02.55-.33.66-.81.66q-3.15-.015-6.3,0c-.42,0-.76-.05-.78-.59-.02-.58.33-.66.8-.66C59.38,45.36,60.41,45.35,61.45,45.35Z" fill="#f7f7f7"/>
      <path d="M61.39,38.3c-1.03,0-2.07-.01-3.1,0-.43,0-.75-.07-.74-.61.01-.53.33-.6.76-.6,2.12.01,4.25.01,6.37,0,.45,0,.75.12.75.62,0,.53-.35.6-.77.59C63.57,38.29,62.48,38.3,61.39,38.3Z" fill="#fcfcfc"/>
      <path d="M61.58,42.62c1.04,0,2.08.01,3.12,0,.46-.01.76.13.73.64-.02.46-.31.57-.72.57q-3.24-.015-6.48,0c-.43,0-.67-.14-.68-.6-.01-.48.25-.61.67-.61Z" fill="#fcfcfc"/>
      <path d="M61.54,39.86c1.03,0,2.07.01,3.1,0,.43-.01.78.05.79.58.01.5-.28.63-.73.63q-3.225-.015-6.45,0c-.41,0-.69-.08-.7-.57-.01-.53.27-.64.72-.63C59.36,39.87,60.45,39.86,61.54,39.86Z" fill="#fdfdfd"/>
      <path d="M64.59,29.9c.51.07.84.34.83.85a.80041.80041,0,0,1-1.6-.05C63.82,30.2,64.17,30,64.59,29.9Z" fill="#f4f4f4"/>
    </g>
  </g>
  <g>
    <path d="M7.13,36.99V27.93c0-.88.22-1.12,1.1-1.13q5.985-.015,11.97,0c.81,0,1.04.24,1.04,1.05q.015,9.09,0,18.18c0,.87-.24,1.09-1.13,1.1-3.95,0-7.89,0-11.84-.01-.92,0-1.15-.23-1.15-1.14q.03-4.485.01-8.99Zm1.22,6.47H9c3.45,0,6.9-.02,10.35.02.62.01.74-.21.74-.77q-.03-6.69,0-13.39c0-.59-.16-.77-.76-.77-3.36.03-6.73.01-10.09.01-.92,0-.93,0-.93.9V42.72C8.32,42.93,8.34,43.14,8.35,43.46Zm5.85,2.98c.46-.02.99.1,1.19-.51.38-1.13-.06-1.72-1.25-1.72a1.79183,1.79183,0,0,0-.57.03.90507.90507,0,0,0-.49.35A1.17793,1.17793,0,0,0,14.2,46.44Z"/>
    <path d="M8.35,43.46c-.02-.32-.04-.53-.04-.74V29.46c0-.9,0-.9.93-.9,3.36,0,6.73.01,10.09-.01.6,0,.76.18.76.77q-.03,6.69,0,13.39c0,.57-.11.78-.74.77-3.45-.03-6.9-.02-10.35-.02ZM19.11,30.6H9.27v.7h9.84Zm.01,4.27H9.26v.63h9.86Zm0-2.13H9.22c.02.26.04.46.05.65h9.84C19.12,33.15,19.12,32.97,19.12,32.74ZM9.26,37.68H19.1v-.67H9.22C9.24,37.26,9.25,37.45,9.26,37.68Zm7.5,1.42H9.27v.66h7.49Z" fill="#fff"/>
    <path d="M14.2,46.44a1.1788,1.1788,0,0,1-1.13-1.84.89192.89192,0,0,1,.49-.35,1.79183,1.79183,0,0,1,.57-.03c1.19-.01,1.63.58,1.25,1.72C15.19,46.54,14.66,46.42,14.2,46.44Z" fill="#fff"/>
    <path d="M19.11,30.6v.7H9.27v-.7Z"/>
    <path d="M19.12,34.87v.63H9.26v-.63Z"/>
    <path d="M19.12,32.74v.65H9.28c-.01-.19-.03-.39-.05-.65Z"/>
    <path d="M9.26,37.68c-.01-.24-.02-.42-.03-.67h9.88v.67Z"/>
    <path d="M16.76,39.1v.66H9.27V39.1Z"/>
  </g>
  <path d="M47.55,25.11c.17.37.48.73.48,1.1.04,3.44.02,6.89.02,10.33,0,.88-.16,1.04-1.02,1.04H29.69c-.85,0-1.03-.18-1.03-1.04,0-3.44-.02-6.89.02-10.33,0-.37.31-.74.48-1.1ZM38.33,36.42c2.61,0,5.21-.01,7.82.01.55.01.74-.14.74-.72q-.045-4.32,0-8.64c.01-.59-.15-.77-.76-.77q-7.785.03-15.57,0c-.55,0-.74.14-.74.72.03,2.9.02,5.8,0,8.7,0,.53.14.7.69.7C33.12,36.41,35.73,36.42,38.33,36.42Z"/>
  <path d="M38.35,45.11c-3.24,0-6.49-.01-9.73,0a1.64344,1.64344,0,0,1-1.64-.86,1.69645,1.69645,0,0,1-.1-1.15c.42-1.27.95-2.5,1.4-3.76.16-.45.44-.48.83-.48q7.185.015,14.36.01c1.43,0,2.86.02,4.29-.01a.64062.64062,0,0,1,.73.51c.43,1.19.9,2.37,1.34,3.56a1.55317,1.55317,0,0,1-1.54,2.17c-1.68.02-3.36.01-5.03.01Zm.05-2.96h0c-.63,0-1.26.01-1.9,0-.7,0-.67.62-.76,1.02-.1.43.24.74.68.75,1.31.02,2.62.04,3.93-.03A.96562.96562,0,0,0,41,43.2c.09-.67-.35-1.04-1.04-1.05Z"/>
  <path d="M38.33,36.42c-2.61,0-5.21-.01-7.82.01-.54.01-.69-.17-.69-.7q.03-4.35,0-8.7c-.01-.57.19-.72.74-.72q7.785.03,15.57,0c.61,0,.76.17.76.77q-.045,4.32,0,8.64c.01.58-.19.72-.74.72C43.55,36.41,40.94,36.42,38.33,36.42Z" fill="#fff"/>
  <path d="M38.4,42.15h1.56c.69,0,1.13.38,1.04,1.05a1.00265,1.00265,0,0,1-.65.69c-1.31.07-2.62.05-3.93.03-.44-.01-.78-.32-.68-.75.09-.4.06-1.02.76-1.02.63.01,1.26,0,1.9,0Z" fill="#fff"/>
  <g id="game">
    <path d="M38.35,66.74H33.66a5.06414,5.06414,0,0,1-1.5-.19,3.17234,3.17234,0,0,1-1.23-.65.9671.9671,0,0,0-.57-.26,3.04768,3.04768,0,0,1-2.65-2.67,8.4573,8.4573,0,0,1-.05-.87c-.01-1.35,0-2.69,0-4.04a3.29118,3.29118,0,0,1,.79-2.24,2.97564,2.97564,0,0,1,1.86-1.01.95783.95783,0,0,0,.58-.23,3.427,3.427,0,0,1,2.04-.83c.34-.03.68-.04,1.03-.04,3.04,0,6.07-.01,9.11,0a3.83813,3.83813,0,0,1,2.32.58,3.50076,3.50076,0,0,0,1.35.6A3.01892,3.01892,0,0,1,49,57.63c.03.57.04,1.14.05,1.71.01.96.01,1.93,0,2.89a3.55808,3.55808,0,0,1-.46,1.89,2.9622,2.9622,0,0,1-2.25,1.5.84161.84161,0,0,0-.45.16,4.03432,4.03432,0,0,1-2.78.94C41.52,66.75,39.93,66.74,38.35,66.74Zm-6.64-2.65H44.96V55.77c-.89-.08-12.98-.04-13.25.04Zm-2.58-4.84c-.12.01-.21.02-.31.03a.42555.42555,0,0,0-.41.42.43977.43977,0,0,0,.4.43c.11.02.22.03.33.04.01.12,0,.2.01.29a.38182.38182,0,0,0,.38.39.4105.4105,0,0,0,.45-.37c.02-.11.03-.22.04-.33a2.90888,2.90888,0,0,0,.32-.03.42437.42437,0,0,0,.38-.45.43609.43609,0,0,0-.39-.4c-.11-.02-.22-.03-.31-.04-.05-.52-.17-.7-.45-.7C29.28,58.55,29.18,58.71,29.13,59.25Zm15.11,5.26h0c-.19,0-.38-.01-.57,0-.15,0-.25.07-.24.23a.211.211,0,0,0,.24.2c.37.01.74.01,1.1,0a.22188.22188,0,0,0,.23-.21.21564.21564,0,0,0-.22-.22C44.59,64.5,44.41,64.51,44.24,64.51Zm-9.59-.01h-.53c-.14,0-.26.06-.27.21s.11.22.25.23c.36,0,.71.01,1.07,0,.14,0,.25-.06.25-.23-.01-.16-.13-.21-.27-.21Zm-2.15,0h-.57c-.14,0-.25.07-.24.23,0,.14.11.2.23.2.36.01.73.01,1.09,0,.14,0,.25-.07.24-.23-.01-.15-.13-.2-.27-.21C32.83,64.5,32.67,64.5,32.5,64.5Zm9.57.44h0c.16,0,.33.01.49,0,.14,0,.26-.05.26-.21s-.11-.22-.25-.22H41.51c-.14,0-.25.07-.24.23,0,.14.1.2.23.2Zm4.62-4.47a.3736.3736,0,0,0,.38.38.37791.37791,0,0,0,.4-.4.3736.3736,0,0,0-.38-.38A.37784.37784,0,0,0,46.69,60.47Zm-.39-.39a.381.381,0,0,0,.4-.36.39031.39031,0,1,0-.78-.01A.36544.36544,0,0,0,46.3,60.08Zm1.94-.4a.36775.36775,0,0,0-.38-.38.37784.37784,0,0,0-.4.4.38639.38639,0,0,0,.38.38A.37784.37784,0,0,0,48.24,59.68Zm-1.17-1.15a.3736.3736,0,0,0-.38.38.38325.38325,0,0,0,.4.4.38949.38949,0,0,0,.38-.42A.37389.37389,0,0,0,47.07,58.53Z"/>
    <path d="M31.71,64.09V55.8c.27-.08,12.35-.11,13.25-.04v8.32C40.54,64.09,36.15,64.09,31.71,64.09ZM44.8,64Z" fill="#fff"/>
    <path d="M29.13,59.25c.05-.54.16-.71.45-.7.28,0,.4.17.45.7.1.01.21.02.31.04a.41953.41953,0,0,1,.39.4.43221.43221,0,0,1-.38.45,2.90888,2.90888,0,0,1-.32.03c-.01.11-.02.22-.04.33a.41778.41778,0,0,1-.45.37.38182.38182,0,0,1-.38-.39,2.53212,2.53212,0,0,1-.01-.29c-.12-.02-.22-.02-.33-.04a.43168.43168,0,0,1-.4-.43.42555.42555,0,0,1,.41-.42A1.16789,1.16789,0,0,1,29.13,59.25Z" fill="#fff"/>
    <path d="M44.24,64.51c.18,0,.36-.01.53,0a.21528.21528,0,1,1-.01.43c-.37.01-.74.01-1.1,0a.21615.21615,0,0,1-.24-.2c-.01-.16.1-.23.24-.23a5.60948,5.60948,0,0,1,.58,0Z" fill="#fff"/>
    <path d="M34.65,64.5h.5c.14,0,.26.05.27.21s-.11.22-.25.23c-.36.01-.71.01-1.07,0-.14,0-.26-.07-.25-.23.01-.15.12-.21.27-.21Z" fill="#fff"/>
    <path d="M32.5,64.5h.49c.14,0,.26.05.27.21a.21343.21343,0,0,1-.24.23c-.36.01-.73.01-1.09,0a.20825.20825,0,0,1-.23-.2c0-.16.1-.22.24-.23.18-.01.37-.01.56-.01Z" fill="#fff"/>
    <path d="M42.07,64.94c-.19,0-.38.01-.57,0-.12-.01-.22-.06-.23-.2-.01-.16.1-.23.24-.23h1.06c.14,0,.25.06.25.22s-.12.21-.26.21Z" fill="#fff"/>
    <path d="M46.69,60.47a.3728.3728,0,0,1,.4-.4.39013.39013,0,1,1-.4.4Z" fill="#fff"/>
    <path d="M46.3,60.08a.39013.39013,0,1,1,.4-.37A.38862.38862,0,0,1,46.3,60.08Z" fill="#fff"/>
    <path d="M48.24,59.68a.39013.39013,0,1,1-.78.02.39013.39013,0,0,1,.78-.02Z" fill="#fff"/>
    <path d="M47.07,58.53a.36835.36835,0,0,1,.4.36.39062.39062,0,1,1-.78.02A.3736.3736,0,0,1,47.07,58.53Z" fill="#fff"/>
    <path d="M44.8,64h0Z"/>
  </g>
  <g id="camera">
    <path d="M28.57,7.3c.29-.26.53-.6.98-.58.03,0,.08-.01.09-.04.27-.43.7-.28,1.08-.3a6.39957,6.39957,0,0,1,1.35.63c.11.21.2.43.33.71h.44c.93,0,1.86-.03,2.79.01a.8331.8331,0,0,0,.93-.59c.27-.6.61-1.16.89-1.75a.57864.57864,0,0,1,.59-.38c1.21.02,2.41.01,3.63.01.47.9.94,1.79,1.41,2.69h4.09c.72.01,1.03.29,1.03.99q.015,5.145,0,10.29c0,.68-.31.98-.98,1h-.41c-5.59,0-11.18-.01-16.76.01a1.57562,1.57562,0,0,1-1.48-.62Zm16.3,6.57a5.20012,5.20012,0,1,0-5.2,5.2A5.21533,5.21533,0,0,0,44.87,13.87ZM40.91,5.89H38.42V7.15h2.49ZM32.34,17.14a58.20069,58.20069,0,0,0-.02-6.22A51.66344,51.66344,0,0,0,32.34,17.14Zm2.14-7.57a.36517.36517,0,0,0-.35-.37.37554.37554,0,1,0,.01.75A.36525.36525,0,0,0,34.48,9.57Z"/>
    <path d="M44.87,13.87a5.20507,5.20507,0,1,1-5.19-5.22A5.22385,5.22385,0,0,1,44.87,13.87Zm-1.57-.02a3.64005,3.64005,0,1,0-3.64,3.66A3.63825,3.63825,0,0,0,43.3,13.85Z" fill="#fff"/>
    <path d="M40.91,5.89V7.15H38.42V5.89Z" fill="#fff"/>
    <path d="M32.34,17.14a51.66924,51.66924,0,0,1-.02-6.22A58.21565,58.21565,0,0,1,32.34,17.14Z" fill="#fff"/>
    <path d="M34.48,9.57a.36521.36521,0,1,1-.73.01.382.382,0,0,1,.39-.38A.36379.36379,0,0,1,34.48,9.57Z" fill="#fff"/>
    <path d="M43.3,13.85a3.64011,3.64011,0,1,1-3.66-3.64A3.63838,3.63838,0,0,1,43.3,13.85Zm-3.62-2.03a2.17275,2.17275,0,0,1,2.05,2.05c.29-.01.54-.03.78-.04a2.73637,2.73637,0,0,0-2.83-2.79Z"/>
    <path d="M39.68,11.82v-.77a2.73637,2.73637,0,0,1,2.83,2.79c-.24.01-.49.02-.78.04A2.15914,2.15914,0,0,0,39.68,11.82Z" fill="#fff"/>
  </g>
</svg>
