<svg id="Layer_1" data-name="Layer 1" xmlns="http://www.w3.org/2000/svg" viewBox="0 0 75 75">
  <g id="shapes">
    <circle cx="37.5" cy="37.5" r="36" fill="#ff9" stroke="#000" stroke-miterlimit="10" stroke-width="3"/>
  </g>
  <g id="CAMERA">
    <g>
      <path d="M12.71,23.04c.72-.66,1.33-1.52,2.48-1.47a.29267.29267,0,0,0,.23-.1c.68-1.09,1.76-.7,2.72-.76a16.01414,16.01414,0,0,1,3.4,1.59c.28.53.51,1.08.84,1.8h1.1c2.35,0,4.71-.09,7.05.03a2.12743,2.12743,0,0,0,2.35-1.48c.68-1.51,1.53-2.93,2.25-4.41a1.42612,1.42612,0,0,1,1.49-.95c3.04.05,6.09.02,9.16.02,1.19,2.28,2.36,4.51,3.55,6.79h5.51c1.61,0,3.22-.01,4.83,0,1.81.01,2.59.74,2.59,2.51q.015,12.99,0,25.98a2.20426,2.20426,0,0,1-2.46,2.53c-.35.01-.7,0-1.04,0-14.1,0-28.21-.02-42.31.03-1.54,0-2.83-.22-3.74-1.55ZM53.86,39.63A13.1353,13.1353,0,1,0,40.72,52.77,13.17062,13.17062,0,0,0,53.86,39.63ZM43.87,19.48h-6.3v3.19h6.3ZM22.24,47.89a148.49327,148.49327,0,0,0-.04-15.7C21.91,33.17,21.89,46.76,22.24,47.89Zm5.41-19.12a.93016.93016,0,1,0-.85.95A.92469.92469,0,0,0,27.65,28.77Z"/>
      <path d="M53.86,39.63A13.13515,13.13515,0,1,1,40.78,26.45,13.19416,13.19416,0,0,1,53.86,39.63Zm-3.96-.05a9.18516,9.18516,0,1,0-9.19,9.24A9.18636,9.18636,0,0,0,49.9,39.58Z" fill="#fff"/>
      <path d="M43.87,19.48v3.19h-6.3V19.48Z" fill="#fff"/>
      <path d="M22.24,47.89c-.35-1.13-.33-14.72-.04-15.7A148.49327,148.49327,0,0,1,22.24,47.89Z" fill="#fff"/>
      <path d="M27.65,28.77a.91718.91718,0,0,1-.84.95.94435.94435,0,1,1,.84-.95Z" fill="#fff"/>
      <path d="M49.9,39.58a9.18536,9.18536,0,1,1-9.23-9.2A9.1802,9.1802,0,0,1,49.9,39.58Zm-9.13-5.13c3.07.33,4.71,2.16,5.17,5.18.74-.04,1.36-.07,1.97-.1.02-4.03-3.43-7.4-7.14-7.04Z" opacity="0.5" style="isolation: isolate"/>
      <path d="M40.77,34.45V32.5c3.71-.36,7.16,3.01,7.14,7.04-.61.03-1.24.06-1.97.1C45.48,36.61,43.84,34.79,40.77,34.45Z" fill="#fff"/>
    </g>
  </g>
</svg>
