<svg id="Layer_1" data-name="Layer 1" xmlns="http://www.w3.org/2000/svg" viewBox="0 0 75 75">
  <g id="shapes">
    <circle cx="37.5" cy="37.5" r="36" fill="#ff9" stroke="#000" stroke-miterlimit="10" stroke-width="3"/>
  </g>
  <g id="function">
    <g>
      <path d="M19.25533,47.64569a23.0517,23.0517,0,0,1-1.7868-4.19743.38277.38277,0,0,0-.30008-.16659c-.87524-.01332-1.75081-.00181-2.62619-.00933a1.91658,1.91658,0,0,1-1.98344-1.48185,2.857,2.857,0,0,1-.05566-.65146q-.005-3.73627.00013-7.47257a1.90441,1.90441,0,0,1,1.871-1.93727q.03721-.00064.07442.00016c.99916-.0051,1.99837-.00108,2.956-.00108.34029-.88991.65117-1.75136,1.0001-2.59711a16.06072,16.06072,0,0,1,.71677-1.45643.33368.33368,0,0,0-.0564-.46851l-.01342-.01c-.625-.59767-1.23518-1.21083-1.84792-1.82119a1.9616,1.9616,0,0,1,.0149-2.9567q2.59-2.58258,5.17331-5.1718a1.96127,1.96127,0,0,1,3.02149.00142c.605.60343,1.213,1.20393,1.80975,1.81542a.27746.27746,0,0,0,.38683.06577l.01126-.00842a19.03613,19.03613,0,0,1,3.82562-1.598.33324.33324,0,0,0,.28562-.37487l-.0025-.01571c-.01348-.87525-.00842-1.75085-.00473-2.6263a1.90249,1.90249,0,0,1,1.80278-1.99723q.08745-.00447.17506-.00089,3.78315-.011,7.56635-.00054a1.90109,1.90109,0,0,1,1.99929,1.79751q.00477.08985.001.17985c.01309.88567.00771,1.77173-.00069,2.6575a.30282.30282,0,0,0,.24406.3519l.00781.00131a19.101,19.101,0,0,1,3.88013,1.62856.259.259,0,0,0,.364-.04064l.00945-.01259c.61162-.626,1.23332-1.2422,1.85329-1.86a1.93656,1.93656,0,0,1,2.95062.00893q2.63,2.63139,5.2564,5.26641a1.93274,1.93274,0,0,1,.0997,2.7315q-.03236.0348-.06639.068c-.62307.64413-1.2601,1.275-1.902,1.9004a.3175.3175,0,0,0-.0822.44142l.0081.01127A19.08014,19.08014,0,0,1,57.456,31.4778a.29593.29593,0,0,0,.3299.25751l.016-.00242q1.39117-.01629,2.78265-.00318A1.907,1.907,0,0,1,62.4939,33.61q.01356,3.877-.00176,7.754a1.86838,1.86838,0,0,1-1.42643,1.83041,2.97831,2.97831,0,0,1-.71126.07617c-.84408.00879-1.68832.00467-2.53248.00247-.15216-.00039-.2745.00049-.3327.19328a21.43912,21.43912,0,0,1-1.76741,4.15986c.43468.42007.87692.84506,1.3163,1.273.2463.23989.48912.4834.73134.72743a1.93161,1.93161,0,0,1,.00135,2.95153c-1.14559,1.153-2.30051,2.29667-3.45018,3.44558-.58223.58184-1.16,1.16815-1.743,1.74922a1.94134,1.94134,0,0,1-2.932.02343c-.61962-.60333-1.23739-1.20894-1.84051-1.8286a.32816.32816,0,0,0-.45785-.07585l-.01877.01449A19.69931,19.69931,0,0,1,43.5276,57.484a.30232.30232,0,0,0-.264.33634l.00117.00866c.00927.8545.006,1.70915.00328,2.56374a1.94976,1.94976,0,0,1-2.106,2.1041q-3.6738.00086-7.34761-.00009a1.93448,1.93448,0,0,1-2.08726-2.08407c-.00108-.865-.006-1.73014.00407-2.59506a.29615.29615,0,0,0-.24005-.34321l-.01486-.00225a19.7097,19.7097,0,0,1-3.828-1.592.31183.31183,0,0,0-.43741.05607l-.012.01667c-.60272.62032-1.21743,1.22907-1.83178,1.838a1.95092,1.95092,0,0,1-2.93634-.0055q-2.60415-2.59093-5.2-5.19021a1.94581,1.94581,0,0,1,.01438-2.99756C17.90985,48.93821,18.58826,48.29251,19.25533,47.64569Zm34.54416,3.42957c-.50393-.50181-.99935-.99328-1.4927-1.48683a1.95466,1.95466,0,0,1-.32611-2.745l.02294-.02857a17.23624,17.23624,0,0,0,2.38382-5.67062,1.95083,1.95083,0,0,1,2.15079-1.72788l.01444.00163c.68556-.00009,1.37111,0,2.07729,0V35.579h-.34715c-.59411,0-1.18822.001-1.78233-.00032a1.97848,1.97848,0,0,1-2.14943-1.753,16.64132,16.64132,0,0,0-2.27866-5.613,2.02824,2.02824,0,0,1,.25593-2.85692q.04289-.03585.08771-.06928c.4703-.45108.93112-.91205,1.35908-1.33209l-2.71734-2.75888c-.48763.497-.97306.9975-1.46474,1.49177a1.97557,1.97557,0,0,1-2.735.284,16.59613,16.59613,0,0,0-5.643-2.36476,1.98991,1.98991,0,0,1-1.80258-2.16106l.00448-.04407c-.00019-.67467,0-1.34934,0-2.03006H35.6086a.47551.47551,0,0,0-.02342.088c-.00225.69831.00116,1.39667-.006,2.09493A1.9445,1.9445,0,0,1,33.937,20.575a17.316,17.316,0,0,0-5.867,2.474,2.25424,2.25424,0,0,1-.61652.29147,1.89157,1.89157,0,0,1-1.94277-.54738c-.52741-.53048-1.04589-1.06983-1.5464-1.58285l-2.70979,2.71133c.46438.47578.93519.97607,1.42545,1.45649a1.97756,1.97756,0,0,1,.34257,2.75577,17.21676,17.21676,0,0,0-2.43018,5.85094,1.92235,1.92235,0,0,1-1.9646,1.59215c-.63567.00928-1.27159.00115-1.90739.003-.11976.00035-.23949.01081-.35447.01637v3.79615a.44213.44213,0,0,0,.08256.02145c.71916.002,1.43834.00052,2.15748.0049A1.915,1.915,0,0,1,20.547,40.95821a17.60319,17.60319,0,0,0,2.54813,6.0369,1.85019,1.85019,0,0,1,.1077,1.93327,2.65177,2.65177,0,0,1-.49627.636c-.49962.51-1.01561,1.004-1.475,1.4551L23.968,53.764c.47439-.479.97076-.98421,1.47153-1.485a1.93556,1.93556,0,0,1,2.70232-.29868,17.53521,17.53521,0,0,0,5.87862,2.44923A1.89609,1.89609,0,0,1,35.5767,56.3519c.00837.64616.00294,1.29249.00364,1.93875.00012.11039,0,.22079,0,.34079h3.83885c0-.74911-.00129-1.47776.00031-2.20641a1.93329,1.93329,0,0,1,1.62124-1.999,15.35667,15.35667,0,0,0,4.023-1.41856c.66291-.34847,1.30717-.7334,1.95184-1.11541a1.89764,1.89764,0,0,1,2.42923.291c.54162.54233,1.07014,1.09777,1.5921,1.63467Z"/>
      <path d="M53.79949,51.07526l-2.76255,2.74243c-.522-.5369-1.05048-1.09234-1.59211-1.63467a1.89763,1.89763,0,0,0-2.42923-.291c-.64467.382-1.28892.76694-1.95184,1.11541a15.35642,15.35642,0,0,1-4.023,1.41856,1.93329,1.93329,0,0,0-1.62123,1.999c-.0016.72865-.00031,1.4573-.00031,2.20641H35.58036c0-.12.0001-.2304,0-.34079-.0007-.64626.00473-1.29259-.00364-1.93875a1.89608,1.89608,0,0,0-1.55621-1.92236,17.53521,17.53521,0,0,1-5.87862-2.44923,1.93556,1.93556,0,0,0-2.70232.29868c-.50077.50081-.99714,1.006-1.47153,1.485L21.23157,51.0194c.45939-.45114.97538-.9451,1.475-1.4551a2.65177,2.65177,0,0,0,.49627-.636,1.85019,1.85019,0,0,0-.1077-1.93327,17.60327,17.60327,0,0,1-2.54813-6.0369,1.915,1.915,0,0,0-1.94109-1.53949c-.71914-.00438-1.43832-.00292-2.15748-.0049a.44213.44213,0,0,1-.08256-.02145V35.59622c.115-.00556.23471-.016.35447-.01637.6358-.00182,1.27172.00631,1.90739-.003a1.92235,1.92235,0,0,0,1.9646-1.59215,17.21676,17.21676,0,0,1,2.43018-5.85094A1.97756,1.97756,0,0,0,22.68,25.378c-.49026-.48042-.96107-.98071-1.42545-1.45649l2.70979-2.71133c.50051.513,1.019,1.05237,1.5464,1.58285a1.89157,1.89157,0,0,0,1.94277.54738A2.2543,2.2543,0,0,0,28.07,23.049a17.316,17.316,0,0,1,5.867-2.474,1.9445,1.9445,0,0,0,1.64209-2.02073c.0072-.69826.00379-1.39662.006-2.09493a.47494.47494,0,0,1,.02342-.088h3.8083c0,.68072-.00015,1.35539,0,2.03006a1.9899,1.9899,0,0,0,1.754,2.20065l.04407.00448A16.59636,16.59636,0,0,1,46.858,22.97124a1.97556,1.97556,0,0,0,2.735-.284c.49168-.49427.97712-.99473,1.46475-1.49177l2.71733,2.75888c-.428.42-.88877.881-1.35908,1.33209a2.02825,2.02825,0,0,0-.41291,2.83849q.03342.04481.06927.08771a16.6412,16.6412,0,0,1,2.27866,5.613,1.97848,1.97848,0,0,0,2.14943,1.753c.59411.00127,1.18822.00029,1.78233.00032H58.63v3.839c-.70618,0-1.39173-.00007-2.07729,0a1.95084,1.95084,0,0,0-2.1636,1.71182l-.00163.01444a17.23606,17.23606,0,0,1-2.38382,5.67062,1.95465,1.95465,0,0,0,.2746,2.75062l.02857.02294C52.80014,50.082,53.29556,50.57345,53.79949,51.07526ZM27.88373,37.51043a9.66141,9.66141,0,1,0,.00236-.18493Q27.884,37.418,27.88373,37.51043Z" fill="#fff"/>
      <path d="M27.88373,37.51043A9.61659,9.61659,0,1,1,37.509,47.11837q-.17625.00016-.35241-.00614A9.66494,9.66494,0,0,1,27.88373,37.51043Zm3.843-.0123a5.75045,5.75045,0,1,0,.00315-.205q-.00342.10248-.00318.205Z"/>
    </g>
  </g>
</svg>
