<svg id="Layer_1" data-name="Layer 1" xmlns="http://www.w3.org/2000/svg" viewBox="0 0 75 75">
  <g id="shapes">
    <circle cx="37.5" cy="37.5" r="36" fill="#ff9" stroke="#000" stroke-miterlimit="10" stroke-width="3"/>
  </g>
  <g id="sensor">
    <g>
      <path d="M22.25,21.57v-3.6c0-1.05.47-1.53,1.53-1.53,4.14,0,8.28-.01,12.42.01a.834.834,0,0,0,.85-.49,11.14269,11.14269,0,0,1,8.09-5.84,9.501,9.501,0,0,1,1.3-.11,1.28413,1.28413,0,0,1,1.47,1.42c.02,1.58,0,3.16,0,4.74v.65a6.00409,6.00409,0,0,1,4.94,2.57,5.79878,5.79878,0,0,1,1.06,3.7,6.001,6.001,0,0,1-6,5.63v5.2c0,1.19-.54,1.68-1.74,1.59a11.05811,11.05811,0,0,1-9.1-5.9.90828.90828,0,0,0-.93-.53c-4.09.02-8.17.01-12.26.01-1.19,0-1.65-.46-1.65-1.64,0-1.03,0-2.07-.01-3.1,0-.03-.03-.06-.07-.12a6.51255,6.51255,0,0,0-3.69,2.51,8.69475,8.69475,0,0,0,1.07,11.52,6.14475,6.14475,0,0,0,4.13,1.55c5.67-.01,11.33.01,17-.01a9.09463,9.09463,0,0,1,8.3,4.77,11.24824,11.24824,0,0,1-1.49,13.32,8.57078,8.57078,0,0,1-5.42,2.73c-.37.04-.42.25-.51.51a5.30866,5.30866,0,0,1-3.98,3.79,5.64,5.64,0,0,1-.92.11,1.28648,1.28648,0,0,1-1.28-.75,10.14238,10.14238,0,0,1-.01-9.71,1.3845,1.3845,0,0,1,1.54-.77,5.32,5.32,0,0,1,4.6,3.71c.07.18.12.37.19.58a6.523,6.523,0,0,0,4.66-2.83,8.6772,8.6772,0,0,0-1.29-11.41,6.13843,6.13843,0,0,0-4.11-1.47c-5.57.01-11.15-.09-16.72.04a9.65273,9.65273,0,0,1-9.67-7.73,10.75922,10.75922,0,0,1,3.66-11.31A8.3551,8.3551,0,0,1,22.25,21.57ZM45.3,32.79V12.72a7.70024,7.70024,0,0,0-3.78,1.77,10.215,10.215,0,0,0-3.63,7.3A10.58443,10.58443,0,0,0,41.51,31,7.5912,7.5912,0,0,0,45.3,32.79ZM24.88,19.02v7.44H35.75a14.54507,14.54507,0,0,1,0-7.44Zm23.07,7.05a3.1942,3.1942,0,0,0,2.85-1.52,3.14243,3.14243,0,0,0,.06-3.5,3.24153,3.24153,0,0,0-2.92-1.63C47.95,21.64,47.95,23.83,47.95,26.07ZM37.3,56.49a7.42549,7.42549,0,0,0,0,5.76,2.91658,2.91658,0,0,0,1.94-2.79A2.97965,2.97965,0,0,0,37.3,56.49Z"/>
      <path d="M55.61,19.91a1.32766,1.32766,0,0,1-1.29-.96,1.1832,1.1832,0,0,1,.52-1.37c1.37-.77,2.76-1.52,4.17-2.23a1.27183,1.27183,0,0,1,1.15,2.26c-1.34.75-2.71,1.46-4.07,2.18A2.556,2.556,0,0,1,55.61,19.91Z"/>
      <path d="M55.7,25.73a4.84516,4.84516,0,0,1,.62.22c1.2.59,2.4,1.19,3.59,1.79a1.29808,1.29808,0,1,1-1.13,2.32c-1.27-.63-2.53-1.25-3.78-1.9a1.252,1.252,0,0,1-.68-1.45A1.34721,1.34721,0,0,1,55.7,25.73Z"/>
      <path d="M57.49,24.1c-.63,0-1.27.01-1.9,0a1.28362,1.28362,0,0,1-1.31-1.25,1.26274,1.26274,0,0,1,1.25-1.31c1.34-.03,2.68-.04,4.02,0a1.24857,1.24857,0,0,1,1.23,1.32,1.29178,1.29178,0,0,1-1.33,1.23c-.33.01-.65,0-.98,0s-.65.01-.98.01Z"/>
      <path d="M45.3,32.79A7.46977,7.46977,0,0,1,41.51,31a10.58443,10.58443,0,0,1-3.62-9.21,10.215,10.215,0,0,1,3.63-7.3,7.619,7.619,0,0,1,3.78-1.77Z" fill="#fff"/>
      <path d="M24.88,19.02H35.75a14.65494,14.65494,0,0,0,0,7.44H24.88Z" fill="#fff"/>
      <path d="M47.95,26.07V19.42a3.27247,3.27247,0,0,1,2.92,1.63,3.17976,3.17976,0,0,1-.06,3.5A3.25307,3.25307,0,0,1,47.95,26.07Z" fill="#fff"/>
      <path d="M37.3,56.49a2.96276,2.96276,0,0,1,1.94,2.97,2.92608,2.92608,0,0,1-1.94,2.79A7.46987,7.46987,0,0,1,37.3,56.49Z" fill="#fff"/>
    </g>
  </g>
</svg>
