<svg id="Layer_1" data-name="Layer 1" xmlns="http://www.w3.org/2000/svg" viewBox="0 0 75 75">
  <circle cx="37.5" cy="37.5" r="36" fill="#ff9" stroke="#000" stroke-miterlimit="10" stroke-width="3"/>
  <g id="things">
    <path d="M37.79,47.13a10.18334,10.18334,0,0,1-4.02-.76,9.58343,9.58343,0,0,1-2.2-1.3,9.3879,9.3879,0,0,1-1.43-1.39,10.01691,10.01691,0,0,1-1.46-2.36,9.138,9.138,0,0,1-.74-2.96,7.31112,7.31112,0,0,1-.07-1.23,10.94912,10.94912,0,0,1,.68-3.21,11.23582,11.23582,0,0,1,.69-1.39,9.64946,9.64946,0,0,1,1.39-1.79,9.33568,9.33568,0,0,1,2.2-1.67,9.69168,9.69168,0,0,1,8.34-.46,9.14231,9.14231,0,0,1,2.46,1.49,10.52493,10.52493,0,0,1,1.4,1.43,9.85184,9.85184,0,0,1,1.48,2.63,9.68145,9.68145,0,0,1,.12,6.44,8.26157,8.26157,0,0,1-.7,1.58,9.18068,9.18068,0,0,1-1.4,1.92,9.50886,9.50886,0,0,1-5.27,2.87C38.68,47.06,38.09,47.1,37.79,47.13Zm4.04-10.36a.37513.37513,0,0,0,.01-.1,7.64448,7.64448,0,0,0-.41-2.23.23911.23911,0,0,0-.19-.1c-.64.03-1.27.07-1.91.1-.37.01-.74,0-1.1,0v2.33Zm.09,1.46H38.24V40.5a.169.169,0,0,0,.05.02c.97.05,1.94.1,2.91.14a.1969.1969,0,0,0,.15-.1,3.70815,3.70815,0,0,0,.24-.63C41.71,39.37,41.81,38.81,41.92,38.23Zm-8.69-1.46h3.56V34.48c-.04,0-.08-.01-.11-.01-.9-.04-1.8-.08-2.7-.14a.29288.29288,0,0,0-.36.27C33.48,35.32,33.36,36.03,33.23,36.77Zm3.57,1.46H33.27a6.4124,6.4124,0,0,0,.57,2.43c.99-.05,1.97-.1,2.96-.14Zm-4.96-1.46a12.86868,12.86868,0,0,1,.42-2.58c-.67-.1-1.32-.2-1.97-.29a.21549.21549,0,0,0-.16.04,1.02959,1.02959,0,0,0-.19.34c-.15.48-.31.95-.43,1.44-.08.34-.11.69-.17,1.05ZM29.4,38.22c-.01.02-.02.02-.02.03a7.63056,7.63056,0,0,0,.63,2.59c.08.19.21.33.45.23a.92908.92908,0,0,1,.29-.05c.53-.08,1.06-.15,1.62-.23a8.08163,8.08163,0,0,1-.54-2.57Zm13.94-1.45h2.32v-.12a7.18381,7.18381,0,0,0-.74-2.66.20365.20365,0,0,0-.16-.09c-.63.09-1.26.18-1.84.27C43.06,35.04,43.2,35.9,43.34,36.77Zm-.03,1.45a7.90375,7.90375,0,0,1-.53,2.57c.06.02.08.04.09.04l1.89.27a.17506.17506,0,0,0,.15-.1,6.29641,6.29641,0,0,0,.62-1.8c.05-.32.1-.65.15-.98Zm-5.07-8.46v3.31c.89-.04,1.76-.08,2.64-.13A7.70433,7.70433,0,0,0,38.24,29.76Zm-1.45.07a8.11505,8.11505,0,0,0-2.56,3.11c.87.04,1.71.08,2.56.12ZM31.01,42.42c.47,1.04,3.27,2.96,4.19,2.9-.3-.35-.63-.68-.91-1.05a10.89271,10.89271,0,0,1-1.25-1.94c-.06-.12-.12-.16-.24-.14C32.2,42.27,31.62,42.34,31.01,42.42Zm8.94,2.91a8.253,8.253,0,0,0,4.11-2.9c-.62-.08-1.19-.16-1.76-.22-.06-.01-.15.07-.2.14-.4.61-.79,1.23-1.18,1.85-.02.04-.06.06-.08.1C40.55,44.62,40.26,44.96,39.95,45.33Zm.67-3.29c-.81-.03-1.59-.06-2.37-.09v3.02A11.85587,11.85587,0,0,0,40.62,42.04Zm-6.08,0a9.787,9.787,0,0,0,2.25,2.79V41.95C36.03,41.98,35.29,42.01,34.54,42.04Zm-3.59-9.47c.61.08,1.15.15,1.7.21a.16444.16444,0,0,0,.12-.08,4.01778,4.01778,0,0,0,.24-.46,8.67893,8.67893,0,0,1,1.05-1.73c.17-.23.36-.44.54-.65A7.917,7.917,0,0,0,30.95,32.57Zm13.13,0a7.84319,7.84319,0,0,0-3.49-2.63c.09.14.23.23.32.35a9.26009,9.26009,0,0,1,1.19,1.89,5.1224,5.1224,0,0,0,.27.52.13565.13565,0,0,0,.11.07C43,32.71,43.51,32.65,44.08,32.57Z"/>
    <path d="M41.83,36.77H38.24V34.44c.37,0,.73.01,1.1,0,.64-.03,1.27-.07,1.91-.1a.25579.25579,0,0,1,.19.1,7.70569,7.70569,0,0,1,.41,2.23A.4401.4401,0,0,1,41.83,36.77Z" fill="#fff"/>
    <path d="M41.92,38.23c-.11.59-.21,1.15-.34,1.7a3.4128,3.4128,0,0,1-.24.63.17507.17507,0,0,1-.15.1c-.97-.04-1.94-.09-2.91-.14-.01,0-.02-.01-.05-.02V38.23Z" fill="#fff"/>
    <path d="M33.23,36.77c.13-.74.25-1.45.38-2.16a.30185.30185,0,0,1,.36-.27c.9.06,1.8.1,2.7.14.03,0,.07.01.11.01v2.29C35.63,36.77,34.47,36.77,33.23,36.77Z" fill="#fff"/>
    <path d="M36.8,38.23v2.28c-.98.05-1.96.09-2.96.14a6.4124,6.4124,0,0,1-.57-2.43C34.45,38.23,35.61,38.23,36.8,38.23Z" fill="#fff"/>
    <path d="M31.84,36.77H29.35a8.843,8.843,0,0,1,.17-1.05c.12-.49.28-.96.43-1.44a1.27757,1.27757,0,0,1,.19-.34.17976.17976,0,0,1,.16-.04c.65.09,1.3.19,1.97.29A12.31,12.31,0,0,0,31.84,36.77Z" fill="#fff"/>
    <path d="M29.4,38.22h2.43a7.81817,7.81817,0,0,0,.54,2.57c-.56.08-1.09.15-1.62.23a.92908.92908,0,0,0-.29.05c-.24.1-.37-.04-.45-.23a7.63056,7.63056,0,0,1-.63-2.59A.12376.12376,0,0,0,29.4,38.22Z" fill="#fff"/>
    <path d="M43.34,36.77c-.14-.87-.28-1.73-.42-2.59.58-.09,1.21-.19,1.84-.27a.19215.19215,0,0,1,.16.09,7.18381,7.18381,0,0,1,.74,2.66v.12C44.87,36.77,44.09,36.77,43.34,36.77Z" fill="#fff"/>
    <path d="M43.31,38.22h2.37c-.05.33-.09.66-.15.98a6.29641,6.29641,0,0,1-.62,1.8.1969.1969,0,0,1-.15.1c-.63-.08-1.26-.18-1.89-.27-.02,0-.04-.02-.09-.04A7.90375,7.90375,0,0,0,43.31,38.22Z" fill="#fff"/>
    <path d="M38.24,29.76a7.99312,7.99312,0,0,1,2.64,3.18c-.88.04-1.75.08-2.64.13Z" fill="#fff"/>
    <path d="M36.79,29.83v3.23c-.85-.04-1.69-.08-2.56-.12A8.26588,8.26588,0,0,1,36.79,29.83Z" fill="#fff"/>
    <path d="M31.01,42.42c.61-.08,1.2-.15,1.79-.23a.194.194,0,0,1,.24.14,11.26418,11.26418,0,0,0,1.25,1.94c.28.37.61.7.91,1.05C34.28,45.38,31.48,43.46,31.01,42.42Z" fill="#fff"/>
    <path d="M39.95,45.33c.31-.37.6-.7.89-1.04a.39153.39153,0,0,0,.08-.1c.39-.62.78-1.24,1.18-1.85a.27992.27992,0,0,1,.2-.14c.57.06,1.13.14,1.76.22A8.27246,8.27246,0,0,1,39.95,45.33Z" fill="#fff"/>
    <path d="M40.62,42.04a11.85587,11.85587,0,0,1-2.37,2.93V41.95C39.03,41.98,39.81,42.01,40.62,42.04Z" fill="#fff"/>
    <path d="M34.54,42.04c.75-.03,1.49-.06,2.25-.09v2.88A9.92682,9.92682,0,0,1,34.54,42.04Z" fill="#fff"/>
    <path d="M30.95,32.57a7.87478,7.87478,0,0,1,3.66-2.71c-.18.22-.37.43-.54.65a8.40435,8.40435,0,0,0-1.05,1.73,4.01778,4.01778,0,0,1-.24.46c-.02.04-.08.09-.12.08C32.1,32.72,31.55,32.65,30.95,32.57Z" fill="#fff"/>
    <path d="M44.08,32.57c-.57.07-1.08.14-1.59.2a.19013.19013,0,0,1-.11-.07c-.09-.17-.19-.34-.27-.52a9.42246,9.42246,0,0,0-1.19-1.89c-.09-.13-.24-.21-.32-.35A7.871,7.871,0,0,1,44.08,32.57Z" fill="#fff"/>
  </g>
  <g>
    <line x1="25.45" y1="36.23" x2="19.43" y2="36.23" fill="none" stroke="#000" stroke-miterlimit="10" stroke-width="0.75"/>
    <line x1="19.43" y1="23.5" x2="19.43" y2="36.23" fill="none" stroke="#000" stroke-miterlimit="10" stroke-width="0.75"/>
    <line x1="36.03" y1="46.29" x2="36.03" y2="55.7" fill="none" stroke="#000" stroke-miterlimit="10" stroke-width="0.75"/>
    <line x1="43.41" y1="55.7" x2="36.03" y2="55.7" fill="none" stroke="#000" stroke-miterlimit="10" stroke-width="0.75"/>
    <line x1="24.34" y1="50.86" x2="29.15" y2="44.39" fill="none" stroke="#000" stroke-miterlimit="10" stroke-width="0.75"/>
    <line x1="49.25" y1="26.86" x2="45.11" y2="30.7" fill="none" stroke="#000" stroke-miterlimit="10" stroke-width="0.75"/>
  </g>
  <path d="M29.78,17.81a.79126.79126,0,0,1-.53-.55,5.529,5.529,0,0,0-4.68-3.73,5.54631,5.54631,0,0,0-5.43,2.43,1.02038,1.02038,0,0,1-.75.47,4.28412,4.28412,0,0,0,.43,8.52h9.85a3.66789,3.66789,0,0,0,1.11-7.14Z" stroke="#000" stroke-miterlimit="10"/>
  <g>
    <path d="M18.1,23.51c.46,0,.93,0,1.39.01H22.4v.96H18.1Z" fill="#fff" stroke="#000" stroke-miterlimit="10" stroke-width="0.25"/>
    <path d="M29.59,24.48h-4.3v-.96h4.16a.75687.75687,0,0,0,.15-.01C29.59,23.84,29.59,24.16,29.59,24.48Z" fill="#fff" stroke="#000" stroke-miterlimit="10" stroke-width="0.25"/>
    <path d="M24.32,21.13v1.43h-.95V21.14c-.05,0-.09-.01-.13-.01H21.98a.96057.96057,0,0,1-1.01-1.01V15.89a.95706.95706,0,0,1,.97-.99c1.27-.01,2.54-.01,3.82,0a.95491.95491,0,0,1,.96.99v4.25a.9735.9735,0,0,1-.99.99H24.32Zm0-2.87h.47a.955.955,0,0,0,.96-.89.93357.93357,0,0,0-.86-1.01,7.4784,7.4784,0,0,0-.82-.01c-.15,0-.23.11-.23.27v2.81a.24881.24881,0,0,0,.24.28c.14,0,.23-.11.24-.28V18.26ZM22.41,18v1.42a.23621.23621,0,1,0,.47,0V16.59a.26041.26041,0,0,0-.04-.15.2234.2234,0,0,0-.26-.1.23786.23786,0,0,0-.18.24C22.41,17.06,22.41,17.53,22.41,18Z" fill="#fff" stroke="#000" stroke-miterlimit="10" stroke-width="0.25"/>
    <path d="M22.89,24.95v-1.9H24.8v1.9Z" fill="#fff" stroke="#000" stroke-miterlimit="10" stroke-width="0.25"/>
    <path d="M24.32,18.26v1.16c0,.17-.09.28-.24.28a.24881.24881,0,0,1-.24-.28V16.61a.23779.23779,0,0,1,.23-.27,5.61208,5.61208,0,0,1,.82.01.93357.93357,0,0,1,.86,1.01.9478.9478,0,0,1-.96.89C24.64,18.26,24.49,18.26,24.32,18.26Zm.01-.49c.19,0,.38.01.56,0a.47344.47344,0,0,0,.4-.46.45827.45827,0,0,0-.38-.47,5.41875,5.41875,0,0,0-.57,0C24.33,17.14,24.33,17.45,24.33,17.77Z" stroke="#000" stroke-miterlimit="10" stroke-width="0.25" opacity="0.75" style="isolation: isolate"/>
    <path d="M22.41,18V16.59a.23026.23026,0,0,1,.18-.24.2234.2234,0,0,1,.26.1.37073.37073,0,0,1,.04.15v2.83a.23169.23169,0,0,1-.24.26.23472.23472,0,0,1-.23-.26C22.41,18.95,22.41,18.48,22.41,18Z" stroke="#000" stroke-miterlimit="10" stroke-width="0.25" opacity="0.75" style="isolation: isolate"/>
    <path d="M24.33,17.77v-.94a5.415,5.415,0,0,1,.57,0,.47233.47233,0,0,1-.02.93A5.00165,5.00165,0,0,1,24.33,17.77Z" fill="#fff" stroke="#000" stroke-miterlimit="10" stroke-width="0.25"/>
  </g>
  <g>
    <path d="M57.32,58.55a6.8095,6.8095,0,0,1-2.45.44.381.381,0,0,1-.43-.26,2.82644,2.82644,0,0,0-2.11-2.04,3.4251,3.4251,0,0,1,.77-.38c.33-.13.37-.24.18-.54-.09-.14-.2-.27-.29-.42a1.93689,1.93689,0,0,1-.08-2.07,1.46262,1.46262,0,0,1,1.59-.75,1.61584,1.61584,0,0,1,1.21,1.38,2.21234,2.21234,0,0,1-.41,1.61c-.43.61-.43.65.25.82A2.14011,2.14011,0,0,1,57.23,58c.01.05.02.09.08.11C57.32,58.26,57.32,58.41,57.32,58.55Z"/>
    <path d="M50.31,60.04a11.69345,11.69345,0,0,1-2.54-.32c-.4-.1-.5-.26-.41-.66a2.26111,2.26111,0,0,1,1.62-1.82c.9-.27.89-.29.4-1.06a2.20871,2.20871,0,0,1-.33-1.73,1.6103,1.6103,0,0,1,1.81-1.36,1.73421,1.73421,0,0,1,1.44,1.67,2.42119,2.42119,0,0,1-.47,1.56c-.43.62-.44.65.28.86a2.26249,2.26249,0,0,1,1.83,2.04c.03.26-.06.39-.3.44A18.42643,18.42643,0,0,1,50.31,60.04Z"/>
    <path d="M44.04,58.17a2.003,2.003,0,0,1,1.51-1.76,2.25031,2.25031,0,0,0,.24-.08c.6-.19.62-.21.24-.74a2.13406,2.13406,0,0,1-.37-1.99,1.488,1.488,0,0,1,1.56-1.09,1.5876,1.5876,0,0,1,1.37,1.31,2.10058,2.10058,0,0,1-.38,1.68c-.08.11-.15.22-.23.33-.13.2-.07.34.14.44.31.14.61.27,1.01.45a2.73189,2.73189,0,0,0-2.29,2.11c-.04.15-.11.16-.23.16a7.12641,7.12641,0,0,1-2.29-.32"/>
  </g>
  <g>
    <path d="M12.82,54.16V53.9a.56889.56889,0,0,1,.65-.42c.11.01.22,0,.34,0h.67V52.32a1.593,1.593,0,0,1,1.26-1.55,3.593,3.593,0,0,1,.46-.05c.34-.01.69,0,1.04,0,0-.34.01-.68,0-1.01a.57775.57775,0,0,1,.42-.65h.26a.56889.56889,0,0,1,.42.65c-.01.29,0,.58,0,.87v.13h2.2c.01-.02.01-.02.01-.03v-.97c0-.39.07-.5.42-.65h.26a.56889.56889,0,0,1,.42.65c-.01.11,0,.22,0,.34v.67h1.16a1.593,1.593,0,0,1,1.55,1.26,2.62594,2.62594,0,0,1,.05.49c.01.33,0,.67,0,1.02.34,0,.68.01,1.01,0a.57774.57774,0,0,1,.65.42v.26a.56889.56889,0,0,1-.65.42c-.16-.01-.32,0-.48,0h-.52v1.66h.99a.567.567,0,0,1,.66.43v.26a.60622.60622,0,0,1-.67.42c-.2-.01-.4,0-.61,0h-.38v1.71a1.58474,1.58474,0,0,1-1.26,1.55,3.593,3.593,0,0,1-.46.05c-.34.01-.69,0-1.04,0,0,.05-.01.1-.01.14,0,.29-.01.58,0,.87a.57775.57775,0,0,1-.42.65h-.26a.56889.56889,0,0,1-.42-.65c.01-.29,0-.58,0-.86v-.13H18.33c0,.34-.01.67,0,1a.57775.57775,0,0,1-.42.65h-.26a.56889.56889,0,0,1-.42-.65c.01-.13,0-.26,0-.39v-.62h-1.1a1.62988,1.62988,0,0,1-1.67-1.67V57.37c-.34,0-.67-.01-1,0a.59489.59489,0,0,1-.66-.42v-.28a.60463.60463,0,0,1,.68-.41c.28.01.56,0,.84,0a.52829.52829,0,0,0,.13-.01V54.6c-.34,0-.67-.01-1,0A.58616.58616,0,0,1,12.82,54.16Zm6.63-2.33c-1.06,0-2.13.01-3.19,0-.46-.01-.7.2-.68.69.02.59,0,1.17,0,1.76v4.68c0,.41.19.6.61.6H22.7c.43,0,.61-.19.61-.62V52.45c0-.43-.19-.61-.62-.61C21.61,51.83,20.53,51.83,19.45,51.83Z" fill-rule="evenodd"/>
    <path d="M21.65,55.7v1.6a.52417.52417,0,0,1-.59.59H17.83a.52417.52417,0,0,1-.59-.59V54.07a.52016.52016,0,0,1,.59-.59h3.25a.51511.51511,0,0,1,.58.57C21.65,54.61,21.65,55.15,21.65,55.7Zm-1.11,1.09V54.6H18.35v2.19Z" fill-rule="evenodd"/>
  </g>
  <g>
    <path d="M49.06,24.18a6.25742,6.25742,0,0,1-.47-1.11.10391.10391,0,0,0-.08-.04h-.7a.51346.51346,0,0,1-.53-.39.9702.9702,0,0,1-.01-.17V20.49a.50212.50212,0,0,1,.52-.51h.78c.09-.24.17-.46.27-.69a3.49167,3.49167,0,0,1,.19-.39c.03-.05.03-.08-.02-.13-.17-.16-.33-.32-.49-.48a.51958.51958,0,0,1,0-.78l1.37-1.37a.52041.52041,0,0,1,.8,0l.48.48a.07991.07991,0,0,0,.11.02,4.68689,4.68689,0,0,1,1.01-.42c.06-.02.08-.04.08-.1v-.7a.50138.50138,0,0,1,.52-.53h2a.50137.50137,0,0,1,.53.52v.7c0,.05.01.08.07.09a5.46724,5.46724,0,0,1,1.03.43.07579.07579,0,0,0,.1-.01c.16-.17.33-.33.49-.49a.5125.5125,0,0,1,.78,0c.46.46.93.93,1.39,1.4a.51334.51334,0,0,1,.01.74c-.17.17-.33.34-.5.5a.083.083,0,0,0-.02.12,5.05845,5.05845,0,0,1,.41,1.02.07968.07968,0,0,0,.09.07h.74a.51008.51008,0,0,1,.51.5v2.05a.50183.50183,0,0,1-.38.49.61538.61538,0,0,1-.19.02h-.67c-.04,0-.07,0-.09.05a5.27976,5.27976,0,0,1-.47,1.1c.12.11.23.22.35.34.07.06.13.13.19.19a.5125.5125,0,0,1,0,.78c-.3.31-.61.61-.91.91l-.46.46a.5197.5197,0,0,1-.78.01c-.16-.16-.33-.32-.49-.48a.09323.09323,0,0,0-.13-.02,5.97236,5.97236,0,0,1-1.01.42c-.05.02-.07.04-.07.09v.68a.51519.51519,0,0,1-.56.56H52.9a.50957.50957,0,0,1-.55-.55v-.69c0-.05-.01-.08-.07-.09a5.97236,5.97236,0,0,1-1.01-.42.083.083,0,0,0-.12.02c-.16.16-.32.33-.49.49a.52712.52712,0,0,1-.78,0L48.5,25.51a.50979.50979,0,0,1,0-.79C48.69,24.52,48.88,24.35,49.06,24.18Zm9.15.91c-.13-.13-.26-.26-.4-.39a.51364.51364,0,0,1-.08-.73,4.51748,4.51748,0,0,0,.63-1.5.51656.51656,0,0,1,.57-.46h.55V20.99h-.56a.52372.52372,0,0,1-.57-.46,4.4898,4.4898,0,0,0-.6-1.49.548.548,0,0,1,.09-.78c.12-.12.25-.24.36-.35-.24-.25-.48-.49-.72-.73-.13.13-.26.26-.39.4a.52072.52072,0,0,1-.72.08,4.51706,4.51706,0,0,0-1.5-.63.52855.52855,0,0,1-.48-.58v-.54H53.38a.03491.03491,0,0,1-.01.02v.56a.521.521,0,0,1-.44.54,4.54291,4.54291,0,0,0-1.55.66,1.19264,1.19264,0,0,1-.16.08.49029.49029,0,0,1-.51-.15c-.14-.14-.28-.28-.41-.42l-.72.72c.12.13.25.26.38.39a.52294.52294,0,0,1,.09.73,4.39226,4.39226,0,0,0-.64,1.55.50829.50829,0,0,1-.52.42h-.6v1.01a.035.035,0,0,1,.02.01h.57a.49845.49845,0,0,1,.51.41,4.45242,4.45242,0,0,0,.68,1.6.472.472,0,0,1,.03.51.69912.69912,0,0,1-.13.17c-.13.14-.27.27-.39.39.25.25.48.49.73.73l.39-.39a.51867.51867,0,0,1,.72-.08,4.65673,4.65673,0,0,0,1.56.65.49845.49845,0,0,1,.41.51v.6h1.02v-.58a.51111.51111,0,0,1,.43-.53,4.141,4.141,0,0,0,1.07-.38,5.38626,5.38626,0,0,0,.52-.3.49045.49045,0,0,1,.64.08c.14.14.28.29.42.43C57.73,25.57,57.97,25.33,58.21,25.09Z"/>
    <path d="M58.21,25.09l-.73.73c-.14-.14-.28-.29-.42-.43a.50224.50224,0,0,0-.64-.08c-.17.1-.34.2-.52.3a4.01351,4.01351,0,0,1-1.07.38.51111.51111,0,0,0-.43.53v.58H53.38v-.6a.49845.49845,0,0,0-.41-.51,4.65673,4.65673,0,0,1-1.56-.65.52072.52072,0,0,0-.72.08c-.13.13-.26.27-.39.39l-.73-.73c.12-.12.26-.25.39-.39a.69912.69912,0,0,0,.13-.17.472.472,0,0,0-.03-.51,4.83529,4.83529,0,0,1-.68-1.6.50585.50585,0,0,0-.51-.41H48.3c-.01,0-.01,0-.02-.01V20.98h.6a.50122.50122,0,0,0,.52-.42,4.58566,4.58566,0,0,1,.64-1.55.52294.52294,0,0,0-.09-.73c-.13-.13-.25-.26-.38-.39l.72-.72c.13.14.27.28.41.42a.51646.51646,0,0,0,.51.15.48122.48122,0,0,0,.16-.08A4.62758,4.62758,0,0,1,52.92,17a.52257.52257,0,0,0,.44-.54V15.9c0-.01,0-.01.01-.02h1.01v.54a.52306.52306,0,0,0,.48.58,4.31844,4.31844,0,0,1,1.5.63.51055.51055,0,0,0,.72-.08c.13-.13.26-.26.39-.4.24.25.48.48.72.73-.11.11-.24.23-.36.35a.54608.54608,0,0,0-.09.78,4.28721,4.28721,0,0,1,.6,1.49.52372.52372,0,0,0,.57.46h.56v1.02h-.55a.50569.50569,0,0,0-.57.46,4.51706,4.51706,0,0,1-.63,1.5.51269.51269,0,0,0,.08.73C57.94,24.83,58.08,24.96,58.21,25.09Zm-6.88-3.6a2.5508,2.5508,0,1,0,2.62-2.55A2.57623,2.57623,0,0,0,51.33,21.49Z" fill="#fff" opacity="0.75" style="isolation: isolate"/>
    <path d="M51.33,21.49a2.551,2.551,0,1,1,2.46,2.54A2.55754,2.55754,0,0,1,51.33,21.49Zm1.03,0a1.53015,1.53015,0,1,0,1.58-1.53A1.52373,1.52373,0,0,0,52.36,21.49Z"/>
  </g>
</svg>
