<svg xmlns="http://www.w3.org/2000/svg" viewBox="0 0 75 75">
  <g id="shapes">
    <circle cx="37.5" cy="37.5" r="36" fill="#fff" stroke="#000" stroke-miterlimit="10" stroke-width="3"/>
  </g>
  <g id="film">
    <g>
      <rect x="10" y="17.17328" width="55" height="40.65343" rx="2"/>
      <rect x="13.1304" y="18.77868" width="5.30279" height="5.30279" fill="#fff"/>
      <rect x="23.9895" y="18.77868" width="5.30279" height="5.30279" fill="#fff"/>
      <rect x="34.8486" y="18.77868" width="5.30279" height="5.30279" fill="#fff"/>
      <rect x="45.7077" y="18.77868" width="5.30279" height="5.30279" fill="#fff"/>
      <rect x="56.56681" y="18.77868" width="5.30279" height="5.30279" fill="#fff"/>
      <rect x="13.1304" y="50.91853" width="5.30279" height="5.30279" fill="#fff"/>
      <rect x="23.9895" y="50.91853" width="5.30279" height="5.30279" fill="#fff"/>
      <rect x="34.8486" y="50.91853" width="5.30279" height="5.30279" fill="#fff"/>
      <rect x="45.7077" y="50.91853" width="5.30279" height="5.30279" fill="#fff"/>
      <rect x="56.56681" y="50.91853" width="5.30279" height="5.30279" fill="#fff"/>
      <rect x="13.1304" y="26.03647" width="48.7392" height="22.91957" fill="#fff"/>
    </g>
  </g>
  <g id="multimedia">
    <g>
      <path d="M20.95412,30.45194a5.60571,5.60571,0,0,1-.006-.63352,3.33287,3.33287,0,0,1,1.55661-2.58131,3.416,3.416,0,1,1,3.70483,5.74021c-.02445.01576-.04833.0324-.08488.057a1.97366,1.97366,0,0,1,.6843,1.47057c.04629-.02889.08114-.04943.11476-.07181q1.3739-.91445,2.74882-1.82729a.28522.28522,0,0,1,.16248-.04324.97472.97472,0,0,1,.88564.90571c.00118.02609.00161.05224.00161.07836q.0001,2.91966-.00044,5.83933a.97581.97581,0,0,1-.761.96779.35463.35463,0,0,1-.34672-.07891c-.90078-.76027-1.809-1.51173-2.7151-2.26569-.024-.02-.05-.03768-.0932-.07006,0,.18541.00182.35065-.00036.51584a1.87007,1.87007,0,0,1-.361,1.09878,1.93441,1.93441,0,0,1-1.54114.824c-.02933.00148-.05877.00116-.08816.00116q-3.87981.00008-7.75964-.00032a1.95215,1.95215,0,0,1-1.94257-1.525,2.27924,2.27924,0,0,1-.04876-.47576q-.00573-1.9154-.00119-3.83083a1.91639,1.91639,0,0,1,.94528-1.69951l.076-.04821c-.09175-.08782-.18511-.16408-.263-.25377a2.92,2.92,0,0,1,1.63154-4.82381,2.92193,2.92193,0,0,1,3.45437,2.478c.01216.08433.032.16755.04777.25174a.66586.66586,0,0,0-.01881.1139,2.87636,2.87636,0,0,1-.49509,1.6417c-.07736.115-.164.22379-.25128.34212h1.76694c-.03883-.041-.06554-.06855-.09158-.09673A3.35229,3.35229,0,0,1,20.95412,30.45194Zm-.01257,8.94815q1.93469,0,3.86935-.00029a.977.977,0,0,0,1.01872-1.0082q.00369-1.92487,0-3.84976a.9765.9765,0,0,0-1.01715-1.00905q-3.87425-.00027-7.7485,0a.97687.97687,0,0,0-1.02275,1.0223q-.00083,1.91019.00019,3.82037a1.27915,1.27915,0,0,0,.00887.17583.97653.97653,0,0,0,.9925.84831Q18.99218,39.40171,20.94155,39.40009Zm.96563-9.30167a2.45311,2.45311,0,1,0,2.48169-2.43763A2.45779,2.45779,0,0,0,21.90718,30.09842ZM17.93843,32.5543a1.95615,1.95615,0,1,0-1.89382-2.05545A1.95847,1.95847,0,0,0,17.93843,32.5543Zm11.79939.98766c-.03264.01917-.04976.02813-.06576.03877q-1.4022.9333-2.8027,1.86915a.16389.16389,0,0,0-.0601.11742q-.00639.65138.00029,1.30282a.20532.20532,0,0,0,.06612.13757q1.38569,1.15985,2.7764,2.31366c.02369.0197.04981.03649.08575.0626Z" transform="translate(0 0)"/>
      <path d="M20.94155,39.40007q-1.94937,0-3.89874-.00048a.97653.97653,0,0,1-.9925-.84831,1.27915,1.27915,0,0,1-.00887-.17583q-.0007-1.91018-.00019-3.82037a.97687.97687,0,0,1,1.02275-1.0223q3.87425-.0002,7.7485,0a.9765.9765,0,0,1,1.01715,1.00905q.0036,1.92488,0,3.84976a.977.977,0,0,1-1.01872,1.0082Q22.87623,39.40123,20.94155,39.40007Z" transform="translate(0 0)" fill="#fff"/>
      <path d="M21.90718,30.09842A2.45312,2.45312,0,1,1,24.318,32.55957,2.45107,2.45107,0,0,1,21.90718,30.09842Z" transform="translate(0 0)" fill="#fff"/>
      <path d="M17.93843,32.5543a1.95612,1.95612,0,1,1,2.01589-1.85481A1.9584,1.9584,0,0,1,17.93843,32.5543Z" transform="translate(0 0)" fill="#fff"/>
      <path d="M29.73782,33.542v5.842c-.03594-.02611-.06206-.0429-.08575-.0626q-1.38927-1.15554-2.7764-2.31366a.20532.20532,0,0,1-.06612-.13757q-.00749-.65136-.00029-1.30282a.16389.16389,0,0,1,.0601-.11742q1.39921-.93775,2.8027-1.86915C29.68806,33.57009,29.70518,33.56113,29.73782,33.542Z" transform="translate(0 0)" fill="#fff"/>
    </g>
    <g>
      <ellipse cx="32.0593" cy="46.07583" rx="2.76378" ry="2.05723"/>
      <ellipse cx="40.13804" cy="44.08359" rx="2.76378" ry="2.05723"/>
      <polyline points="42.386 44.084 41.419 36.168 33.341 38.16 34.308 46.076" fill="none" stroke="#000" stroke-miterlimit="10"/>
    </g>
    <g>
      <path d="M43.46907,29.22247c.22441-.20673.41367-.4722.77074-.45694a.09439.09439,0,0,0,.073-.02975c.21033-.339.54873-.21831.847-.23612a4.936,4.936,0,0,1,1.05677.4955c.08709.16345.1576.33573.25985.559H46.82c.73121,0,1.46378-.02664,2.19307.01076a.66169.66169,0,0,0,.73092-.46164c.21006-.46818.47573-.91111.70081-1.373a.44251.44251,0,0,1,.46266-.29519c.94663.01588,1.8937.00646,2.8489.00646L54.862,29.55411h1.714c.501,0,1.002-.003,1.503.00081.56342.00431.80546.2303.80633.78063q.00641,4.04018.00033,8.08036a.68661.68661,0,0,1-.76572.78691c-.1082.00384-.21663.00087-.325.00087-4.38725,0-8.77451-.00569-13.16171.00818a1.24249,1.24249,0,0,1-1.16421-.48324Zm12.79854,5.16187a4.086,4.086,0,1,0-4.08685,4.08636A4.09529,4.09529,0,0,0,56.26761,34.38434ZM53.16022,28.117H51.20141v.99185h1.95881Zm-6.72784,8.83728a46.07977,46.07977,0,0,0-.01393-4.883A39.98481,39.98481,0,0,0,46.43238,36.95426Zm1.68238-5.94954a.29065.29065,0,0,0-.2725-.2884.29312.29312,0,1,0,.01022.58515A.28661.28661,0,0,0,48.11476,31.00472Z" transform="translate(0 0)"/>
      <path d="M56.26761,34.38434A4.08593,4.08593,0,1,1,52.19812,30.285,4.10289,4.10289,0,0,1,56.26761,34.38434Zm-1.233-.015a2.85675,2.85675,0,1,0-2.85895,2.87134A2.858,2.858,0,0,0,55.03458,34.36938Z" transform="translate(0 0)" fill="#fff"/>
      <path d="M53.16022,28.117v.99185H51.20141V28.117Z" transform="translate(0 0)" fill="#fff"/>
      <path d="M46.43238,36.95426a39.98481,39.98481,0,0,1-.01393-4.883A46.07977,46.07977,0,0,1,46.43238,36.95426Z" transform="translate(0 0)" fill="#fff"/>
      <path d="M48.11476,31.00472a.28661.28661,0,0,1-.26228.29675.29312.29312,0,1,1-.01022-.58515A.29065.29065,0,0,1,48.11476,31.00472Z" transform="translate(0 0)" fill="#fff"/>
      <path d="M55.03458,34.36938a2.85681,2.85681,0,1,1-2.87146-2.85895A2.85642,2.85642,0,0,1,55.03458,34.36938Zm-2.83744-1.59517a1.7,1.7,0,0,1,1.60669,1.61232l.61432-.03108a2.14983,2.14983,0,0,0-2.221-2.18926Z" transform="translate(0 0)" opacity="0.5"/>
      <path d="M52.19714,32.77421v-.608a2.14983,2.14983,0,0,1,2.221,2.18926l-.61432.03108A1.7,1.7,0,0,0,52.19714,32.77421Z" transform="translate(0 0)" fill="#fff"/>
    </g>
  </g>
</svg>
