<svg xmlns="http://www.w3.org/2000/svg" viewBox="0 0 75 75">
  <g id="shapes">
    <circle cx="37.5" cy="37.5" r="36" fill="#fff" stroke="#000" stroke-miterlimit="10" stroke-width="3"/>
  </g>
  <g id="buildings">
    <g>
      <path d="M64.07267,59.53411v3.4696q-26.57268.00059-53.14534,0V59.53411h3.586v-.27345c0-1.24716-.00447-2.49436.0047-3.74146a.32067.32067,0,0,0-.23811-.34986,2.78176,2.78176,0,1,1,3.89245-2.61623A2.44088,2.44088,0,0,1,16.32808,55.308a.17076.17076,0,0,0-.04562.03036v4.17886h3.31515V18.75361H25.303c.00566-.09686.01247-.15933.01249-.2218q.00087-2.67-.00027-5.33995c0-.06262-.011-.12524-.01691-.18786h24.6204v5.76563h5.82056V59.51876h3.01214v-.28385c0-1.2291-.00434-2.45822.00441-3.68726a.33753.33753,0,0,0-.24255-.37593,2.782,2.782,0,0,1,2.05111-5.16984,2.92634,2.92634,0,0,1,1.57454,4.023A2.15762,2.15762,0,0,1,60.51,55.31863v4.21548Zm-36.29658-.01866H47.46042V15.47H27.77609ZM49.93738,21.2182v38.298H53.2669V21.2182Zm-27.88.00239V59.521h3.24215V21.22059ZM60.93706,52.60824A1.32373,1.32373,0,0,0,59.603,51.29155a1.328,1.328,0,1,0,.02373,2.656A1.32065,1.32065,0,0,0,60.93706,52.60824ZM15.39758,51.29158a1.328,1.328,0,0,0-.01322,2.656,1.328,1.328,0,1,0,.01322-2.656Z" transform="translate(0 0)"/>
      <path d="M27.77609,59.51545V15.47H47.46042V59.51545ZM30.229,25.354h3.22439V20.009H30.229Zm8.77749.00994V20.01443H35.78623V25.364Zm2.72681-.01089h3.22807V20.01493H41.73325Zm-8.25942,6.74776H30.24248v5.34623h3.23135Zm2.31694,5.34878h3.22156V32.09873H35.79077Zm9.18475-5.34783H41.744v5.34449h3.23154ZM30.23617,49.537H33.4647V44.19787H30.23617Zm9.00011.0095V44.19542H36.0102v5.35106Zm5.7307.00206V44.1954H41.7441v5.35314Z" transform="translate(0 0)" fill="#fff"/>
      <path d="M49.93738,21.2182H53.2669v38.298H49.93738Z" transform="translate(0 0)" fill="#fff"/>
      <path d="M22.05739,21.22059h3.24215V59.521H22.05739Z" transform="translate(0 0)" fill="#fff"/>
      <path d="M60.93706,52.60824a1.32065,1.32065,0,0,1-1.31034,1.33929,1.328,1.328,0,1,1-.02373-2.656A1.32373,1.32373,0,0,1,60.93706,52.60824Z" transform="translate(0 0)" fill="#fff"/>
      <path d="M15.39758,51.29158a1.328,1.328,0,1,1-1.33046,1.3213A1.32522,1.32522,0,0,1,15.39758,51.29158Z" transform="translate(0 0)" fill="#fff"/>
      <path d="M30.229,25.354V20.009h3.22439v5.345Z" transform="translate(0 0)"/>
      <path d="M39.00644,25.364H35.78623V20.01443h3.22021Z" transform="translate(0 0)"/>
      <path d="M41.73325,25.35306V20.01493h3.22807v5.33813Z" transform="translate(0 0)"/>
      <path d="M33.47383,32.10082v5.34623H30.24248V32.10082Z" transform="translate(0 0)"/>
      <path d="M35.79077,37.4496V32.09873h3.22156V37.4496Z" transform="translate(0 0)"/>
      <path d="M44.97552,32.10177v5.34449H41.744V32.10177Z" transform="translate(0 0)"/>
      <path d="M30.23617,49.537V44.19787H33.4647V49.537Z" transform="translate(0 0)"/>
      <path d="M39.23628,49.54648H36.0102V44.19542h3.22608Z" transform="translate(0 0)"/>
      <path d="M44.967,49.54854H41.7441V44.1954H44.967Z" transform="translate(0 0)"/>
    </g>
  </g>
</svg>
