<svg xmlns="http://www.w3.org/2000/svg" viewBox="0 0 75 75">
  <g id="shapes">
    <circle cx="37.5" cy="37.5" r="36" fill="#fff" stroke="#000" stroke-miterlimit="10" stroke-width="3"/>
  </g>
  <g id="locator">
    <path d="M57.3014,16.26861a5.29491,5.29491,0,0,0-5.03981,5.51752c0,3.04724,5.03981,9.48248,5.03981,9.48248s5.03981-6.43524,5.03981-9.48248A5.29491,5.29491,0,0,0,57.3014,16.26861Zm0,7.79753A3.00956,3.00956,0,1,1,60.311,21.05659,3.00956,3.00956,0,0,1,57.3014,24.06614Z"/>
    <path d="M37.5,7.89671c-7.42243,0-13.4395,6.58738-13.4395,14.71336S37.5,47.89671,37.5,47.89671,50.9395,30.73606,50.9395,22.61007,44.92243,7.89671,37.5,7.89671Zm0,20.79341a8.02549,8.02549,0,1,1,8.02549-8.02549A8.02549,8.02549,0,0,1,37.5,28.69012Z" stroke="#fff" stroke-miterlimit="10" stroke-width="0.5"/>
    <path d="M53.76765,43.35827c-3.71122,0-6.71975,3.29369-6.71975,7.35668s6.71975,12.64332,6.71975,12.64332S60.4874,54.77794,60.4874,50.715,57.47887,43.35827,53.76765,43.35827Zm0,10.3967a4.01274,4.01274,0,1,1,4.01274-4.01274A4.01274,4.01274,0,0,1,53.76765,53.755Z"/>
    <path d="M21.76692,39.94077c-3.71121,0-6.71975,3.29369-6.71975,7.35668s6.71975,12.64332,6.71975,12.64332,6.71975-8.58032,6.71975-12.64332S25.47814,39.94077,21.76692,39.94077Zm0,10.39671a4.01275,4.01275,0,1,1,4.01275-4.01275A4.01274,4.01274,0,0,1,21.76692,50.33748Z"/>
    <path d="M17.67876,16.93a3.5777,3.5777,0,0,0-3.40534,3.72811c0,2.059,3.40534,6.40719,3.40534,6.40719s3.40533-4.34821,3.40533-6.40719A3.5777,3.5777,0,0,0,17.67876,16.93Zm0,5.26869a2.03352,2.03352,0,1,1,2.03351-2.03352A2.03352,2.03352,0,0,1,17.67876,22.19872Z"/>
  </g>
</svg>
