<svg id="Layer_1" data-name="Layer 1" xmlns="http://www.w3.org/2000/svg" viewBox="0 0 75 75">
  <g id="shapes">
    <circle cx="37.5" cy="37.5" r="36" fill="#fff" stroke="#000" stroke-miterlimit="10" stroke-width="3"/>
  </g>
  <g id="server">
    <g id="server-2" data-name="server">
      <path d="M49.08,37.59v18.8c0,2.69-.92,3.59-3.65,3.6q-8.055.015-16.1,0c-2.4,0-3.41-.98-3.41-3.38q-.015-19.125,0-38.24c0-2.39,1.01-3.36,3.42-3.36q8.205-.015,16.41,0c2.29.01,3.31,1.03,3.31,3.3C49.09,24.74,49.08,31.17,49.08,37.59Z"/>
      <path d="M37.45,52c2.06,0,4.13.02,6.19-.01.84-.01,1.51.15,1.54,1.14.03,1.07-.64,1.28-1.57,1.28q-6.12-.03-12.23-.01c-.82,0-1.48-.09-1.52-1.14-.04-1.13.65-1.28,1.54-1.28C33.43,52.01,35.44,52,37.45,52Z" fill="#f7f7f7"/>
      <path d="M37.34,38.32c-2.01,0-4.02-.01-6.03,0-.84.01-1.46-.14-1.44-1.19.02-1.04.64-1.17,1.48-1.17q6.18.03,12.37,0c.87,0,1.46.23,1.46,1.21,0,1.02-.67,1.16-1.5,1.15C41.57,38.3,39.45,38.32,37.34,38.32Z" fill="#fcfcfc"/>
      <path d="M37.71,46.7c2.02,0,4.04.02,6.05-.01.88-.01,1.47.25,1.42,1.24-.04.89-.59,1.11-1.41,1.11q-6.285-.03-12.58,0c-.84,0-1.31-.27-1.32-1.17-.02-.92.48-1.18,1.31-1.18C33.35,46.71,35.53,46.7,37.71,46.7Z" fill="#fcfcfc"/>
      <path d="M37.62,41.34c2.01,0,4.02.02,6.03-.01.83-.01,1.51.1,1.53,1.12.03.98-.54,1.23-1.43,1.22-4.18-.03-8.35-.02-12.53,0-.79,0-1.33-.16-1.35-1.11-.02-1.02.53-1.24,1.41-1.23C33.39,41.36,35.51,41.34,37.62,41.34Z" fill="#fdfdfd"/>
      <path d="M43.55,22c.98.14,1.64.67,1.61,1.65a1.54566,1.54566,0,0,1-3.09-.09C42.06,22.59,42.73,22.19,43.55,22Z" fill="#f4f4f4"/>
    </g>
  </g>
</svg>
