<svg id="Layer_1" data-name="Layer 1" xmlns="http://www.w3.org/2000/svg" viewBox="0 0 75 75">
  <g id="shapes">
    <circle cx="37.5" cy="37.5" r="36" fill="#fff" stroke="#000" stroke-miterlimit="10" stroke-width="3"/>
  </g>
  <g id="users">
    <g>
      <path d="M67.5,47.8a31.21187,31.21187,0,0,1-11.07,1.97,1.74584,1.74584,0,0,1-1.95-1.18,12.81486,12.81486,0,0,0-9.54-9.23,14.62489,14.62489,0,0,1,3.49-1.72c1.48-.59,1.67-1.09.83-2.45-.4-.65-.9-1.24-1.32-1.88a8.76593,8.76593,0,0,1-.37-9.33,6.57064,6.57064,0,0,1,7.21-3.37,7.28291,7.28291,0,0,1,5.48,6.25,10.13288,10.13288,0,0,1-1.84,7.28c-1.95,2.75-1.95,2.92,1.15,3.7a9.63438,9.63438,0,0,1,7.59,7.5c.05.21.08.43.34.49Z"/>
      <path d="M35.84,54.54a51.4972,51.4972,0,0,1-11.47-1.46c-1.82-.45-2.27-1.17-1.85-2.97.95-4.06,3.13-6.96,7.33-8.21,4.05-1.21,4.03-1.31,1.8-4.79a10.14259,10.14259,0,0,1-1.51-7.84c.91-4.2,4.02-6.51,8.17-6.17,3.41.28,6.29,3.67,6.5,7.54a11.05537,11.05537,0,0,1-2.13,7.07c-1.96,2.82-1.97,2.95,1.26,3.88,4.72,1.36,7.69,4.15,8.27,9.2.14,1.17-.26,1.76-1.37,1.97A76.75536,76.75536,0,0,1,35.84,54.54Z"/>
      <path d="M7.5,46.07c.72-3.98,2.73-6.85,6.82-7.94.37-.1.73-.23,1.09-.35,2.71-.86,2.78-.95,1.1-3.35-1.92-2.76-2.75-5.69-1.69-8.97a6.77284,6.77284,0,0,1,7.07-4.95,7.12461,7.12461,0,0,1,6.17,5.91A9.29273,9.29273,0,0,1,26.33,34c-.35.49-.69.98-1.02,1.48-.58.9-.3,1.55.62,1.97,1.38.63,2.78,1.24,4.58,2.04-5.68,1.15-8.97,4.37-10.33,9.55-.17.66-.5.72-1.03.72A33.27914,33.27914,0,0,1,8.8,48.33"/>
    </g>
  </g>
</svg>
