<svg id="Layer_1" data-name="Layer 1" xmlns="http://www.w3.org/2000/svg" viewBox="0 0 75 75">
  <g id="shapes">
    <circle cx="37.5" cy="37.5" r="36" fill="#fff" stroke="#000" stroke-miterlimit="10" stroke-width="3"/>
  </g>
  <g id="users">
    <path d="M35.84,54.54a51.4972,51.4972,0,0,1-11.47-1.46c-1.82-.45-2.27-1.17-1.85-2.97.95-4.06,3.13-6.96,7.33-8.21,4.05-1.21,4.03-1.31,1.8-4.79a10.14259,10.14259,0,0,1-1.51-7.84c.91-4.2,4.02-6.51,8.17-6.17,3.41.28,6.29,3.67,6.5,7.54a11.05537,11.05537,0,0,1-2.13,7.07c-1.96,2.82-1.97,2.95,1.26,3.88,4.72,1.36,7.69,4.15,8.27,9.2.14,1.17-.26,1.76-1.37,1.97A76.75536,76.75536,0,0,1,35.84,54.54Z"/>
  </g>
</svg>
