<svg xmlns="http://www.w3.org/2000/svg" viewBox="0 0 75 75">
  <g id="shapes">
    <circle cx="37.5" cy="37.5" r="36" fill="#fff" stroke="#000" stroke-miterlimit="10" stroke-width="3"/>
  </g>
  <g id="vpn">
    <g>
      <g>
        <path d="M21.52168,53.645a14.65222,14.65222,0,0,1-1.48449-29.13949A3.46866,3.46866,0,0,0,22.603,22.90825c4.58131-6.31115,10.86387-9.245,18.56441-8.31031,7.80684.94758,13.113,5.48681,16.02089,12.771a2.72758,2.72758,0,0,0,1.81348,1.8908,12.5153,12.5153,0,0,1-3.77354,24.37611" transform="translate(0 0)" fill="#fff" stroke="#000" stroke-miterlimit="10"/>
        <line x1="21.52168" y1="53.64498" x2="55.22822" y2="53.63581" stroke="#000" stroke-miterlimit="10"/>
      </g>
      <line x1="11.35514" y1="38.36593" x2="63.64486" y2="38.36593" fill="none" stroke="#000" stroke-miterlimit="10" stroke-width="2"/>
      <g>
        <path d="M36.97928,22.92477h1.04164c.38242.06554.77042.10833,1.14627.20063a6.91379,6.91379,0,0,1,5.19147,6.20123c.0481.7711.02849,1.54642.03917,2.31985.00107.07751.00014.15506.00014.25663.14308,0,.26414.00063.38519-.00011a1.10646,1.10646,0,0,1,.94727.51793,1.95018,1.95018,0,0,1,.31269,1.17342q0,4.92462-.00145,9.84923a3.43139,3.43139,0,0,1-.03373.47532,1.32009,1.32009,0,0,1-1.414,1.22752q-5.05477,0-10.10956,0c-1.4029,0-2.80581-.00258-4.2087.00147a1.16207,1.16207,0,0,1-1.03266-.56617,1.96271,1.96271,0,0,1-.28535-1.11672q-.00141-4.94631.00279-9.89261a2.79336,2.79336,0,0,1,.078-.64276,1.24119,1.24119,0,0,1,1.30886-1.0268c.07743-.00018.15485,0,.25495,0V31.6464c0-.55683-.02236-1.11481.00641-1.67014A8.27905,8.27905,0,0,1,30.785,28.3652a6.77231,6.77231,0,0,1,5.49294-5.33276C36.50887,22.98316,36.74537,22.96005,36.97928,22.92477ZM41.527,31.89166c.00468-.05859.0119-.1072.01194-.15581.0005-.62922.00845-1.25859-.00211-1.88764a3.943,3.943,0,0,0-1.35947-3.00943,4.00742,4.00742,0,0,0-6.65174,2.44145,21.16517,21.16517,0,0,0-.055,2.57584c-.00014.01087.01589.022.02643.03559ZM36.1244,40.07132c0,.46989-.00284.93981.00078,1.40967a.67585.67585,0,0,0,.75117.752c.40482.00218.80966.00119,1.21448.00028a.68631.68631,0,0,0,.78458-.78434c.00175-.75182.0046-1.50369-.0013-2.25546a1.70817,1.70817,0,0,1,.25655-1.05033,1.78732,1.78732,0,0,0-.175-2.17334,1.992,1.992,0,0,0-2.08048-.54614,1.867,1.867,0,0,0-.86648,2.95119.54759.54759,0,0,1,.11055.30859C36.131,39.14583,36.12431,39.60866,36.1244,40.07132Z" transform="translate(0 0)"/>
        <path d="M36.12436,40.07132c-.00005-.46266.00664-.92549-.00515-1.38785a.54759.54759,0,0,0-.11055-.30859,1.867,1.867,0,0,1,.86648-2.95119,1.992,1.992,0,0,1,2.08048.54614,1.78732,1.78732,0,0,1,.175,2.17334,1.70817,1.70817,0,0,0-.25655,1.05033c.0059.75177.00305,1.50364.0013,2.25546a.68631.68631,0,0,1-.78458.78434c-.40482.00091-.80966.0019-1.21448-.00028a.67585.67585,0,0,1-.75117-.752C36.12156,41.01113,36.1244,40.54121,36.12436,40.07132Z" transform="translate(0 0)" fill="#fff"/>
      </g>
    </g>
  </g>
</svg>
