<svg id="Layer_1" data-name="Layer 1" xmlns="http://www.w3.org/2000/svg" viewBox="0 0 74.99629 75.005">
  <g id="shapes">
    <path id="_Ttriangle_" data-name="&lt;Ttriangle&gt;" d="M2.15,65.41,33.4,4.18a4.46522,4.46522,0,0,1,8.19,0L72.85,65.41c1.83,3.59-.45,8.09-4.1,8.09H6.24C2.59,73.5.31,69,2.15,65.41Z" transform="translate(0.00097 0.005)" fill="#cf9" stroke="#000" stroke-miterlimit="10" stroke-width="3"/>
  </g>
  <g id="cost">
    <g>
      <path d="M33.96,49.82c-.3-2.26-.59-4.45-.88-6.64-.76-5.57-1.54-11.14-2.28-16.71a9.66853,9.66853,0,0,1,.49-5.45,5.82033,5.82033,0,0,1,4.62-3.38,7.0509,7.0509,0,0,1,6.7,2,6.585,6.585,0,0,1,1.52,5.52c-.37,3.29-.89,6.55-1.33,9.83q-.705,5.22-1.4,10.44c-.18,1.31-.34,2.62-.53,3.92-.03.17-.23.44-.36.44C38.32,49.83,36.15,49.82,33.96,49.82Z" transform="translate(0.00097 0.005)"/>
      <path d="M30.33,60.66a6.73462,6.73462,0,0,1,5.07-6.4,7.285,7.285,0,0,1,8.32,3.36,6.62216,6.62216,0,0,1-3.4,9.27,7.19642,7.19642,0,0,1-9.42-3.52,15.917,15.917,0,0,1-.72-2.67A.83309.83309,0,0,0,30.33,60.66Z" transform="translate(0.00097 0.005)"/>
    </g>
  </g>
</svg>
