<svg xmlns="http://www.w3.org/2000/svg" viewBox="0 0 75 75">
  <g id="shapes">
    <circle cx="37.5" cy="37.5" r="36" fill="#cf9" stroke="#000" stroke-miterlimit="10" stroke-width="3"/>
  </g>
  <g id="console">
    <g>
      <rect x="12.60236" y="16.33465" width="49.79528" height="42.33071"/>
      <rect x="12.60236" y="16.33465" width="49.79528" height="4.16752" fill="#fff"/>
      <line x1="59.41983" y1="19.18676" x2="60.95654" y2="17.65005" fill="none" stroke="#000" stroke-miterlimit="10" stroke-width="0.2"/>
      <line x1="59.41983" y1="17.65005" x2="60.95654" y2="19.18676" fill="none" stroke="#000" stroke-miterlimit="10" stroke-width="0.2"/>
      <rect x="54.59136" y="17.62027" width="1.7" height="1.7" fill="#fff" stroke="#000" stroke-miterlimit="10" stroke-width="0.2"/>
      <line x1="49.19212" y1="18.54153" x2="51.19212" y2="18.54153" fill="none" stroke="#000" stroke-miterlimit="10" stroke-width="0.2"/>
    </g>
    <g>
      <path d="M22.77158,41.71457a6.74844,6.74844,0,0,1-.68372-13.42091A1.59756,1.59756,0,0,0,23.2696,27.558a8.733,8.733,0,0,1,8.5503-3.82752,8.73841,8.73841,0,0,1,7.37881,5.882,1.25628,1.25628,0,0,0,.83524.87086,5.76423,5.76423,0,0,1-1.738,11.227" fill="#fff" stroke="#000" stroke-miterlimit="10"/>
      <line x1="22.77158" y1="41.71457" x2="38.29596" y2="41.71034" stroke="#000" stroke-miterlimit="10"/>
    </g>
    <g>
      <rect x="40.93181" y="27.43508" width="18.144" height="24.14653" fill="#cf9" stroke="#000" stroke-miterlimit="10" stroke-width="0.5"/>
      <rect x="47.41181" y="26.09844" width="5.184" height="2.45558" fill="#cf9" stroke="#000" stroke-miterlimit="10" stroke-width="0.5"/>
      <line x1="43.06908" y1="32.91949" x2="56.93855" y2="32.91949" fill="none" stroke="#000" stroke-miterlimit="10" stroke-width="0.5"/>
      <line x1="43.06908" y1="35.86619" x2="56.93855" y2="35.86619" fill="none" stroke="#000" stroke-miterlimit="10" stroke-width="0.5"/>
      <line x1="43.06908" y1="38.81288" x2="56.93855" y2="38.81288" fill="none" stroke="#000" stroke-miterlimit="10" stroke-width="0.5"/>
      <line x1="43.06908" y1="41.75958" x2="56.93855" y2="41.75958" fill="none" stroke="#000" stroke-miterlimit="10" stroke-width="0.5"/>
      <line x1="43.06908" y1="44.70627" x2="56.93855" y2="44.70627" fill="none" stroke="#000" stroke-miterlimit="10" stroke-width="0.5"/>
      <line x1="43.06908" y1="47.65297" x2="56.93855" y2="47.65297" fill="none" stroke="#000" stroke-miterlimit="10" stroke-width="0.5"/>
      <polyline points="54.608 31.47 55.459 32.283 57.433 30.464" fill="none" stroke="#000" stroke-miterlimit="10" stroke-width="0.5"/>
      <polyline points="54.773 37.746 55.625 38.559 57.599 36.74" fill="none" stroke="#000" stroke-miterlimit="10" stroke-width="0.5"/>
      <polyline points="54.636 34.793 55.487 35.606 57.461 33.787" fill="none" stroke="#000" stroke-miterlimit="10" stroke-width="0.5"/>
    </g>
    <g>
      <path d="M23.98312,49.70726a9.84592,9.84592,0,0,1-.76321-1.79289.16352.16352,0,0,0-.12818-.07116c-.37385-.00569-.74784-.00077-1.12175-.004a.81864.81864,0,0,1-.84721-.63295A1.22055,1.22055,0,0,1,21.099,46.928q-.00213-1.59591.00006-3.19184a.81345.81345,0,0,1,.831-.82742c.42678-.00218.85358-.00046,1.26263-.00046.14535-.38012.27815-.74808.42719-1.10934a6.85944,6.85944,0,0,1,.30616-.6221.14253.14253,0,0,0-.02982-.2044c-.267-.25528-.5276-.51719-.78933-.7779a.83789.83789,0,0,1,.00637-1.26293q1.10628-1.10312,2.20973-2.20909a.83775.83775,0,0,1,1.29061.00061c.25841.25775.51812.51425.773.77544a.11852.11852,0,0,0,.17.0245,8.13075,8.13075,0,0,1,1.63409-.68256.14235.14235,0,0,0,.12093-.16683c-.00576-.37386-.0036-.74786-.002-1.1218a.81264.81264,0,0,1,.84481-.85349q1.616-.00471,3.23191-.00023a.812.812,0,0,1,.85442.84462c.00558.3783.00329.75677-.0003,1.13513a.12935.12935,0,0,0,.10758.15087,8.1587,8.1587,0,0,1,1.65737.69562.11063.11063,0,0,0,.15952-.02274c.26125-.26739.5268-.53059.79162-.79448a.82719.82719,0,0,1,1.26033.00382q1.1234,1.124,2.24523,2.2495a.82556.82556,0,0,1,.01423,1.19577c-.26614.27514-.53824.54462-.81244.81174a.13562.13562,0,0,0-.03166.19337,8.1489,8.1489,0,0,1,.668,1.63992.12641.12641,0,0,0,.14777.109q.59423-.007,1.18859-.00136a.81458.81458,0,0,1,.81556.80314q.00579,1.656-.00075,3.31206a.79807.79807,0,0,1-.60929.78185,1.27268,1.27268,0,0,1-.30381.03253c-.36054.00375-.72115.002-1.08172.00106-.065-.00017-.11725.00021-.14211.08256a9.158,9.158,0,0,1-.75493,1.77684c.18566.17943.37456.361.56224.54375.1052.10246.20892.20648.31239.31071a.82506.82506,0,0,1,.00057,1.26072c-.48933.49249-.98264.981-1.47371,1.47175-.2487.24853-.49549.499-.74451.74717a.82923.82923,0,0,1-1.25239.01c-.26466-.25771-.52854-.51639-.78615-.78108a.14018.14018,0,0,0-.20359-.0262,8.41436,8.41436,0,0,1-1.62353.67386.12913.12913,0,0,0-.11224.14738c.004.365.00256.73.0014,1.09508a.83284.83284,0,0,1-.89957.89875q-1.56923.00036-3.13847,0a.8263.8263,0,0,1-.89155-.89019c-.00046-.3695-.00255-.739.00174-1.10846a.1265.1265,0,0,0-.10889-.14756,8.41952,8.41952,0,0,1-1.63511-.68.1332.1332,0,0,0-.192.03107c-.25745.265-.52.525-.78243.78508a.8333.8333,0,0,1-1.25423-.00235q-1.11234-1.1067-2.22113-2.217a.83114.83114,0,0,1,.00614-1.28039C23.40841,50.25935,23.69819,49.98355,23.98312,49.70726Zm14.75524,1.46491c-.21525-.21434-.42686-.42427-.63759-.63508a.83491.83491,0,0,1-.1295-1.18471,7.36249,7.36249,0,0,0,1.01823-2.42215.83328.83328,0,0,1,.92486-.73736c.29283,0,.58566,0,.88729,0v-1.6398h-.14828c-.25377,0-.50754.0004-.7613-.00014a.84509.84509,0,0,1-.91812-.74879,7.10808,7.10808,0,0,0-.97331-2.39754.86634.86634,0,0,1,.14679-1.2499c.20088-.19267.39772-.38957.58051-.569l-1.16068-1.17843c-.20829.21231-.41564.42607-.62566.63719a.84383.84383,0,0,1-1.16821.12131,7.08888,7.08888,0,0,0-2.4104-1.01006.85.85,0,0,1-.76805-.9419c-.00007-.28818,0-.57636,0-.86713H30.96825a.20345.20345,0,0,0-.01.03757c-.001.29828.0005.59658-.00258.89483a.83056.83056,0,0,1-.7014.86314,7.39641,7.39641,0,0,0-2.506,1.05676.96308.96308,0,0,1-.26334.12449.808.808,0,0,1-.82984-.23381c-.22528-.22658-.44675-.457-.66053-.67609L24.837,39.57369c.19836.20323.39946.41692.60887.62213a.8447.8447,0,0,1,.14633,1.1771,7.3541,7.3541,0,0,0-1.038,2.49918.82113.82113,0,0,1-.83917.68008c-.27152.004-.54314.00049-.81472.00127-.05115.00014-.1023.00461-.15141.007v1.62149a.188.188,0,0,0,.03527.00916c.30718.00085.61437.00022.92155.00209a.818.818,0,0,1,.82911.65758,7.519,7.519,0,0,0,1.08842,2.57861.7903.7903,0,0,1,.046.82578,1.13249,1.13249,0,0,1-.212.27166c-.21341.21784-.43381.42883-.63.62153l1.16886,1.17231c.20263-.20461.41465-.4204.62855-.63431a.82676.82676,0,0,1,1.15427-.12758,7.49014,7.49014,0,0,0,2.511,1.04617.80988.80988,0,0,1,.66472.82112c.00358.276.00126.55207.00156.82811.00005.04716,0,.09431,0,.14557H32.596c0-.32-.00055-.63121.00013-.94245a.82579.82579,0,0,1,.6925-.85387,6.55975,6.55975,0,0,0,1.71839-.60593c.28316-.14884.55835-.31327.83371-.47644a.81056.81056,0,0,1,1.03762.1243c.23136.23166.45711.46891.68006.69824Z"/>
      <path d="M38.73836,51.17217l-1.18,1.17141c-.22295-.22933-.4487-.46658-.68006-.69824a.81056.81056,0,0,0-1.03762-.1243c-.27536.16317-.55055.3276-.83371.47644a6.55975,6.55975,0,0,1-1.71839.60593.82579.82579,0,0,0-.6925.85387c-.00068.31124-.00013.62247-.00013.94245H30.95622c0-.05126,0-.09841,0-.14557-.0003-.276.002-.55211-.00156-.82811a.80988.80988,0,0,0-.66472-.82112,7.49014,7.49014,0,0,1-2.511-1.04617.82676.82676,0,0,0-1.15427.12758c-.2139.21391-.42592.4297-.62855.63431l-1.16886-1.17231c.19622-.1927.41662-.40369.63-.62153a1.13249,1.13249,0,0,0,.212-.27166.7903.7903,0,0,0-.046-.82578,7.519,7.519,0,0,1-1.08842-2.57861.818.818,0,0,0-.82911-.65758c-.30718-.00187-.61437-.00124-.92155-.00209a.188.188,0,0,1-.03527-.00916V44.56044c.04911-.00238.10026-.00685.15141-.007.27158-.00078.5432.00269.81472-.00127a.82113.82113,0,0,0,.83917-.68008,7.3541,7.3541,0,0,1,1.038-2.49918.8447.8447,0,0,0-.14633-1.1771c-.20941-.20521-.41051-.4189-.60887-.62213l1.15747-1.15811c.21378.21913.43525.44951.66053.67609a.808.808,0,0,0,.82984.23381.96308.96308,0,0,0,.26334-.12449,7.39641,7.39641,0,0,1,2.506-1.05676.83056.83056,0,0,0,.7014-.86314c.00308-.29825.00162-.59655.00258-.89483a.20345.20345,0,0,1,.01-.03757h1.62668c0,.29077-.00006.57895,0,.86713a.85.85,0,0,0,.76805.9419,7.08888,7.08888,0,0,1,2.4104,1.01006.84383.84383,0,0,0,1.16821-.12131c.21-.21112.41737-.42488.62566-.63719l1.16068,1.17843c-.18279.17942-.37963.37632-.58051.569a.86634.86634,0,0,0-.14679,1.2499,7.10808,7.10808,0,0,1,.97331,2.39754.84509.84509,0,0,0,.91812.74879c.25376.00054.50753.00013.7613.00014h.14828v1.6398c-.30163,0-.59446,0-.88729,0a.83328.83328,0,0,0-.92486.73736,7.36249,7.36249,0,0,1-1.01823,2.42215.83491.83491,0,0,0,.1295,1.18471C38.3115,50.7479,38.52311,50.95783,38.73836,51.17217Zm-11.06969-5.7941a4.10769,4.10769,0,1,0,4.21881-4.11259A4.12674,4.12674,0,0,0,27.66867,45.37807Z" fill="#fff"/>
      <path d="M27.66867,45.37807a4.10764,4.10764,0,1,1,3.9608,4.10133A4.12829,4.12829,0,0,1,27.66867,45.37807Zm1.64149-.00525a2.46582,2.46582,0,1,0,2.53845-2.46093A2.4566,2.4566,0,0,0,29.31016,45.37282Z"/>
    </g>
  </g>
</svg>
