<svg id="Layer_1" data-name="Layer 1" xmlns="http://www.w3.org/2000/svg" viewBox="0 0 75 75">
  <g id="shapes">
    <circle cx="37.5" cy="37.5" r="36" fill="#cf9" stroke="#000" stroke-miterlimit="10" stroke-width="3"/>
  </g>
  <g id="cost">
    <g>
      <path d="M43.15,50.03c2.01.85,4,1.75,6.04,2.54,2.81,1.08,4.65.63,6.67-1.65,1.17-1.31,2.22-2.73,3.32-4.1.37-.46.66-1.09,1.14-1.32,1.44-.67,2.96-1.19,4.45-1.76a33.09018,33.09018,0,0,1-.1,4.11,12.13227,12.13227,0,0,1-1.02,3.12c-3.47,7.92-9.09,10.98-18.46,10-5.83-.61-11.63-1.55-17.47-1.86-2.76-.15-5.57.87-8.36,1.27a2.55159,2.55159,0,0,1-1.86-.31c-2.83-2.65-4.44-6.13-7.26-8.89,3.92-2.9,6.51-4.97,10.29-7.7a14.92983,14.92983,0,0,1,13.35-2.35,37.69078,37.69078,0,0,0,13.7,1.32c3.38-.31,5.33.92,5.55,3.02.21,2.04-1.07,3-4.85,3.6-.87.14-1.74.22-2.62.32-.79.09-1.58.17-2.37.25A2.24105,2.24105,0,0,0,43.15,50.03Z" fill-rule="evenodd"/>
      <path d="M42.43,41.35c-2-.62-4.68.55-4.74-2.99-1.16.3-2.65-1.17-3.22,1.04-.05.17-.91.18-1.39.18-2.96.01-5.91.01-8.96.01-2.55-6.16-.06-15.47,5.59-20.42C41.49,8.87,59.05,14.2,63,29.34a18.94646,18.94646,0,0,1-.81,12.09,2.91528,2.91528,0,0,1-.36.8c-2.65,2.91-5.23,5.9-8.03,8.66-1.5,1.47-3.36.97-5.36-.25a8.83615,8.83615,0,0,0,2.65-.82c1.21-.91,2.66-1.88,3.24-3.17.72-1.61-.11-3.24-1.54-4.47a2.44007,2.44007,0,0,1-.85-1.72c.35-4.94-.69-6.57-5.35-8.14-.75-.25-1.5-.51-2.36-.81,0-2.4-.01-4.74.01-7.09,0-.42.07-.85.18-2.15,1.5,1.32,3.1,2.07,3.51,3.23.71,2.07,1.9,1.77,3.36,1.57.12-3.9-1.59-5.6-6.91-6.89-.08-.6-.16-1.24-.26-1.97-1.27-.52-1.68.03-1.61,1.27a2.44406,2.44406,0,0,1-.12.61c-4.97,1.36-7.17,3.38-7.28,6.96-.16,4.91,3.29,6.44,7.32,7.32Z" fill-rule="evenodd"/>
    </g>
  </g>
</svg>
