<svg xmlns="http://www.w3.org/2000/svg" viewBox="0 0 75 75">
  <g id="shapes">
    <circle cx="37.5" cy="37.5" r="36" fill="#cf9" stroke="#000" stroke-miterlimit="10" stroke-width="3"/>
  </g>
  <g id="watch">
    <g>
      <rect x="18.50316" y="23.65415" width="34.85774" height="28.80071" fill="#fff"/>
      <g>
        <path d="M16.57063,12.36763h5.6923v5.68048h5.72479v-5.666H43.55686v5.673h5.724V12.37545h5.73147V54.08878H16.57063Zm1.62688,40.08723H53.3609v-28.616H18.19751Z"/>
        <path d="M23.94223,9.08933h2.40306v7.31652H23.94223Z"/>
        <path d="M45.23877,9.08878H47.641v7.31658H45.23877Z"/>
      </g>
    </g>
    <g>
      <path d="M43.1419,42.65058c1.74063-1.71705,2.93145-1.72228,4.539-.00029.78411-.537.5685-1.25421.41746-2.00073-.51057-2.52341.73483-4.49492,3.0618-4.836a3.56654,3.56654,0,0,1,3.57528,1.5465,3.62642,3.62642,0,0,0,2.408,1.7248.93062.93062,0,0,1,.21769.06757c2.96825,1.22692,7.485,6.94067,7.97855,10.09158a8.74213,8.74213,0,0,1-16.85492,4.25027c-.12763-.35348-.23412-.7146-.31438-.96135a8.79931,8.79931,0,0,1-2.67226.93949,9.37636,9.37636,0,0,1-2.78725-.884,4.55346,4.55346,0,0,0-.16054.4265,8.74313,8.74313,0,0,1-16.11492,1.47892,8.68519,8.68519,0,0,1,1.1143-9.71339,47.46617,47.46617,0,0,1,3.34558-3.7468,8.338,8.338,0,0,1,2.79721-1.87742,5.07107,5.07107,0,0,0,2.47173-1.84819,3.57305,3.57305,0,0,1,3.378-1.51854,3.68982,3.68982,0,0,1,3.30422,4.36472c-.10411.80623-.08872,1.6279-.12788,2.44252Zm13.61579.80269a7.0086,7.0086,0,1,0-.16195,14.01621,7.00875,7.00875,0,1,0,.16195-14.01621ZM34.211,43.45244a7.00853,7.00853,0,1,0,6.9787,7.02551A6.97184,6.97184,0,0,0,34.211,43.45244Zm11.21462,5.10025a1.89592,1.89592,0,1,0,.00953,3.79177,1.9617,1.9617,0,0,0,1.8914-1.8966A1.98393,1.98393,0,0,0,45.42559,48.55269Z"/>
      <path d="M56.75769,43.45327a7.0086,7.0086,0,1,1-7.10675,6.91646A6.94679,6.94679,0,0,1,56.75769,43.45327Z" fill="#fff" opacity="0.75"/>
      <path d="M34.211,43.45244a7.00853,7.00853,0,0,1-.05387,14.017,7.00857,7.00857,0,1,1,.05387-14.017Z" fill="#fff" opacity="0.75"/>
      <path d="M45.42559,48.55269a1.98393,1.98393,0,0,1,1.90093,1.89517,1.9617,1.9617,0,0,1-1.8914,1.8966,1.89592,1.89592,0,1,1-.00953-3.79177Z" fill="#fff"/>
    </g>
  </g>
</svg>
