<svg id="Layer_1" data-name="Layer 1" xmlns="http://www.w3.org/2000/svg" viewBox="0 0 75 74.87594">
  <g id="shapes">
    <path id="shield" d="M73.5,10.6c-13.63,8.71-22.84,1.73-36-8.52C24.86,13.47,16.07,19.59,1.5,10.6V52.19a5.09586,5.09586,0,0,0,2.72,4.52L35.17,72.93a5.02678,5.02678,0,0,0,4.65,0L70.78,56.7a5.10738,5.10738,0,0,0,2.72-4.52Z" transform="translate(0 -0.12406)" fill="#f99" stroke="#000" stroke-miterlimit="10" stroke-width="3"/>
  </g>
  <g id="firewall">
    <g>
      <path d="M14.59,30.86a4.98276,4.98276,0,0,1,2.92,3.31,13.1697,13.1697,0,0,1,.57,5.14c-.01.25-.03.5-.05.75a1.17642,1.17642,0,0,1,.2.07,9.18577,9.18577,0,0,0,.6-1.37,10.3459,10.3459,0,0,0,.18-4.11c-.25-1.9-.67-3.8-.75-5.71-.16-3.93.9-7.46,3.94-10.18a13.50086,13.50086,0,0,1,1.2-.91c.26-.18.54-.33.94-.57-2.92,6.97-.82,12.74,3.89,18.13.03-3.67,1.74-6.16,4.75-8.04a12.71386,12.71386,0,0,0-.65,4.37,14.92332,14.92332,0,0,0,1.42,5.83,18.27368,18.27368,0,0,1,1.79,8.13,8.91821,8.91821,0,0,1-5.07,8.27c-.38.19-.76.39-1.15.58-.01.01-.03-.01-.11-.03,1.19-1.51,2.22-3.08,1.36-5.09a5.77265,5.77265,0,0,0-2.93-2.7,3.87936,3.87936,0,0,1-2.79,3.06.86614.86614,0,0,1-.71-.04.77241.77241,0,0,1-.15-.69,25.34154,25.34154,0,0,1,1.11-2.5,12.5516,12.5516,0,0,0,1.56-4.23,4.05681,4.05681,0,0,0-.93-3.29c-.54,3.02-2.94,4.18-5.21,5.46-.47.26-.98.47-1.46.71a4.34812,4.34812,0,0,0-2.47,5.62,27.86789,27.86789,0,0,0,1.51,3.41,3.88513,3.88513,0,0,1,.27.54,11.52553,11.52553,0,0,1-3.84-2.22c-2.94-2.59-3.59-5.85-2.61-9.48a30.43236,30.43236,0,0,1,1.77-4.46,11.50932,11.50932,0,0,0,1.32-5.32A20.46108,20.46108,0,0,0,14.59,30.86Z" transform="translate(0 -0.12406)"/>
      <path d="M38.44,47.64a25.9635,25.9635,0,0,0,.28-8.48h.56q11.04.015,22.08.02c1.55,0,2.13.58,2.13,2.14v4.26c0,1.42-.57,2.01-1.99,2.06-.77.02-1.53.01-2.3.01q-10.095,0-20.18-.01Z" transform="translate(0 -0.12406)"/>
      <path d="M55.9,57.71H50.29c-1.38-.04-1.94-.59-1.96-1.96-.02-1.48-.02-2.95,0-4.43.02-1.45.61-2.03,2.06-2.05,1.66-.02,3.32-.02,4.99-.02,1.91,0,3.81-.01,5.72,0a5.63439,5.63439,0,0,1,1,.09,1.513,1.513,0,0,1,1.38,1.58c.03,1.74.03,3.47,0,5.21a1.50749,1.50749,0,0,1-1.41,1.54,5.1225,5.1225,0,0,1-.78.06c-1.79.01-3.59,0-5.38,0C55.9,57.72,55.9,57.72,55.9,57.71Z" transform="translate(0 -0.12406)"/>
      <path d="M55.91,28.73c1.87,0,3.74-.01,5.6,0,1.39.01,1.97.59,1.98,1.98.01,1.53.01,3.06,0,4.6a1.65242,1.65242,0,0,1-1.84,1.84c-3.81.01-7.62,0-11.43,0-1.19,0-1.82-.52-1.86-1.7q-.09-2.52,0-5.04c.04-1.14.68-1.66,1.83-1.67,1.91-.01,3.81,0,5.72-.01Z" transform="translate(0 -0.12406)"/>
      <path d="M33.3,57.63a19.09854,19.09854,0,0,0,3.96-6.22c.23-.57.44-1.15.62-1.74a.48511.48511,0,0,1,.54-.42c2.09.01,4.18-.01,6.27.01a1.747,1.747,0,0,1,1.98,1.97q.045,2.295,0,4.59c-.03,1.24-.61,1.86-1.82,1.87-3.79.03-7.58.01-11.37.01C33.45,57.71,33.41,57.68,33.3,57.63Z" transform="translate(0 -0.12406)"/>
      <path d="M34.57,28.76c.17-.01.35-.03.53-.03h9.53c1.42,0,2.03.58,2.06,1.99.03,1.51.02,3.03-.02,4.54-.03,1.3-.67,1.88-1.99,1.88-1.96,0-3.92-.01-5.89.01-.31,0-.46-.07-.54-.39a20.81253,20.81253,0,0,0-3.6-7.71.67061.67061,0,0,1-.09-.14C34.56,28.88,34.57,28.84,34.57,28.76Z" transform="translate(0 -0.12406)"/>
    </g>
  </g>
</svg>
