<svg xmlns="http://www.w3.org/2000/svg" viewBox="0 0 75 74.87843">
  <g id="shapes">
    <path id="shield" d="M73.5,10.30818c-13.63072,8.709-22.84331,1.73259-36-8.51938-12.63859,11.38583-21.426,17.51181-36,8.518V51.89243a5.1014,5.1014,0,0,0,2.72107,4.52212L35.17573,72.639a5.00668,5.00668,0,0,0,4.64853,0L70.77892,56.41455A5.10139,5.10139,0,0,0,73.5,51.89243Z" transform="translate(0 0.16723)" fill="#f99" stroke="#000" stroke-miterlimit="10" stroke-width="3"/>
  </g>
  <g id="security">
    <g id="server">
      <path d="M49.08049,37.59327q-.001,9.40136-.002,18.80273c-.00172,2.6905-.91837,3.59395-3.6532,3.59708q-8.04672.00919-16.09342.001c-2.40386-.00463-3.40512-.97911-3.4073-3.3792q-.01728-19.12141.00354-38.24283c.00262-2.38877,1.01394-3.3605,3.42487-3.36459q8.206-.01392,16.41206.00189c2.28563.00552,3.30889,1.0284,3.31253,3.30311Q49.093,27.95288,49.08049,37.59327Z" transform="translate(0 0.16723)"/>
      <path d="M37.45236,51.99942c2.06491.00113,4.13.017,6.19463-.0066.835-.00953,1.51121.14663,1.54165,1.14225.03288,1.074-.64437,1.28438-1.56774,1.27926-4.07677-.02258-8.15379-.01644-12.23066-.00558-.81624.00218-1.48333-.088-1.51809-1.14011-.03745-1.13355.6463-1.28459,1.54434-1.2762C33.42829,52.01121,35.44038,51.99831,37.45236,51.99942Z" transform="translate(0 0.16723)" fill="#f7f7f7"/>
      <path d="M37.33982,38.31571c-2.009-.00046-4.01812-.01111-6.027.00461-.83674.00656-1.46341-.14434-1.44176-1.19288.02138-1.03541.64431-1.17038,1.48269-1.16694q6.186.02545,12.37212.00012c.87392-.00438,1.46276.23022,1.46116,1.21063-.00167,1.022-.67384,1.15929-1.50279,1.15154C41.56957,38.303,39.45465,38.3162,37.33982,38.31571Z" transform="translate(0 0.16723)" fill="#fcfcfc"/>
      <path d="M37.7091,46.69916c2.01772.002,4.03573.02119,6.053-.00692.88451-.01236,1.47089.24714,1.42426,1.23617-.04173.88506-.59354,1.11489-1.40735,1.11069q-6.292-.03241-12.58415-.00224c-.83715.0037-1.30751-.26871-1.32274-1.17053-.01558-.923.483-1.18172,1.3059-1.17509C33.355,46.70879,35.53209,46.69722,37.7091,46.69916Z" transform="translate(0 0.16723)" fill="#fcfcfc"/>
      <path d="M37.62427,41.3386c2.00925.00009,4.01872.01762,6.02762-.00833.8263-.01066,1.507.10248,1.53358,1.12147.02549.976-.53636,1.22528-1.42655,1.21983-4.177-.02556-8.35427-.01708-12.5314-.00284-.79027.0027-1.33343-.162-1.35372-1.11307-.02182-1.02231.52923-1.23745,1.40552-1.22605C33.394,41.3571,35.50925,41.3385,37.62427,41.3386Z" transform="translate(0 0.16723)" fill="#fdfdfd"/>
      <path d="M43.552,22.00127c.98121.13746,1.63731.66764,1.60527,1.6498A1.54887,1.54887,0,0,1,42.061,23.555C42.058,22.59343,42.72654,22.19219,43.552,22.00127Z" transform="translate(0 0.16723)" fill="#f4f4f4"/>
    </g>
    <g>
      <path d="M51.74,31.85425h1.176c.43176.074.86982.12231,1.29416.22652A7.80573,7.80573,0,0,1,60.07136,39.082c.05432.87058.03218,1.74594.04423,2.61914.0012.08752.00016.17507.00016.28974.16154,0,.29822.00071.43488-.00012a1.24922,1.24922,0,0,1,1.06949.58475,2.20192,2.20192,0,0,1,.353,1.32481q-.00006,5.56-.00164,11.11992a3.87449,3.87449,0,0,1-.03808.53664A1.49041,1.49041,0,0,1,60.337,56.94281q-5.70691,0-11.41384,0c-1.58389,0-3.16779-.00292-4.75168.00165a1.31193,1.31193,0,0,1-1.16588-.63921,2.21585,2.21585,0,0,1-.32217-1.26079q-.0016-5.58445.00315-11.1689a3.15313,3.15313,0,0,1,.08806-.72567,1.4013,1.4013,0,0,1,1.47771-1.15928c.08742-.00021.17484,0,.28784,0v-.2895c0-.62866-.02524-1.25863.00724-1.8856a9.34752,9.34752,0,0,1,.19911-1.81891,7.646,7.646,0,0,1,6.20161-6.02076C51.20884,31.92018,51.47586,31.89408,51.74,31.85425ZM56.87434,41.978c.00528-.06616.01343-.121.01348-.17591.00056-.71041.00954-1.421-.00238-2.13117a4.45171,4.45171,0,0,0-1.53486-3.3977,4.52444,4.52444,0,0,0-7.50991,2.75644,23.89651,23.89651,0,0,0-.06214,2.90816c-.00017.01226.01794.02477.02984.04018ZM50.77477,51.213c0,.53052-.0032,1.06105.00088,1.59154a.763.763,0,0,0,.84808.849c.457.00246.91412.00134,1.37117.00031a.77485.77485,0,0,0,.8858-.88553c.002-.84882.00519-1.69768-.00146-2.54645a1.92847,1.92847,0,0,1,.28964-1.18583,2.01793,2.01793,0,0,0-.19762-2.45374,2.24894,2.24894,0,0,0-2.34889-.61659,2.10787,2.10787,0,0,0-.97828,3.33194.61814.61814,0,0,1,.12482.34839C50.78222,50.16806,50.77467,50.6906,50.77477,51.213Z" transform="translate(0 0.16723)" stroke="#fff" stroke-miterlimit="10" stroke-width="0.5"/>
      <path d="M50.77472,51.213c-.00005-.52235.0075-1.04489-.00581-1.56691a.61814.61814,0,0,0-.12482-.34839,2.10787,2.10787,0,0,1,.97828-3.33194,2.24894,2.24894,0,0,1,2.34889.61659,2.01793,2.01793,0,0,1,.19762,2.45374,1.92847,1.92847,0,0,0-.28964,1.18583c.00665.84877.00343,1.69763.00146,2.54645a.77485.77485,0,0,1-.8858.88553c-.45705.001-.91412.00215-1.37117-.00031a.763.763,0,0,1-.84808-.849C50.77157,52.274,50.77477,51.74347,50.77472,51.213Z" transform="translate(0 0.16723)" fill="#fff"/>
    </g>
  </g>
</svg>
