<svg xmlns="http://www.w3.org/2000/svg" viewBox="0 0 75 75">
  <g id="shapes">
    <circle cx="37.5" cy="37.5" r="36" fill="#cf9" stroke="#000" stroke-miterlimit="10" stroke-width="3"/>
  </g>
  <g id="cloud">
    <g>
      <path d="M21.52168,57.10865a14.65223,14.65223,0,0,1-1.48449-29.1395A3.46866,3.46866,0,0,0,22.603,26.37191c4.58131-6.31115,10.86387-9.245,18.56441-8.31031,7.80684.94758,13.113,5.48681,16.02089,12.771a2.72756,2.72756,0,0,0,1.81348,1.8908,12.5153,12.5153,0,0,1-3.77354,24.37611" fill="#fff" stroke="#000" stroke-miterlimit="10"/>
      <line x1="21.52168" y1="57.10865" x2="55.22822" y2="57.09947" stroke="#000" stroke-miterlimit="10"/>
    </g>
  </g>
  <g id="users">
    <g>
      <path d="M29.72566,53.385a6.56608,6.56608,0,0,1-2.349.41725.3702.3702,0,0,1-.4133-.2503,2.71957,2.71957,0,0,0-2.0248-1.9588,3.11909,3.11909,0,0,1,.74048-.36464c.31491-.12492.35457-.23067.1766-.51988-.08494-.138-.1906-.26318-.2793-.3991a1.8596,1.8596,0,0,1-.07766-1.98075,1.39619,1.39619,0,0,1,1.52895-.71572,1.54341,1.54341,0,0,1,1.1618,1.3271,2.14578,2.14578,0,0,1-.39117,1.5456c-.41352.583-.41344.61974.244.78447a2.0469,2.0469,0,0,1,1.61085,1.59219c.01135.045.01758.09069.07257.10391Z"/>
      <path d="M23.00787,54.81365a10.933,10.933,0,0,1-2.4335-.30937c-.38559-.09558-.481-.248-.39151-.62934a2.16785,2.16785,0,0,1,1.55572-1.74287c.86014-.256.85557-.2786.38243-1.01731a2.14854,2.14854,0,0,1-.32071-1.66268,1.5506,1.5506,0,0,1,1.73343-1.30853,1.657,1.657,0,0,1,1.37872,1.60035,2.33428,2.33428,0,0,1-.45265,1.49964c-.41526.59738-.41751.62552.26736.82331a2.17555,2.17555,0,0,1,1.75578,1.95223c.02873.24739-.05539.37383-.2909.41865A16.44753,16.44753,0,0,1,23.00787,54.81365Z"/>
      <path d="M16.99417,53.01782a1.92282,1.92282,0,0,1,1.44711-1.68513c.07813-.02087.15422-.04932.23141-.07376.57525-.18215.58988-.20166.23442-.71109a2.06507,2.06507,0,0,1-.3579-1.90355,1.435,1.435,0,0,1,1.49952-1.04958,1.51163,1.51163,0,0,1,1.30894,1.25385,1.97424,1.97424,0,0,1-.36719,1.60936c-.07456.103-.147.2077-.21625.31429-.12372.19033-.06445.32915.13082.4184.29354.13416.58926.26356.971.43374a2.61255,2.61255,0,0,0-2.19242,2.02718c-.03675.13937-.10623.15193-.21944.15327a7.035,7.035,0,0,1-2.19658-.304"/>
    </g>
    <g>
      <path d="M26.87909,38.653a6.56617,6.56617,0,0,1-2.349.41725.3702.3702,0,0,1-.4133-.2503,2.7196,2.7196,0,0,0-2.0248-1.95881,3.119,3.119,0,0,1,.74048-.36463c.31491-.12492.35457-.23067.1766-.51988-.08494-.138-.1906-.26318-.2793-.3991a1.85964,1.85964,0,0,1-.07766-1.98075,1.39619,1.39619,0,0,1,1.52895-.71572,1.54341,1.54341,0,0,1,1.1618,1.3271,2.14578,2.14578,0,0,1-.39117,1.5456c-.41352.583-.41343.61974.244.78447a2.04689,2.04689,0,0,1,1.61084,1.59219c.01135.045.01758.09069.07258.10391Z"/>
      <path d="M20.16129,40.08161a10.93226,10.93226,0,0,1-2.43349-.30936c-.3856-.09558-.481-.248-.39152-.62935A2.16785,2.16785,0,0,1,18.892,37.4c.86014-.256.85557-.2786.38243-1.01731a2.14854,2.14854,0,0,1-.32071-1.66268,1.5506,1.5506,0,0,1,1.73343-1.30853,1.65694,1.65694,0,0,1,1.37872,1.60035,2.33422,2.33422,0,0,1-.45265,1.49964c-.41526.59738-.41751.62552.26737.82331a2.17555,2.17555,0,0,1,1.75577,1.95223c.02873.24739-.05539.37383-.2909.41865A16.44676,16.44676,0,0,1,20.16129,40.08161Z"/>
      <path d="M14.14759,38.28579a1.92282,1.92282,0,0,1,1.44711-1.68513c.07813-.02087.15423-.04932.23141-.07376.57525-.18215.58988-.20166.23443-.7111a2.065,2.065,0,0,1-.35791-1.90354,1.435,1.435,0,0,1,1.49953-1.04958,1.51161,1.51161,0,0,1,1.30893,1.25385,1.97424,1.97424,0,0,1-.36719,1.60936c-.07456.103-.147.2077-.21625.31429-.12372.19033-.06445.32915.13082.41839.29354.13417.58927.26357.971.43375a2.61255,2.61255,0,0,0-2.19242,2.02717c-.03675.13938-.10623.15194-.21944.15328a7.035,7.035,0,0,1-2.19658-.304"/>
    </g>
    <g>
      <path d="M47.33739,28.996a6.56608,6.56608,0,0,1-2.349.41725.3702.3702,0,0,1-.4133-.2503,2.71961,2.71961,0,0,0-2.02481-1.95881,3.11985,3.11985,0,0,1,.74048-.36464c.31492-.12491.35457-.23066.17661-.51988-.08494-.138-.1906-.26317-.27931-.39909a1.85962,1.85962,0,0,1-.07765-1.98075,1.39618,1.39618,0,0,1,1.52895-.71572,1.54341,1.54341,0,0,1,1.1618,1.3271A2.14574,2.14574,0,0,1,45.41,26.09675c-.41353.583-.41344.61975.244.78448a2.04687,2.04687,0,0,1,1.61084,1.59219c.01136.045.01759.09069.07258.10391Z"/>
      <path d="M40.6196,30.42461a10.93234,10.93234,0,0,1-2.4335-.30936c-.38559-.09558-.481-.248-.39151-.62935A2.16785,2.16785,0,0,1,39.35031,27.743c.86013-.256.85557-.2786.38243-1.01731a2.14854,2.14854,0,0,1-.32071-1.66268,1.55059,1.55059,0,0,1,1.73343-1.30853,1.65694,1.65694,0,0,1,1.37872,1.60035,2.33423,2.33423,0,0,1-.45266,1.49964c-.41526.59737-.41751.62552.26737.82331a2.17555,2.17555,0,0,1,1.75578,1.95223c.02872.24739-.05539.37383-.2909.41865A16.44676,16.44676,0,0,1,40.6196,30.42461Z"/>
      <path d="M34.6059,28.62878A1.92281,1.92281,0,0,1,36.053,26.94366c.07813-.02087.15422-.04932.23141-.07376.57524-.18216.58987-.20166.23442-.7111a2.065,2.065,0,0,1-.3579-1.90354,1.435,1.435,0,0,1,1.49952-1.04958,1.51162,1.51162,0,0,1,1.30894,1.25385,1.97428,1.97428,0,0,1-.36719,1.60936c-.07456.103-.147.2077-.21625.31429-.12372.19033-.06445.32915.13082.41839.29354.13417.58926.26357.971.43375a2.61254,2.61254,0,0,0-2.19242,2.02717c-.03676.13938-.10623.15194-.21944.15328a7.03491,7.03491,0,0,1-2.19658-.304"/>
    </g>
    <g>
      <path d="M62.457,46.31a6.56614,6.56614,0,0,1-2.349.41726.37019.37019,0,0,1-.41329-.25031,2.71961,2.71961,0,0,0-2.02481-1.9588,3.11948,3.11948,0,0,1,.74048-.36464c.31491-.12492.35457-.23067.17661-.51988-.085-.138-.19061-.26317-.27931-.39909A1.85963,1.85963,0,0,1,58.23,41.25378a1.39618,1.39618,0,0,1,1.52894-.71572,1.54342,1.54342,0,0,1,1.1618,1.32711,2.14577,2.14577,0,0,1-.39117,1.54559c-.41352.583-.41343.61974.244.78448a2.04687,2.04687,0,0,1,1.61084,1.59219c.01135.045.01758.09068.07258.10391Z"/>
      <path d="M55.73924,47.73862a10.93284,10.93284,0,0,1-2.43349-.30936c-.3856-.09559-.481-.248-.39152-.62935A2.16784,2.16784,0,0,1,54.47,45.057c.86014-.256.85557-.2786.38243-1.01732a2.14854,2.14854,0,0,1-.32071-1.66268,1.55061,1.55061,0,0,1,1.73343-1.30853,1.657,1.657,0,0,1,1.37872,1.60036,2.33416,2.33416,0,0,1-.45265,1.49963c-.41526.59738-.41751.62553.26737.82332a2.17554,2.17554,0,0,1,1.75577,1.95223c.02873.24738-.05538.37382-.2909.41864A16.44753,16.44753,0,0,1,55.73924,47.73862Z"/>
      <path d="M49.72555,45.94279a1.9228,1.9228,0,0,1,1.44711-1.68513c.07812-.02087.15422-.04932.2314-.07376.57525-.18215.58988-.20166.23443-.71109a2.06507,2.06507,0,0,1-.35791-1.90355,1.435,1.435,0,0,1,1.49953-1.04958A1.51163,1.51163,0,0,1,54.089,41.77354a1.97425,1.97425,0,0,1-.36719,1.60936c-.07455.103-.147.2077-.21624.31428-.12372.19033-.06446.32915.13081.4184.29354.13417.58927.26356.971.43375A2.61253,2.61253,0,0,0,52.415,46.5765c-.03675.13937-.10622.15194-.21944.15327a7.03436,7.03436,0,0,1-2.19658-.304"/>
    </g>
    <circle cx="39.24136" cy="41.37851" r="4.63546"/>
    <line x1="26.80651" y1="38.13042" x2="39.24136" y2="41.37851" fill="none" stroke="#000" stroke-miterlimit="10"/>
    <line x1="28.64094" y1="52.25019" x2="39.24136" y2="41.37851" fill="none" stroke="#000" stroke-miterlimit="10"/>
    <line x1="40.93177" y1="29.41366" x2="39.24136" y2="41.37851" fill="none" stroke="#000" stroke-miterlimit="10"/>
    <line x1="51.69606" y1="45.54153" x2="39.24136" y2="41.37851" fill="none" stroke="#000" stroke-miterlimit="10"/>
  </g>
</svg>
