<svg id="Layer_1" data-name="Layer 1" xmlns="http://www.w3.org/2000/svg" viewBox="0 0 75 74.87594">
  <g id="shapes">
    <path id="shield" d="M73.5,10.6c-13.63,8.71-22.84,1.73-36-8.52C24.86,13.47,16.07,19.59,1.5,10.6V52.19a5.09586,5.09586,0,0,0,2.72,4.52L35.17,72.93a5.02678,5.02678,0,0,0,4.65,0L70.78,56.7a5.10738,5.10738,0,0,0,2.72-4.52Z" transform="translate(0 -0.12406)" fill="#f99" stroke="#000" stroke-miterlimit="10" stroke-width="3"/>
  </g>
  <g id="secrets">
    <g>
      <path d="M20.17,57.5c-.12-.03-.23-.05-.35-.08a1.7299,1.7299,0,0,1-.89-2.79,2.18348,2.18348,0,0,1,.21-.22L55.43,18.12a1.83856,1.83856,0,0,1,1.4-.63,1.62193,1.62193,0,0,1,1.52,1.02,1.68624,1.68624,0,0,1-.26,1.82,4.10473,4.10473,0,0,1-.29.3Q39.815,38.6,21.86,56.57a2.67747,2.67747,0,0,1-1.51.93Z" transform="translate(0 -0.12406)"/>
      <path d="M37.67,18.49a19.01322,19.01322,0,0,1,4.01.62c1.11.26,2.22.55,3.31.88a1.61534,1.61534,0,0,1,.68,2.73,1.715,1.715,0,0,1-1.8.36c-1.2-.32-2.4-.66-3.62-.88a18.24256,18.24256,0,0,0-8.27.55,30.98088,30.98088,0,0,0-9.24,4.55,55.15873,55.15873,0,0,0-9.92,9.02,1.72131,1.72131,0,0,0,.06,2.36,58.675,58.675,0,0,0,7.11,6.9,1.73707,1.73707,0,1,1-2.12,2.75c-1.33-1.11-2.65-2.24-3.92-3.41a57.25129,57.25129,0,0,1-4.91-5.18,3.278,3.278,0,0,1-.05-4.34A57.08485,57.08485,0,0,1,21.57,23.9a33.21467,33.21467,0,0,1,10.41-4.71A24.63561,24.63561,0,0,1,37.67,18.49Z" transform="translate(0 -0.12406)"/>
      <path d="M37.92,56.4a23.58386,23.58386,0,0,1-6.61-.86,1.7545,1.7545,0,0,1-.84-2.94,1.55928,1.55928,0,0,1,1.69-.44,21.111,21.111,0,0,0,4.4.76,19.63068,19.63068,0,0,0,6.89-.89,31.40344,31.40344,0,0,0,8.91-4.5,55.36591,55.36591,0,0,0,9.8-8.93,1.72018,1.72018,0,0,0-.01-2.32,56.80507,56.80507,0,0,0-6.23-6.18,1.78229,1.78229,0,0,1-.7-1.95,1.67645,1.67645,0,0,1,2.74-.85,62.29339,62.29339,0,0,1,5.96,5.64c.68.72,1.34,1.45,1.99,2.19a3.27117,3.27117,0,0,1,.05,4.41A60.55143,60.55143,0,0,1,53.29,51.05a32.943,32.943,0,0,1-10.1,4.62A22.60064,22.60064,0,0,1,37.92,56.4Z" transform="translate(0 -0.12406)"/>
      <path d="M27.72,40.68A10.27728,10.27728,0,0,1,40.78,27.69c-.16.15-.31.28-.45.42-.76.76-1.52,1.52-2.29,2.27a.68706.68706,0,0,1-.44.17,6.89691,6.89691,0,0,0-6.92,5.97c-.05.35-.03.71-.06,1.07a.57792.57792,0,0,1-.1.32c-.9.91-1.81,1.82-2.72,2.73A.2994.2994,0,0,0,27.72,40.68Z" transform="translate(0 -0.12406)"/>
      <path d="M35.45,47.59l3.3-3.3a.70653.70653,0,0,1,.26-.13,6.83167,6.83167,0,0,0,5.21-5.19.708.708,0,0,1,.16-.31q1.56-1.575,3.12-3.13a1.36161,1.36161,0,0,1,.14-.11A10.39751,10.39751,0,0,1,35.45,47.59Z" transform="translate(0 -0.12406)"/>
    </g>
  </g>
</svg>
