<svg xmlns="http://www.w3.org/2000/svg" viewBox="0 0 75 74.87843">
  <g id="shapes">
    <path id="shield" d="M73.5,10.59635c-13.63071,8.709-22.84331,1.73258-36-8.51938-12.63859,11.38582-21.426,17.51181-36,8.518V52.1806a5.1014,5.1014,0,0,0,2.72107,4.52212L35.17573,72.92717a5.0067,5.0067,0,0,0,4.64854,0L70.77892,56.70272A5.10139,5.10139,0,0,0,73.5,52.1806Z" transform="translate(0 -0.12094)" fill="#f99" stroke="#000" stroke-miterlimit="10" stroke-width="3"/>
  </g>
  <g id="security">
    <g>
      <path d="M36.45034,15.10137h2.09973c.77088.13212,1.553.21838,2.31064.40443a13.40171,13.40171,0,0,1,7.34814,4.67791,13.48649,13.48649,0,0,1,3.11679,7.82249c.097,1.55437.05744,3.11727.079,4.67633.00215.15626.00029.31258.00029.51732.28842,0,.53245.00127.77645-.00022a2.23044,2.23044,0,0,1,1.90952,1.044,3.93136,3.93136,0,0,1,.63032,2.36538q-.00012,9.927-.00292,19.854a6.91828,6.91828,0,0,1-.068.95814,2.661,2.661,0,0,1-2.85036,2.47443q-10.18939,0-20.3788,0c-2.828,0-5.65593-.00521-8.48386.003a2.34246,2.34246,0,0,1-2.08164-1.14128,3.95638,3.95638,0,0,1-.57521-2.25107q-.00285-9.97074.00562-19.94148a5.63047,5.63047,0,0,1,.15723-1.29565,2.50194,2.50194,0,0,1,2.63838-2.06982c.15608-.00038.31215-.00006.51392-.00006v-.51689c0-1.12244-.04506-2.24721.01293-3.36664a16.68849,16.68849,0,0,1,.3555-3.24756c1.48717-5.82954,5.13568-9.48261,11.07264-10.74975C35.50209,15.21907,35.97883,15.17248,36.45034,15.10137Zm9.16718,18.0754c.00944-.11811.024-.21609.02407-.31408.001-1.26838.017-2.53705-.00425-3.80509a7.94819,7.94819,0,0,0-2.74041-6.06639A7.65057,7.65057,0,0,0,34.8791,21.3528a7.71559,7.71559,0,0,0-5.39071,6.55988,42.66613,42.66613,0,0,0-.11095,5.19236c-.00029.0219.032.04423.05328.07173ZM34.72708,49.66529c0,.94721-.00572,1.89445.00157,2.8416a1.36236,1.36236,0,0,0,1.5142,1.51593c.816.0044,1.6321.0024,2.44815.00057a1.38346,1.38346,0,0,0,1.58154-1.58108c.00353-1.51551.00927-3.03111-.00261-4.54654a3.44323,3.44323,0,0,1,.51715-2.11724,3.60289,3.60289,0,0,0-.35285-4.381,4.01537,4.01537,0,0,0-4.19382-1.1009,3.76346,3.76346,0,0,0-1.74665,5.949,1.10381,1.10381,0,0,1,.22286.62205C34.74038,47.79969,34.72689,48.73266,34.72708,49.66529Z" transform="translate(0 -0.12094)"/>
      <path d="M34.727,49.66529c-.00009-.93263.0134-1.8656-.01036-2.79763a1.10381,1.10381,0,0,0-.22286-.62205,3.76346,3.76346,0,0,1,1.74665-5.949,4.01537,4.01537,0,0,1,4.19382,1.1009,3.60289,3.60289,0,0,1,.35285,4.381,3.44323,3.44323,0,0,0-.51715,2.11724c.01188,1.51543.00614,3.031.00261,4.54654A1.38346,1.38346,0,0,1,38.691,54.02339c-.81605.00183-1.63212.00383-2.44815-.00057a1.36236,1.36236,0,0,1-1.5142-1.51593C34.72136,51.55974,34.72708,50.6125,34.727,49.66529Z" transform="translate(0 -0.12094)" fill="#fff"/>
    </g>
  </g>
</svg>
