<svg xmlns="http://www.w3.org/2000/svg" viewBox="0 0 75 75">
  <g id="shapes">
    <circle cx="37.5" cy="37.5" r="36" fill="#cf9" stroke="#000" stroke-miterlimit="10" stroke-width="3"/>
  </g>
  <g id="watch">
    <g id="graph">
      <polyline points="60.134 34.839 47.494 48.428 40.926 43.161 37.627 46.402 33.648 42.575 26.2 49.922 20.825 46.839 14.866 52.672" fill="none" stroke="#000" stroke-miterlimit="10" stroke-width="2"/>
      <polyline points="61.63 56.879 13.37 56.879 13.37 20.013" fill="none" stroke="#000" stroke-miterlimit="10" stroke-width="2"/>
    </g>
    <g>
      <path d="M35.20489,20.948c1.74063-1.717,2.93145-1.72228,4.539-.00029.78412-.537.56851-1.25421.41746-2.00074-.51056-2.5234.73483-4.49492,3.0618-4.83594a3.56653,3.56653,0,0,1,3.57528,1.54649,3.62636,3.62636,0,0,0,2.408,1.7248.93156.93156,0,0,1,.21769.06757c2.96826,1.22692,7.485,6.94068,7.97856,10.09158A8.74214,8.74214,0,0,1,40.54771,31.7917c-.12762-.35348-.23412-.71459-.31438-.96135a8.799,8.799,0,0,1-2.67226.9395,9.377,9.377,0,0,1-2.78725-.884,4.552,4.552,0,0,0-.16053.4265,8.74314,8.74314,0,0,1-16.11493,1.47892,8.68518,8.68518,0,0,1,1.1143-9.71339,47.46638,47.46638,0,0,1,3.34558-3.7468,8.338,8.338,0,0,1,2.79721-1.87743,5.07107,5.07107,0,0,0,2.47173-1.84819,3.57307,3.57307,0,0,1,3.378-1.51853,3.68981,3.68981,0,0,1,3.30422,4.36471c-.10411.80624-.08872,1.6279-.12788,2.44252Zm13.6158.80269a7.00859,7.00859,0,1,0-.162,14.0162,7.00875,7.00875,0,1,0,.162-14.0162ZM26.274,21.74982a7.00853,7.00853,0,1,0,6.9787,7.0255A6.97184,6.97184,0,0,0,26.274,21.74982Zm11.21461,5.10024a1.89593,1.89593,0,1,0,.00953,3.79178,1.96171,1.96171,0,0,0,1.8914-1.89661A1.98393,1.98393,0,0,0,37.48858,26.85006Z"/>
      <path d="M48.82069,21.75065a7.00859,7.00859,0,1,1-7.10676,6.91645A6.94678,6.94678,0,0,1,48.82069,21.75065Z" fill="#fff" opacity="0.75"/>
      <path d="M26.274,21.74982a7.00853,7.00853,0,0,1-.05387,14.017A7.00856,7.00856,0,1,1,26.274,21.74982Z" fill="#fff" opacity="0.75"/>
      <path d="M37.48858,26.85006a1.98393,1.98393,0,0,1,1.90093,1.89517,1.96171,1.96171,0,0,1-1.8914,1.89661,1.89593,1.89593,0,1,1-.00953-3.79178Z" fill="#fff"/>
    </g>
  </g>
</svg>
