<svg id="Layer_1" data-name="Layer 1" xmlns="http://www.w3.org/2000/svg" viewBox="0 0 75 75">
  <g id="shapes">
    <circle cx="37.5" cy="37.5" r="36" fill="#fc6" stroke="#000" stroke-miterlimit="10" stroke-width="3"/>
  </g>
  <g id="App">
    <g>
      <path d="M37.05,42.78a13.339,13.339,0,0,0,.99-1.13c.22-.3-.31-1.1-.72-1.1a5.99942,5.99942,0,0,0-1.2.05c-.54.1-.72-.16-.78-.62a2.82055,2.82055,0,0,0-.09-.52.54748.54748,0,0,1,.42-.8,2.53891,2.53891,0,0,0,.74-.29,1.49587,1.49587,0,0,0,.61-.64.7791.7791,0,0,0-.49-1.06A9.40637,9.40637,0,0,1,35.36,36c.2-.54.38-1.04.57-1.56a8.23872,8.23872,0,0,1,1.25.14c.78.23.75-.51,1.06-.83.34-.35-.05-.54-.21-.78a2.04678,2.04678,0,0,0-.3-.35.537.537,0,0,1-.01-.89,8.24411,8.24411,0,0,0,.68-.93c.45.36.73.54.96.77a.83645.83645,0,0,0,1.21.07.78619.78619,0,0,0,.45-.85,2.67291,2.67291,0,0,1-.01-.4,1.06814,1.06814,0,0,1,1.31-1.15c.19.04.36.34.48.56.5.96.84,1.15,1.91.98a.57279.57279,0,0,0,.34-.31c.17-.38.3-.78.47-1.23.44.13.85.22,1.23.37.12.05.19.24.26.38.03.05,0,.13-.01.2-.09,1.28-.09,1.28,1.17,1.99.36-.32.74-.65,1.16-1.02.44.4.86.79,1.33,1.22-.36.49-.7.95-1,1.34.22,1.52,1.23,1.47,2.37,1.16.12.66.22,1.24.33,1.86-.36.13-.69.24-1.01.37-.29.12-.63.14-.63.63.01.44.06.76.52.94a9.983,9.983,0,0,1,1.1.61,11.816,11.816,0,0,1-.62,1.41c-.08.13-.47.16-.68.11-.63-.14-1.18-.17-1.4.6a2.172,2.172,0,0,0-.05.72,1.17517,1.17517,0,0,0,.17.36c.58,1.21.58,1.21-.63,2-.45-.36-.9-.73-1.37-1.11a4.385,4.385,0,0,0-.83.47,1.50147,1.50147,0,0,0-.41.64,2.39619,2.39619,0,0,0-.04.66c-.04.86-.38,1.17-1.23,1.11a.54712.54712,0,0,1-.35-.23,3.635,3.635,0,0,1-.41-.84.89223.89223,0,0,0-1.06-.71.846.846,0,0,0-.91.57,2.36881,2.36881,0,0,1-.19.35c-.43.79-.92.92-1.68.42a.57249.57249,0,0,1-.19-.42,3.6156,3.6156,0,0,1,.07-.93.92368.92368,0,0,0-.49-1.14c-.47-.3-.72-.08-1.04.17a4.47264,4.47264,0,0,1,.29.35c.67.99.7,1.04-.22,1.8-.51.42-.34.8-.2,1.27.16.52.55.33.87.34a2.68041,2.68041,0,0,0,.4-.02c.84-.04,1.18.27,1.2,1.12a.60947.60947,0,0,1-.24.4,4.284,4.284,0,0,1-.7.38.96671.96671,0,0,0-.5,1.4.50837.50837,0,0,0,.33.24c.46.07.92.11,1.56.18-.89-.72-.18-1.19.06-1.71.11-.24.15-.22,1.87.28a.98069.98069,0,0,0,.14-1.56c-.65-.84-.59-.88.69-1.92a3.5532,3.5532,0,0,1,.61.43.94044.94044,0,0,0,1.48.04.60811.60811,0,0,0,.28-.7c-.24-1.17-.22-1.18,1-1.69.62.42.87,1.8,1.99,1,.41-.29.49-1.03.77-1.67h1.38a7.22443,7.22443,0,0,1,.25,1.21c.03.45.31.53.65.6a.664.664,0,0,0,.84-.33c.23-.45.5-.88.78-1.36.53.17,1.05.34,1.61.53-.04.45-.06.9-.13,1.33s.13.62.48.82c.38.22.57.01.8-.21.32-.3.64-.6.99-.93.44.34.86.66,1.31,1-.18.37-.36.73-.52,1.09-.13.3-.44.57-.05.94.36.35.65.56,1.2.33,1.28-.55,1.29-.52,1.95.98a9.38078,9.38078,0,0,0-.98.92.90791.90791,0,0,0-.12.75,1.4667,1.4667,0,0,0,.63.54c.12.07.3.02.46.02,1.24.02,1.24.02,1.39,1.39-.39.19-.79.42-1.22.59a.79031.79031,0,0,0,.02,1.47,5.35827,5.35827,0,0,1,.62.25c.82.33,1.04.79.57,1.54-.14.22-.63.25-.97.32s-.73-.09-.93.41c-.25.61-.26,1,.39,1.39.92.54.9.62.38,1.55a.70155.70155,0,0,1-.55.27,3.2233,3.2233,0,0,1-.96-.24.81791.81791,0,0,0-1.07.31c-.34.43-.09.68.09,1,.04.08.09.15.13.23.48.79.39,1.18-.44,1.65a.59065.59065,0,0,1-.47,0,8.508,8.508,0,0,1-.92-.54c-.29-.18-.51-.32-.88-.06-.38.27-.35.51-.27.88.33,1.54.32,1.54-1.3,2.05a13.28533,13.28533,0,0,1-.9-1.28.5415.5415,0,0,0-.82-.25.96854.96854,0,0,0-.42.6,13.93186,13.93186,0,0,0-.17,1.43.74773.74773,0,0,1-.22.08c-1.51.13-1.52.13-1.84-1.34-.08-.38-.15-.63-.64-.67a.63234.63234,0,0,0-.79.56c-.01.04-.04.08-.05.12-.48,1.14-.92,1.27-1.96.55a.56289.56289,0,0,1-.2-.42,4.08281,4.08281,0,0,1,.13-.92.82073.82073,0,0,0-.67-1.13.70044.70044,0,0,0-.5.11,2.91613,2.91613,0,0,0-.4.45c-.7.79-.71.77-1.55.16-.49-.36-.61-.7-.25-1.21.2-.29.36-.61.53-.91-.55-.88-.57-.89-1.5-.49l-.12.06c-.95.4-1.46.17-1.74-.82a.59269.59269,0,0,1,.15-.44,6.69713,6.69713,0,0,1,.71-.7.753.753,0,0,0,.23-.99.67523.67523,0,0,0-.84-.44c-.11.02-.22.01-.33.02-.99.05-1.19-.12-1.24-1.1a.65071.65071,0,0,1,.29-.45,2.90656,2.90656,0,0,1,.71-.34c.42-.15.7-.33.68-.89-.02-.57-.37-.63-.62-.69a5.9615,5.9615,0,0,1-.24,1.35c-.06.15-.51.16-.79.2a2.36247,2.36247,0,0,1-.46-.02c-.36-.03-.71-.17-.9.37-.17.49-.28.88.26,1.18a2.49038,2.49038,0,0,1,.36.3.9588.9588,0,0,1,0,1.63.5689.5689,0,0,1-.41.08,5.23388,5.23388,0,0,1-.96-.26c-.41-.16-.63-.05-.94.29-.55.61-.11.99.19,1.43.51.73.5.97-.19,1.46a.8809.8809,0,0,1-.68.03,2.80689,2.80689,0,0,1-.8-.47c-.38-.3-.68-.21-1.06.04-.43.29-.26.59-.18.92a5.35881,5.35881,0,0,0,.17.57c.16.46.27.86-.28,1.2a.938.938,0,0,1-1.37-.28c-.39-.46-.79-.91-1.44-.4a.894.894,0,0,0-.32.53,4.13,4.13,0,0,0,.11.92.69215.69215,0,0,1-.49.87c-.93.38-1,.38-1.43-.55-.13-.28-.25-.57-.37-.84-1.12-.04-1.13-.05-1.41,1.07-.14.56-.18,1.1-1.03,1.06-.58-.03-.86-.19-.94-.74a3.11962,3.11962,0,0,0-.22-.97,1.02371,1.02371,0,0,0-.63-.46c-.15-.03-.41.18-.54.34a2.79571,2.79571,0,0,0-.43.82c-.21.75-.7.59-1.25.49-.62-.11-.8-.43-.69-1.01.08-.41.09-.83.14-1.24-.41-.15-.76-.27-1.15-.41-.32.38-.67.76-.97,1.16a.46382.46382,0,0,1-.73.12c-.32-.22-.87-.25-.77-.85a5.47492,5.47492,0,0,1,.15-.58c.3-1.08.3-1.08-.71-1.79-.45.36-.91.73-1.45,1.16-.38-.36-.78-.73-1.19-1.12.23-.33.43-.62.64-.9.24-.31.42-.57.11-.99a.76679.76679,0,0,0-1.08-.27l-.06.03c-1.3.43-1.3.43-1.87-.96a8.13517,8.13517,0,0,1,.93-.82c.55-.36.23-.76.13-1.17-.1-.44-.44-.35-.74-.35H12.06a1.14723,1.14723,0,0,1-.08-.14c-.34-1.19-.34-1.19.73-1.78.28-.16.71-.2.57-.73-.12-.48-.09-1.03-.82-1.02a2.38658,2.38658,0,0,1-.52-.1.882.882,0,0,1-.73-1.32.60007.60007,0,0,1,.38-.29,2.78666,2.78666,0,0,1,.85-.13c.63.03.72-.37.84-.86.12-.52-.26-.59-.54-.77-.15-.09-.31-.18-.46-.26-.77-.43-.84-.64-.44-1.45a.50837.50837,0,0,1,.33-.24,2.765,2.765,0,0,1,.86-.04c.56.06.8-.19,1-.69.22-.53-.09-.72-.4-.97-.93-.79-.93-.81-.07-1.91.31.08.63.16.95.23.98.24.98.24,1.56-.74a6.12308,6.12308,0,0,0-.6-.9c-.53-.57-.06-.87.24-1.27.36-.47.71-.32,1.09-.06a5.39284,5.39284,0,0,1,.5.33.53148.53148,0,0,0,.81-.03c.25-.24.6-.4.38-.86-.13-.28-.16-.6-.28-.89-.17-.41-.01-.62.32-.87.53-.4.92-.39,1.3.17.12.18.34.3.46.48.34.51.7.24,1.09.1.44-.16.39-.48.34-.82a.5702.5702,0,0,1-.01-.13c-.16-1.33-.16-1.33,1.28-1.55.24.43.52.85.74,1.31.26.54.69.29,1.04.22.17-.03.37-.31.43-.51.13-.44.18-.91.28-1.45.47-.02.96-.04,1.49-.07a10.1888,10.1888,0,0,1,.25,1.16c.05.58.35.76.9.81.42.04.68-.01.81-.43a3.88693,3.88693,0,0,1,.27-.54c.37-.74.71-.86,1.44-.47a.6722.6722,0,0,1,.24.47c.03.48.01.97.01,1.47.39.16.73.29,1.14.46.39-.47.8-.96,1.19-1.43,1.36.49,1.39.5.99,1.81-.18.59-.12,1,.46,1.22a.915.915,0,0,0,.69-.01,11.74052,11.74052,0,0,0,1.23-.81c.31.33.62.66.92.99-.16.37-.32.73-.48,1.09-.41.49-.19,1,.62,1.4C37.47,43.71,37.26,43.24,37.05,42.78ZM16.69,51.4c-.03,1.33.43,1.69,1.59,1.34,1.06-.32,2.11-.66,3.16-1a2.16221,2.16221,0,0,0,1.14-3.16c-.54-.86-1.07-1.73-1.56-2.62-.56-1.02-1.26-1.15-2.02-.27A10.385,10.385,0,0,0,16.69,51.4Zm9.78-9.27a23.61489,23.61489,0,0,0-2.54.43.98691.98691,0,0,0-.6,1.68c.55.8,1.23,1.53,1.7,2.37a2.30779,2.30779,0,0,0,2.46,1.25,1.3875,1.3875,0,0,0,.81-.31c.89-.92,1.76-1.87,2.6-2.84.6-.69.44-1.29-.43-1.66A10.2691,10.2691,0,0,0,26.47,42.13ZM24.66,58.81c-.03-1.48.37-2.87-1.09-3.65a2.1385,2.1385,0,0,0-1.18-.36c-1.22.19-2.43.48-3.64.76a.952.952,0,0,0-.68,1.55,10.019,10.019,0,0,0,5.03,4.25.98917.98917,0,0,0,1.47-.93C24.62,59.82,24.64,59.2,24.66,58.81Zm3.95,3.02A9.15423,9.15423,0,0,0,34.5,58a.95044.95044,0,0,0-.6-1.43c-.85-.3-1.72-.57-2.58-.86-.98-.33-1.95-.55-2.82.28a.33291.33291,0,0,0-.06.03c-.19.26-.5.49-.54.77-.18,1.34-.31,2.68-.42,4.03C27.44,61.42,27.86,61.84,28.61,61.83Zm7.9-9.5a9.82252,9.82252,0,0,0-1.73-5.74.97367.97367,0,0,0-1.53-.23c-.84,1.11-1.66,2.24-2.45,3.39a2.24616,2.24616,0,0,0,.74,2.62c1.18.55,2.38,1.07,3.59,1.56.73.29,1.21-.02,1.32-.8C36.49,52.83,36.5,52.52,36.51,52.33Zm8.86,2.17c.01.82.31,1.05,1.05.83.72-.21,1.44-.44,2.15-.68a1.465,1.465,0,0,0,.79-2.14c-.37-.61-.73-1.21-1.09-1.82-.39-.68-.83-.74-1.34-.13A6.90859,6.90859,0,0,0,45.37,54.5Zm5.39,4.91c0-.57.02-.97,0-1.37a1.5605,1.5605,0,0,0-1.55-1.3c-.78.15-1.56.31-2.33.49-.69.16-.88.57-.51,1.16a6.64811,6.64811,0,0,0,3.34,2.8c.56.22.95-.03,1.01-.64C50.75,60.11,50.75,59.67,50.76,59.41ZM52.1,48.04c-.01.03-.02.07-.03.1-.44.04-.88.08-1.32.13a2.49927,2.49927,0,0,0-.45.12c-.62.23-.79.64-.42,1.18.49.71,1,1.41,1.52,2.09a1.49279,1.49279,0,0,0,1.9.06c.56-.6,1.11-1.2,1.64-1.83.44-.52.35-.95-.3-1.17C53.81,48.44,52.94,48.26,52.1,48.04Zm6.66,6.94a6.61481,6.61481,0,0,0-1.14-3.77c-.34-.49-.79-.57-1.09-.18-.55.72-1.09,1.46-1.59,2.21a1.48,1.48,0,0,0,.44,1.82c.81.4,1.65.75,2.49,1.09.48.19.77-.04.85-.53A4.6798,4.6798,0,0,0,58.76,54.98Zm-6.07,5.75c-.05.55.25.85.78.75a6.25506,6.25506,0,0,0,3.81-2.37.69145.69145,0,0,0-.36-1.2c-.82-.28-1.64-.53-2.48-.76a1.47352,1.47352,0,0,0-1.5,1C52.83,59.01,52.77,59.87,52.69,60.73ZM38.33,37.23c-.02.68.23.88.93.68.51-.15,1.01-.31,1.52-.48a1.248,1.248,0,0,0,.7-2.02c-.26-.41-.5-.83-.73-1.26-.37-.66-.74-.72-1.2-.13A5.76431,5.76431,0,0,0,38.33,37.23Zm5.54-5.32a12.61452,12.61452,0,0,0-1.55.28c-.45.14-.66.47-.35.92.41.6.82,1.2,1.27,1.78a1.1705,1.1705,0,0,0,1.59.02c.44-.47.87-.95,1.28-1.44.4-.47.34-.82-.23-1.02C45.18,32.2,44.45,32.06,43.87,31.91Zm-1.19,9.38h.04a10.64958,10.64958,0,0,0-.01-1.13,1.25539,1.25539,0,0,0-1.28-1.07c-.63.12-1.25.26-1.87.41-.59.15-.73.46-.43.97a5.40888,5.40888,0,0,0,2.65,2.3c.55.22.85.03.89-.56C42.69,41.91,42.68,41.6,42.68,41.29Zm6.59-3.7a5.52669,5.52669,0,0,0-.89-3.01c-.37-.55-.69-.55-1.07-.02-.32.45-.65.9-.97,1.35a1.20965,1.20965,0,0,0,.52,1.98c.4.18.81.36,1.21.54C49.02,38.85,49.24,38.7,49.27,37.59Zm-4.96,4.79c-.05.52.2.77.7.66a4.99488,4.99488,0,0,0,3.09-2.03.536.536,0,0,0-.29-.9c-.69-.25-1.38-.47-2.09-.65a1.16811,1.16811,0,0,0-1.21.87C44.43,41.01,44.37,41.69,44.31,42.38ZM26.64,54.37a2.29014,2.29014,0,1,0-2.32-2.32A2.29432,2.29432,0,0,0,26.64,54.37Zm25.42,2.08a1.5653,1.5653,0,1,0-1.53-1.59A1.59035,1.59035,0,0,0,52.06,56.45Zm-10.2-3.98c-.38.07-.7.15-1.02.18-.55.05-.93.22-.86.88.02.15-.09.31-.07.45a2.31589,2.31589,0,0,0,.28.55c.24-1.53.24-1.58,1.44-1.7.64-.06.98-.37.96-.93-.01-.32-.35-.63-.54-.95-.06.03-.13.07-.19.1v1.42Zm3.33-15.06a1.3345,1.3345,0,0,0-1.4-1.3,1.36946,1.36946,0,0,0-1.42,1.36,1.544,1.544,0,0,0,1.45,1.39A1.479,1.479,0,0,0,45.19,37.41Z"/>
      <path d="M16.69,51.4a10.31069,10.31069,0,0,1,2.32-5.71c.75-.89,1.45-.76,2.02.27.49.89,1.03,1.76,1.56,2.62a2.15789,2.15789,0,0,1-1.14,3.16c-1.05.34-2.1.68-3.16,1C17.12,53.08,16.66,52.72,16.69,51.4Z" fill="#fff"/>
      <path d="M26.47,42.13a10.96516,10.96516,0,0,1,4.01.91c.86.37,1.03.97.43,1.66-.85.97-1.71,1.92-2.6,2.84a1.34846,1.34846,0,0,1-.81.31,2.2812,2.2812,0,0,1-2.46-1.25c-.47-.85-1.15-1.57-1.7-2.37a.986.986,0,0,1,.6-1.68A23.41608,23.41608,0,0,1,26.47,42.13Z" fill="#fff"/>
      <path d="M24.66,58.81c-.02.39-.04,1.01-.09,1.63a.98632.98632,0,0,1-1.47.93,10.02657,10.02657,0,0,1-5.03-4.25.952.952,0,0,1,.68-1.55c1.21-.28,2.41-.58,3.64-.76a2.13833,2.13833,0,0,1,1.18.36C25.03,55.94,24.62,57.34,24.66,58.81Z" fill="#fff"/>
      <path d="M28.61,61.83c-.75.01-1.18-.41-1.12-1,.12-1.35.24-2.69.42-4.03.04-.28.35-.52.54-.77.01-.02.04-.02.06-.03.87-.83,1.83-.61,2.82-.28.86.29,1.73.55,2.58.86a.9522.9522,0,0,1,.6,1.43A9.26232,9.26232,0,0,1,28.61,61.83Z" fill="#fff"/>
      <path d="M36.51,52.33c-.01.19-.02.5-.06.81-.11.78-.58,1.09-1.32.8-1.21-.49-2.41-1.01-3.59-1.56a2.25012,2.25012,0,0,1-.74-2.62c.78-1.15,1.61-2.28,2.45-3.39a.97366.97366,0,0,1,1.53.23A9.74776,9.74776,0,0,1,36.51,52.33Z" fill="#fff"/>
      <path d="M45.37,54.5a6.99274,6.99274,0,0,1,1.56-3.95c.51-.61.95-.55,1.34.13.36.61.72,1.22,1.09,1.82a1.46282,1.46282,0,0,1-.79,2.14c-.71.24-1.43.47-2.15.68C45.69,55.55,45.38,55.32,45.37,54.5Z" fill="#fff"/>
      <path d="M50.76,59.41c-.01.26-.01.71-.05,1.15-.06.61-.44.86-1.01.64a6.69764,6.69764,0,0,1-3.34-2.8c-.36-.59-.18-1,.51-1.16.77-.18,1.55-.35,2.33-.49a1.5605,1.5605,0,0,1,1.55,1.3C50.78,58.43,50.76,58.83,50.76,59.41Z" fill="#fff"/>
      <path d="M52.1,48.04c.85.22,1.71.4,2.54.69.65.22.74.65.3,1.17-.53.62-1.08,1.23-1.64,1.83a1.50558,1.50558,0,0,1-1.9-.06c-.53-.68-1.04-1.38-1.52-2.09-.37-.54-.2-.95.42-1.18a2.29613,2.29613,0,0,1,.45-.12c.44-.05.88-.09,1.32-.13A.17963.17963,0,0,1,52.1,48.04Z" fill="#fff"/>
      <path d="M58.76,54.98a4.82462,4.82462,0,0,1-.04.65c-.08.48-.37.72-.85.53-.84-.34-1.68-.69-2.49-1.09a1.49261,1.49261,0,0,1-.44-1.82c.51-.75,1.04-1.49,1.59-2.21.3-.39.75-.31,1.09.18A6.53783,6.53783,0,0,1,58.76,54.98Z" fill="#fff"/>
      <path d="M52.69,60.73c.08-.86.14-1.72.25-2.58a1.48546,1.48546,0,0,1,1.5-1c.83.23,1.66.48,2.48.76a.69145.69145,0,0,1,.36,1.2,6.18351,6.18351,0,0,1-3.81,2.37C52.94,61.58,52.64,61.28,52.69,60.73Z" fill="#fff"/>
      <path d="M26.64,54.37a2.29014,2.29014,0,1,1-.01-4.58,2.29006,2.29006,0,1,1,.01,4.58Zm1.7-2.26a1.73071,1.73071,0,1,0-3.46.06,1.73026,1.73026,0,0,0,3.46-.06Z" fill="#fff"/>
      <path d="M52.06,56.45a1.5652,1.5652,0,0,1,.05-3.13,1.56523,1.56523,0,0,1-.05,3.13Zm-1.3-1.56a1.30035,1.30035,0,1,0,1.33-1.33A1.28141,1.28141,0,0,0,50.76,54.89Z" fill="#fff"/>
      <path d="M45.19,37.41a1.479,1.479,0,0,1-1.37,1.45,1.544,1.544,0,0,1-1.45-1.39,1.36946,1.36946,0,0,1,1.42-1.36A1.3226,1.3226,0,0,1,45.19,37.41Zm-.28.03a1.12557,1.12557,0,1,0-1.11,1.17A1.168,1.168,0,0,0,44.91,37.44Z" fill="#fff"/>
      <path d="M37.06,42.79l-.01-.01c.21.47.41.94.63,1.41" fill="#fff"/>
      <path d="M28.34,52.11a1.73071,1.73071,0,1,1-1.73-1.74A1.74565,1.74565,0,0,1,28.34,52.11Z"/>
      <path d="M50.76,54.89a1.30035,1.30035,0,1,1,2.6,0,1.30061,1.30061,0,1,1-2.6,0Z"/>
    </g>
    <polyline points="62.65 40.01 62.65 17.01 13.4 17.01 13.4 41.6" fill="none" stroke="#000" stroke-miterlimit="10"/>
    <line x1="17.87" y1="24.93" x2="56.78" y2="24.93" fill="none" stroke="#000" stroke-miterlimit="10" stroke-width="0.5"/>
    <line x1="18.33" y1="30.21" x2="38.32" y2="30.21" fill="none" stroke="#000" stroke-miterlimit="10" stroke-width="0.5"/>
    <line x1="60" y1="34.39" x2="54.79" y2="34.39" fill="none" stroke="#000" stroke-miterlimit="10" stroke-width="0.5"/>
    <line x1="18.33" y1="34.6" x2="22.9" y2="34.6" fill="none" stroke="#000" stroke-miterlimit="10" stroke-width="0.5"/>
    <circle cx="51.97" cy="54.76" r="7.02"/>
    <circle cx="51.97" cy="54.76" r="1.52" fill="#fff"/>
  </g>
</svg>
