<svg xmlns="http://www.w3.org/2000/svg" viewBox="0 0 75 75">
  <g id="shapes">
    <circle cx="37.5" cy="37.5" r="36" fill="#fc6" stroke="#000" stroke-miterlimit="10" stroke-width="3"/>
  </g>
  <g id="CDN">
    <rect x="17.20787" y="19.27382" width="10.58268" height="43.46457" fill="none" stroke="#000" stroke-miterlimit="10"/>
    <polygon points="57.933 19.274 14.373 19.274 14.373 13.605 51.413 13.605 57.933 19.274" fill="none" stroke="#000" stroke-miterlimit="10"/>
    <line x1="18.15275" y1="19.27382" x2="27.79055" y2="28.53366" fill="none" stroke="#000" stroke-miterlimit="10"/>
    <line x1="17.20787" y1="34.95886" x2="27.79055" y2="28.53366" fill="none" stroke="#000" stroke-miterlimit="10"/>
    <line x1="27.79055" y1="42.32893" x2="17.20787" y2="34.95886" fill="none" stroke="#000" stroke-miterlimit="10"/>
    <line x1="17.20787" y1="48.56515" x2="27.79055" y2="42.32893" fill="none" stroke="#000" stroke-miterlimit="10"/>
    <line x1="27.79055" y1="57.30028" x2="17.20787" y2="48.56515" fill="none" stroke="#000" stroke-miterlimit="10"/>
    <line x1="14.37322" y1="19.27382" x2="22.97165" y2="13.60452" fill="none" stroke="#000" stroke-miterlimit="10"/>
    <line x1="27.79055" y1="19.27382" x2="22.97165" y2="13.60452" fill="none" stroke="#000" stroke-miterlimit="10"/>
    <line x1="36.15335" y1="13.60452" x2="27.79055" y2="19.27382" fill="none" stroke="#000" stroke-miterlimit="10"/>
    <line x1="44.51495" y1="19.27382" x2="36.15335" y2="13.60452" fill="none" stroke="#000" stroke-miterlimit="10"/>
    <line x1="51.41259" y1="13.60452" x2="44.51495" y2="19.27382" fill="none" stroke="#000" stroke-miterlimit="10"/>
    <line x1="50.65669" y1="19.27382" x2="50.65669" y2="13.60452" fill="none" stroke="#000" stroke-miterlimit="10"/>
    <line x1="50.65669" y1="37.5" x2="50.65669" y2="19.27382" fill="none" stroke="#000" stroke-miterlimit="10"/>
    <line x1="41.96377" y1="42.32893" x2="50.65669" y2="37.5" fill="none" stroke="#000" stroke-miterlimit="10"/>
    <line x1="58.7149" y1="42.32893" x2="50.65669" y2="37.5" fill="none" stroke="#000" stroke-miterlimit="10"/>
    <g>
      <rect x="40.44703" y="41.0061" width="20.41932" height="17.35836"/>
      <rect x="40.44703" y="41.0061" width="20.41932" height="1.70895" fill="#fff"/>
      <line x1="59.64525" y1="42.17565" x2="60.2754" y2="41.5455" fill="none" stroke="#000" stroke-miterlimit="10" stroke-width="0.2"/>
      <line x1="59.64525" y1="41.5455" x2="60.2754" y2="42.17565" fill="none" stroke="#000" stroke-miterlimit="10" stroke-width="0.2"/>
      <rect x="57.66526" y="41.53329" width="0.69711" height="0.69711" fill="#fff" stroke="#000" stroke-miterlimit="10" stroke-width="0.2"/>
      <line x1="55.45122" y1="41.91107" x2="56.27135" y2="41.91107" fill="none" stroke="#000" stroke-miterlimit="10" stroke-width="0.2"/>
      <g>
        <path d="M47.79128,52.17558a.37132.37132,0,0,1,.208.32177.34982.34982,0,0,1-.32714.34619.49781.49781,0,0,1-.27149-.10693L44.81081,51.0164c-.13867-.08838-.2334-.15772-.2334-.34034-.00586-.17675.09473-.25244.2334-.34033l2.59668-1.727a.47858.47858,0,0,1,.25781-.09424.34936.34936,0,0,1,.334.34033.39612.39612,0,0,1-.21972.334l-2.24414,1.4873Z" fill="#fff"/>
        <path d="M49.885,53.05155c-.0752.13233-.15137.2207-.3086.2207a.31743.31743,0,0,1-.31543-.29638.66325.66325,0,0,1,.13867-.32764l2.35743-4.03955c.07519-.126.15136-.23926.30859-.23926a.30656.30656,0,0,1,.30859.29639.48782.48782,0,0,1-.06933.2456Z" fill="#fff"/>
        <path d="M56.10671,50.67606l-2.24415-1.4873a.39711.39711,0,0,1-.2207-.334.3508.3508,0,0,1,.334-.34033.48179.48179,0,0,1,.25879.09424l2.59667,1.727c.13868.08789.23926.16358.23243.34033,0,.18262-.09375.252-.23243.34034l-2.59082,1.72021a.4917.4917,0,0,1-.2705.10693.35067.35067,0,0,1-.32813-.34619.37317.37317,0,0,1,.208-.32177Z" fill="#fff"/>
      </g>
    </g>
    <rect x="14.94015" y="59.4313" width="15.2126" height="3.30709" stroke="#000" stroke-miterlimit="10"/>
  </g>
</svg>
