<svg id="Layer_1" data-name="Layer 1" xmlns="http://www.w3.org/2000/svg" viewBox="0 0 75 75">
  <g id="shapes">
    <circle cx="37.5" cy="37.5" r="36" fill="#fc6" stroke="#000" stroke-miterlimit="10" stroke-width="3"/>
  </g>
  <g id="cloud">
    <path id="_Shield_" data-name="&lt;Shield&gt;" d="M27.05,59.04v6.27a.70513.70513,0,0,0,.38.62l4.3,2.23a.68133.68133,0,0,0,.65,0l4.3-2.23a.70513.70513,0,0,0,.38-.62V59.04a.6979.6979,0,0,0-.71-.7l-4.24.05-4.34-.05A.70655.70655,0,0,0,27.05,59.04Z" stroke="#000" stroke-miterlimit="10"/>
    <rect x="23.43" y="37.25" width="10" height="10" stroke="#000" stroke-miterlimit="10"/>
    <circle cx="49.1" cy="55.91" r="5" stroke="#000" stroke-miterlimit="10"/>
    <path id="_Ttriangle_" data-name="&lt;Ttriangle&gt;" d="M32.14,55.12l4.34-8.5a.62069.62069,0,0,1,1.14,0l4.34,8.5a.75063.75063,0,0,1-.57,1.12H32.71A.74456.74456,0,0,1,32.14,55.12Z" stroke="#000" stroke-miterlimit="10"/>
    <path d="M42.05,40.66v4.15a.75473.75473,0,0,0,.42.68l4.24,2.15a.76261.76261,0,0,0,.69,0l4.24-2.15a.75473.75473,0,0,0,.42-.68V40.66a.75473.75473,0,0,0-.42-.68L47.4,37.83a.76261.76261,0,0,0-.69,0l-4.24,2.15A.75473.75473,0,0,0,42.05,40.66Z" stroke="#000" stroke-miterlimit="10"/>
    <path d="M21.91,44.62A14.3007,14.3007,0,0,1,8.26,31.31a14.15644,14.15644,0,0,1,12.2-15.1,3.34958,3.34958,0,0,0,2.5-1.56c4.47-6.15,10.59-9.01,18.1-8.1,7.62.92,12.8,5.35,15.63,12.45a2.659,2.659,0,0,0,1.77,1.84,12.20382,12.20382,0,0,1-3.68,23.77" fill="none" stroke="#000" stroke-miterlimit="10"/>
  </g>
</svg>
