<?xml version="1.0" encoding="utf-8"?>
<!-- Generator: Adobe Illustrator 24.2.3, SVG Export Plug-In . SVG Version: 6.00 Build 0)  -->
<svg version="1.1" id="Layer_1" xmlns="http://www.w3.org/2000/svg" xmlns:xlink="http://www.w3.org/1999/xlink" x="0px" y="0px"
	 viewBox="0 0 75 75" style="enable-background:new 0 0 75 75;" xml:space="preserve">
<style type="text/css">
	.st0{fill:#FFCC66;stroke:#000000;stroke-width:3;stroke-miterlimit:10;}
	.st1{display:none;}
	.st2{display:inline;}
	.st3{display:inline;fill:#FFFFFF;}
	.st4{display:none;fill:#FFFFFF;}
	.st5{fill:none;stroke:#000000;stroke-miterlimit:10;}
</style>
<g id="shapes">
	<circle class="st0" cx="37.5" cy="37.5" r="36"/>
</g>
<g id="App">
	<g>
		<g class="st1">
			<path class="st2" d="M39.7,39.1c0.2-0.2,0.4-0.5,0.6-0.7c0.1-0.2-0.2-0.7-0.5-0.7c-0.3,0-0.5,0-0.8,0c-0.3,0.1-0.5-0.1-0.5-0.4
				c0-0.1,0-0.2-0.1-0.3c-0.1-0.2,0-0.4,0.1-0.5c0,0,0.1,0,0.1,0c0.2,0,0.3-0.1,0.5-0.2c0.2-0.1,0.3-0.2,0.4-0.4
				c0.1-0.3,0-0.5-0.3-0.7c0,0,0,0-0.1,0c-0.3-0.1-0.5-0.3-0.7-0.4l0.4-1c0.3,0,0.5,0,0.8,0.1c0.5,0.1,0.5-0.3,0.7-0.5
				c0.2-0.2,0-0.3-0.1-0.5c-0.1-0.1-0.1-0.2-0.2-0.2c-0.2-0.1-0.2-0.3-0.1-0.5c0,0,0.1-0.1,0.1-0.1c0.2-0.2,0.3-0.4,0.4-0.6
				c0.3,0.2,0.5,0.3,0.6,0.5c0.2,0.2,0.5,0.3,0.7,0.1c0,0,0,0,0,0c0.2-0.1,0.3-0.3,0.3-0.5c0-0.1,0-0.2,0-0.3c0-0.4,0.2-0.7,0.6-0.7
				c0.1,0,0.2,0,0.2,0c0.1,0,0.2,0.2,0.3,0.4c0.3,0.6,0.5,0.7,1.2,0.6c0.1,0,0.2-0.1,0.2-0.2c0.1-0.2,0.2-0.5,0.3-0.8
				c0.3,0.1,0.5,0.1,0.8,0.2c0.1,0,0.1,0.2,0.2,0.2c0,0,0,0.1,0,0.1c-0.1,0.8-0.1,0.8,0.7,1.3l0.7-0.6l0.8,0.8l-0.6,0.9
				c0.1,1,0.8,0.9,1.5,0.7l0.2,1.2c-0.2,0.1-0.4,0.2-0.6,0.2c-0.2,0.1-0.4,0.1-0.4,0.4c0,0.3,0,0.5,0.3,0.6c0.2,0.1,0.5,0.2,0.7,0.4
				c-0.1,0.3-0.2,0.6-0.4,0.9c-0.1,0.1-0.3,0.1-0.4,0.1c-0.4-0.1-0.8-0.1-0.9,0.4c0,0.1,0,0.3,0,0.5c0,0.1,0.1,0.2,0.1,0.2
				c0.4,0.8,0.4,0.8-0.4,1.3l-0.9-0.7c-0.2,0.1-0.4,0.2-0.5,0.3c-0.1,0.1-0.2,0.3-0.3,0.4c0,0.1,0,0.3,0,0.4c0,0.5-0.2,0.7-0.8,0.7
				c-0.1,0-0.2-0.1-0.2-0.1c-0.1-0.2-0.2-0.3-0.3-0.5c-0.1-0.3-0.4-0.5-0.7-0.5c0,0,0,0,0,0c-0.3,0-0.5,0.1-0.6,0.4
				c0,0.1-0.1,0.2-0.1,0.2c-0.3,0.5-0.6,0.6-1.1,0.3c-0.1-0.1-0.1-0.2-0.1-0.3c0-0.2,0-0.4,0-0.6c0.1-0.3,0-0.6-0.3-0.7
				c-0.3-0.2-0.5,0-0.7,0.1c0.1,0.1,0.1,0.1,0.2,0.2c0.4,0.6,0.4,0.7-0.1,1.1c-0.3,0.3-0.2,0.5-0.1,0.8c0.1,0.3,0.3,0.2,0.6,0.2
				c0.1,0,0.2,0,0.3,0c0.5,0,0.7,0.2,0.8,0.7c0,0.1-0.1,0.2-0.2,0.3c-0.1,0.1-0.3,0.2-0.4,0.2c-0.3,0.1-0.5,0.5-0.4,0.8
				c0,0,0,0.1,0,0.1c0,0.1,0.1,0.1,0.2,0.2c0.3,0,0.6,0.1,1,0.1c-0.6-0.5-0.1-0.8,0-1.1c0.1-0.2,0.1-0.1,1.2,0.2
				c0.3-0.2,0.4-0.6,0.2-0.9c0,0-0.1-0.1-0.1-0.1c-0.4-0.5-0.4-0.6,0.4-1.2c0.1,0.1,0.3,0.2,0.4,0.3c0.2,0.3,0.6,0.3,0.8,0.1
				c0,0,0.1-0.1,0.1-0.1c0.2-0.1,0.2-0.3,0.2-0.4c-0.2-0.7-0.1-0.7,0.6-1.1c0.4,0.3,0.6,1.1,1.3,0.6c0.3-0.2,0.3-0.7,0.5-1.1h0.9
				c0.1,0.3,0.1,0.5,0.2,0.8c0,0.3,0.2,0.3,0.4,0.4c0.2,0.1,0.4,0,0.5-0.2c0.1-0.3,0.3-0.6,0.5-0.9l1,0.3c0,0.3,0,0.6-0.1,0.8
				c0,0.3,0.1,0.4,0.3,0.5c0.2,0.1,0.4,0,0.5-0.1c0.2-0.2,0.4-0.4,0.6-0.6l0.8,0.6c-0.1,0.2-0.2,0.5-0.3,0.7c-0.1,0.2-0.3,0.4,0,0.6
				c0.2,0.2,0.4,0.4,0.8,0.2c0.8-0.3,0.8-0.3,1.2,0.6c-0.2,0.2-0.4,0.4-0.6,0.6c-0.1,0.1-0.1,0.3-0.1,0.5c0.1,0.1,0.2,0.3,0.4,0.3
				c0.1,0,0.2,0,0.3,0c0.8,0,0.8,0,0.9,0.9c-0.2,0.1-0.5,0.3-0.8,0.4c-0.2,0.1-0.3,0.3-0.3,0.5c0,0.2,0.1,0.4,0.3,0.5
				c0.1,0,0.3,0.1,0.4,0.2c0.5,0.2,0.7,0.5,0.4,1c-0.1,0.1-0.4,0.2-0.6,0.2c-0.2,0-0.5-0.1-0.6,0.3c-0.2,0.4-0.2,0.6,0.2,0.9
				c0.6,0.3,0.6,0.4,0.2,1c-0.1,0.1-0.2,0.2-0.3,0.2c-0.2,0-0.4-0.1-0.6-0.2c-0.2-0.1-0.5,0-0.7,0.2c-0.2,0.3-0.1,0.4,0.1,0.6
				c0,0,0.1,0.1,0.1,0.1c0.3,0.5,0.2,0.7-0.3,1c-0.1,0-0.2,0-0.3,0c-0.2-0.1-0.4-0.2-0.6-0.3c-0.2-0.1-0.3-0.2-0.6,0
				c-0.2,0.2-0.2,0.3-0.2,0.6c0.2,1,0.2,1-0.8,1.3c-0.2-0.3-0.4-0.5-0.6-0.8c-0.1-0.2-0.3-0.3-0.4-0.2c0,0-0.1,0-0.1,0
				c-0.1,0.1-0.2,0.2-0.3,0.4c-0.1,0.3-0.1,0.6-0.1,0.9c0,0-0.1,0-0.1,0.1c-1,0.1-1,0.1-1.2-0.8c-0.1-0.2-0.1-0.4-0.4-0.4
				c-0.2-0.1-0.4,0.1-0.5,0.3c0,0,0,0,0,0.1c0,0,0,0.1,0,0.1c-0.3,0.7-0.6,0.8-1.2,0.3c-0.1-0.1-0.1-0.2-0.1-0.3
				c0-0.2,0-0.4,0.1-0.6c0.1-0.3,0-0.6-0.3-0.7c0,0-0.1,0-0.1,0c-0.1,0-0.2,0-0.3,0.1c-0.1,0.1-0.2,0.2-0.3,0.3
				c-0.4,0.5-0.5,0.5-1,0.1c-0.3-0.2-0.4-0.4-0.2-0.8c0.1-0.2,0.2-0.4,0.3-0.6c-0.4-0.6-0.4-0.6-1-0.3c0,0-0.1,0-0.1,0
				c-0.6,0.3-0.9,0.1-1.1-0.5c0-0.1,0-0.2,0.1-0.3c0.1-0.2,0.3-0.3,0.5-0.4c0.2-0.1,0.3-0.4,0.1-0.6c-0.1-0.2-0.3-0.3-0.5-0.3
				c0,0,0,0,0,0c-0.1,0-0.1,0-0.2,0c-0.6,0-0.8-0.1-0.8-0.7c0-0.1,0.1-0.2,0.2-0.3c0.1-0.1,0.3-0.2,0.4-0.2c0.3-0.1,0.4-0.2,0.4-0.6
				c0-0.4-0.2-0.4-0.4-0.4c0,0.3-0.1,0.6-0.2,0.9c0,0.1-0.3,0.1-0.5,0.1c-0.1,0-0.2,0-0.3,0c-0.2,0-0.5-0.1-0.6,0.2
				c-0.1,0.3-0.2,0.6,0.2,0.7c0.1,0.1,0.2,0.1,0.2,0.2c0.3,0.2,0.4,0.5,0.2,0.8c0,0.1-0.1,0.1-0.2,0.2c-0.1,0.1-0.2,0.1-0.3,0
				c-0.2,0-0.4-0.1-0.6-0.2c-0.3-0.1-0.4,0-0.6,0.2c-0.3,0.4-0.1,0.6,0.1,0.9c0.3,0.5,0.3,0.6-0.1,0.9c-0.1,0.1-0.3,0.1-0.4,0
				c-0.2-0.1-0.4-0.2-0.5-0.3c-0.2-0.2-0.4-0.1-0.7,0c-0.3,0.2-0.2,0.4-0.1,0.6c0,0.1,0.1,0.2,0.1,0.4c0.1,0.3,0.2,0.5-0.2,0.8
				c-0.3,0.2-0.6,0.1-0.8-0.1c0,0,0,0,0-0.1c-0.2-0.3-0.5-0.6-0.9-0.3c-0.1,0.1-0.2,0.2-0.2,0.3c0,0.2,0,0.4,0.1,0.6
				c0.1,0.2-0.1,0.5-0.3,0.5c0,0,0,0,0,0c-0.6,0.2-0.6,0.2-0.9-0.3c-0.1-0.2-0.2-0.4-0.2-0.5c-0.7,0-0.7,0-0.9,0.7
				c-0.1,0.4-0.1,0.7-0.7,0.7c-0.4,0-0.5-0.1-0.6-0.5c0-0.2-0.1-0.4-0.1-0.6c-0.1-0.1-0.2-0.3-0.4-0.3c-0.1,0-0.3,0.1-0.3,0.2
				c-0.1,0.2-0.2,0.3-0.3,0.5c-0.1,0.5-0.4,0.4-0.8,0.3c-0.4-0.1-0.5-0.3-0.4-0.6c0-0.3,0.1-0.5,0.1-0.8l-0.7-0.3
				c-0.2,0.2-0.4,0.5-0.6,0.7c-0.1,0.1-0.3,0.2-0.4,0.1c0,0,0,0-0.1-0.1C28.3,53.4,28,53.4,28,53c0-0.1,0.1-0.2,0.1-0.4
				c0.2-0.7,0.2-0.7-0.5-1.1l-0.9,0.7L26,51.5c0.1-0.2,0.3-0.4,0.4-0.6c0.2-0.2,0.3-0.4,0.1-0.6c-0.1-0.2-0.4-0.3-0.7-0.2
				c0,0,0,0,0,0c0,0,0,0,0,0c-0.8,0.3-0.8,0.3-1.2-0.6c0.2-0.2,0.4-0.4,0.6-0.5c0.3-0.2,0.1-0.5,0.1-0.7c-0.1-0.3-0.3-0.2-0.5-0.2
				c-0.3,0-0.6,0-0.9,0c0,0,0-0.1,0-0.1c-0.2-0.8-0.2-0.8,0.5-1.1c0.2-0.1,0.4-0.1,0.4-0.5c-0.1-0.3-0.1-0.7-0.5-0.6
				c-0.1,0-0.2,0-0.3-0.1c-0.3,0-0.5-0.3-0.5-0.6c0-0.1,0-0.2,0.1-0.3c0.1-0.1,0.1-0.2,0.2-0.2c0.2-0.1,0.4-0.1,0.5-0.1
				c0.4,0,0.5-0.2,0.5-0.5c0.1-0.3-0.2-0.4-0.3-0.5c-0.1-0.1-0.2-0.1-0.3-0.2c-0.5-0.3-0.5-0.4-0.3-0.9c0-0.1,0.1-0.1,0.2-0.2
				c0.2,0,0.4,0,0.5,0c0.4,0,0.5-0.1,0.6-0.4c0.1-0.3-0.1-0.5-0.3-0.6c-0.6-0.5-0.6-0.5,0-1.2c0.2,0,0.4,0.1,0.6,0.1
				c0.6,0.2,0.6,0.2,1-0.5c-0.1-0.2-0.2-0.4-0.4-0.6c-0.3-0.4,0-0.6,0.2-0.8c0.2-0.3,0.4-0.2,0.7,0c0.1,0.1,0.2,0.1,0.3,0.2
				c0.1,0.1,0.3,0.1,0.5,0c0,0,0,0,0,0c0.2-0.2,0.4-0.3,0.2-0.5c-0.1-0.2-0.1-0.4-0.2-0.6c-0.1-0.3,0-0.4,0.2-0.6
				c0.3-0.3,0.6-0.2,0.8,0.1c0.1,0.1,0.2,0.2,0.3,0.3c0.2,0.3,0.4,0.1,0.7,0.1C30,37.2,30,37,30,36.8c0,0,0-0.1,0-0.1
				c-0.1-0.8-0.1-0.8,0.8-1c0.2,0.3,0.3,0.5,0.5,0.8c0.2,0.3,0.4,0.2,0.7,0.1c0.1,0,0.2-0.2,0.3-0.3c0.1-0.3,0.1-0.6,0.2-0.9l0.9,0
				c0.1,0.2,0.1,0.5,0.2,0.7c0,0.4,0.2,0.5,0.6,0.5c0.3,0,0.4,0,0.5-0.3c0-0.1,0.1-0.2,0.2-0.3c0.2-0.5,0.4-0.5,0.9-0.3
				c0.1,0.1,0.1,0.2,0.1,0.3c0,0.3,0,0.6,0,0.9l0.7,0.3l0.8-0.9c0.9,0.3,0.9,0.3,0.6,1.1c-0.1,0.4-0.1,0.6,0.3,0.8
				c0.1,0.1,0.3,0.1,0.4,0c0.3-0.2,0.5-0.3,0.8-0.5l0.6,0.6L39.7,39.1c-0.3,0.3-0.1,0.6,0.4,0.9L39.7,39.1z M26.8,44.6
				c0,0.8,0.3,1.1,1,0.8c0.7-0.2,1.3-0.4,2-0.6c0.7-0.2,1.1-1,0.8-1.7c0-0.1-0.1-0.2-0.1-0.3c-0.3-0.5-0.7-1.1-1-1.7
				c-0.4-0.6-0.8-0.7-1.3-0.2C27.4,42,26.9,43.2,26.8,44.6z M33,38.7c-0.5,0.1-1.1,0.2-1.6,0.3c-0.3,0-0.6,0.3-0.6,0.7
				c0,0.1,0.1,0.3,0.2,0.4c0.4,0.5,0.7,1,1.1,1.5c0.3,0.6,0.9,0.9,1.6,0.8c0.2,0,0.4-0.1,0.5-0.2c0.6-0.6,1.1-1.2,1.6-1.8
				c0.4-0.4,0.3-0.8-0.3-1.1C34.7,38.9,33.8,38.7,33,38.7z M31.8,49.3c0-0.9,0.2-1.8-0.7-2.3c-0.2-0.1-0.5-0.2-0.8-0.2
				c-0.8,0.1-1.5,0.3-2.3,0.5c-0.3,0-0.6,0.3-0.6,0.6c0,0.1,0.1,0.2,0.1,0.3c0.7,1.2,1.9,2.2,3.2,2.7c0.3,0.2,0.7,0.1,0.9-0.2
				c0.1-0.1,0.1-0.2,0.1-0.3C31.8,49.9,31.8,49.5,31.8,49.3z M34.3,51.2c1.5-0.3,2.9-1.2,3.7-2.4c0.2-0.3,0.1-0.7-0.2-0.8
				c-0.1,0-0.1-0.1-0.2-0.1c-0.5-0.2-1.1-0.4-1.6-0.5c-0.6-0.3-1.3-0.2-1.8,0.2c0,0,0,0,0,0c-0.1,0.2-0.3,0.3-0.3,0.5
				c-0.1,0.8-0.2,1.7-0.3,2.6C33.6,50.9,33.9,51.2,34.3,51.2z M39.3,45.2c0-1.3-0.4-2.6-1.1-3.6c-0.2-0.3-0.5-0.4-0.8-0.2
				c0,0-0.1,0.1-0.1,0.1c-0.5,0.7-1.1,1.4-1.6,2.1c-0.2,0.6,0,1.3,0.5,1.7c0.7,0.4,1.5,0.7,2.3,1c0.5,0.2,0.8,0,0.8-0.5
				C39.3,45.5,39.3,45.3,39.3,45.2z M44.9,46.5c0,0.5,0.2,0.7,0.7,0.5c0.5-0.1,0.9-0.3,1.4-0.4c0.5-0.2,0.7-0.7,0.6-1.2
				c0-0.1,0-0.1-0.1-0.2c-0.2-0.4-0.5-0.8-0.7-1.2c-0.3-0.4-0.5-0.5-0.9-0.1C45.4,44.7,45,45.6,44.9,46.5L44.9,46.5z M48.4,49.6
				c0-0.4,0-0.6,0-0.9c-0.1-0.5-0.5-0.8-1-0.8c-0.5,0.1-1,0.2-1.5,0.3c-0.4,0.1-0.6,0.4-0.3,0.7c0.5,0.8,1.2,1.4,2.1,1.8
				c0.4,0.1,0.6,0,0.6-0.4C48.4,50.1,48.4,49.8,48.4,49.6L48.4,49.6z M49.2,42.4L49.2,42.4c-0.3,0.1-0.6,0.1-0.9,0.1
				c-0.1,0-0.2,0-0.3,0.1c-0.4,0.1-0.5,0.4-0.3,0.7c0.3,0.5,0.6,0.9,1,1.3c0.3,0.3,0.8,0.3,1.2,0c0.4-0.4,0.7-0.8,1-1.2
				c0.3-0.3,0.2-0.6-0.2-0.7C50.3,42.7,49.7,42.6,49.2,42.4L49.2,42.4z M53.4,46.8c0-0.9-0.2-1.7-0.7-2.4c-0.2-0.3-0.5-0.4-0.7-0.1
				c-0.3,0.5-0.7,0.9-1,1.4c-0.2,0.4-0.1,0.9,0.3,1.2c0.5,0.3,1,0.5,1.6,0.7c0.3,0.1,0.5,0,0.5-0.3C53.4,47.1,53.4,47,53.4,46.8
				L53.4,46.8z M49.6,50.5c0,0.3,0.2,0.5,0.5,0.5c1-0.2,1.8-0.7,2.4-1.5c0.2-0.2,0.2-0.4,0-0.6c-0.1-0.1-0.2-0.1-0.3-0.1
				c-0.5-0.2-1-0.3-1.6-0.5c-0.4,0-0.8,0.2-1,0.6C49.7,49.4,49.6,49.9,49.6,50.5z M40.5,35.6c0,0.4,0.1,0.6,0.6,0.4
				c0.3-0.1,0.6-0.2,1-0.3c0.4-0.1,0.7-0.5,0.6-0.9c0-0.1-0.1-0.2-0.2-0.3c-0.2-0.3-0.3-0.5-0.5-0.8c-0.2-0.4-0.5-0.5-0.8-0.1
				C40.8,34.1,40.5,34.8,40.5,35.6z M44,32.2c-0.3,0-0.7,0.1-1,0.2c-0.3,0.1-0.4,0.3-0.2,0.6c0.3,0.4,0.5,0.8,0.8,1.1
				c0.3,0.3,0.7,0.3,1,0c0.3-0.3,0.5-0.6,0.8-0.9c0.3-0.3,0.2-0.5-0.1-0.6C44.8,32.4,44.4,32.3,44,32.2z M43.2,38.2L43.2,38.2
				c0-0.2,0-0.5,0-0.7c-0.1-0.4-0.4-0.7-0.8-0.7c-0.4,0.1-0.8,0.2-1.2,0.3c-0.4,0.1-0.5,0.3-0.3,0.6c0.4,0.7,1,1.2,1.7,1.5
				c0.3,0.1,0.5,0,0.6-0.4C43.2,38.5,43.2,38.3,43.2,38.2L43.2,38.2z M47.4,35.8c0-0.7-0.2-1.3-0.6-1.9c-0.2-0.3-0.4-0.3-0.7,0
				c-0.2,0.3-0.4,0.6-0.6,0.9c-0.3,0.3-0.3,0.8,0,1.1c0.1,0.1,0.2,0.1,0.3,0.2c0.3,0.1,0.5,0.2,0.8,0.3
				C47.3,36.6,47.4,36.5,47.4,35.8L47.4,35.8z M44.3,38.8c0,0.3,0.1,0.5,0.4,0.4c0.8-0.2,1.5-0.6,2-1.3c0.1-0.1,0.1-0.3,0-0.5
				c0,0-0.1-0.1-0.2-0.1c-0.4-0.2-0.9-0.3-1.3-0.4c-0.4,0-0.7,0.2-0.8,0.6C44.4,38,44.3,38.4,44.3,38.8L44.3,38.8z M33.1,46.4
				c0.8,0,1.4-0.7,1.4-1.5c0-0.8-0.7-1.4-1.5-1.4c-0.8,0-1.4,0.6-1.4,1.4C31.6,45.8,32.2,46.4,33.1,46.4
				C33.1,46.4,33.1,46.4,33.1,46.4L33.1,46.4z M49.2,47.8c0.5,0,1-0.4,1-1c0-0.5-0.4-1-1-1c-0.5,0-1,0.4-1,1c0,0,0,0,0,0
				C48.2,47.3,48.6,47.7,49.2,47.8L49.2,47.8z M42.7,45.2c-0.2,0-0.4,0.1-0.6,0.1c-0.3,0-0.6,0.1-0.5,0.6c0,0.1-0.1,0.2,0,0.3
				c0,0.1,0.1,0.2,0.2,0.3c0.2-1,0.1-1,0.9-1.1c0.4,0,0.6-0.2,0.6-0.6c0-0.2-0.2-0.4-0.3-0.6l-0.1,0.1V45.2z M44.8,35.7
				c0-0.5-0.4-0.8-0.9-0.8c0,0,0,0,0,0c-0.5,0-0.9,0.4-0.9,0.8c0,0,0,0,0,0c0,0.5,0.4,0.9,0.9,0.9C44.4,36.6,44.8,36.2,44.8,35.7
				L44.8,35.7z"/>
			<path class="st3" d="M26.8,44.6c0.1-1.3,0.6-2.6,1.5-3.6c0.5-0.6,0.9-0.5,1.3,0.2c0.3,0.6,0.6,1.1,1,1.7c0.4,0.6,0.2,1.5-0.5,1.9
				c-0.1,0-0.2,0.1-0.3,0.1c-0.7,0.2-1.3,0.4-2,0.6C27,45.6,26.8,45.4,26.8,44.6z"/>
			<path class="st3" d="M33,38.7c0.9,0,1.7,0.2,2.5,0.6c0.5,0.2,0.7,0.6,0.3,1.1c-0.5,0.6-1.1,1.2-1.6,1.8c-0.1,0.1-0.3,0.2-0.5,0.2
				c-0.6,0.1-1.3-0.2-1.6-0.8c-0.3-0.5-0.7-1-1.1-1.5c-0.2-0.2-0.2-0.6,0-0.9c0.1-0.1,0.2-0.2,0.4-0.2C31.9,38.8,32.4,38.7,33,38.7z
				"/>
			<path class="st3" d="M31.8,49.3c0,0.2,0,0.6-0.1,1c0,0.3-0.2,0.6-0.6,0.7c-0.1,0-0.2,0-0.3-0.1c-1.3-0.5-2.5-1.5-3.2-2.7
				c-0.2-0.3-0.2-0.6,0.1-0.9c0.1-0.1,0.2-0.1,0.3-0.1c0.8-0.2,1.5-0.4,2.3-0.5c0.3,0,0.5,0.1,0.8,0.2
				C32.1,47.4,31.8,48.3,31.8,49.3z"/>
			<path class="st3" d="M34.3,51.2c-0.5,0-0.7-0.3-0.7-0.6c0.1-0.9,0.2-1.7,0.3-2.6c0-0.2,0.2-0.3,0.3-0.5c0,0,0,0,0,0
				c0.5-0.4,1.2-0.5,1.8-0.2c0.5,0.2,1.1,0.4,1.6,0.5c0.3,0.1,0.5,0.4,0.5,0.7c0,0.1,0,0.1-0.1,0.2C37.2,50,35.8,50.9,34.3,51.2z"/>
			<path class="st3" d="M39.3,45.2c0,0.1,0,0.3,0,0.5c-0.1,0.5-0.4,0.7-0.8,0.5c-0.8-0.3-1.5-0.6-2.3-1c-0.5-0.4-0.7-1.1-0.5-1.7
				c0.5-0.7,1-1.4,1.6-2.1c0.2-0.2,0.6-0.2,0.9,0c0,0,0.1,0.1,0.1,0.1C39,42.6,39.4,43.9,39.3,45.2z"/>
			<path class="st3" d="M44.9,46.5c0.1-0.9,0.4-1.8,1-2.5c0.3-0.4,0.6-0.3,0.9,0.1c0.2,0.4,0.5,0.8,0.7,1.2c0.3,0.4,0.1,1-0.3,1.3
				c-0.1,0-0.1,0.1-0.2,0.1c-0.5,0.2-0.9,0.3-1.4,0.4C45.1,47.2,45,47,44.9,46.5z"/>
			<path class="st3" d="M48.4,49.6c0,0.2,0,0.4,0,0.7c0,0.4-0.3,0.5-0.6,0.4c-0.9-0.3-1.6-1-2.1-1.8c-0.2-0.4-0.1-0.6,0.3-0.7
				c0.5-0.1,1-0.2,1.5-0.3c0.5,0,0.9,0.3,1,0.8C48.4,49,48.4,49.3,48.4,49.6z"/>
			<path class="st3" d="M49.2,42.4c0.5,0.1,1.1,0.3,1.6,0.4c0.4,0.1,0.5,0.4,0.2,0.7c-0.3,0.4-0.7,0.8-1,1.2c-0.4,0.3-0.9,0.3-1.2,0
				c-0.3-0.4-0.7-0.9-1-1.3c-0.2-0.3-0.1-0.6,0.3-0.7c0.1,0,0.2-0.1,0.3-0.1C48.6,42.5,48.9,42.5,49.2,42.4L49.2,42.4z"/>
			<path class="st3" d="M53.4,46.8c0,0.1,0,0.3,0,0.4c-0.1,0.3-0.2,0.5-0.5,0.3c-0.5-0.2-1.1-0.4-1.6-0.7c-0.4-0.3-0.5-0.8-0.3-1.2
				c0.3-0.5,0.7-0.9,1-1.4c0.2-0.2,0.5-0.2,0.7,0.1C53.2,45.1,53.4,46,53.4,46.8z"/>
			<path class="st3" d="M49.6,50.5c0.1-0.5,0.1-1.1,0.2-1.6c0.1-0.4,0.5-0.7,1-0.6c0.5,0.1,1.1,0.3,1.6,0.5c0.2,0,0.4,0.3,0.4,0.5
				c0,0.1-0.1,0.2-0.1,0.3c-0.6,0.8-1.4,1.3-2.4,1.5C49.7,51,49.6,50.8,49.6,50.5z"/>
			<path class="st3" d="M33.1,46.4c-0.8,0-1.5-0.6-1.5-1.4c0-0.8,0.6-1.5,1.4-1.5c0,0,0,0,0,0c0.8,0,1.5,0.6,1.5,1.4
				S33.9,46.4,33.1,46.4C33.1,46.4,33.1,46.4,33.1,46.4z M34.2,45c0-0.6-0.5-1.1-1.1-1.1c-0.6,0-1.1,0.5-1.1,1.1c0,0,0,0,0,0.1
				c0,0.6,0.5,1.1,1.1,1.1S34.2,45.6,34.2,45z"/>
			<path class="st3" d="M49.2,47.8c-0.5,0-1-0.5-1-1c0-0.5,0.5-1,1-1c0.5,0,1,0.5,1,1c0,0,0,0,0,0C50.2,47.3,49.7,47.8,49.2,47.8z
				 M48.4,46.8c0,0.5,0.4,0.8,0.8,0.8c0.5,0,0.8-0.4,0.8-0.8c0-0.4-0.4-0.8-0.8-0.8C48.8,45.9,48.4,46.3,48.4,46.8
				C48.4,46.7,48.4,46.8,48.4,46.8z"/>
			<path class="st3" d="M44.8,35.7c0,0.5-0.4,0.9-0.9,0.9c-0.5,0-0.9-0.4-0.9-0.9c0-0.5,0.4-0.9,0.9-0.9c0,0,0,0,0,0
				C44.4,34.9,44.8,35.2,44.8,35.7C44.8,35.7,44.8,35.7,44.8,35.7z M44.7,35.7c0-0.4-0.3-0.7-0.7-0.7c-0.4,0-0.7,0.3-0.7,0.7
				c0,0.4,0.3,0.7,0.7,0.7C44.3,36.4,44.7,36.1,44.7,35.7L44.7,35.7z"/>
			<path class="st3" d="M39.7,39.1L39.7,39.1l0.4,0.9"/>
			<path class="st2" d="M34.2,45c0,0.6-0.5,1.1-1.1,1.1S32,45.6,32,45c0-0.6,0.5-1.1,1.1-1.1C33.7,43.9,34.2,44.4,34.2,45z"/>
			<path class="st2" d="M48.4,46.8c0-0.5,0.3-0.8,0.8-0.8c0.5,0,0.8,0.3,0.8,0.8c0,0,0,0,0,0c0,0.5-0.3,0.8-0.8,0.8
				C48.8,47.6,48.4,47.3,48.4,46.8C48.4,46.8,48.4,46.8,48.4,46.8z"/>
		</g>
		<circle class="st1" cx="49" cy="46.8" r="4.4"/>
		<circle class="st4" cx="49.2" cy="46.8" r="1"/>
		<g>
			<path class="st5" d="M64.6,42C62.1,57,48,67.1,33,64.6c-5.1-0.9-9.9-3.2-13.8-6.6"/>
			<polygon points="14.5,52.6 24.2,57.3 19.6,58.3 18.2,62.8 			"/>
		</g>
		<path class="st5" d="M11.3,45.8"/>
		<g>
			<path class="st5" d="M10,37.5C10,22.3,22.3,10,37.5,10c9.2,0,17.7,4.6,22.8,12.2"/>
			<path d="M63.1,27.5c-2.4-2.2-5.2-4-8.2-5.3l5-0.7l3.4-3.8C62.7,21,62.7,24.3,63.1,27.5z"/>
		</g>
	</g>
	<g>
		<path d="M37.3,30.9c-3.7,0-7.5-0.6-11-1.7c-1.1-0.4-2.1-0.9-3-1.7c-1.1-0.7-1.5-2.2-0.8-3.3c0.2-0.3,0.5-0.6,0.8-0.8
			c1.7-1.3,3.7-2.1,5.8-2.5c6.4-1.5,13-1.2,19.2,0.7c1.3,0.4,2.5,1,3.5,1.9c1.1,0.7,1.4,2.2,0.7,3.3c-0.2,0.3-0.4,0.5-0.7,0.7
			c-1.9,1.4-4.1,2.3-6.4,2.7C42.7,30.7,40,30.9,37.3,30.9z"/>
		<path d="M52.9,44.8c0,1.7,0,3.2,0,4.6c-0.1,1.1-0.7,2.1-1.6,2.6c-1.7,1.1-3.6,1.8-5.6,2.2c-6.4,1.4-13,1.1-19.2-0.9
			c-0.6-0.2-1.2-0.5-1.8-0.8c-1.7-0.6-2.7-2.3-2.5-4.1c0.1-1.1,0.1-2.3,0-3.4c3.3,2.9,7.4,3.5,11.4,3.8c4.7,0.5,9.4,0.2,14-1.1
			C49.6,47.2,51.4,46.2,52.9,44.8z"/>
		<path d="M52.9,36.7c0,1.8,0,3.3,0,4.9c-0.1,1-0.7,1.8-1.6,2.3c-1.8,1.2-3.8,1.9-5.9,2.3c-6.3,1.3-12.7,1-18.9-0.9
			c-0.6-0.2-1.2-0.5-1.7-0.7c-1.8-0.6-3-2.4-2.7-4.4c0.1-1.1,0.1-2.2,0-3.4c2.5,2.1,5.5,3.3,8.7,3.6c5.7,1,11.6,0.7,17.1-0.9
			C49.9,39.1,51.6,38.1,52.9,36.7z"/>
		<path d="M22.1,28.8c1.9,1.8,4.3,2.9,6.9,3.3c6.4,1.4,13.1,1.2,19.4-0.7c1.7-0.4,3.2-1.3,4.4-2.6c0,1.8,0.1,3.5,0,5.1
			c-0.2,1-0.8,1.8-1.7,2.2c-2.1,1.3-4.5,2.1-7,2.4c-5.6,1-11.4,0.7-16.8-0.9c-1.4-0.4-2.7-1-3.9-1.9C22.5,35,22.1,34,22.1,33
			C22.2,31.7,22.1,30.3,22.1,28.8z"/>
	</g>
</g>
</svg>
