<svg xmlns="http://www.w3.org/2000/svg" viewBox="0 0 75 75">
  <g id="shapes">
    <circle cx="37.5" cy="37.5" r="36" fill="#fc6" stroke="#000" stroke-miterlimit="10" stroke-width="3"/>
  </g>
  <g id="CDN">
    <g>
      <path d="M38.773,45.52276c.32977-.63456.632-1.21979.93787-1.80408q3.35451-6.40788,6.7108-12.81531,1.58943-3.0327,3.19355-6.06155a.32265.32265,0,0,0-.07874-.43989c-2.65585-2.6612-8.36477-2.60308-10.89774.12124a.82048.82048,0,0,0-.2211.53049c-.009,3.31849-.00011,6.637.00189,9.9555q.003,5.05354.00077,10.10707v.38256h-1.8226v-.3653q.00009-5.18965-.00041-10.3793-.00354-4.84149-.02507-9.683a.873.873,0,0,0-.24209-.55655c-2.52867-2.71421-8.1902-2.76737-10.86207-.11373a.34351.34351,0,0,0-.0714.471q3.277,6.23471,6.541,12.47277,2.06336,3.94107,4.1183,7.88433c.04314.08265.07651.16783.12665.27887-.59244,0-1.14858.01439-1.701-.01109a.5133.5133,0,0,1-.34135-.23491c-.86794-1.6315-1.72047-3.26709-2.57726-4.90155q-3.51438-6.70419-7.02973-13.40814c-.2577-.4914-.52244-.981-.78026-1.47233-.96046-1.83056-3.40323-3.0314-6.17572-3.03453-2.76075-.00312-5.22522,1.20514-6.18974,3.02391a.3253.3253,0,0,0,.09721.46389q4.83111,4.26644,9.64607,8.542Q27.23178,39.88482,33.33,45.296c.05921.05254.10918.11025.21727.22036-.7672,0-1.46079.01075-2.15259-.00934a.71644.71644,0,0,1-.38594-.19956Q26.437,41.26222,21.8754,37.21127c-3.785-3.35249-7.562-6.70954-11.37542-10.04589a1.91576,1.91576,0,0,1-.77649-1.64611,16.261,16.261,0,0,1,4.00318-9.80482A25.99624,25.99624,0,0,1,24.99515,8.12921,36.49648,36.49648,0,0,1,42.55774,6.30877a31.709,31.709,0,0,1,14.18371,5.2947,20.12712,20.12712,0,0,1,7.38842,8.804,14.37808,14.37808,0,0,1,1.14788,5.76007.73413.73413,0,0,1-.25436.49361q-5.58551,4.96431-11.19305,9.91628-4.91781,4.35335-9.82758,8.71117a.87874.87874,0,0,1-.67971.23051c-.60808-.01711-1.21782-.00508-1.92611-.00508.46816-.41467.88219-.78127,1.296-1.148q5.20864-4.61538,10.41719-9.2308,4.54115-4.0242,9.08245-8.04833c.42744-.37862.84713-.7624,1.29914-1.126a.35025.35025,0,0,0,.12119-.51182c-1.4686-2.758-6.20135-3.86619-9.73634-2.27971a5.30407,5.30407,0,0,0-2.65337,2.306q-3.2729,6.21994-6.521,12.4464-1.90581,3.64443-3.79253,7.29381c-.12339.23968-.28137.33035-.64119.31273C39.80068,45.50544,39.32888,45.52276,38.773,45.52276Z"/>
      <path d="M37.46646,63.0674c-2.56765,0-5.13538.01146-7.70291-.00685a1.33856,1.33856,0,0,1-1.3376-1.444c-.04286-.94462-.03543-1.8922-.03471-2.83848q.00409-5.354.019-10.708c.00328-1.32678.47876-1.84092,1.71953-1.84327q7.45034-.0141,14.90069-.01757,1.57765-.0009,1.57752,1.685.00345,6.744.0007,13.48808c-.00033,1.18513-.51607,1.71265-1.66432,1.71268q-3.73893.00009-7.47788,0Z"/>
    </g>
    <g>
      <rect x="23.49213" y="42.74408" width="28.01575" height="23.81604"/>
      <rect x="23.49213" y="42.74408" width="28.01575" height="2.34472" fill="#fff"/>
      <line x1="49.8325" y1="44.34873" x2="50.69708" y2="43.48415" fill="none" stroke="#000" stroke-miterlimit="10" stroke-width="0.2"/>
      <line x1="49.8325" y1="43.48415" x2="50.69708" y2="44.34873" fill="none" stroke="#000" stroke-miterlimit="10" stroke-width="0.2"/>
      <rect x="47.11592" y="43.4674" width="0.95645" height="0.95645" fill="#fff" stroke="#000" stroke-miterlimit="10" stroke-width="0.2"/>
      <line x1="44.0782" y1="43.98572" x2="45.20344" y2="43.98572" fill="none" stroke="#000" stroke-miterlimit="10" stroke-width="0.2"/>
    </g>
    <g>
      <path d="M33.56374,58.07108a.50944.50944,0,0,1,.28515.44043.48121.48121,0,0,1-.44922.47559.67663.67663,0,0,1-.37158-.14746l-3.54931-2.35742c-.19043-.1211-.31983-.21582-.31983-.46631-.0083-.2417.1294-.34571.31983-.46631l3.5581-2.3667a.65765.65765,0,0,1,.354-.1294.48072.48072,0,0,1,.458.46631.54129.54129,0,0,1-.30273.45752l-3.07422,2.03858Z" fill="#fff"/>
      <path d="M36.43971,59.27128c-.10351.18164-.20752.30273-.42334.30273a.4344.4344,0,0,1-.43164-.40625.90269.90269,0,0,1,.18994-.44922l3.23-5.53564c.10352-.17236.207-.32813.42334-.32813a.42035.42035,0,0,1,.42286.40577.67218.67218,0,0,1-.09473.33691Z" fill="#fff"/>
      <path d="M44.97194,56.01591l-3.07422-2.03858a.54129.54129,0,0,1-.30273-.45752.48107.48107,0,0,1,.458-.46631.65778.65778,0,0,1,.3545.1294l3.55859,2.3667c.18945.1206.32813.22461.31934.46631,0,.25049-.12989.34521-.31934.46631l-3.5498,2.35742a.67967.67967,0,0,1-.37207.14746.48157.48157,0,0,1-.44922-.47559.50944.50944,0,0,1,.28515-.44043Z" fill="#fff"/>
    </g>
  </g>
</svg>
