<svg id="Layer_1" data-name="Layer 1" xmlns="http://www.w3.org/2000/svg" viewBox="0 0 75 75">
  <g id="shapes">
    <circle cx="37.5" cy="37.5" r="36" fill="#fc6" stroke="#000" stroke-miterlimit="10" stroke-width="3"/>
  </g>
  <g id="radar">
    <path d="M56.03,49.09A13.08855,13.08855,0,0,0,59.98,23.6a2.86145,2.86145,0,0,1-1.9-1.98C55.04,14.02,49.5,9.27,41.33,8.28c-8.05-.98-14.62,2.09-19.41,8.69a3.641,3.641,0,0,1-2.68,1.67A15.31623,15.31623,0,0,0,20.8,49.1" fill="none" stroke="#000" stroke-miterlimit="10"/>
    <g>
      <g id="distribute">
        <g>
          <path d="M35.31,15.03c.32-.01.63-.04.94-.02.75.04,1.49.08,2.24.13.15.01.31.04.46.06a.42192.42192,0,0,1,.4.46,3.24563,3.24563,0,0,1,0,.54c-.05.89-.11,1.79-.18,2.68a.87358.87358,0,0,1-.2.45.39753.39753,0,0,1-.49.16.59638.59638,0,0,1-.4-.49,3.88563,3.88563,0,0,1-.01-.48c.03-.46.06-.92.09-1.44-2.02,1.79-4,3.55-6.02,5.34.35-.1.66-.18.96-.26a16.03511,16.03511,0,0,1,10.5.6,15.63626,15.63626,0,0,1,4.68,2.93c.36.33.37.36.02.7-.16.15-.32.28-.47.42a14.84507,14.84507,0,0,0-19.27-1.16c-.26-.29-.52-.58-.78-.88q4.785-4.245,9.57-8.5a.43278.43278,0,0,0-.01-.05c-.13,0-.26,0-.38-.01-.43-.03-.86-.05-1.28-.08a.63547.63547,0,0,1-.5-.24.58751.58751,0,0,1-.06-.68A1.6178,1.6178,0,0,1,35.31,15.03Z"/>
          <path d="M39.76,59.93a6.17184,6.17184,0,0,1-.74.07c-.86-.03-1.72-.1-2.58-.15-.07,0-.13-.02-.18-.02-.47-.07-.59-.19-.58-.67.05-1.02.12-2.05.17-3.07.04-.56.37-.62.67-.58a.449.449,0,0,1,.41.46c.01.35,0,.7-.02,1.04-.01.28-.05.57-.08.85.02,0,.04.01.06.01,1.97-1.75,3.94-3.49,5.94-5.27-.11.03-.17.03-.22.05a18.8285,18.8285,0,0,1-3.3.7,16.123,16.123,0,0,1-11.56-3.19c-.41-.32-.8-.69-1.21-1.03-.07-.06-.11-.13-.03-.22.23-.22.46-.46.69-.69a14.84771,14.84771,0,0,0,19.26,1.13c.25.28.51.57.78.88l-4.8,4.26c-1.59,1.41-3.19,2.83-4.83,4.28.26.02.46.03.68.05.36.02.72.04,1.07.09.53.07.7.33.56.85A.83151.83151,0,0,1,39.76,59.93Z"/>
          <path d="M28.44,27.27a13.68634,13.68634,0,1,1-1.25,19.21A13.79757,13.79757,0,0,1,28.44,27.27Zm-.31,18.59A12.56211,12.56211,0,1,0,29.2,28.1,12.49336,12.49336,0,0,0,28.13,45.86Z"/>
          <path d="M17.15,36.91c1.74,1.96,3.47,3.91,5.21,5.87a16.8601,16.8601,0,0,1-.41-8.69,16.31894,16.31894,0,0,1,4.08-7.71c.25.27.49.49.72.74a.20629.20629,0,0,1-.02.2,14.553,14.553,0,0,0-4.07,9.21,14.31049,14.31049,0,0,0,1.9,8.27c.3.54.67,1.07,1,1.59a.23974.23974,0,0,1,.02.18c-.24.23-.49.45-.77.7-2.85-3.21-5.68-6.39-8.55-9.63-.02.31-.03.57-.06.83-.03.33-.07.68-.09,1.02a.55727.55727,0,0,1-.9.38.54955.54955,0,0,1-.23-.5c.09-1.02.15-2.04.21-3.05,0-.05.02-.11.02-.16.07-.37.18-.48.54-.48.42,0,.86.02,1.29.04.67.04,1.36.1,2.03.16a.46651.46651,0,0,1,.45.36.52343.52343,0,0,1-.51.71c-.48.01-.96-.03-1.44-.04-.14-.01-.27-.03-.4-.05C17.16,36.87,17.16,36.89,17.15,36.91Z"/>
          <path d="M48.96,48.72c-.25-.28-.46-.52-.67-.76-.1-.11-.01-.19.05-.27.49-.62,1.04-1.21,1.47-1.86A14.47851,14.47851,0,0,0,51.98,34.1a15.38728,15.38728,0,0,0-2.17-4.94c-.13-.21-.3-.39-.45-.6.28-.25.57-.51.88-.78q4.245,4.785,8.53,9.61c.01-.09.03-.14.03-.19.04-.49.08-1,.11-1.49.01-.09.02-.18.03-.26a.48918.48918,0,0,1,.54-.42.49453.49453,0,0,1,.52.47,2.28542,2.28542,0,0,1,0,.37c-.06.93-.11,1.86-.18,2.79-.01.09-.02.18-.04.28a.43286.43286,0,0,1-.45.4,2.28542,2.28542,0,0,1-.37,0c-.9-.05-1.81-.1-2.72-.16-.1-.01-.21-.02-.32-.04a.50312.50312,0,0,1-.46-.57.48076.48076,0,0,1,.53-.5c.54,0,1.09.03,1.62.04a2.35511,2.35511,0,0,1,.25.01c-1.77-1.99-3.52-3.96-5.29-5.96C54.42,38.36,53.3,43.85,48.96,48.72Z"/>
        </g>
      </g>
      <path d="M42.33,28.7c-.37.54-.73,1.04-1.11,1.59a8.22551,8.22551,0,0,0-5.94-.48,7.97952,7.97952,0,0,0-5.27,10.06,1.81136,1.81136,0,0,1,.02.98,1.33619,1.33619,0,0,0,1.06,1.76,2.37933,2.37933,0,0,1,1.03.51,7.67816,7.67816,0,0,0,11.75-1.57.90486.90486,0,0,0,.15-.4,7.606,7.606,0,0,1-5.57,3.55,7.12532,7.12532,0,0,1-6.2-2.33c.56-1.62.22-2.23-1.33-2.39a6.84092,6.84092,0,0,1,1.92-7.66,6.75132,6.75132,0,0,1,7.73-.86c-.34.52-.69,1.03-1.03,1.55a4.82911,4.82911,0,0,0-6.41,2.9,4.53354,4.53354,0,0,0,2.23,5.52,4.21947,4.21947,0,0,0,5.47-1.32A4.85194,4.85194,0,0,1,37.7,41.5a3.92593,3.92593,0,0,1-3.13-1.45,3.83137,3.83137,0,0,1-.1-4.74,3.56935,3.56935,0,0,1,4.35-1.1c-.53.67-.65,1.61-1.78,1.76a1.53958,1.53958,0,0,0-1.08,1.98,1.63561,1.63561,0,0,0,1.91,1.12,1.52633,1.52633,0,0,0,1.2-1.9,1.482,1.482,0,0,1,.27-1.34q2.88-4.47,5.72-8.96a1.1962,1.1962,0,0,1,.11-.12c4.14,2.34,7.6,9.5,4.42,16.33a13.3106,13.3106,0,1,1-5.65-17.19c-.31.51-.63,1.03-.88,1.44-1.46-.36-2.93-.74-4.42-1.07-.47-.1-.97-.01-1.45-.07a1.75821,1.75821,0,0,1-.84-.32,1.64829,1.64829,0,0,0-2.69.59,1.56621,1.56621,0,0,1-.73.73,11.26857,11.26857,0,0,0-6.29,12.49,10.95832,10.95832,0,0,0,10.7,8.72,10.70356,10.70356,0,0,0,8.67-4.19,1.69643,1.69643,0,0,1,.88-.48,1.00193,1.00193,0,0,0,.86-1.16.90213.90213,0,0,0-1.21-.75,1.02823,1.02823,0,0,0-.64,1.3,1.2494,1.2494,0,0,1-.06.9,10.451,10.451,0,0,1-18.59-5.27,10.28107,10.28107,0,0,1,5.03-10c.28-.16.58-.28.86-.45a.90918.90918,0,0,1,1.16.05,1.461,1.461,0,0,0,2.23-.48.92163.92163,0,0,1,.96-.52A10.19716,10.19716,0,0,1,42.33,28.7Z" fill="#fff" opacity="0.75" style="isolation: isolate"/>
      <path d="M40.66,51.77a14.60974,14.60974,0,1,1,11.1-17.41A14.63871,14.63871,0,0,1,40.66,51.77ZM42.35,28.7a9.98177,9.98177,0,0,0-4.84-1.33.88855.88855,0,0,0-.96.52,1.46851,1.46851,0,0,1-2.23.48.89667.89667,0,0,0-1.16-.05c-.28.16-.58.28-.86.45a10.28107,10.28107,0,0,0-5.03,10,10.451,10.451,0,0,0,18.59,5.27,1.24507,1.24507,0,0,0,.06-.9,1.03218,1.03218,0,0,1,.64-1.3.9105.9105,0,0,1,1.21.75.99709.99709,0,0,1-.86,1.16,1.62248,1.62248,0,0,0-.88.48,10.67542,10.67542,0,0,1-8.67,4.19,10.95832,10.95832,0,0,1-10.7-8.72,11.25641,11.25641,0,0,1,6.29-12.49,1.66178,1.66178,0,0,0,.73-.73,1.65735,1.65735,0,0,1,2.69-.59,1.6622,1.6622,0,0,0,.84.32c.48.06.99-.03,1.45.07,1.49.33,2.96.71,4.42,1.07.25-.41.57-.92.88-1.44A13.28037,13.28037,0,1,0,49.61,43.1c3.18-6.83-.28-13.99-4.42-16.33a.6279.6279,0,0,0-.11.12q-2.865,4.485-5.72,8.96a1.482,1.482,0,0,0-.27,1.34,1.528,1.528,0,0,1-1.2,1.9,1.64474,1.64474,0,0,1-1.91-1.12,1.53958,1.53958,0,0,1,1.08-1.98c1.14-.15,1.25-1.1,1.78-1.76a3.56936,3.56936,0,0,0-4.35,1.1,3.83139,3.83139,0,0,0,.1,4.74,3.912,3.912,0,0,0,3.13,1.45,4.85194,4.85194,0,0,0,3.13-1.39,4.21945,4.21945,0,0,1-5.47,1.32,4.53354,4.53354,0,0,1-2.23-5.52,4.834,4.834,0,0,1,6.41-2.91c.34-.51.68-1.03,1.03-1.54a6.75132,6.75132,0,0,0-7.73.86A6.84092,6.84092,0,0,0,30.94,40c1.55.16,1.89.76,1.33,2.39a7.12532,7.12532,0,0,0,6.2,2.33,7.57736,7.57736,0,0,0,5.57-3.55.90486.90486,0,0,1-.15.4,7.67816,7.67816,0,0,1-11.75,1.57,2.27507,2.27507,0,0,0-1.03-.51,1.33617,1.33617,0,0,1-1.06-1.76,1.81336,1.81336,0,0,0-.02-.98A7.95573,7.95573,0,0,1,35.3,29.83a8.17458,8.17458,0,0,1,5.94.48C41.62,29.74,41.97,29.23,42.35,28.7Z"/>
    </g>
  </g>
</svg>
