<svg xmlns="http://www.w3.org/2000/svg" viewBox="0 0 75 75">
  <g id="shapes">
    <circle cx="37.5" cy="37.5" r="36" fill="#fc6" stroke="#000" stroke-miterlimit="10" stroke-width="3"/>
  </g>
  <g id="Layer_60" data-name="Layer 60">
    <g>
      <path d="M49.65467,37.521q0,9.78489-.00043,19.56978a7.60322,7.60322,0,0,1-.01325.79992,2.22187,2.22187,0,0,1-2.30025,2.10825c-2.01529-.06134-4.03378-.0177-6.05094-.01769q-6.67443,0-13.34887-.00043c-1.77814-.00055-2.58056-.81106-2.59442-2.61313-.00114-.14825-.00025-.29651-.00025-.44477q0-19.43635.00006-38.8727c0-.26686-.01351-.53465.00372-.80042A2.2626,2.2626,0,0,1,27.708,15.00068q9.789.036,19.57826-.00066a2.26416,2.26416,0,0,1,2.36478,2.2398c.01493.23629.0036.47427.00361.71148Q49.65475,27.73615,49.65467,37.521Z" transform="translate(0 0)"/>
      <path d="M39.03392,56.27646a1.528,1.528,0,1,1-3.05543.01156,1.53105,1.53105,0,1,1,3.05543-.01156Z" transform="translate(0 0)" fill="#fbfbfb"/>
      <path d="M27.606,20.96348c.25112-.23108.56183-.14291.848-.14313q9.053-.00725,18.106-.00005c.286.00022.59749-.08872.84537.14943a.54086.54086,0,0,1-.36009.35942,3.4697,3.4697,0,0,1-.9701.07308q-8.56963.00409-17.13926,0a3.44465,3.44465,0,0,1-.971-.07418A.54684.54684,0,0,1,27.606,20.96348Z" transform="translate(0 0)" fill="#c9cacc"/>
      <path d="M47.75337,21.32384c.2507.238.17866.54989.17876.83751Q47.937,36.86042,47.93,51.55951c-.00014.25062.10084.53907-.15737.7417a.17235.17235,0,0,1-.26384-.0952,1.24132,1.24132,0,0,1-.01905-.33837c.02326-9.61273.0021-19.22495.0116-28.83715A6.63647,6.63647,0,0,1,47.5612,21.615.63341.63341,0,0,1,47.75337,21.32384Z" transform="translate(0 0)" fill="#d4d5d6"/>
      <path d="M27.2344,52.309c-.23522-.21351-.14648-.498-.14661-.75181q-.00756-14.7136-.00246-29.42722c0-.14684.02544-.29367.039-.44051a.23712.23712,0,0,1,.28456.13841,3.63115,3.63115,0,0,1,.11469,1.40434q.00678,13.62254.00352,27.24507c0,.47326-.00714.94666.01834,1.41934a.66638.66638,0,0,1-.02515.33709A.19672.19672,0,0,1,27.2344,52.309Z" transform="translate(0 0)" fill="#e2e3e4"/>
      <path d="M37.44639,19.07061c-.74164.00044-1.48351.011-2.2248-.0051-.27176-.00591-.67561.09305-.68057-.34816-.00462-.411.36481-.397.66277-.3978,1.30528-.00348,2.61059-.00171,3.91588-.00171.267,0,.53406-.00349.801.002.28532.00587.56481.06289.55189.422-.01189.33023-.30505.32137-.53425.32423C39.10775,19.07645,38.277,19.07017,37.44639,19.07061Z" transform="translate(0 0)" fill="#f7f7f8"/>
      <path d="M47.42423,52.68433c-.20178.26168-.49061.15295-.7397.15323q-9.17389.01044-18.34778.00159c-.25292-.00022-.53675.09408-.75089-.14093a.46581.46581,0,0,1,.2366-.2066,1.56338,1.56338,0,0,1,.48488-.08q9.19593-.02233,18.39052-.00237a1.59519,1.59519,0,0,1,.48354.07263A.50024.50024,0,0,1,47.42423,52.68433Z" transform="translate(0 0)" fill="#fcfcfc"/>
      <path d="M37.942,16.8869a.441.441,0,0,1-.42191.48458.41043.41043,0,0,1-.44682-.44454.39184.39184,0,0,1,.36956-.42351A.42448.42448,0,0,1,37.942,16.8869Z" transform="translate(0 0)" fill="#dedfe1"/>
      <path d="M27.25261,21.68966l-.06413.00061-.06414-.00086a.68959.68959,0,0,1,.48161-.72593l.20165.16893a.3909.3909,0,0,1-.10734.2515,1.62383,1.62383,0,0,1-.19459.20132A.36553.36553,0,0,1,27.25261,21.68966Z" transform="translate(0 0)" fill="#d7d8da"/>
      <path d="M47.75337,21.32384a.10075.10075,0,0,0,.00021.09244.3016.3016,0,0,1-.13835.148.4916.4916,0,0,1-.272-.1491.40006.40006,0,0,1-.12306-.28231l.18516-.16314A.417.417,0,0,1,47.75337,21.32384Z" transform="translate(0 0)" fill="#e1e2e3"/>
      <path d="M47.59034,52.30143l.18227-.00022a.3785.3785,0,0,1-.34838.38312l-.01943-.02406a.15069.15069,0,0,1-.07607-.18026A.31093.31093,0,0,1,47.59034,52.30143Z" transform="translate(0 0)" fill="#fcfcfc"/>
      <path d="M27.2344,52.309a.448.448,0,0,0,.165-.00664.15984.15984,0,0,1,.13973.13165.21463.21463,0,0,1-.08457.182C27.28951,52.5793,27.24479,52.45642,27.2344,52.309Z" transform="translate(0 0)" fill="#f2f3f3"/>
      <path d="M27.45456,52.61594a1.14292,1.14292,0,0,0-.00748-.11812c.18306-.07854.22664-.00738.17653.16433l-.03772.036A.09892.09892,0,0,1,27.45456,52.61594Z" transform="translate(0 0)" fill="#f3f4f4"/>
      <path d="M47.22018,21.13287c.09117.03852.17378.08532.1899.19636a.69426.69426,0,0,1-.28723.194,3.56014,3.56014,0,0,1-1.05929.08865q-8.49792.00435-16.99585.00017a4.86578,4.86578,0,0,1-1.06348-.07208.832.832,0,0,1-.31163-.14967c-.09936-.14731.0031-.20468.115-.25784,2.7183.007,5.43661.02025,8.15491.0196Q41.59135,21.15066,47.22018,21.13287Z" transform="translate(0 0)" fill="#4a4a4c"/>
      <path d="M47.58941,21.48985q.08214-.03638.16422-.07317-.00176,14.84241-.01033,29.68562c-.00033.33671.14.71227-.15541,1.01031-.04126-.04227-.08253-.08455-.1243-.12649a2.10253,2.10253,0,0,1-.13986-1.04538q-.00537-14.13925-.001-28.27852a3.3,3.3,0,0,1,.06485-.8844A.63964.63964,0,0,1,47.58941,21.48985Z" transform="translate(0 0)" fill="#95979a"/>
      <path d="M47.59034,52.30143l-.21383.16219c-.14855.09949-.183-.00758-.21558-.11891a.393.393,0,0,1,.19125-.267.13586.13586,0,0,1,.18139.06718l.05432-.03228Z" transform="translate(0 0)" fill="#49494b"/>
      <path d="M27.25261,21.68966l.20567-.17984a.22342.22342,0,0,1,.29394.10854,2.79956,2.79956,0,0,1,.16448,1.31015q.00615,13.87713-.00042,27.75427a2.52525,2.52525,0,0,1-.20219,1.38865.24785.24785,0,0,1-.31534.0636c-.22864-.32172-.11695-.68834-.1172-1.03207q-.01033-14.174-.0065-28.348C27.275,22.39987,27.26042,22.04476,27.25261,21.68966Z" transform="translate(0 0)" fill="#7d7f81"/>
      <path d="M27.39875,52.135l.2168-.01488a2.79137,2.79137,0,0,1,.96415-.11314c5.74175.0052,11.4835-.00239,17.22523.00884.48773.001,1.02017-.115,1.42093.31469l.15065.13308.02828.19664-.37553-.03536a1.33645,1.33645,0,0,0-.61058-.06335q-8.90634-.00217-17.81267,0a1.33481,1.33481,0,0,0-.61054.06355l-.37185.03705c.04115-.162-.06021-.17124-.17652-.1644l-.0477-.19543Z" transform="translate(0 0)" fill="#747578"/>
      <path d="M27.99547,52.62509c.25608-.22218.56615-.13182.85289-.13207q8.664-.00771,17.32807,0c.28666.00026.59678-.0906.85283.13185-.91864.0089-1.83727.02505-2.75592.0255q-7.65051.00377-15.301.00006C28.6467,52.65036,28.32108,52.63393,27.99547,52.62509Z" transform="translate(0 0)" fill="#67686b"/>
      <path d="M27.633,21.50986l-.08737.0049-.08738-.00494c.02734-.13767.09155-.20412.23383-.12012l-.01465-.01481A.08409.08409,0,0,1,27.633,21.50986Z" transform="translate(0 0)" fill="#4b4b4d"/>
      <path d="M47.58941,21.48985l-.03365.18917a.16179.16179,0,0,1-.19845.0517c-.128-.09958-.228-.21049-.15658-.39005l.20934-.01144C47.52585,21.3203,47.56841,21.39306,47.58941,21.48985Z" transform="translate(0 0)" fill="#6f7073"/>
      <path d="M47.20073,21.34067l.21278.34409a1.83218,1.83218,0,0,1,.06457.78893q.00408,14.43183-.00007,28.86366a1.76984,1.76984,0,0,1-.06674.7882l-.18541.205c-.17694.01084-.35387.03109-.53081.03115q-9.0913.00282-18.18259-.001c-.31453-.0002-.66079.07182-.89691-.24056Q27.61215,37.1251,27.60977,22.13c0-.20673.01517-.41346.02326-.62018a.1103.1103,0,0,0,.04443-.135c.20632-.01444.41264-.04151.619-.04148Q37.74858,21.33458,47.20073,21.34067Z" transform="translate(0 0)" fill="#fff"/>
      <path d="M47.41127,52.12555c-.00571-1.00553-.01622-2.01107-.01637-3.0166q-.002-13.22439.00006-26.44877c0-.32514.01208-.65028.01855-.97542a.55438.55438,0,0,0,.14235-.00569c.00538,1.62834.01525,3.25673.01558,4.88512q.00243,12.21405-.0009,24.42809c-.0001.38415-.024.76829-.03687,1.15252A.35533.35533,0,0,0,47.41127,52.12555Z" transform="translate(0 0)" fill="#7d7f81"/>
    </g>
    <g>
      <line x1="30.26132" y1="26.64389" x2="44.62352" y2="26.64389" fill="none" stroke="#262223" stroke-miterlimit="10" stroke-width="0.5"/>
      <line x1="30.87549" y1="30.70689" x2="45.23769" y2="30.70689" fill="none" stroke="#262223" stroke-miterlimit="10" stroke-width="0.5"/>
      <line x1="29.76231" y1="38.83287" x2="44.12451" y2="38.83287" fill="none" stroke="#262223" stroke-miterlimit="10" stroke-width="0.5"/>
      <line x1="30.30254" y1="42.89586" x2="44.66474" y2="42.89586" fill="none" stroke="#262223" stroke-miterlimit="10" stroke-width="0.5"/>
      <line x1="30.30254" y1="46.95886" x2="44.66474" y2="46.95886" fill="none" stroke="#262223" stroke-miterlimit="10" stroke-width="0.5"/>
      <line x1="30.30254" y1="34.76988" x2="44.66474" y2="34.76988" fill="none" stroke="#262223" stroke-miterlimit="10" stroke-width="0.5"/>
    </g>
  </g>
</svg>
