<svg id="Layer_1" data-name="Layer 1" xmlns="http://www.w3.org/2000/svg" viewBox="0 0 75 75">
  <g id="shapes">
    <circle cx="37.5" cy="37.5" r="36" fill="#fc6" stroke="#000" stroke-miterlimit="10" stroke-width="3"/>
  </g>
  <g id="sdk">
    <g>
      <path d="M37.57,29.71c.1.07.2.15.31.22,2.63,1.53,5.25,3.07,7.89,4.59a.54388.54388,0,0,1,.32.54c-.01,3.09,0,6.18.01,9.28a.51806.51806,0,0,1-.3.52q-4.005,2.325-8,4.67a.495.495,0,0,1-.59,0q-3.975-2.325-7.95-4.62a.49806.49806,0,0,1-.29-.49c0-3.13-.01-6.25-.03-9.38a.51805.51805,0,0,1,.3-.52c2.63-1.52,5.26-3.06,7.89-4.59a2.95469,2.95469,0,0,0,.31-.22Zm-.91,17.45c0-2.3,0-4.53-.01-6.76a.47545.47545,0,0,0-.23-.33c-1.82-1.08-3.64-2.14-5.47-3.21-.07-.04-.16-.07-.25-.11-.01.08-.02.13-.02.17.01,2.19.01,4.37.03,6.56a.561.561,0,0,0,.25.39c1.79,1.06,3.59,2.1,5.39,3.14A3.0914,3.0914,0,0,0,36.66,47.16ZM31.57,35.19c.05.04.09.07.12.1,1.87,1.1,3.75,2.19,5.62,3.29a.40446.40446,0,0,0,.47-.03c1.8-1.06,3.61-2.11,5.41-3.16.09-.05.17-.11.26-.17a.47874.47874,0,0,0-.11-.08q-2.82-1.65-5.66-3.29a.47.47,0,0,0-.4.02c-1.83,1.05-3.66,2.12-5.48,3.18A1.18162,1.18162,0,0,0,31.57,35.19Zm12.76,1.56c-.07.03-.11.04-.15.06-1.87,1.09-3.73,2.17-5.59,3.28a.50826.50826,0,0,0-.19.39c-.02,2.12-.02,4.23-.03,6.35,0,.1.02.19.03.31.09-.04.13-.06.17-.08,1.86-1.08,3.71-2.17,5.57-3.24a.44337.44337,0,0,0,.22-.46q-.015-3.135-.01-6.28A3.077,3.077,0,0,1,44.33,36.75Z"/>
      <path d="M55,55.46c0,1.53-.01,3.07.01,4.6a.51854.51854,0,0,1-.29.52q-4.02,2.34-8.03,4.69a.48049.48049,0,0,1-.56,0q-3.99-2.325-7.98-4.64a.4843.4843,0,0,1-.28-.49q0-4.71-.01-9.42a.44526.44526,0,0,1,.24-.44c2.69-1.56,5.39-3.12,8.07-4.69a.41994.41994,0,0,1,.5.01c2.68,1.57,5.35,3.13,8.04,4.68a.498.498,0,0,1,.28.5c-.01,1.56,0,3.12,0,4.67C54.98,55.46,54.99,55.46,55,55.46ZM53.26,52.5c-.11.05-.17.06-.22.09-1.85,1.08-3.71,2.17-5.56,3.24a.40913.40913,0,0,0-.2.43c0,2.1,0,4.21-.01,6.31,0,.1.01.19.02.32a1.78574,1.78574,0,0,0,.19-.09c1.85-1.08,3.71-2.17,5.57-3.24a.4026.4026,0,0,0,.22-.42c-.01-1.51-.01-3.02-.01-4.53C53.25,53.93,53.26,53.24,53.26,52.5Zm-.9-1.53c-.05-.04-.09-.07-.13-.1-1.87-1.09-3.75-2.19-5.63-3.27a.53651.53651,0,0,0-.43.01c-1.82,1.05-3.63,2.11-5.45,3.16-.08.05-.16.11-.25.17.06.05.09.07.11.09,1.87,1.1,3.75,2.19,5.62,3.3a.38905.38905,0,0,0,.47-.03c1.79-1.05,3.59-2.1,5.38-3.15C52.15,51.1,52.25,51.03,52.36,50.97ZM39.61,52.49a.62924.62924,0,0,0-.03.12c0,2.22,0,4.44.02,6.66a.50476.50476,0,0,0,.24.35c1.79,1.05,3.59,2.09,5.39,3.14.08.05.17.08.27.13.01-.08.02-.11.02-.14.01-2.18.02-4.37,0-6.55a.561.561,0,0,0-.25-.39q-2.685-1.59-5.38-3.16A2.12583,2.12583,0,0,0,39.61,52.49Z"/>
      <path d="M20,55.43c0-1.56,0-3.12-.01-4.67a.46411.46411,0,0,1,.26-.47q4.05-2.34,8.07-4.69a.40567.40567,0,0,1,.47,0q4.05,2.37,8.1,4.72a.438.438,0,0,1,.25.44q0,4.695.01,9.38a.42989.42989,0,0,1-.26.43q-4.05,2.355-8.09,4.73a.41993.41993,0,0,1-.5-.01q-4.005-2.34-8.02-4.65a.46367.46367,0,0,1-.27-.47c.01-1.58,0-3.16,0-4.74Zm1.75-2.95c0,2.31,0,4.56.01,6.82a.47313.47313,0,0,0,.24.32q2.7,1.59,5.42,3.16a1.44668,1.44668,0,0,0,.25.1c.01-.08.02-.13.02-.17.01-2.17.01-4.35.03-6.52,0-.22-.12-.3-.27-.39q-2.7-1.575-5.38-3.15C21.98,52.6,21.89,52.55,21.75,52.48Zm.88-1.54c.06.05.11.08.15.11,1.86,1.09,3.73,2.18,5.59,3.28a.40446.40446,0,0,0,.47-.03c1.8-1.06,3.61-2.11,5.41-3.16.09-.05.17-.11.26-.17a.3139.3139,0,0,0-.1-.08q-2.82-1.65-5.66-3.29a.53771.53771,0,0,0-.43.02c-1.83,1.05-3.66,2.12-5.48,3.18C22.78,50.84,22.71,50.89,22.63,50.94Zm6.8,11.96c.11-.05.18-.08.24-.11,1.84-1.08,3.69-2.16,5.53-3.22a.41793.41793,0,0,0,.22-.42c-.01-2.11-.01-4.23-.01-6.34,0-.09-.01-.18-.02-.3-.08.04-.13.06-.18.08-1.85,1.08-3.71,2.16-5.56,3.25a.58133.58133,0,0,0-.2.42c-.02,1.46-.02,2.93-.03,4.39C29.43,61.38,29.43,62.11,29.43,62.9Z"/>
      <path d="M36.66,47.16c-.15-.07-.23-.11-.31-.15-1.8-1.04-3.6-2.08-5.39-3.14a.561.561,0,0,1-.25-.39c-.02-2.19-.02-4.37-.03-6.56,0-.04.01-.09.02-.17a1.17017,1.17017,0,0,1,.25.11c1.83,1.07,3.65,2.13,5.47,3.21a.47545.47545,0,0,1,.23.33C36.66,42.63,36.66,44.86,36.66,47.16Z" fill="#fff"/>
      <path d="M31.57,35.19c.09-.06.16-.11.24-.16,1.83-1.06,3.65-2.13,5.48-3.18a.46853.46853,0,0,1,.4-.02c1.89,1.09,3.77,2.19,5.66,3.29.03.02.05.04.11.08-.09.06-.17.12-.26.17-1.8,1.05-3.61,2.11-5.41,3.16a.40446.40446,0,0,1-.47.03q-2.805-1.65-5.62-3.29A.307.307,0,0,1,31.57,35.19Z" fill="#fff"/>
      <path d="M44.33,36.75c.01.13.02.23.02.33,0,2.09.01,4.18.01,6.28a.44337.44337,0,0,1-.22.46c-1.86,1.07-3.71,2.16-5.57,3.24-.04.02-.08.04-.17.08-.01-.12-.03-.21-.03-.31.01-2.12.01-4.23.03-6.35a.50826.50826,0,0,1,.19-.39q2.79-1.65,5.59-3.28A1.5036,1.5036,0,0,1,44.33,36.75Z" fill="#fff"/>
      <path d="M53.26,52.5v2.11c0,1.51,0,3.02.01,4.53a.41793.41793,0,0,1-.22.42c-1.86,1.08-3.71,2.16-5.57,3.24a1.78574,1.78574,0,0,1-.19.09c-.01-.13-.02-.22-.02-.32,0-2.1.01-4.21.01-6.31,0-.18,0-.32.2-.43,1.86-1.07,3.71-2.16,5.56-3.24A2.235,2.235,0,0,1,53.26,52.5Z" fill="#fff"/>
      <path d="M52.36,50.97c-.11.07-.21.13-.31.19-1.79,1.05-3.59,2.09-5.38,3.15a.40569.40569,0,0,1-.47.03q-2.805-1.65-5.62-3.3a.619.619,0,0,1-.11-.09c.09-.06.17-.12.25-.17,1.81-1.06,3.63-2.12,5.45-3.16a.53651.53651,0,0,1,.43-.01c1.88,1.08,3.75,2.18,5.63,3.27A.43654.43654,0,0,1,52.36,50.97Z" fill="#fff"/>
      <path d="M39.61,52.49c.12.06.21.11.29.16,1.79,1.05,3.59,2.09,5.38,3.16a.561.561,0,0,1,.25.39c.01,2.18,0,4.37,0,6.55,0,.03-.01.07-.02.14-.1-.05-.19-.08-.27-.13-1.8-1.04-3.6-2.08-5.39-3.14a.52617.52617,0,0,1-.24-.35c-.02-2.22-.01-4.44-.02-6.66C39.59,52.59,39.6,52.56,39.61,52.49Z" fill="#fff"/>
      <path d="M21.75,52.48c.13.07.23.12.31.17,1.79,1.05,3.59,2.1,5.38,3.15.16.09.27.17.27.39-.02,2.17-.02,4.35-.03,6.52a1.49308,1.49308,0,0,1-.02.17c-.09-.04-.18-.06-.25-.1q-2.715-1.575-5.42-3.16a.47313.47313,0,0,1-.24-.32Z" fill="#fff"/>
      <path d="M22.63,50.94c.09-.06.15-.11.22-.15,1.83-1.06,3.65-2.13,5.48-3.18a.49991.49991,0,0,1,.43-.02c1.89,1.09,3.77,2.19,5.66,3.29a1.14857,1.14857,0,0,0,.1.08c-.09.06-.17.12-.26.17-1.8,1.05-3.61,2.11-5.41,3.16a.40569.40569,0,0,1-.47.03c-1.86-1.1-3.72-2.18-5.59-3.28A.35381.35381,0,0,1,22.63,50.94Z" fill="#fff"/>
      <path d="M29.43,62.9V60.65c0-1.46.01-2.93.03-4.39a.58133.58133,0,0,1,.2-.42c1.85-1.1,3.7-2.17,5.56-3.25a1.053,1.053,0,0,1,.18-.08c.01.12.02.21.02.3,0,2.11,0,4.23.01,6.34a.396.396,0,0,1-.22.42c-1.85,1.07-3.69,2.15-5.53,3.22C29.61,62.82,29.55,62.84,29.43,62.9Z" fill="#fff"/>
    </g>
    <path d="M53.06,41.02a10.98108,10.98108,0,0,0,3.31-21.39,2.38851,2.38851,0,0,1-1.59-1.66C52.23,11.58,47.57,7.59,40.72,6.76c-6.76-.82-12.27,1.75-16.29,7.29a3.04946,3.04946,0,0,1-2.25,1.4A12.73389,12.73389,0,0,0,11.2,29.04,12.87385,12.87385,0,0,0,23.49,41.02" fill="none" stroke="#000" stroke-miterlimit="10"/>
  </g>
</svg>
