<svg id="Layer_1" data-name="Layer 1" xmlns="http://www.w3.org/2000/svg" viewBox="0 0 75 75">
  <g id="shapes">
    <circle cx="37.5" cy="37.5" r="36" fill="#fc6" stroke="#000" stroke-miterlimit="10" stroke-width="3"/>
  </g>
  <g id="state_machine" data-name="state machine">
    <g>
      <g>
        <path d="M11.474,51.503a9.59276,9.59276,0,0,1-.01067-1.89832c.00314-.03552-.04865-.09484-.08838-.1122-.33376-.14588-.67165-.28228-1.0064-.426a.79754.79754,0,0,1-.5229-.88772,1.18919,1.18919,0,0,1,.08341-.259q.599-1.43475,1.2019-2.86789a.79247.79247,0,0,1,1.02963-.44259l.02854.012c.38429.15874.76713.321,1.13467.475.27373-.28681.53159-.56742.80154-.8359a6.68056,6.68056,0,0,1,.50933-.44368.13886.13886,0,0,0,.05371-.18889l-.00354-.006c-.14374-.3299-.27931-.66337-.41631-.99617a.81628.81628,0,0,1,.48125-1.13236q1.40939-.57462,2.81727-1.15285a.81615.81615,0,0,1,1.1594.48651c.13514.32889.27191.65715.40258.98781a.11547.11547,0,0,0,.13794.08741l.00562-.00141a7.92106,7.92106,0,0,1,1.72525.002.13869.13869,0,0,0,.16992-.098l.00156-.00642c.13559-.33809.27836-.67331.42058-1.00871a.79168.79168,0,0,1,1.01311-.47658q.03429.01236.06733.02782,1.45374.60422,2.904,1.21672a.79108.79108,0,0,1,.47822,1.0114q-.01263.03525-.02854.06921c-.13742.342-.282.6812-.42768,1.01982a.126.126,0,0,0,.037.17429l.00281.00178a7.94851,7.94851,0,0,1,1.22723,1.24907.10779.10779,0,0,0,.14625.04295l.00565-.00331c.33541-.14188.67312-.27839,1.01043-.41578a.80584.80584,0,0,1,1.131.478q.58617,1.43289,1.17035,2.86661a.80428.80428,0,0,1-.40106,1.06437l-.03641.01541c-.34273.147-.68868.28668-1.03564.42344a.13213.13213,0,0,0-.10254.15621l.00129.00561a7.9399,7.9399,0,0,1-.01731,1.725.12315.12315,0,0,0,.08519.15189l.00655.00165q.53655.21749,1.06847.44632a.79358.79358,0,0,1,.43039,1.02872q-.61836,1.49013-1.24779,2.97564a.7775.7775,0,0,1-.84185.47308,1.23974,1.23974,0,0,1-.28522-.08516c-.32536-.13239-.64871-.26975-.97234-.40636-.05834-.02462-.10543-.044-.15877.02067a8.92154,8.92154,0,0,1-1.34737,1.31226c.09927.23113.20064.46536.30045.70026.05594.13169.11.2642.16369.39681a.80381.80381,0,0,1-.47419,1.133c-.62511.25825-1.2523.51144-1.87832.76748-.317.12966-.63307.26176-.95028.391a.80788.80788,0,0,1-1.129-.46257c-.14077-.33121-.28046-.663-.41227-.99782-.03581-.09095-.07925-.10987-.173-.10021a8.19725,8.19725,0,0,1-1.71249-.00584.12582.12582,0,0,0-.15541.08664l-.00094.00352c-.13387.32945-.27259.65693-.41107.98447a.81137.81137,0,0,1-1.14669.46882q-1.41011-.59055-2.81993-1.18179a.805.805,0,0,1-.46589-1.13554c.13872-.33216.276-.665.41894-.99531a.12325.12325,0,0,0-.03694-.17034l-.00533-.00325a8.20091,8.20091,0,0,1-1.21313-1.22665.12976.12976,0,0,0-.1769-.04882l-.00729.00446c-.33108.14113-.66491.27589-.99863.41079a.8118.8118,0,0,1-1.126-.47438q-.58275-1.41321-1.161-2.82829a.8097.8097,0,0,1,.48763-1.14813C10.74977,51.78264,11.114,51.64394,11.474,51.503Zm12.70616,6.8721c-.1127-.27364-.22379-.54194-.33375-.81071a.81338.81338,0,0,1,.31632-1.10595l.01341-.00728a7.17267,7.17267,0,0,0,1.82691-1.79293.8118.8118,0,0,1,1.10337-.31723l.00527.00294c.26312.11023.52622.22052.79725.3341l.61744-1.47339-.13323-.05582q-.342-.14335-.684-.28678a.82331.82331,0,0,1-.543-1.01851,6.92478,6.92478,0,0,0,.02822-2.5207.844.844,0,0,1,.5577-1.0553l.04482-.01248c.253-.09748.504-.20028.73585-.29265l-.59917-1.49588c-.26709.11233-.53389.22633-.80208.337a.82209.82209,0,0,1-1.09533-.33088,6.90623,6.90623,0,0,0-1.78545-1.81516.82805.82805,0,0,1-.34424-1.11931l.0088-.01619c.10844-.259.217-.51787.32649-.77913l-1.46159-.6125a.19833.19833,0,0,0-.02314.03c-.11317.26765-.22419.53622-.33925.803a.80915.80915,0,0,1-.95522.51144,7.20609,7.20609,0,0,0-2.64962.00589.93778.93778,0,0,1-.28349.01271.78715.78715,0,0,1-.65758-.52254c-.1171-.28841-.22934-.5788-.33892-.85619l-1.47607.60476c.10171.25727.20193.525.31283.78825a.82291.82291,0,0,1-.31175,1.11272A7.16459,7.16459,0,0,0,14.18425,46.475a.8.8,0,0,1-1.01007.29508c-.24546-.09868-.48821-.20407-.73252-.30563-.046-.01913-.09365-.03437-.13867-.05073l-.61055,1.45693a.18434.18434,0,0,0,.02824.02151c.27568.11643.55193.23153.82723.34887a.7969.7969,0,0,1,.49737.903,7.32516,7.32516,0,0,0,.007,2.72674.76992.76992,0,0,1-.26961.75929,1.10382,1.10382,0,0,1-.29275.16427c-.27377.11537-.55125.222-.80012.32122l.60882,1.49345c.2591-.10754.53086-.2216.8036-.33326a.80544.80544,0,0,1,1.08516.32A7.29708,7.29708,0,0,0,16.0497,56.4813a.789.789,0,0,1,.28808.98808c-.10072.24934-.20675.49652-.31042.74466l-.05481.1308,1.47332.61741c.12049-.2875.23718-.56736.355-.84675a.8045.8045,0,0,1,.94373-.50647,6.39033,6.39033,0,0,0,1.77215.10261c.31046-.02712.61963-.07124.92849-.11417a.78966.78966,0,0,1,.88551.50239c.12065.29526.23415.59343.34813.88344Z"/>
        <path d="M24.18019,58.37509l-1.50132.60821c-.114-.29-.22748-.58818-.34813-.88344a.78966.78966,0,0,0-.88551-.50239c-.30886.04293-.618.087-.92849.11417a6.39033,6.39033,0,0,1-1.77215-.10261.8045.8045,0,0,0-.94373.50647c-.11781.27939-.2345.55925-.355.84675l-1.47332-.61741.05481-.1308c.10367-.24814.2097-.49532.31042-.74466a.789.789,0,0,0-.28808-.98808,7.29725,7.29725,0,0,1-1.86225-1.88547.80544.80544,0,0,0-1.08516-.32c-.27274.11166-.5445.22572-.8036.33326l-.60882-1.49345c.24887-.09926.52635-.20585.80012-.32122a1.10382,1.10382,0,0,0,.29275-.16427.76992.76992,0,0,0,.26961-.75929,7.32516,7.32516,0,0,1-.007-2.72674.7969.7969,0,0,0-.49737-.903c-.2753-.11734-.55155-.23244-.82723-.34887a.18434.18434,0,0,1-.02824-.02151l.61055-1.45693c.045.01636.09265.0316.13867.05073.24431.10156.48706.207.73252.30563a.8.8,0,0,0,1.01007-.29508A7.16433,7.16433,0,0,1,16.058,44.62037a.82293.82293,0,0,0,.31175-1.11273c-.1109-.26324-.21112-.531-.31283-.78825l1.47607-.60476c.10958.27739.22182.56778.33892.85619a.78718.78718,0,0,0,.65758.52255.93842.93842,0,0,0,.28349-.01271,7.20544,7.20544,0,0,1,2.64962-.00589.80917.80917,0,0,0,.95522-.51144c.11506-.26682.22608-.53539.33925-.803a.19775.19775,0,0,1,.02314-.03l1.46159.61249c-.10948.26127-.21805.52017-.32649.77913a.82806.82806,0,0,0,.31925,1.1267l.01619.00881a6.90634,6.90634,0,0,1,1.78545,1.81515.82209.82209,0,0,0,1.09533.33088c.26819-.11062.535-.22462.80208-.33694l.59917,1.49588c-.2318.09236-.4828.19517-.73585.29264a.844.844,0,0,0-.615,1.023l.01249.04482a6.92478,6.92478,0,0,1-.02822,2.5207.8233.8233,0,0,0,.543,1.01851q.3417.144.684.28678l.13323.05583L27.909,54.678c-.271-.11358-.53413-.22387-.79725-.3341a.81181.81181,0,0,0-1.1057.309l-.00294.00526a7.17234,7.17234,0,0,1-1.82691,1.79293.81338.81338,0,0,0-.337,1.09982l.00728.01341C23.9564,57.83315,24.06749,58.10145,24.18019,58.37509ZM16.41563,49.0009a4.02035,4.02035,0,1,0,.03065-.0706Z" fill="#fff"/>
        <path d="M16.41563,49.0009a4.00174,4.00174,0,1,1,2.1488,5.2355q-.06768-.02828-.13427-.059A4.02186,4.02186,0,0,1,16.41563,49.0009Zm1.47687.61335a2.39323,2.39323,0,1,0,.0342-.07819Q17.90889,49.57485,17.8925,49.61425Z"/>
      </g>
      <g>
        <path d="M47.18812,54.76543a9.59276,9.59276,0,0,1-.74353-1.74667.1593.1593,0,0,0-.12488-.06933c-.36421-.00554-.72856-.00075-1.09283-.00388a.79751.79751,0,0,1-.82537-.61664,1.18873,1.18873,0,0,1-.02316-.27109q-.0021-1.55475.00006-3.10955a.79246.79246,0,0,1,.77854-.80615q.01549-.00027.031.00006c.41578-.00212.83158-.00045,1.23008-.00045.14161-.37032.271-.72879.41618-1.08073a6.68027,6.68027,0,0,1,.29826-.60606.13886.13886,0,0,0-.02347-.195l-.00558-.00416c-.26007-.24871-.514-.50386-.769-.75785a.81625.81625,0,0,1,.0062-1.23037q1.07775-1.07469,2.15276-2.15214a.81611.81611,0,0,1,1.25732.0006c.25176.2511.50477.501.75309.75544a.11547.11547,0,0,0,.161.02737l.00469-.0035a7.92135,7.92135,0,0,1,1.59194-.665.13867.13867,0,0,0,.11886-.156l-.001-.00653c-.00561-.36422-.0035-.72859-.002-1.09288a.79168.79168,0,0,1,.75019-.83111q.03637-.00187.07282-.00038,1.57428-.00459,3.14858-.00022a.79108.79108,0,0,1,.83195.748q.002.03741.00044.07486c.00543.36855.0032.73727-.00028,1.10587a.126.126,0,0,0,.10151.14645l.00329.00055a7.948,7.948,0,0,1,1.61464.67769.10778.10778,0,0,0,.15149-.01693l.00392-.00522c.25451-.2605.51322-.51692.77121-.774a.80585.80585,0,0,1,1.22784.00372q1.0944,1.095,2.18734,2.1915a.80426.80426,0,0,1,.04154,1.13665l-.02768.02835c-.25928.268-.52436.53058-.7915.79081a.13213.13213,0,0,0-.03421.18369l.00338.0047a7.93978,7.93978,0,0,1,.65074,1.59764.12314.12314,0,0,0,.13727.10717l.00673-.001q.5789-.00678,1.15794-.00134a.79359.79359,0,0,1,.79454.78243q.00564,1.61333-.00074,3.22668a.77747.77747,0,0,1-.59358.76168,1.23861,1.23861,0,0,1-.296.0317c-.35125.00366-.70256.002-1.05384.001-.06332-.00017-.11422.0002-.13844.08043a8.92194,8.92194,0,0,1-.73547,1.731c.18088.17481.3649.35166.54774.52973.10251.09983.20355.20116.30434.30272a.80378.80378,0,0,1,.00057,1.22821c-.47672.47979-.95731.95571-1.43572,1.43381-.24229.24212-.48271.4861-.72531.7279a.80782.80782,0,0,1-1.2201.00975c-.25784-.25106-.51492-.50307-.76589-.76093a.13656.13656,0,0,0-.19053-.03157l-.00781.006a8.19636,8.19636,0,0,1-1.58167.65649.12581.12581,0,0,0-.10984.14l.00049.00361c.00385.35558.0025.71123.00137,1.06685a.81138.81138,0,0,1-.87638.87558q-1.52877.00034-3.05755,0a.805.805,0,0,1-.86857-.86724c-.00045-.36-.00249-.72.00169-1.07988a.12325.12325,0,0,0-.0999-.14283l-.00618-.00093a8.20179,8.20179,0,0,1-1.593-.66245.12975.12975,0,0,0-.182.02334l-.005.00693c-.25081.25813-.50662.51145-.76226.76484a.81181.81181,0,0,1-1.2219-.0023q-1.08366-1.07817-2.16387-2.15979a.8097.8097,0,0,1,.006-1.24738C46.62823,55.30329,46.91054,55.03459,47.18812,54.76543ZM61.563,56.19257c-.2097-.20881-.41586-.41333-.62115-.61871a.81338.81338,0,0,1-.13572-1.14226l.00956-.0119a7.17263,7.17263,0,0,0,.992-2.35971.81178.81178,0,0,1,.895-.719l.006.00068h.86442V49.74412h-.14446c-.24723,0-.49445.00039-.74168-.00013a.82331.82331,0,0,1-.89444-.72949,6.9248,6.9248,0,0,0-.94822-2.33573.844.844,0,0,1,.1065-1.18883l.03651-.02884c.19571-.18771.38747-.37954.56555-.55432L60.422,43.75872c-.20292.20684-.40492.41509-.60952.62077a.8221.8221,0,0,1-1.1381.11818,6.9057,6.9057,0,0,0-2.34826-.984.82806.82806,0,0,1-.7501-.89928l.00186-.01834c-.00008-.28075,0-.5615,0-.84477H53.99316a.19868.19868,0,0,0-.00975.03661c-.00093.29058.00049.58119-.00251.87176a.80915.80915,0,0,1-.68332.84088A7.20591,7.20591,0,0,0,50.85615,44.53a.93836.93836,0,0,1-.25655.12129.78717.78717,0,0,1-.80845-.22778c-.21947-.22075-.43522-.44519-.6435-.65867L48.02,44.89312c.19324.198.38916.40617.59317.60609a.82291.82291,0,0,1,.14255,1.14675,7.16429,7.16429,0,0,0-1.01126,2.43475.8.8,0,0,1-.81753.66254c-.26452.00386-.52915.00048-.79372.00124-.04984.00014-.09966.00449-.14751.00681V51.331a.1818.1818,0,0,0,.03436.00893c.29926.00083.59853.00022.89779.002a.79692.79692,0,0,1,.80774.64063A7.32516,7.32516,0,0,0,48.786,54.4947a.76994.76994,0,0,1,.04482.80449,1.10362,1.10362,0,0,1-.20651.26465c-.20791.21223-.42263.41778-.61379.60551l1.13872,1.14209c.19741-.19933.404-.40956.61235-.618a.80544.80544,0,0,1,1.12451-.12429,7.297,7.297,0,0,0,2.44627,1.0192.789.789,0,0,1,.64758.8c.00348.26888.00122.53784.00152.80677.00005.04593,0,.09187,0,.14181H55.5789c0-.31173-.00054-.61494.00013-.91815a.80447.80447,0,0,1,.67464-.83186,6.3906,6.3906,0,0,0,1.67409-.59031c.27586-.145.544-.30519.81222-.46415a.78965.78965,0,0,1,1.01087.12109c.2254.22569.44532.45682.66253.68024Z"/>
        <path d="M61.563,56.19257l-1.14958,1.14121c-.2172-.22342-.43713-.45455-.66252-.68024a.78966.78966,0,0,0-1.0109-.12109c-.26827.159-.53636.31914-.81222.46415a6.3906,6.3906,0,0,1-1.67409.59031.80447.80447,0,0,0-.67464.83186c-.00067.30321-.00013.60642-.00013.91815H53.98144c0-.04994.00005-.09588,0-.14181-.0003-.26893.002-.53789-.00152-.80677a.789.789,0,0,0-.64758-.8,7.297,7.297,0,0,1-2.44627-1.0192.80545.80545,0,0,0-1.12451.12429c-.20839.2084-.41494.41863-.61235.618l-1.13872-1.14209c.19116-.18773.40588-.39328.61379-.60551a1.10343,1.10343,0,0,0,.20651-.26465.76994.76994,0,0,0-.04482-.80449,7.32521,7.32521,0,0,1-1.06035-2.51212.79688.79688,0,0,0-.80774-.64062c-.29926-.00182-.59853-.00121-.89779-.002a.18373.18373,0,0,1-.03436-.00893V49.7513c.04785-.00232.09767-.00667.14751-.00681.26457-.00076.52921.00262.79372-.00124a.8.8,0,0,0,.81754-.66254A7.16427,7.16427,0,0,1,48.75575,46.646a.82292.82292,0,0,0-.14255-1.14675c-.204-.19992-.39993-.4081-.59317-.60609l1.12762-1.12826c.20828.21348.424.43792.6435.65866a.78714.78714,0,0,0,.80845.22778.93833.93833,0,0,0,.25655-.12128,7.20571,7.20571,0,0,1,2.44143-1.02951.80916.80916,0,0,0,.68332-.84089c.003-.29057.00158-.58118.00251-.87176a.19831.19831,0,0,1,.00975-.03661h1.58475c0,.28327-.00007.564,0,.84477a.82806.82806,0,0,0,.7299.91576l.01834.00186a6.90618,6.90618,0,0,1,2.34826.984.82209.82209,0,0,0,1.1381-.11817c.2046-.20569.4066-.41393.60952-.62077l1.13076,1.14806c-.17808.17478-.36984.36661-.56555.55432a.844.844,0,0,0-.17184,1.18116l.02883.03651a6.92472,6.92472,0,0,1,.94822,2.33573.82331.82331,0,0,0,.89444.72949c.24723.00052.49445.00012.74168.00013H63.573v1.59752h-.86442a.81177.81177,0,0,0-.90032.71231l-.00068.006a7.17272,7.17272,0,0,1-.992,2.35971.81337.81337,0,0,0,.11426,1.1446l.0119.00956C61.14709,55.77924,61.35325,55.98376,61.563,56.19257ZM50.7787,50.54785a4.01765,4.01765,0,1,0,.00093-.077l-.001.077Z" fill="#fff"/>
        <path d="M50.77865,50.54785A4.00174,4.00174,0,1,1,54.784,54.546q-.07334.00006-.14664-.00256A4.02185,4.02185,0,0,1,50.77865,50.54785Zm1.59917-.00511a2.39322,2.39322,0,1,0,.00132-.08527Q52.37771,50.5001,52.37782,50.54274Z"/>
      </g>
      <g>
        <path d="M29.97552,23.0624a9.59181,9.59181,0,0,1-.74354-1.74667.1593.1593,0,0,0-.12487-.06933c-.36421-.00554-.72857-.00075-1.09283-.00388a.79753.79753,0,0,1-.82537-.61664,1.18878,1.18878,0,0,1-.02317-.27109q-.00207-1.55476.00006-3.10955a.79246.79246,0,0,1,.77856-.80615q.01548-.00027.031.00006c.41578-.00212.83158-.00045,1.23009-.00045.1416-.37032.271-.72879.41617-1.08073a6.68035,6.68035,0,0,1,.29827-.60606.13887.13887,0,0,0-.02349-.195l-.00557-.00415c-.26007-.24871-.514-.50386-.769-.75785a.81625.81625,0,0,1,.0062-1.23037q1.07777-1.07469,2.15276-2.15214a.81619.81619,0,0,1,1.25734.0006c.25175.2511.50476.501.75307.75544a.11547.11547,0,0,0,.161.02738l.00468-.00351a7.92222,7.92222,0,0,1,1.59195-.665.13869.13869,0,0,0,.11887-.156l-.001-.00653c-.00561-.36422-.0035-.72858-.002-1.09288a.79168.79168,0,0,1,.75018-.83111q.03638-.00186.07282-.00037,1.57428-.00459,3.14858-.00022a.7911.7911,0,0,1,.832.748q.002.03739.00043.07485c.00544.36856.0032.73727-.00029,1.10587a.126.126,0,0,0,.10151.14645l.0033.00055a7.94877,7.94877,0,0,1,1.61463.67769.10778.10778,0,0,0,.15148-.01691l.00393-.00524c.25452-.2605.51322-.51692.77122-.774a.80584.80584,0,0,1,1.22783.00372q1.09443,1.095,2.18735,2.1915a.80428.80428,0,0,1,.04146,1.13668l-.0276.02827c-.25928.268-.52437.53057-.7915.79081a.13213.13213,0,0,0-.03422.18369l.00338.00469a7.93952,7.93952,0,0,1,.65074,1.59765.12316.12316,0,0,0,.1373.10717l.0067-.001q.57891-.00678,1.15794-.00133a.79358.79358,0,0,1,.79454.78243q.00564,1.61332-.00073,3.22668a.77748.77748,0,0,1-.59358.76168,1.23913,1.23913,0,0,1-.296.03171c-.35124.00365-.70255.00193-1.05383.001-.06332-.00017-.11423.0002-.13845.08043a8.92133,8.92133,0,0,1-.73547,1.731c.18088.17481.36491.35165.54775.52972.10249.09984.20354.20117.30433.30271a.80374.80374,0,0,1,.00056,1.22821c-.47671.47979-.9573.95571-1.43572,1.43381-.24228.24212-.48271.4861-.7253.7279a.80787.80787,0,0,1-1.22011.00975c-.25784-.25106-.51491-.50307-.76588-.76093a.13657.13657,0,0,0-.19053-.03157l-.00781.006a8.19762,8.19762,0,0,1-1.58167.65649.1258.1258,0,0,0-.10985.14l.00049.00362c.00386.35559.0025.71122.00137,1.06685a.81137.81137,0,0,1-.87637.87558q-1.52877.00035-3.05756,0a.805.805,0,0,1-.86857-.86725c-.00045-.36-.00248-.72.00169-1.07987a.12324.12324,0,0,0-.09986-.14283l-.00621-.00094a8.20154,8.20154,0,0,1-1.593-.66245.12975.12975,0,0,0-.182.02335l-.005.00692c-.25081.25813-.50661.51145-.76226.76484a.8118.8118,0,0,1-1.22189-.0023Q30.21318,26.20367,29.133,25.122a.80973.80973,0,0,1,.006-1.24738C29.41563,23.60026,29.69793,23.33156,29.97552,23.0624Zm14.37483,1.42714c-.2097-.20881-.41586-.41333-.62116-.61871a.81339.81339,0,0,1-.1357-1.14227l.00954-.01189a7.17212,7.17212,0,0,0,.992-2.35971.8118.8118,0,0,1,.895-.719l.006.00068h.86443V18.04109H46.216c-.24723,0-.49446.00039-.74168-.00013a.8233.8233,0,0,1-.89444-.72949,6.92521,6.92521,0,0,0-.94822-2.33573.844.844,0,0,1,.1065-1.18884l.0365-.02883c.1957-.18771.38746-.37954.56555-.55432l-1.13076-1.14806c-.20292.20684-.40493.41509-.60953.62077a.82208.82208,0,0,1-1.13809.11818,6.90609,6.90609,0,0,0-2.34826-.984.82807.82807,0,0,1-.75011-.89929l.00187-.01833c-.00007-.28075,0-.5615,0-.84477H36.78056a.19789.19789,0,0,0-.00975.03661c-.00093.29058.00048.58119-.00251.87176a.80917.80917,0,0,1-.68332.84088,7.20594,7.20594,0,0,0-2.44144,1.0295.93836.93836,0,0,1-.25655.12129.78712.78712,0,0,1-.80844-.22778c-.21947-.22075-.43523-.44519-.6435-.65867L30.80743,13.1901c.19324.198.38915.40617.59317.60609a.82292.82292,0,0,1,.14255,1.14675,7.16451,7.16451,0,0,0-1.01127,2.43475.8.8,0,0,1-.81753.66254c-.26452.00386-.52914.00048-.79372.00124-.04983.00014-.09966.00449-.1475.00681V19.628a.18273.18273,0,0,0,.03436.00892c.29926.00083.59853.00022.89779.002a.7969.7969,0,0,1,.80774.64063,7.32521,7.32521,0,0,0,1.06035,2.51212.76993.76993,0,0,1,.04481.80449,1.10343,1.10343,0,0,1-.20651.26465c-.2079.21223-.42262.41778-.61379.60551l1.13873,1.14209c.1974-.19933.404-.40956.61234-.618a.80547.80547,0,0,1,1.12452-.12429,7.29676,7.29676,0,0,0,2.44625,1.0192.789.789,0,0,1,.64758.8c.00349.26888.00123.53784.00152.80677.00005.04593,0,.09187,0,.14181h1.59745c0-.31173-.00053-.61494.00013-.91815a.80449.80449,0,0,1,.67465-.83186,6.39053,6.39053,0,0,0,1.67408-.59031c.27587-.145.544-.30519.81222-.46415a.78968.78968,0,0,1,1.01088.12109c.22538.22569.44531.45682.66252.68024Z"/>
        <path d="M44.35035,24.48954l-1.14958,1.14121c-.21721-.22342-.43714-.45455-.66252-.68024a.78969.78969,0,0,0-1.01088-.12109c-.26826.159-.53635.31915-.81222.46415a6.39053,6.39053,0,0,1-1.67408.59031.80448.80448,0,0,0-.67465.83186c-.00066.30321-.00013.60642-.00013.91815H36.76884v-.14181c-.00029-.26893.002-.53789-.00152-.80677a.789.789,0,0,0-.64758-.8,7.2969,7.2969,0,0,1-2.44626-1.0192.80545.80545,0,0,0-1.12451.12429c-.20839.2084-.41494.41863-.61234.618L30.7979,24.46631c.19117-.18773.40589-.39328.61379-.60551a1.10362,1.10362,0,0,0,.20651-.26465.76993.76993,0,0,0-.04481-.80449A7.32516,7.32516,0,0,1,30.513,20.27955a.7969.7969,0,0,0-.80774-.64063c-.29926-.00182-.59853-.00121-.89779-.002a.18293.18293,0,0,1-.03436-.00892V18.04827c.04784-.00232.09767-.00667.1475-.00681.26458-.00076.5292.00262.79372-.00124a.8.8,0,0,0,.81753-.66254,7.16451,7.16451,0,0,1,1.01127-2.43475.82292.82292,0,0,0-.14255-1.14675c-.204-.19992-.39993-.4081-.59317-.60609L31.935,12.06183c.20827.21348.424.43792.6435.65867a.78712.78712,0,0,0,.80844.22778.93807.93807,0,0,0,.25655-.12129A7.20588,7.20588,0,0,1,36.085,11.79748a.80918.80918,0,0,0,.68332-.84088c.003-.29057.00158-.58118.00251-.87176a.19789.19789,0,0,1,.00975-.03661H38.3653c0,.28327-.00006.564,0,.84477a.82807.82807,0,0,0,.72992.91576l.01833.00186a6.90626,6.90626,0,0,1,2.34826.984.82209.82209,0,0,0,1.13809-.11818c.2046-.20568.4066-.41393.60953-.62077l1.13076,1.14806c-.17809.17478-.36985.36661-.56555.55432a.844.844,0,0,0-.17184,1.18116l.02883.03651a6.92492,6.92492,0,0,1,.94822,2.33573.82331.82331,0,0,0,.89444.72949c.24722.00052.49445.00012.74168.00013h.14446v1.59752H45.496a.81179.81179,0,0,0-.90032.71234l-.00068.006a7.17233,7.17233,0,0,1-.992,2.35971.8134.8134,0,0,0,.11427,1.14462l.01189.00954C43.93449,24.07621,44.14065,24.28073,44.35035,24.48954ZM33.566,18.84482a4.02034,4.02034,0,1,0,.001-.0769Z" fill="#fff"/>
        <path d="M33.566,18.84482A4.00174,4.00174,0,1,1,37.57133,22.843q-.07334.00006-.14664-.00256A4.02185,4.02185,0,0,1,33.566,18.84482Zm1.59917-.00511a2.39463,2.39463,0,1,0,.00137-.08524q-.00142.04261-.00132.08524Z"/>
      </g>
      <g>
        <line x1="43.10636" y1="50.54897" x2="34.70167" y2="50.54897" fill="none" stroke="#000" stroke-miterlimit="10"/>
        <polygon points="35.577 47.557 30.396 50.549 35.577 53.541 35.577 47.557"/>
      </g>
      <g>
        <line x1="25.46042" y1="40.25414" x2="29.56666" y2="32.99085" fill="none" stroke="#000" stroke-miterlimit="10"/>
        <polygon points="31.74 35.225 31.686 29.243 26.531 32.281 31.74 35.225"/>
      </g>
      <g>
        <line x1="43.10636" y1="28.45218" x2="47.14046" y2="36.08864" fill="none" stroke="#000" stroke-miterlimit="10"/>
        <polygon points="44.086 36.712 49.152 39.896 49.377 33.917 44.086 36.712"/>
      </g>
    </g>
  </g>
</svg>
