<svg id="Layer_1" data-name="Layer 1" xmlns="http://www.w3.org/2000/svg" viewBox="0 0 75 74.995">
  <g id="shapes">
    <path d="M1.5,22.27V52.72A5.02513,5.02513,0,0,0,4.25,57.2L35.23,72.95a5.00035,5.00035,0,0,0,4.55,0L70.75,57.2a5.04366,5.04366,0,0,0,2.75-4.48V22.27a5.02513,5.02513,0,0,0-2.75-4.48L39.78,2.05a5.00035,5.00035,0,0,0-4.55,0L4.25,17.8A4.99881,4.99881,0,0,0,1.5,22.27Z" transform="translate(0 -0.0025)" fill="#969" stroke="#000" stroke-miterlimit="10" stroke-width="3"/>
  </g>
  <g id="network">
    <g>
      <path d="M46.05,31.7a6.99732,6.99732,0,0,1-7.04,7.14,7.13037,7.13037,0,0,1-7.22-7.02,7.25987,7.25987,0,0,1,7.19-7.27A7.09339,7.09339,0,0,1,46.05,31.7Z" transform="translate(0 -0.0025)"/>
      <path d="M34.78,39.71c.6.27,1.09.49,1.7.78-1.62,4.25-3.2,8.44-4.83,12.6-.6,1.53-1.14,2.79.33,4.35,1.42,1.51.93,3.99-.54,5.56a4.74526,4.74526,0,0,1-5.59.99,4.68129,4.68129,0,0,1-2.41-5.13A4.30549,4.30549,0,0,1,27.5,55.2c1.19-.01,1.57-.53,1.93-1.5C31.16,49.09,32.95,44.5,34.78,39.71Z" transform="translate(0 -0.0025)"/>
      <path d="M46.06,37.33c.36-.55.65-1,1.01-1.56,3.66,2.37,7.27,4.72,10.64,6.9a18.1757,18.1757,0,0,1,3.76-1.02,4.466,4.466,0,0,1,4.62,4.69,4.59426,4.59426,0,0,1-4.6,4.6,4.38747,4.38747,0,0,1-4.66-4.62c.15-1.67-.51-2.39-1.77-3.16C52.04,41.3,49.09,39.31,46.06,37.33Z" transform="translate(0 -0.0025)"/>
      <path d="M29.95,32.88c.17.65.29,1.13.45,1.78-3.53.9-7.05,1.82-10.59,2.67-.93.22-1.48.44-1.67,1.59a4.474,4.474,0,0,1-4.52,3.59,4.67909,4.67909,0,0,1-2.31-8.77,4.33242,4.33242,0,0,1,5.68.88,2.24172,2.24172,0,0,0,2.78.8C23.1,34.52,26.47,33.74,29.95,32.88Z" transform="translate(0 -0.0025)"/>
      <path d="M32.33,25.68c-.39.46-.74.88-1.14,1.36-1.41-1.04-2.81-2-4.13-3.06a2.5103,2.5103,0,0,0-3.14-.47,4.47516,4.47516,0,0,1-6.05-2.61,4.69719,4.69719,0,0,1,2.7-6.08,4.57446,4.57446,0,0,1,5.97,2.57,4.15533,4.15533,0,0,1,.28,2.39c-.37,1.34.22,1.96,1.22,2.62,1.37.9,2.66,1.93,3.98,2.91A3.31543,3.31543,0,0,1,32.33,25.68Z" transform="translate(0 -0.0025)"/>
      <path d="M52.96,24.27c-2.02,1.2-3.94,2.34-5.9,3.51-.29-.51-.57-.98-.93-1.6,1.48-.9,2.89-1.83,4.38-2.62a2.21012,2.21012,0,0,0,1.4-2.4,4.49807,4.49807,0,0,1,4.33-4.68,4.587,4.587,0,0,1,4.91,3.9,4.68723,4.68723,0,0,1-3.71,5.4A4.83685,4.83685,0,0,1,52.96,24.27Z" transform="translate(0 -0.0025)"/>
    </g>
  </g>
</svg>
