<svg id="Layer_1" data-name="Layer 1" xmlns="http://www.w3.org/2000/svg" viewBox="0 0 75 74.995">
  <g id="shapes">
    <path d="M1.5,22.27V52.72A5.02513,5.02513,0,0,0,4.25,57.2L35.23,72.95a5.00035,5.00035,0,0,0,4.55,0L70.75,57.2a5.04366,5.04366,0,0,0,2.75-4.48V22.27a5.02513,5.02513,0,0,0-2.75-4.48L39.78,2.05a5.00035,5.00035,0,0,0-4.55,0L4.25,17.8A4.99881,4.99881,0,0,0,1.5,22.27Z" transform="translate(0 -0.0025)" fill="#969" stroke="#000" stroke-miterlimit="10" stroke-width="3"/>
  </g>
  <g id="ock">
    <g>
      <line x1="41.4" y1="39.4275" x2="63.01" y2="31.7675" fill="none" stroke="#fff" stroke-miterlimit="10" stroke-width="4"/>
      <polygon points="63.24 35.917 68.42 29.858 60.58 28.397 63.24 35.917" fill="#fff"/>
    </g>
    <g>
      <path d="M36.76,18.92h1.49c.55.09,1.1.15,1.64.29a9.88932,9.88932,0,0,1,7.42,8.87c.07,1.1.04,2.21.06,3.32v.37h.55a1.57158,1.57158,0,0,1,1.35.74,2.76882,2.76882,0,0,1,.45,1.68V48.27a5.061,5.061,0,0,1-.05.68,1.89268,1.89268,0,0,1-2.02,1.76H27.17a1.6723,1.6723,0,0,1-1.48-.81,2.81881,2.81881,0,0,1-.41-1.6V34.15a4.06132,4.06132,0,0,1,.11-.92,1.77651,1.77651,0,0,1,1.87-1.47h.36v-.37c0-.8-.03-1.59.01-2.39a11.73828,11.73828,0,0,1,.25-2.3,9.675,9.675,0,0,1,7.85-7.63C36.08,19,36.42,18.97,36.76,18.92Zm6.5,12.82a1.796,1.796,0,0,0,.02-.22c0-.9.01-1.8,0-2.7a5.64168,5.64168,0,0,0-1.94-4.3,5.73022,5.73022,0,0,0-9.51,3.49,30.05637,30.05637,0,0,0-.08,3.68c0,.02.02.03.04.05Zm-7.73,11.7v2.02a.977.977,0,0,0,1.07,1.08h1.74a.97959.97959,0,0,0,1.12-1.12c0-1.08.01-2.15,0-3.23a2.47218,2.47218,0,0,1,.37-1.5,2.55174,2.55174,0,0,0-.25-3.11,2.85124,2.85124,0,0,0-2.98-.78,2.67478,2.67478,0,0,0-1.24,4.22.87127.87127,0,0,1,.16.44C35.54,42.12,35.53,42.78,35.53,43.44Z" transform="translate(0 -0.0025)"/>
      <path d="M35.53,43.44c0-.66.01-1.32-.01-1.98a.69891.69891,0,0,0-.16-.44A2.66535,2.66535,0,0,1,36.6,36.8a2.85653,2.85653,0,0,1,2.98.78,2.55072,2.55072,0,0,1,.25,3.11,2.47218,2.47218,0,0,0-.37,1.5c.01,1.08,0,2.15,0,3.23a.97959.97959,0,0,1-1.12,1.12H36.6a.95969.95969,0,0,1-1.07-1.08Z" transform="translate(0 -0.0025)" fill="#fff"/>
    </g>
    <g>
      <line x1="37.51" y1="41.5975" x2="12.01" y2="50.9375" fill="none" stroke="#fff" stroke-miterlimit="10" stroke-width="4"/>
      <polygon points="11.74 46.788 6.62 52.907 14.48 54.277 11.74 46.788" fill="#fff"/>
    </g>
  </g>
</svg>
