<svg id="Layer_1" data-name="Layer 1" xmlns="http://www.w3.org/2000/svg" viewBox="0 0 75 75">
  <g id="shapes">
    <path d="M1.5,22.27392V52.72608a5.02129,5.02129,0,0,0,2.74533,4.47586L35.224,72.95457a5.02132,5.02132,0,0,0,4.552,0l30.9787-15.75264A5.0213,5.0213,0,0,0,73.5,52.72608V22.27392a5.02128,5.02128,0,0,0-2.74532-4.47586L39.776,2.04543a5.02132,5.02132,0,0,0-4.552,0L4.24533,17.79806A5.02129,5.02129,0,0,0,1.5,22.27392Z" transform="translate(0 0)" fill="#969" stroke="#000" stroke-miterlimit="10" stroke-width="3"/>
  </g>
  <g id="globe">
    <g>
      <path d="M37.94053,40.59162a15.22173,15.22173,0,0,1-6.01541-1.14282,14.21112,14.21112,0,0,1-3.29778-1.94875,14.51177,14.51177,0,0,1-4.32592-5.60651,13.53456,13.53456,0,0,1-1.10115-4.43516,10.31944,10.31944,0,0,1-.1021-1.84655,15.98028,15.98028,0,0,1,1.023-4.81173,16.07253,16.07253,0,0,1,1.03872-2.07483,14.40643,14.40643,0,0,1,17.86116-5.88039,13.74615,13.74615,0,0,1,3.6823,2.23232,15.65155,15.65155,0,0,1,2.08832,2.13519,14.33341,14.33341,0,0,1,2.21362,3.93569A14.48889,14.48889,0,0,1,51.179,30.782a12.79439,12.79439,0,0,1-1.04764,2.36494,13.54442,13.54442,0,0,1-2.09419,2.87727,14.19234,14.19234,0,0,1-7.89053,4.301C39.2724,40.48015,38.38316,40.53978,37.94053,40.59162Zm6.04741-15.50876a.899.899,0,0,0,.017-.14855,11.85562,11.85562,0,0,0-.613-3.3392.34118.34118,0,0,0-.27915-.1496c-.95107.04136-1.90109.11016-2.8522.149-.5496.02242-1.10066.00407-1.64966.00407V25.0829Zm.13332,2.182H38.60967v3.40267a.28722.28722,0,0,0,.07388.03317c1.45182.07153,2.90359.14442,4.3558.20525a.294.294,0,0,0,.22077-.15427,5.31138,5.31138,0,0,0,.35614-.944c.18574-.82839.33366-1.66634.505-2.54278Zm-13.00617-2.1818H36.44V21.66028c-.063-.00618-.11275-.01322-.16272-.01566-1.34746-.06579-2.69606-.11318-4.04161-.209a.45136.45136,0,0,0-.54512.40915C31.48678,22.907,31.3096,23.97493,31.11509,25.08306Zm5.33142,2.17834h-5.281a9.4237,9.4237,0,0,0,.85524,3.63128l4.42577-.21325Zm-7.411-2.17264a18.36056,18.36056,0,0,1,.63186-3.86084c-.999-.14987-1.97123-.29811-2.94456-.43723a.29484.29484,0,0,0-.24333.06721,1.80109,1.80109,0,0,0-.28221.503c-.22981.71315-.46569,1.42628-.64705,2.15412-.12583.505-.16615,1.03406-.24791,1.57376Zm-3.66116,2.16895c-.01974.02663-.03161.03525-.03117.04311a11.52621,11.52621,0,0,0,.94034,3.87964c.12263.2899.31473.49745.66972.34513a1.70027,1.70027,0,0,1,.43205-.0744c.79675-.11249,1.59366-.22377,2.43049-.34107a11.83089,11.83089,0,0,1-.80492-3.85241Zm20.862-2.17658h3.47074c0-.0773.00444-.13236-.00065-.18641A10.69158,10.69158,0,0,0,48.595,20.9205a.29041.29041,0,0,0-.23844-.12911c-.94029.131-1.87876.27673-2.74731.40806Zm-.04419,2.17206a11.74487,11.74487,0,0,1-.793,3.848.88342.88342,0,0,0,.14183.06012c.94117.13623,1.88208.27485,2.82473.39838a.2896.2896,0,0,0,.22746-.14237,9.51043,9.51043,0,0,0,.92349-2.69443c.08195-.48279.14651-.96892.22134-1.46967ZM38.61478,14.5828V19.534l3.95337-.18782A11.83613,11.83613,0,0,0,38.61478,14.5828Zm-2.17216.11426a12.16313,12.16313,0,0,0-3.83093,4.657l3.83093.17217ZM27.77847,33.5384c.70434,1.556,4.899,4.43793,6.26588,4.34448-.45327-.51934-.94094-1.016-1.35935-1.57156a15.89681,15.89681,0,0,1-1.86587-2.89746.30867.30867,0,0,0-.365-.21652C29.57388,33.31283,28.693,33.42243,27.77847,33.5384ZM41.167,37.89017a12.36233,12.36233,0,0,0,6.15813-4.34228c-.93481-.1223-1.78261-.24091-2.63293-.3334-.09212-.01-.23033.108-.29385.20576-.59661.91811-1.18118,1.845-1.771,2.76813a1.38138,1.38138,0,0,1-.12657.14418C42.06913,36.83631,41.63777,37.34032,41.167,37.89017Zm1.00535-4.92-3.5527-.14111V37.3516a17.59624,17.59624,0,0,0,3.55271-4.38148Zm-9.10726-.004A14.73464,14.73464,0,0,0,36.433,37.13876V32.82911ZM27.68878,18.8c.90867.11273,1.726.21724,2.54465.30918a.25378.25378,0,0,0,.18558-.12435,6.03386,6.03386,0,0,0,.35985-.685,12.60284,12.60284,0,0,1,1.5735-2.58415c.254-.34037.542-.65211.81451-.97686A11.83958,11.83958,0,0,0,27.68878,18.8Zm19.65567-.002a11.67667,11.67667,0,0,0-5.21956-3.93381c.13285.20893.34436.33829.4856.527a14.28478,14.28478,0,0,1,1.78767,2.8311,8.59009,8.59009,0,0,0,.40267.77478.21572.21572,0,0,0,.16163.106C45.72834,19.01131,46.49312,18.90907,47.34445,18.798Z" transform="translate(0 0)"/>
      <path d="M43.98794,25.08286H38.611V21.59854c.549,0,1.10007.01835,1.64966-.00407.95112-.0388,1.90114-.1076,2.8522-.149a.34113.34113,0,0,1,.27915.1496,11.85525,11.85525,0,0,1,.613,3.3392A.89732.89732,0,0,1,43.98794,25.08286Z" transform="translate(0 0)" fill="#fff"/>
      <path d="M44.12126,27.2649c-.17134.87644-.3193,1.71439-.505,2.54278a5.31138,5.31138,0,0,1-.35614.944.294.294,0,0,1-.22077.15427c-1.45221-.06083-2.904-.13372-4.3558-.20525a.28722.28722,0,0,1-.07388-.03317V27.2649Z" transform="translate(0 0)" fill="#fff"/>
      <path d="M31.11509,25.08306c.19451-1.10813.37169-2.17606.57542-3.23825a.45135.45135,0,0,1,.54512-.40915c1.34555.09578,2.69415.14317,4.04161.209.05.00244.09975.00948.16272.01566V25.0831Z" transform="translate(0 0)" fill="#fff"/>
      <path d="M36.44651,27.2614v3.418l-4.42577.21325a9.4237,9.4237,0,0,1-.85524-3.63128Z" transform="translate(0 0)" fill="#fff"/>
      <path d="M29.03551,25.08876h-3.7332c.08176-.5397.12208-1.06876.24791-1.57376.18136-.72784.41724-1.441.64705-2.15412a1.80109,1.80109,0,0,1,.28221-.503.29483.29483,0,0,1,.24333-.06721c.97333.13912,1.94551.28736,2.94456.43723A18.36085,18.36085,0,0,0,29.03551,25.08876Z" transform="translate(0 0)" fill="#fff"/>
      <path d="M25.37435,27.25771h3.63651a11.83089,11.83089,0,0,0,.80492,3.85241c-.83683.1173-1.63374.22858-2.43049.34107a1.69976,1.69976,0,0,0-.43205.0744c-.355.15232-.54709-.05523-.66972-.34513a11.52621,11.52621,0,0,1-.94034-3.87964C25.34274,27.293,25.35461,27.28434,25.37435,27.25771Z" transform="translate(0 0)" fill="#fff"/>
      <path d="M46.23639,25.08113l-.62719-3.88168c.86855-.13133,1.807-.27709,2.74731-.40806a.29041.29041,0,0,1,.23844.12911,10.69151,10.69151,0,0,1,1.11153,3.97422c.00509.05405.00065.10911.00065.18641Z" transform="translate(0 0)" fill="#fff"/>
      <path d="M46.1922,27.25319h3.54589c-.07483.50075-.13939.98688-.22134,1.46967a9.51054,9.51054,0,0,1-.92349,2.69443.28963.28963,0,0,1-.22746.14237c-.94265-.12353-1.88356-.26215-2.82473-.39838a.88342.88342,0,0,1-.14183-.06012A11.74491,11.74491,0,0,0,46.1922,27.25319Z" transform="translate(0 0)" fill="#fff"/>
      <path d="M38.61478,14.5828a11.83594,11.83594,0,0,1,3.95337,4.76334l-3.95337.18782Z" transform="translate(0 0)" fill="#fff"/>
      <path d="M36.44262,14.69706v4.82918l-3.83093-.17217A12.16309,12.16309,0,0,1,36.44262,14.69706Z" transform="translate(0 0)" fill="#fff"/>
      <path d="M27.77847,33.5384c.91451-.116,1.79541-.22557,2.67563-.34106a.30867.30867,0,0,1,.365.21652,15.897,15.897,0,0,0,1.8659,2.89746c.41841.55555.90608,1.05222,1.35935,1.57156C32.67745,37.97633,28.48281,35.09445,27.77847,33.5384Z" transform="translate(0 0)" fill="#fff"/>
      <path d="M41.167,37.89017c.47076-.54985.90212-1.05386,1.33376-1.55761a1.38138,1.38138,0,0,0,.12657-.14418c.58984-.92309,1.17441-1.85,1.771-2.76813.06352-.09774.20173-.21578.29385-.20576.85032.09249,1.69812.2111,2.63293.3334A12.36224,12.36224,0,0,1,41.167,37.89017Z" transform="translate(0 0)" fill="#fff"/>
      <path d="M42.17236,32.97012a17.5962,17.5962,0,0,1-3.5527,4.38148V32.829Z" transform="translate(0 0)" fill="#fff"/>
      <path d="M33.0651,32.96615l3.36789-.137V37.1388A14.73479,14.73479,0,0,1,33.0651,32.96615Z" transform="translate(0 0)" fill="#fff"/>
      <path d="M27.68878,18.8a11.83951,11.83951,0,0,1,5.47809-4.06118c-.27253.32475-.56053.63649-.81451.97686a12.60284,12.60284,0,0,0-1.5735,2.58415,6.03386,6.03386,0,0,1-.35985.685.25378.25378,0,0,1-.18558.12435C29.41481,19.01728,28.59745,18.91277,27.68878,18.8Z" transform="translate(0 0)" fill="#fff"/>
      <path d="M47.34445,18.798c-.85133.11106-1.61611.2133-2.382.30511a.21571.21571,0,0,1-.16163-.106,8.59524,8.59524,0,0,1-.40267-.77478,14.28432,14.28432,0,0,0-1.78767-2.8311c-.14123-.18871-.35274-.31807-.48559-.527A11.67677,11.67677,0,0,1,47.34445,18.798Z" transform="translate(0 0)" fill="#fff"/>
    </g>
    <rect x="14.91732" y="20.31823" width="45.16535" height="11.37984" stroke="#fff" stroke-miterlimit="10" stroke-width="0.5"/>
    <g>
      <path d="M19.53737,25.60575c-.1709,0-.29541,0-.4043-.14746a.497.497,0,0,1-.085-.34961v-.43506a.497.497,0,0,1,.085-.34961c.10889-.14746.2334-.14746.4043-.14746h.55908c.1709,0,.29492,0,.40381.14746a.4948.4948,0,0,1,.08545.34961v.43506a.4948.4948,0,0,1-.08545.34961c-.10889.14746-.23291.14746-.40381.14746Zm0,2.64063c-.1709,0-.29541,0-.4043-.14747a.497.497,0,0,1-.085-.3496v-.43506a.497.497,0,0,1,.085-.34961c.10889-.14746.2334-.14746.4043-.14746h.55908c.1709,0,.29492,0,.40381.14746a.4948.4948,0,0,1,.08545.34961v.43506a.49478.49478,0,0,1-.08545.3496c-.10889.14747-.23291.14747-.40381.14747Z" transform="translate(0 0)" fill="#fff"/>
      <path d="M24.26247,28.96073c-.09326.16309-.18653.272-.38037.272a.39075.39075,0,0,1-.38868-.36523.81165.81165,0,0,1,.1709-.40381l2.90479-4.97851c.09326-.15528.18652-.29493.38086-.29493a.37819.37819,0,0,1,.38037.36524.60178.60178,0,0,1-.08545.30273Z" transform="translate(0 0)" fill="#fff"/>
      <path d="M29.85719,28.96073c-.09326.16309-.18652.272-.38037.272a.39074.39074,0,0,1-.38867-.36523.81156.81156,0,0,1,.1709-.40381l2.90478-4.97851c.09327-.15528.18653-.29493.38086-.29493a.37819.37819,0,0,1,.38037.36524.60187.60187,0,0,1-.08544.30273Z" transform="translate(0 0)" fill="#fff"/>
    </g>
    <g id="server">
      <path d="M37.45069,61.466q-4.97089-.00033-9.94178-.00061c-1.42258-.00053-1.90027-.28265-1.90192-1.12435q-.00486-2.47656-.00056-4.95312c.00245-.73984.51769-1.048,1.78672-1.04868q10.11028-.00531,20.22056.00109c1.263.00081,1.77683.31207,1.779,1.05409q.00737,2.52558-.001,5.05117c-.00292.70347-.54376,1.0184-1.74649,1.01951Q42.548,61.46986,37.45069,61.466Z" transform="translate(0 0)"/>
      <path d="M29.83356,57.88717c-.00059.63553-.009,1.2711.00349,1.90654.005.257-.07753.46511-.604.47448-.56789.01012-.67911-.19832-.6764-.48251.01194-1.25472.00869-2.50951.003-3.76426-.00115-.25122.04654-.45653.60282-.46723.59936-.01153.67922.19891.67478.47531C29.82733,56.64867,29.83415,57.26794,29.83356,57.88717Z" transform="translate(0 0)" fill="#f7f7f7"/>
      <path d="M37.0687,57.85254c.00025-.61832.00587-1.23667-.00244-1.855-.00346-.25752.07632-.45039.63073-.44373.54746.00658.61883.1983.617.45633q-.01346,1.90387-.00007,3.8078c.00232.269-.12172.4502-.6401.44971-.54036-.00052-.613-.20739-.60887-.46252C37.07541,59.15434,37.06844,58.50342,37.0687,57.85254Z" transform="translate(0 0)" fill="#fcfcfc"/>
      <path d="M32.636,57.96619c-.001.621-.01121,1.24209.00366,1.863.00653.27222-.13068.45269-.65362.43834-.468-.01284-.58949-.18267-.58727-.43314q.01714-1.93651.00119-3.87306c-.002-.25765.14208-.40242.61891-.4071.488-.0048.62482.14866.62131.40192C32.63093,56.6261,32.63705,57.29617,32.636,57.96619Z" transform="translate(0 0)" fill="#fcfcfc"/>
      <path d="M35.47038,57.94008c-.00005.6184-.00932,1.23686.0044,1.85514.00564.25431-.05419.46381-.593.472-.516.00784-.64785-.16508-.645-.43906.01351-1.28556.009-2.57122.0015-3.85682-.00143-.24323.08568-.4104.58852-.41664.54054-.00672.6543.16288.64827.43258C35.46059,56.63812,35.47043,57.28914,35.47038,57.94008Z" transform="translate(0 0)" fill="#fdfdfd"/>
      <path d="M46.98131,58.78453c-.05805.47582-.282.794-.69676.77844a.65621.65621,0,0,1-.63706-.67483q.00093-.03243.00506-.06465c.00026-.495.25092-.76046.67259-.762C46.73122,58.06005,46.90068,58.38425,46.98131,58.78453Z" transform="translate(0 0)" fill="#f4f4f4"/>
    </g>
    <g>
      <polyline points="16.661 35.57 16.661 58.062 23.083 58.062" fill="none" stroke="#000" stroke-miterlimit="10"/>
      <polygon points="14.666 36.153 16.661 32.699 18.655 36.153 14.666 36.153"/>
    </g>
    <g>
      <polyline points="58.65 33.984 59.217 57.911 54.029 58.054" fill="none" stroke="#000" stroke-miterlimit="10"/>
      <polygon points="54.558 56.044 51.16 58.133 54.668 60.032 54.558 56.044"/>
    </g>
  </g>
</svg>
