<svg id="Layer_1" data-name="Layer 1" xmlns="http://www.w3.org/2000/svg" viewBox="0 0 75 74.995">
  <g id="shapes">
    <path d="M1.5,22.27V52.72A5.02513,5.02513,0,0,0,4.25,57.2L35.23,72.95a5.00035,5.00035,0,0,0,4.55,0L70.75,57.2a5.04366,5.04366,0,0,0,2.75-4.48V22.27a5.02513,5.02513,0,0,0-2.75-4.48L39.78,2.05a5.00035,5.00035,0,0,0-4.55,0L4.25,17.8A4.99881,4.99881,0,0,0,1.5,22.27Z" transform="translate(0 -0.0025)" fill="#969" stroke="#000" stroke-miterlimit="10" stroke-width="3"/>
  </g>
  <g id="CDN">
    <g>
      <path d="M22.29,64.56h-.11a2.55785,2.55785,0,0,0-.05-.27q-1.98-6.06-3.98-12.11a1.0548,1.0548,0,0,0-.5-.5c-1.93-.93-3.87-1.84-5.81-2.75-2.12-.99-4.25-1.97-6.37-2.96v-.11a3.47181,3.47181,0,0,0,.45-.17q16.02-9.12,32.05-18.25,9.285-5.295,18.58-10.58a1.50674,1.50674,0,0,0,.36-.39c.65-.05.19.45.33.66a2.3783,2.3783,0,0,0-.29.51q-1.395,5.445-2.77,10.89-4.2,16.56-8.38,33.11c-.24.97-.45,1.94-.68,2.92h-.44a2.19332,2.19332,0,0,0-.39-.36c-5.28-2.5-10.58-4.99-15.86-7.5-.39-.19-.56-.08-.79.23-1.37,1.95-2.76,3.88-4.14,5.82C23.09,63.35,22.7,63.96,22.29,64.56Zm.26-3.61c.04-.01.08-.01.12-.02.01-.17.03-.35.04-.52.17-2.01.35-4.03.49-6.04a1.68057,1.68057,0,0,1,.5-1.1q3.915-4.185,7.82-8.39L53.06,21.75c.09-.1.16-.21.24-.31a.442.442,0,0,0-.3.13q-3.615,3.36-7.23,6.73-9.255,8.61-18.5,17.23c-2.37,2.21-4.75,4.41-7.11,6.63a.697.697,0,0,0-.2.58C20.82,55.48,21.69,58.22,22.55,60.95Z" transform="translate(0 -0.0025)"/>
      <path d="M22.55,60.95c-.86-2.74-1.73-5.47-2.58-8.21a.73011.73011,0,0,1,.2-.58c2.36-2.22,4.74-4.42,7.11-6.63q9.255-8.61,18.5-17.23,3.615-3.36,7.23-6.73a.442.442,0,0,1,.3-.13c-.08.1-.15.21-.24.31L31.53,44.88c-1.9,2.04-6.75,7.34-7.3,7.84a4.54122,4.54122,0,0,0-.51.55,1.88419,1.88419,0,0,0-.39.6,1.805,1.805,0,0,0-.11.5,4.49933,4.49933,0,0,0-.04.79c.01.26-.07,1.12-.23,2.84-.09.93-.13,1.31-.22,2.41-.02.22-.03.4-.04.52C22.63,60.94,22.59,60.94,22.55,60.95Z" transform="translate(0 -0.0025)" fill="#fff" opacity="0.75" style="isolation: isolate"/>
    </g>
    <g>
      <path d="M39.29,46.98a2.23322,2.23322,0,0,1,.46,3.18,2.29424,2.29424,0,0,1-3.19.49,2.32474,2.32474,0,0,1-.47-3.24A2.29058,2.29058,0,0,1,39.29,46.98Z" transform="translate(0 -0.0025)" fill="#fff"/>
      <path d="M39.16,51.4c.19-.1.34-.18.53-.29.77,1.23,1.54,2.44,2.28,3.67.28.45.49.83,1.17.76a1.3349,1.3349,0,0,1,1.32,1.21A1.50073,1.50073,0,0,1,41.85,58a1.37893,1.37893,0,0,1-.15-1.74.571.571,0,0,0-.01-.78C40.86,54.14,40.03,52.8,39.16,51.4Z" transform="translate(0 -0.0025)" fill="#fff"/>
      <path d="M40.73,48.07c-.07-.2-.13-.36-.2-.56,1.31-.48,2.61-.95,3.82-1.38a6.67383,6.67383,0,0,1,.46-1.16,1.43993,1.43993,0,0,1,2.09-.28,1.469,1.469,0,0,1,.29,2.06,1.40113,1.40113,0,0,1-2.08.3.94628.94628,0,0,0-1.15-.16C42.9,47.31,41.82,47.67,40.73,48.07Z" transform="translate(0 -0.0025)" fill="#fff"/>
      <path d="M36.49,51.32c.2.08.34.14.54.23-.45,1.07-.9,2.15-1.36,3.22a.54706.54706,0,0,0,.09.73,1.44782,1.44782,0,0,1,.05,1.85,1.49625,1.49625,0,0,1-1.75.5,1.51917,1.51917,0,0,1-.94-1.61,1.39755,1.39755,0,0,1,1.32-1.28.71719.71719,0,0,0,.74-.56C35.58,53.38,36.03,52.37,36.49,51.32Z" transform="translate(0 -0.0025)" fill="#fff"/>
      <path d="M35.11,49.32c.04.19.08.36.13.55-.54.16-1.05.33-1.58.46a.808.808,0,0,0-.73.71,1.42791,1.42791,0,0,1-1.83,1.04,1.49639,1.49639,0,0,1-1.03-1.86,1.464,1.464,0,0,1,1.81-1.03,1.29874,1.29874,0,0,1,.66.39c.27.35.54.32.9.19.5-.18,1.01-.31,1.51-.45A.82534.82534,0,0,0,35.11,49.32Z" transform="translate(0 -0.0025)" fill="#fff"/>
      <path d="M38.73,43.78c-.08.75-.16,1.46-.24,2.18-.19-.02-.36-.04-.59-.07.06-.55.09-1.09.18-1.62a.70469.70469,0,0,0-.34-.82,1.44219,1.44219,0,0,1-.36-2.01,1.45861,1.45861,0,0,1,1.94-.5,1.49434,1.49434,0,0,1,.66,1.99A1.54133,1.54133,0,0,1,38.73,43.78Z" transform="translate(0 -0.0025)" fill="#fff"/>
    </g>
  </g>
</svg>
