<svg id="Layer_1" data-name="Layer 1" xmlns="http://www.w3.org/2000/svg" viewBox="0 0 75 74.995">
  <g id="shapes">
    <path d="M1.5,22.27V52.72A5.02513,5.02513,0,0,0,4.25,57.2L35.23,72.95a5.00035,5.00035,0,0,0,4.55,0L70.75,57.2a5.04366,5.04366,0,0,0,2.75-4.48V22.27a5.02513,5.02513,0,0,0-2.75-4.48L39.78,2.05a5.00035,5.00035,0,0,0-4.55,0L4.25,17.8A4.99881,4.99881,0,0,0,1.5,22.27Z" transform="translate(0 -0.0025)" fill="#969" stroke="#000" stroke-miterlimit="10" stroke-width="3"/>
  </g>
  <g id="transport">
    <circle cx="19.43" cy="53.0475" r="5.06" fill="none" stroke="#000" stroke-miterlimit="10" stroke-width="3"/>
    <circle cx="54.53" cy="53.0475" r="5.06" fill="none" stroke="#000" stroke-miterlimit="10" stroke-width="3"/>
    <line x1="6.25" y1="44.2175" x2="69.37" y2="44.2175" fill="none" stroke="#000" stroke-miterlimit="10" stroke-width="3"/>
    <rect x="46.83" y="20.5975" width="18.66" height="22.1"/>
    <circle cx="19.43" cy="53.0475" r="0.54"/>
    <rect x="51.03" y="23.8075" width="14.46" height="7.84" fill="#fff"/>
    <circle cx="54.53" cy="53.0475" r="0.54"/>
  </g>
  <g id="network">
    <g>
      <path d="M27.37,16A13,13,0,1,1,14.38,29.14,13.00824,13.00824,0,0,1,27.37,16ZM19.05,28.12c.03.07.05.13.08.2a3.75349,3.75349,0,0,0,.5-.36,21.432,21.432,0,0,1,8.75-5.55c.53-.17.61-.56.22-.94a14.29723,14.29723,0,0,0-5.21-3.31,1.76719,1.76719,0,0,0-1.2.06A11.86544,11.86544,0,0,0,16,25.44a1.17935,1.17935,0,0,0,.04.85,14.9628,14.9628,0,0,0,1.22,1.73.78765.78765,0,0,0,.55.25A10.48566,10.48566,0,0,0,19.05,28.12Zm8.5,4.4a24.59966,24.59966,0,0,0,2.32-8.01,1.03154,1.03154,0,0,0-1.31-1.03,19.7635,19.7635,0,0,0-8.15,5.2.88834.88834,0,0,0-.15.57c-.01.51,0,1.03.02,1.55a.67845.67845,0,0,0,.15.43,13.36112,13.36112,0,0,0,4.66,2.55C25.98,32.65,26.06,32.6,27.55,32.52Zm4.49-8.6a15.69166,15.69166,0,0,1,2.69,7.23c.09.86.1,1.55,1.06,2.13a2.0498,2.0498,0,0,0,1.81.24,1.66786,1.66786,0,0,0,1.34-1.41,11.4939,11.4939,0,0,0-.32-7.15c-1.08-2.66-.6-2.33-3.44-2.42-.25-.01-.51.01-.76-.01C33.37,22.47,32.38,22.5,32.04,23.92ZM25.92,36.09a7.12354,7.12354,0,0,0-1.31-1.32c-1.47-.86-3.05-1.54-4.5-2.43-1.19-.73-2.23-.57-2.86.69a7.479,7.479,0,0,0-.42.97.74823.74823,0,0,0-.01.55,11.95521,11.95521,0,0,0,6.85,5.81C24.41,38.93,25.14,37.56,25.92,36.09Zm-1.21,4.56a12.4906,12.4906,0,0,0,6.4-.28c1.27-.37,2.09-1,2.15-2.4a4.601,4.601,0,0,1,.14-.74c.24-1.17-.27-1.76-1.47-1.74-.71.02-1.42.03-2.12-.01-.64-.04-1.23-.09-1.69.53-.16.21-.54.24-.8.37-.19.09-.44.17-.53.33C26.09,37.99,25.43,39.28,24.71,40.65Zm7.79-6.23c.43-.53.76-.9,1.05-1.3a.99467.99467,0,0,0,.22-.58,14.88834,14.88834,0,0,0-2.39-7.71c-.1-.15-.23-.27-.44-.52a23.02744,23.02744,0,0,1-1.95,7.53,2.24618,2.24618,0,0,0,.12,2.59C30.22,34.42,31.42,34.42,32.5,34.42ZM30.83,17.56a11.73837,11.73837,0,0,0-6.06-.24c1.45,1.06,2.93,2.14,4.41,3.22a1.03166,1.03166,0,0,0,1.31-.51C30.63,19.24,30.71,18.44,30.83,17.56Zm5.89,3.99a12.04372,12.04372,0,0,0-4.86-3.62c-.12,1.24-.78,2.45.54,3.35a1.30885,1.30885,0,0,0,.54.27C34.12,21.56,35.3,21.55,36.72,21.55ZM16.03,32.73c1.49-.95.3-2.36.63-3.54.11-.39-.66-1.02-1.14-1.7A11.58221,11.58221,0,0,0,16.03,32.73Zm21.9,1.85c-.8.1-1.37.27-1.67,1.09-.15.4-.77.64-1.19.94-.15.11-.42.15-.46.27-.16.56-.25,1.14-.4,1.9A11.79493,11.79493,0,0,0,37.93,34.58Z" transform="translate(0 -0.0025)"/>
      <path d="M19.05,28.12c-.42.05-.83.14-1.25.15a.82751.82751,0,0,1-.55-.25,16.90812,16.90812,0,0,1-1.22-1.73,1.17935,1.17935,0,0,1-.04-.85,11.83881,11.83881,0,0,1,6.19-7.22,1.71291,1.71291,0,0,1,1.2-.06,14.65156,14.65156,0,0,1,5.21,3.31c.4.38.31.77-.22.94a21.432,21.432,0,0,0-8.75,5.55,3.75349,3.75349,0,0,1-.5.36C19.1,28.26,19.08,28.19,19.05,28.12Z" transform="translate(0 -0.0025)" fill="#fff"/>
      <path d="M27.55,32.52c-1.49.08-1.58.12-2.46,1.25a13.20153,13.20153,0,0,1-4.66-2.55.658.658,0,0,1-.15-.43c-.02-.51-.04-1.03-.02-1.55a.934.934,0,0,1,.15-.57,19.66311,19.66311,0,0,1,8.15-5.2,1.03578,1.03578,0,0,1,1.31,1.03A24.51444,24.51444,0,0,1,27.55,32.52Z" transform="translate(0 -0.0025)" fill="#fff"/>
      <path d="M32.04,23.92c.33-1.42,1.33-1.45,2.37-1.38.25.02.51,0,.76.01,2.84.09,2.36-.25,3.44,2.42a11.42276,11.42276,0,0,1,.32,7.15,1.65622,1.65622,0,0,1-1.34,1.41,2.01846,2.01846,0,0,1-1.81-.24c-.96-.58-.96-1.27-1.06-2.13A15.45716,15.45716,0,0,0,32.04,23.92Z" transform="translate(0 -0.0025)" fill="#fff"/>
      <path d="M25.92,36.09c-.78,1.46-1.51,2.84-2.26,4.26a11.88346,11.88346,0,0,1-6.85-5.81.80214.80214,0,0,1,.01-.55,9.16256,9.16256,0,0,1,.42-.97c.63-1.26,1.67-1.43,2.86-.69,1.45.89,3.03,1.57,4.5,2.43A7.55976,7.55976,0,0,1,25.92,36.09Z" transform="translate(0 -0.0025)" fill="#fff"/>
      <path d="M24.71,40.65c.71-1.36,1.38-2.66,2.08-3.93.09-.16.34-.24.53-.33.27-.13.65-.16.8-.37.46-.61,1.05-.56,1.69-.53.71.04,1.42.02,2.12.01,1.2-.03,1.71.56,1.47,1.74a4.81762,4.81762,0,0,0-.14.74c-.06,1.4-.88,2.03-2.15,2.4A12.824,12.824,0,0,1,24.71,40.65Z" transform="translate(0 -0.0025)" fill="#fff"/>
      <path d="M32.5,34.42H29.1a2.28026,2.28026,0,0,1-.12-2.59,23.21266,23.21266,0,0,0,1.95-7.53,5.30528,5.30528,0,0,1,.44.52,14.91693,14.91693,0,0,1,2.39,7.71.99467.99467,0,0,1-.22.58C33.26,33.52,32.93,33.89,32.5,34.42Z" transform="translate(0 -0.0025)" fill="#fff"/>
      <path d="M30.83,17.56c-.12.88-.2,1.68-.33,2.47-.07.43-.97.75-1.31.51-1.48-1.08-2.96-2.16-4.41-3.22A11.70392,11.70392,0,0,1,30.83,17.56Z" transform="translate(0 -0.0025)" fill="#fff"/>
      <path d="M36.72,21.55c-1.42,0-2.6.01-3.79-.01a1.10447,1.10447,0,0,1-.54-.27c-1.32-.89-.66-2.1-.54-3.35A12.12317,12.12317,0,0,1,36.72,21.55Z" transform="translate(0 -0.0025)" fill="#fff"/>
      <path d="M16.03,32.73a11.58221,11.58221,0,0,1-.51-5.24c.48.68,1.25,1.31,1.14,1.7C16.33,30.37,17.52,31.78,16.03,32.73Z" transform="translate(0 -0.0025)" fill="#fff"/>
      <path d="M37.93,34.58a11.71182,11.71182,0,0,1-3.72,4.2c.15-.76.25-1.34.4-1.9.03-.12.31-.17.46-.27.42-.3,1.04-.53,1.19-.94C36.56,34.85,37.13,34.68,37.93,34.58Z" transform="translate(0 -0.0025)" fill="#fff"/>
    </g>
  </g>
</svg>
