<svg id="Layer_1" data-name="Layer 1" xmlns="http://www.w3.org/2000/svg" viewBox="0 0 75 74.995">
  <g id="shapes">
    <path d="M1.5,22.27V52.72A5.02513,5.02513,0,0,0,4.25,57.2L35.23,72.95a5.00035,5.00035,0,0,0,4.55,0L70.75,57.2a5.04366,5.04366,0,0,0,2.75-4.48V22.27a5.02513,5.02513,0,0,0-2.75-4.48L39.78,2.05a5.00035,5.00035,0,0,0-4.55,0L4.25,17.8A4.99881,4.99881,0,0,0,1.5,22.27Z" transform="translate(0 -0.0025)" fill="#969" stroke="#000" stroke-miterlimit="10" stroke-width="3"/>
  </g>
  <g id="transport">
    <circle cx="19.43" cy="53.0475" r="5.06" fill="none" stroke="#000" stroke-miterlimit="10" stroke-width="3"/>
    <circle cx="54.53" cy="53.0475" r="5.06" fill="none" stroke="#000" stroke-miterlimit="10" stroke-width="3"/>
    <line x1="6.25" y1="44.2175" x2="69.37" y2="44.2175" fill="none" stroke="#000" stroke-miterlimit="10" stroke-width="3"/>
    <rect x="46.83" y="20.5975" width="18.66" height="22.1"/>
    <circle cx="19.43" cy="53.0475" r="0.54"/>
    <rect x="51.03" y="23.8075" width="14.46" height="7.84" fill="#fff"/>
    <circle cx="54.53" cy="53.0475" r="0.54"/>
    <path d="M41.14,42.09H11.42a3.72155,3.72155,0,0,1-3.71-3.71V28.65a3.72155,3.72155,0,0,1,3.71-3.71H41.13a3.72155,3.72155,0,0,1,3.71,3.71v9.73A3.70656,3.70656,0,0,1,41.14,42.09Z" transform="translate(0 -0.0025)" fill="#fff"/>
    <g>
      <path d="M8.75,37.5V28.91h1v3.53h3.92V28.91h1V37.5h-1V33.45H9.75V37.5Z" transform="translate(0 -0.0025)"/>
      <path d="M18.24,37.5V29.92H15.76V28.91h5.97v1.01H19.24V37.5Z" transform="translate(0 -0.0025)"/>
      <path d="M24.67,37.5V29.92H22.19V28.91h5.97v1.01H25.67V37.5Z" transform="translate(0 -0.0025)"/>
      <path d="M29.19,37.5V28.91h2.84a6.5953,6.5953,0,0,1,1.15.08,2.07523,2.07523,0,0,1,.93.4,2.028,2.028,0,0,1,.6.83,3.014,3.014,0,0,1,.23,1.17,2.82477,2.82477,0,0,1-.61,1.85,2.692,2.692,0,0,1-2.21.76H30.19v3.49h-1Zm.99-4.51h1.95a1.90065,1.90065,0,0,0,1.37-.41,1.5683,1.5683,0,0,0,.41-1.15,1.68031,1.68031,0,0,0-.24-.92,1.15858,1.15858,0,0,0-.63-.51,3.75829,3.75829,0,0,0-.93-.08H30.18Z" transform="translate(0 -0.0025)"/>
      <path d="M35.4,37.65l2.19-8.88h.74l-2.18,8.88Z" transform="translate(0 -0.0025)"/>
      <path d="M43.62,36.49V37.5H38.64a1.99233,1.99233,0,0,1,.11-.73,3.95558,3.95558,0,0,1,.61-1.14,9.64162,9.64162,0,0,1,1.21-1.3,11.156,11.156,0,0,0,1.66-1.82,2.35173,2.35173,0,0,0,.43-1.27,1.52546,1.52546,0,0,0-.39-1.06,1.30806,1.30806,0,0,0-1.03-.43,1.33638,1.33638,0,0,0-1.07.46,1.91533,1.91533,0,0,0-.41,1.27l-.95-.11a2.8503,2.8503,0,0,1,.73-1.85,2.2928,2.2928,0,0,1,1.71-.64,2.22283,2.22283,0,0,1,1.72.69,2.4166,2.4166,0,0,1,.63,1.7,2.94851,2.94851,0,0,1-.18,1.01,3.93429,3.93429,0,0,1-.62,1.05,15.55536,15.55536,0,0,1-1.43,1.51c-.56.53-.91.89-1.07,1.08a3.21589,3.21589,0,0,0-.39.57Z" transform="translate(0 -0.0025)"/>
    </g>
  </g>
</svg>
