<svg id="Layer_1" data-name="Layer 1" xmlns="http://www.w3.org/2000/svg" viewBox="0 0 75 74.995">
  <g id="shapes">
    <path d="M1.5,22.27V52.72A5.02513,5.02513,0,0,0,4.25,57.2L35.23,72.95a5.00035,5.00035,0,0,0,4.55,0L70.75,57.2a5.04366,5.04366,0,0,0,2.75-4.48V22.27a5.02513,5.02513,0,0,0-2.75-4.48L39.78,2.05a5.00035,5.00035,0,0,0-4.55,0L4.25,17.8A4.99881,4.99881,0,0,0,1.5,22.27Z" transform="translate(0 -0.0025)" fill="#969" stroke="#000" stroke-miterlimit="10" stroke-width="3"/>
  </g>
  <g id="transport">
    <circle cx="19.43" cy="53.0475" r="5.06" fill="none" stroke="#000" stroke-miterlimit="10" stroke-width="3"/>
    <circle cx="54.53" cy="53.0475" r="5.06" fill="none" stroke="#000" stroke-miterlimit="10" stroke-width="3"/>
    <line x1="6.25" y1="44.2175" x2="69.37" y2="44.2175" fill="none" stroke="#000" stroke-miterlimit="10" stroke-width="3"/>
    <rect x="46.83" y="20.5975" width="18.66" height="22.1"/>
    <circle cx="19.43" cy="53.0475" r="0.54"/>
    <rect x="51.03" y="23.8075" width="14.46" height="7.84" fill="#fff"/>
    <circle cx="54.53" cy="53.0475" r="0.54"/>
    <path d="M41.14,42.09H11.42a3.72155,3.72155,0,0,1-3.71-3.71V28.65a3.72155,3.72155,0,0,1,3.71-3.71H41.13a3.72155,3.72155,0,0,1,3.71,3.71v9.73A3.70656,3.70656,0,0,1,41.14,42.09Z" transform="translate(0 -0.0025)" fill="#fff"/>
    <g>
      <path d="M13.65,37.5V28.91h1v3.53h3.92V28.91h1V37.5h-1V33.45H14.65V37.5Z" transform="translate(0 -0.0025)"/>
      <path d="M23.14,37.5V29.92H20.66V28.91h5.97v1.01H24.14V37.5Z" transform="translate(0 -0.0025)"/>
      <path d="M29.57,37.5V29.92H27.09V28.91h5.97v1.01H30.57V37.5Z" transform="translate(0 -0.0025)"/>
      <path d="M34.09,37.5V28.91h2.84a6.5953,6.5953,0,0,1,1.15.08,2.07523,2.07523,0,0,1,.93.4,2.028,2.028,0,0,1,.6.83,3.014,3.014,0,0,1,.23,1.17,2.82477,2.82477,0,0,1-.61,1.85,2.692,2.692,0,0,1-2.21.76H35.09v3.49h-1Zm.99-4.51h1.95a1.90065,1.90065,0,0,0,1.37-.41,1.5683,1.5683,0,0,0,.41-1.15,1.68031,1.68031,0,0,0-.24-.92,1.15858,1.15858,0,0,0-.63-.51,3.75829,3.75829,0,0,0-.93-.08H35.08Z" transform="translate(0 -0.0025)"/>
    </g>
  </g>
</svg>
