<svg id="Layer_1" data-name="Layer 1" xmlns="http://www.w3.org/2000/svg" viewBox="0 0 75 74.995">
  <g id="Layer_1-2" data-name="Layer 1">
    <g id="shapes">
      <path d="M1.5,22.27V52.72A5.02513,5.02513,0,0,0,4.25,57.2L35.23,72.95a5.00035,5.00035,0,0,0,4.55,0L70.75,57.2a5.04366,5.04366,0,0,0,2.75-4.48V22.27a5.02513,5.02513,0,0,0-2.75-4.48L39.78,2.05a5.00035,5.00035,0,0,0-4.55,0L4.25,17.8A4.99881,4.99881,0,0,0,1.5,22.27Z" transform="translate(0 -0.0025)" fill="#969" stroke="#000" stroke-miterlimit="10" stroke-width="3"/>
    </g>
    <rect x="21.22" y="14.3075" width="6.31" height="6.31"/>
    <rect x="55.78" y="21.5475" width="6.31" height="6.31"/>
    <rect x="47.42" y="54.8775" width="6.31" height="6.31"/>
    <rect x="13.76" y="46.8175" width="6.31" height="6.31"/>
    <rect x="31.5" y="31.4975" width="12" height="12"/>
  </g>
  <g id="distribute">
    <g>
      <path d="M22.5,26.61c.17-.2.32-.41.5-.59.43-.44.86-.87,1.3-1.3a3.46749,3.46749,0,0,1,.29-.25.35012.35012,0,0,1,.5,0,3.109,3.109,0,0,1,.33.29c.52.52,1.04,1.04,1.55,1.57a.70313.70313,0,0,1,.17.37.33133.33133,0,0,1-.17.39.48834.48834,0,0,1-.52-.02,2.54652,2.54652,0,0,1-.3-.26c-.27-.27-.53-.54-.83-.84v6.61c.13-.27.25-.5.36-.73a13.1428,13.1428,0,0,1,6.09-6.12,12.9245,12.9245,0,0,1,4.35-1.28c.4-.04.42-.03.44.37.01.18,0,.35,0,.52a12.19536,12.19536,0,0,0-11.22,11.2h-.97V26.03a.07581.07581,0,0,0-.04-.02c-.07.08-.14.16-.21.23-.25.25-.5.5-.75.74a.55978.55978,0,0,1-.42.18.48407.48407,0,0,1-.45-.33Z" transform="translate(0 -0.0025)"/>
      <path d="M52.5,48.35a4.41274,4.41274,0,0,1-.36.49c-.49.51-1,1-1.5,1.5-.04.04-.08.07-.11.1-.3.25-.44.26-.73-.01-.6-.59-1.19-1.19-1.79-1.78-.32-.33-.18-.57.01-.73a.37172.37172,0,0,1,.51,0c.22.18.43.38.63.58.17.16.32.34.48.51.01-.01.03-.02.04-.03V42.46c-.04.08-.07.12-.09.16a15.91706,15.91706,0,0,1-1.37,2.41,13.21008,13.21008,0,0,1-8.26,5.36c-.42.08-.86.12-1.29.18-.08.01-.14,0-.15-.1-.01-.26-.03-.53-.05-.8A12.19695,12.19695,0,0,0,49.66,38.45h.97V49.02c.15-.15.27-.27.4-.39.21-.21.42-.42.64-.61.33-.29.58-.25.83.12Z" transform="translate(0 -0.0025)"/>
      <path d="M26.27,37.5A11.24,11.24,0,1,1,37.39,48.74,11.32959,11.32959,0,0,1,26.27,37.5ZM37.52,47.82A10.31518,10.31518,0,1,0,27.19,37.48,10.25585,10.25585,0,0,0,37.52,47.82Z" transform="translate(0 -0.0025)"/>
      <path d="M26.04,49.69h6.44a13.80349,13.80349,0,0,1-5.56-4.48,13.38905,13.38905,0,0,1-2.51-6.71c.3-.01.57-.03.85-.04.04,0,.11.08.11.12a11.97477,11.97477,0,0,0,3.44,7.52,11.6873,11.6873,0,0,0,6.11,3.34c.5.11,1.02.17,1.52.25.05.01.12.06.12.09.01.27.01.55.01.85H26c.18.18.33.33.48.49.19.2.38.41.58.61a.45539.45539,0,0,1-.26.76.43272.43272,0,0,1-.43-.13c-.58-.61-1.17-1.2-1.76-1.79-.03-.03-.06-.07-.09-.1-.19-.24-.2-.37,0-.59.23-.26.48-.52.73-.77.39-.39.8-.78,1.2-1.16a.392.392,0,0,1,.47-.08.43271.43271,0,0,1,.16.7c-.26.3-.54.57-.81.86-.08.08-.17.15-.25.22C26.02,49.66,26.03,49.67,26.04,49.69Z" transform="translate(0 -0.0025)"/>
      <path d="M50.63,36.59H49.8c-.12,0-.12-.1-.14-.18-.11-.64-.18-1.3-.34-1.92a11.92041,11.92041,0,0,0-6.02-7.73,12.58029,12.58029,0,0,0-4.22-1.36c-.2-.03-.4-.03-.61-.05v-.97H49.02c-.05-.06-.07-.09-.1-.12-.28-.29-.57-.59-.85-.88a2.00234,2.00234,0,0,1-.14-.16.39581.39581,0,0,1,.04-.56.40259.40259,0,0,1,.57-.06,2.19763,2.19763,0,0,1,.23.2c.54.54,1.08,1.08,1.62,1.63a1.42823,1.42823,0,0,1,.15.18.347.347,0,0,1,0,.49,2.19763,2.19763,0,0,1-.2.23c-.52.53-1.05,1.06-1.58,1.58a1.63194,1.63194,0,0,1-.2.17.4166.4166,0,0,1-.6-.03.40084.40084,0,0,1-.02-.6c.29-.33.61-.65.91-.97.04-.04.08-.09.14-.15H42.45A13.45312,13.45312,0,0,1,50.63,36.59Z" transform="translate(0 -0.0025)"/>
    </g>
  </g>
</svg>
