<svg id="Layer_1" data-name="Layer 1" xmlns="http://www.w3.org/2000/svg" viewBox="0 0 75 74.995">
  <g id="shapes">
    <path d="M1.5,22.27V52.72A5.02513,5.02513,0,0,0,4.25,57.2L35.23,72.95a5.00035,5.00035,0,0,0,4.55,0L70.75,57.2a5.04366,5.04366,0,0,0,2.75-4.48V22.27a5.02513,5.02513,0,0,0-2.75-4.48L39.78,2.05a5.00035,5.00035,0,0,0-4.55,0L4.25,17.8A4.99881,4.99881,0,0,0,1.5,22.27Z" transform="translate(0 -0.0025)" fill="#969" stroke="#000" stroke-miterlimit="10" stroke-width="3"/>
  </g>
  <g id="mesh">
    <g>
      <path d="M32.57,15.05c1.77.13,3.54.27,5.31.41,1.83.14,3.67.28,5.5.43.7.05,1.4.11,2.1.17a.67578.67578,0,0,1,.33.13c3.32,2.32,6.63,4.63,9.94,6.96a.75606.75606,0,0,1,.23.3q1.965,5.385,3.92,10.76a1.643,1.643,0,0,1,.04.82q-.87,5.64-1.73,11.26c-.06.36-.09.73-.17,1.08a1.81123,1.81123,0,0,1-.25.59q-2.415,3.405-4.86,6.81a.81921.81921,0,0,1-.34.27q-5.88,2.46-11.77,4.9a1.4932,1.4932,0,0,1-.76.04q-6.69-.945-13.37-1.9a1.11226,1.11226,0,0,1-.71-.38q-4.815-5.31-9.64-10.61a1.11414,1.11414,0,0,1-.32-.72c-.17-2.8-.36-5.6-.55-8.4-.14-2.1-.29-4.19-.43-6.29a.61469.61469,0,0,1,.07-.35c1.39-2.56,2.8-5.12,4.19-7.68.61-1.11,1.21-2.23,1.82-3.34a.53206.53206,0,0,1,.22-.2l10.71-4.86c.18-.08.35-.16.53-.24C32.56,15.02,32.57,15.03,32.57,15.05Zm8.38,20.58q-4.125,4.125-8.26,8.25c3.71.99,7.45,1.98,11.25,2.99Q42.425,41.155,40.95,35.63Zm-9.43,6.39,8.09-8.09c-2.92-1.21-5.86-2.43-8.85-3.67C31.01,34.23,31.27,38.13,31.52,42.02Zm14.23,4.03c2.25-2.99,4.45-5.92,6.69-8.88-3.24-.75-6.42-1.48-9.65-2.23C43.78,38.67,44.76,42.32,45.75,46.05Zm3.57-20c-3.45-1.48-6.86-2.94-10.32-4.43,1,3.48,1.97,6.88,2.96,10.32C44.43,29.97,46.85,28.03,49.32,26.05ZM28.86,31.12c-2.18,2.42-4.31,4.78-6.47,7.17,2.39,1.43,4.75,2.85,7.17,4.3C29.33,38.75,29.1,34.98,28.86,31.12Zm11.06.79c-.97-3.36-1.91-6.64-2.87-9.98-1.92,2.16-3.8,4.27-5.71,6.41C34.2,29.53,37.02,30.71,39.92,31.91ZM22.03,35.67a.23535.23535,0,0,0,.08.02c2.07-2.29,4.15-4.59,6.17-6.83-1.87-1.88-3.72-3.72-5.56-5.57C22.49,27.4,22.26,31.54,22.03,35.67Zm28.61-8.18c-2.36,1.89-4.68,3.75-7.05,5.65,3.08.71,6.09,1.4,9.16,2.11C52.03,32.63,51.34,30.09,50.64,27.49ZM32.96,45.99c-.01.02-.03.04-.04.06,1.59,2.52,3.19,5.03,4.8,7.58,1.87-1.63,3.71-3.24,5.59-4.88C39.82,47.81,36.39,46.9,32.96,45.99Zm22.84.43c-.7-2.56-1.4-5.08-2.11-7.66-2.09,2.8-4.15,5.55-6.26,8.36C50.27,46.88,53.02,46.65,55.8,46.42ZM24.24,21.77l5.47,5.47c1.8-2.02,3.63-4.07,5.5-6.17C31.49,21.31,27.85,21.54,24.24,21.77ZM57.75,34.02c-1.08-2.95-2.14-5.86-3.21-8.79-.75.38-1.47.74-2.2,1.1.81,2.98,1.61,5.93,2.41,8.91C55.78,34.83,56.75,34.43,57.75,34.02ZM34.9,52.94a.21813.21813,0,0,1,.04-.05q-2.265-3.54-4.55-7.11c-1.54,1.1-3.04,2.17-4.58,3.27C28.87,50.36,31.89,51.65,34.9,52.94Zm5.5.95.03.06c3.07-.21,6.14-.42,9.29-.63-1.5-1.28-2.94-2.51-4.39-3.75C43.67,51.02,42.03,52.45,40.4,53.89ZM22.45,40.56c.66,2.4,1.3,4.72,1.95,7.08,1.51-1.08,2.98-2.13,4.49-3.21C26.74,43.14,24.64,41.87,22.45,40.56Zm3.09,10.5c.63,1.68,1.23,3.29,1.83,4.91q3.36-.6,6.69-1.2V54.7C31.24,53.5,28.43,52.3,25.54,51.06Zm-4.9-25.71c-.02,0-.04-.01-.06-.01-.02.04-.05.08-.07.12-1.08,1.99-2.16,3.97-3.24,5.96a.32985.32985,0,0,0,.04.4c.86,1.2,1.71,2.4,2.57,3.59a1.46579,1.46579,0,0,0,.19.21C20.26,32.16,20.45,28.75,20.64,25.35Zm19.49-5.33c2.79,1.19,5.54,2.37,8.36,3.57-.07-.12-.08-.16-.11-.2-1.11-1.67-2.23-3.34-3.34-5.01-.11-.16-.2-.15-.35-.09-1.45.55-2.9,1.08-4.35,1.63C40.29,19.94,40.24,19.97,40.13,20.02ZM55,48.47c-2.45.21-4.82.41-7.26.61,1.45,1.24,2.84,2.43,4.24,3.63C52.98,51.3,53.97,49.92,55,48.47Zm-32.64-.89c-.59-2.13-1.15-4.18-1.74-6.32-.79,1.57-1.53,3.07-2.29,4.58C19.67,46.42,20.98,46.98,22.36,47.58Zm-4.65-5.06a.12683.12683,0,0,1,.06.01l.06-.09c.62-1.22,1.24-2.44,1.84-3.67a.41092.41092,0,0,0-.05-.34c-.54-.77-1.08-1.53-1.63-2.29-.23-.32-.46-.65-.69-.97-.02.01-.04.01-.06.02C17.4,37.63,17.55,40.07,17.71,42.52Zm9.58-22.98c0,.02.01.04.01.06,2.5-.16,5.01-.31,7.53-.47-.03-.06-.04-.09-.06-.1-.73-.59-1.46-1.18-2.2-1.75a.34851.34851,0,0,0-.3,0c-.79.35-1.57.71-2.36,1.07C29.04,18.73,28.17,19.13,27.29,19.54Zm27.99,17.6c.49,1.79.97,3.55,1.46,5.31.02,0,.04-.01.06-.01.31-2.07.63-4.14.95-6.27C56.9,36.5,56.1,36.81,55.28,37.14ZM46.13,55.6c0-.02-.01-.04-.01-.07-2.23.15-4.46.29-6.75.44.49.65.94,1.25,1.4,1.86C42.58,57.09,44.35,56.34,46.13,55.6Zm7.04-31.9c-1.36-.96-2.67-1.88-3.98-2.81l-.05.05c.79,1.19,1.58,2.37,2.39,3.58ZM35.84,17.27c-.01.02-.02.05-.03.07.6.48,1.19.96,1.8,1.43.06.05.2.02.28-.01.89-.33,1.77-.66,2.66-.99a1.76112,1.76112,0,0,0,.23-.12C39.09,17.52,37.46,17.39,35.84,17.27ZM38.13,57.7c.02-.02.03-.04.05-.06-.34-.45-.68-.91-1.04-1.35a.32917.32917,0,0,0-.28-.05c-1.23.22-2.45.44-3.68.66-.04.01-.08.04-.17.08C34.75,57.22,36.44,57.46,38.13,57.7ZM20.89,49.05l-.05.05c1.04,1.14,2.07,2.28,3.11,3.42-.25-.84-.55-1.64-.86-2.44a.29736.29736,0,0,0-.14-.13C22.26,49.65,21.58,49.35,20.89,49.05Z" transform="translate(0 -0.0025)"/>
      <path d="M40.95,35.63q1.47,5.535,2.99,11.24-5.7-1.515-11.25-2.99Q36.83,39.755,40.95,35.63Z" transform="translate(0 -0.0025)" fill="#fff"/>
      <path d="M31.52,42.02c-.25-3.89-.5-7.79-.76-11.75,2.99,1.24,5.93,2.46,8.85,3.67C36.9,36.64,34.21,39.32,31.52,42.02Z" transform="translate(0 -0.0025)" fill="#fff"/>
      <path d="M45.75,46.05c-1-3.73-1.97-7.39-2.96-11.11,3.23.75,6.41,1.48,9.65,2.23C50.2,40.13,48,43.06,45.75,46.05Z" transform="translate(0 -0.0025)" fill="#fff"/>
      <path d="M49.32,26.05c-2.47,1.98-4.89,3.92-7.36,5.89C40.98,28.5,40,25.11,39,21.63,42.47,23.11,45.87,24.57,49.32,26.05Z" transform="translate(0 -0.0025)" fill="#fff"/>
      <path d="M28.86,31.12c.24,3.85.47,7.63.7,11.48-2.42-1.45-4.78-2.87-7.17-4.3C24.55,35.91,26.68,33.54,28.86,31.12Z" transform="translate(0 -0.0025)" fill="#fff"/>
      <path d="M39.92,31.91c-2.9-1.21-5.71-2.38-8.58-3.57,1.91-2.14,3.78-4.25,5.71-6.41C38.01,25.27,38.95,28.56,39.92,31.91Z" transform="translate(0 -0.0025)" fill="#fff"/>
      <path d="M22.03,35.67c.23-4.13.46-8.27.69-12.38,1.84,1.85,3.69,3.7,5.56,5.57-2.03,2.24-4.1,4.53-6.17,6.83A.2351.2351,0,0,1,22.03,35.67Z" transform="translate(0 -0.0025)" fill="#fff"/>
      <path d="M50.64,27.49c.71,2.6,1.4,5.14,2.11,7.75-3.07-.7-6.07-1.4-9.16-2.11C45.96,31.23,48.28,29.38,50.64,27.49Z" transform="translate(0 -0.0025)" fill="#fff"/>
      <path d="M32.96,45.99c3.43.91,6.86,1.83,10.35,2.75-1.88,1.64-3.72,3.25-5.59,4.88q-2.415-3.81-4.8-7.58A.21813.21813,0,0,0,32.96,45.99Z" transform="translate(0 -0.0025)" fill="#fff"/>
      <path d="M55.8,46.42c-2.78.23-5.53.46-8.36.7,2.11-2.82,4.16-5.56,6.26-8.36C54.4,41.34,55.09,43.86,55.8,46.42Z" transform="translate(0 -0.0025)" fill="#fff"/>
      <path d="M24.24,21.77c3.61-.23,7.25-.46,10.97-.7-1.87,2.1-3.7,4.15-5.5,6.17Z" transform="translate(0 -0.0025)" fill="#fff"/>
      <path d="M57.75,34.02c-1,.41-1.97.81-2.99,1.22-.81-2.98-1.61-5.93-2.41-8.91.73-.36,1.44-.72,2.2-1.1C55.61,28.16,56.67,31.07,57.75,34.02Z" transform="translate(0 -0.0025)" fill="#fff"/>
      <path d="M34.9,52.94c-3.01-1.29-6.02-2.58-9.08-3.89,1.54-1.1,3.04-2.17,4.58-3.27,1.52,2.38,3.03,4.74,4.55,7.11A.08215.08215,0,0,0,34.9,52.94Z" transform="translate(0 -0.0025)" fill="#fff"/>
      <path d="M40.4,53.89q2.46-2.16,4.93-4.33c1.45,1.24,2.89,2.47,4.39,3.75-3.15.22-6.22.42-9.29.63C40.41,53.93,40.41,53.91,40.4,53.89Z" transform="translate(0 -0.0025)" fill="#fff"/>
      <path d="M22.45,40.56c2.18,1.31,4.29,2.58,6.44,3.87-1.5,1.07-2.97,2.12-4.49,3.21C23.75,45.28,23.12,42.96,22.45,40.56Z" transform="translate(0 -0.0025)" fill="#fff"/>
      <path d="M25.54,51.06c2.89,1.24,5.71,2.44,8.52,3.64v.07c-2.22.4-4.44.8-6.69,1.2C26.76,54.35,26.17,52.75,25.54,51.06Z" transform="translate(0 -0.0025)" fill="#fff"/>
      <path d="M20.64,25.35c-.19,3.4-.38,6.8-.57,10.27a2.43567,2.43567,0,0,0-.19-.21c-.86-1.2-1.71-2.4-2.57-3.59a.31641.31641,0,0,1-.04-.4q1.62-2.97,3.24-5.96c.02-.04.05-.08.07-.12A.12683.12683,0,0,0,20.64,25.35Z" transform="translate(0 -0.0025)" fill="#fff"/>
      <path d="M40.13,20.02c.11-.05.16-.08.22-.1,1.45-.54,2.9-1.08,4.35-1.63.15-.06.24-.07.35.09q1.665,2.505,3.34,5.01a1.30912,1.30912,0,0,1,.11.2C45.68,22.39,42.93,21.21,40.13,20.02Z" transform="translate(0 -0.0025)" fill="#fff"/>
      <path d="M55,48.47c-1.03,1.45-2.02,2.83-3.02,4.24-1.4-1.2-2.79-2.39-4.24-3.63C50.18,48.87,52.55,48.67,55,48.47Z" transform="translate(0 -0.0025)" fill="#fff"/>
      <path d="M22.36,47.58c-1.38-.6-2.69-1.16-4.03-1.74.75-1.51,1.5-3,2.29-4.58C21.21,43.39,21.77,45.45,22.36,47.58Z" transform="translate(0 -0.0025)" fill="#fff"/>
      <path d="M17.71,42.52c-.16-2.44-.31-4.89-.47-7.33.02-.01.04-.01.06-.02.23.32.46.65.69.97.55.76,1.1,1.52,1.63,2.29a.41609.41609,0,0,1,.05.34c-.6,1.23-1.22,2.45-1.84,3.67l-.06.09A.12683.12683,0,0,0,17.71,42.52Z" transform="translate(0 -0.0025)" fill="#fff"/>
      <path d="M27.29,19.54c.88-.4,1.75-.81,2.63-1.21.78-.36,1.57-.72,2.36-1.07a.35.35,0,0,1,.3,0c.74.58,1.47,1.17,2.2,1.75a.63619.63619,0,0,1,.06.1c-2.53.16-5.03.32-7.53.47C27.3,19.58,27.29,19.56,27.29,19.54Z" transform="translate(0 -0.0025)" fill="#fff"/>
      <path d="M55.28,37.14c.83-.33,1.62-.64,2.47-.97-.32,2.13-.64,4.2-.95,6.27-.02,0-.04.01-.06.01C56.25,40.69,55.77,38.93,55.28,37.14Z" transform="translate(0 -0.0025)" fill="#fff"/>
      <path d="M46.13,55.6c-1.78.74-3.56,1.49-5.36,2.24-.46-.61-.91-1.21-1.4-1.86,2.29-.15,4.52-.3,6.75-.44A.12683.12683,0,0,1,46.13,55.6Z" transform="translate(0 -0.0025)" fill="#fff"/>
      <path d="M53.17,23.7c-.57.29-1.1.55-1.65.82-.8-1.2-1.59-2.39-2.39-3.58l.05-.05C50.5,21.82,51.81,22.74,53.17,23.7Z" transform="translate(0 -0.0025)" fill="#fff"/>
      <path d="M35.84,17.27c1.62.12,3.24.25,4.94.38-.12.06-.17.1-.23.12-.88.33-1.77.67-2.66.99a.3901.3901,0,0,1-.28.01c-.61-.47-1.2-.95-1.8-1.43C35.82,17.32,35.83,17.29,35.84,17.27Z" transform="translate(0 -0.0025)" fill="#fff"/>
      <path d="M38.13,57.7c-1.69-.24-3.38-.48-5.12-.72.09-.04.13-.07.17-.08,1.23-.22,2.45-.45,3.68-.66a.32917.32917,0,0,1,.28.05c.36.44.7.9,1.04,1.35A.26513.26513,0,0,0,38.13,57.7Z" transform="translate(0 -0.0025)" fill="#fff"/>
      <path d="M20.89,49.05c.69.3,1.37.6,2.06.9a.22581.22581,0,0,1,.14.13c.31.8.61,1.6.86,2.44-1.04-1.14-2.07-2.28-3.11-3.42Z" transform="translate(0 -0.0025)" fill="#fff"/>
    </g>
  </g>
</svg>
