<svg id="Layer_1" data-name="Layer 1" xmlns="http://www.w3.org/2000/svg" viewBox="0 0 75 74.995">
  <g id="shapes">
    <path d="M1.5,22.27V52.72A5.02513,5.02513,0,0,0,4.25,57.2L35.23,72.95a5.00035,5.00035,0,0,0,4.55,0L70.75,57.2a5.04366,5.04366,0,0,0,2.75-4.48V22.27a5.02513,5.02513,0,0,0-2.75-4.48L39.78,2.05a5.00035,5.00035,0,0,0-4.55,0L4.25,17.8A4.99881,4.99881,0,0,0,1.5,22.27Z" transform="translate(0 -0.0025)" fill="#969" stroke="#000" stroke-miterlimit="10" stroke-width="3"/>
  </g>
  <g id="network">
    <g opacity="0.35">
      <path d="M38.5,62.98A25.49829,25.49829,0,1,1,62.97,36.24,25.51593,25.51593,0,0,1,38.5,62.98Zm15.38-24.4c-.06-.13-.11-.25-.17-.38a6.96669,6.96669,0,0,0-.95.75A41.88858,41.88858,0,0,1,36.03,50.49c-1.02.37-1.16,1.15-.35,1.86a28.55109,28.55109,0,0,0,10.45,6.1,3.39554,3.39554,0,0,0,2.35-.21A23.25706,23.25706,0,0,0,60.06,43.61a2.2498,2.2498,0,0,0-.14-1.66,29.78337,29.78337,0,0,0-2.52-3.31,1.51871,1.51871,0,0,0-1.09-.45A22.73643,22.73643,0,0,0,53.88,38.58Zm-17-7.98a48.31785,48.31785,0,0,0-3.94,15.88,2.02322,2.02322,0,0,0,2.64,1.93A38.52014,38.52014,0,0,0,51.16,37.59a1.81289,1.81289,0,0,0,.26-1.13c-.01-1.01-.08-2.02-.17-3.03a1.26939,1.26939,0,0,0-.32-.82,26.11794,26.11794,0,0,0-9.33-4.64C39.96,30.24,39.8,30.33,36.88,30.6ZM28.73,47.8a30.55342,30.55342,0,0,1-5.81-13.97c-.25-1.67-.31-3.04-2.23-4.1a4.0125,4.0125,0,0,0-3.57-.33,3.25517,3.25517,0,0,0-2.52,2.86,22.39852,22.39852,0,0,0,1.17,13.99c2.31,5.14,1.35,4.52,6.92,4.48.5,0,.99-.05,1.49-.04C26.24,50.74,28.19,50.61,28.73,47.8ZM39.82,23.48a14.35161,14.35161,0,0,0,2.66,2.5c2.95,1.57,6.1,2.79,9.01,4.43,2.4,1.35,4.41.95,5.56-1.58a15.15672,15.15672,0,0,0,.76-1.93,1.482,1.482,0,0,0-.02-1.08A23.36642,23.36642,0,0,0,43.93,14.96C42.56,17.8,41.23,20.55,39.82,23.48Zm2.01-9.02A24.72388,24.72388,0,0,0,29.3,15.49c-2.46.82-4.02,2.12-4.03,4.86a9.32244,9.32244,0,0,1-.22,1.47c-.38,2.31.67,3.44,3.02,3.29,1.39-.09,2.78-.17,4.16-.15,1.26.02,2.42.08,3.27-1.16.29-.42,1.03-.51,1.55-.79.36-.19.85-.37,1.01-.69C39.33,19.77,40.53,17.18,41.83,14.46Zm-14.8,12.8c-.8,1.07-1.42,1.82-1.95,2.62a2.00882,2.00882,0,0,0-.38,1.16,29.32708,29.32708,0,0,0,5.27,14.94c.2.28.47.51.91,1a45.2625,45.2625,0,0,1,3.24-14.9c.73-1.77.98-3.34-.42-5.07C31.52,27.08,29.15,27.18,27.03,27.26Zm4.56,32.92a23.1389,23.1389,0,0,0,11.89.01c-2.93-1.96-5.91-3.97-8.89-5.97a2.029,2.029,0,0,0-2.53,1.09C31.86,56.87,31.76,58.45,31.59,60.18ZM19.74,52.8a23.805,23.805,0,0,0,9.81,6.74c.14-2.45,1.34-4.86-1.31-6.52a2.22036,2.22036,0,0,0-1.08-.48C24.84,52.58,22.53,52.69,19.74,52.8Zm39.7-23.48c-2.84,1.98-.4,4.64-.96,6.99-.18.77,1.37,1.94,2.37,3.25A22.9291,22.9291,0,0,0,59.44,29.32ZM16.39,27.36c1.55-.26,2.66-.63,3.19-2.27.26-.8,1.47-1.31,2.26-1.93.28-.22.82-.33.88-.57.27-1.11.4-2.25.64-3.75A22.95278,22.95278,0,0,0,16.39,27.36Z" transform="translate(0 -0.0025)"/>
      <path d="M53.88,38.58a20.42747,20.42747,0,0,1,2.43-.38,1.51871,1.51871,0,0,1,1.09.45,29.78215,29.78215,0,0,1,2.52,3.31,2.2498,2.2498,0,0,1,.14,1.66A23.30793,23.30793,0,0,1,48.48,58.25a3.35016,3.35016,0,0,1-2.35.21,28.47007,28.47007,0,0,1-10.45-6.1c-.81-.71-.67-1.49.35-1.86A42.09008,42.09008,0,0,0,52.76,38.96a7.83974,7.83974,0,0,1,.95-.75C53.77,38.32,53.82,38.45,53.88,38.58Z" transform="translate(0 -0.0025)" fill="#fff"/>
      <path d="M36.88,30.6c2.92-.27,3.08-.36,4.73-2.64a26.28167,26.28167,0,0,1,9.33,4.64,1.31428,1.31428,0,0,1,.32.82c.09,1.01.15,2.02.17,3.03a1.81289,1.81289,0,0,1-.26,1.13A38.45292,38.45292,0,0,1,35.59,48.4a2.02322,2.02322,0,0,1-2.64-1.93A48.30868,48.30868,0,0,1,36.88,30.6Z" transform="translate(0 -0.0025)" fill="#fff"/>
      <path d="M28.73,47.8c-.55,2.81-2.49,2.94-4.55,2.89-.5-.01-.99.04-1.49.04-5.57.04-4.6.66-6.92-4.48A22.41052,22.41052,0,0,1,14.6,32.26a3.24319,3.24319,0,0,1,2.52-2.86,3.981,3.981,0,0,1,3.57.33c1.92,1.06,1.98,2.42,2.23,4.1A30.55342,30.55342,0,0,0,28.73,47.8Z" transform="translate(0 -0.0025)" fill="#fff"/>
      <path d="M39.82,23.48c1.41-2.92,2.74-5.68,4.11-8.52A23.3373,23.3373,0,0,1,57.79,25.82a1.594,1.594,0,0,1,.02,1.08,13.80443,13.80443,0,0,1-.76,1.93c-1.14,2.52-3.16,2.92-5.56,1.58-2.91-1.64-6.06-2.86-9.01-4.43A14.35161,14.35161,0,0,1,39.82,23.48Z" transform="translate(0 -0.0025)" fill="#fff"/>
      <path d="M41.83,14.46c-1.29,2.72-2.5,5.31-3.77,7.87-.16.32-.65.49-1.01.69-.52.28-1.26.37-1.55.79-.85,1.24-2.01,1.18-3.27,1.16-1.39-.03-2.78.06-4.16.15-2.35.14-3.39-.98-3.02-3.29a9.32244,9.32244,0,0,0,.22-1.47c.01-2.74,1.57-4.04,4.03-4.86A24.60742,24.60742,0,0,1,41.83,14.46Z" transform="translate(0 -0.0025)" fill="#fff"/>
      <path d="M27.03,27.26c2.12-.08,4.48-.17,6.66-.26,1.41,1.72,1.15,3.3.42,5.07a45.2625,45.2625,0,0,0-3.24,14.9c-.44-.48-.71-.72-.91-1a29.23577,29.23577,0,0,1-5.27-14.94,2.00882,2.00882,0,0,1,.38-1.16C25.61,29.08,26.23,28.32,27.03,27.26Z" transform="translate(0 -0.0025)" fill="#fff"/>
      <path d="M31.59,60.18c.16-1.73.26-3.31.47-4.87.11-.86,1.84-1.55,2.53-1.09,2.98,2,5.97,4.01,8.89,5.97A23.24675,23.24675,0,0,1,31.59,60.18Z" transform="translate(0 -0.0025)" fill="#fff"/>
      <path d="M19.74,52.8c2.78-.11,5.1-.22,7.42-.26a2.26088,2.26088,0,0,1,1.08.48c2.65,1.65,1.45,4.07,1.31,6.52A23.805,23.805,0,0,1,19.74,52.8Z" transform="translate(0 -0.0025)" fill="#fff"/>
      <path d="M59.44,29.32a22.90529,22.90529,0,0,1,1.41,10.23c-1-1.3-2.55-2.48-2.37-3.25C59.04,33.96,56.6,31.3,59.44,29.32Z" transform="translate(0 -0.0025)" fill="#fff"/>
      <path d="M16.39,27.36a22.95278,22.95278,0,0,1,6.97-8.52c-.24,1.5-.38,2.64-.64,3.75-.06.25-.6.35-.88.57-.79.62-2,1.13-2.26,1.93C19.05,26.73,17.94,27.1,16.39,27.36Z" transform="translate(0 -0.0025)" fill="#fff"/>
    </g>
    <g>
      <path d="M37.49,12A25.5,25.5,0,1,1,12,37.78,25.52141,25.52141,0,0,1,37.49,12ZM21.17,35.79l.15.39a7.004,7.004,0,0,0,.98-.71A42.01638,42.01638,0,0,1,39.46,24.58c1.03-.33,1.2-1.1.42-1.85a28.48453,28.48453,0,0,0-10.21-6.5,3.36517,3.36517,0,0,0-2.36.12A23.27643,23.27643,0,0,0,15.17,30.52a2.25539,2.25539,0,0,0,.08,1.66,31.97976,31.97976,0,0,0,2.39,3.4,1.49432,1.49432,0,0,0,1.07.49A22.034,22.034,0,0,0,21.17,35.79Zm16.68,8.63A48.29,48.29,0,0,0,42.4,28.71a2.02531,2.02531,0,0,0-2.56-2.03A38.49706,38.49706,0,0,0,23.85,36.89a1.77884,1.77884,0,0,0-.3,1.12c-.03,1.01,0,2.02.05,3.03a1.24221,1.24221,0,0,0,.29.84,26.0212,26.0212,0,0,0,9.14,5C34.76,44.66,34.92,44.58,37.85,44.42Zm8.81-16.87a30.70254,30.70254,0,0,1,5.27,14.19c.19,1.68.2,3.05,2.07,4.18a4.01268,4.01268,0,0,0,3.55.47,3.22686,3.22686,0,0,0,2.62-2.76,22.42875,22.42875,0,0,0-.63-14.03c-2.11-5.22-1.17-4.57-6.74-4.74-.5-.02-.99.01-1.49-.02C49.26,24.71,47.31,24.76,46.66,27.55ZM34.64,51.42a14.70116,14.70116,0,0,0-2.56-2.6c-2.89-1.69-5.99-3.03-8.83-4.78-2.34-1.44-4.37-1.12-5.61,1.36a15.1839,15.1839,0,0,0-.83,1.9,1.5514,1.5514,0,0,0-.03,1.08A23.33045,23.33045,0,0,0,30.21,59.77C31.69,56.99,33.12,54.29,34.64,51.42Zm-2.35,8.93a24.7207,24.7207,0,0,0,12.56-.54c2.49-.73,4.1-1.96,4.22-4.7a10.68808,10.68808,0,0,1,.27-1.46c.46-2.3-.53-3.46-2.89-3.4-1.39.03-2.78.06-4.16-.01-1.26-.07-2.42-.17-3.31,1.03-.3.41-1.05.47-1.58.73-.37.18-.86.33-1.03.65C34.99,55.14,33.68,57.68,32.29,60.35ZM47.56,48.14c.84-1.03,1.49-1.76,2.05-2.54a2.05919,2.05919,0,0,0,.43-1.14,29.28726,29.28726,0,0,0-4.69-15.13c-.19-.29-.45-.53-.87-1.03a45.35056,45.35056,0,0,1-3.82,14.77c-.8,1.74-1.11,3.3.23,5.08C43.08,48.14,45.45,48.14,47.56,48.14ZM44.28,15.07A23.09588,23.09588,0,0,0,32.4,14.6c2.85,2.08,5.75,4.19,8.66,6.31a2.02852,2.02852,0,0,0,2.57-.99C43.89,18.36,44.05,16.79,44.28,15.07ZM55.84,22.9a23.8093,23.8093,0,0,0-9.54-7.11c-.24,2.44-1.52,4.81,1.06,6.56a2.24038,2.24038,0,0,0,1.06.52C50.73,22.92,53.05,22.9,55.84,22.9ZM15.26,44.83c2.92-1.87.58-4.63,1.23-6.94.21-.76-1.29-2-2.24-3.33A22.83088,22.83088,0,0,0,15.26,44.83Zm42.95,3.62c-1.56.2-2.68.53-3.28,2.14-.29.79-1.52,1.25-2.33,1.84-.29.21-.83.29-.9.54-.31,1.1-.49,2.23-.79,3.72A22.91394,22.91394,0,0,0,58.21,48.45Z" transform="translate(0 -0.0025)"/>
      <path d="M21.17,35.79a22.71686,22.71686,0,0,1-2.45.29,1.49428,1.49428,0,0,1-1.07-.49,29.32358,29.32358,0,0,1-2.39-3.4,2.30614,2.30614,0,0,1-.08-1.66A23.2144,23.2144,0,0,1,27.32,16.36a3.36517,3.36517,0,0,1,2.36-.12,28.48453,28.48453,0,0,1,10.21,6.5c.78.74.61,1.52-.42,1.85A41.84794,41.84794,0,0,0,22.31,35.48a7.004,7.004,0,0,1-.98.71C21.28,36.05,21.23,35.92,21.17,35.79Z" transform="translate(0 -0.0025)" fill="#fff" opacity="0.5" style="isolation: isolate"/>
      <path d="M37.85,44.42c-2.93.16-3.09.24-4.82,2.45a26.10856,26.10856,0,0,1-9.14-5,1.27479,1.27479,0,0,1-.29-.84c-.05-1.01-.07-2.02-.05-3.03a1.77884,1.77884,0,0,1,.3-1.12A38.533,38.533,0,0,1,39.84,26.67,2.02191,2.02191,0,0,1,42.4,28.7,48.34642,48.34642,0,0,1,37.85,44.42Z" transform="translate(0 -0.0025)" fill="#fff" opacity="0.5" style="isolation: isolate"/>
      <path d="M46.66,27.55c.65-2.79,2.6-2.84,4.66-2.72.49.03.99,0,1.49.02,5.57.18,4.63-.48,6.74,4.74a22.49976,22.49976,0,0,1,.63,14.03,3.24989,3.24989,0,0,1-2.62,2.76,4.01267,4.01267,0,0,1-3.55-.47c-1.87-1.13-1.88-2.5-2.07-4.18A30.83,30.83,0,0,0,46.66,27.55Z" transform="translate(0 -0.0025)" fill="#fff" opacity="0.5" style="isolation: isolate"/>
      <path d="M34.64,51.42c-1.52,2.87-2.95,5.57-4.43,8.35A23.33052,23.33052,0,0,1,16.78,48.38a1.49731,1.49731,0,0,1,.03-1.08,15.184,15.184,0,0,1,.83-1.9c1.24-2.48,3.27-2.8,5.61-1.36,2.85,1.75,5.94,3.09,8.83,4.78A14.70157,14.70157,0,0,1,34.64,51.42Z" transform="translate(0 -0.0025)" fill="#fff" opacity="0.5" style="isolation: isolate"/>
      <path d="M32.29,60.35c1.4-2.67,2.7-5.21,4.07-7.72.17-.31.66-.47,1.03-.65.53-.26,1.27-.32,1.58-.73.9-1.2,2.06-1.1,3.31-1.03,1.38.08,2.78.05,4.16.01,2.35-.05,3.35,1.11,2.89,3.4a9.14515,9.14515,0,0,0-.27,1.46c-.12,2.74-1.73,3.98-4.22,4.7A24.46058,24.46058,0,0,1,32.29,60.35Z" transform="translate(0 -0.0025)" fill="#fff" opacity="0.5" style="isolation: isolate"/>
      <path d="M47.56,48.14H40.89c-1.34-1.78-1.02-3.34-.23-5.08a45.60332,45.60332,0,0,0,3.82-14.77,12.28587,12.28587,0,0,1,.87,1.03,29.28726,29.28726,0,0,1,4.69,15.13,1.987,1.987,0,0,1-.43,1.14C49.05,46.38,48.41,47.11,47.56,48.14Z" transform="translate(0 -0.0025)" fill="#fff" opacity="0.5" style="isolation: isolate"/>
      <path d="M44.28,15.07c-.23,1.72-.39,3.29-.66,4.85a2.02852,2.02852,0,0,1-2.57.99c-2.9-2.12-5.81-4.23-8.66-6.31A23.13394,23.13394,0,0,1,44.28,15.07Z" transform="translate(0 -0.0025)" fill="#fff" opacity="0.5" style="isolation: isolate"/>
      <path d="M55.84,22.9c-2.79,0-5.11.02-7.42-.02a2.33716,2.33716,0,0,1-1.06-.52c-2.58-1.76-1.29-4.12-1.06-6.56A23.60058,23.60058,0,0,1,55.84,22.9Z" transform="translate(0 -0.0025)" fill="#fff" opacity="0.5" style="isolation: isolate"/>
      <path d="M15.26,44.83a22.86013,22.86013,0,0,1-1.01-10.28c.95,1.34,2.45,2.58,2.24,3.33C15.84,40.2,18.18,42.95,15.26,44.83Z" transform="translate(0 -0.0025)" fill="#fff" opacity="0.5" style="isolation: isolate"/>
      <path d="M58.21,48.45a22.99627,22.99627,0,0,1-7.3,8.24c.3-1.49.48-2.62.79-3.72.07-.24.61-.33.9-.54.82-.59,2.04-1.05,2.33-1.84C55.52,48.98,56.64,48.65,58.21,48.45Z" transform="translate(0 -0.0025)" fill="#fff" opacity="0.5" style="isolation: isolate"/>
    </g>
  </g>
</svg>
