<svg id="Layer_1" data-name="Layer 1" xmlns="http://www.w3.org/2000/svg" viewBox="0 0 75 75.00029">
  <g id="shapes">
    <path id="seaplane" d="M68.39,1.5H6.61A5.07879,5.07879,0,0,0,1.5,6.6V52.19a5.09586,5.09586,0,0,0,2.72,4.52L35.17,72.93a5.02678,5.02678,0,0,0,4.65,0L70.78,56.7a5.10738,5.10738,0,0,0,2.72-4.52V6.6A5.07879,5.07879,0,0,0,68.39,1.5Z" transform="translate(0 0.00029)" fill="#6bcef5" stroke="#000" stroke-miterlimit="10" stroke-width="3"/>
  </g>
  <g id="seaplane-2" data-name="seaplane">
    <g>
      <path d="M27.43,57.82h-.11a2.38126,2.38126,0,0,0-.05-.26q-1.905-5.85-3.84-11.69a.99548.99548,0,0,0-.49-.48q-2.79-1.35-5.61-2.65c-2.05-.96-4.1-1.9-6.15-2.86v-.11a2.35385,2.35385,0,0,0,.44-.17Q27.1,30.825,42.56,22q8.97-5.115,17.94-10.22c.14-.08.23-.25.35-.37.63-.05.19.43.32.63a1.72306,1.72306,0,0,0-.28.49c-.9,3.5-1.78,7.01-2.67,10.51Q54.17,39.015,50.13,55c-.24.93-.44,1.88-.66,2.81h-.42a1.67977,1.67977,0,0,0-.37-.34q-7.65-3.615-15.31-7.24c-.38-.18-.54-.08-.76.22-1.32,1.88-2.67,3.74-3.99,5.62C28.2,56.65,27.82,57.24,27.43,57.82Zm.25-3.49c.04-.01.08-.01.12-.02.01-.17.03-.34.04-.51.16-1.94.33-3.89.47-5.83a1.67991,1.67991,0,0,1,.48-1.06q3.78-4.035,7.55-8.09Q46.735,27.66,57.13,16.49a2.17341,2.17341,0,0,0,.23-.3.41617.41617,0,0,0-.29.13q-3.495,3.255-6.98,6.5-8.925,8.31-17.85,16.63-3.435,3.195-6.86,6.4a.71132.71132,0,0,0-.2.56C26.01,49.06,26.85,51.69,27.68,54.33Z" transform="translate(0 0.00029)"/>
      <path d="M27.68,54.33c-.83-2.64-1.67-5.28-2.49-7.93a.64814.64814,0,0,1,.2-.56q3.42-3.21,6.86-6.4,8.925-8.31,17.85-16.63,3.495-3.255,6.98-6.5a.41617.41617,0,0,1,.29-.13c-.08.1-.15.21-.23.3Q46.745,27.64,36.35,38.81q-3.765,4.05-7.55,8.09a1.60817,1.60817,0,0,0-.48,1.06c-.14,1.95-.31,3.89-.47,5.83-.01.17-.03.34-.04.51A.34524.34524,0,0,1,27.68,54.33Z" transform="translate(0 0.00029)" fill="#fff" opacity="0.75" style="isolation: isolate"/>
    </g>
  </g>
</svg>
