<svg id="Layer_1" data-name="Layer 1" xmlns="http://www.w3.org/2000/svg" viewBox="0 0 75 75.00029">
  <g id="shapes">
    <path id="seaplane" d="M68.39,1.5H6.61A5.07879,5.07879,0,0,0,1.5,6.6V52.19a5.09586,5.09586,0,0,0,2.72,4.52L35.17,72.93a5.02678,5.02678,0,0,0,4.65,0L70.78,56.7a5.10738,5.10738,0,0,0,2.72-4.52V6.6A5.07879,5.07879,0,0,0,68.39,1.5Z" transform="translate(0 0.00029)" fill="#6acff6" stroke="#000" stroke-miterlimit="10" stroke-width="3"/>
  </g>
  <g id="seaplane-2" data-name="seaplane">
    <g>
      <path d="M57.48,36.41A19.99759,19.99759,0,1,1,36.6,16.85,20.034,20.034,0,0,1,57.48,36.41Zm-23.67.16c.3.26.61.41.73.65a1.22363,1.22363,0,0,0,1.44.8c.1-.02.26.1.35.2a1.65675,1.65675,0,0,1,.36,1.19c-.01.19.08.27.25.36a4.56528,4.56528,0,0,0,2.36.4.42435.42435,0,0,1,.47.26,1.03067,1.03067,0,0,0,.81.68c.19.02.2.13.18.3-.05.49-.42.77-.67,1.14a1.41969,1.41969,0,0,0-.23.46c-.08.58-.13,1.17-.19,1.76a.56.56,0,0,1-.09.3c-.32.27-.6.62-1.1.51a1.47874,1.47874,0,0,0-.42-.01.32456.32456,0,0,0-.22.1.85573.85573,0,0,0-.21.9,1.16026,1.16026,0,0,1,.11.48.83971.83971,0,0,1-.11.47c-.41.61-.85,1.22-1.28,1.82a.57528.57528,0,0,1-.24.2c-.48.18-.96.34-1.43.52a.39175.39175,0,0,0-.19.21c-.01.03.1.13.17.17a1.24729,1.24729,0,0,0,.27.1c.08.4-.31.5-.43.74.1.43.45.35.79.4-.06.26-.1.49-.17.71-.08.27-.08.48.19.65a2.93156,2.93156,0,0,1,.43.36c.13.12.09.43-.05.43-.42-.01-.85.13-1.25-.18a5.47256,5.47256,0,0,1-1.46-1.78,1.46259,1.46259,0,0,1-.21-1.05,1.51792,1.51792,0,0,0-.41-1.52.58385.58385,0,0,1-.1-.44c.04-.4.13-.79.2-1.21-.35-.03-.39-.23-.38-.5.02-.83.01-1.66,0-2.49a.4938.4938,0,0,0-.13-.34,3.68278,3.68278,0,0,0-.94-.65c-.41-.16-.75-.3-.76-.81,0-.07-.09-.14-.15-.21-.29-.36-.55-.74-.86-1.07a.88853.88853,0,0,1-.25-.97,1.27683,1.27683,0,0,0,.05-.55.80569.80569,0,0,1,.51-.91.71109.71109,0,0,0,.42-.92c-.13-.58-.09-.61-.7-.6A1.30442,1.30442,0,0,1,28,37.01a2.07054,2.07054,0,0,0-1.66-.96c-.17-.02-.27-.07-.21-.27a1.26475,1.26475,0,0,0,0-.28c-.21.02-.4.02-.59.05-.1.01-.19.1-.28.09-.15-.01-.3-.09-.44-.1a1.55742,1.55742,0,0,1-1.41-1.03.43716.43716,0,0,1-.01-.37c.16-.22.1-.38-.05-.58a3.59224,3.59224,0,0,1-.98-2.16.25965.25965,0,0,0-.04-.1h-.38c.09.5.02,1,.37,1.41a1.69552,1.69552,0,0,1,.33.52,1.79783,1.79783,0,0,1,.02.57c-.21-.05-.52-.04-.61-.17a2.55568,2.55568,0,0,1-.68-1.98.6395.6395,0,0,0-.52-.85c-.21-.05-.26-.2-.24-.4.01-.19,0-.39,0-.59A18.28132,18.28132,0,0,0,51.67,48.4c-.18-.02-.35-.03-.54-.05,0-.27-.02-.52,0-.77a.90124.90124,0,0,0-.25-.75,1.58681,1.58681,0,0,1-.46-1.4c.01-.1-.01-.2,0-.29a.69655.69655,0,0,0-.27-.66.85068.85068,0,0,1-.17-1.14c.14-.26.26-.53.41-.78a.42175.42175,0,0,0-.01-.48q-.525-.885-1.02-1.8a1.03137,1.03137,0,0,1-.1-.52c.02-.41.07-.82.11-1.25a3.03516,3.03516,0,0,0-.39-.04,1.30922,1.30922,0,0,1-1.11-.42.9826.9826,0,0,0-.98.03.84436.84436,0,0,1-.67.25c-.37.01-.74.1-1.11.11-.27.01-.57.13-.8-.14-.49-.57-1-1.13-1.49-1.7a.55987.55987,0,0,1-.13-.35c-.01-.38,0-.76.02-1.15,0-.08.03-.21.08-.23.33-.14.25-.41.27-.65-.39-.06-.37-.07-.49-.42-.09-.27.11-.35.25-.46.44-.32.87-.67,1.33-.95a.73116.73116,0,0,0,.39-.78c-.02-.18-.05-.47.05-.53a2.0879,2.0879,0,0,1,1.19-.55,2.33706,2.33706,0,0,0,1.03-.04,3.97032,3.97032,0,0,1,1.61-.36c.33-.03.66-.05,1.03-.07v1.03c.4.11.79.19,1.16.31.36.11.71.24,1.08.38.02-.26.03-.43.04-.58.79-.17.83-.16,1.45.28a1.16343,1.16343,0,0,0,.47.26c.4.04.81.01,1.21.01.2,0,.24-.1.17-.28a6.36465,6.36465,0,0,1-.28-.84c-.08-.35-.25-.46-.61-.44-.67.04-.98-.27-1.03-.95-.01-.11-.03-.23-.04-.35-.73.11-.51.81-.77,1.18-.12-.11-.24-.21-.35-.32-.17-.18-.39-.33-.35-.63a.74621.74621,0,0,0-.38-.77,1.035,1.035,0,0,1-.27-.24c-.29-.39-.67-.3-1.03-.26-.03.89.86.9,1.21,1.29-.05.22-.08.35-.11.49-.02.09.01.22-.04.28a.58425.58425,0,0,1-.97-.21c.21-.11.57.17.69-.26-.26-.18-.53-.35-.78-.53-.29-.21-.67-.33-.73-.8a1.3871,1.3871,0,0,0-.21.17.65866.65866,0,0,1-.8.26.29447.29447,0,0,0-.25.08,4.09475,4.09475,0,0,0-.78,1.05c-.19.49-.52.51-.92.51h-.52a.66664.66664,0,0,1-.76-.65,2.05334,2.05334,0,0,1-.06-.49c.01-.42.13-.67.49-.68.48,0,.96-.02,1.49-.03.02-.08.05-.23.09-.39-.14-.06-.26-.1-.38-.15a2.7069,2.7069,0,0,0,.05-.37c.02-.3.13-.48.48-.47a.89149.89149,0,0,0,.88-.55.73109.73109,0,0,1,.19-.26,1.14377,1.14377,0,0,1,.42-.25,5.04985,5.04985,0,0,1,.78-.02h.47c-.04-.28-.08-.54-.12-.83-.26.1-.49.18-.75.27a2.77092,2.77092,0,0,0-.2-.46.50907.50907,0,0,0-.25-.21c-.34-.09-.45-.4-.19-.63a2.82931,2.82931,0,0,1,.77-.45.70415.70415,0,0,0,.47-.52A18.1412,18.1412,0,0,0,26.91,21.9c.42.11.9.23,1.37.35.24.06.55.01.61.36,0,.02.05.05.08.05h1.12c-.05-.11-.08-.26-.13-.27-.34-.06-.68-.1-.97-.13.02-.14.08-.3.03-.4-.03-.07-.22-.09-.33-.1a4.86375,4.86375,0,0,0-.54,0,2.83821,2.83821,0,0,1,.87-.71,2.48455,2.48455,0,0,1,1.02-.07c.12.01.24.19.34.32a.82382.82382,0,0,0,1.32.12c.19-.2.35-.22.53-.03a1.31912,1.31912,0,0,1-1.49.67c.03.25.05.43.08.62h.98c.06,0,.15-.04.16-.08.08-.28.31-.23.51-.25.43-.03.43-.04.41-.48-.12-.03-.24-.06-.48-.13.19-.18.31-.4.46-.42a10.39858,10.39858,0,0,1,1.25-.02c.01.03.01.07.02.1a4.59075,4.59075,0,0,1-.41.36.349.349,0,0,0-.13.43c.12.43.48.19.76.34-.02-.23-.01-.38-.04-.53a.3904.3904,0,0,1,.26-.49,2.38673,2.38673,0,0,1,2.19-.09,3.28192,3.28192,0,0,0,.54.24c.44.13.71.35.6.85,0,.02.02.04.02.06.16.05.32.1.6.19-.22.19-.38.45-.53.44-.45-.02-.73.1-.82.56,0,.02-.03.03-.07.05-.53-.13-1.07-.26-1.7-.41.5-.27.92-.5,1.35-.73-.27-.32-.52-.54-.94-.41-.28.09-.63.04-.83.21a1.25136,1.25136,0,0,1-1.04.42c.12.2.2.33.27.45-.14.05-.38.07-.41.15-.09.31-.29.22-.49.22-.04-.17-.08-.32-.12-.48a7.50732,7.50732,0,0,0-2.31,1.12.21755.21755,0,0,0-.07.16.92645.92645,0,0,0,.83.9c.22.03.45.06.71.1v.98a.429.429,0,0,0,.55-.28,1.67091,1.67091,0,0,1,.44-.6c.22-.16.61-.15.74-.34.13-.2.04-.55.05-.83v-.03a.66274.66274,0,0,1,.82-.65c.13.03.26.06.38.08.64.14.64.14.57.79a1.77032,1.77032,0,0,0,0,.24c.24-.08.45-.13.64-.2.21-.08.41-.19.6-.28.03.04.04.04.04.05a.29609.29609,0,0,1,.02.1c-.03.54-.01,1.04.63,1.27.22.08.12.67-.1.76a4.09261,4.09261,0,0,0-.46.25,2.321,2.321,0,0,0,.46.31c.29.12.47.27.28.66-.29-.09-.59-.17-.88-.26-.41-.13-.43-.23-.14-.57.06-.07.03-.23.04-.35-.1.03-.25.02-.31.08a.72077.72077,0,0,1-.97,0,.567.567,0,0,0-.68-.11.4106.4106,0,0,0-.11.28c0,.07.09.15.17.19a2.78672,2.78672,0,0,0,.43.13c-.11.12-.2.22-.3.33-.29-.31-.53-.21-.76.06a2.66973,2.66973,0,0,1-.68.7,5.74317,5.74317,0,0,0-1.71,1.35,1.13681,1.13681,0,0,0-.4.72c0,.1-.13.22-.22.29-.41.32-.84.63-1.25.94a.55814.55814,0,0,0-.22.54,6.56612,6.56612,0,0,1,.01.77c-.51-.12-.91-.31-.72-.97-.55,0-1.06.04-1.55-.01a3.1145,3.1145,0,0,0-1.68.55.21633.21633,0,0,0-.11.12,7.10616,7.10616,0,0,0-.58,1.41.90929.90929,0,0,0,.37.78,1.02108,1.02108,0,0,0,1.16-.11,11.27378,11.27378,0,0,1,.98-.67c.04.02.07.04.11.06a2.98857,2.98857,0,0,1-.08.6,3.56375,3.56375,0,0,1-.29.59c.22.04.39.07.57.1.48.08.48.08.51.55.01.15.02.31.03.46.05.76.06.72.81.88a.90474.90474,0,0,0,1.15-.43.90351.90351,0,0,1,1.24-.4c.21.07.43.08.54.31a.50843.50843,0,0,0,.64.29,1.22227,1.22227,0,0,1,.33-.02C33.62,37,33.8,36.97,33.81,36.57ZM50.88,24.3c-.02.09-.04.13-.04.16a.75325.75325,0,0,1-.6.97c-.01,0-.02.01-.03.02-.04.07-.12.15-.12.22,0,.05.12.12.18.13.33.01.65.02.98.01.21-.01.51-.48.4-.62C51.41,24.89,51.16,24.62,50.88,24.3ZM31,27.62c-.11-.21-.17-.49-.29-.52a1.3531,1.3531,0,0,0-1.09.16c-.08.05-.12.18-.22.36Zm-.57.24c-.57-.09-.92.14-1.02.59-.06.27.04.38.3.42C29.94,28.54,30.17,28.22,30.43,27.86Zm-3.71-4.6c.8.07,1.13.09,1.02-.56-.34.07-.67.13-1.02.2Zm2.55,2.55c-.43-.15-.51-.14-.86.15.09.18.19.37.27.53C29.17,26.48,29.25,26.18,29.27,25.81Zm2.02,2.76c-.53.01-.76.19-.77.57C31.16,29.21,31.33,29.09,31.29,28.57Zm-3.47-4.73a.94281.94281,0,0,0-.1-.1c-.32.08-.64.15-.98.23a.87265.87265,0,0,0,.9.17C27.73,24.11,27.76,23.95,27.82,23.84Zm3.82,4.4c-.14.45.14.64.67.49C32.34,28.37,32.33,28.36,31.64,28.24Zm-.78-.41v.54c.5-.01.63-.15.53-.54Zm23.4,1.55c-.16-.32-.28-.57-.41-.83l-.09.03v.84C53.92,29.41,54.06,29.4,54.26,29.38ZM21.97,27.04c-.18.3-.31.53-.45.76.03.01.05.03.08.04C21.73,27.61,22.05,27.49,21.97,27.04Z" transform="translate(0 0.00029)"/>
      <path d="M33.81,36.57c-.01.4-.18.43-.4.43a1.82874,1.82874,0,0,0-.33.02.50843.50843,0,0,1-.64-.29c-.11-.23-.33-.24-.54-.31a.89559.89559,0,0,0-1.24.4.92479.92479,0,0,1-1.15.43c-.75-.16-.76-.12-.81-.88-.01-.15-.02-.31-.03-.46-.04-.47-.04-.47-.51-.55-.17-.03-.34-.06-.57-.1a3.56375,3.56375,0,0,0,.29-.59,3.938,3.938,0,0,0,.08-.6c-.04-.02-.07-.04-.11-.06a9.41371,9.41371,0,0,0-.98.67,1.02338,1.02338,0,0,1-1.16.11.89757.89757,0,0,1-.37-.78,7.75944,7.75944,0,0,1,.58-1.41.21633.21633,0,0,1,.11-.12,3.1145,3.1145,0,0,1,1.68-.55c.49.05,1,.01,1.55.01-.19.65.2.84.72.97a6.56615,6.56615,0,0,0-.01-.77.53148.53148,0,0,1,.22-.54c.42-.31.84-.62,1.25-.94.1-.07.22-.19.22-.29a1.13681,1.13681,0,0,1,.4-.72,6.08078,6.08078,0,0,1,1.71-1.35,2.8362,2.8362,0,0,0,.68-.7c.23-.27.47-.37.76-.06.1-.11.19-.21.3-.33a3.17457,3.17457,0,0,1-.43-.13.3166.3166,0,0,1-.17-.19.41055.41055,0,0,1,.11-.28.55313.55313,0,0,1,.68.11.71048.71048,0,0,0,.97,0c.06-.07.2-.06.31-.08-.01.12.02.27-.04.35-.28.33-.27.44.14.57.3.09.59.18.88.26.19-.39,0-.54-.28-.66a2.85148,2.85148,0,0,1-.46-.31c.15-.08.31-.17.46-.25.22-.1.31-.68.1-.76-.63-.24-.66-.73-.63-1.27a.4401.4401,0,0,0-.02-.1c0-.01-.01-.02-.04-.05-.2.09-.39.2-.6.28a5.4464,5.4464,0,0,1-.64.2v-.24c.07-.64.07-.64-.57-.79-.13-.03-.26-.06-.38-.08a.66274.66274,0,0,0-.82.65v.03c-.01.28.09.63-.05.83-.13.19-.52.18-.74.34a1.67073,1.67073,0,0,0-.44.6.43677.43677,0,0,1-.55.28v-.98c-.26-.04-.48-.07-.71-.1a.92644.92644,0,0,1-.83-.9.20154.20154,0,0,1,.07-.16,7.508,7.508,0,0,1,2.31-1.12c.04.16.08.31.12.48.2,0,.4.1.49-.22.02-.08.27-.1.41-.15-.07-.12-.15-.25-.27-.45a1.25136,1.25136,0,0,0,1.04-.42c.2-.16.56-.12.83-.21.42-.13.67.09.94.41-.43.23-.85.46-1.35.73.63.15,1.18.28,1.7.41.04-.03.06-.04.07-.05.09-.46.37-.58.82-.56.15.01.31-.25.53-.44-.28-.09-.44-.14-.6-.19-.01-.02-.03-.04-.02-.06.11-.5-.16-.73-.6-.85a2.873,2.873,0,0,1-.54-.24,2.35738,2.35738,0,0,0-2.19.09.39427.39427,0,0,0-.26.49c.03.15.02.3.04.53-.28-.15-.64.09-.76-.34a.349.349,0,0,1,.13-.43c.15-.11.27-.24.41-.36-.01-.03-.01-.07-.02-.1a10.39652,10.39652,0,0,0-1.25.02c-.15.02-.27.24-.46.42.24.06.36.09.48.13.02.44.02.44-.41.48-.2.02-.43-.03-.51.25-.01.04-.1.08-.16.08-.32.01-.63,0-.98,0-.02-.19-.05-.37-.08-.62a1.30023,1.30023,0,0,0,1.49-.67c-.19-.2-.34-.17-.53.03a.82425.82425,0,0,1-1.32-.12c-.09-.12-.22-.31-.34-.32a2.47221,2.47221,0,0,0-1.02.07,2.62329,2.62329,0,0,0-.87.71c.18,0,.36-.01.54,0,.12.01.3.03.33.1.05.11-.01.26-.03.4.29.04.63.07.97.13.05.01.08.16.13.27H28.92a.11256.11256,0,0,1-.08-.05c-.07-.36-.38-.3-.61-.36-.47-.13-.95-.25-1.37-.35a18.16794,18.16794,0,0,1,22.67,1.14.70415.70415,0,0,1-.47.52,2.82937,2.82937,0,0,0-.77.45c-.27.23-.15.54.19.63a.46961.46961,0,0,1,.25.21,3.966,3.966,0,0,1,.2.46c.26-.09.49-.18.75-.27.04.29.08.54.12.83h-.47a5.08249,5.08249,0,0,0-.78.02,1.06873,1.06873,0,0,0-.42.25.9663.9663,0,0,0-.19.26.89149.89149,0,0,1-.88.55c-.34-.01-.46.17-.48.47-.01.12-.03.24-.05.37.12.05.24.09.38.15-.04.16-.07.31-.09.39-.53.01-1.01.03-1.49.03-.35,0-.47.25-.49.68a2.84828,2.84828,0,0,0,.06.49.67148.67148,0,0,0,.76.65h.52c.4-.01.73-.02.92-.51a4.27371,4.27371,0,0,1,.78-1.05.29447.29447,0,0,1,.25-.08.66662.66662,0,0,0,.8-.26c.05-.05.12-.09.21-.17.05.47.44.58.73.8.25.19.52.36.78.53-.12.43-.48.15-.69.26a.5835.5835,0,0,0,.97.21c.05-.06.02-.19.04-.28.03-.14.06-.27.11-.49-.35-.39-1.24-.4-1.21-1.29.36-.03.75-.13,1.03.26a1.25326,1.25326,0,0,0,.27.24.73174.73174,0,0,1,.38.77c-.04.3.19.45.35.63a3.70259,3.70259,0,0,0,.35.32c.27-.37.04-1.07.77-1.18.02.12.03.23.04.35.06.68.36.99,1.03.95.36-.02.53.09.61.44a6.36465,6.36465,0,0,0,.28.84c.07.18.03.28-.17.28-.4,0-.81.03-1.21-.01a1.04791,1.04791,0,0,1-.47-.26c-.61-.44-.66-.45-1.45-.28-.01.16-.02.33-.04.58-.37-.13-.72-.27-1.08-.38-.37-.11-.76-.2-1.16-.31V30.09c-.36.02-.7.04-1.03.07a3.97032,3.97032,0,0,0-1.61.36,2.07427,2.07427,0,0,1-1.03.04,2.02608,2.02608,0,0,0-1.19.55c-.09.06-.07.35-.05.53a.72422.72422,0,0,1-.39.78c-.46.29-.89.63-1.33.95-.15.11-.34.18-.25.46.12.36.1.36.49.42-.02.24.06.52-.27.65-.05.02-.08.15-.08.23-.01.38-.03.77-.02,1.15a.55987.55987,0,0,0,.13.35c.49.57.99,1.13,1.49,1.7.23.27.53.14.8.14.37-.01.74-.1,1.11-.11a.84436.84436,0,0,0,.67-.25.959.959,0,0,1,.98-.03,1.33883,1.33883,0,0,0,1.11.42c.12.01.24.03.39.04-.04.43-.09.84-.11,1.25a1.03147,1.03147,0,0,0,.1.52c.32.61.67,1.2,1.02,1.8a.42173.42173,0,0,1,.01.48c-.15.25-.27.52-.41.78a.85068.85068,0,0,0,.17,1.14.74254.74254,0,0,1,.27.66c-.01.1.01.2,0,.29a1.53383,1.53383,0,0,0,.46,1.4.85181.85181,0,0,1,.25.75c-.02.25,0,.5,0,.77.19.02.36.03.54.05A18.28132,18.28132,0,0,1,20.57,29.84c0,.2.01.39,0,.59a.3271.3271,0,0,0,.24.4.65067.65067,0,0,1,.52.85,2.56848,2.56848,0,0,0,.68,1.98c.09.13.4.12.61.17a1.79784,1.79784,0,0,0-.02-.57,1.58517,1.58517,0,0,0-.33-.52,2.56933,2.56933,0,0,1-.37-1.41h.38a.25956.25956,0,0,1,.04.1,3.71133,3.71133,0,0,0,.98,2.16.43213.43213,0,0,1,.05.58.4372.4372,0,0,0,.01.37,1.56822,1.56822,0,0,0,1.41,1.03c.15.01.29.09.44.1.09.01.18-.08.28-.09.19-.03.38-.03.59-.05a1.27685,1.27685,0,0,1,0,.28c-.05.2.04.25.21.27a2.07054,2.07054,0,0,1,1.66.96,1.34123,1.34123,0,0,0,1.27.62c.61-.01.57.03.7.6a.71109.71109,0,0,1-.42.92.81167.81167,0,0,0-.51.91,1.27683,1.27683,0,0,1-.05.55.87172.87172,0,0,0,.25.97c.31.33.58.71.86,1.07.05.07.15.14.15.21.01.51.34.65.76.81a3.68278,3.68278,0,0,1,.94.65.4938.4938,0,0,1,.13.34c.01.83.02,1.66,0,2.49-.01.27.03.48.38.5-.07.42-.15.81-.2,1.21a.60586.60586,0,0,0,.1.44,1.51792,1.51792,0,0,1,.41,1.52,1.453,1.453,0,0,0,.21,1.05,5.34882,5.34882,0,0,0,1.46,1.78c.4.32.83.17,1.25.18.14,0,.18-.31.05-.43a2.931,2.931,0,0,0-.43-.36.49779.49779,0,0,1-.19-.65c.07-.22.11-.46.17-.71-.34-.05-.7.02-.79-.4.12-.24.52-.34.43-.74a1.47564,1.47564,0,0,1-.27-.1c-.07-.04-.19-.14-.17-.17a.39179.39179,0,0,1,.19-.21c.47-.18.96-.34,1.43-.52a.661.661,0,0,0,.24-.2c.43-.6.87-1.2,1.28-1.82a.90794.90794,0,0,0,.11-.47,1.16023,1.16023,0,0,0-.11-.48.85571.85571,0,0,1,.21-.9.32452.32452,0,0,1,.22-.1,1.4697,1.4697,0,0,1,.42.01c.5.11.79-.24,1.1-.51.07-.06.08-.2.09-.3.07-.59.11-1.18.19-1.76a1.10963,1.10963,0,0,1,.23-.46c.25-.37.62-.65.67-1.14.02-.17,0-.28-.18-.3a1.028,1.028,0,0,1-.81-.68.40785.40785,0,0,0-.47-.26,4.5653,4.5653,0,0,1-2.36-.4c-.17-.08-.26-.16-.25-.36a1.73824,1.73824,0,0,0-.36-1.19c-.08-.1-.24-.22-.35-.2a1.22363,1.22363,0,0,1-1.44-.8C34.41,36.98,34.11,36.83,33.81,36.57ZM46.69,24.62c-.31.03-.64,0-.75.36-.11.38.25.42.44.59a4.74975,4.74975,0,0,1,.34.39c-.56.21-.57.24-.51.79.53-.09,1.17.19,1.52-.51C47,25.95,46.84,25.29,46.69,24.62Zm-1.72,1.86a1.58955,1.58955,0,0,0,1.14-.54c.07-.19.11-.42-.18-.45-.2-.02-.49-.03-.6.09A.83342.83342,0,0,0,44.97,26.48Zm-8.61,1.27a.3553.3553,0,0,1-.02-.1c-.14.03-.28.06-.42.1a3.97086,3.97086,0,0,0-.36.17c-.08.04-.16.07-.23.11.07.09.13.22.23.27a.32619.32619,0,0,0,.3-.05A5.89786,5.89786,0,0,0,36.36,27.75Zm-1.79.59.09.09c.11-.05.28-.08.3-.15.02-.09-.08-.22-.12-.33-.04,0-.08.01-.11.01C34.67,28.08,34.62,28.21,34.57,28.34Z" transform="translate(0 0.00029)" fill="#fff"/>
      <path d="M50.88,24.3c.28.32.54.59.77.88.11.14-.19.61-.4.62-.33.01-.65.01-.98-.01-.07,0-.18-.08-.18-.13,0-.07.07-.15.12-.22,0-.01.02-.01.03-.02a.74954.74954,0,0,0,.6-.97C50.83,24.43,50.86,24.39,50.88,24.3Z" transform="translate(0 0.00029)" fill="#fff"/>
      <path d="M31,27.62H29.39c.11-.18.14-.3.22-.36a1.31522,1.31522,0,0,1,1.09-.16C30.83,27.13,30.89,27.41,31,27.62Z" transform="translate(0 0.00029)" fill="#fff"/>
      <path d="M30.43,27.86c-.26.36-.49.68-.72,1.01-.26-.04-.37-.15-.3-.42C29.51,28,29.86,27.77,30.43,27.86Z" transform="translate(0 0.00029)" fill="#fff"/>
      <path d="M26.72,23.26V22.9c.34-.07.68-.13,1.02-.2C27.84,23.35,27.52,23.33,26.72,23.26Z" transform="translate(0 0.00029)" fill="#fff"/>
      <path d="M29.27,25.81c-.02.37-.1.67-.59.68-.08-.16-.18-.35-.27-.53C28.77,25.67,28.85,25.66,29.27,25.81Z" transform="translate(0 0.00029)" fill="#fff"/>
      <path d="M31.29,28.57c.05.52-.13.64-.77.57C30.52,28.76,30.76,28.58,31.29,28.57Z" transform="translate(0 0.00029)" fill="#fff"/>
      <path d="M27.82,23.84c-.06.1-.09.27-.17.3a.87753.87753,0,0,1-.9-.17c.34-.08.66-.16.98-.23A.40641.40641,0,0,0,27.82,23.84Z" transform="translate(0 0.00029)" fill="#fff"/>
      <path d="M31.64,28.24c.69.12.7.12.67.49C31.78,28.88,31.5,28.69,31.64,28.24Z" transform="translate(0 0.00029)" fill="#fff"/>
      <path d="M30.86,27.83h.53c.1.39-.04.53-.53.54Z" transform="translate(0 0.00029)" fill="#fff"/>
      <path d="M54.26,29.38c-.2.02-.34.03-.5.04v-.84l.09-.03C53.98,28.81,54.1,29.07,54.26,29.38Z" transform="translate(0 0.00029)" fill="#fff"/>
      <path d="M21.97,27.04c.09.45-.24.57-.37.8-.03-.01-.05-.03-.08-.04C21.66,27.57,21.79,27.34,21.97,27.04Z" transform="translate(0 0.00029)" fill="#fff"/>
      <path d="M46.69,24.62c.14.67.3,1.33,1.04,1.62-.36.7-.99.42-1.52.51-.06-.55-.04-.58.51-.79a4.74975,4.74975,0,0,0-.34-.39c-.18-.17-.55-.21-.44-.59C46.06,24.62,46.38,24.66,46.69,24.62Z" transform="translate(0 0.00029)"/>
      <path d="M44.97,26.48a.88427.88427,0,0,1,.35-.9c.12-.12.4-.11.6-.09.29.03.25.26.18.45A1.56675,1.56675,0,0,1,44.97,26.48Z" transform="translate(0 0.00029)"/>
      <path d="M36.36,27.75a6.01718,6.01718,0,0,1-.51.5.33063.33063,0,0,1-.3.05c-.1-.05-.15-.18-.23-.27.08-.04.16-.07.23-.11a2.924,2.924,0,0,1,.36-.17,2.85763,2.85763,0,0,1,.42-.1A.193.193,0,0,1,36.36,27.75Z" transform="translate(0 0.00029)"/>
      <path d="M34.57,28.34c.05-.13.1-.25.16-.38.04,0,.08-.01.11-.01.05.11.15.24.12.33-.02.07-.19.1-.3.15Z" transform="translate(0 0.00029)"/>
    </g>
    <path d="M63.7,23.29A29.29932,29.29932,0,1,1,50.09,9.99" transform="translate(0 0.00029)" fill="none" stroke="#000" stroke-miterlimit="10" stroke-width="0.5"/>
    <g id="atellite">
      <g>
        <path d="M50.86,6.61l2.38-2.38q3.3,3.3,6.59,6.6c-.79.79-1.59,1.58-2.38,2.38Q54.165,9.91,50.86,6.61Z" transform="translate(0 0.00029)"/>
        <path d="M70.32,21.31c-.79.79-1.59,1.58-2.37,2.37-2.2-2.2-4.41-4.4-6.6-6.6l2.37-2.37C65.91,16.9,68.12,19.1,70.32,21.31Z" transform="translate(0 0.00029)"/>
        <path d="M60.52,16.99l-2.96-2.96q1.59-1.56,3.22-3.16c.18.19.34.37.52.56.11-.12.19-.22.28-.31l1.83,1.83q-.135.12-.3.27l.61.61C62.65,14.89,61.59,15.94,60.52,16.99Z" transform="translate(0 0.00029)"/>
        <path d="M56.62,17.92c.16-.37.31-.72.46-1.07a.16771.16771,0,0,0-.02-.19,4.42382,4.42382,0,0,1-.8-1.29,1.31542,1.31542,0,0,1-.11-.62.46164.46164,0,0,1,.44-.46,1.62161,1.62161,0,0,1,.81.17,5.55338,5.55338,0,0,1,1.64,1.2A5.79462,5.79462,0,0,1,60.06,17a2.36836,2.36836,0,0,1,.29.86.50159.50159,0,0,1-.42.6,1.215,1.215,0,0,1-.57-.07,4.41411,4.41411,0,0,1-1.28-.74c-.07-.06-.14-.11-.21-.18a.09882.09882,0,0,0-.14-.02c-.34.15-.67.29-1.01.43C56.68,17.9,56.66,17.9,56.62,17.92Z" transform="translate(0 0.00029)"/>
        <path d="M50.39,18.17l.78-.12c.06.27.1.53.16.78a5.79574,5.79574,0,0,0,1.39,2.69,5.68062,5.68062,0,0,0,2.11,1.41,8.44942,8.44942,0,0,0,1.65.48c.03.01.05.01.09.02-.05.26-.1.52-.15.8-.2-.04-.4-.08-.59-.13a8.3657,8.3657,0,0,1-2.31-.91,6.162,6.162,0,0,1-2.48-2.72,8.233,8.233,0,0,1-.67-2.27C50.38,18.19,50.38,18.18,50.39,18.17Z" transform="translate(0 0.00029)"/>
        <path d="M52.79,18.16q.405-.06.78-.12c.06.26.11.52.19.77a2.77564,2.77564,0,0,0,1.18,1.66,3.82724,3.82724,0,0,0,1.51.52c.02,0,.05.01.07.01.01,0,.01.01.03.01-.03.26-.07.52-.11.78A3.80072,3.80072,0,0,1,52.79,18.16Z" transform="translate(0 0.00029)"/>
        <path d="M55.39,17.99a1.42144,1.42144,0,0,0,1.19,1.22c-.05.27-.1.53-.14.79-.73.05-1.64-.84-1.82-1.78C54.86,18.14,55.12,18.07,55.39,17.99Z" transform="translate(0 0.00029)"/>
      </g>
    </g>
  </g>
</svg>
