<svg id="Layer_1" data-name="Layer 1" xmlns="http://www.w3.org/2000/svg" viewBox="0 0 75 75.00029">
  <g id="shapes">
    <path id="seaplane" d="M68.39,1.5H6.61A5.07879,5.07879,0,0,0,1.5,6.6V52.19a5.09586,5.09586,0,0,0,2.72,4.52L35.17,72.93a5.02678,5.02678,0,0,0,4.65,0L70.78,56.7a5.10738,5.10738,0,0,0,2.72-4.52V6.6A5.07879,5.07879,0,0,0,68.39,1.5Z" transform="translate(0 0.00029)" fill="#6acff6" stroke="#000" stroke-miterlimit="10" stroke-width="3"/>
  </g>
  <g id="seaplane-2" data-name="seaplane">
    <path d="M57.04,22.16a2.47867,2.47867,0,0,1-1.65-1.72C52.75,13.82,47.93,9.7,40.83,8.84c-7-.85-12.71,1.82-16.87,7.55a3.1512,3.1512,0,0,1-2.33,1.45A13.1934,13.1934,0,0,0,10.26,31.91,13.33613,13.33613,0,0,0,22.98,44.32H53.61a11.37886,11.37886,0,0,0,3.43-22.16Z" transform="translate(0 0.00029)" stroke="#000" stroke-miterlimit="10"/>
    <line x1="37.5" y1="45.13029" x2="37.5" y2="55.20029" fill="none" stroke="#000" stroke-miterlimit="10"/>
    <line x1="11.19" y1="55.20029" x2="64.76" y2="55.20029" fill="none" stroke="#000" stroke-miterlimit="10"/>
    <rect x="31.46" y="53.21029" width="12.05" height="4.39" stroke="#000" stroke-miterlimit="10"/>
    <g>
      <path d="M48.49,28.58A11.0019,11.0019,0,1,1,37,17.8,11.0173,11.0173,0,0,1,48.49,28.58Zm-13.02.09a1.61414,1.61414,0,0,1,.4.36.67308.67308,0,0,0,.79.44c.06-.01.14.06.19.11a.92791.92791,0,0,1,.2.66c0,.11.04.15.14.2a2.42722,2.42722,0,0,0,1.3.22.23115.23115,0,0,1,.26.15.5731.5731,0,0,0,.44.37c.1.01.11.07.1.17-.03.27-.23.42-.37.63a.64193.64193,0,0,0-.12.25c-.04.32-.07.65-.11.97-.01.06-.01.13-.05.16-.17.15-.33.34-.61.28a.5934.5934,0,0,0-.23,0,.1656.1656,0,0,0-.12.05c-.1.15-.21.3-.12.5a.58344.58344,0,0,1,.06.26.45572.45572,0,0,1-.06.26c-.23.34-.47.67-.71,1a.2765.2765,0,0,1-.13.11c-.26.1-.53.19-.79.29a.21317.21317,0,0,0-.1.11c-.01.02.06.07.1.09a.67129.67129,0,0,0,.15.06c.05.22-.17.28-.24.41.05.23.25.19.44.22q-.045.21-.09.39a.271.271,0,0,0,.1.36,1.49852,1.49852,0,0,1,.24.2c.07.07.05.24-.03.23-.23-.01-.47.07-.69-.1a3.03013,3.03013,0,0,1-.8-.98.80288.80288,0,0,1-.12-.58.82849.82849,0,0,0-.23-.84.32324.32324,0,0,1-.06-.24c.02-.22.07-.44.11-.66-.19-.01-.21-.13-.21-.28.01-.46.01-.91,0-1.37a.26393.26393,0,0,0-.07-.19,1.8628,1.8628,0,0,0-.52-.36c-.23-.09-.41-.16-.42-.44,0-.04-.05-.08-.08-.12-.16-.2-.3-.4-.48-.59a.4865.4865,0,0,1-.14-.53.75.75,0,0,0,.03-.3.43577.43577,0,0,1,.28-.5.38132.38132,0,0,0,.23-.5c-.07-.32-.05-.34-.38-.33a.72093.72093,0,0,1-.7-.34,1.13678,1.13678,0,0,0-.91-.53c-.09-.01-.15-.04-.12-.15a.73509.73509,0,0,0,0-.15c-.12.01-.22.01-.33.03-.05.01-.1.05-.15.05-.08-.01-.16-.05-.24-.06a.87834.87834,0,0,1-.78-.57.23636.23636,0,0,1-.01-.2c.09-.12.06-.21-.03-.32a2.04158,2.04158,0,0,1-.54-1.19c0-.02-.01-.03-.02-.06h-.21c.05.27.01.55.2.78a.8803.8803,0,0,1,.18.29,1.07506,1.07506,0,0,1,.01.31c-.12-.03-.29-.02-.34-.1a1.43647,1.43647,0,0,1-.38-1.09.35076.35076,0,0,0-.28-.47c-.11-.03-.14-.11-.13-.22s0-.22,0-.32A10.05647,10.05647,0,0,0,45.25,35.19c-.1-.01-.19-.02-.3-.03,0-.15-.01-.29,0-.42a.47559.47559,0,0,0-.14-.41.84574.84574,0,0,1-.25-.77.85521.85521,0,0,0,0-.16.36928.36928,0,0,0-.15-.36.46556.46556,0,0,1-.09-.63c.08-.14.14-.29.23-.43a.22538.22538,0,0,0-.01-.27c-.19-.33-.38-.65-.56-.99a.68389.68389,0,0,1-.06-.29c.01-.23.04-.45.06-.69a2.06239,2.06239,0,0,0-.21-.02.73762.73762,0,0,1-.61-.23c-.07-.1-.45-.08-.54.02a.46767.46767,0,0,1-.37.14c-.2.01-.41.06-.61.06-.15,0-.31.07-.44-.08-.27-.31-.55-.62-.82-.94a.341.341,0,0,1-.07-.19c-.01-.21,0-.42.01-.63,0-.04.02-.11.04-.12.18-.07.14-.23.15-.36-.21-.03-.2-.04-.27-.23-.05-.15.06-.19.14-.25a8.8609,8.8609,0,0,1,.73-.52.40252.40252,0,0,0,.21-.43c-.01-.1-.03-.26.03-.29a1.12125,1.12125,0,0,1,.65-.3,1.20147,1.20147,0,0,0,.57-.02,2.13821,2.13821,0,0,1,.89-.2c.18-.02.37-.03.57-.04v.57c.22.06.43.11.64.17.2.06.39.13.59.21.01-.14.02-.23.02-.32.43-.09.46-.09.8.16a.60438.60438,0,0,0,.26.14c.22.02.44.01.67.01.11,0,.13-.06.09-.15a3.57116,3.57116,0,0,1-.16-.46c-.04-.19-.14-.25-.34-.24-.37.02-.54-.15-.57-.52a1.22646,1.22646,0,0,1-.02-.19c-.4.06-.28.45-.42.65-.07-.06-.13-.12-.19-.18-.09-.1-.22-.18-.19-.35a.403.403,0,0,0-.21-.42.93366.93366,0,0,1-.15-.13c-.16-.21-.37-.16-.57-.14-.02.49.47.49.67.71a2.32054,2.32054,0,0,0-.06.27c-.01.05,0,.12-.02.15a.31744.31744,0,0,1-.53-.11c.12-.06.31.09.38-.14-.14-.1-.29-.19-.43-.29-.16-.12-.37-.18-.4-.44-.05.04-.09.06-.12.09a.36257.36257,0,0,1-.44.14.17921.17921,0,0,0-.14.04,2.35819,2.35819,0,0,0-.43.58c-.1.27-.29.28-.5.28h-.29a.36335.36335,0,0,1-.42-.36,1.25885,1.25885,0,0,1-.04-.27c.01-.23.07-.37.27-.37.27,0,.53-.01.82-.02.01-.04.03-.13.05-.21-.08-.03-.14-.06-.21-.08a1.517,1.517,0,0,0,.03-.21c.01-.17.07-.27.26-.26a.48716.48716,0,0,0,.48-.3.78366.78366,0,0,1,.1-.15.62064.62064,0,0,1,.23-.14,3.05167,3.05167,0,0,1,.43-.01h.26c-.02-.16-.04-.3-.07-.46-.14.05-.27.1-.41.15a1.44609,1.44609,0,0,0-.11-.25.27581.27581,0,0,0-.14-.12c-.19-.05-.25-.22-.1-.35a1.31378,1.31378,0,0,1,.43-.25.38538.38538,0,0,0,.26-.28,9.98565,9.98565,0,0,0-12.47-.63c.23.06.49.13.75.2.13.03.3,0,.34.2,0,.01.03.03.04.03h.62c-.03-.06-.04-.14-.07-.15-.19-.04-.37-.05-.53-.07a.58149.58149,0,0,0,.02-.22c-.02-.04-.12-.05-.18-.05a2.80334,2.80334,0,0,0-.29,0,1.45066,1.45066,0,0,1,.48-.39,1.32008,1.32008,0,0,1,.56-.04c.07,0,.13.11.19.17a.45731.45731,0,0,0,.73.07c.11-.11.19-.12.29-.01a.733.733,0,0,1-.82.37c.02.14.03.23.04.34h.54a.105.105,0,0,0,.09-.05c.04-.15.17-.13.28-.14.23-.02.24-.02.22-.26-.07-.02-.13-.03-.26-.07.1-.1.17-.22.25-.23a5.29716,5.29716,0,0,1,.69-.01.43311.43311,0,0,0,.01.05c-.08.07-.15.14-.23.2a.1885.1885,0,0,0-.07.24c.07.24.26.1.42.19-.01-.13-.01-.21-.02-.29a.2174.2174,0,0,1,.14-.27,1.32513,1.32513,0,0,1,1.21-.05,1.60014,1.60014,0,0,0,.3.13c.24.07.39.19.33.47,0,.01.01.02.01.03l.33.11c-.12.11-.21.25-.29.24-.25-.01-.4.06-.45.31,0,.01-.02.01-.04.03-.29-.07-.59-.14-.94-.23.28-.15.51-.27.74-.4-.15-.17-.29-.3-.52-.23-.15.05-.35.02-.46.11a.69839.69839,0,0,1-.57.23c.07.11.11.18.15.25-.08.03-.21.04-.22.08-.05.17-.16.12-.27.12a2.68077,2.68077,0,0,0-.07-.27,4.03661,4.03661,0,0,0-1.27.61.12675.12675,0,0,0-.04.09.498.498,0,0,0,.45.49c.12.02.25.03.39.05v.54a.23464.23464,0,0,0,.3-.15,1.00349,1.00349,0,0,1,.24-.33c.12-.09.34-.08.41-.19s.02-.3.03-.46V22a.36468.36468,0,0,1,.45-.36c.07.02.14.03.21.05.35.08.35.08.31.43v.13c.13-.04.25-.07.35-.11q.18-.075.33-.15c.05,0,.05.01.05.01a.43311.43311,0,0,0,.01.05c-.02.3,0,.57.34.7.12.04.07.37-.05.42-.09.04-.17.09-.26.14a1.37883,1.37883,0,0,0,.25.17c.16.07.26.15.16.37-.16-.05-.32-.09-.49-.14-.22-.07-.23-.13-.08-.31.03-.04.02-.13.02-.19-.06.01-.14.01-.17.05a.41057.41057,0,0,1-.54,0,.29277.29277,0,0,0-.37-.06.20352.20352,0,0,0-.06.15c0,.04.05.08.09.1a1.25159,1.25159,0,0,0,.23.07c-.06.07-.11.12-.16.18-.16-.17-.29-.12-.42.03a1.49057,1.49057,0,0,1-.37.38,3.24485,3.24485,0,0,0-.94.74.66462.66462,0,0,0-.22.4c0,.05-.07.12-.12.16-.23.18-.46.35-.69.52a.3109.3109,0,0,0-.12.3c.01.14,0,.28,0,.42-.28-.07-.5-.17-.4-.53a7.93635,7.93635,0,0,1-.85-.01,1.65472,1.65472,0,0,0-.92.3.17236.17236,0,0,0-.06.06,4.74259,4.74259,0,0,0-.32.78.50843.50843,0,0,0,.2.43.58291.58291,0,0,0,.64-.06,6.45241,6.45241,0,0,1,.54-.37l.06.03a1.75259,1.75259,0,0,1-.04.33,1.59387,1.59387,0,0,1-.16.32c.12.02.22.04.31.05.26.04.26.04.28.3.01.08.01.17.02.25.03.42.03.39.45.48.28.06.49.03.63-.23a.49127.49127,0,0,1,.68-.22c.11.04.24.05.29.17a.27425.27425,0,0,0,.35.16.54623.54623,0,0,1,.18-.01C35.37,28.91,35.47,28.89,35.47,28.67Zm9.39-6.75a.81442.81442,0,0,0-.02.09.40553.40553,0,0,1-.33.53c-.01,0-.01,0-.02.01-.02.04-.07.08-.07.12,0,.02.06.07.1.07a4.86375,4.86375,0,0,0,.54,0c.12,0,.28-.27.22-.34C45.16,22.25,45.01,22.09,44.86,21.92ZM33.93,23.75c-.06-.12-.09-.27-.16-.29a.71188.71188,0,0,0-.6.09c-.04.03-.06.1-.12.2Zm-.32.13c-.31-.05-.51.08-.56.32-.04.15.02.21.17.23C33.34,24.25,33.47,24.08,33.61,23.88Zm-2.04-2.53c.44.04.62.05.56-.31-.19.04-.37.07-.56.11Zm1.4,1.4c-.24-.08-.28-.08-.47.08.05.1.11.2.15.29C32.92,23.12,32.96,22.96,32.97,22.75Zm1.11,1.52c-.29.01-.42.1-.43.31C34.01,24.62,34.11,24.56,34.08,24.27Zm-1.91-2.6a.26513.26513,0,0,1-.05-.06c-.18.04-.35.08-.54.13a.502.502,0,0,0,.5.1C32.12,21.81,32.14,21.72,32.17,21.67Zm2.1,2.42c-.07.25.08.35.37.27C34.66,24.16,34.66,24.15,34.27,24.09Zm-.42-.23v.3c.27-.01.35-.08.29-.3Zm12.87.86c-.09-.17-.16-.32-.23-.46-.02.01-.03.01-.05.02v.46A2.4583,2.4583,0,0,1,46.72,24.72ZM28.95,23.43c-.1.17-.17.29-.25.42a.07581.07581,0,0,0,.04.02C28.82,23.74,29,23.67,28.95,23.43Z" transform="translate(0 0.00029)" fill="#fff"/>
      <path d="M35.47,28.67c0,.22-.1.24-.22.23a1.08687,1.08687,0,0,0-.18.01.28313.28313,0,0,1-.35-.16c-.06-.13-.18-.13-.29-.17a.49127.49127,0,0,0-.68.22c-.14.26-.35.29-.63.23-.41-.09-.42-.07-.45-.48-.01-.08-.01-.17-.02-.25-.02-.26-.02-.26-.28-.3-.09-.02-.19-.03-.31-.05a1.90813,1.90813,0,0,0,.16-.32,1.75259,1.75259,0,0,0,.04-.33l-.06-.03a5.14232,5.14232,0,0,0-.54.37.54815.54815,0,0,1-.64.06.48393.48393,0,0,1-.2-.43,4.74171,4.74171,0,0,1,.32-.78.1167.1167,0,0,1,.06-.06,1.6547,1.6547,0,0,1,.92-.3,7.93616,7.93616,0,0,0,.85.01c-.1.36.11.46.4.53,0-.14.01-.28,0-.42a.31092.31092,0,0,1,.12-.3c.23-.17.46-.34.69-.52.05-.04.12-.11.12-.16,0-.18.12-.28.22-.4a3.20942,3.20942,0,0,1,.94-.74,1.48745,1.48745,0,0,0,.37-.38c.13-.15.26-.21.42-.03.06-.06.1-.11.16-.18a2.18971,2.18971,0,0,1-.23-.07c-.04-.02-.09-.07-.09-.1a.20352.20352,0,0,1,.06-.15.29277.29277,0,0,1,.37.06.39959.39959,0,0,0,.54,0c.03-.04.11-.03.17-.05-.01.06.01.15-.02.19-.16.18-.15.24.08.31.16.05.33.1.49.14.1-.22,0-.3-.16-.37a1.37883,1.37883,0,0,1-.25-.17c.09-.05.17-.1.26-.14.12-.05.17-.38.05-.42-.35-.13-.36-.4-.34-.7a.07494.07494,0,0,0-.01-.05.12376.12376,0,0,1-.02-.03c-.11.05-.22.11-.33.15s-.22.07-.35.11v-.13c.04-.35.04-.35-.31-.43-.07-.02-.14-.03-.21-.05a.36468.36468,0,0,0-.45.36v.02c0,.16.05.35-.03.46-.07.1-.29.1-.41.19a.87965.87965,0,0,0-.24.33.23464.23464,0,0,1-.3.15v-.54c-.14-.02-.26-.04-.39-.05a.49726.49726,0,0,1-.45-.49.12675.12675,0,0,1,.04-.09,4.03661,4.03661,0,0,1,1.27-.61c.02.09.04.17.07.27.11,0,.22.05.27-.12.01-.04.15-.05.22-.08-.04-.07-.08-.14-.15-.25a.69839.69839,0,0,0,.57-.23c.11-.09.31-.07.46-.11.23-.07.37.05.52.23-.24.13-.47.25-.74.4.35.08.65.16.94.23.02-.01.04-.02.04-.03.05-.25.21-.32.45-.31.08,0,.17-.14.29-.24l-.33-.11c0-.01-.02-.02-.01-.03.06-.28-.09-.4-.33-.47a1.94455,1.94455,0,0,1-.3-.13,1.32637,1.32637,0,0,0-1.21.05.20951.20951,0,0,0-.14.27,2.19268,2.19268,0,0,1,.02.29c-.15-.09-.35.05-.42-.19a.1917.1917,0,0,1,.07-.24c.08-.06.15-.13.23-.2a.43311.43311,0,0,0-.01-.05,5.29729,5.29729,0,0,0-.69.01c-.08.01-.15.13-.25.23.13.03.2.05.26.07.01.24.01.24-.22.26-.11.01-.24-.02-.28.14-.01.02-.06.04-.09.05h-.54c-.01-.11-.03-.2-.04-.34a.72049.72049,0,0,0,.82-.37c-.1-.11-.19-.1-.29.01a.45774.45774,0,0,1-.73-.07c-.05-.07-.12-.17-.19-.17a1.30835,1.30835,0,0,0-.56.04,1.45066,1.45066,0,0,0-.48.39,2.80334,2.80334,0,0,1,.29,0c.07.01.17.02.18.05.03.06-.01.14-.02.22.16.02.35.04.53.07.03.01.04.09.07.15h-.62c-.01,0-.04-.02-.04-.03-.04-.2-.21-.17-.34-.2-.26-.07-.52-.14-.75-.2a9.98581,9.98581,0,0,1,12.47.63.36963.36963,0,0,1-.26.28,1.55714,1.55714,0,0,0-.43.25c-.15.13-.08.3.1.35a.26888.26888,0,0,1,.14.12,1.44609,1.44609,0,0,1,.11.25c.14-.05.27-.1.41-.15.02.16.04.3.07.46h-.26a3.08791,3.08791,0,0,0-.43.01.51226.51226,0,0,0-.23.14.30722.30722,0,0,0-.1.15.48716.48716,0,0,1-.48.3c-.19-.01-.25.09-.26.26a1.76846,1.76846,0,0,1-.03.21c.07.03.13.05.21.08-.02.09-.04.17-.05.21-.29.01-.56.01-.82.02-.19,0-.26.14-.27.37a1.25885,1.25885,0,0,0,.04.27.37444.37444,0,0,0,.42.36h.29c.22,0,.4-.01.5-.28a2.35813,2.35813,0,0,1,.43-.58.1485.1485,0,0,1,.14-.04.3752.3752,0,0,0,.44-.14.73553.73553,0,0,1,.12-.09c.03.26.24.32.4.44.14.1.29.2.43.29-.07.24-.26.08-.38.14a.31744.31744,0,0,0,.53.11c.03-.04.01-.1.02-.15.01-.07.03-.15.06-.27-.19-.22-.68-.22-.67-.71.2-.02.41-.07.57.14a.639.639,0,0,0,.15.13.403.403,0,0,1,.21.42c-.02.17.1.25.19.35.06.06.12.11.19.18.15-.2.02-.59.42-.65a1.36645,1.36645,0,0,1,.02.19c.03.38.2.55.57.52a.27786.27786,0,0,1,.34.24,2.50645,2.50645,0,0,0,.16.46c.04.1.02.15-.09.15-.22,0-.45.01-.67-.01a.60439.60439,0,0,1-.26-.14c-.34-.24-.36-.25-.8-.16-.01.09-.01.18-.02.32-.21-.07-.4-.15-.59-.21-.21-.06-.42-.11-.64-.17v-.57c-.2.01-.38.02-.57.04a2.17333,2.17333,0,0,0-.89.2,1.19535,1.19535,0,0,1-.57.02,1.09337,1.09337,0,0,0-.65.3c-.05.03-.04.19-.03.29a.40934.40934,0,0,1-.21.43c-.26.16-.49.35-.73.52-.08.06-.19.1-.14.25.06.2.05.2.27.23-.01.13.03.29-.15.36-.03.01-.04.08-.04.12-.01.21-.01.42-.01.63a.31571.31571,0,0,0,.07.19c.27.32.55.62.82.94.13.15.29.08.44.08.2,0,.41-.05.61-.06a.43641.43641,0,0,0,.37-.14.52506.52506,0,0,1,.54-.02.74927.74927,0,0,0,.61.23,1.64611,1.64611,0,0,1,.21.02c-.02.24-.05.46-.06.69a.58278.58278,0,0,0,.06.29c.18.33.37.66.56.99a.24125.24125,0,0,1,.01.27c-.08.14-.15.29-.23.43a.46706.46706,0,0,0,.09.63.39024.39024,0,0,1,.15.36c-.01.05.01.11,0,.16a.87238.87238,0,0,0,.25.77.50655.50655,0,0,1,.14.41c-.01.14,0,.27,0,.42.11.01.2.02.3.03A10.05647,10.05647,0,0,1,28.23,24.96c0,.11.01.22,0,.32-.01.11.02.19.13.22a.35076.35076,0,0,1,.28.47,1.412,1.412,0,0,0,.38,1.09c.05.07.22.07.34.1a1.05048,1.05048,0,0,0-.01-.31.99577.99577,0,0,0-.18-.29,1.39981,1.39981,0,0,1-.2-.78h.21a.14213.14213,0,0,1,.02.06,2.04158,2.04158,0,0,0,.54,1.19.24492.24492,0,0,1,.03.32.23559.23559,0,0,0,.01.2.87834.87834,0,0,0,.78.57c.08.01.16.05.24.06.05,0,.1-.04.15-.05q.15-.015.33-.03a.73509.73509,0,0,1,0,.15c-.03.11.02.14.12.15a1.13678,1.13678,0,0,1,.91.53.72093.72093,0,0,0,.7.34c.33,0,.31.02.38.33a.38535.38535,0,0,1-.23.5.44612.44612,0,0,0-.28.5.75038.75038,0,0,1-.03.3.48648.48648,0,0,0,.14.53c.17.18.32.39.48.59.03.04.08.08.08.12,0,.28.19.36.42.44a2.20686,2.20686,0,0,1,.52.36.249.249,0,0,1,.07.19c.01.46.01.91,0,1.37,0,.15.02.26.21.28-.04.23-.08.45-.11.66a.32327.32327,0,0,0,.06.24.84981.84981,0,0,1,.23.84.803.803,0,0,0,.12.58,3.03013,3.03013,0,0,0,.8.98c.22.17.46.09.69.1.08,0,.1-.17.03-.23a1.59119,1.59119,0,0,0-.24-.2c-.15-.09-.15-.21-.1-.36a3.74847,3.74847,0,0,0,.09-.39c-.19-.03-.38.01-.44-.22.07-.13.28-.19.24-.41a.93855.93855,0,0,1-.15-.06.30325.30325,0,0,1-.1-.09.18341.18341,0,0,1,.1-.11c.26-.1.53-.19.79-.29a.2765.2765,0,0,0,.13-.11c.24-.33.48-.66.71-1a.45572.45572,0,0,0,.06-.26.58344.58344,0,0,0-.06-.26.46618.46618,0,0,1,.12-.5.16564.16564,0,0,1,.12-.05.88449.88449,0,0,1,.23,0c.28.06.43-.13.61-.28.04-.03.04-.11.05-.16.04-.32.06-.65.11-.97a.64193.64193,0,0,1,.12-.25c.14-.2.34-.36.37-.63.01-.09,0-.15-.1-.17a.544.544,0,0,1-.44-.37.24718.24718,0,0,0-.26-.15,2.54346,2.54346,0,0,1-1.3-.22c-.1-.05-.14-.09-.14-.2a.92791.92791,0,0,0-.2-.66c-.05-.05-.13-.12-.19-.11a.67309.67309,0,0,1-.79-.44C35.8,28.89,35.63,28.81,35.47,28.67Zm7.09-6.57c-.17.02-.35,0-.41.2-.06.21.14.23.24.32a1.43522,1.43522,0,0,1,.19.22c-.31.11-.32.13-.28.43.29-.05.64.11.84-.28C42.73,22.83,42.64,22.47,42.56,22.1Zm-.95,1.02a.92134.92134,0,0,0,.63-.3c.04-.1.06-.23-.1-.25a.495.495,0,0,0-.33.05A.47535.47535,0,0,0,41.61,23.12Zm-4.74.7c0-.02-.01-.04-.01-.06a1.94805,1.94805,0,0,0-.23.06.93422.93422,0,0,0-.2.1c-.04.02-.09.04-.13.06.04.05.07.12.12.15a.17889.17889,0,0,0,.17-.03A3.69582,3.69582,0,0,0,36.87,23.82Zm-.98.32.05.05c.06-.03.15-.04.16-.08.01-.05-.04-.12-.07-.18a.12683.12683,0,0,0-.06.01C35.94,24,35.92,24.07,35.89,24.14Z" transform="translate(0 0.00029)"/>
      <path d="M44.86,21.92c.15.17.3.33.43.49.06.08-.1.34-.22.34-.18.01-.36,0-.54,0-.04,0-.1-.05-.1-.07,0-.04.04-.08.07-.12a.03491.03491,0,0,1,.02-.01.40553.40553,0,0,0,.33-.53C44.84,21.99,44.85,21.97,44.86,21.92Z" transform="translate(0 0.00029)"/>
      <path d="M33.93,23.75h-.88c.06-.1.08-.17.12-.2a.71188.71188,0,0,1,.6-.09C33.83,23.48,33.86,23.63,33.93,23.75Z" transform="translate(0 0.00029)"/>
      <path d="M33.61,23.88c-.14.2-.27.38-.4.55-.15-.02-.2-.08-.17-.23C33.1,23.96,33.29,23.83,33.61,23.88Z" transform="translate(0 0.00029)"/>
      <path d="M31.57,21.35v-.2c.19-.04.37-.07.56-.11C32.19,21.4,32.01,21.39,31.57,21.35Z" transform="translate(0 0.00029)"/>
      <path d="M32.97,22.75c-.01.21-.06.37-.32.38-.05-.09-.1-.19-.15-.29C32.69,22.67,32.74,22.67,32.97,22.75Z" transform="translate(0 0.00029)"/>
      <path d="M34.08,24.27c.03.29-.07.35-.43.31C33.66,24.37,33.79,24.28,34.08,24.27Z" transform="translate(0 0.00029)"/>
      <path d="M32.17,21.67c-.03.06-.05.15-.1.17a.4656.4656,0,0,1-.5-.1c.19-.04.36-.09.54-.13A.33942.33942,0,0,1,32.17,21.67Z" transform="translate(0 0.00029)"/>
      <path d="M34.27,24.09c.38.06.38.07.37.27C34.35,24.44,34.2,24.33,34.27,24.09Z" transform="translate(0 0.00029)"/>
      <path d="M33.85,23.86h.29c.05.22-.02.29-.29.3Z" transform="translate(0 0.00029)"/>
      <path d="M46.72,24.72c-.11.01-.19.02-.28.02v-.46c.02-.01.03-.01.05-.02A4.91862,4.91862,0,0,1,46.72,24.72Z" transform="translate(0 0.00029)"/>
      <path d="M28.95,23.43c.05.25-.13.32-.2.44a.07581.07581,0,0,0-.04-.02C28.78,23.72,28.86,23.59,28.95,23.43Z" transform="translate(0 0.00029)"/>
      <path d="M42.56,22.1c.08.37.17.73.57.89-.2.39-.55.23-.84.28-.03-.3-.02-.32.28-.43a2.15384,2.15384,0,0,0-.19-.22c-.1-.09-.3-.12-.24-.32C42.21,22.1,42.39,22.11,42.56,22.1Z" transform="translate(0 0.00029)" fill="#fff"/>
      <path d="M41.61,23.12c-.07-.22.07-.37.19-.5a.495.495,0,0,1,.33-.05c.16.02.14.15.1.25A.87776.87776,0,0,1,41.61,23.12Z" transform="translate(0 0.00029)" fill="#fff"/>
      <path d="M36.87,23.82c-.09.09-.18.19-.28.28a.20441.20441,0,0,1-.17.03c-.05-.03-.08-.1-.12-.15.04-.02.09-.04.13-.06.07-.03.13-.07.2-.1a1.54549,1.54549,0,0,1,.23-.06A.12683.12683,0,0,1,36.87,23.82Z" transform="translate(0 0.00029)" fill="#fff"/>
      <path d="M35.89,24.14l.09-.21a.12683.12683,0,0,0,.06-.01c.03.06.08.13.07.18-.01.04-.11.06-.16.08A.09183.09183,0,0,1,35.89,24.14Z" transform="translate(0 0.00029)" fill="#fff"/>
    </g>
  </g>
</svg>
