<svg id="Layer_1" data-name="Layer 1" xmlns="http://www.w3.org/2000/svg" viewBox="0 0 75 75">
  <g id="shapes">
    <path id="square" d="M73.5,70.13a3.16553,3.16553,0,0,1-2.92,3.37H4.42A3.17186,3.17186,0,0,1,1.5,70.13V4.87A3.17186,3.17186,0,0,1,4.42,1.5H70.58A3.17186,3.17186,0,0,1,73.5,4.87Z" fill="#696" stroke="#000" stroke-miterlimit="10" stroke-width="3" fill-rule="evenodd"/>
  </g>
  <g id="data">
    <g>
      <path d="M37.24,28.13c-5.24-.14-10.61-.59-15.74-2.5a13.95554,13.95554,0,0,1-4.33-2.37c-2.17-1.87-2.19-4.05.02-5.89a18.58592,18.58592,0,0,1,8.27-3.54,53.19963,53.19963,0,0,1,27.49.98,13.263,13.263,0,0,1,4.96,2.66c2.06,1.84,2.08,3.89-.02,5.69-2.64,2.26-5.9,3.11-9.19,3.83A56.67333,56.67333,0,0,1,37.24,28.13Z"/>
      <path d="M59.5,47.88c0,2.45.01,4.53,0,6.61a4.4553,4.4553,0,0,1-2.34,3.68,20.9428,20.9428,0,0,1-8.02,3.11c-9.26,1.82-18.45,1.78-27.5-1.24a19.26952,19.26952,0,0,1-2.59-1.15c-2.38-1.22-3.83-2.97-3.51-5.88a47.41252,47.41252,0,0,0,.03-4.93c4.75,4.14,10.51,4.93,16.29,5.49a54.292,54.292,0,0,0,20.02-1.52C54.62,51.28,57.28,50.3,59.5,47.88Z"/>
      <path d="M59.49,36.41c0,2.53.06,4.75-.02,6.96a4.23951,4.23951,0,0,1-2.24,3.28,21.40873,21.40873,0,0,1-8.41,3.23c-9.07,1.73-18.08,1.67-26.94-1.22a22.38452,22.38452,0,0,1-2.47-1.06c-2.62-1.24-4.23-3.07-3.86-6.23a42.68523,42.68523,0,0,0,.03-4.82c3.63,3.4,8.01,4.39,12.46,5.09A55.82932,55.82932,0,0,0,52.53,40.4,14.1057,14.1057,0,0,0,59.49,36.41Z"/>
      <path d="M15.56,25.04c2.85,2.88,6.3,3.92,9.83,4.65a55.63876,55.63876,0,0,0,27.69-.94A13.18818,13.18818,0,0,0,59.43,25c0,2.59.12,4.94-.04,7.26-.1,1.46-1.29,2.38-2.47,3.14a25.48761,25.48761,0,0,1-10.01,3.39,54.09628,54.09628,0,0,1-24.07-1.24,15.51333,15.51333,0,0,1-5.56-2.76,4.317,4.317,0,0,1-1.74-3.7C15.61,29.16,15.56,27.22,15.56,25.04Z"/>
    </g>
  </g>
</svg>
