<svg id="Layer_1" data-name="Layer 1" xmlns="http://www.w3.org/2000/svg" viewBox="0 0 75.01461 75">
  <g id="shapes">
    <path id="square" d="M73.5,70.12506A3.171,3.171,0,0,1,70.5813,73.5H4.41978A3.171,3.171,0,0,1,1.5,70.12506V4.87494A3.17253,3.17253,0,0,1,4.41978,1.5H70.5813A3.17251,3.17251,0,0,1,73.5,4.87494Z" transform="translate(0.0073)" fill="#696" stroke="#000" stroke-miterlimit="10" stroke-width="3" fill-rule="evenodd"/>
  </g>
  <g id="graph">
    <g id="cloud">
      <g>
        <path d="M25.65638,31.31227a42.32188,42.32188,0,0,1-12.6007-1.95822A12.50691,12.50691,0,0,1,9.565,27.481c-1.7028-1.53251-1.78794-3.23531,0-4.68269a14.84532,14.84532,0,0,1,6.64091-2.80961,42.13341,42.13341,0,0,1,22.05122.76625,10.71845,10.71845,0,0,1,4.00157,2.1285c1.61766,1.44738,1.7028,3.15018,0,4.59755-2.12849,1.78794-4.76783,2.46906-7.40716,3.065A47.89362,47.89362,0,0,1,25.65638,31.31227Z" transform="translate(0.0073)"/>
        <path d="M43.45061,47.14828V52.427a3.59418,3.59418,0,0,1-1.87308,2.97989,16.35882,16.35882,0,0,1-6.38553,2.469,42.17083,42.17083,0,0,1-22.05122-1.02168,14.93739,14.93739,0,0,1-2.04335-.93654c-1.873-1.02168-3.065-2.38391-2.80958-4.68268a30.05781,30.05781,0,0,0,0-3.91643c3.83129,3.32046,8.42884,3.91643,13.0264,4.42727a44.66407,44.66407,0,0,0,16.09143-1.192A11.94616,11.94616,0,0,0,43.45061,47.14828Z" transform="translate(0.0073)"/>
        <path d="M43.45061,37.95317c0,2.04336.08514,3.8313,0,5.61923a3.4548,3.4548,0,0,1-1.78794,2.63934,16.23679,16.23679,0,0,1-6.726,2.55419A42.36574,42.36574,0,0,1,13.3111,47.74425a13.58325,13.58325,0,0,1-1.95821-.85139c-2.1285-1.02168-3.4056-2.46906-3.065-5.02326a28.76653,28.76653,0,0,0,0-3.83129c2.89476,2.72447,6.38549,3.49073,9.96136,4.08671a45.12864,45.12864,0,0,0,19.66731-1.02168A10.40607,10.40607,0,0,0,43.45061,37.95317Z" transform="translate(0.0073)"/>
        <path d="M8.20271,28.84321c2.29878,2.29878,5.02325,3.15017,7.918,3.74615a44.68439,44.68439,0,0,0,22.2215-.76625,10.71786,10.71786,0,0,0,5.10839-2.9799c0,2.04336.08514,3.91643,0,5.78951a3.739,3.739,0,0,1-1.95822,2.5542,20.799,20.799,0,0,1-8.00314,2.72446A43.66733,43.66733,0,0,1,14.1625,38.88971a12.04459,12.04459,0,0,1-4.42727-2.21363A3.34851,3.34851,0,0,1,8.373,33.69618C8.28785,32.16366,8.20271,30.63115,8.20271,28.84321Z" transform="translate(0.0073)"/>
      </g>
    </g>
    <g>
      <circle cx="52.34961" cy="40.65491" r="2.55125" fill="#fff" stroke="#000" stroke-miterlimit="10"/>
      <circle cx="58.72773" cy="23.7073" r="4.82916" fill="#fff" stroke="#000" stroke-miterlimit="10"/>
      <circle cx="52.34961" cy="56.32689" r="2.55125" fill="#fff" stroke="#000" stroke-miterlimit="10"/>
      <circle cx="64.46805" cy="40.65491" r="2.55125" fill="#fff" stroke="#000" stroke-miterlimit="10"/>
      <circle cx="64.46805" cy="56.32689" r="2.55125" fill="#fff" stroke="#000" stroke-miterlimit="10"/>
      <line x1="61.64346" y1="56.69136" x2="54.62751" y2="56.60024" fill="none" stroke="#000" stroke-miterlimit="10"/>
      <line x1="52.34961" y1="53.77564" x2="52.34961" y2="43.29728" fill="none" stroke="#000" stroke-miterlimit="10"/>
      <line x1="64.46805" y1="53.77564" x2="64.46805" y2="43.29728" fill="none" stroke="#000" stroke-miterlimit="10"/>
      <line x1="54.90086" y1="40.65491" x2="61.9168" y2="40.65491" fill="none" stroke="#000" stroke-miterlimit="10"/>
      <line x1="53.26076" y1="38.10366" x2="57.26987" y2="28.26311" fill="none" stroke="#000" stroke-miterlimit="10"/>
      <line x1="64.46805" y1="38.10366" x2="60.7323" y2="28.08088" fill="none" stroke="#000" stroke-miterlimit="10"/>
    </g>
  </g>
</svg>
