<svg xmlns="http://www.w3.org/2000/svg" viewBox="0 0 75 75">
  <g id="shapes">
    <path id="square" d="M73.5,70.12506A3.171,3.171,0,0,1,70.5813,73.5H4.41978A3.171,3.171,0,0,1,1.5,70.12506V4.87494A3.17253,3.17253,0,0,1,4.41978,1.5H70.5813A3.17252,3.17252,0,0,1,73.5,4.87494Z" fill="#696" stroke="#000" stroke-miterlimit="10" stroke-width="3" fill-rule="evenodd"/>
  </g>
  <g id="database">
    <g id="database-2" data-name="database">
      <g>
        <path d="M25.65638,31.31227a42.32208,42.32208,0,0,1-12.6007-1.95822A12.50706,12.50706,0,0,1,9.565,27.481c-1.7028-1.53251-1.78794-3.23531,0-4.68269a14.84528,14.84528,0,0,1,6.64091-2.80961,42.1334,42.1334,0,0,1,22.05122.76625,10.71836,10.71836,0,0,1,4.00157,2.1285c1.61766,1.44738,1.7028,3.15018,0,4.59755-2.12849,1.78794-4.76783,2.46906-7.40716,3.065A47.89393,47.89393,0,0,1,25.65638,31.31227Z"/>
        <path d="M43.45061,47.14828V52.427a3.59417,3.59417,0,0,1-1.87308,2.97989A16.3588,16.3588,0,0,1,35.192,57.8759a42.1708,42.1708,0,0,1-22.05122-1.02168,14.93842,14.93842,0,0,1-2.04335-.93654C9.22439,54.896,8.03243,53.53377,8.28785,51.235a30.05781,30.05781,0,0,0,0-3.91643c3.83129,3.32046,8.42884,3.91643,13.0264,4.42727a44.66405,44.66405,0,0,0,16.09143-1.192A11.94615,11.94615,0,0,0,43.45061,47.14828Z"/>
        <path d="M43.45061,37.95317c0,2.04336.08514,3.8313,0,5.61923a3.4548,3.4548,0,0,1-1.78794,2.63934,16.23686,16.23686,0,0,1-6.726,2.55419A42.36576,42.36576,0,0,1,13.3111,47.74425a13.58382,13.58382,0,0,1-1.95821-.85139c-2.1285-1.02168-3.4056-2.46906-3.065-5.02326a28.76653,28.76653,0,0,0,0-3.83129c2.89476,2.72447,6.38549,3.49073,9.96136,4.08671a45.12845,45.12845,0,0,0,19.66731-1.02168A10.40609,10.40609,0,0,0,43.45061,37.95317Z"/>
        <path d="M8.20271,28.84321c2.29878,2.29878,5.02325,3.15017,7.918,3.74615a44.68437,44.68437,0,0,0,22.2215-.76625,10.71783,10.71783,0,0,0,5.10839-2.9799c0,2.04336.08514,3.91643,0,5.78951a3.739,3.739,0,0,1-1.95822,2.5542,20.799,20.799,0,0,1-8.00314,2.72447A43.66736,43.66736,0,0,1,14.1625,38.88971a12.04459,12.04459,0,0,1-4.42727-2.21363A3.34851,3.34851,0,0,1,8.373,33.69618C8.28785,32.16366,8.20271,30.63115,8.20271,28.84321Z"/>
      </g>
    </g>
    <g>
      <circle cx="59.90629" cy="52.57642" r="5.37674" fill="#fff" stroke="#000" stroke-miterlimit="10" stroke-width="4"/>
      <line x1="60.43605" y1="17.95317" x2="59.98855" y2="47.20031" stroke="#000" stroke-linecap="round" stroke-miterlimit="10" stroke-width="3"/>
      <rect x="51.60201" y="19.75538" width="8.23867" height="11.2408" transform="translate(111.04796 51.60106) rotate(-179.12341)"/>
    </g>
  </g>
</svg>
