<svg id="Layer_1" data-name="Layer 1" xmlns="http://www.w3.org/2000/svg" viewBox="0 0 75.01461 75">
  <g id="shapes">
    <path id="square" d="M73.5,70.12506A3.171,3.171,0,0,1,70.5813,73.5H4.41978A3.171,3.171,0,0,1,1.5,70.12506V4.87494A3.17253,3.17253,0,0,1,4.41978,1.5H70.5813A3.17251,3.17251,0,0,1,73.5,4.87494Z" transform="translate(0.0073)" fill="#696" stroke="#000" stroke-miterlimit="10" stroke-width="3" fill-rule="evenodd"/>
  </g>
  <g id="cloud">
    <g>
      <path d="M37.29378,29.92949a39.1637,39.1637,0,0,1-12.71895-2.01577,11.163,11.163,0,0,1-3.49874-1.91616c-1.7564-1.51293-1.76932-3.26858.01594-4.75646a14.906,14.906,0,0,1,6.679-2.85623,43.00648,43.00648,0,0,1,22.2116.789,10.742,10.742,0,0,1,4.01048,2.14843c1.66155,1.48459,1.67976,3.14238-.01622,4.59688-2.12993,1.82666-4.76983,2.51637-7.42581,3.09824A46.00048,46.00048,0,0,1,37.29378,29.92949Z" transform="translate(0.0073)"/>
      <path d="M55.2727,45.88454c0,1.97807.00626,3.65826-.002,5.33838a3.59437,3.59437,0,0,1-1.88815,2.97171,16.96374,16.96374,0,0,1-6.476,2.51313,42.94775,42.94775,0,0,1-22.21736-.99783,15.04094,15.04094,0,0,1-2.09025-.92909c-1.92675-.98917-3.09771-2.4-2.83806-4.75412a37.28382,37.28382,0,0,0,.02515-3.98135c3.837,3.34488,8.4871,3.983,13.16255,4.43449a43.87044,43.87044,0,0,0,16.17118-1.22561A12.198,12.198,0,0,0,55.2727,45.88454Z" transform="translate(0.0073)"/>
      <path d="M55.26387,36.62123c0,2.04724.04724,3.83683-.01639,5.62249a3.45583,3.45583,0,0,1-1.80833,2.65277,17.29351,17.29351,0,0,1-6.79709,2.60957,43.09388,43.09388,0,0,1-21.766-.98788,17.143,17.143,0,0,1-1.99615-.85512c-2.119-1.00337-3.4193-2.47795-3.1173-5.0348a34.49848,34.49848,0,0,0,.02505-3.89319c2.93365,2.7501,6.47348,3.54341,10.06759,4.109a45.10246,45.10246,0,0,0,19.78389-1.00382A11.31511,11.31511,0,0,0,55.26387,36.62123Z" transform="translate(0.0073)"/>
      <path d="M19.77074,27.43187c2.30578,2.32668,5.08691,3.169,7.9407,3.75283A44.94893,44.94893,0,0,0,50.081,30.42727,10.66183,10.66183,0,0,0,55.212,27.39888c0,2.09277.0971,3.98745-.03541,5.866a3.54438,3.54438,0,0,1-1.992,2.53433A20.49781,20.49781,0,0,1,45.0988,38.5393a43.65079,43.65079,0,0,1-19.44743-.99969,12.60446,12.60446,0,0,1-4.491-2.22692,3.4765,3.4765,0,0,1-1.4036-2.9855C19.815,30.76311,19.77074,29.19524,19.77074,27.43187Z" transform="translate(0.0073)"/>
    </g>
    <g id="graph">
      <polyline points="66.339 32.923 50.303 50.164 41.97 43.482 37.785 47.594 32.737 42.739 23.288 52.059 16.469 48.148 8.908 55.548" fill="none" stroke="#fff" stroke-miterlimit="10" stroke-width="3"/>
      <polyline points="68.238 60.886 7.01 60.886 7.01 14.114" fill="none" stroke="#fff" stroke-miterlimit="10" stroke-width="0.75"/>
    </g>
  </g>
</svg>
