<svg id="Layer_1" data-name="Layer 1" xmlns="http://www.w3.org/2000/svg" viewBox="0 0 75.01461 75">
  <g id="shapes">
    <path id="square" d="M73.5,70.12506A3.171,3.171,0,0,1,70.5813,73.5H4.41978A3.171,3.171,0,0,1,1.5,70.12506V4.87494A3.17253,3.17253,0,0,1,4.41978,1.5H70.5813A3.17251,3.17251,0,0,1,73.5,4.87494Z" transform="translate(0.0073)" fill="#9ff" stroke="#000" stroke-miterlimit="10" stroke-width="3" fill-rule="evenodd"/>
  </g>
  <g id="storage">
    <g>
      <path d="M32.14248,29.35276a38.78022,38.78022,0,0,1-12.59443-1.996,11.05361,11.05361,0,0,1-3.4645-1.8974c-1.7392-1.49812-1.752-3.23659.01579-4.7099a14.76011,14.76011,0,0,1,6.6136-2.82826,42.58542,42.58542,0,0,1,21.99416.78132,10.637,10.637,0,0,1,3.97122,2.1274c1.64528,1.47,1.66331,3.11162-.01606,4.55188-2.10908,1.80877-4.72314,2.49173-7.35311,3.0679A45.549,45.549,0,0,1,32.14248,29.35276Z" transform="translate(0.0073)"/>
      <path d="M49.94539,45.15162c0,1.95871.0062,3.62245-.002,5.28612a3.55921,3.55921,0,0,1-1.86967,2.94262,16.79741,16.79741,0,0,1-6.4126,2.48852,42.52716,42.52716,0,0,1-21.99986-.98806,14.89262,14.89262,0,0,1-2.06979-.92c-1.90788-.97948-3.06738-2.3765-2.81028-4.70758a36.91918,36.91918,0,0,0,.02491-3.94237c3.79943,3.31213,8.404,3.944,13.03369,4.39107a43.441,43.441,0,0,0,16.01291-1.2136A12.07862,12.07862,0,0,0,49.94539,45.15162Z" transform="translate(0.0073)"/>
      <path d="M49.93665,35.979c0,2.0272.04678,3.79928-.01623,5.56745a3.422,3.422,0,0,1-1.79063,2.6268,17.12435,17.12435,0,0,1-6.73055,2.584A42.672,42.672,0,0,1,19.84635,45.779a16.974,16.974,0,0,1-1.97662-.84675c-2.09823-.99355-3.38582-2.45369-3.08677-4.98551a34.16419,34.16419,0,0,0,.0248-3.85507c2.90493,2.72317,6.41011,3.50872,9.969,4.06874a44.66083,44.66083,0,0,0,19.59021-.994A11.20434,11.20434,0,0,0,49.93665,35.979Z" transform="translate(0.0073)"/>
      <path d="M14.791,26.87959c2.2832,2.30391,5.0371,3.138,7.863,3.7161a44.509,44.509,0,0,0,22.15051-.75,10.55747,10.55747,0,0,0,5.08072-2.99875c0,2.07228.09615,3.94842-.035,5.80853A3.50974,3.50974,0,0,1,47.87767,35.165a20.297,20.297,0,0,1-8.00658,2.71331,43.22309,43.22309,0,0,1-19.257-.98991,12.48087,12.48087,0,0,1-4.447-2.20511A3.44246,3.44246,0,0,1,14.7772,31.727C14.83478,30.17823,14.791,28.6257,14.791,26.87959Z" transform="translate(0.0073)"/>
    </g>
    <g>
      <g>
        <path d="M47.883,61.08153a12.67145,12.67145,0,1,0-9.07446-21.51562l1.64759,1.60565a10.36887,10.36887,0,1,1-2.00407,11.56008l-2.09094.96009A12.71242,12.71242,0,0,0,47.883,61.08153Z" transform="translate(0.0073)" stroke="#000" stroke-miterlimit="10" stroke-width="3"/>
        <polygon points="43.213 41.565 37.023 44.574 37.511 37.709 43.213 41.565" stroke="#000" stroke-miterlimit="10" stroke-width="3"/>
      </g>
      <g>
        <path d="M47.683,60.88153a12.67145,12.67145,0,1,0-9.07446-21.51562l1.64759,1.60566a10.36886,10.36886,0,1,1-2.00407,11.56007l-2.09094.96009A12.71243,12.71243,0,0,0,47.683,60.88153Z" transform="translate(0.0073)" fill="#fff" stroke="#fff" stroke-miterlimit="10" stroke-width="3"/>
        <polygon points="43.013 41.365 36.823 44.374 37.311 37.509 43.013 41.365" fill="#fff" stroke="#fff" stroke-miterlimit="10" stroke-width="3"/>
      </g>
    </g>
  </g>
</svg>
