<svg id="Layer_1" data-name="Layer 1" xmlns="http://www.w3.org/2000/svg" viewBox="0 0 75.01461 75">
  <g id="shapes">
    <path id="square" d="M73.5,70.12506A3.171,3.171,0,0,1,70.5813,73.5H4.41978A3.171,3.171,0,0,1,1.5,70.12506V4.87494A3.17253,3.17253,0,0,1,4.41978,1.5H70.5813A3.17251,3.17251,0,0,1,73.5,4.87494Z" transform="translate(0.0073)" fill="#9ff" stroke="#000" stroke-miterlimit="10" stroke-width="3" fill-rule="evenodd"/>
  </g>
  <g id="storage">
    <circle cx="37.5073" cy="37.5" r="23.5" fill="#fff" stroke="#000" stroke-miterlimit="10" stroke-width="3"/>
    <g>
      <path d="M37.33762,31.5387a30.839,30.839,0,0,1-10.01537-1.58728,8.79041,8.79041,0,0,1-2.755-1.50886c-1.38305-1.19134-1.39323-2.5738.01255-3.74542A11.73767,11.73767,0,0,1,29.839,22.448a33.8649,33.8649,0,0,1,17.49023.62132,8.45887,8.45887,0,0,1,3.158,1.69176c1.30836,1.169,1.3227,2.47442-.01277,3.61975a12.77449,12.77449,0,0,1-5.84735,2.43966A36.2213,36.2213,0,0,1,37.33762,31.5387Z" transform="translate(0.0073)"/>
      <path d="M51.49488,44.10229c0,1.55761.00492,2.88065-.00156,4.20364a2.83038,2.83038,0,0,1-1.4868,2.34,13.35783,13.35783,0,0,1-5.09945,1.97893,33.81839,33.81839,0,0,1-17.49476-.78573,11.84373,11.84373,0,0,1-1.64594-.73159,3.50287,3.50287,0,0,1-2.2348-3.74356,29.35716,29.35716,0,0,0,.01981-3.13506c3.02139,2.63387,6.683,3.13636,10.36467,3.49187a34.545,34.545,0,0,0,12.73378-.96509A9.60521,9.60521,0,0,0,51.49488,44.10229Z" transform="translate(0.0073)"/>
      <path d="M51.48792,36.808c0,1.61207.0372,3.02127-.01291,4.42736a2.72129,2.72129,0,0,1-1.42394,2.08889,13.61772,13.61772,0,0,1-5.35228,2.05487,33.9338,33.9338,0,0,1-17.13932-.7779,13.49887,13.49887,0,0,1-1.57185-.67335c-1.66856-.79009-2.69248-1.95123-2.45467-3.96459a27.16391,27.16391,0,0,0,.01972-3.06563c2.31006,2.16552,5.09746,2.79021,7.92759,3.23555a35.51535,35.51535,0,0,0,15.57856-.79045A8.90989,8.90989,0,0,0,51.48792,36.808Z" transform="translate(0.0073)"/>
      <path d="M23.53933,29.572a11.44948,11.44948,0,0,0,6.2528,2.95513A35.39451,35.39451,0,0,0,47.4067,31.9307,8.39559,8.39559,0,0,0,51.447,29.546c0,1.64792.07646,3.13986-.02787,4.61906a2.791,2.791,0,0,1-1.56854,1.99563,16.14068,16.14068,0,0,1-6.367,2.15768A34.372,34.372,0,0,1,28.17,37.53119a9.92513,9.92513,0,0,1-3.53634-1.75356,2.7375,2.7375,0,0,1-1.10525-2.35089C23.57416,32.19513,23.53933,30.96053,23.53933,29.572Z" transform="translate(0.0073)"/>
    </g>
  </g>
</svg>
