<svg id="Layer_1" data-name="Layer 1" xmlns="http://www.w3.org/2000/svg" viewBox="0 0 75 75">
  <g id="shapes">
    <path id="square" d="M73.5,70.13a3.16553,3.16553,0,0,1-2.92,3.37H4.42A3.17186,3.17186,0,0,1,1.5,70.13V4.87A3.17186,3.17186,0,0,1,4.42,1.5H70.58A3.17186,3.17186,0,0,1,73.5,4.87Z" fill="#9ff" stroke="#000" stroke-miterlimit="10" stroke-width="3" fill-rule="evenodd"/>
  </g>
  <g id="box">
    <g>
      <path d="M11.63,39.73v-.87a1.18446,1.18446,0,0,0,.22-.14c1.45-1.45,2.89-2.91,4.35-4.36.77-.76,1.55-1.51,2.33-2.28C16.46,30,14.45,28,12.45,25.99c-.27-.27-.55-.52-.82-.78v-.87c.22-.14.43-.29.65-.42.91-.53,1.82-1.05,2.74-1.58q7.2-4.155,14.39-8.32a1.65212,1.65212,0,0,0,.35-.39h1.09a1.64238,1.64238,0,0,0,.22.39c.95.96,1.9,1.9,2.85,2.85,1.19,1.2,2.37,2.4,3.56,3.61a4.04326,4.04326,0,0,0,.31-.26c2.12-2.12,4.25-4.23,6.36-6.35a1.00759,1.00759,0,0,0,.12-.23h.98a5.84683,5.84683,0,0,0,.69.54q8.355,4.83,16.71,9.65c.24.14.48.26.72.39v1.09a2.11808,2.11808,0,0,0-.38.26c-1.02,1.01-2.03,2.03-3.05,3.04-1.13,1.13-2.26,2.25-3.4,3.38.1.11.15.18.21.24q3.18,3.18,6.35,6.37a.84484.84484,0,0,0,.27.13v.98c-.29.19-.56.39-.86.56-1.95,1.13-3.9,2.26-5.86,3.37a.88656.88656,0,0,0-.51.9c.02,2.42-.03,4.84.03,7.26a1.81126,1.81126,0,0,1-1.05,1.82q-8.385,4.785-16.72,9.65a2.04422,2.04422,0,0,0-.36.36H36.95a1.79338,1.79338,0,0,0-.3-.36q-8.46-4.905-16.94-9.78a1.40311,1.40311,0,0,1-.81-1.39c.03-2.53,0-5.05.02-7.58a.807.807,0,0,0-.45-.82c-1.71-.96-3.4-1.95-5.1-2.94C12.78,40.43,12.21,40.08,11.63,39.73ZM53.3,31.94a.791.791,0,0,0-.13-.15q-7.605-4.38-15.19-8.78a.795.795,0,0,0-.93.02c-4.63,2.69-9.28,5.37-13.91,8.05-.45.26-.9.53-1.38.82.15.1.24.16.33.21q7.53,4.35,15.05,8.7a.7053.7053,0,0,0,.83-.01c3.56-2.07,7.14-4.13,10.71-6.19Q50.945,33.305,53.3,31.94ZM14.21,38.96a.97326.97326,0,0,0,.15.11Q22.085,43.525,29.8,48a.433.433,0,0,0,.64-.09c1.52-1.54,3.06-3.06,4.59-4.6.31-.31.62-.63.96-.98q-8.055-4.665-15.93-9.21C18.1,35.08,16.16,37.02,14.21,38.96ZM35.97,21.52a1.32345,1.32345,0,0,0-.08-.15c-1.82-1.83-3.66-3.65-5.47-5.49-.25-.25-.41-.17-.65-.03l-15.06,8.7c-.18.1-.36.22-.47.28,1.95,1.98,3.86,3.91,5.79,5.88Q27.98,26.135,35.97,21.52Zm3.07-.04c.49.29.91.53,1.33.78q7.125,4.125,14.25,8.25a.5397.5397,0,0,0,.82-.13c.34-.38.71-.73,1.07-1.09,1.45-1.45,2.91-2.89,4.41-4.39-1.04-.61-2.03-1.18-3.02-1.75L45.3,15.86c-.22-.13-.4-.27-.66,0C42.81,17.73,40.95,19.58,39.04,21.48ZM54.97,33.13c-5.25,3.03-10.56,6.1-15.86,9.17l5.85,5.85q7.905-4.56,15.89-9.18C58.9,37.02,56.96,35.11,54.97,33.13ZM36.57,60.95V44.45c-.2.19-.34.31-.48.45-1.64,1.63-3.27,3.27-4.9,4.9-.61.61-.87.65-1.63.21q-3.9-2.25-7.79-4.5c-.31-.18-.61-.35-.99-.56,0,2.29-.01,4.47.02,6.65,0,.15.22.35.39.45q6.315,3.675,12.65,7.32C34.72,59.88,35.61,60.4,36.57,60.95Zm1.94-16.49V60.88c.08-.02.12-.01.15-.03Q46.31,56.425,53.95,52a.80151.80151,0,0,0,.32-.6c.02-2.04.01-4.08.01-6.11a1.421,1.421,0,0,0-.05-.3c-.24.13-.42.22-.61.33q-4.065,2.34-8.12,4.69c-.78.45-1.04.41-1.67-.22C42.07,48.02,40.33,46.28,38.51,44.46Z"/>
      <path d="M53.3,31.94c-1.56.9-3.1,1.79-4.64,2.68q-5.355,3.09-10.71,6.19a.705.705,0,0,1-.83.01q-7.515-4.365-15.05-8.7c-.09-.05-.18-.12-.33-.21.49-.29.93-.56,1.38-.82q6.96-4.02,13.91-8.05a.795.795,0,0,1,.93-.02c5.06,2.94,10.13,5.85,15.19,8.78C53.19,31.81,53.21,31.85,53.3,31.94Z" opacity="0.5" style="isolation: isolate"/>
    </g>
  </g>
</svg>
