<svg id="Layer_1" data-name="Layer 1" xmlns="http://www.w3.org/2000/svg" viewBox="0 0 75 75">
  <g id="shapes">
    <path id="square" d="M73.5,70.13a3.16553,3.16553,0,0,1-2.92,3.37H4.42A3.17186,3.17186,0,0,1,1.5,70.13V4.87A3.17186,3.17186,0,0,1,4.42,1.5H70.58A3.17186,3.17186,0,0,1,73.5,4.87Z" fill="#69c" stroke="#000" stroke-miterlimit="10" stroke-width="3" fill-rule="evenodd"/>
  </g>
  <g id="AI">
    <g>
      <path d="M36.21,38.39v.55c0,2.62-.01,5.24,0,7.85a.922.922,0,0,1-.29.72c-.47.48-.92,1.01-1.41,1.49a1.70925,1.70925,0,0,1-.61.28.645.645,0,0,1-.24,0,.95546.95546,0,0,0-1.19.69A1.9433,1.9433,0,0,1,30.02,51a2.27176,2.27176,0,0,1-1.48-2.35,2.23576,2.23576,0,0,1,1.79-2.05,2.06477,2.06477,0,0,1,2.28,1.38c.12.35.28.41.6.43a1.57246,1.57246,0,0,0,1.17-.49,2.80383,2.80383,0,0,0,1.02-2.6c-.09-.94-.02-1.91-.02-2.87,0-.14-.01-.27-.02-.43-.92,0-1.8,0-2.68.01-.1,0-.21.1-.29.18-.43.44-.85.88-1.26,1.34a.782.782,0,0,1-.65.29c-.83-.01-1.66.01-2.48-.01-.27-.01-.38.08-.47.35a2.10163,2.10163,0,0,1-2.17,1.47,2.20772,2.20772,0,0,1-1.92-1.92,2.30584,2.30584,0,0,1,1.26-2.42,2.051,2.051,0,0,1,2.52.7,2.00479,2.00479,0,0,1,.31.62c.07.24.18.33.42.32.76-.02,1.52.01,2.28-.02a.76228.76228,0,0,0,.48-.22c.43-.42.82-.89,1.25-1.3a.95941.95941,0,0,1,.61-.26c.92-.03,1.84-.01,2.79-.01V38.39H32.53c-.45,0-.56-.12-.56-.59,0-.9-.01-1.79,0-2.68,0-.26-.06-.36-.33-.37a1.42235,1.42235,0,0,0-1.32.55c-.83.95-1.73,1.85-2.58,2.78a.92822.92822,0,0,1-.74.31c-.82-.01-1.64,0-2.45-.01a.38191.38191,0,0,0-.43.31,2.07786,2.07786,0,0,1-2.42,1.47,2.2912,2.2912,0,0,1,.05-4.44,2.07978,2.07978,0,0,1,2.37,1.46c.09.26.2.33.44.33.74-.02,1.47.01,2.21-.02a.92.92,0,0,0,.54-.24q1.44-1.5,2.85-3.03a.97506.97506,0,0,1,.83-.36c.31.02.62,0,.98,0,0-.85-.02-1.65.01-2.46a1.14169,1.14169,0,0,0-.35-.91c-.88-.9-1.74-1.83-2.6-2.76a.72507.72507,0,0,0-.58-.25c-.71.02-1.43.02-2.14,0-.28-.01-.4.09-.49.37a2.07854,2.07854,0,0,1-2.32,1.42,2.20874,2.20874,0,0,1-1.77-2.1,2.24382,2.24382,0,0,1,1.53-2.3,2.06851,2.06851,0,0,1,2.56,1.37.45392.45392,0,0,0,.53.37c.79-.02,1.59,0,2.38-.01a.8295.8295,0,0,1,.71.31c.8.88,1.62,1.74,2.49,2.68.02-.17.04-.26.04-.35V27.23c0-.5.11-.62.57-.62.83,0,1.66-.01,2.49,0,.26,0,.38-.06.37-.36-.02-.78-.01-1.56-.01-2.37-.16-.01-.29-.02-.41-.02-.8,0-1.61.02-2.41-.01a1.02817,1.02817,0,0,1-.61-.27,16.30307,16.30307,0,0,1-1.14-1.21.76938.76938,0,0,0-.73-.32,1.4775,1.4775,0,0,1-.42,0c-.24-.04-.33.08-.42.32a2.0285,2.0285,0,0,1-1.84,1.48,1.96724,1.96724,0,0,1-2.02-1.18,2.25193,2.25193,0,0,1,.2-2.45,1.94748,1.94748,0,0,1,1.94-.85,2.033,2.033,0,0,1,1.71,1.45c.09.27.21.4.47.35a1.79674,1.79674,0,0,1,1.96.86,2.02774,2.02774,0,0,0,2.16.96,11.11539,11.11539,0,0,1,1.53-.01c.01-.16.02-.29.02-.43,0-1.35.01-2.7-.01-4.06a.99088.99088,0,0,0-.22-.54c-.24-.3-.55-.55-.78-.85a1.20786,1.20786,0,0,0-1.15-.51c-.31.02-.48.06-.6.42a2.05938,2.05938,0,0,1-2.34,1.37,2.28465,2.28465,0,0,1,.01-4.44,2.0507,2.0507,0,0,1,2.33,1.39c.12.35.29.44.58.39a1.74119,1.74119,0,0,1,1.82.8,8.45008,8.45008,0,0,0,.91.98.90847.90847,0,0,1,.29.72c-.01,2.66,0,5.31-.01,7.97,0,.33.07.46.4.44.71-.03,1.41-.01,2.18-.01v-.51q0-3.93-.01-7.85a1.05463,1.05463,0,0,1,.31-.79c.49-.49.94-1.01,1.43-1.49a1.31821,1.31821,0,0,1,.55-.25.66083.66083,0,0,1,.28,0,.95159.95159,0,0,0,1.19-.69A1.93706,1.93706,0,0,1,44.96,14a2.26483,2.26483,0,0,1,1.51,2.32,2.22938,2.22938,0,0,1-1.8,2.08,2.05313,2.05313,0,0,1-2.26-1.35c-.14-.39-.32-.43-.65-.45a1.46089,1.46089,0,0,0-1.1.47,2.82306,2.82306,0,0,0-1.04,2.67c.09.92.02,1.86.02,2.79v.46h1.31a3.87973,3.87973,0,0,0,1.49-.06,3.13107,3.13107,0,0,0,1.08-1.09,1.63338,1.63338,0,0,1,1.7-.67c.31.04.48-.06.61-.42A2.03443,2.03443,0,0,1,48.2,19.4a2.28962,2.28962,0,0,1-.06,4.44,2.07614,2.07614,0,0,1-2.35-1.43c-.1-.29-.24-.33-.5-.36a1.35346,1.35346,0,0,0-1.33.59,6.15006,6.15006,0,0,1-.89.95,1.0923,1.0923,0,0,1-.61.27c-.91.03-1.84.01-2.79.01a2.636,2.636,0,0,0-.03.38c0,.66.01,1.32,0,1.97-.01.3.07.41.36.4.82-.02,1.63-.01,2.45,0,.51,0,.61.11.61.66,0,.72,0,1.44.01,2.16,0,.02.02.04.06.1l.27-.27c.73-.78,1.47-1.56,2.2-2.35a.86031.86031,0,0,1,.71-.3c.82.01,1.64,0,2.45.01a.37923.37923,0,0,0,.43-.31,2.08308,2.08308,0,0,1,2.42-1.47,2.29108,2.29108,0,0,1-.03,4.44,2.108,2.108,0,0,1-2.39-1.49.35535.35535,0,0,0-.4-.3c-.76.01-1.52,0-2.27.01a.64629.64629,0,0,0-.45.2c-.95.98-1.88,1.97-2.8,2.97a.755.755,0,0,0-.2.41c-.01.86-.01,1.71,0,2.57,0,.06.02.12.03.22.34,0,.68.02,1.02,0a.84094.84094,0,0,1,.71.31c.96,1.03,1.93,2.07,2.9,3.08a.92.92,0,0,0,.54.24c.72.03,1.45,0,2.17.02.28.01.39-.08.49-.37a2.07374,2.07374,0,0,1,2.32-1.43,2.29272,2.29272,0,0,1,.28,4.39,2.0669,2.0669,0,0,1-2.61-1.38.41714.41714,0,0,0-.47-.34c-.82.01-1.64,0-2.45.01a.832.832,0,0,1-.68-.3c-.95-1.02-1.91-2.04-2.87-3.06a1.47188,1.47188,0,0,0-1.26-.27.43313.43313,0,0,0-.11.31c-.01.89,0,1.79,0,2.68,0,.52-.1.62-.61.63H39.69v2.75h.72c.7,0,1.4-.02,2.1.01a.94783.94783,0,0,1,.55.24c.44.43.84.9,1.28,1.33a.7623.7623,0,0,0,.48.22c.76.03,1.51,0,2.27.02.24.01.33-.08.41-.32a2.07507,2.07507,0,0,1,2.54-1.41,2.24617,2.24617,0,0,1,1.56,2.48,2.1846,2.1846,0,0,1-2.13,1.96,2.12676,2.12676,0,0,1-1.97-1.51c-.08-.24-.18-.32-.42-.31-.82.01-1.64-.01-2.45.01a.87989.87989,0,0,1-.76-.35c-.39-.44-.81-.86-1.21-1.29-.07-.07-.17-.17-.25-.17-.89-.01-1.79-.01-2.72-.01-.01.17-.01.3-.02.43,0,1.35-.01,2.7.01,4.06a.93317.93317,0,0,0,.2.52,9.68858,9.68858,0,0,1,.75.83,1.31483,1.31483,0,0,0,1.48.52c.1-.01.23-.18.27-.3a2.09442,2.09442,0,0,1,3.09-1.19,2.32194,2.32194,0,0,1,.98,2.5,2.17243,2.17243,0,0,1-1.9,1.71,2.07644,2.07644,0,0,1-2.13-1.46c-.1-.3-.22-.42-.49-.36a1.825,1.825,0,0,1-1.94-.86,6.79445,6.79445,0,0,0-.86-.92.922.922,0,0,1-.29-.72c.02-2.65,0-5.28.02-7.93,0-.36-.07-.5-.44-.48C37.66,38.41,36.96,38.39,36.21,38.39ZM32.82,27.51v9.96h9.36V27.51Zm-4.28-5.92a1.29271,1.29271,0,1,0-1.28,1.39A1.36778,1.36778,0,0,0,28.54,21.59Zm19.22,1.38a1.38088,1.38088,0,0,0,1.29-1.38,1.29709,1.29709,0,1,0-2.59.02A1.337,1.337,0,0,0,47.76,22.97ZM22.11,39.31a1.32418,1.32418,0,0,0,1.3-1.36,1.35153,1.35153,0,0,0-1.28-1.38,1.37252,1.37252,0,0,0-.02,2.74Zm30.77,0a1.3359,1.3359,0,0,0,1.28-1.37,1.29709,1.29709,0,1,0-2.59.02A1.33637,1.33637,0,0,0,52.88,39.31ZM24.25,43.37a1.346,1.346,0,0,0,1.27,1.39,1.37823,1.37823,0,1,0-1.27-1.39Zm25.22-1.35a1.37263,1.37263,0,1,0,1.27,1.38A1.34961,1.34961,0,0,0,49.47,42.02ZM31.96,16.15a1.35924,1.35924,0,0,0-1.3-1.37,1.345,1.345,0,0,0-1.28,1.38,1.29264,1.29264,0,1,0,2.58-.01Zm13.66.01a1.29734,1.29734,0,1,0-1.3,1.37A1.36007,1.36007,0,0,0,45.62,16.16ZM25.12,27.03a1.28743,1.28743,0,1,0-1.27,1.38A1.32809,1.32809,0,0,0,25.12,27.03Zm26.05-1.35a1.36718,1.36718,0,0,0,0,2.73,1.31425,1.31425,0,0,0,1.28-1.36A1.32949,1.32949,0,0,0,51.17,25.68ZM30.67,47.47a1.37192,1.37192,0,1,0,1.29,1.38A1.367,1.367,0,0,0,30.67,47.47Zm14.95,1.35a1.29765,1.29765,0,1,0-1.29,1.39A1.35106,1.35106,0,0,0,45.62,48.82Z" stroke="#000" stroke-miterlimit="10" fill-rule="evenodd"/>
      <path d="M33.66,32.48V29.06c0-.5.13-.65.6-.65h6.48c.46,0,.6.14.6.65,0,1.68.01,3.37-.01,5.06a1.01926,1.01926,0,0,1-.24.62c-.47.55-.97,1.07-1.48,1.57a.94748.94748,0,0,1-.58.25c-1.59.02-3.17.01-4.76.01-.48,0-.61-.14-.61-.67Zm.83-.02c0,.95.01,1.9,0,2.87-.01.3.08.37.36.37,1.3-.01,2.61,0,3.92-.01a.72673.72673,0,0,0,.45-.21c.38-.37.75-.77,1.12-1.18a.74046.74046,0,0,0,.17-.42c.01-1.42,0-2.85.01-4.28,0-.25-.09-.31-.31-.31-1.8,0-3.59.01-5.39,0-.24,0-.33.07-.32.33C34.5,30.57,34.49,31.52,34.49,32.46Z" stroke="#000" stroke-miterlimit="10" fill-rule="evenodd"/>
    </g>
  </g>
  <g id="predict">
    <g opacity="0.75">
      <path d="M39.25,5.57c1.06.16,2.14.26,3.19.5C52.79,8.45,59.59,14.73,62.25,25A24.98205,24.98205,0,0,1,51.98,52.13a24.04205,24.04205,0,0,1-18.97,4.08c-10.5-2.08-17.37-8.42-20.2-18.72A25.42062,25.42062,0,0,1,31.84,6.21c1.29-.29,2.61-.43,3.92-.64ZM60.92,31.15A23.42027,23.42027,0,1,0,37.55,54.52,23.45771,23.45771,0,0,0,60.92,31.15Z"/>
      <path d="M55.66,51.96a4.11977,4.11977,0,0,1,.96,3.27,24.00245,24.00245,0,0,1,2.41,1.13,16.10507,16.10507,0,0,1,2.78,1.98c1.68,1.61,1.64,3.48.03,5.15a12.12689,12.12689,0,0,1-4.01,2.57,38.97313,38.97313,0,0,1-9.84,2.61,70.55442,70.55442,0,0,1-15.16.61,48.68064,48.68064,0,0,1-15.37-3.1,12.67438,12.67438,0,0,1-4.12-2.52c-1.86-1.82-1.83-3.8.08-5.57a14.34171,14.34171,0,0,1,4.38-2.58c.19-.08.38-.15.62-.25a4.15442,4.15442,0,0,1,.9-3.3A27.64121,27.64121,0,0,0,55.66,51.96Z"/>
      <path d="M60.92,31.15A23.42023,23.42023,0,1,1,37.45,7.69,23.47764,23.47764,0,0,1,60.92,31.15Zm-42.59-.06A19.25736,19.25736,0,0,1,37.45,11.93V9.84C24.7,9.86,15.9,20.75,16.29,31.09Z" fill="#fff" opacity="0.6" style="isolation: isolate"/>
      <path d="M18.33,31.09H16.3C15.9,20.75,24.7,9.86,37.45,9.84v2.09A19.25736,19.25736,0,0,0,18.33,31.09Z"/>
    </g>
  </g>
</svg>
