<svg id="Layer_1" data-name="Layer 1" xmlns="http://www.w3.org/2000/svg" viewBox="0 0 75 75">
  <g id="shapes">
    <path id="square" d="M73.5,70.13a3.16553,3.16553,0,0,1-2.92,3.37H4.42A3.17186,3.17186,0,0,1,1.5,70.13V4.87A3.17186,3.17186,0,0,1,4.42,1.5H70.58A3.17186,3.17186,0,0,1,73.5,4.87Z" fill="#69c" stroke="#000" stroke-miterlimit="10" stroke-width="3" fill-rule="evenodd"/>
  </g>
  <g id="AI">
    <g>
      <path d="M35.24,47.83v.96c0,4.59-.01,9.19.01,13.79a1.70277,1.70277,0,0,1-.5,1.27c-.84.85-1.63,1.78-2.49,2.62a3.345,3.345,0,0,1-1.06.5,1.24167,1.24167,0,0,1-.43,0,1.66688,1.66688,0,0,0-2.09,1.21,3.39466,3.39466,0,0,1-4.3,1.8,3.98969,3.98969,0,0,1-2.6-4.13,3.88755,3.88755,0,0,1,3.15-3.59,3.61917,3.61917,0,0,1,4,2.42.96754.96754,0,0,0,1.05.76,2.755,2.755,0,0,0,2.05-.87A4.90355,4.90355,0,0,0,33.81,60c-.16-1.66-.03-3.36-.03-5.03,0-.24-.02-.47-.03-.76-1.61,0-3.16-.01-4.71.01a.90056.90056,0,0,0-.51.31c-.75.77-1.5,1.55-2.22,2.36a1.37774,1.37774,0,0,1-1.14.51c-1.45-.02-2.91.01-4.36-.02-.47-.02-.66.14-.82.61a3.70215,3.70215,0,0,1-3.81,2.59,3.87409,3.87409,0,0,1-3.37-3.37,4.049,4.049,0,0,1,2.22-4.25,3.57662,3.57662,0,0,1,4.42,1.24A3.67476,3.67476,0,0,1,20,55.28c.12.43.31.57.73.55,1.34-.03,2.67.02,4-.03a1.38163,1.38163,0,0,0,.84-.38c.75-.74,1.43-1.56,2.2-2.29a1.73029,1.73029,0,0,1,1.07-.46c1.62-.05,3.23-.02,4.9-.02V47.82H28.78c-.79,0-.99-.21-.99-1.04-.01-1.58-.02-3.15,0-4.71.01-.47-.1-.62-.57-.66a2.49836,2.49836,0,0,0-2.31.97c-1.46,1.67-3.03,3.24-4.53,4.87a1.5639,1.5639,0,0,1-1.3.57c-1.43-.02-2.87.01-4.31-.01a.64683.64683,0,0,0-.75.54,3.67219,3.67219,0,0,1-4.24,2.59,4.02031,4.02031,0,0,1,.07-7.79A3.63707,3.63707,0,0,1,14,45.71a.68726.68726,0,0,0,.78.58c1.29-.04,2.58.01,3.87-.04a1.53174,1.53174,0,0,0,.94-.42q2.535-2.64,5-5.32a1.68817,1.68817,0,0,1,1.46-.63c.54.04,1.09.01,1.71.01,0-1.49-.03-2.9.01-4.31a1.99018,1.99018,0,0,0-.61-1.6c-1.55-1.59-3.06-3.22-4.57-4.85a1.239,1.239,0,0,0-1.02-.44c-1.25.03-2.5.04-3.75,0-.5-.01-.7.16-.87.65a3.65093,3.65093,0,0,1-4.08,2.5,3.88119,3.88119,0,0,1-3.11-3.69,3.92281,3.92281,0,0,1,2.69-4.04,3.62054,3.62054,0,0,1,4.49,2.4.79256.79256,0,0,0,.93.65c1.39-.03,2.79.01,4.18-.02a1.52826,1.52826,0,0,1,1.25.54c1.41,1.55,2.84,3.06,4.37,4.7a6.04337,6.04337,0,0,0,.08-.61V28.24c0-.88.19-1.09,1-1.09,1.46-.01,2.91-.02,4.37,0,.46.01.66-.1.64-.64-.03-1.37-.01-2.74-.01-4.16-.28-.02-.5-.03-.72-.03-1.41,0-2.83.03-4.24-.02a1.92066,1.92066,0,0,1-1.07-.47,28.7499,28.7499,0,0,1-2-2.12,1.35376,1.35376,0,0,0-1.28-.57,3.05246,3.05246,0,0,1-.74,0c-.43-.06-.59.14-.73.55a3.55717,3.55717,0,0,1-3.23,2.6,3.47162,3.47162,0,0,1-3.55-2.08,3.93644,3.93644,0,0,1,.34-4.3,3.40222,3.40222,0,0,1,3.41-1.49,3.56036,3.56036,0,0,1,3,2.55c.17.47.36.7.83.61a3.1306,3.1306,0,0,1,3.44,1.52,3.55965,3.55965,0,0,0,3.8,1.68,20.03032,20.03032,0,0,1,2.69-.02c.01-.28.04-.51.04-.75,0-2.37.02-4.75-.01-7.12a1.82488,1.82488,0,0,0-.38-.96c-.42-.53-.96-.96-1.37-1.5a2.1293,2.1293,0,0,0-2.03-.89c-.55.03-.84.11-1.06.74a3.60193,3.60193,0,0,1-4.11,2.4A3.90136,3.90136,0,0,1,21.73,8.8a3.8997,3.8997,0,0,1,3.08-3.92,3.6071,3.6071,0,0,1,4.1,2.44c.21.62.5.78,1.02.69a3.04474,3.04474,0,0,1,3.19,1.4,15.30241,15.30241,0,0,0,1.6,1.72,1.6235,1.6235,0,0,1,.5,1.27c-.02,4.66,0,9.32-.02,13.98,0,.57.12.8.71.77,1.24-.05,2.48-.01,3.83-.01v-.89q0-6.9-.02-13.79a1.82339,1.82339,0,0,1,.54-1.38c.86-.85,1.65-1.77,2.5-2.61a2.4815,2.4815,0,0,1,.96-.44,1.3501,1.3501,0,0,1,.49-.01A1.67053,1.67053,0,0,0,46.3,6.81,3.444,3.444,0,0,1,50.57,5a3.98428,3.98428,0,0,1,2.65,4.08,3.90452,3.90452,0,0,1-3.17,3.65,3.60429,3.60429,0,0,1-3.96-2.38c-.24-.69-.57-.76-1.15-.8a2.53889,2.53889,0,0,0-1.93.83,4.93257,4.93257,0,0,0-1.83,4.69c.16,1.61.04,3.26.04,4.89v.82h2.3a7.11915,7.11915,0,0,0,2.62-.1,5.40411,5.40411,0,0,0,1.89-1.91,2.84283,2.84283,0,0,1,2.98-1.17c.55.07.84-.1,1.06-.73a3.59043,3.59043,0,0,1,4.17-2.38,4.02351,4.02351,0,0,1-.09,7.8,3.65194,3.65194,0,0,1-4.12-2.51c-.17-.52-.43-.58-.89-.63a2.38884,2.38884,0,0,0-2.34,1.04,10.657,10.657,0,0,1-1.56,1.66,1.82671,1.82671,0,0,1-1.07.47c-1.6.05-3.22.02-4.9.02a5.43331,5.43331,0,0,0-.05.67c0,1.16.01,2.31-.01,3.46-.01.53.12.72.64.71,1.43-.04,2.87-.01,4.31-.01.9,0,1.07.19,1.07,1.16,0,1.27.01,2.52.01,3.79,0,.03.04.07.11.17.17-.16.31-.32.47-.47,1.28-1.37,2.59-2.73,3.86-4.13a1.47922,1.47922,0,0,1,1.25-.53c1.44.02,2.87-.01,4.31.02a.65684.65684,0,0,0,.75-.54,3.67018,3.67018,0,0,1,4.24-2.59,4.01858,4.01858,0,0,1-.06,7.79,3.6809,3.6809,0,0,1-4.19-2.61.61729.61729,0,0,0-.69-.53c-1.33.02-2.66-.01-3.99.02a1.26476,1.26476,0,0,0-.79.34c-1.66,1.72-3.29,3.46-4.92,5.22a1.18537,1.18537,0,0,0-.34.72c-.02,1.5-.01,3-.01,4.51a2.89481,2.89481,0,0,0,.06.39c.6,0,1.2.03,1.78-.01a1.45341,1.45341,0,0,1,1.24.54c1.68,1.81,3.38,3.63,5.09,5.4a1.5581,1.5581,0,0,0,.95.42c1.27.05,2.54-.01,3.81.04.49.01.69-.14.86-.65a3.64672,3.64672,0,0,1,4.07-2.51,4.0263,4.0263,0,0,1,.48,7.71,3.603,3.603,0,0,1-4.57-2.43.73518.73518,0,0,0-.83-.6c-1.44.03-2.87,0-4.31.01a1.48572,1.48572,0,0,1-1.2-.52c-1.67-1.8-3.35-3.58-5.03-5.37a2.53721,2.53721,0,0,0-2.21-.47.7701.7701,0,0,0-.19.54c-.01,1.56,0,3.13-.01,4.71,0,.91-.18,1.1-1.06,1.1H41.28v4.83h1.27c1.22,0,2.46-.04,3.68.01a1.60647,1.60647,0,0,1,.96.41c.77.75,1.48,1.58,2.25,2.34a1.30507,1.30507,0,0,0,.84.38c1.33.05,2.66,0,3.99.03.43.02.59-.15.73-.56a3.64415,3.64415,0,0,1,4.46-2.48,3.94875,3.94875,0,0,1,2.74,4.36,3.81536,3.81536,0,0,1-3.74,3.43A3.70821,3.70821,0,0,1,55,57.9a.63477.63477,0,0,0-.74-.54c-1.44.02-2.87-.02-4.31.02a1.61,1.61,0,0,1-1.34-.61c-.69-.78-1.41-1.51-2.13-2.26-.12-.13-.29-.3-.44-.3-1.57-.02-3.14-.01-4.78-.01-.01.3-.03.52-.03.76,0,2.37-.01,4.75.01,7.13a1.60046,1.60046,0,0,0,.35.9c.41.52.96.91,1.32,1.45a2.35081,2.35081,0,0,0,2.61.92c.18-.02.4-.32.47-.53a3.66474,3.66474,0,0,1,5.42-2.08,4.06818,4.06818,0,0,1,1.72,4.39,3.79126,3.79126,0,0,1-3.34,3,3.66729,3.66729,0,0,1-3.75-2.56c-.17-.52-.38-.73-.86-.63a3.23081,3.23081,0,0,1-3.4-1.5,12.82621,12.82621,0,0,0-1.51-1.62,1.65956,1.65956,0,0,1-.51-1.27c.03-4.64,0-9.28.03-13.92,0-.64-.12-.88-.77-.84C37.78,47.88,36.55,47.83,35.24,47.83ZM29.28,28.74V46.23H45.71V28.74ZM21.77,18.35a2.37782,2.37782,0,0,0-2.29-2.39,2.4144,2.4144,0,0,0,.04,4.82A2.38069,2.38069,0,0,0,21.77,18.35Zm33.74,2.43a2.41379,2.41379,0,0,0-.04-4.82,2.41506,2.41506,0,0,0,.04,4.82ZM10.49,49.46a2.40381,2.40381,0,0,0,.04-4.8,2.40381,2.40381,0,0,0-.04,4.8Zm54.02,0a2.40381,2.40381,0,1,0-2.29-2.38A2.35555,2.35555,0,0,0,64.51,49.46ZM14.24,56.59a2.384,2.384,0,0,0,2.24,2.45,2.41451,2.41451,0,0,0,.06-4.82A2.35485,2.35485,0,0,0,14.24,56.59Zm44.27-2.37a2.37322,2.37322,0,0,0-2.29,2.37,2.398,2.398,0,0,0,2.24,2.45,2.41477,2.41477,0,0,0,.05-4.82ZM27.77,8.79a2.26971,2.26971,0,1,0-2.25,2.43A2.38533,2.38533,0,0,0,27.77,8.79Zm23.99.02a2.27937,2.27937,0,1,0-2.29,2.41A2.38162,2.38162,0,0,0,51.76,8.81ZM15.77,27.9a2.32528,2.32528,0,0,0-2.28-2.37,2.40441,2.40441,0,0,0,.04,4.8A2.353,2.353,0,0,0,15.77,27.9ZM61.5,25.53a2.39935,2.39935,0,1,0,2.25,2.4A2.33481,2.33481,0,0,0,61.5,25.53Zm-36,38.24a2.408,2.408,0,1,0,2.27,2.43A2.38848,2.38848,0,0,0,25.5,63.77Zm26.26,2.38a2.275,2.275,0,1,0-2.26,2.44A2.39393,2.39393,0,0,0,51.76,66.15Z" stroke="#000" stroke-miterlimit="10" fill-rule="evenodd"/>
      <path d="M30.75,37.47V31.46c0-.88.24-1.14,1.05-1.14H43.17c.81,0,1.05.25,1.05,1.13,0,2.96.01,5.92-.01,8.87a1.93248,1.93248,0,0,1-.41,1.1c-.83.96-1.69,1.88-2.6,2.76a1.66993,1.66993,0,0,1-1.02.44c-2.78.03-5.57.02-8.36.02-.85,0-1.07-.25-1.07-1.17Zm1.47-.04c0,1.67.02,3.34-.01,5.03-.01.52.15.66.63.65,2.29-.02,4.58,0,6.88-.02a1.30688,1.30688,0,0,0,.79-.36c.67-.66,1.32-1.35,1.96-2.07a1.34568,1.34568,0,0,0,.3-.73c.02-2.5,0-5.01.02-7.51,0-.45-.17-.54-.54-.54-3.16.01-6.3.01-9.46,0-.42,0-.57.12-.57.59C32.23,34.12,32.22,35.77,32.22,37.43Z" stroke="#000" stroke-miterlimit="10" fill-rule="evenodd"/>
    </g>
  </g>
</svg>
