<svg id="Layer_1" data-name="Layer 1" xmlns="http://www.w3.org/2000/svg" viewBox="0 0 75 75">
  <g id="shapes">
    <path id="square" d="M73.5,70.13a3.16553,3.16553,0,0,1-2.92,3.37H4.42A3.17186,3.17186,0,0,1,1.5,70.13V4.87A3.17186,3.17186,0,0,1,4.42,1.5H70.58A3.17186,3.17186,0,0,1,73.5,4.87Z" fill="#69c" stroke="#000" stroke-miterlimit="10" stroke-width="3" fill-rule="evenodd"/>
  </g>
  <g id="search">
    <g>
      <path d="M48.6,36.51c-3.03,3.15-5.93,6.17-8.95,9.31-1.7-2.53-3.97-2.29-6.47-1.55A20.18629,20.18629,0,0,1,7.65,29.7C4.78,18.43,11.56,6.88,22.62,4.21A20.30009,20.30009,0,0,1,47.5,20.27a24.50385,24.50385,0,0,1-.34,9.57C46.52,32.61,45.82,34.91,48.6,36.51ZM27.53,9.15A15.32669,15.32669,0,1,0,42.65,24.53,15.04766,15.04766,0,0,0,27.53,9.15Z"/>
      <path d="M44.38,51.1c3.4-3.32,6.33-6.19,9.66-9.45,4.04,4.26,8.27,8.66,12.43,13.13,2.23,2.39,2,5.86-.46,8.45-2.42,2.56-6.03,3.07-8.36.88C53.16,59.87,48.83,55.47,44.38,51.1Z"/>
      <path d="M27.53,9.15A15.07431,15.07431,0,0,1,42.66,24.53,15.19577,15.19577,0,1,1,27.53,9.15Z" fill="#fff" opacity="0.75" style="isolation: isolate"/>
    </g>
  </g>
  <g id="analytics" opacity="0.5">
    <g>
      <line x1="12.17" y1="67.18" x2="12.17" y2="36.93" fill="none" stroke="#231f20" stroke-miterlimit="10" stroke-width="5.4"/>
      <line x1="29.05" y1="67.18" x2="29.05" y2="28.83" fill="none" stroke="#231f20" stroke-miterlimit="10" stroke-width="5.4"/>
      <line x1="45.94" y1="67.18" x2="45.94" y2="36.93" fill="none" stroke="#231f20" stroke-miterlimit="10" stroke-width="5.4"/>
      <line x1="62.83" y1="67.18" x2="62.83" y2="24.79" fill="none" stroke="#231f20" stroke-miterlimit="10" stroke-width="5.4"/>
      <polyline points="12.17 24.79 29.05 12.92 45.94 24.79 62.83 11.05" fill="none" stroke="#231f20" stroke-miterlimit="10" stroke-width="5.4"/>
    </g>
  </g>
</svg>
