<svg id="Layer_1" data-name="Layer 1" xmlns="http://www.w3.org/2000/svg" viewBox="0 0 75.01461 75">
  <g id="shapes">
    <path id="square" d="M73.5073,70.12506A3.171,3.171,0,0,1,70.5886,73.5H4.42708A3.171,3.171,0,0,1,1.5073,70.12506V4.87494A3.17253,3.17253,0,0,1,4.42708,1.5H70.5886a3.17251,3.17251,0,0,1,2.9187,3.37494Z" transform="translate(0)" fill="#69c" stroke="#000" stroke-miterlimit="10" stroke-width="3" fill-rule="evenodd"/>
  </g>
  <g id="App">
    <g>
      <g>
        <path d="M21.52167,45.63526c.325-.16219.41421-.36931.24837-.56588l-.19205-.43876.37132-.39807a5.05456,5.05456,0,0,0,.49509.32592.379.379,0,0,0,.27671.00357c.23388-.09024.25857-.25509.18578-.49278-.16069-.52473-.14641-.52911.39951-.72778l.48078.57653.45762-.18341c0-.20208-.008-.39854.00443-.5937A.259.259,0,0,1,24.344,42.952c.297-.15775.43161-.10819.58133.18981a1.70316,1.70316,0,0,1,.107.21584c.05607.1679.159.18835.328.17359.22342-.01951.34418-.09113.3631-.32658a3.6631,3.6631,0,0,1,.09918-.46582l.5983.02683a5.778,5.778,0,0,0,.11089.585c.02395.08182.10331.1929.17347.20613.13882.02615.31359.129.4183-.08987.0878-.18358.20018-.35542.29848-.52687.58134.09066.58133.09066.51568.62519-.00218.01775-.00353.03559-.006.0533-.01883.1365-.03779.26575.1381.32852.15683.056.30468.16525.43967-.039.04838-.07322.13422-.12153.18341-.19441.15261-.22607.30993-.23051.52491-.06893.13581.10207.1974.18693.13063.35142-.04673.11512-.05829.24564-.11181.35663-.08989.18643.04954.25019.15157.34592a.21413.21413,0,0,0,.32727.01317c.06068-.05176.13475-.0875.20088-.13323.152-.10511.29218-.16817.43789.02228.12192.15936.31114.284.09592.51177a2.38516,2.38516,0,0,0-.24059.36261c.23139.39715.23138.39711.62665.29931.12895-.03191.258-.0636.38328-.09448.34733.4416.34778.44807-.02762.76812-.12164.10371-.24588.17717-.15915.39243.08254.20486.1778.30558.403.28a1.28214,1.28214,0,0,1,.3471.018.205.205,0,0,1,.13254.09544c.161.32687.13266.41132-.17707.58415-.0624.03482-.12624.06741-.18653.1056-.11356.07194-.26516.09945-.21733.309.04539.19886.08326.35732.337.347a1.11773,1.11773,0,0,1,.34307.05281.24814.24814,0,0,1,.15323.11616.35265.35265,0,0,1-.2929.53005.93569.93569,0,0,1-.21037.03841c-.29423-.00559-.27916.21806-.32935.411-.05616.2159.11559.23175.22953.29463.43.23725.43131.235.29359.71553a.3258.3258,0,0,1-.03064.05523c-.19,0-.38555.00116-.58106-.00044-.12215-.001-.25636-.03945-.29758.13934-.03788.16429-.16566.3259.05435.47107a3.3442,3.3442,0,0,1,.37447.33108c-.22918.5606-.22919.56061-.7534.38681l-.02478-.01024a.309.309,0,0,0-.42652.09508l-.00787.01309c-.1252.16713-.05268.2726.043.39815.08623.11313.165.23193.25748.36294l-.4807.45-.58544-.46566c-.4072.2861-.40713.28608-.286.71983a2.26161,2.26161,0,0,1,.06225.23273c.03992.23946-.17921.25274-.30863.34136a.1859.1859,0,0,1-.29514-.04676c-.11961-.16455-.25968-.31422-.38984-.469l-.4652.167c.01793.16758.02561.33586.056.5.04364.23595-.02906.36245-.27848.40752-.22025.03979-.41833.10418-.50281-.19722a1.01938,1.01938,0,0,0-.17142-.33163c-.0506-.06659-.15495-.1509-.21578-.13767a.41361.41361,0,0,0-.25182.18578,1.20945,1.20945,0,0,0-.0899.389c-.0324.2243-.14165.28752-.37712.29909-.34329.01686-.35974-.20038-.41628-.4261-.11221-.44791-.1156-.44706-.56766-.42907-.04847.11152-.09577.22665-.14806.33947-.174.3755-.20016.377-.57538.22209a.28018.28018,0,0,1-.19841-.343v0l.00254-.00894a1.55711,1.55711,0,0,0,.04553-.37091.34581.34581,0,0,0-.12722-.21364c-.25807-.20541-.42141-.02433-.57817.16008a.37424.37424,0,0,1-.55077.11188c-.22335-.13714-.17588-.29737-.11326-.48167.02582-.076.048-.15344.06764-.23128.03375-.13344.10167-.25706-.07152-.37217-.15454-.10272-.27387-.1377-.42825-.01735a1.13725,1.13725,0,0,1-.32282.18807.3505.3505,0,0,1-.27324-.01378c-.27946-.19685-.2834-.29473-.07674-.58923.12309-.1754.2973-.32678.07728-.57444-.12221-.13758-.21127-.18327-.37686-.11821a2.19647,2.19647,0,0,1-.38674.10583.21924.21924,0,0,1-.16444-.03167.3842.3842,0,0,1-.00127-.65472.93989.93989,0,0,1,.143-.121c.21771-.122.17107-.27752.10425-.47487-.07416-.219-.21617-.16115-.36107-.14942a.81539.81539,0,0,1-.187.00927c-.112-.01748-.2943-.01976-.31882-.08036a2.43073,2.43073,0,0,1-.09739-.545c-.10072.02712-.24171.049-.25116.27929-.00924.22559.10336.29656.27363.35875a1.17033,1.17033,0,0,1,.285.13689.26838.26838,0,0,1,.11521.18216c-.0196.39589-.10332.464-.5003.44334-.04463-.00232-.08989.00023-.13387-.00623a.27015.27015,0,0,0-.3392.17582h0a.30276.30276,0,0,0,.09276.39862,2.2895,2.2895,0,0,1,.287.281.23443.23443,0,0,1,.06086.17656c-.11447.39961-.32032.49235-.70266.32983-.01643-.007-.032-.016-.04842-.023-.37513-.16136-.38287-.15887-.60586.197.07041.12121.13421.25.2154.3666.14224.20437.09421.34456-.10212.48806-.33512.24493-.341.25349-.62268-.06492a.9723.9723,0,0,0-.15922-.17938.27569.27569,0,0,0-.2002-.04431.33113.33113,0,0,0-.27036.45582,1.45132,1.45132,0,0,1,.05291.3702.23378.23378,0,0,1-.08222.17048c-.41542.29234-.596.23923-.788-.22036a.32565.32565,0,0,1-.02106-.04918.25361.25361,0,0,0-.3171-.22694c-.19808.01577-.22455.11883-.2578.27-.12986.59061-.13363.59-.74228.53793a.41535.41535,0,0,1-.08864-.0326,5.19005,5.19005,0,0,0-.06863-.57619.40506.40506,0,0,0-.17036-.24135.21836.21836,0,0,0-.33054.10153,5.76024,5.76024,0,0,1-.36207.51543c-.65316-.20468-.6577-.20566-.52385-.82494.03229-.1494.047-.24782-.10741-.35645-.15057-.10594-.24065-.05035-.35587.02227a3.63542,3.63542,0,0,1-.36889.21772.23481.23481,0,0,1-.18832-.0003c-.33391-.19059-.37165-.34544-.17776-.66475q.02781-.04581.054-.09264c.07175-.12815.17242-.23269.03659-.40407a.32878.32878,0,0,0-.431-.12648,1.353,1.353,0,0,1-.38829.09642.2798.2798,0,0,1-.22029-.10834c-.20821-.37542-.21531-.40509.15369-.624.26437-.15681.25827-.3157.15814-.56143-.08278-.20313-.23693-.1366-.37492-.16494-.13719-.02817-.33594-.03818-.392-.12821-.18764-.30121-.10046-.48741.23119-.62126a2.41771,2.41771,0,0,1,.24847-.09944c.154-.04293.20006-.13694.20576-.29414a.26036.26036,0,0,0-.196-.29667c-.17207-.06482-.33332-.15839-.49181-.23585.05941-.5495.05941-.5495.55873-.559.06256-.00119.1382.01957.185-.00822a.59113.59113,0,0,0,.252-.21692.35177.35177,0,0,0-.0476-.30049,3.3631,3.3631,0,0,0-.39518-.37223c.26564-.60384.27157-.61757.78546-.39592.22328.09631.339.00862.4844-.131.15574-.14953.03279-.25741-.02136-.37837-.06483-.14482-.13686-.28641-.20955-.43724l.52691-.40218c.14106.13189.27187.25189.4.37471.092.08818.1678.1703.3207.08278.14-.08014.22265-.15693.19312-.331-.02946-.17355-.03611-.351-.05347-.53416l.65019-.21268c.11037.1924.21808.367.31237.54861a.26635.26635,0,0,0,.33794.13227c.13834-.02819.24861-.06283.2616-.2429a3.43309,3.43309,0,0,1,.10259-.48728h.55623c.11152.25819.1455.55654.30916.67361.45071.3224.55341-.23469.803-.40421.49.20575.49753.20727.40176.6796a.24571.24571,0,0,0,.11414.28047.37727.37727,0,0,0,.59518-.01747,1.55376,1.55376,0,0,1,.24608-.17344c.51467.4167.53786.4346.27753.77175a.39917.39917,0,0,0,.05746.63037c.69235-.20164.70922-.20934.75287-.11369.0951.20842.38177.39726.02386.68839.25608-.02833.44265-.04307.62669-.07324a.20259.20259,0,0,0,.13213-.09838.38739.38739,0,0,0-.19976-.56265,2.288,2.288,0,0,1-.28109-.155.23779.23779,0,0,1-.098-.16035c.00733-.34311.145-.4666.48191-.452.05359.00232.10731.00931.16069.00714.13137-.00531.28655.07356.351-.13755.0581-.19033.12515-.34075-.07978-.51168-.36866-.30751-.35527-.32455-.08688-.72538.03254-.04859.07447-.09088.11629-.14117-.12785-.099-.23046-.188-.41953-.06807a.37357.37357,0,0,0-.19745.46,1.4428,1.4428,0,0,1,.02858.37332.23747.23747,0,0,1-.07712.17051c-.30577.20377-.50524.15055-.67717-.16747a1.29353,1.29353,0,0,1-.07464-.1423.33842.33842,0,0,0-.36549-.22851.3634.3634,0,0,0-.42709.28584l-.00042.00216a1.42146,1.42146,0,0,1-.16343.33643.21069.21069,0,0,1-.13927.09212c-.34162.02558-.47853-.10216-.49467-.44737a.96716.96716,0,0,0-.01472-.26616.62114.62114,0,0,0-.16578-.2596,1.943,1.943,0,0,0-.33426-.19l-.55049.44574c-.48937-.31714-.48941-.31715-.25555-.80511a.44854.44854,0,0,0,.06694-.14464.92069.92069,0,0,0-.0212-.28844c-.08507-.31033-.30835-.29752-.56229-.24056-.08786.01972-.24357.00892-.27555-.044a4.28682,4.28682,0,0,1-.25088-.56841,4.08329,4.08329,0,0,1,.44148-.24552c.18505-.07393.20546-.20144.20776-.37939.00253-.19579-.13458-.20643-.25183-.2538-.13023-.05264-.2639-.09675-.40741-.14866l.13217-.74933c.46074.12471.86734.14588.95461-.46573l-.401-.541.53553-.49285.468.41168c.508-.28483.508-.28483.47237-.801-.00185-.02675-.0142-.05916-.00346-.07918.02967-.05534.058-.13363.10653-.15252.15531-.06052.31948-.09829.496-.14938.06751.181.11952.34127.18845.49393a.23238.23238,0,0,0,.13739.12637c.43139.07081.5672-.007.76879-.39373.04566-.08759.11379-.20827.19175-.22624a.43.43,0,0,1,.5287.463,1.15114,1.15114,0,0,1-.00389.16071.31066.31066,0,0,0,.18034.34067.33665.33665,0,0,0,.47586-.01536l.0127-.01434c.09416-.09166.20506-.16611.38707-.31081a3.02743,3.02743,0,0,0,.27537.37521.21679.21679,0,0,1-.00235.36055.901.901,0,0,0-.12233.142c-.06328.0939-.21977.17117-.08343.31271.12483.12959.11165.42613.42652.33371a2.89167,2.89167,0,0,1,.50391-.05786l.23055.62958a3.785,3.785,0,0,1-.47279.27119.31556.31556,0,0,0-.19742.42831.599.599,0,0,0,.24666.25612.9883.9883,0,0,0,.29784.11756.22.22,0,0,1,.1703.32185,1.30293,1.30293,0,0,0-.035.21132c-.02461.184-.09642.28933-.3134.24911a2.40424,2.40424,0,0,0-.48149-.01965c-.164.00322-.378.322-.2906.44435a5.6937,5.6937,0,0,0,.39733.45467Zm7.52223.60117c-.30234-.35708-.585-.30471-.81183.10739-.19754.35884-.413.70825-.63009,1.05581a.87248.87248,0,0,0,.46013,1.275c.42385.13747.84777.27508,1.27441.40346.46676.14045.65092-.00487.64023-.54013A4.18237,4.18237,0,0,0,29.0439,46.23643Zm-4.62494-1.065c-.348.1494-.41458.39047-.17129.6684.34084.38935.68869.77317,1.04871,1.14465a.5503.5503,0,0,0,.32639.12673.92637.92637,0,0,0,.99291-.50179,11.75282,11.75282,0,0,1,.68484-.956.39786.39786,0,0,0-.24069-.67753,9.81575,9.81575,0,0,0-1.02407-.17235,4.36216,4.36216,0,0,0-1.6168.36786Zm2.38263,7.01a.399.399,0,0,0,.59235.3761,4.04135,4.04135,0,0,0,2.02819-1.7126.3854.3854,0,0,0-.275-.62541c-.48613-.11246-.97208-.23209-1.46441-.30753a.87262.87262,0,0,0-.477.14544c-.588.31217-.42463.87347-.43849,1.46906.008.15588.01731.40566.03436.6549Zm-1.174.15482c-.0476-.542-.09662-1.08451-.17061-1.62329-.01531-.11155-.1414-.208-.21712-.31085-.00472-.00642-.017-.0068-.02318-.01271a1.00987,1.00987,0,0,0-1.13426-.113c-.34675.11578-.69635.22341-1.04054.34628a.38413.38413,0,0,0-.24168.57668,3.70158,3.70158,0,0,0,2.37464,1.54107c.30115.0037.47366-.16559.45271-.40423Zm-3.61041-3.09788c.04319.31246.235.43986.52986.32135q.73134-.294,1.44609-.62864a.91215.91215,0,0,0,.29765-1.05737c-.31584-.46411-.6491-.91676-.98652-1.3656A.3918.3918,0,0,0,22.6882,46.6a3.98179,3.98179,0,0,0-.69608,2.31336c.00553.07623.008.20165.025.325Zm-4.22237-1.04313c-.20558-.24537-.38275-.21976-.54167.054-.143.24637-.29.4905-.43731.73432a.59287.59287,0,0,0,.31733.864q.43059.14373.86567.274c.29746.08852.4192-.00374.42274-.33423a2.80838,2.80838,0,0,0-.6268-1.59215Zm-1.52023,4.0317c.0238.24726.17853.34717.40512.259a2.68708,2.68708,0,0,0,1.34513-1.12948c.14583-.23788.07175-.40269-.20692-.46828q-.46712-.10995-.93922-.19835a.62818.62818,0,0,0-.62463.52287c-.00893.15976-.00163.32043-.00163.55205.00466.10662.00508.28518.02211.46214Zm-1.58481-4.76569c-.26335.08952-.29942.26342-.12225.47155.21374.25109.43581.49545.66191.73553a.60711.60711,0,0,0,.76683-.026c.212-.27534.41791-.556.61354-.84311.14723-.21609.08169-.381-.1699-.474a.79643.79643,0,0,0-.18049-.0481c-.177-.02073-.35485-.03469-.53235-.05132l-.013-.04129c-.34208.09036-.69015.16308-1.02433.27668Zm-1.646,2.78029c.03423.1948.15068.2904.34376.21229.33865-.137.67607-.27941,1.00343-.441a.59711.59711,0,0,0,.17651-.733c-.20446-.30292-.42024-.5987-.64223-.88908-.12088-.15812-.30194-.12555-.43894.0707a2.68346,2.68346,0,0,0-.459,1.51955,2.19789,2.19789,0,0,0,.01648.26048ZM15.37491,51.26a.59576.59576,0,0,0-.6056-.40137c-.33507.093-.66855.19372-.99737.3067a.27844.27844,0,0,0-.14591.48263,2.506,2.506,0,0,0,1.53307.95582c.21436.03906.33454-.0826.31593-.304C15.4425,51.95307,15.41685,51.60554,15.37491,51.26Zm5.3993-9.72248c-.18589-.23661-.33362-.21458-.482.05254-.095.17091-.19138.34129-.2946.50727a.50148.50148,0,0,0,.28009.8145q.3035.10148.61052.19229c.27916.082.3823.00046.37321-.2736A2.39651,2.39651,0,0,0,20.77421,41.53752ZM18.21778,40.903c-.231.08051-.25356.21825-.09379.40942.16555.19809.33868.39013.51416.57958a.46968.46968,0,0,0,.64048-.00622c.18115-.2308.34785-.47337.513-.71614.12418-.18253.04018-.31527-.14116-.371a5.48787,5.48787,0,0,0-.62307-.11226C18.796,40.74663,18.49985,40.80466,18.21778,40.903ZM19.51,44.83907c.01562.23775.13686.31647.35734.22607a2.17939,2.17939,0,0,0,1.06932-.92728c.12255-.20639.06634-.331-.17268-.39033-.24985-.062-.502-.11569-.75455-.16568a.5048.5048,0,0,0-.515.43051c-.01324.15-.00246.3022-.00246.4534h.01657C19.5086,44.59022,19.50189,44.71513,19.51,44.83907Zm-2.17626-1.52522c.16322-.07194.32531-.14645.48838-.21872a.48718.48718,0,0,0,.21057-.79775c-.12944-.18166-.26236-.36085-.3921-.54231-.1522-.21287-.28047-.21258-.42945.008A2.2324,2.2324,0,0,0,16.8519,42.977c.01071.44834.09932.50552.48187.33689ZM18.77,44.079a.47143.47143,0,0,0-.489-.35131c-.28456.07214-.56528.16325-.84146.26331a.21589.21589,0,0,0-.1157.36307,2.02408,2.02408,0,0,0,1.24512.81761c.20241.04242.30363-.05847.28357-.26714-.02719-.27523-.05135-.55079-.08253-.82558Zm8.13209,4.72363a.92806.92806,0,1,0,0,.01222Q26.90211,48.80879,26.90205,48.80267ZM16.34566,49.93222a.62949.62949,0,1,0-.61862.64192A.64162.64162,0,0,0,16.34566,49.93222Zm3.49327-1.264v-.26374l-.07728-.04222c-.07623.12728-.21144.25269-.21556.38226-.00708.22231.12878.34772.38661.3729.486.04749.48415.06686.58074.68444a.93867.93867,0,0,0,.11279-.22126c.00847-.05809-.03631-.12342-.02963-.18238.03009-.26535-.12556-.33432-.34617-.35571-.13113-.01271-.26029-.04565-.4115-.07337Zm-.793-5.179a.621.621,0,0,0,.58226-.561.54947.54947,0,0,0-.551-.548h0l-.02014.00043a.53523.53523,0,0,0-.56225.50677v0l-.0006.0164a.60179.60179,0,0,0,.55169.5854Z" transform="translate(0)"/>
        <path d="M29.97675,48.53794a4.18231,4.18231,0,0,0-.93285-2.30151c-.30234-.35708-.585-.30471-.81183.10739-.19754.35884-.413.70825-.63009,1.05581a.87248.87248,0,0,0,.46013,1.275c.42385.13747.84777.27508,1.27441.40346C29.8033,49.21853,29.98744,49.07321,29.97675,48.53794Z" transform="translate(0)" fill="#fff"/>
        <path d="M26.03576,44.80354a4.36216,4.36216,0,0,0-1.6168.36786c-.348.1494-.41458.39047-.17129.6684.34084.38935.68869.77317,1.04871,1.14465a.55043.55043,0,0,0,.32639.12673.92639.92639,0,0,0,.99291-.50179,11.75108,11.75108,0,0,1,.68484-.956.39785.39785,0,0,0-.24069-.67753A9.81566,9.81566,0,0,0,26.03576,44.80354Z" transform="translate(0)" fill="#fff"/>
        <path d="M26.76722,51.52644c.008.15593.01732.40571.03437.65495a.399.399,0,0,0,.59235.3761,4.04145,4.04145,0,0,0,2.02819-1.7126.38538.38538,0,0,0-.275-.62541c-.48613-.11246-.97208-.23209-1.46441-.30753a.87254.87254,0,0,0-.477.14544C26.61769,50.36956,26.78108,50.93086,26.76722,51.52644Z" transform="translate(0)" fill="#fff"/>
        <path d="M25.1748,52.74032c.30119.0038.4737-.16548.45275-.40412-.0476-.542-.09662-1.08451-.17061-1.62329-.01531-.11155-.1414-.208-.21712-.31085-.00472-.00642-.017-.0068-.02318-.01272a1.00987,1.00987,0,0,0-1.13426-.113c-.34675.11578-.69635.22341-1.04054.34628a.38412.38412,0,0,0-.24168.57668A3.70153,3.70153,0,0,0,25.1748,52.74032Z" transform="translate(0)" fill="#fff"/>
        <path d="M21.99208,48.9133c.00557.07628.008.20165.02506.325.04319.31247.235.43986.52986.32135q.73134-.294,1.44609-.62863a.91212.91212,0,0,0,.29765-1.05737c-.31584-.46411-.6491-.91676-.98652-1.36561a.39178.39178,0,0,0-.61606.09189A3.98182,3.98182,0,0,0,21.99208,48.9133Z" transform="translate(0)" fill="#fff"/>
        <path d="M18.42153,49.78731a2.80837,2.80837,0,0,0-.62676-1.59213c-.20558-.24536-.38275-.21976-.54167.054-.143.24637-.29.49051-.43731.73433a.59281.59281,0,0,0,.31733.864q.4306.14374.86567.274C18.2963,50.21005,18.418,50.1178,18.42153,49.78731Z" transform="translate(0)" fill="#fff"/>
        <path d="M16.25239,51.76469c.0047.10667.00512.28523.02215.46219.0238.24726.17853.34717.40512.259a2.687,2.687,0,0,0,1.34513-1.12948c.14583-.23788.07175-.40269-.20692-.46828q-.46711-.11-.93922-.19834a.62817.62817,0,0,0-.62463.52286C16.24509,51.3724,16.25239,51.53307,16.25239,51.76469Z" transform="translate(0)" fill="#fff"/>
        <path d="M15.71407,47.18453c-.34209.09034-.69016.16306-1.02434.27666-.26335.08952-.29942.26342-.12225.47155.21374.25109.43581.49545.66191.73554a.60712.60712,0,0,0,.76683-.026c.212-.27534.41791-.556.61354-.84311.14723-.2161.08169-.381-.1699-.474a.797.797,0,0,0-.18049-.0481c-.177-.02072-.35485-.03469-.53235-.05132Z" transform="translate(0)" fill="#fff"/>
        <path d="M13.0273,49.981a2.19563,2.19563,0,0,0,.0165.26047c.03423.1948.15068.2904.34376.2123.33865-.137.67607-.27941,1.00343-.441a.5971.5971,0,0,0,.17651-.733c-.20446-.30293-.42024-.59871-.64223-.88908-.12088-.15812-.30194-.12555-.43894.0707A2.68348,2.68348,0,0,0,13.0273,49.981Z" transform="translate(0)" fill="#fff"/>
        <path d="M15.475,52.29977c-.03253-.3467-.05818-.69423-.10012-1.03978a.59576.59576,0,0,0-.6056-.40137c-.33507.093-.66855.19372-.99737.3067a.27844.27844,0,0,0-.14591.48263,2.506,2.506,0,0,0,1.53307.95582C15.37346,52.64283,15.49364,52.52117,15.475,52.29977Z" transform="translate(0)" fill="#fff"/>
        <path d="M25.04292,48.79957a.9149.9149,0,0,1,.92365-.90606l.005.00006a.922.922,0,1,1-.92877.91518Zm.92573.736a.69034.69034,0,0,0,.70724-.673l.00019-.01164a.696.696,0,1,0-.70743.68464Z" transform="translate(0)" fill="#fff"/>
        <path d="M15.08685,49.95306a.62949.62949,0,1,1,.64019.62108A.63638.63638,0,0,1,15.08685,49.95306Zm.63021-.5452a.52185.52185,0,0,0-.51058.53289l.00012.00448a.52346.52346,0,1,0,1.04632.03541l.00007-.00216q.00054-.01713,0-.03425a.51844.51844,0,0,0-.49989-.53635h0Q15.73507,49.40725,15.71706,49.40786Z" transform="translate(0)" fill="#fff"/>
        <path d="M19.05705,42.38074a.54947.54947,0,0,1,.57069.52738h0l.00043.02014a.621.621,0,0,1-.58226.561.60177.60177,0,0,1-.55171-.58535.53524.53524,0,0,1,.54646-.52378h0Zm-.001,1.00746a.47509.47509,0,1,0-.44785-.50085h0q-.0008.0143-.00073.02863A.47541.47541,0,0,0,19.05605,43.3882Z" transform="translate(0)" fill="#fff"/>
        <path d="M21.77,45.06938l.0042-.00384-.25257.56972" transform="translate(0)" fill="#fff"/>
        <path d="M25.28439,48.82657a.6962.6962,0,1,0,0-.00487Z" transform="translate(0)"/>
        <path d="M16.253,49.94423a.52336.52336,0,0,0-1.04629-.03l-.00009.00362q-.00036.01371,0,.02743a.52346.52346,0,0,0,1.04639.03322Q16.25355,49.96133,16.253,49.94423Z" transform="translate(0)"/>
      </g>
      <path d="M21.26194,40.0045" transform="translate(0)" fill="none" stroke="#000" stroke-miterlimit="10" stroke-width="0.5"/>
      <path d="M29.31835,40.0045" transform="translate(0)" fill="none" stroke="#000" stroke-miterlimit="10" stroke-width="0.5"/>
      <circle cx="15.76365" cy="49.89459" r="2.82631"/>
      <circle cx="15.76365" cy="49.89459" r="0.61379" fill="#fff"/>
    </g>
    <path d="M20.19745,58.7427A15.87324,15.87324,0,0,1,18.5893,27.17492a3.75779,3.75779,0,0,0,2.77962-1.73035c4.96308-6.83708,11.76919-10.0154,20.11144-9.00284,8.4574,1.02655,14.20576,5.94405,17.356,13.83521A2.95491,2.95491,0,0,0,60.801,32.32531a13.55825,13.55825,0,0,1-4.088,26.40745" transform="translate(0)" fill="none" stroke="#000" stroke-miterlimit="10" stroke-width="2"/>
    <g>
      <g>
        <path d="M56.20809,48.76593a5.16473,5.16473,0,0,0,.001.5475c.01359.13562.35006.225.46378.12912a2.17976,2.17976,0,0,0,.31645-.30129c.12385-.15716.23579-.12829.36257-.01759a1.18329,1.18329,0,0,0,.15025.12309.1995.1995,0,0,1,.07636.32121.89615.89615,0,0,0-.13272.25822.543.543,0,0,0-.015.32207.28617.28617,0,0,0,.39067.17391,3.428,3.428,0,0,1,.48443-.09785l.2193.567a2.62327,2.62327,0,0,1-.37808.26187c-.26988.12527-.08359.31952-.09119.4825-.0083.178.14457.1371.24385.16326a.81626.81626,0,0,0,.16829.02363c.15758.00754.22746.075.21718.24436a2.74324,2.74324,0,0,0,.03665.42041c-.21058.0102-.3307.02577-.4497.01959a.30525.30525,0,0,0-.34858.25464l-.00218.01724a.28169.28169,0,0,0,.08076.34,1.04279,1.04279,0,0,1,.09876.10722.3899.3899,0,0,1-.08355.63171c-.06388.03436-.1825-.00716-.266-.03956-.36862-.143-.50775-.1149-.75946.19131a.21068.21068,0,0,0-.01809.16829c.0443.14528.10469.28564.16689.44936-.15085.0707-.28534.14313-.42739.19475-.04435.01611-.1105-.02029-.16382-.04027-.01928-.00722-.03024-.0367-.045-.056-.2843-.37314-.2843-.37314-.8009-.26351l-.07284.56045-.65973-.01573-.05013-.6085c-.4252-.36472-.68969-.10716-.92919.25334L53.45367,54.12c.06678-.12121.13152-.2312.18882-.34494.05159-.10242.13869-.19164.01989-.32359-.108-.11992-.19813-.19463-.36846-.13438a3.70565,3.70565,0,0,1-.44778.09662,3.88874,3.88874,0,0,1-.16887-.53746c-.00984-.05518.08984-.15566.16151-.19475.20717-.113.367-.23779.23945-.50018a.83419.83419,0,0,0-.158-.20929.4062.4062,0,0,0-.1321-.05856c-.45118-.19277-.45116-.19281-.30722-.7016l.64175-.02532a1.76146,1.76146,0,0,0,.11425-.32936.56346.56346,0,0,0-.04222-.27609.87684.87684,0,0,0-.14912-.19022c-.19542-.245-.17848-.4139.06969-.60073a.191.191,0,0,1,.15-.02049,1.29016,1.29016,0,0,1,.31258.1316.32946.32946,0,0,0,.46234-.05768h0l.00125-.00161a.30687.30687,0,0,0,.11251-.37431,1.17241,1.17241,0,0,1-.03421-.14163c-.073-.31958.03118-.47511.36144-.519a.21533.21533,0,0,1,.15452.07011,1.30877,1.30877,0,0,1,.20373.27156.33871.33871,0,0,0,.40961.19545c.2006-.03129.21736-.15329.24527-.29724a1.65534,1.65534,0,0,1-.16368-.0267c-.42262-.11274-.44194-.11634-.37452-.54639.03748-.239-.09816-.30148-.25157-.39649-.17016-.10535-.22876.0412-.3215.11612-.03768.03044-.07011.06733-.10525.10095a.354.354,0,0,1-.59878-.02.2157.2157,0,0,1-.02911-.16789,2.07436,2.07436,0,0,1,.09892-.27374.35124.35124,0,0,0-.20027-.503.18367.18367,0,0,0-.1489.01194c-.14349.08948-.27948.191-.471.32481.418-.01558.33554.28456.39534.48349.02745.0913.01134.09614-.58115.37268a.362.362,0,0,0,.33776.464c.379.07415.37394.10022.27228.692a1.40906,1.40906,0,0,1-.27144.02891c-.25586-.01981-.379.08794-.41615.344a.22286.22286,0,0,0,.08991.25943c.3477.26469.34348.27023.13251.70347-.27154.03372-.67465-.28461-.78909.20465-.04155.17766.11369.40134.19205.644l-.37913.33259a3.11529,3.11529,0,0,1-.36131-.27081c-.11652-.115-.21239-.07264-.32355-.00914a.24152.24152,0,0,0-.15127.29222c.04431.18016.07531.3636.11511.56074l-.57036.2438c-.0977-.13525-.19924-.26017-.28294-.39608-.08394-.13629-.18619-.13919-.32954-.11011-.15655.03176-.15914.13307-.1691.24818-.01388.1603-.03129.32033-.04858.49457l-.59964.04093c-.04064-.14628-.07621-.28586-.11861-.42333-.03541-.11483-.01611-.26188-.21168-.27068-.18263-.00822-.3139.00119-.40851.20034-.21776.45837-.23.45255-.77213.19979a3.04921,3.04921,0,0,0,.0468-.49.31886.31886,0,0,0-.14724-.23329.53574.53574,0,0,0-.30148.00283c-.0485.009-.08764.0684-.131.105-.346.29206-.346.29206-.71512-.047.06172-.14757.11567-.30775.1942-.45484a.236.236,0,0,0-.04376-.31944.24.24,0,0,0-.31613-.07748,2.18912,2.18912,0,0,1-.22881.0808c-.30612.10707-.47687.03228-.52907-.28523-.01561-.09489.11388-.22057.19055-.3218.07711-.10183.222-.14866.15693-.33661-.07867-.22737-.16953-.33932-.44349-.28813-.3824.07144-.3953.047-.47786-.33342a.25367.25367,0,0,1,.08535-.20554,1.227,1.227,0,0,1,.32233-.16646.29809.29809,0,0,0,.21817-.34394c-.00988-.198-.141-.20909-.26654-.25355q-.04584-.0162-.09218-.03088c-.32309-.10172-.38995-.22984-.27631-.55941a.213.213,0,0,1,.12819-.11282,3.29889,3.29889,0,0,1,.38162-.07216c.122-.01939.21661-.03535.2559-.1976.04028-.16636-.02859-.22466-.13993-.30719-.46153-.3421-.459-.34548-.13619-.87555a5.21934,5.21934,0,0,1,.555.13484.198.198,0,0,0,.286-.12844.36712.36712,0,0,0-.02819-.26638,4.70514,4.70514,0,0,0-.29775-.43379.37838.37838,0,0,1,.04093-.07521c.38373-.39946.386-.4021.82763-.07718.113.08317.19271.1376.33717.0299a.23.23,0,0,0,.08044-.3443.29611.29611,0,0,1-.01506-.04611c-.144-.428-.0526-.57223.40535-.62136a.21187.21187,0,0,1,.158.067,1.31491,1.31491,0,0,1,.1853.284.30026.30026,0,0,0,.45684.149.25.25,0,0,0,.11-.14991.88186.88186,0,0,0,.00128-.2175c.00159-.38546.01073-.38315.3856-.41657.21964-.01958.33619.04726.36144.27162.01441.128.04791.254.07238.37868.36476.1092.37153.10627.53075-.228.007-.01463.01219-.03008.01922-.04467.16344-.3394.35921-.39927.67617-.19534a.21265.21265,0,0,1,.0641.15674,2.07758,2.07758,0,0,1-.02763.36315.2745.2745,0,0,0,.17512.32717.245.245,0,0,0,.33636-.083c.02611-.0307.05849-.056.08753-.0843.25825-.25144.356-.25508.60611.003a.24331.24331,0,0,1,.03039.193,1.06087,1.06087,0,0,1-.11239.2637.29533.29533,0,0,0,.028.40815.23913.23913,0,0,0,.33552.04232h0l.00267-.00211a2.20355,2.20355,0,0,1-.2595-.42973c-.01952-.056.10336-.16649.16927-.24542a.74152.74152,0,0,1,.133-.10549c.10578-.07865.23716-.12414.15677-.31775-.07245-.17447-.13368-.30838-.355-.26134a.85007.85007,0,0,1-.16983.00307.34834.34834,0,0,1-.39062-.447.19877.19877,0,0,1,.09316-.11992,1.99136,1.99136,0,0,1,.32688-.15911c.15179-.05467.18517-.13906.18621-.30592.00188-.30037-.20737-.29939-.39616-.34535-.317-.07716-.3728-.14624-.3-.44753a.31784.31784,0,0,1,.178-.17277,1.03137,1.03137,0,0,1,.33249-.06483c.1772-.01028.23762-.10547.28154-.26789.04922-.182-.071-.22569-.17379-.29646-.06-.04128-.12136-.08083-.1844-.1172-.15288-.08818-.281-.169-.2108-.396.0752-.243.2285-.28456.44233-.25307.21712.032.43673.05773.48981-.23659a.31358.31358,0,0,0-.041-.2217,1.41192,1.41192,0,0,0-.25282-.2256.25408.25408,0,0,1-.08145-.34995l.00456-.007c.16311-.33.18184-.34454.525-.19266.1031.04563.20419.09584.30391.14287.31889-.258.32171-.2595.13037-.6319-.09642-.18767-.21511-.34558.029-.53935.16743-.13292.2797-.15515.4359-.02163a1.09653,1.09653,0,0,0,.29387.21138.375.375,0,0,0,.28274-.02394c.04937-.02736.0701-.14722.06476-.22287a.92428.92428,0,0,0-.08146-.32854c-.12263-.256.0509-.33051.22482-.43508a.27.27,0,0,1,.43349.11126c.07743.13.17281.24929.2608.37424l.417-.16432c-.00382-.18331.00217-.36909-.01469-.55277-.01293-.14069.05479-.19412.17321-.20835.1412-.017.29851-.139.41449.04814a2.05722,2.05722,0,0,1,.09672.19586c.17682.36807.17675.3681.62539.31963l.12062-.66747.59673.0193c.0153.14459.03263.27268.0415.40135.00983.14281.02347.25806.20875.29712a.28018.28018,0,0,0,.35656-.17282h0l.00421-.01318.01077-.0218c.25339-.43192.2534-.43192.74483-.18683a3.03519,3.03519,0,0,1-.05728.44959c-.06317.23049.12056.26426.24462.35359.135.09722.20349-.00926.28615-.083.13231-.118.26629-.23411.39582-.34774a.2961.2961,0,0,1,.05391.01933c.38117.24517.37894.24448.22772.66328-.04006.111-.14765.2245.01972.33809.14959.1015.273.263.47026.08322a.84843.84843,0,0,1,.16636-.0996.31977.31977,0,0,1,.51659.18616.225.225,0,0,1-.035.1708,1.013,1.013,0,0,1-.20227.24113c-.17915.14472-.11021.27538-.02225.43806.09268.17143.21247.09955.3329.08067.06393-.01.12693-.026.19028-.03955.31447-.06739.38427-.02676.47.2923a.18592.18592,0,0,1-.03327.14431,1.16221,1.16221,0,0,1-.22586.2198c-.16879.11719-.1735.2428-.10727.43179.0696.19858.19821.17438.34312.17232.44727-.00631.45083-.00162.47814.50707-.10391.05387-.21079.10942-.31777.16478-.3279.16967-.32791.16965-.24816.5787a2.16042,2.16042,0,0,0,.38081.10331c.28289.02657.22845.22467.24063.4062.01455.21695-.11871.25778-.28516.277a2.17826,2.17826,0,0,1-.21659.02929.19413.19413,0,0,0-.21521.20467c-.0123.12626-.06921.2531.10353.32643.10284.04366.18876.12571.28946.17624.14386.0722.15263.16687.12109.31767-.04992.23867-.15981.3297-.399.26686-.0771-.02026-.1645-.00187-.24125-.02283-.21416-.05855-.24961.10435-.323.23627-.08236.148.00785.22473.1023.30651l.03594.03277c.36437.3251.36437.3251.02232.7345-.16952-.05809-.34886-.108-.51849-.18065-.20227-.08662-.25988.088-.33885.18886a.28827.28827,0,0,0,.005.24422,5.2341,5.2341,0,0,0,.27422.46507l-.39178.376a3.32043,3.32043,0,0,1-.34615-.25822c-.15368-.14917-.27881-.12578-.44276-.00549-.12407.091-.182.16651-.11981.31447a1.54447,1.54447,0,0,1,.05614.21108c.07613.29264.014.40689-.28275.477a.23482.23482,0,0,1-.17758-.07211c-.12516-.1256-.23718-.26429-.358-.402l-.42162.14861.017.68046c-.49091.191-.50325.19657-.70748-.2572-.09251-.20554-.20791-.30314-.42129-.22481a.34359.34359,0,0,0-.18648.16789,4.58116,4.58116,0,0,0-.14259.5182l-.49112-.04931-.13145-.41391c-.0045-.23315-.18914-.321-.50766-.23721Zm3.51482-7.27152c-.31278-.37125-.52521-.36019-.75938.01464-.21405.34262-.42073.6899-.62744,1.037a.7911.7911,0,0,0,.44873,1.14421c.35583.10708.71158.21644,1.0608.34292.40106.14524.625.012.61758-.41223A3.79222,3.79222,0,0,0,59.72291,41.49441Zm-.45336,4.902a8.9028,8.9028,0,0,0,.595-.72982.36074.36074,0,0,0-.24106-.60575,10.6522,10.6522,0,0,1-1.03841-.24211.84.84,0,0,0-.97684.25166.499.499,0,0,0-.14671.28155c-.02328.46848-.03088.9381-.0304,1.4073.00035.33492.18988.45943.51642.35318A3.95557,3.95557,0,0,0,59.26955,46.39641Zm-3.52132-5.01992c.36557.39768.58982.878,1.17729.73916a.79106.79106,0,0,0,.41212-.18609c.29047-.34581.55018-.71792.8143-1.08525a.34943.34943,0,0,0-.18651-.59074,3.6644,3.6644,0,0,0-2.40651.04538.3618.3618,0,0,0-.17889.61055C55.51745,41.08956,55.66043,41.26539,55.74823,41.37649Zm-1.81128.12475a3.35626,3.35626,0,0,0-.69716,2.47034.3483.3483,0,0,0,.50956.24858c.30808-.122.61074-.25774.91632-.38615.3484-.1464.66861-.31819.70555-.75528.00066-.00772.00882-.01533.0082-.02253-.00991-.11541.01838-.25653-.03786-.34171-.27173-.4115-.56268-.81056-.85436-1.2085-.12841-.17523-.34721-.18746-.55025-.00478Zm.11889,4.51171a3.61046,3.61046,0,0,0,1.85772,1.16065c.24279.06027.491-.09267.47488-.30574-.03839-.5077-.08189-1.01552-.14411-1.52072a.82707.82707,0,0,0-.83513-.54277q-.68641.19908-1.36159.43619c-.27184.09551-.32642.297-.169.53587.06211.09425.13542.18116.17723.23649Zm-2.95642,1.53923c-.2-.22316-.33816-.21326-.488.025q-.21916.3484-.42625.70437a.53751.53751,0,0,0,.30034.7787c.24623.07809.49236.15664.73716.23906.272.09159.40811.0031.40152-.28707a2.54639,2.54639,0,0,0-.52477-1.46009Zm-2.66091-.05083c.13848.15787.22959.27175.3312.37532a.56957.56957,0,0,0,.73841-.0171q.26865-.34228.52161-.69679c.15073-.21134.10268-.368-.139-.44292a2.43634,2.43634,0,0,0-1.59224.03441.24493.24493,0,0,0-.12119.41873c.09415.13083.20063.25279.26121.32832Zm2.37173,3.44387-.01587-.03589c.11106-.11747.22391-.23332.33219-.35329a.7224.7224,0,0,0,.09427-.14071c.11592-.21378.062-.36541-.1676-.42468-.30505-.07875-.6132-.1469-.92235-.20782a.55049.55049,0,0,0-.53821.44084c-.01056.29884-.01581.5982-.01138.89715.00368.24779.13226.34476.3653.24832.29571-.12242.57645-.281.86365-.424Zm-3.50353-.29963a2.433,2.433,0,0,0,1.22148.76129c.21073.05186.35362-.0342.34147-.21426-.02231-.33068-.05209-.66131-.09385-.99a.54143.54143,0,0,0-.55858-.39407c-.31975.08562-.63491.19029-.94765.29942-.17831.06221-.20053.197-.10738.35026a1.991,1.991,0,0,0,.14451.18738Zm.282-3.04416a.2257.2257,0,0,0-.39712-.01831,2.27222,2.27222,0,0,0-.47347,1.56821c.01083.23709.16916.33148.388.24173.29169-.11961.5792-.25039.86323-.38731a.54021.54021,0,0,0,.17281-.6357c-.178-.26065-.36834-.51288-.55347-.76865ZM57.195,50.59609c-.15768-.19224-.27676-.18618-.418.03666q-.15532.24509-.30117.49613a.45469.45469,0,0,0,.2961.72267c.16961.05142.33721.10991.50413.16961.26089.09335.37476.02.36-.25241a2.17319,2.17319,0,0,0-.44108-1.17269Zm-.24071,2.79728a4.9787,4.9787,0,0,0,.35758-.44908c.0903-.1464.06819-.2871-.1256-.33726-.25774-.06673-.51641-.13239-.7779-.1814a.42584.42584,0,0,0-.44028.37873c-.00634.23406-.00953.46848-.00393.70251.00541.22583.10316.30621.30873.223.25107-.10168.4876-.23919.68137-.33653ZM55.02239,50.5295l-.0113.0099c.09042.10306.174.21323.27279.30758a.45772.45772,0,0,0,.60844-.01447c.14228-.1851.282-.37244.41526-.56411.12745-.18336.09126-.30191-.11569-.36931a1.97607,1.97607,0,0,0-1.28334.00732c-.20435.07022-.23992.19637-.1084.36776C54.86871,50.36352,54.948,50.44465,55.02239,50.5295Zm-.92066,2.60337a2.02419,2.02419,0,0,0,.97071.6126c.23344.06126.321-.01523.29751-.25134-.02007-.20126-.03661-.40288-.057-.60411a.44174.44174,0,0,0-.62054-.41786c-.15437.04824-.30941.09437-.46368.14293C53.86714,52.72889,53.84093,52.82085,54.10173,53.13287Zm.21106-2.51019c-.11109-.15424-.24041-.16249-.353-.01254A1.83533,1.83533,0,0,0,53.6,51.912a.19575.19575,0,0,0,.296.1783c.24808-.09694.49391-.20269.731-.32367a.42743.42743,0,0,0,.12323-.53183C54.60711,51.02883,54.45884,50.82653,54.31279,50.62268Zm1.96112-7.54974a.83766.83766,0,1,0,.01364-.01194ZM48.7923,48.627a.57224.57224,0,1,0,.80635.06867h0l-.00085-.001A.58148.58148,0,0,0,48.7923,48.627Zm3.76249-1.36466c.08649-.10932.15483-.209.23661-.29607.1376-.14648.20245-.28657.02328-.44945-.03982-.03619-.04835-.1075-.08886-.142a.85158.85158,0,0,0-.20918-.08338c.30345.47873.31631.4908.01341.81379-.16068.17134-.17831.33805-.04056.48535.08029.08586.24744.0905.37551.13168l.02743-.075-.1577-.17978Zm2.71,4.93833a.4853.4853,0,0,0,.68565.0303h0l.01083-.01022a.49822.49822,0,0,0,.07366-.70073h0l-.01175-.014a.56311.56311,0,0,0-.73234-.03425.54566.54566,0,0,0-.026.72885Z" transform="translate(0)"/>
        <path d="M59.72291,41.49441A3.7922,3.7922,0,0,1,60.4632,43.621c.00743.42419-.21652.55747-.61758.41223-.34922-.12648-.705-.23584-1.0608-.34292a.79114.79114,0,0,1-.44873-1.14421c.20671-.34713.41339-.69441.62744-1.037C59.1977,41.13422,59.41013,41.12316,59.72291,41.49441Z" transform="translate(0)" fill="#fff"/>
        <path d="M59.26955,46.39638a3.95536,3.95536,0,0,1-1.322.716c-.32654.10625-.51607-.01826-.51642-.35318-.00048-.4692.00712-.93882.0304-1.4073a.499.499,0,0,1,.14671-.28155.84.84,0,0,1,.97684-.25166,10.64929,10.64929,0,0,0,1.03841.24211.36074.36074,0,0,1,.24106.60575A8.903,8.903,0,0,1,59.26955,46.39638Z" transform="translate(0)" fill="#fff"/>
        <path d="M55.74823,41.37646c-.0878-.11107-.23078-.2869-.3682-.467a.3618.3618,0,0,1,.17889-.61055,3.6644,3.6644,0,0,1,2.40651-.04538.34944.34944,0,0,1,.18651.59074c-.26412.36733-.52383.73944-.8143,1.08525a.79106.79106,0,0,1-.41212.18609C56.33805,42.25444,56.1138,41.77414,55.74823,41.37646Z" transform="translate(0)" fill="#fff"/>
        <path d="M53.937,41.50121c.203-.18268.42184-.17045.55025.00475.29168.39794.58262.797.85435,1.2085.05625.08518.028.2263.03787.34171.00062.0072-.00754.01481-.0082.02253-.03694.43709-.35715.60888-.70555.75528-.30558.12841-.60824.2641-.91632.38615a.34828.34828,0,0,1-.50956-.24858A3.3562,3.3562,0,0,1,53.937,41.50121Z" transform="translate(0)" fill="#fff"/>
        <path d="M54.05584,46.01292c-.04181-.05533-.11512-.14224-.17726-.23652-.15739-.23882-.10281-.44036.169-.53587q.67428-.23691,1.36159-.43619a.82707.82707,0,0,1,.83513.54277c.06222.5052.10572,1.013.14411,1.52072.01611.21307-.23209.366-.47488.30574A3.61045,3.61045,0,0,1,54.05584,46.01292Z" transform="translate(0)" fill="#fff"/>
        <path d="M51.09942,47.55215a2.54617,2.54617,0,0,1,.52478,1.46c.00659.29017-.12948.37866-.40152.28707-.2448-.08242-.49093-.161-.73716-.23906a.53754.53754,0,0,1-.30034-.7787q.20758-.35544.42625-.70437C50.7613,47.33889,50.8994,47.329,51.09942,47.55215Z" transform="translate(0)" fill="#fff"/>
        <path d="M48.43851,47.50132c-.06058-.07553-.16706-.19749-.26126-.3283a.24493.24493,0,0,1,.12128-.41878,2.43628,2.43628,0,0,1,1.59224-.03441c.24164.075.28969.23158.139.44292q-.25266.35424-.52161.69679a.56958.56958,0,0,1-.73841.0171C48.6681,47.77307,48.577,47.65919,48.43851,47.50132Z" transform="translate(0)" fill="#fff"/>
        <path d="M50.81024,50.94519c-.2872.143-.56793.30153-.86365.42391-.233.09645-.3616-.00052-.36529-.24832-.00444-.299.00081-.59831.01137-.89715a.5505.5505,0,0,1,.53821-.44084c.30915.06093.6173.12908.92235.20783.22957.05926.28352.2109.1676.42467a.723.723,0,0,1-.09427.14071c-.10828.12-.22113.23582-.33219.35329Z" transform="translate(0)" fill="#fff"/>
        <path d="M47.30671,50.64556a1.99309,1.99309,0,0,1-.14451-.18741c-.09315-.15325-.07093-.28805.10738-.35026.31274-.10913.6279-.2138.94765-.29942a.54142.54142,0,0,1,.55858.39407c.04176.32874.07154.65937.09385.99005.01215.18006-.13074.26612-.34147.21426A2.43311,2.43311,0,0,1,47.30671,50.64556Z" transform="translate(0)" fill="#fff"/>
        <path d="M47.58869,47.6014c.18513.25577.37545.508.55349.76862a.54021.54021,0,0,1-.17281.6357c-.284.13692-.57154.2677-.86323.38731-.21888.08975-.37721-.00464-.388-.24173a2.27221,2.27221,0,0,1,.47347-1.56821.2257.2257,0,0,1,.39708.01831Z" transform="translate(0)" fill="#fff"/>
        <path d="M56.27391,43.07294a.83606.83606,0,0,1,1.11664,1.24463l-.01242.01092a.836.836,0,1,1-1.10422-1.25555Zm.07794,1.03049a.63124.63124,0,1,0,.96127-.81842l-.00527-.00611-.022-.02425a.631.631,0,0,0-.934.84878Z" transform="translate(0)" fill="#fff"/>
        <path d="M48.7923,48.627a.57224.57224,0,1,1-.06454.80669h0l-.00046-.00054A.58084.58084,0,0,1,48.7923,48.627Zm.73514.1149a.46982.46982,0,1,0,.02151.02447l-.02152-.02451Z" transform="translate(0)" fill="#fff"/>
        <path d="M55.26482,52.20063a.54565.54565,0,0,1,.02606-.72889.56311.56311,0,0,1,.73234.03425.49823.49823,0,0,1-.0479.703l0,0-.014.01175a.48532.48532,0,0,1-.68627-.00924Zm.07-.07593a.41159.41159,0,1,0,.02341-.59011A.42728.42728,0,0,0,55.33482,52.1247Z" transform="translate(0)" fill="#fff"/>
        <path d="M56.20293,48.76583l.00516.0001-.51282-.23731" transform="translate(0)" fill="#fff"/>
        <path d="M56.35185,44.10343a.63158.63158,0,1,1,.0029.00333Z" transform="translate(0)"/>
        <path d="M49.52743,48.74186a.47454.47454,0,0,1-.69139.65018l-.00661-.00718-.01581-.018a.47463.47463,0,0,1,.69388-.64779Z" transform="translate(0)"/>
      </g>
      <path d="M55.09011,58.41763" transform="translate(0)" fill="none" stroke="#000" stroke-miterlimit="10" stroke-width="0.5"/>
      <path d="M65.77506,49.04459" transform="translate(0)" fill="none" stroke="#000" stroke-miterlimit="10" stroke-width="0.5"/>
      <circle cx="49.22358" cy="49.06829" r="2.5627"/>
      <circle cx="49.22358" cy="49.06829" r="0.55655" fill="#fff"/>
    </g>
    <g>
      <g>
        <path d="M38.62463,33.59982a5.64451,5.64451,0,0,0,.39371-.45052c.08656-.12121-.12544-.43711-.288-.44029a2.3812,2.3812,0,0,0-.47709.01947c-.215.03985-.28615-.06454-.31054-.24684a1.28944,1.28944,0,0,0-.03473-.20939.218.218,0,0,1,.16876-.31891.97925.97925,0,0,0,.29511-.11648.59364.59364,0,0,0,.24442-.25379.31269.31269,0,0,0-.19562-.4244,3.74777,3.74777,0,0,1-.46848-.26872l.22845-.62382a2.8652,2.8652,0,0,1,.4993.05733c.312.09157.299-.20225.42263-.33066.1351-.14025-.02-.21682-.08267-.30985a.8922.8922,0,0,0-.1212-.14069.2148.2148,0,0,1-.00232-.35726,3.001,3.001,0,0,0,.27285-.37178c.18035.14338.29024.21715.38354.308a.33359.33359,0,0,0,.46988.042l.01421-.01258a.30785.30785,0,0,0,.1787-.33756,1.13481,1.13481,0,0,1-.00386-.15924.42608.42608,0,0,1,.52386-.45875c.07726.01781.14476.13739.19.22418.19975.38315.33432.46029.76177.39014a.2302.2302,0,0,0,.13613-.12523c.06831-.15126.11985-.31009.18673-.48942.17488.05064.33756.08806.49145.148.048.01872.07615.0963.10556.15113.01064.01984-.00161.052-.00344.07846-.03534.51141-.03534.51141.46806.79363l.46372-.40791.53064.48834-.39733.536c.08647.606.48936.585.9459.46148l.131.74248c-.14222.05145-.27466.09516-.40369.14731-.1162.04695-.252.05748-.24953.25149.00226.17632.02249.30267.20584.37592a4.04374,4.04374,0,0,1,.43748.24332,4.24861,4.24861,0,0,1-.24858.56321c-.03168.05243-.186.06314-.273.04361-.25162-.05647-.47286-.06915-.55716.23833a.91183.91183,0,0,0-.021.28581.44431.44431,0,0,0,.06633.14331c.23172.4835.23169.48352-.25322.79776l-.54546-.44167a1.92514,1.92514,0,0,0-.33121.18824.61563.61563,0,0,0-.16427.25724.95818.95818,0,0,0-.01458.26373c-.016.34206-.15165.46864-.49016.44328a.20869.20869,0,0,1-.138-.09128,1.40839,1.40839,0,0,1-.16194-.33335.36007.36007,0,0,0-.42143-.28581l-.00217.00042a.33534.33534,0,0,0-.36216.22643,1.28309,1.28309,0,0,1-.074.141c-.17037.31513-.368.36784-.671.16594a.23522.23522,0,0,1-.0764-.169,1.4285,1.4285,0,0,1,.02832-.36992.37018.37018,0,0,0-.19566-.45576c-.18734-.11885-.289-.0307-.4157.06744.04144.04984.083.09175.11522.13989.266.39717.27921.414-.08608.71875-.20306.16938-.13661.31841-.079.507.06385.20917.21761.131.34778.13629.05289.00214.10612-.00479.15922-.00709.33381-.01442.47025.10793.47752.44791a.23575.23575,0,0,1-.09708.1589,2.26754,2.26754,0,0,1-.27853.1536.38386.38386,0,0,0-.19794.55751.2008.2008,0,0,0,.13093.09749c.18237.02989.36723.0445.621.07257-.35465-.28847-.0706-.47559.02365-.6821.04324-.09478.06-.08715.746.11266a.39554.39554,0,0,0,.05693-.62462c-.258-.33406-.235-.35181.275-.76471a1.54159,1.54159,0,0,1,.24384.17186.3738.3738,0,0,0,.58974.01732.2435.2435,0,0,0,.1131-.2779c-.0949-.468-.08743-.46953.39809-.67341.24737.168.34912.72.79571.40054.16216-.116.19584-.41163.30634-.66747H44.626a3.40726,3.40726,0,0,1,.10165.48283c.01287.17843.12213.21274.2592.24069a.264.264,0,0,0,.33487-.13107c.09341-.17994.20016-.353.30952-.54359l.64425.21073c-.01721.18152-.02382.35732-.053.52929-.02927.17245.05264.24854.19135.32793.1515.08674.22665.00538.31778-.082.12693-.1217.25653-.2406.3963-.37128l.5221.39851c-.072.14944-.1434.28974-.20764.43323-.05365.11985-.17548.22675-.02116.37491.14411.13836.25873.22523.48.12981.50921-.21963.51507-.206.77829.3923a3.33258,3.33258,0,0,0-.39157.36883.34846.34846,0,0,0-.04716.29775.58531.58531,0,0,0,.24971.21493c.04634.02754.12128.007.18328.00815.49475.00945.49475.00945.55363.55393-.157.07675-.31682.16947-.48731.2337a.258.258,0,0,0-.19426.294c.00564.15577.05131.24892.20388.29146a2.38793,2.38793,0,0,1,.24619.09853c.32864.13263.415.31713.22909.61558-.05558.08921-.25251.09914-.38845.127-.13673.02807-.28947-.03785-.37149.16343-.09922.24348-.10526.40092.15669.5563.36563.21688.35859.24628.15229.61828a.27728.27728,0,0,1-.21827.10735,1.3419,1.3419,0,0,1-.38475-.09554.32576.32576,0,0,0-.42709.12532c-.1346.16982-.03483.2734.03625.40038q.026.04632.05347.09179c.19212.31639.15471.46981-.17614.65866a.23265.23265,0,0,1-.18661.00031,3.60483,3.60483,0,0,1-.36551-.21574c-.11417-.072-.20343-.127-.35263-.02207-.153.10764-.13841.20516-.10642.3532.13263.61362.12814.61459-.51907.81741a5.70727,5.70727,0,0,1-.35876-.51073.21633.21633,0,0,0-.32751-.1006.40126.40126,0,0,0-.16882.23915,5.14092,5.14092,0,0,0-.068.57092.41269.41269,0,0,1-.08783.0323c-.6031.05164-.60683.0522-.73551-.533-.03294-.1498-.05916-.25192-.25544-.26756a.2513.2513,0,0,0-.3142.22487.32331.32331,0,0,1-.02087.04874c-.19019.45538-.36916.508-.78078.21835a.23167.23167,0,0,1-.08148-.16893,1.43758,1.43758,0,0,1,.05244-.36683.32808.32808,0,0,0-.2679-.45164.273.273,0,0,0-.19837.0439.96249.96249,0,0,0-.15777.17773c-.2791.31551-.28493.307-.617.06433-.19454-.14218-.24213-.2811-.10118-.4836.08044-.11559.14365-.24314.21343-.36325-.221-.35257-.22863-.355-.60033-.19516-.01626.007-.0317.01591-.048.02283-.37885.161-.58282.06915-.69624-.3268a.23232.23232,0,0,1,.06029-.175,2.26974,2.26974,0,0,1,.2844-.27842.3.3,0,0,0,.09191-.395.26771.26771,0,0,0-.33612-.17423c-.04357.00641-.08842.00387-.13265.00617-.39334.02045-.4763-.047-.49573-.43929a.26589.26589,0,0,1,.11416-.18048,1.15932,1.15932,0,0,1,.28236-.13564c.16871-.06163.28029-.132.27112-.35548-.00935-.22823-.14906-.24987-.24886-.27674a2.408,2.408,0,0,1-.0965.54c-.0243.06-.20488.0623-.31591.07963a.80912.80912,0,0,1-.1853-.00919c-.14358-.01163-.28429-.06893-.35777.14806-.06621.19553-.11241.34966.10329.47052a.92832.92832,0,0,1,.14173.11987.38066.38066,0,0,1-.00125.64873.21728.21728,0,0,1-.16294.03138,2.177,2.177,0,0,1-.3832-.10486c-.16409-.06447-.25234-.0192-.37344.11713-.218.2454-.04539.39539.07658.5692.20478.29181.20087.38879-.076.58385a.34737.34737,0,0,1-.27075.01365,1.12772,1.12772,0,0,1-.31987-.18635c-.153-.11925-.27121-.08459-.42433.01718-.17161.11407-.10432.23656-.07087.36878.0195.07712.04144.15387.067.22917.062.18262.10909.34138-.11223.47727a.37084.37084,0,0,1-.54573-.11086c-.15534-.18272-.31719-.36215-.57288-.15862a.34261.34261,0,0,0-.12607.21169,1.54494,1.54494,0,0,0,.04511.36753.27761.27761,0,0,1-.18522.34618h0l-.00886.00252c-.3718.15355-.39767.152-.57012-.22006-.05182-.11179-.09868-.22587-.14672-.33638-.44793-.01782-.45129-.01866-.56247.42516-.056.22366-.07232.43892-.41248.42221-.23332-.01146-.34158-.07411-.37367-.29636a1.19784,1.19784,0,0,0-.08909-.38541.40984.40984,0,0,0-.24951-.18409c-.06027-.01311-.16367.07043-.21381.13641a1.01026,1.01026,0,0,0-.16985.3286c-.08371.29865-.28.23486-.49821.19542-.24716-.04465-.31918-.17-.27594-.4038.03007-.16259.03768-.32933.05545-.49538l-.461-.16549c-.129.15334-.26776.30164-.38628.46469a.18421.18421,0,0,1-.29245.04634c-.12822-.08781-.34536-.101-.30581-.33824A2.23908,2.23908,0,0,1,31.3523,42.14c.12-.42979.12006-.42977-.28343-.71326l-.58008.46141-.47632-.44588c.09161-.12983.16968-.24754.25514-.35963.09482-.12441.16669-.22891.04262-.39452a.30617.30617,0,0,0-.41745-.115h0l-.013.00779-.02456.01015c-.51942.17222-.51943.17222-.74651-.38328a3.318,3.318,0,0,1,.371-.32807c.218-.14382.0914-.304.05386-.46675-.04085-.17715-.17383-.139-.29486-.13807-.19373.00158-.38747.00044-.57576.00044a.32206.32206,0,0,1-.03036-.05473c-.13646-.4761-.13512-.47391.29091-.709.1129-.0623.28308-.078.22744-.29193-.04974-.1912-.03479-.41282-.32634-.40727a.92727.92727,0,0,1-.20845-.03806.34943.34943,0,0,1-.29023-.52521.24578.24578,0,0,1,.15184-.11509,1.107,1.107,0,0,1,.33993-.05234c.25147.01022.289-.14681.334-.34383.04739-.20763-.10281-.23489-.21534-.30618-.05973-.03785-.123-.07013-.18482-.10463-.30691-.17125-.335-.25493-.17545-.57881a.20294.20294,0,0,1,.13132-.09457,1.26977,1.26977,0,0,1,.34394-.01782c.2231.02538.3175-.07442.39928-.2774.08594-.2133-.03716-.2861-.15769-.38886-.372-.31713-.37153-.32354-.02737-.7611.12418.03061.252.062.37978.09362.39165.0969.39165.09694.62092-.29657a2.36189,2.36189,0,0,0-.23839-.35931c-.21325-.22567-.02576-.34919.09505-.5071.14438-.1887.28329-.12622.43389-.02207a2.38533,2.38533,0,0,1,.199.132.21219.21219,0,0,0,.32428-.013c.1011-.09486.23926-.158.15019-.34276-.053-.11-.06448-.23932-.11079-.35338-.06615-.163-.00514-.24707.12944-.34821.213-.1601.3689-.1557.52011.06831.04875.07221.1338.12007.18174.19262.13376.20243.28026.09415.43565.03869.17429-.06221.15551-.19029.13685-.32554-.00242-.01754-.00377-.03522-.00592-.05281-.06506-.52965-.06506-.52965.511-.61949.09741.16991.20876.34016.29576.52205.10375.21692.27692.115.41447.08906.06952-.0131.14816-.12316.17189-.20425a5.726,5.726,0,0,0,.10988-.57967l.59284-.02658a3.63224,3.63224,0,0,1,.09827.46156c.01875.2333.1384.30426.35978.3236.16751.01463.26949-.00565.325-.172a1.6872,1.6872,0,0,1,.106-.21386c.14836-.29527.2817-.34437.576-.18808a.25669.25669,0,0,1,.09392.18722c.0123.19337.00438.388.00438.58827l.45345.18174.47639-.57126c.54094.19685.55508.20118.39586.72113-.07213.23552-.04766.39887.18407.48829a.37575.37575,0,0,0,.27419-.00354,5.01249,5.01249,0,0,0,.49057-.32295l.36792.39443-.19028.43476c-.16433.19477-.07594.4.2461.56071ZM30.497,37.0405c-.01059.53039.1719.67438.63439.53521.42275-.12721.84279-.26356,1.26277-.39977a.86456.86456,0,0,0,.45593-1.26335c-.21515-.34439-.42859-.6906-.62434-1.04616-.22479-.40834-.50483-.46024-.8044-.10641A4.14408,4.14408,0,0,0,30.497,37.0405Zm3.905-3.70029a9.72858,9.72858,0,0,0-1.01472.17079.3942.3942,0,0,0-.23849.67134,11.63807,11.63807,0,0,1,.67858.94723.918.918,0,0,0,.98385.4972.54526.54526,0,0,0,.32341-.12556c.35674-.36808.7014-.74841,1.03913-1.13421.24107-.27539.1751-.51425-.16972-.6623a4.32281,4.32281,0,0,0-1.602-.36449Zm-.72472,6.6615c-.01373-.59013.14816-1.14631-.43448-1.45563a.86446.86446,0,0,0-.47266-.14411c-.48784.07475-.96934.19329-1.451.30472a.38187.38187,0,0,0-.27249.6197,4.00448,4.00448,0,0,0,2.00967,1.697.39539.39539,0,0,0,.587-.37266C33.66008,40.40372,33.6693,40.15623,33.6773,40.00171Zm1.57788,1.2028a3.66765,3.66765,0,0,0,2.353-1.527.38058.38058,0,0,0-.23947-.57141c-.341-.12175-.68746-.2284-1.031-.34312a1.00064,1.00064,0,0,0-1.12391.112c-.0061.00587-.01829.00624-.023.0126-.075.102-.2.1975-.21514.308-.07331.53387-.12189,1.07136-.169,1.60847-.02091.2365.15.40422.44847.40046Zm3.15366-3.79207a3.94565,3.94565,0,0,0-.68972-2.29224.38823.38823,0,0,0-.61044-.091c-.33434.44475-.66456.89327-.97751,1.35314A.9038.9038,0,0,0,36.426,37.43q.70735.33113,1.43289.62289c.29214.11744.48223-.0088.525-.31841.01692-.12223.01937-.24648.02486-.322Zm3.53794.866c.00351.32747.12413.41888.41888.33117q.43111-.12828.85777-.27148a.58745.58745,0,0,0,.31443-.85614c-.146-.2416-.2916-.4835-.43332-.72762-.15747-.27128-.333-.29664-.53672-.05353a2.78267,2.78267,0,0,0-.62109,1.57763Zm2.14933,1.95932c0-.2295.00723-.3887-.00161-.547a.62244.62244,0,0,0-.61893-.51808q-.46737.0876-.93064.19653c-.27612.065-.34953.22829-.205.464a2.66225,2.66225,0,0,0,1.33284,1.11917c.22453.08737.37783-.01163.40142-.25663.01679-.17533.01722-.35226.02187-.458Zm.53341-4.53834-.01283.04092c-.17589.01647-.35208.03032-.5275.05085a.78964.78964,0,0,0-.17884.04766c-.24929.09208-.31423.25552-.16835.46965.19384.28453.39788.56258.60794.83542a.6016.6016,0,0,0,.75983.02571c.224-.2379.44408-.48.65586-.72883.17556-.20623.13981-.37853-.12113-.46724-.3312-.11256-.67607-.18455-1.015-.2741Zm2.66225,2.77094a2.659,2.659,0,0,0-.45484-1.50566c-.13575-.19446-.31515-.22673-.43493-.07005-.22.28773-.43378.5808-.63636.881a.59163.59163,0,0,0,.17489.72627c.32437.16009.65871.30121.99427.43694.19131.07739.30671-.01734.34062-.21036a2.17921,2.17921,0,0,0,.0163-.25811ZM44.8663,40.768c-.01844.21938.10065.33993.313.30123a2.48309,2.48309,0,0,0,1.51908-.94709.27591.27591,0,0,0-.14458-.47823c-.32581-.11194-.65626-.21169-.98826-.30389a.59032.59032,0,0,0-.60007.39769C44.924,40.08009,44.89856,40.42445,44.8663,40.768Zm-5.7335-9.38281c-.009.27156.09319.3524.36981.27111q.3042-.08942.60494-.19054a.49689.49689,0,0,0,.27753-.80706c-.10227-.16447-.19781-.33329-.29191-.50263-.14706-.26468-.29344-.28652-.47764-.05206A2.37483,2.37483,0,0,0,39.1328,31.38519Zm2.21358-2.12451a5.4356,5.4356,0,0,0-.61737.11123c-.17969.05519-.26292.18672-.13988.36757.16365.24057.32883.48091.50833.70961a.46538.46538,0,0,0,.63463.00616c.17387-.18771.34543-.378.50947-.57429.1583-.18942.13592-.3259-.09294-.40567C41.86913,29.37785,41.57572,29.32034,41.34638,29.26068Zm-.47679,3.74482H40.886c0-.14983.01069-.30059-.00243-.44926a.50021.50021,0,0,0-.51027-.42658c-.25028.04953-.50009.10272-.74766.16417-.23684.05878-.29253.18226-.1711.38676a2.15951,2.15951,0,0,0,1.05955.91882c.21847.08958.3386.01157.35408-.224C40.87623,33.2526,40.86959,33.12883,40.86959,33.0055ZM43.502,31.53028a2.21207,2.21207,0,0,0-.356-1.20279c-.14763-.21855-.27472-.21884-.42553-.00791-.12856.1798-.26026.35735-.38853.53735a.48274.48274,0,0,0,.20865.79047c.16159.07161.32219.14544.48392.21672C43.40361,32.0312,43.49141,31.97454,43.502,31.53028Zm-1.98234,1.91c-.01988.20678.08041.30674.281.26471a2.00577,2.00577,0,0,0,1.23375-.81014.21392.21392,0,0,0-.11465-.35975c-.27366-.09915-.55182-.18942-.83378-.2609a.46708.46708,0,0,0-.48449.34809c-.03092.27229-.0549.54533-.08183.818ZM34.468,38.22919a.91355.91355,0,1,0-.01984,0Q34.458,38.22931,34.468,38.22919Zm10.14866.82889a.62533.62533,0,1,0-.613-.63746V38.422a.63542.63542,0,0,0,.613.63609ZM40.5423,37.46779c-.14982.02747-.27781.06012-.40774.07271-.21859.02118-.37282.08953-.343.35245.00662.05843-.03775.12315-.02936.18071a.93038.93038,0,0,0,.11176.21925c.09571-.612.09383-.63115.57544-.6782.25547-.025.39009-.14922.38308-.3695-.00409-.12839-.13807-.25265-.21359-.37877l-.07658.04183ZM41.87472,31.458a.53036.53036,0,0,0-.54147-.519l-.01624.00059a.54446.54446,0,0,0-.56549.52256l-.00042.02a.61538.61538,0,0,0,.57695.55589A.59628.59628,0,0,0,41.87472,31.458Z" transform="translate(0)"/>
        <path d="M30.497,37.0405a4.144,4.144,0,0,1,.92435-2.2805c.29957-.35383.57961-.30193.8044.10641.19575.35556.40919.70177.62434,1.04616a.86452.86452,0,0,1-.45593,1.26336c-.42.13621-.84.27256-1.26277.39977C30.66892,37.71488,30.48643,37.57089,30.497,37.0405Z" transform="translate(0)" fill="#fff"/>
        <path d="M34.402,33.34021a4.32262,4.32262,0,0,1,1.602.36449c.34482.148.41079.38691.16972.6623-.33773.3858-.68239.76612-1.03913,1.1342a.54527.54527,0,0,1-.32341.12557.918.918,0,0,1-.98385-.4972,11.63459,11.63459,0,0,0-.67858-.94723.39421.39421,0,0,1,.23852-.67134A9.72877,9.72877,0,0,1,34.402,33.34021Z" transform="translate(0)" fill="#fff"/>
        <path d="M33.6773,40.00171c-.00791.15452-.01717.402-.03405.649a.39539.39539,0,0,1-.587.37266,4.00448,4.00448,0,0,1-2.00967-1.697.38187.38187,0,0,1,.27249-.6197c.4817-.11143.9632-.23,1.451-.30472a.86435.86435,0,0,1,.47266.14411C33.82541,38.8554,33.66352,39.41158,33.6773,40.00171Z" transform="translate(0)" fill="#fff"/>
        <path d="M35.25513,41.20451c-.29844.00376-.46938-.164-.44862-.40043.04716-.5371.09574-1.0746.169-1.60847.01518-.11051.14011-.20606.21514-.308.00468-.00636.01687-.00673.023-.0126a1.00068,1.00068,0,0,1,1.12391-.112c.34357.11472.69.22137,1.031.34312a.38063.38063,0,0,1,.23947.57141A3.66767,3.66767,0,0,1,35.25513,41.20451Z" transform="translate(0)" fill="#fff"/>
        <path d="M38.40879,37.41244c-.00553.07558-.00794.19981-.02483.322-.0428.30961-.23289.43585-.525.31841q-.72467-.2913-1.43289-.62289a.90378.90378,0,0,1-.29493-1.04771c.313-.45987.64317-.90839.97751-1.35314a.38821.38821,0,0,1,.61043.091A3.94551,3.94551,0,0,1,38.40879,37.41244Z" transform="translate(0)" fill="#fff"/>
        <path d="M41.94673,38.27847a2.78267,2.78267,0,0,1,.621-1.5776c.2037-.24311.37925-.21775.53672.05353.14172.24412.28731.486.43332.72762a.5874.5874,0,0,1-.31443.85614q-.42667.14242-.85777.27148C42.07086,38.69735,41.95024,38.60594,41.94673,38.27847Z" transform="translate(0)" fill="#fff"/>
        <path d="M44.09606,40.23779c-.00465.1057-.00508.28263-.022.458-.02358.245-.17689.344-.40142.25663a2.66234,2.66234,0,0,1-1.33284-1.11917c-.1445-.2357-.07109-.399.205-.464q.46285-.109.93064-.19653a.62241.62241,0,0,1,.61893.51808C44.1033,39.84909,44.09606,40.00829,44.09606,40.23779Z" transform="translate(0)" fill="#fff"/>
        <path d="M44.62947,35.69945c.339.08952.68385.16157,1.015.27414.26094.08871.29669.261.12113.46724-.21178.2488-.43182.49093-.65586.72883a.6016.6016,0,0,1-.75983-.02571c-.21006-.27284-.4141-.55089-.60794-.83542-.14588-.21413-.08094-.37757.16835-.46965a.7886.7886,0,0,1,.17884-.04766c.17542-.02053.35161-.03438.5275-.05085Z" transform="translate(0)" fill="#fff"/>
        <path d="M47.29172,38.47039a2.17684,2.17684,0,0,1-.01635.2581c-.03391.193-.14931.28775-.34062.21036-.33556-.13573-.6699-.27685-.99427-.43694a.59165.59165,0,0,1-.17489-.72627c.20258-.30016.4164-.59323.63636-.881.11978-.15668.29918-.12441.43493.07A2.659,2.659,0,0,1,47.29172,38.47039Z" transform="translate(0)" fill="#fff"/>
        <path d="M44.8663,40.768c.03224-.34353.05765-.68789.09921-1.03029A.5903.5903,0,0,1,45.5656,39.34c.332.0922.66245.19195.98826.30389a.2759.2759,0,0,1,.14458.47823,2.4832,2.4832,0,0,1-1.51908.94709C44.967,41.10791,44.84788,40.98736,44.8663,40.768Z" transform="translate(0)" fill="#fff"/>
        <path d="M34.468,38.22922a.91365.91365,0,0,1-.02667-1.82711l.0045-.00005q.00993-.00012.01985,0a.91361.91361,0,1,1,.01241,1.82718Zm.67859-.90272a.68981.68981,0,1,0-1.37959-.00933h0q-.00012.01674.00059.03349a.68961.68961,0,1,0,1.37908-.01984Z" transform="translate(0)" fill="#fff"/>
        <path d="M44.61661,39.05811a.62534.62534,0,1,1,.63435-.6162v.00079A.63473.63473,0,0,1,44.61661,39.05811ZM44.0955,38.434a.51366.51366,0,1,0,0-.03565Q44.09489,38.41617,44.0955,38.434Z" transform="translate(0)" fill="#fff"/>
        <path d="M41.87472,31.458a.59628.59628,0,0,1-.54667.58.61537.61537,0,0,1-.57695-.55589.54446.54446,0,0,1,.54595-.54295l.02.00042a.53037.53037,0,0,1,.55712.50218Zm-.11222.01194a.44978.44978,0,1,0-.44449.46791.46693.46693,0,0,0,.44449-.468Z" transform="translate(0)" fill="#fff"/>
        <path d="M38.6288,33.60362l-.00417-.0038.25027.56451" transform="translate(0)" fill="#fff"/>
        <path d="M35.14654,37.3265a.68982.68982,0,1,1,0-.00482Z" transform="translate(0)"/>
        <path d="M44.0955,38.434a.51858.51858,0,0,1,1.03683-.0263q.00034.01365,0,.0273a.51867.51867,0,1,1-1.03677.03436l-.00006-.00192Q44.09495,38.45073,44.0955,38.434Z" transform="translate(0)"/>
      </g>
      <polyline points="48.841 32.495 48.841 23.313 29.183 23.313 29.183 33.13" fill="none" stroke="#000" stroke-miterlimit="10"/>
      <line x1="30.96613" y1="26.47654" x2="46.49848" y2="26.47654" fill="none" stroke="#000" stroke-miterlimit="10" stroke-width="0.5"/>
      <line x1="31.14942" y1="28.58499" x2="39.13228" y2="28.58499" fill="none" stroke="#000" stroke-miterlimit="10" stroke-width="0.5"/>
      <line x1="47.78582" y1="30.25177" x2="45.70524" y2="30.25177" fill="none" stroke="#000" stroke-miterlimit="10" stroke-width="0.5"/>
      <line x1="31.14942" y1="30.33799" x2="32.97542" y2="30.33799" fill="none" stroke="#000" stroke-miterlimit="10" stroke-width="0.5"/>
      <circle cx="44.58037" cy="38.38476" r="2.8005"/>
      <circle cx="44.58037" cy="38.38476" r="0.60819" fill="#fff"/>
    </g>
    <line x1="20.19746" y1="58.7427" x2="56.71288" y2="58.73276" fill="none" stroke="#000" stroke-miterlimit="10" stroke-width="2"/>
  </g>
</svg>
