<svg id="Layer_1" data-name="Layer 1" xmlns="http://www.w3.org/2000/svg" viewBox="0 0 75.01461 75">
  <g id="shapes">
    <path id="square" d="M73.5,70.12506A3.171,3.171,0,0,1,70.5813,73.5H4.41978A3.171,3.171,0,0,1,1.5,70.12506V4.87494A3.17253,3.17253,0,0,1,4.41978,1.5H70.5813A3.17251,3.17251,0,0,1,73.5,4.87494Z" transform="translate(0.0073)" fill="#69c" stroke="#000" stroke-miterlimit="10" stroke-width="3" fill-rule="evenodd"/>
  </g>
  <g id="data">
    <g>
      <g>
        <rect x="9.35731" y="12.32095" width="29.19685" height="27.92126" rx="2.48031" fill="#fff" stroke="#000" stroke-miterlimit="10"/>
        <path d="M23.99859,22.46266A22.02574,22.02574,0,0,1,16.84538,21.329a6.27812,6.27812,0,0,1-1.96772-1.07766,1.571,1.571,0,0,1,.009-2.67507A8.38333,8.38333,0,0,1,18.643,15.96992a24.18708,24.18708,0,0,1,12.492.44376A6.04167,6.04167,0,0,1,33.39044,17.622a1.53392,1.53392,0,0,1-.00913,2.58532A9.12367,9.12367,0,0,1,29.205,21.94973,25.87009,25.87009,0,0,1,23.99859,22.46266Z" transform="translate(0.0073)"/>
        <path d="M34.11005,31.43588c0,1.11248.00352,2.05743-.00111,3.00234A2.02151,2.02151,0,0,1,33.047,36.10953a9.54066,9.54066,0,0,1-3.64215,1.4134,24.154,24.154,0,0,1-12.49518-.56119,8.45948,8.45948,0,0,1-1.17557-.52252,2.50185,2.50185,0,0,1-1.5961-2.67375,20.966,20.966,0,0,0,.01415-2.23913c2.15795,1.88117,4.77319,2.24006,7.4027,2.494A24.673,24.673,0,0,0,30.6496,33.331,6.86026,6.86026,0,0,0,34.11005,31.43588Z" transform="translate(0.0073)"/>
        <path d="M34.10508,26.22614c0,1.15138.02657,2.15786-.00922,3.16212a1.94358,1.94358,0,0,1-1.017,1.49194,9.72625,9.72625,0,0,1-3.82273,1.46764,24.2365,24.2365,0,0,1-12.24132-.55559,9.644,9.644,0,0,1-1.12265-.48093,2.5889,2.5889,0,0,1-1.75319-2.8316,19.4027,19.4027,0,0,0,.01409-2.18956,9.99326,9.99326,0,0,0,5.66207,2.31091,25.3659,25.3659,0,0,0,11.12659-.56455A6.36369,6.36369,0,0,0,34.10508,26.22614Z" transform="translate(0.0073)"/>
        <path d="M14.14352,21.058a8.17742,8.17742,0,0,0,4.4659,2.11062,25.27956,25.27956,0,0,0,12.58075-.426,5.99625,5.99625,0,0,0,2.88568-1.70319c0,1.177.05461,2.24257-.01991,3.29905a1.99342,1.99342,0,0,1-1.12029,1.42532,11.52788,11.52788,0,0,1-4.54746,1.54107,24.54929,24.54929,0,0,1-10.93736-.56223,7.08876,7.08876,0,0,1-2.52574-1.25243,1.9552,1.9552,0,0,1-.78939-1.67907C14.1684,22.9315,14.14352,22.04971,14.14352,21.058Z" transform="translate(0.0073)"/>
      </g>
      <g>
        <rect x="16.48108" y="21.58549" width="29.19685" height="27.92126" rx="2.48031" fill="#fff" stroke="#000" stroke-miterlimit="10"/>
        <path d="M31.12238,31.7272a22.02577,22.02577,0,0,1-7.15322-1.13368,6.27814,6.27814,0,0,1-1.96772-1.07767,1.571,1.571,0,0,1,.009-2.67506,8.38324,8.38324,0,0,1,3.75631-1.60636,24.18708,24.18708,0,0,1,12.49195.44377,6.04146,6.04146,0,0,1,2.25552,1.20829,1.53393,1.53393,0,0,1-.00912,2.58531,9.12383,9.12383,0,0,1-4.17633,1.74247A25.87062,25.87062,0,0,1,31.12238,31.7272Z" transform="translate(0.0073)"/>
        <path d="M41.23383,40.70042c0,1.11248.00352,2.05743-.00111,3.00234a2.02149,2.02149,0,0,1-1.06191,1.6713,9.54044,9.54044,0,0,1-3.64215,1.4134,24.15415,24.15415,0,0,1-12.49518-.56118,8.46066,8.46066,0,0,1-1.17557-.52252A2.50187,2.50187,0,0,1,21.26176,43.03a20.96623,20.96623,0,0,0,.01415-2.23914c2.15795,1.88118,4.7732,2.24007,7.4027,2.494a24.67294,24.67294,0,0,0,9.09478-.68929A6.86016,6.86016,0,0,0,41.23383,40.70042Z" transform="translate(0.0073)"/>
        <path d="M41.22886,35.49067c0,1.15138.02657,2.15786-.00921,3.16213a1.9436,1.9436,0,0,1-1.017,1.49193,9.72613,9.72613,0,0,1-3.82273,1.46764,24.23628,24.23628,0,0,1-12.24132-.55559,9.64218,9.64218,0,0,1-1.12265-.48092,2.58892,2.58892,0,0,1-1.75319-2.83161,19.40019,19.40019,0,0,0,.01409-2.18955,9.99329,9.99329,0,0,0,5.66208,2.31091A25.36606,25.36606,0,0,0,38.06549,37.301,6.36368,6.36368,0,0,0,41.22886,35.49067Z" transform="translate(0.0073)"/>
        <path d="M21.26731,30.32252a8.17749,8.17749,0,0,0,4.4659,2.11062,25.27956,25.27956,0,0,0,12.58075-.426A5.99613,5.99613,0,0,0,41.19963,30.304c0,1.177.05461,2.24257-.01991,3.29906a1.99338,1.99338,0,0,1-1.12029,1.42532,11.528,11.528,0,0,1-4.54743,1.541,24.54943,24.54943,0,0,1-10.93736-.56223,7.089,7.089,0,0,1-2.52574-1.25244,1.9552,1.9552,0,0,1-.78939-1.67906C21.29218,32.196,21.26731,31.31425,21.26731,30.32252Z" transform="translate(0.0073)"/>
      </g>
      <g>
        <rect x="27.48659" y="26.73979" width="29.19685" height="27.92126" rx="2.48031" fill="#fff" stroke="#000" stroke-miterlimit="10"/>
        <path d="M42.12789,36.8815a22.02608,22.02608,0,0,1-7.15322-1.13368A6.2781,6.2781,0,0,1,33.007,34.67015a1.571,1.571,0,0,1,.009-2.67506,8.38319,8.38319,0,0,1,3.75631-1.60636,24.187,24.187,0,0,1,12.49194.44377,6.04138,6.04138,0,0,1,2.25552,1.20829,1.53392,1.53392,0,0,1-.00912,2.58531,9.12391,9.12391,0,0,1-4.17632,1.74247A25.87111,25.87111,0,0,1,42.12789,36.8815Z" transform="translate(0.0073)"/>
        <path d="M52.23935,45.85472c0,1.11248.00352,2.05743-.00112,3.00234a2.0215,2.0215,0,0,1-1.0619,1.6713,9.54034,9.54034,0,0,1-3.64215,1.4134A24.154,24.154,0,0,1,35.039,51.38058a8.45953,8.45953,0,0,1-1.17557-.52253,2.50182,2.50182,0,0,1-1.59614-2.67374,20.97147,20.97147,0,0,0,.01415-2.23914c2.15795,1.88118,4.77319,2.24007,7.4027,2.494a24.67269,24.67269,0,0,0,9.09477-.68929A6.86018,6.86018,0,0,0,52.23935,45.85472Z" transform="translate(0.0073)"/>
        <path d="M52.23438,40.645c0,1.15138.02657,2.15786-.00922,3.16213a1.94358,1.94358,0,0,1-1.017,1.49193,9.72613,9.72613,0,0,1-3.82273,1.46764,24.23628,24.23628,0,0,1-12.24132-.55559,9.64224,9.64224,0,0,1-1.12265-.48093,2.58889,2.58889,0,0,1-1.75319-2.83161,19.4,19.4,0,0,0,.01409-2.18954,9.99336,9.99336,0,0,0,5.66208,2.31091A25.36607,25.36607,0,0,0,49.071,42.45535,6.36362,6.36362,0,0,0,52.23438,40.645Z" transform="translate(0.0073)"/>
        <path d="M32.27282,35.47682a8.17752,8.17752,0,0,0,4.4659,2.11062,25.27956,25.27956,0,0,0,12.58075-.426,5.9962,5.9962,0,0,0,2.88568-1.70319c0,1.177.05461,2.24257-.01991,3.29906A1.99342,1.99342,0,0,1,51.065,40.18264a11.528,11.528,0,0,1-4.54747,1.54107,24.54909,24.54909,0,0,1-10.93735-.56224A7.08874,7.08874,0,0,1,33.05439,39.909,1.95519,1.95519,0,0,1,32.265,38.23C32.2977,37.35033,32.27282,36.46855,32.27282,35.47682Z" transform="translate(0.0073)"/>
      </g>
      <g>
        <rect x="36.46046" y="34.75779" width="29.19685" height="27.92126" rx="2.48031" fill="#fff" stroke="#000" stroke-miterlimit="10"/>
        <path d="M51.10175,44.8995a22.02577,22.02577,0,0,1-7.15322-1.13368,6.27794,6.27794,0,0,1-1.96772-1.07767,1.571,1.571,0,0,1,.009-2.67506,8.38315,8.38315,0,0,1,3.7563-1.60636,24.18706,24.18706,0,0,1,12.492.44377,6.04131,6.04131,0,0,1,2.25552,1.20829,1.53391,1.53391,0,0,1-.00912,2.58531,9.12365,9.12365,0,0,1-4.17632,1.74247A25.86966,25.86966,0,0,1,51.10175,44.8995Z" transform="translate(0.0073)"/>
        <path d="M61.21321,53.87272c0,1.11248.00352,2.05743-.00112,3.00234a2.02151,2.02151,0,0,1-1.06191,1.67131A9.54056,9.54056,0,0,1,56.508,59.95976a24.154,24.154,0,0,1-12.49519-.56118,8.46184,8.46184,0,0,1-1.17557-.52252,2.50186,2.50186,0,0,1-1.59615-2.67375,20.96623,20.96623,0,0,0,.01415-2.23914c2.15795,1.88118,4.7732,2.24007,7.4027,2.494a24.673,24.673,0,0,0,9.09478-.68929A6.86014,6.86014,0,0,0,61.21321,53.87272Z" transform="translate(0.0073)"/>
        <path d="M61.20824,48.663c0,1.15138.02657,2.15786-.00922,3.16213A1.94357,1.94357,0,0,1,60.182,53.317a9.72594,9.72594,0,0,1-3.82273,1.46764A24.2363,24.2363,0,0,1,44.118,54.22908a9.64218,9.64218,0,0,1-1.12265-.48092,2.5889,2.5889,0,0,1-1.75318-2.83161,19.40252,19.40252,0,0,0,.014-2.18955,9.99329,9.99329,0,0,0,5.66208,2.31091,25.366,25.366,0,0,0,11.12659-.56455A6.36373,6.36373,0,0,0,61.20824,48.663Z" transform="translate(0.0073)"/>
        <path d="M41.24668,43.49482a8.17759,8.17759,0,0,0,4.4659,2.11062,25.27956,25.27956,0,0,0,12.58075-.426A5.99623,5.99623,0,0,0,61.179,43.47626c0,1.177.05461,2.24257-.01991,3.29906a1.9934,1.9934,0,0,1-1.12029,1.42532,11.52793,11.52793,0,0,1-4.54747,1.54107A24.5493,24.5493,0,0,1,44.554,49.17948,7.08879,7.08879,0,0,1,42.02824,47.927a1.95516,1.95516,0,0,1-.78939-1.67906C41.27155,45.36833,41.24668,44.48655,41.24668,43.49482Z" transform="translate(0.0073)"/>
      </g>
    </g>
  </g>
</svg>
