<svg id="Layer_1" data-name="Layer 1" xmlns="http://www.w3.org/2000/svg" viewBox="0 0 75 75">
  <g id="shapes">
    <path id="square" d="M73.5,70.13a3.16553,3.16553,0,0,1-2.92,3.37H4.42A3.17186,3.17186,0,0,1,1.5,70.13V4.87A3.17186,3.17186,0,0,1,4.42,1.5H70.58A3.17186,3.17186,0,0,1,73.5,4.87Z" fill="#69c" stroke="#000" stroke-miterlimit="10" stroke-width="3" fill-rule="evenodd"/>
  </g>
  <g id="cluster">
    <g>
      <g>
        <g id="cluster-2" data-name="cluster" opacity="0.75">
          <path d="M25.09,22.04V30.4c0,1.2-.41,1.6-1.62,1.6-2.38,0-4.77.01-7.15,0-1.07,0-1.51-.44-1.51-1.5-.01-5.67,0-11.33,0-17,0-1.06.45-1.49,1.52-1.5,2.43,0,4.86-.01,7.29,0,1.02,0,1.47.46,1.47,1.47C25.1,16.32,25.09,19.18,25.09,22.04Z"/>
          <path d="M19.93,28.44c.92,0,1.84.01,2.75,0,.37,0,.67.07.69.51.01.48-.29.57-.7.57-1.81-.01-3.62-.01-5.44,0-.36,0-.66-.04-.67-.51-.02-.5.29-.57.69-.57Z" fill="#f7f7f7"/>
          <path d="M19.88,22.36H17.2c-.37,0-.65-.06-.64-.53.01-.46.29-.52.66-.52,1.83.01,3.67.01,5.5,0,.39,0,.65.1.65.54,0,.45-.3.52-.67.51C21.76,22.35,20.82,22.36,19.88,22.36Z" fill="#fcfcfc"/>
          <path d="M20.04,26.08c.9,0,1.79.01,2.69,0,.39-.01.65.11.63.55-.02.39-.26.5-.63.49-1.86-.01-3.73-.01-5.59,0-.37,0-.58-.12-.59-.52-.01-.41.21-.53.58-.52C18.1,26.09,19.07,26.08,20.04,26.08Z" fill="#fcfcfc"/>
          <path d="M20,23.7c.89,0,1.79.01,2.68,0,.37,0,.67.05.68.5.01.43-.24.54-.63.54-1.86-.01-3.71-.01-5.57,0-.35,0-.59-.07-.6-.49-.01-.45.24-.55.62-.54C18.12,23.71,19.06,23.7,20,23.7Z" fill="#fdfdfd"/>
          <path d="M22.64,15.11c.44.06.73.3.71.73a.69029.69029,0,0,1-1.38-.04C21.97,15.37,22.27,15.19,22.64,15.11Z" fill="#f4f4f4"/>
        </g>
        <g id="cluster-3" data-name="cluster" opacity="0.75">
          <path d="M25.13,53.05v8.36c0,1.2-.41,1.6-1.62,1.6-2.38,0-4.77.01-7.15,0-1.07,0-1.51-.44-1.51-1.5-.01-5.67,0-11.33,0-17,0-1.06.45-1.49,1.52-1.5,2.43,0,4.86-.01,7.29,0,1.02,0,1.47.46,1.47,1.47Z"/>
          <path d="M19.96,59.45c.92,0,1.84.01,2.75,0,.37,0,.67.07.69.51.01.48-.29.57-.7.57-1.81-.01-3.62-.01-5.44,0-.36,0-.66-.04-.67-.51-.02-.5.29-.57.69-.57Z" fill="#f7f7f7"/>
          <path d="M19.91,53.37H17.23c-.37,0-.65-.06-.64-.53.01-.46.29-.52.66-.52,1.83.01,3.67.01,5.5,0,.39,0,.65.1.65.54,0,.45-.3.52-.67.51C21.79,53.36,20.85,53.37,19.91,53.37Z" fill="#fcfcfc"/>
          <path d="M20.07,57.09c.9,0,1.79.01,2.69,0,.39-.01.65.11.63.55-.02.39-.26.5-.63.49-1.86-.01-3.73-.01-5.59,0-.37,0-.58-.12-.59-.52-.01-.41.21-.53.58-.52C18.14,57.1,19.11,57.09,20.07,57.09Z" fill="#fcfcfc"/>
          <path d="M20.04,54.71c.89,0,1.79.01,2.68,0,.37,0,.67.05.68.5.01.43-.24.54-.63.54-1.86-.01-3.71-.01-5.57,0-.35,0-.59-.07-.6-.49-.01-.45.24-.55.62-.54C18.16,54.72,19.1,54.71,20.04,54.71Z" fill="#fdfdfd"/>
          <path d="M22.67,46.12c.44.06.73.3.71.73A.69029.69029,0,0,1,22,46.81C22.01,46.38,22.3,46.2,22.67,46.12Z" fill="#f4f4f4"/>
        </g>
        <g id="cluster-4" data-name="cluster" opacity="0.75">
          <path d="M43.27,36.21v8.36c0,1.2-.41,1.6-1.62,1.6-2.38,0-4.77.01-7.15,0-1.07,0-1.51-.44-1.51-1.5-.01-5.67,0-11.33,0-17,0-1.06.45-1.49,1.52-1.5,2.43,0,4.86-.01,7.29,0,1.02,0,1.47.46,1.47,1.47Z"/>
          <path d="M38.1,42.61c.92,0,1.84.01,2.75,0,.37,0,.67.07.69.51.01.48-.29.57-.7.57-1.81-.01-3.62-.01-5.44,0-.36,0-.66-.04-.67-.51-.02-.5.29-.57.69-.57Z" fill="#f7f7f7"/>
          <path d="M38.05,36.53H35.37c-.37,0-.65-.06-.64-.53.01-.46.29-.52.66-.52,1.83.01,3.67.01,5.5,0,.39,0,.65.1.65.54,0,.45-.3.52-.67.51C39.93,36.52,38.99,36.53,38.05,36.53Z" fill="#fcfcfc"/>
          <path d="M38.22,40.25c.9,0,1.79.01,2.69,0,.39-.01.65.11.63.55-.02.39-.26.5-.63.49-1.86-.01-3.73-.01-5.59,0-.37,0-.58-.12-.59-.52-.01-.41.21-.53.58-.52C36.28,40.26,37.25,40.25,38.22,40.25Z" fill="#fcfcfc"/>
          <path d="M38.18,37.87c.89,0,1.79.01,2.68,0,.37,0,.67.05.68.5.01.43-.24.54-.63.54-1.86-.01-3.71-.01-5.57,0-.35,0-.59-.07-.6-.49-.01-.45.24-.55.62-.54C36.3,37.88,37.24,37.87,38.18,37.87Z" fill="#fdfdfd"/>
          <path d="M40.81,29.28c.44.06.73.3.71.73a.69029.69029,0,0,1-1.38-.04C40.15,29.54,40.45,29.36,40.81,29.28Z" fill="#f4f4f4"/>
        </g>
        <g id="cluster-5" data-name="cluster" opacity="0.75">
          <path d="M60.17,22.04V30.4c0,1.2-.41,1.6-1.62,1.6-2.38,0-4.77.01-7.15,0-1.07,0-1.51-.44-1.51-1.5-.01-5.67,0-11.33,0-17,0-1.06.45-1.49,1.52-1.5,2.43,0,4.86-.01,7.29,0,1.02,0,1.47.46,1.47,1.47Z"/>
          <path d="M55,28.44c.92,0,1.84.01,2.75,0,.37,0,.67.07.69.51.01.48-.29.57-.7.57-1.81-.01-3.62-.01-5.44,0-.36,0-.66-.04-.67-.51-.02-.5.29-.57.69-.57Z" fill="#f7f7f7"/>
          <path d="M54.95,22.36H52.27c-.37,0-.65-.06-.64-.53.01-.46.29-.52.66-.52,1.83.01,3.67.01,5.5,0,.39,0,.65.1.65.54,0,.45-.3.52-.67.51C56.83,22.35,55.89,22.36,54.95,22.36Z" fill="#fcfcfc"/>
          <path d="M55.11,26.08c.9,0,1.79.01,2.69,0,.39-.01.65.11.63.55-.02.39-.26.5-.63.49-1.86-.01-3.73-.01-5.59,0-.37,0-.58-.12-.59-.52-.01-.41.21-.53.58-.52C53.18,26.09,54.14,26.08,55.11,26.08Z" fill="#fcfcfc"/>
          <path d="M55.07,23.7c.89,0,1.79.01,2.68,0,.37,0,.67.05.68.5.01.43-.24.54-.63.54-1.86-.01-3.71-.01-5.57,0-.35,0-.59-.07-.6-.49-.01-.45.24-.55.62-.54C53.19,23.71,54.13,23.7,55.07,23.7Z" fill="#fdfdfd"/>
          <path d="M57.71,15.11c.44.06.73.3.71.73a.69029.69029,0,0,1-1.38-.04C57.04,15.37,57.34,15.19,57.71,15.11Z" fill="#f4f4f4"/>
        </g>
        <g id="cluster-6" data-name="cluster" opacity="0.75">
          <path d="M60.2,53.05v8.36c0,1.2-.41,1.6-1.62,1.6-2.38,0-4.77.01-7.15,0-1.07,0-1.51-.44-1.51-1.5-.01-5.67,0-11.33,0-17,0-1.06.45-1.49,1.52-1.5,2.43,0,4.86-.01,7.29,0,1.02,0,1.47.46,1.47,1.47Z"/>
          <path d="M55.03,59.45c.92,0,1.84.01,2.75,0,.37,0,.67.07.69.51.01.48-.29.57-.7.57-1.81-.01-3.62-.01-5.44,0-.36,0-.66-.04-.67-.51-.02-.5.29-.57.69-.57Z" fill="#f7f7f7"/>
          <path d="M54.98,53.37H52.3c-.37,0-.65-.06-.64-.53.01-.46.29-.52.66-.52,1.83.01,3.67.01,5.5,0,.39,0,.65.1.65.54,0,.45-.3.52-.67.51C56.86,53.36,55.92,53.37,54.98,53.37Z" fill="#fcfcfc"/>
          <path d="M55.15,57.09c.9,0,1.79.01,2.69,0,.39-.01.65.11.63.55-.02.39-.26.5-.63.49-1.86-.01-3.73-.01-5.59,0-.37,0-.58-.12-.59-.52-.01-.41.21-.53.58-.52C53.21,57.1,54.18,57.09,55.15,57.09Z" fill="#fcfcfc"/>
          <path d="M55.11,54.71c.89,0,1.79.01,2.68,0,.37,0,.67.05.68.5.01.43-.24.54-.63.54-1.86-.01-3.71-.01-5.57,0-.35,0-.59-.07-.6-.49-.01-.45.24-.55.62-.54C53.23,54.72,54.17,54.71,55.11,54.71Z" fill="#fdfdfd"/>
          <path d="M57.74,46.12c.44.06.73.3.71.73a.69029.69029,0,0,1-1.38-.04C57.08,46.38,57.38,46.2,57.74,46.12Z" fill="#f4f4f4"/>
        </g>
      </g>
      <line x1="25.09" y1="59.45" x2="49.91" y2="59.45" fill="none" stroke="#000" stroke-miterlimit="10"/>
      <line x1="19.95" y1="43.14" x2="19.99" y2="32" fill="none" stroke="#000" stroke-miterlimit="10"/>
      <line x1="25.13" y1="15.81" x2="49.87" y2="15.81" fill="none" stroke="#000" stroke-miterlimit="10"/>
      <line x1="55.07" y1="32" x2="55.03" y2="43" fill="none" stroke="#000" stroke-miterlimit="10"/>
      <rect x="18.47" y="34.72" width="2.74" height="5.53" stroke="#000" stroke-miterlimit="10"/>
      <rect x="53.65" y="35.14" width="2.74" height="5.53" stroke="#000" stroke-miterlimit="10"/>
      <rect x="35.3718" y="58.0793" width="5.53" height="2.74" stroke="#000" stroke-miterlimit="10"/>
      <rect x="35.3725" y="14.44" width="5.53" height="2.74" stroke="#000" stroke-miterlimit="10"/>
      <line x1="21.21" y1="37.57" x2="32.97" y2="37.57" fill="none" stroke="#000" stroke-miterlimit="10"/>
      <line x1="38.14" y1="15.81" x2="38.14" y2="26.16" fill="none" stroke="#000" stroke-miterlimit="10"/>
      <line x1="55.02" y1="37.9" x2="43.27" y2="37.9" fill="none" stroke="#000" stroke-miterlimit="10"/>
      <line x1="38.14" y1="59.45" x2="38.14" y2="46.16" fill="none" stroke="#000" stroke-miterlimit="10"/>
    </g>
  </g>
</svg>
