<svg id="Layer_1" data-name="Layer 1" xmlns="http://www.w3.org/2000/svg" viewBox="0 0 75 75">
  <g id="shapes">
    <path id="square" d="M73.5,70.13a3.16553,3.16553,0,0,1-2.92,3.37H4.42A3.17186,3.17186,0,0,1,1.5,70.13V4.87A3.17186,3.17186,0,0,1,4.42,1.5H70.58A3.17186,3.17186,0,0,1,73.5,4.87Z" fill="#69c" stroke="#000" stroke-miterlimit="10" stroke-width="3" fill-rule="evenodd"/>
  </g>
  <g id="compute">
    <g>
      <path d="M10,31.16V30.09a2.35125,2.35125,0,0,1,2.7-1.75c.46.03.93,0,1.39,0h2.78v-.63c0-1.39-.02-2.79.01-4.18a6.66,6.66,0,0,1,5.22-6.45,10.14673,10.14673,0,0,1,1.91-.2c1.42-.03,2.85-.01,4.33-.01,0-1.43.04-2.8-.01-4.18a2.384,2.384,0,0,1,1.76-2.7h1.07a2.39287,2.39287,0,0,1,1.76,2.7c-.05,1.2-.01,2.39-.01,3.59v.55h9.12a.36246.36246,0,0,0,.05-.13c.01-1.34.01-2.68.01-4.02,0-1.61.31-2.09,1.75-2.7h1.07a2.35125,2.35125,0,0,1,1.75,2.7c-.03.46-.01.93-.01,1.39v2.78h.63c1.4,0,2.79-.02,4.19.01a6.63846,6.63846,0,0,1,6.44,5.22,10.482,10.482,0,0,1,.2,2.02c.03,1.39.01,2.78.01,4.22,1.43,0,2.8.04,4.18-.01A2.39872,2.39872,0,0,1,65,30.07v1.07a2.36536,2.36536,0,0,1-2.7,1.75c-.66-.04-1.32-.01-1.99-.01H58.16v6.87h4.11c1.61,0,2.11.33,2.72,1.8v1.07a2.45019,2.45019,0,0,1-2.78,1.73c-.84-.05-1.68-.01-2.52-.01H58.12v.65c0,2.15.02,4.29-.01,6.44a6.63218,6.63218,0,0,1-5.21,6.45,9.3822,9.3822,0,0,1-1.91.2c-1.43.03-2.85.01-4.31.01-.01.23-.03.4-.03.58,0,1.2-.04,2.4.01,3.6a2.37531,2.37531,0,0,1-1.76,2.7H43.83a2.37828,2.37828,0,0,1-1.76-2.7c.05-1.2.01-2.39.01-3.59v-.56H32.9c0,1.4-.04,2.77.01,4.14a2.39873,2.39873,0,0,1-1.76,2.7H30.08a2.34576,2.34576,0,0,1-1.75-2.7c.03-.53.01-1.07.01-1.61V58.09H23.79a6.74467,6.74467,0,0,1-6.91-6.93c-.01-2.07,0-4.15,0-6.22v-.6c-1.43,0-2.79-.04-4.15.01A2.44111,2.44111,0,0,1,10,42.62V41.44a2.50018,2.50018,0,0,1,2.81-1.7c1.16.05,2.32.01,3.48.01.19,0,.37-.02.55-.02V32.88c-1.4,0-2.78-.04-4.15.01A2.34643,2.34643,0,0,1,10,31.16Zm27.54-9.69c-4.42,0-8.84.04-13.26-.02-1.92-.03-2.89.84-2.83,2.86.08,2.43.02,4.87.02,7.3V51.05c0,1.7.8,2.48,2.51,2.49H50.99c1.77,0,2.54-.78,2.54-2.57V24.02c0-1.77-.78-2.54-2.57-2.54Q44.255,21.465,37.54,21.47Z" fill-rule="evenodd"/>
      <path d="M46.66,37.54V44.2a2.1611,2.1611,0,0,1-2.44,2.45c-4.47.01-8.95,0-13.42,0a2.15715,2.15715,0,0,1-2.45-2.44c0-4.47-.01-8.95,0-13.42a2.15715,2.15715,0,0,1,2.44-2.45q6.735-.015,13.48,0a2.13979,2.13979,0,0,1,2.4,2.38Q46.655,34.14,46.66,37.54Zm-4.6,4.53V32.96H32.95v9.11Z" fill-rule="evenodd"/>
    </g>
  </g>
</svg>
