<svg id="Layer_1" data-name="Layer 1" xmlns="http://www.w3.org/2000/svg" viewBox="0 0 75.01461 75">
  <g id="shapes">
    <path id="square" d="M73.5,70.12506A3.171,3.171,0,0,1,70.5813,73.5H4.41978A3.171,3.171,0,0,1,1.5,70.12506V4.87494A3.17253,3.17253,0,0,1,4.41978,1.5H70.5813A3.17251,3.17251,0,0,1,73.5,4.87494Z" transform="translate(0.0073)" fill="#69c" stroke="#000" stroke-miterlimit="10" stroke-width="3" fill-rule="evenodd"/>
  </g>
  <g id="container">
    <path d="M7.394,35.01291" transform="translate(0.0073)" fill="none" stroke="#000" stroke-miterlimit="10"/>
    <polyline points="61.43 42.909 61.43 63.862 13.584 63.862 13.584 51.957" fill="none" stroke="#000" stroke-miterlimit="10"/>
    <path d="M68.3452,42.909" transform="translate(0.0073)" fill="none" stroke="#000" stroke-miterlimit="10"/>
    <path d="M68.3452,26.06693" transform="translate(0.0073)" fill="none" stroke="#000" stroke-miterlimit="10"/>
    <polyline points="13.584 35.013 13.584 11.138 61.43 11.138 61.43 26.067" fill="none" stroke="#000" stroke-miterlimit="10"/>
    <g>
      <polygon points="33.48 26.668 20.971 28.504 21.038 46.473 33.48 48.332 33.48 26.668" fill="#fff"/>
      <path d="M33.59112,37.50568V27.227c0-.55933.05606-.61068.60309-.50744q8.31762,1.56973,16.6347,3.14227c1.08028.20412,2.15778.42512,3.24229.60342.35776.05881.42831.23036.42776.54489q-.009,5.20679-.00359,10.4136c0,.865-.00842,1.73012.00453,2.59492a.44523.44523,0,0,1-.42773.52117c-3.02169.56363-6.04079,1.14116-9.06132,1.711q-5.44041,1.02643-10.882,2.04689c-.45842.08614-.53566.02211-.53578-.446q-.00124-5.173-.00046-10.34608Zm1.6293-.03471c0,2.584-.00385,5.16811.00221,7.75215.002.84333-.16275.88586.82841.72322.55253-.09067.5548-.08371.55484-.64025q.0005-7.58364.00025-15.16727c0-.99693-.00295-.98016-.98644-1.14722-.34431-.05848-.40414.04947-.40325.35647.00791,2.70761.00456,5.41526.004,8.12293Zm3.05973.00255v7.37814c0,.80619.00016.80619.79568.66253.45946-.083.45962-.083.45963-.563q.00015-7.2939-.002-14.58781c-.00084-.90236.13443-.74509-.75391-.91693-.46948-.09082-.49913-.06742-.49921.41308Q38.27971,33.66653,38.28015,37.47352Zm2.74052.03668v7.03908c0,.64248.00007.64248.65128.57221.49058-.05293.49746-.06091.49741-.54909q-.00064-6.938-.00226-13.87605c-.00048-.79982.122-.73447-.705-.83376-.43137-.05179-.44121-.05524-.44124.37279Q41.0207,33.87279,41.02067,37.5102Zm2.49447-.03041h-.00121v2.189c0,1.57157-.00387,3.14316.00709,4.71466.00091.13135.06972.3426.16168.37917a.61242.61242,0,0,0,.83973-.59528q-.00035-6.61745-.00052-13.23489c.00005-.57814.00238-.57814-.55295-.67878-.43188-.07826-.45359-.06045-.45366.38979Q43.51478,34.06161,43.51514,37.47979Zm2.20617.00865v.60632c-.00026,1.97618-.00336,3.95238.0053,5.92852.00061.13765.0492.34943.143.399a.59762.59762,0,0,0,.80956-.51424q.00036-6.34959.00079-12.69916c0-.51639-.0001-.51639-.511-.61824-.4132-.08237-.44744-.0554-.44751.363Q45.72088,34.221,45.72131,37.48844Zm2.10759-.02212q0,1.6837.00005,3.36743c.00019.999-.00544,1.99809.00992,2.99686.00173.11214.10422.298.19265.32031a.53079.53079,0,0,0,.66253-.54451q.00183-6.14551-.00029-12.291c-.00015-.35373-.09925-.406-.59744-.42581-.35467-.01409-.26419.23376-.26459.41439Q47.825,34.38513,47.8289,37.46632Zm3.588.03751v1.61752c-.00009,1.35916-.00479,2.71838.00721,4.07745.00112.12746.08031.33692.1699.36634a.42963.42963,0,0,0,.59759-.45792q.00306-5.62764.00028-11.25528c-.00014-.34467-.10415-.42127-.48637-.42555-.31678-.00355-.28907.21093-.28907.41613q0,2.83067.00049,5.66131Zm-1.71707-.034h.00167q0,2.96519.00033,5.93037c.00016.43584.05051.45763.47038.40166.3175-.04232.29195-.24327.29188-.46165Q50.46238,37.4941,50.4633,31.648c0-.38994-.07788-.46433-.51108-.47266-.377-.00725-.24578.28808-.24662.46524-.00917,1.94306-.00574,3.88618-.00574,5.82928Zm3.31025.04232q0,2.72969.00032,5.45942c.00015.37847.07171.42218.43884.34058.25381-.05642.23058-.23739.23062-.416q.001-5.392-.00009-10.784c-.0001-.3458-.11563-.46746-.42942-.45166-.29707.015-.23786.24484-.23809.42592q-.00346,2.71289-.00215,5.42575Z" transform="translate(0.0073)"/>
      <path d="M32.62468,37.50754q-.00025,5.122-.00029,10.24407c-.00005.6018-.02693.63208-.6.542-1.55168-.244-3.10161-.49922-4.65377-.74009-.31042-.04817-.36142-.23085-.36119-.49923q.00585-6.70583.00233-13.41166c0-1.89829.00569-3.79662-.0039-5.69487-.00158-.31249.08082-.45334.41932-.50343,1.58707-.23485,3.1696-.50033,4.75359-.75587.37-.05969.444.00038.444.37281Q32.625,32.28439,32.62468,37.50754Zm-4.05256.38457v-.00205c.26917,0,.54.01883.807-.00521a.45344.45344,0,0,0,.45982-.447q.00026-.01779-.00089-.03556a.4252.4252,0,0,0-.46009-.46771c-.51568-.012-1.03194-.00949-1.54776-.0012a.4433.4433,0,0,0-.476.46041.45551.45551,0,0,0,.47772.49525C28.07785,37.90416,28.32536,37.89211,28.57212,37.89211Z" transform="translate(0.0073)"/>
      <path d="M26.15318,37.47087q.00043,4.59957.00027,9.19915c0,.5577-.07092.60668-.63452.51512q-2.24256-.36432-4.48772-.71262c-.51461-.08016-.531-.08741-.531-.61183q-.00054-8.39044.00024-16.78087c0-.46791.02181-.50354.464-.57535q2.39208-.38844,4.78616-.76453c.33478-.05273.40058.02187.40085.43069q.00222,3.28542.00137,6.57082ZM24.19573,36.929v.00281c-.269,0-.53895-.01326-.80693.00371a.42523.42523,0,0,0-.43881.45511.4297.4297,0,0,0,.43651.49291c.526.02056,1.05416.02056,1.58-.00309a.46758.46758,0,0,0,.46872-.511.4561.4561,0,0,0-.47063-.44109l-.02887.00185C24.68917,36.92419,24.44239,36.929,24.19573,36.929Z" transform="translate(0.0073)"/>
      <path d="M35.22072,37.471c.00031-2.70764.00363-5.41529-.00428-8.1229-.0009-.307.05893-.415.40325-.35647.98349.16706.98644.15029.98644,1.14722q0,7.58364-.00025,15.16727c0,.55654-.00231.54958-.55484.64025-.99116.16264-.82644.12011-.82841-.72322C35.21657,42.63908,35.22042,40.055,35.22072,37.471Z" transform="translate(0.0073)" fill="#fff"/>
      <path d="M38.28016,37.47352q0-3.807.00022-7.614c.00008-.4805.02973-.5039.49921-.41308.88834.17184.75307.01457.75391.91693q.00681,7.2939.002,14.58781c0,.48-.00017.48-.45963.563-.79552.14366-.79566.14366-.79568-.66253Q38.28005,41.16259,38.28016,37.47352Z" transform="translate(0.0073)" fill="#fff"/>
      <path d="M41.02076,37.5102q.00014-3.63741.00016-7.27482c0-.428.00987-.42458.44124-.37279.827.09929.70447.03394.705.83376q.00412,6.938.00226,13.87605c0,.48818-.00683.49616-.49741.54909-.65121.07027-.65127.07027-.65128-.57221Q41.02064,41.02974,41.02076,37.5102Z" transform="translate(0.0073)" fill="#fff"/>
      <path d="M43.51514,37.47979q0-3.41817.00016-6.83635c.00007-.45024.02178-.468.45366-.38979.55533.10065.553.10065.55295.67878q-.00054,6.61746.00052,13.23489a.61241.61241,0,0,1-.83973.59528c-.092-.03657-.16077-.24782-.16168-.37917-.011-1.57149-.00708-3.14309-.00709-4.71466v-2.189Z" transform="translate(0.0073)" fill="#fff"/>
      <path d="M45.72127,37.48844q-.00006-3.26743.00012-6.53487c.00007-.41836.03431-.44533.44751-.363.51093.10184.51106.10184.511.61823q-.00036,6.34959-.00079,12.69916a.59763.59763,0,0,1-.80956.51424c-.09377-.04953-.14236-.26131-.143-.399-.00866-1.97614-.00556-3.95234-.0053-5.92852Q45.72134,37.7916,45.72127,37.48844Z" transform="translate(0.0073)" fill="#fff"/>
      <path d="M47.8289,37.46632q0-3.08118.00284-6.16237c.00039-.18063-.09009-.42848.26459-.41439.49818.01979.59729.07208.59743.42581q.00243,6.14551.00029,12.291a.53077.53077,0,0,1-.66253.54451c-.08843-.02234-.19092-.20817-.19265-.32031-.01536-.99877-.00973-1.99786-.00992-2.99686Q47.82862,39.15,47.8289,37.46632Z" transform="translate(0.0073)" fill="#fff"/>
      <path d="M51.4167,37.50383q-.00036-2.83065-.00024-5.6613c0-.2052-.02771-.41968.28907-.41613.38222.00428.48623.08088.48637.42555q.00228,5.62764-.00028,11.25528a.42963.42963,0,0,1-.59759.45792c-.08959-.02943-.16878-.23888-.1699-.36635-.012-1.35907-.0073-2.71828-.00721-4.07745Q51.417,38.3126,51.4167,37.50383Z" transform="translate(0.0073)" fill="#fff"/>
      <path d="M49.69986,37.46983c0-1.9431-.00343-3.88622.00577-5.82928.00084-.17716-.13042-.47249.24662-.46524.4332.00833.51107.08272.51108.47266q.00012,5.84611.00079,11.69224c.00007.21838.02562.41933-.29188.46165-.41987.056-.47022.03419-.47038-.40166q-.00113-2.9652-.00033-5.93037Z" transform="translate(0.0073)" fill="#fff"/>
      <path d="M53.01049,37.51215q.00057-2.71287.0018-5.42572c.00023-.18108-.059-.411.23809-.42592.31379-.0158.42932.10586.42942.45166q.00146,5.392.00009,10.784c0,.17862.02319.35958-.23062.416-.36713.0816-.43869.03789-.43884-.34058Q53.00937,40.24186,53.01049,37.51215Z" transform="translate(0.0073)" fill="#fff"/>
      <path d="M28.57212,37.89211c-.24676,0-.49427.012-.74011-.003a.45551.45551,0,0,1-.47772-.49525.4433.4433,0,0,1,.476-.46041c.51582-.0083,1.03208-.0108,1.54776.0012a.42518.42518,0,0,1,.46009.46771.45344.45344,0,0,1-.42338.48163q-.01774.00114-.03555.00089c-.267.024-.53787.00521-.807.00521Z" transform="translate(0.0073)" fill="#fff"/>
      <path d="M24.19573,36.929c.24666,0,.49344-.00476.74.00125a.45611.45611,0,0,1,.49765.41037l.00185.02887a.46751.46751,0,0,1-.46872.511c-.52582.02365-1.054.02365-1.58.00309a.42972.42972,0,0,1-.43651-.49291.42524.42524,0,0,1,.43881-.4551c.268-.017.53788-.00372.80693-.00372Z" transform="translate(0.0073)" fill="#fff"/>
    </g>
    <rect x="33.563" y="59.99823" width="7.25499" height="7.25499" stroke="#000" stroke-miterlimit="10"/>
    <rect x="33.28089" y="8.01554" width="6.53745" height="6.53745" stroke="#000" stroke-miterlimit="10"/>
  </g>
</svg>
