<svg id="Layer_1" data-name="Layer 1" xmlns="http://www.w3.org/2000/svg" viewBox="0 0 75 75">
  <g id="shapes">
    <path id="square" d="M73.5,70.13a3.16553,3.16553,0,0,1-2.92,3.37H4.42A3.17186,3.17186,0,0,1,1.5,70.13V4.87A3.17186,3.17186,0,0,1,4.42,1.5H70.58A3.17186,3.17186,0,0,1,73.5,4.87Z" fill="#69c" stroke="#000" stroke-miterlimit="10" stroke-width="3" fill-rule="evenodd"/>
  </g>
  <g id="container">
    <g>
      <polygon points="30.06 17.5 6.97 20.89 7.09 54.07 30.06 57.5 30.06 17.5" fill="#fff"/>
      <g>
        <path d="M30.28,37.51V18.53c0-1.03.1-1.13,1.11-.94q15.36,2.895,30.72,5.8c1.99.38,3.98.78,5.99,1.11.66.11.79.43.79,1.01q-.015,9.615-.01,19.23c0,1.6-.02,3.19.01,4.79a.819.819,0,0,1-.79.96c-5.58,1.04-11.15,2.11-16.73,3.16q-10.05,1.89-20.09,3.78c-.85.16-.99.04-.99-.82-.01-6.36,0-12.73-.01-19.1Zm3.01-.06c0,4.77-.01,9.54,0,14.31,0,1.56-.3,1.64,1.53,1.34,1.02-.17,1.02-.15,1.02-1.18V23.91c0-1.84-.01-1.81-1.82-2.12-.64-.11-.75.09-.74.66C33.3,27.45,33.29,32.45,33.29,37.45Zm5.65,0V51.07c0,1.49,0,1.49,1.47,1.22.85-.15.85-.15.85-1.04V24.31c0-1.67.25-1.38-1.39-1.69-.87-.17-.92-.12-.92.76C38.94,28.08,38.94,32.76,38.94,37.45Zm5.06.07v13c0,1.19,0,1.19,1.2,1.06.91-.1.92-.11.92-1.01V24.95c0-1.48.23-1.36-1.3-1.54-.8-.1-.81-.1-.81.69Q43.995,30.79,44,37.52Zm4.61-.06h0V41.5c0,2.9-.01,5.8.01,8.71,0,.24.13.63.3.7a1.1308,1.1308,0,0,0,1.55-1.1V25.37c0-1.07,0-1.07-1.02-1.25-.8-.14-.84-.11-.84.72Zm4.07.02V38.6c0,3.65-.01,7.3.01,10.95,0,.25.09.65.26.74a1.0959,1.0959,0,0,0,1.49-.95V25.89c0-.95,0-.95-.94-1.14-.76-.15-.83-.1-.83.67C52.68,29.43,52.68,33.46,52.68,37.48Zm3.89-.04v6.22c0,1.84-.01,3.69.02,5.53,0,.21.19.55.36.59a.97481.97481,0,0,0,1.22-1.01V26.08c0-.65-.18-.75-1.1-.79-.65-.03-.49.43-.49.77Q56.565,31.745,56.57,37.44Zm6.63.07V40.5c0,2.51-.01,5.02.01,7.53,0,.24.15.62.31.68a.79328.79328,0,0,0,1.1-.85V27.08c0-.64-.19-.78-.9-.79-.58-.01-.53.39-.53.77Q63.205,32.28,63.2,37.51Zm-3.17-.07h0V48.39c0,.8.09.85.87.74.59-.08.54-.45.54-.85V26.69c0-.72-.14-.86-.94-.87-.7-.01-.45.53-.46.86C60.02,30.27,60.03,33.86,60.03,37.44Zm6.11.08V47.6c0,.7.13.78.81.63.47-.1.43-.44.43-.77V27.55c0-.64-.21-.86-.79-.83-.55.03-.44.45-.44.79Q66.135,32.505,66.14,37.52Z"/>
        <path d="M28.5,37.51V56.43c0,1.11-.05,1.17-1.11,1-2.87-.45-5.73-.92-8.59-1.37-.57-.09-.67-.43-.67-.92q.015-12.375,0-24.76c0-3.51.01-7.01-.01-10.52,0-.58.15-.84.77-.93,2.93-.43,5.85-.92,8.78-1.4.68-.11.82,0,.82.69Q28.505,27.865,28.5,37.51Zm-7.48.71h0c.5,0,1,.03,1.49-.01a.84083.84083,0,0,0,.85-.89.786.786,0,0,0-.85-.86c-.95-.02-1.91-.02-2.86,0a.82145.82145,0,0,0-.88.85.836.836,0,0,0,.88.91C20.1,38.25,20.56,38.22,21.02,38.22Z"/>
        <path d="M16.55,37.45V54.44c0,1.03-.13,1.12-1.17.95q-4.14-.675-8.29-1.32c-.95-.15-.98-.16-.98-1.13V21.95c0-.86.04-.93.86-1.06q4.41-.72,8.84-1.41c.62-.1.74.04.74.8V37.45Zm-3.62-1h0c-.5.01-1-.02-1.49.01a.785.785,0,0,0-.81.84.79612.79612,0,0,0,.81.91c.97.04,1.95.04,2.92-.01a.86594.86594,0,0,0,.87-.94.84525.84525,0,0,0-.92-.81C13.85,36.44,13.39,36.45,12.93,36.45Z"/>
        <path d="M33.29,37.45c0-5,.01-10-.01-15,0-.57.11-.77.74-.66,1.82.31,1.82.28,1.82,2.12V51.92c0,1.03,0,1.01-1.02,1.18-1.83.3-1.53.22-1.53-1.34C33.28,46.99,33.29,42.22,33.29,37.45Z" fill="#fff"/>
        <path d="M38.94,37.45V23.39c0-.89.05-.93.92-.76,1.64.32,1.39.03,1.39,1.69q.015,13.47,0,26.94c0,.89,0,.89-.85,1.04-1.47.27-1.47.27-1.47-1.22Q38.945,44.255,38.94,37.45Z" fill="#fff"/>
        <path d="M44,37.52V24.09c0-.79.02-.78.81-.69,1.53.18,1.3.06,1.3,1.54q.015,12.81,0,25.62c0,.9-.01.92-.92,1.01C44,51.7,44,51.7,44,50.52Z" fill="#fff"/>
        <path d="M48.61,37.46V24.84c0-.83.04-.86.84-.72,1.03.19,1.02.19,1.02,1.25V49.81a1.1308,1.1308,0,0,1-1.55,1.1c-.17-.07-.3-.46-.3-.7-.02-2.9-.01-5.8-.01-8.71-.01-1.34-.01-2.69,0-4.04Z" fill="#fff"/>
        <path d="M52.68,37.48V25.41c0-.77.06-.82.83-.67.94.19.94.19.94,1.14V49.33a1.09879,1.09879,0,0,1-1.49.95c-.17-.09-.26-.48-.26-.74-.02-3.65-.01-7.3-.01-10.95C52.68,38.23,52.68,37.85,52.68,37.48Z" fill="#fff"/>
        <path d="M56.57,37.44c0-3.79,0-7.59.01-11.38,0-.33-.17-.79.49-.77.92.04,1.1.13,1.1.79V48.77a.98314.98314,0,0,1-1.22,1.01c-.16-.04-.35-.38-.36-.59-.03-1.84-.02-3.69-.02-5.53Z" fill="#fff"/>
        <path d="M63.2,37.51V27.06c0-.38-.05-.77.53-.77.71.01.9.15.9.79V47.86a.79328.79328,0,0,1-1.1.85c-.17-.05-.31-.44-.31-.68-.02-2.51-.01-5.02-.01-7.53C63.2,39.5,63.2,38.5,63.2,37.51Z" fill="#fff"/>
        <path d="M60.03,37.44c0-3.59-.01-7.18.01-10.76,0-.33-.24-.87.46-.86.8.02.94.15.94.87V48.28c0,.4.05.77-.54.85-.78.1-.87.06-.87-.74q0-5.475,0-10.95Z" fill="#fff"/>
        <path d="M66.14,37.52V27.5c0-.33-.11-.76.44-.79.58-.03.79.2.79.83V47.45c0,.33.04.66-.43.77-.68.15-.81.07-.81-.63Q66.145,42.565,66.14,37.52Z" fill="#fff"/>
        <path d="M21.02,38.22c-.46,0-.91.02-1.37-.01a.84033.84033,0,0,1-.88-.91.81629.81629,0,0,1,.88-.85c.95-.02,1.91-.02,2.86,0a.786.786,0,0,1,.85.86.84083.84083,0,0,1-.85.89,14.85344,14.85344,0,0,1-1.49.02Z" fill="#fff"/>
        <path d="M12.93,36.45c.46,0,.91-.01,1.37,0a.83453.83453,0,0,1,.92.81.86094.86094,0,0,1-.87.94c-.97.04-1.95.04-2.92.01a.79612.79612,0,0,1-.81-.91.785.785,0,0,1,.81-.84c.51-.03,1.01-.01,1.5-.01Z" fill="#fff"/>
      </g>
    </g>
  </g>
</svg>
