<svg id="Layer_1" data-name="Layer 1" xmlns="http://www.w3.org/2000/svg" viewBox="0 0 75.01461 75">
  <g id="shapes">
    <path id="square" d="M73.5,70.12506A3.171,3.171,0,0,1,70.5813,73.5H4.41978A3.171,3.171,0,0,1,1.5,70.12506V4.87494A3.17253,3.17253,0,0,1,4.41978,1.5H70.5813A3.17251,3.17251,0,0,1,73.5,4.87494Z" transform="translate(0.0073)" fill="#69c" stroke="#000" stroke-miterlimit="10" stroke-width="3" fill-rule="evenodd"/>
  </g>
  <g id="wharehouse">
    <g>
      <path d="M20.45174,48.86157a11.84418,11.84418,0,0,1-3.84655-.60962,3.376,3.376,0,0,1-1.05811-.5795A.84479.84479,0,0,1,15.5519,46.234a4.508,4.508,0,0,1,2.0199-.86379,13.00644,13.00644,0,0,1,6.71738.23862,3.249,3.249,0,0,1,1.21287.64975.82484.82484,0,0,1-.0049,1.39021,4.90618,4.90618,0,0,1-2.24576.937A13.9101,13.9101,0,0,1,20.45174,48.86157Z" transform="translate(0.0073)"/>
      <path d="M25.889,53.6868c0,.59822.00189,1.10635-.0006,1.61447a1.08708,1.08708,0,0,1-.571.89872,5.13031,5.13031,0,0,1-1.95851.76,12.98834,12.98834,0,0,1-6.71912-.30177,4.54823,4.54823,0,0,1-.63215-.281,1.34534,1.34534,0,0,1-.8583-1.43777,11.27555,11.27555,0,0,0,.00761-1.20406,6.63209,6.63209,0,0,0,3.9807,1.3411,13.26757,13.26757,0,0,0,4.89059-.37065A3.68914,3.68914,0,0,0,25.889,53.6868Z" transform="translate(0.0073)"/>
      <path d="M25.88636,50.88533c0,.61914.01429,1.16036-.005,1.70039a1.04515,1.04515,0,0,1-.54689.80227,5.23,5.23,0,0,1-2.05562.7892,13.03281,13.03281,0,0,1-6.5826-.29876,5.18569,5.18569,0,0,1-.60369-.25861,1.39215,1.39215,0,0,1-.94275-1.52266,10.43239,10.43239,0,0,0,.00757-1.1774,5.37369,5.37369,0,0,0,3.0447,1.24266,13.64009,13.64009,0,0,0,5.98317-.30358A3.422,3.422,0,0,0,25.88636,50.88533Z" transform="translate(0.0073)"/>
      <path d="M15.15231,48.10622a4.39731,4.39731,0,0,0,2.40148,1.135,13.59373,13.59373,0,0,0,6.76512-.22907,3.22431,3.22431,0,0,0,1.55174-.91586c0,.63291.02936,1.20591-.01071,1.774a1.07194,1.07194,0,0,1-.60242.76645,6.19944,6.19944,0,0,1-2.44534.82869,13.20108,13.20108,0,0,1-5.88141-.30234,3.81185,3.81185,0,0,1-1.35818-.67349,1.05133,1.05133,0,0,1-.42449-.90288C15.16569,49.11368,15.15231,48.63951,15.15231,48.10622Z" transform="translate(0.0073)"/>
    </g>
    <g>
      <path d="M20.45174,35.21048a11.84418,11.84418,0,0,1-3.84655-.60962,3.376,3.376,0,0,1-1.05811-.5795.84479.84479,0,0,1,.00482-1.43848,4.50806,4.50806,0,0,1,2.0199-.8638,13.00633,13.00633,0,0,1,6.71738.23863,3.24879,3.24879,0,0,1,1.21287.64974.82485.82485,0,0,1-.0049,1.39022,4.90618,4.90618,0,0,1-2.24576.937A13.91158,13.91158,0,0,1,20.45174,35.21048Z" transform="translate(0.0073)"/>
      <path d="M25.889,40.0357c0,.59823.00189,1.10636-.0006,1.61447a1.087,1.087,0,0,1-.571.89872,5.13014,5.13014,0,0,1-1.95851.76,12.98856,12.98856,0,0,1-6.71912-.30177,4.54823,4.54823,0,0,1-.63215-.281,1.34534,1.34534,0,0,1-.8583-1.43777,11.27553,11.27553,0,0,0,.00761-1.20406,6.63211,6.63211,0,0,0,3.9807,1.3411,13.26736,13.26736,0,0,0,4.89059-.37066A3.689,3.689,0,0,0,25.889,40.0357Z" transform="translate(0.0073)"/>
      <path d="M25.88636,37.23424c0,.61913.01429,1.16036-.005,1.70038a1.04513,1.04513,0,0,1-.54689.80227,5.23,5.23,0,0,1-2.05562.78921,13.0327,13.0327,0,0,1-6.5826-.29877,5.184,5.184,0,0,1-.60369-.25861,1.39213,1.39213,0,0,1-.94275-1.52265,10.43258,10.43258,0,0,0,.00757-1.17741,5.37367,5.37367,0,0,0,3.0447,1.24267,13.64024,13.64024,0,0,0,5.98317-.30359A3.4219,3.4219,0,0,0,25.88636,37.23424Z" transform="translate(0.0073)"/>
      <path d="M15.15231,34.45513a4.39738,4.39738,0,0,0,2.40148,1.135,13.59361,13.59361,0,0,0,6.76512-.22907,3.22441,3.22441,0,0,0,1.55174-.91587c0,.63291.02936,1.20592-.01071,1.774a1.0719,1.0719,0,0,1-.60242.76645,6.19907,6.19907,0,0,1-2.44534.82869,13.20122,13.20122,0,0,1-5.88141-.30233,3.812,3.812,0,0,1-1.35818-.67348,1.05136,1.05136,0,0,1-.42449-.90289C15.16569,35.46259,15.15231,34.98842,15.15231,34.45513Z" transform="translate(0.0073)"/>
    </g>
    <g>
      <path d="M34.32205,35.21048a11.84418,11.84418,0,0,1-3.84655-.60962,3.376,3.376,0,0,1-1.05811-.5795.84479.84479,0,0,1,.00482-1.43848,4.50806,4.50806,0,0,1,2.0199-.8638,13.00634,13.00634,0,0,1,6.71738.23863,3.24879,3.24879,0,0,1,1.21287.64974.82484.82484,0,0,1-.0049,1.39022,4.90611,4.90611,0,0,1-2.24576.937A13.91158,13.91158,0,0,1,34.32205,35.21048Z" transform="translate(0.0073)"/>
      <path d="M39.75935,40.0357c0,.59823.00189,1.10636-.0006,1.61447a1.087,1.087,0,0,1-.571.89872,5.13014,5.13014,0,0,1-1.95851.76,12.98856,12.98856,0,0,1-6.71912-.30177,4.54759,4.54759,0,0,1-.63214-.281,1.34533,1.34533,0,0,1-.85831-1.43777,11.27553,11.27553,0,0,0,.00761-1.20406,6.63211,6.63211,0,0,0,3.9807,1.3411,13.26736,13.26736,0,0,0,4.89059-.37066A3.689,3.689,0,0,0,39.75935,40.0357Z" transform="translate(0.0073)"/>
      <path d="M39.75668,37.23424c0,.61913.01428,1.16036-.005,1.70038a1.04515,1.04515,0,0,1-.54689.80227,5.23,5.23,0,0,1-2.05562.78921,13.0327,13.0327,0,0,1-6.5826-.29877,5.184,5.184,0,0,1-.60369-.25861,1.39213,1.39213,0,0,1-.94275-1.52265,10.43258,10.43258,0,0,0,.00757-1.17741,5.37373,5.37373,0,0,0,3.04471,1.24267,13.64024,13.64024,0,0,0,5.98317-.30359A3.422,3.422,0,0,0,39.75668,37.23424Z" transform="translate(0.0073)"/>
      <path d="M29.02262,34.45513a4.39738,4.39738,0,0,0,2.40148,1.135,13.59361,13.59361,0,0,0,6.76512-.22907,3.22441,3.22441,0,0,0,1.55174-.91587c0,.63291.02936,1.20592-.01071,1.774a1.07194,1.07194,0,0,1-.60242.76645,6.199,6.199,0,0,1-2.44534.82869,13.20121,13.20121,0,0,1-5.88141-.30233,3.812,3.812,0,0,1-1.35818-.67348,1.05136,1.05136,0,0,1-.42449-.90289C29.036,35.46259,29.02262,34.98842,29.02262,34.45513Z" transform="translate(0.0073)"/>
    </g>
    <g>
      <path d="M48.19236,35.21048a11.84416,11.84416,0,0,1-3.84654-.60962,3.376,3.376,0,0,1-1.05812-.5795.8448.8448,0,0,1,.00482-1.43848,4.5081,4.5081,0,0,1,2.01991-.8638,13.0063,13.0063,0,0,1,6.71737.23863,3.24871,3.24871,0,0,1,1.21287.64974.82484.82484,0,0,1-.0049,1.39022,4.90613,4.90613,0,0,1-2.24576.937A13.91158,13.91158,0,0,1,48.19236,35.21048Z" transform="translate(0.0073)"/>
      <path d="M53.62966,40.0357c0,.59823.00189,1.10636-.0006,1.61447a1.087,1.087,0,0,1-.571.89872,5.13014,5.13014,0,0,1-1.95851.76,12.98856,12.98856,0,0,1-6.71912-.30177,4.54759,4.54759,0,0,1-.63214-.281A1.34531,1.34531,0,0,1,42.89,41.28841a11.27555,11.27555,0,0,0,.00761-1.20406,6.63224,6.63224,0,0,0,3.9807,1.3411,13.26758,13.26758,0,0,0,4.89059-.37066A3.689,3.689,0,0,0,53.62966,40.0357Z" transform="translate(0.0073)"/>
      <path d="M53.627,37.23424c0,.61913.01429,1.16036-.005,1.70038a1.04512,1.04512,0,0,1-.54688.80227,5.23019,5.23019,0,0,1-2.05562.78921,13.03274,13.03274,0,0,1-6.58261-.29877,5.184,5.184,0,0,1-.60369-.25861,1.39214,1.39214,0,0,1-.94275-1.52265,10.43493,10.43493,0,0,0,.00757-1.17741,5.3737,5.3737,0,0,0,3.04471,1.24267,13.64025,13.64025,0,0,0,5.98317-.30359A3.422,3.422,0,0,0,53.627,37.23424Z" transform="translate(0.0073)"/>
      <path d="M42.89293,34.45513a4.39745,4.39745,0,0,0,2.40148,1.135,13.59376,13.59376,0,0,0,6.76513-.22907,3.22438,3.22438,0,0,0,1.55173-.91587c0,.63291.02937,1.20592-.01071,1.774a1.07192,1.07192,0,0,1-.60242.76645,6.19891,6.19891,0,0,1-2.44534.82869,13.20121,13.20121,0,0,1-5.88141-.30233,3.812,3.812,0,0,1-1.35818-.67348,1.05136,1.05136,0,0,1-.42449-.90289C42.90631,35.46259,42.89293,34.98842,42.89293,34.45513Z" transform="translate(0.0073)"/>
    </g>
    <g>
      <path d="M57.64394,24.4383v.54617c-.00019,3.191.00393,11.85924-.0037,15.05023a1.49114,1.49114,0,0,1-1.0476,1.5142,1.43938,1.43938,0,0,1-1.68543-.53012,2.1235,2.1235,0,0,1-.32166-1.03433c-.03584-1.51219-.018-8.50287-.01966-10.01586-.00018-.1638,0-.32761,0-.53489h-42.518V29.948q-.00221,12.81246-.005,25.62492a1.55651,1.55651,0,0,1-1.3675,1.67855,1.53073,1.53073,0,0,1-1.707-1.57845c-.00947-2.15942-.00609-4.3189-.00616-6.47836q-.00023-7.42739.00133-14.85477.00066-4.66275.00221-9.3255V24.4529c-.17381.07625-.29431.11959-.40581.17962-.55683.29982-1.10837.60954-1.66727.90538a1.54515,1.54515,0,1,1-1.45521-2.71707Q14.49194,17.93,23.546,13.03847c2.93908-1.588,5.88194-3.16905,8.81266-4.77233a1.82422,1.82422,0,0,1,1.90578.00508Q44.68907,13.92289,55.127,19.55q3.04812,1.64676,6.09489,3.296a1.527,1.527,0,0,1,.72566,2.03393q-.01731.03651-.03653.07207a1.54252,1.54252,0,0,1-2.08511.64109l-.04471-.02464c-.57381-.29671-1.13644-.615-1.70525-.92142C57.96014,24.58464,57.839,24.5321,57.64394,24.4383Zm-3.10161-.26178h-42.46V26.289h42.46Z" transform="translate(0.0073)"/>
      <path d="M41.132,39.2545c3.31419,0,6.62847-.01384,9.94253.00648a3.07446,3.07446,0,0,1,3.10168,1.96629,5.06814,5.06814,0,0,1,.38139,1.79721c.02968,4.79923.0155,9.59874.01518,14.39817-.00006.97639.00506,1.9528.00112,2.92916-.00231.57184-.229.80832-.79775.809-3.63049.00406-7.261-.00135-10.89147.007a.88176.88176,0,0,1-.81381-.57605,4.96647,4.96647,0,0,0-8.79026-.01035.934.934,0,0,1-.97269.58339c-.438-.03019-.87972-.00459-1.31978-.00676-.60242-.003-.81459-.21-.81655-.82325q-.00909-2.84661-.00729-5.69328.00117-7.15779.00548-14.31563c0-.09626-.00155-.19258.00083-.28879.01416-.57288.23293-.78822.81245-.78841q5.07447-.00165,10.14894-.00054Z" transform="translate(0.0073)" stroke="#69c" stroke-miterlimit="10"/>
      <path d="M56.53178,53.21005q0-3.54735.00039-7.09469c.00027-.638.20257-.8396.83372-.84,2.08989-.00142,4.17986.00576,6.26964-.01092a1.08287,1.08287,0,0,1,1.0006.50111c1.85788,2.64245,3.73931,5.26833,5.59691,7.911a1.41937,1.41937,0,0,1,.23819.75781c.02025,1.95224.01373,3.90476.01258,5.85719-.00039.65348-.213.86742-.86169.86946-.70118.00221-1.40252-.011-2.10357-.00088a.79167.79167,0,0,1-.78768-.47113,4.978,4.978,0,0,0-8.87328-.06722c-.25818.45794-.51963.6219-.87016.50745-.37742-.12322-.45966-.42-.45874-.7832C56.53474,57.96735,56.5318,55.5887,56.53178,53.21005Z" transform="translate(0.0073)" stroke="#69c" stroke-miterlimit="10"/>
      <path d="M41.37711,63.3a3.70694,3.70694,0,1,1-3.68789-3.72589l.004,0A3.712,3.712,0,0,1,41.37711,63.3Z" transform="translate(0.0073)"/>
      <path d="M65.98138,63.279a3.69606,3.69606,0,1,1-.00032-.05594Q65.98142,63.251,65.98138,63.279Z" transform="translate(0.0073)"/>
    </g>
  </g>
</svg>
