<svg id="Layer_1" data-name="Layer 1" xmlns="http://www.w3.org/2000/svg" viewBox="0 0 75.01461 75">
  <g id="shapes">
    <path id="square" d="M73.5,70.12506A3.171,3.171,0,0,1,70.5813,73.5H4.41978A3.171,3.171,0,0,1,1.5,70.12506V4.87494A3.17253,3.17253,0,0,1,4.41978,1.5H70.5813A3.17251,3.17251,0,0,1,73.5,4.87494Z" transform="translate(0.0073)" fill="#69c" stroke="#000" stroke-miterlimit="10" stroke-width="3" fill-rule="evenodd"/>
  </g>
  <g id="lake">
    <g>
      <path d="M37.31754,16.1131A34.65122,34.65122,0,0,1,26.064,14.32958a9.877,9.877,0,0,1-3.09564-1.69539c-1.554-1.33862-1.56547-2.892.0141-4.20846a13.18868,13.18868,0,0,1,5.90948-2.52715,38.05159,38.05159,0,0,1,19.65252.69814,9.50468,9.50468,0,0,1,3.54842,1.90091c1.47011,1.31354,1.48623,2.78033-.01435,4.06725a14.35372,14.35372,0,0,1-6.57026,2.74128A40.7,40.7,0,0,1,37.31754,16.1131Z" transform="translate(0.0073)"/>
      <path d="M53.225,30.22991c0,1.75018.00554,3.23678-.00175,4.72333a3.18027,3.18027,0,0,1-1.67061,2.62933,15.0093,15.0093,0,0,1-5.72988,2.22358,37.99945,37.99945,0,0,1-19.65762-.88287,13.30731,13.30731,0,0,1-1.84942-.822c-1.70476-.8752-2.74081-2.12349-2.51109-4.20638a32.98563,32.98563,0,0,0,.02226-3.52264c3.39492,2.9595,7.50927,3.52411,11.646,3.92357A38.816,38.816,0,0,0,47.781,33.21139,10.79267,10.79267,0,0,0,53.225,30.22991Z" transform="translate(0.0073)"/>
      <path d="M53.21723,22.03386c0,1.81137.0418,3.39478-.0145,4.9747a3.05767,3.05767,0,0,1-1.6,2.34714,15.301,15.301,0,0,1-6.014,2.30891,38.129,38.129,0,0,1-19.25824-.87406,15.169,15.169,0,0,1-1.76617-.7566c-1.87484-.88777-3.02535-2.19246-2.75814-4.45472a30.52449,30.52449,0,0,0,.02216-3.44464C24.424,24.56784,27.556,25.26975,30.736,25.77015A39.90625,39.90625,0,0,0,48.24056,24.882,10.01145,10.01145,0,0,0,53.21723,22.03386Z" transform="translate(0.0073)"/>
      <path d="M21.8134,13.90324a12.86494,12.86494,0,0,0,7.02582,3.32046,39.77035,39.77035,0,0,0,19.79223-.67016,9.43349,9.43349,0,0,0,4.53979-2.67949c0,1.85166.08592,3.52805-.03132,5.19012a3.136,3.136,0,0,1-1.76246,2.24234A18.136,18.136,0,0,1,44.22332,23.731a38.62137,38.62137,0,0,1-17.20682-.88452,11.15188,11.15188,0,0,1-3.9735-1.97039,3.07594,3.07594,0,0,1-1.24188-2.64153C21.85253,16.85068,21.8134,15.46345,21.8134,13.90324Z" transform="translate(0.0073)"/>
    </g>
    <path id="waves" d="M65.52768,42.32565s-8.47891,9.76049-16.74341-.06822c0,0-7.13886,9.82871-15.40336,0-8.26694,9.82871-16.45835.36547-16.45835.36547" transform="translate(0.0073)" fill="none" stroke="#000" stroke-linecap="round" stroke-miterlimit="10"/>
    <path id="waves-2" d="M54.61505,50.04638s-8.47891,9.7605-16.74341-.06822c0,0-7.13885,9.82872-15.40336,0-8.26693,9.82872-16.45834.36547-16.45834.36547" transform="translate(0.0073)" fill="none" stroke="#000" stroke-linecap="round" stroke-miterlimit="10"/>
    <path id="waves-3" d="M68.19538,58.27162S59.71647,68.03211,51.452,58.2034c0,0-7.13885,9.82871-15.40335,0-8.26694,9.82871-16.45835.36547-16.45835.36547" transform="translate(0.0073)" fill="none" stroke="#000" stroke-linecap="round" stroke-miterlimit="10"/>
  </g>
</svg>
