<svg id="Layer_1" data-name="Layer 1" xmlns="http://www.w3.org/2000/svg" viewBox="0 0 75.01461 75">
  <g id="shapes">
    <path id="square" d="M73.5,70.12506A3.171,3.171,0,0,1,70.5813,73.5H4.41978A3.171,3.171,0,0,1,1.5,70.12506V4.87494A3.17253,3.17253,0,0,1,4.41978,1.5H70.5813A3.17251,3.17251,0,0,1,73.5,4.87494Z" transform="translate(0.0073)" fill="#69c" stroke="#000" stroke-miterlimit="10" stroke-width="3" fill-rule="evenodd"/>
  </g>
  <g id="event">
    <g>
      <path d="M36.22415,33.11744a18.131,18.131,0,0,1-1.40526-3.30114.301.301,0,0,0-.236-.131c-.68835-.01047-1.377-.00142-2.06541-.00733a1.50732,1.50732,0,0,1-1.55991-1.16542,2.2472,2.2472,0,0,1-.04378-.51236q-.00393-2.93846.00011-5.87693a1.49777,1.49777,0,0,1,1.47145-1.52361q.02928-.00051.05855.00013c.78581-.004,1.57166-.00084,2.32483-.00084.26762-.69989.51212-1.37739.78654-2.04255A12.634,12.634,0,0,1,36.119,17.411a.26243.26243,0,0,0-.04435-.36847l-.01055-.00787c-.49152-.47-.97144-.95228-1.45334-1.43231a1.54276,1.54276,0,0,1,.01172-2.32535q2.03694-2.03112,4.06863-4.06745a1.54246,1.54246,0,0,1,2.37631.00112c.4758.47458.954.94685,1.4233,1.42777a.21823.21823,0,0,0,.30425.05173l.00884-.00662a14.97041,14.97041,0,0,1,3.00873-1.25675.2621.2621,0,0,0,.22464-.29482l-.002-.01236c-.01061-.68836-.00662-1.377-.00372-2.0655A1.49625,1.49625,0,0,1,47.4493,5.48332q.06879-.00352.13767-.0007,2.97531-.00867,5.95069-.00042A1.49511,1.49511,0,0,1,55.11,6.89585q.00375.07068.00082.14147c.01029.69655.00606,1.39341-.00054,2.09005a.23815.23815,0,0,0,.19195.27675l.00612.001A15.02155,15.02155,0,0,1,58.36,10.68593a.20371.20371,0,0,0,.28631-.032l.00741-.00988c.481-.49234.97-.97695,1.45756-1.46283a1.523,1.523,0,0,1,2.32056.007q2.06842,2.0695,4.134,4.14186a1.52,1.52,0,0,1,.07839,2.14826q-.02544.02736-.05219.05345c-.49.50658-.991,1.00276-1.4959,1.4946a.24969.24969,0,0,0-.06463.34717l.00635.00883a15.00549,15.00549,0,0,1,1.22987,3.01948.23274.23274,0,0,0,.25946.20253l.01262-.00191q1.0941-.01281,2.18846-.0025a1.49983,1.49983,0,0,1,1.50165,1.47876q.01065,3.04911-.00139,6.09829a1.46943,1.46943,0,0,1-1.12184,1.43956,2.34216,2.34216,0,0,1-.55938.0599c-.66384.0069-1.32781.00366-1.99171.00194-.11966-.0003-.21588.00039-.26165.152a16.86285,16.86285,0,0,1-1.39,3.2716c.34185.33037.68966.66461,1.03521,1.00116.19371.18866.38468.38018.57519.5721a1.5191,1.5191,0,0,1,.00106,2.32128c-.901.90677-1.80928,1.80626-2.71346,2.70984-.45791.45759-.9123.9187-1.3708,1.37571a1.5268,1.5268,0,0,1-2.306.01842c-.48731-.47449-.97317-.9508-1.4475-1.43814a.25808.25808,0,0,0-.36008-.05964l-.01476.01138A15.49228,15.49228,0,0,1,55.3135,40.855a.23778.23778,0,0,0-.2076.26453l.00093.00684c.00729.672.00472,1.34419.00258,2.01629a1.53347,1.53347,0,0,1-1.65631,1.65481q-2.88934.00068-5.77866-.00007a1.52139,1.52139,0,0,1-1.64156-1.639c-.00085-.68033-.0047-1.3607.0032-2.04094a.23293.23293,0,0,0-.18881-.26993l-.01167-.00176a15.50055,15.50055,0,0,1-3.01062-1.252.24524.24524,0,0,0-.344.0441l-.00946.01311c-.474.48786-.95747.96661-1.44064,1.44551a1.53431,1.53431,0,0,1-2.30933-.00433q-2.04807-2.03769-4.08963-4.08193a1.53032,1.53032,0,0,1,.01131-2.35749C35.166,34.134,35.69953,33.62613,36.22415,33.11744ZM63.392,35.81468c-.39632-.39466-.786-.78119-1.174-1.16934a1.53728,1.53728,0,0,1-.25648-2.15885l.01805-.02247a13.55593,13.55593,0,0,0,1.8748-4.45976,1.53426,1.53426,0,0,1,1.69152-1.35892l.01136.00128c.53916-.00007,1.07833,0,1.63372,0V23.62736h-.273c-.46724,0-.93449.00074-1.40174-.00025a1.556,1.556,0,0,1-1.69045-1.37871,13.08781,13.08781,0,0,0-1.7921-4.41443A1.59513,1.59513,0,0,1,62.235,15.5871q.03374-.0282.069-.05449c.36988-.35476.7323-.7173,1.06887-1.04764l-2.13709-2.16978c-.38351.39092-.76529.78451-1.152,1.17323a1.5537,1.5537,0,0,1-2.151.22336,13.05253,13.05253,0,0,0-4.438-1.85978A1.565,1.565,0,0,1,52.077,10.1524l.00352-.03465c-.00014-.53061,0-1.06122,0-1.59659H49.0854a.37439.37439,0,0,0-.01842.06919c-.00177.54919.00091,1.09843-.00475,1.64759a1.52929,1.52929,0,0,1-1.29145,1.58924,13.61864,13.61864,0,0,0-4.61421,1.94573,1.77306,1.77306,0,0,1-.48487.22923,1.48768,1.48768,0,0,1-1.52793-.4305c-.41479-.4172-.82255-.84139-1.21619-1.24486l-2.13116,2.13237c.36522.37419.73549.76765,1.12107,1.14549a1.55528,1.55528,0,0,1,.26942,2.16731,13.54026,13.54026,0,0,0-1.91126,4.60158,1.51185,1.51185,0,0,1-1.54509,1.25217c-.49994.0073-1.00006.00091-1.5001.00234-.09419.00027-.18835.0085-.27878.01287v2.98555a.34809.34809,0,0,0,.06493.01687c.5656.00156,1.13121.00041,1.69679.00385A1.50611,1.50611,0,0,1,37.24,27.858a13.84438,13.84438,0,0,0,2.004,4.74782,1.45512,1.45512,0,0,1,.08469,1.52046,2.08509,2.08509,0,0,1-.39029.50017c-.39294.4011-.79875.78959-1.16,1.14439l2.15215,2.1585c.37308-.37673.76347-.77405,1.15731-1.16792a1.52226,1.52226,0,0,1,2.12529-.2349,13.79067,13.79067,0,0,0,4.62334,1.92624,1.49121,1.49121,0,0,1,1.2239,1.51188c.00658.50818.00232,1.01649.00287,1.52475.00009.08682,0,.17365,0,.268h3.01913c0-.58916-.001-1.16222.00025-1.73527a1.52046,1.52046,0,0,1,1.27505-1.57219,12.07766,12.07766,0,0,0,3.164-1.11565c.52137-.27406,1.02806-.5768,1.53506-.87723a1.49241,1.49241,0,0,1,1.91051.22886c.426.42652.84163.86336,1.25214,1.28562Z" transform="translate(0.0073)"/>
      <path d="M63.392,35.81468l-2.17266,2.15683c-.41051-.42225-.82616-.85909-1.25214-1.28562a1.49242,1.49242,0,0,0-1.91051-.22886c-.507.30043-1.01369.60317-1.53506.87723a12.07752,12.07752,0,0,1-3.164,1.11565,1.52047,1.52047,0,0,0-1.27505,1.57219c-.00126.573-.00025,1.14611-.00025,1.73527H49.06325c0-.09438.00008-.18121,0-.268-.00055-.50826.00371-1.01657-.00287-1.52475a1.4912,1.4912,0,0,0-1.2239-1.51188,13.79075,13.79075,0,0,1-4.62334-1.92624,1.52227,1.52227,0,0,0-2.12529.2349c-.39384.39387-.78422.79119-1.15731,1.16792l-2.15214-2.1585c.36129-.3548.7671-.74329,1.16-1.14439a2.08535,2.08535,0,0,0,.39029-.50017A1.45512,1.45512,0,0,0,39.244,32.6058,13.84428,13.84428,0,0,1,37.24,27.858a1.50611,1.50611,0,0,0-1.5266-1.21076c-.56558-.00344-1.13119-.00229-1.69679-.00385a.34829.34829,0,0,1-.06493-.01687v-2.9856c.09043-.00437.18459-.0126.27878-.01287.5-.00143,1.00017.005,1.5001-.00234a1.51184,1.51184,0,0,0,1.54509-1.25217A13.54026,13.54026,0,0,1,39.18691,17.772a1.55528,1.55528,0,0,0-.26942-2.16731c-.38558-.37784-.75585-.7713-1.12107-1.14549l2.13116-2.13237c.39364.40347.8014.82766,1.21619,1.24486a1.48768,1.48768,0,0,0,1.52793.4305,1.77306,1.77306,0,0,0,.48487-.22923,13.61864,13.61864,0,0,1,4.61421-1.94573A1.52929,1.52929,0,0,0,49.06223,10.238c.00566-.54916.003-1.0984.00475-1.64759a.37439.37439,0,0,1,.01842-.06919h2.99511c0,.53537-.00012,1.066,0,1.59659a1.565,1.565,0,0,0,1.37957,1.73067l.0346.00352a13.05251,13.05251,0,0,1,4.43812,1.85977,1.55369,1.55369,0,0,0,2.151-.22336c.38669-.38872.76847-.78231,1.152-1.17323l2.137,2.16982c-.33657.33034-.699.69288-1.06887,1.04764A1.59514,1.59514,0,0,0,61.9792,17.765q.02629.03523.05449.069a13.08781,13.08781,0,0,1,1.7921,4.41443,1.556,1.556,0,0,0,1.69045,1.37871c.46725.001.9345.00022,1.40174.00025h.273V26.6466H65.55727a1.53425,1.53425,0,0,0-1.7016,1.34628l-.00128.01136A13.556,13.556,0,0,1,61.97958,32.464a1.53727,1.53727,0,0,0,.216,2.16328l.02247.018C62.606,35.03349,62.99568,35.42,63.392,35.81468ZM43.01011,25.14638a7.598,7.598,0,1,0,.00185-.14546Q43.01034,25.07364,43.01011,25.14638Z" transform="translate(0.0073)" fill="#fff"/>
      <path d="M43.01011,25.14638A7.56313,7.56313,0,1,1,50.58,32.70271q-.1386.00012-.27715-.00483A7.60114,7.60114,0,0,1,43.01011,25.14638Zm3.02236-.00967a4.52319,4.52319,0,1,0,.0025-.16121Q46.03229,25.05606,46.03247,25.13671Z" transform="translate(0.0073)"/>
    </g>
  </g>
  <g id="stream">
    <g>
      <path d="M34.0029,31.049a3.55487,3.55487,0,0,1,.72193.591.88192.88192,0,0,1-.07368.973,30.63436,30.63436,0,0,0-1.65788,3.03386,22.18961,22.18961,0,0,0-1.22037,3.6569,5.56146,5.56146,0,0,0,1.514,5.05423,18.84238,18.84238,0,0,0,4.265,3.27833c1.62007,1.054,3.26472,2.086,4.78549,3.27265a7.75438,7.75438,0,0,1,2.83268,5.53854,14.94077,14.94077,0,0,1-3.76686,11.54616c-.1731.20732-.34.42-.51732.62355-.47131.54115-.90082.63482-1.31276.29271-.42739-.35494-.4072-.80423.02753-1.38475.70972-.94773,1.45572-1.87369,2.09529-2.86747a12.36989,12.36989,0,0,0,1.82983-7.788,6.83021,6.83021,0,0,0-3.21452-5.45532c-1.83242-1.199-3.70015-2.34441-5.52437-3.55553a11.58248,11.58248,0,0,1-4.04274-4.26693,7.32434,7.32434,0,0,1-.41859-5.63253A20.93893,20.93893,0,0,1,33.16732,31.821,5.37734,5.37734,0,0,1,34.0029,31.049Z" transform="translate(0.0073)"/>
      <path d="M28.43581,32.13646a7.45591,7.45591,0,0,1-.4496.68609c-1.58312,1.96013-3.19589,3.89677-4.75278,5.87739a25.65244,25.65244,0,0,0-1.84427,2.71556,4.38736,4.38736,0,0,0,.018,4.92428c.66053,1.03649,1.38573,2.04183,1.94269,3.13225a8.42055,8.42055,0,0,1-.105,7.95265,27.1994,27.1994,0,0,1-3.6497,5.17225,48.63657,48.63657,0,0,1-6.58508,6.18669c-.61588.51055-1.297.32688-1.48344-.36932a.83678.83678,0,0,1,.378-.89271c.93464-.80023,1.88553-1.5819,2.80778-2.39608a31.49677,31.49677,0,0,0,6.986-8.40093,6.84613,6.84613,0,0,0-.19144-7.14783c-.44023-.71479-.924-1.40278-1.38987-2.10175a6.08139,6.08139,0,0,1-.07106-7.1,61.28108,61.28108,0,0,1,6.825-8.81552.82976.82976,0,0,1,1.4867.26855C28.38,31.899,28.39455,31.97227,28.43581,32.13646Z" transform="translate(0.0073)"/>
      <path d="M41.0252,44.60409a.64279.64279,0,0,1,.00054-.08994,1.20138,1.20138,0,0,0-.78756-1.44764,4.00027,4.00027,0,0,1-1.8414-4.76492c.80853-2.3359,1.71885-4.63663,2.59066-6.95051a.84.84,0,0,1,1.60338-.03139c.93088,2.27482,1.913,4.53108,2.76253,6.83608a4.11764,4.11764,0,0,1-2.25488,5.13678.50879.50879,0,0,0-.36321.53895c.016.56965.00964,1.14015.00253,1.71018a.89354.89354,0,0,1-.76833.95346.86253.86253,0,0,1-.91024-.812l-.0001-.00177a8.00411,8.00411,0,0,1-.00916-1.0772Zm.8333-10.52961c-.084.09914-.15018.14651-.174.20982-.56913,1.51442-1.17422,3.01708-1.68434,4.55128a2.31933,2.31933,0,0,0,.72432,2.53183,1.5876,1.5876,0,0,0,2.24472.04674l.02068-.0202a2.59347,2.59347,0,0,0,.6328-3.11106c-.50337-1.26716-1.029-2.5255-1.5481-3.78638C42.0198,34.36337,41.94351,34.23907,41.8585,34.07448Z" transform="translate(0.0073)"/>
      <path d="M12.09442,60.91844a1.856,1.856,0,0,1,.00143-.27,1.04519,1.04519,0,0,0-.6552-1.19587,3.38184,3.38184,0,0,1-1.43517-3.999c.63774-1.79469,1.3294-3.57024,2.00059-5.353a.85289.85289,0,0,1,1.64119-.0209c.72414,1.76175,1.48073,3.5115,2.15125,5.29356a3.4335,3.4335,0,0,1-1.63251,4.1967.70214.70214,0,0,0-.42969.74269c.0188.46464.01272.93092.00028,1.396a.77126.77126,0,0,1-.82831.853.7958.7958,0,0,1-.81227-.87755C12.08862,61.4291,12.09478,61.17368,12.09442,60.91844Zm.64919-8.0804c-.39881,1.15264-.84382,2.29567-1.181,3.46967a1.56071,1.56071,0,0,0,.65621,1.663.99893.99893,0,0,0,1.21664.07556,1.52792,1.52792,0,0,0,.82518-1.66749c-.35423-1.19636-.88511-2.34043-1.34354-3.50581a.90479.90479,0,0,0-.17349-.035Z" transform="translate(0.0073)"/>
      <path d="M19.21061,34.8779a2.763,2.763,0,0,1-1.24552,2.21561.72742.72742,0,0,0-.36946.74276,4.4352,4.4352,0,0,1,.00078.67507.84606.84606,0,0,1-1.6889.09549c-.03949-.29544.0131-.60393-.03333-.89744a.81884.81884,0,0,0-.26133-.50407A2.76876,2.76876,0,0,1,14.521,33.84288c.41561-1.17313.87022-2.33248,1.31066-3.49676a.89849.89849,0,0,1,.83208-.7061c.48817-.01346.72426.29223.88847.6935.46584,1.13836.94636,2.271,1.39113,3.41752A8.11458,8.11458,0,0,1,19.21061,34.8779Zm-2.37986-1.9048-.19294.00875c-.20916.58653-.4531,1.16369-.61461,1.76306a.816.816,0,0,0,.4052.92394c.15129.08848.48846.11684.56581.02487.21642-.25734.5155-.623.4675-.88925A11.47764,11.47764,0,0,0,16.83075,32.9731Z" transform="translate(0.0073)"/>
      <path d="M38.52743,57.2617a5.7375,5.7375,0,0,1-.60939,2.36882c-.2029.46737-.39077.94182-.60961,1.40156a.837.837,0,1,1-1.52866-.67078c.2128-.54417.42929-1.08919.68536-1.61373a3.13759,3.13759,0,0,0-.71421-3.85272,20.00843,20.00843,0,0,0-3.50365-2.87626,6.82373,6.82373,0,0,1-.62853-.43333.82045.82045,0,0,1-.189-1.12371.80866.80866,0,0,1,1.116-.24089c.74418.47625,1.48144.96887,2.18245,1.50576A12.6336,12.6336,0,0,1,37.895,54.95123,3.96,3.96,0,0,1,38.52743,57.2617Z" transform="translate(0.0073)"/>
      <path d="M29.9472,59.31371a9.72731,9.72731,0,0,1-1.42558,4.175,23.66069,23.66069,0,0,1-3.23268,4.03085.81247.81247,0,0,1-1.23654.08851.88023.88023,0,0,1,.01974-1.24467l.00626-.006c.86588-1.03481,1.77429-2.03825,2.57958-3.11843a7.84581,7.84581,0,0,0,1.59041-3.95878c.07711-.78006.6525-1.15934,1.22174-.8639A.86106.86106,0,0,1,29.9472,59.31371Z" transform="translate(0.0073)"/>
      <path d="M24.07458,43.41924a5.5097,5.5097,0,0,1,1.18518-3.2021,13.10232,13.10232,0,0,1,.8368-1.059.83529.83529,0,0,1,1.17178-.14957l.03156.02566a.82052.82052,0,0,1,.10536,1.15559l-.01373.016c-.4177.60291-.87657,1.18089-1.2508,1.80944a2.50082,2.50082,0,0,0-.0411,2.53584c.32537.64183.66,1.2795.9646,1.93114a.82741.82741,0,0,1-.1869,1.06521.76357.76357,0,0,1-.9955.05477.60917.60917,0,0,1-.21738-.22164c-.51326-1.12847-1.02647-2.25719-1.516-3.396A1.78677,1.78677,0,0,1,24.07458,43.41924Z" transform="translate(0.0073)"/>
      <path d="M41.8585,34.07448c.085.16459.1613.28889.21611.422.51908,1.26088,1.04473,2.51922,1.5481,3.78638a2.59347,2.59347,0,0,1-.6328,3.11106,1.5876,1.5876,0,0,1-2.2452-.00586l-.0202-.02068a2.31934,2.31934,0,0,1-.72432-2.53183c.51012-1.5342,1.11521-3.03686,1.68434-4.55128C41.70832,34.221,41.7745,34.17362,41.8585,34.07448Z" transform="translate(0.0073)" fill="#fff"/>
      <path d="M12.74361,52.838a.905.905,0,0,1,.17345.0349c.45843,1.16537.98931,2.30945,1.34354,3.50581a1.52791,1.52791,0,0,1-.82518,1.66749.99893.99893,0,0,1-1.21664-.07556,1.5607,1.5607,0,0,1-.65621-1.663C11.89979,55.13371,12.3448,53.99068,12.74361,52.838Z" transform="translate(0.0073)" fill="#fff" opacity="0.75" style="isolation: isolate"/>
      <path d="M16.83075,32.9731a11.47745,11.47745,0,0,1,.631,1.83137c.048.26623-.25108.63191-.4675.88925-.07735.092-.41452.06361-.56581-.02487a.816.816,0,0,1-.4052-.92394c.16151-.59937.40545-1.17653.61461-1.76306Z" transform="translate(0.0073)" fill="#fff" opacity="0.75" style="isolation: isolate"/>
    </g>
  </g>
</svg>
