<svg id="Layer_1" data-name="Layer 1" xmlns="http://www.w3.org/2000/svg" viewBox="0 0 75 75">
  <g id="shapes">
    <path id="square" d="M73.5,70.13a3.16553,3.16553,0,0,1-2.92,3.37H4.42A3.17186,3.17186,0,0,1,1.5,70.13V4.87A3.17186,3.17186,0,0,1,4.42,1.5H70.58A3.17186,3.17186,0,0,1,73.5,4.87Z" fill="#69c" stroke="#000" stroke-miterlimit="10" stroke-width="3" fill-rule="evenodd"/>
  </g>
  <g id="event">
    <g id="event-2" data-name="event">
      <g>
        <rect x="18.67" y="21.53" width="37.96" height="31.36" fill="#fff"/>
        <g>
          <path d="M16.57,9.24h6.2v6.19H29V9.26H45.95v6.18h6.23V9.26h6.24V54.68H16.56Q16.575,31.985,16.57,9.24Zm1.77,43.65H56.63V21.73H18.34Z"/>
          <path d="M24.6,5.67h2.62v7.97H24.6Z"/>
          <path d="M47.79,5.67h2.62v7.97H47.79Z"/>
        </g>
      </g>
    </g>
  </g>
  <g id="stream">
    <g>
      <path d="M43.79,29.75a3.38239,3.38239,0,0,1,.72.59.8842.8842,0,0,1-.07.97,30.80445,30.80445,0,0,0-1.66,3.03A22.45452,22.45452,0,0,0,41.56,38a5.57432,5.57432,0,0,0,1.51,5.05,19.06671,19.06671,0,0,0,4.26,3.28c1.62,1.05,3.26,2.09,4.79,3.27a7.7582,7.7582,0,0,1,2.83,5.54,14.921,14.921,0,0,1-3.77,11.55c-.17.21-.34.42-.52.62-.47.54-.9.63-1.31.29-.43-.35-.41-.8.03-1.38.71-.95,1.46-1.87,2.1-2.87a12.33861,12.33861,0,0,0,1.83-7.79A6.86237,6.86237,0,0,0,50.1,50.1c-1.83-1.2-3.7-2.34-5.52-3.56a11.57838,11.57838,0,0,1-4.04-4.27,7.30463,7.30463,0,0,1-.42-5.63,20.80237,20.80237,0,0,1,2.84-6.14A8.07212,8.07212,0,0,1,43.79,29.75Z"/>
      <path d="M38.23,30.84c-.13.2-.27.46-.45.69-1.58,1.96-3.2,3.9-4.75,5.88a26.46929,26.46929,0,0,0-1.84,2.72,4.37335,4.37335,0,0,0,.02,4.92c.66,1.04,1.39,2.04,1.94,3.13a8.448,8.448,0,0,1-.1,7.95A27.43427,27.43427,0,0,1,29.4,61.3a48.88728,48.88728,0,0,1-6.59,6.19c-.62.51-1.3.33-1.48-.37a.828.828,0,0,1,.38-.89c.93-.8,1.89-1.58,2.81-2.4a31.7365,31.7365,0,0,0,6.99-8.4,6.85411,6.85411,0,0,0-.19-7.14c-.44-.71-.92-1.4-1.39-2.1a6.082,6.082,0,0,1-.07-7.1,60.60557,60.60557,0,0,1,6.83-8.82.83262.83262,0,0,1,1.49.27A.87972.87972,0,0,0,38.23,30.84Z"/>
      <path d="M50.82,43.31v-.09a1.20267,1.20267,0,0,0-.79-1.45,3.9925,3.9925,0,0,1-1.84-4.76c.81-2.34,1.72-4.64,2.59-6.95a.83774.83774,0,0,1,1.6-.04c.93,2.27,1.91,4.53,2.76,6.84A4.12086,4.12086,0,0,1,52.89,42a.50332.50332,0,0,0-.36.54c.02.57.01,1.14,0,1.71a.88615.88615,0,0,1-.77.95.86034.86034,0,0,1-.91-.81,7.77168,7.77168,0,0,1-.01-1.08Zm.83-10.53c-.08.1-.15.15-.17.21-.57,1.51-1.17,3.02-1.68,4.55a2.31894,2.31894,0,0,0,.72,2.53,1.59954,1.59954,0,0,0,2.27.03,2.59525,2.59525,0,0,0,.63-3.11c-.5-1.27-1.03-2.53-1.55-3.79C51.81,33.07,51.74,32.94,51.65,32.78Z"/>
      <path d="M21.89,59.62a2.43187,2.43187,0,0,1,0-.27,1.0435,1.0435,0,0,0-.66-1.2,3.39058,3.39058,0,0,1-1.44-4c.64-1.79,1.33-3.57,2-5.35a.85534.85534,0,0,1,.79-.63.842.842,0,0,1,.85.61c.72,1.76,1.48,3.51,2.15,5.29a3.43621,3.43621,0,0,1-1.63,4.2.70168.70168,0,0,0-.43.74c.02.46.01.93,0,1.4a.76355.76355,0,0,1-.83.85.7921.7921,0,0,1-.81-.88C21.88,60.13,21.89,59.88,21.89,59.62Zm.65-8.08c-.4,1.15-.84,2.3-1.18,3.47a1.55758,1.55758,0,0,0,.66,1.66,1.00881,1.00881,0,0,0,1.22.08,1.528,1.528,0,0,0,.83-1.67c-.35-1.2-.89-2.34-1.34-3.51A.87356.87356,0,0,1,22.54,51.54Z"/>
      <path d="M29,33.58a2.78932,2.78932,0,0,1-1.25,2.22.74292.74292,0,0,0-.37.74,5.14293,5.14293,0,0,1,0,.68.84644.84644,0,0,1-1.69.09c-.04-.3.01-.6-.03-.9a.81178.81178,0,0,0-.26-.5,2.75558,2.75558,0,0,1-1.09-3.36c.42-1.17.87-2.33,1.31-3.5.15-.39.36-.69.83-.71.49-.01.72.29.89.69.47,1.14.95,2.27,1.39,3.42A7.426,7.426,0,0,1,29,33.58Zm-2.38-1.9c-.06,0-.13.01-.19.01-.21.59-.45,1.16-.61,1.76a.80071.80071,0,0,0,.41.92c.15.09.49.12.57.02.22-.26.52-.62.47-.89A14.14366,14.14366,0,0,0,26.62,31.68Z"/>
      <path d="M48.32,55.97a5.827,5.827,0,0,1-.61,2.37c-.2.47-.39.94-.61,1.4a.83757.83757,0,1,1-1.53-.67c.21-.54.43-1.09.69-1.61a3.13485,3.13485,0,0,0-.71-3.85,20.55407,20.55407,0,0,0-3.5-2.88c-.21-.14-.43-.27-.63-.43a.82455.82455,0,0,1,.93-1.36c.74.48,1.48.97,2.18,1.51a12.60116,12.60116,0,0,1,3.17,3.22A3.989,3.989,0,0,1,48.32,55.97Z"/>
      <path d="M39.74,58.02a9.52493,9.52493,0,0,1-1.43,4.17,23.6934,23.6934,0,0,1-3.23,4.03.815.815,0,0,1-1.24.09.8752.8752,0,0,1,.03-1.25c.87-1.03,1.77-2.04,2.58-3.12a7.89242,7.89242,0,0,0,1.59-3.96c.08-.78.65-1.16,1.22-.86A.866.866,0,0,1,39.74,58.02Z"/>
      <path d="M33.87,42.12a5.51507,5.51507,0,0,1,1.19-3.2,12.20835,12.20835,0,0,1,.84-1.06.83187.83187,0,1,1,1.29,1.05c-.42.6-.88,1.18-1.25,1.81a2.50929,2.50929,0,0,0-.04,2.54c.33.64.66,1.28.96,1.93a.83511.83511,0,0,1-.19,1.07.76045.76045,0,0,1-1,.05.661.661,0,0,1-.22-.22c-.51-1.13-1.03-2.26-1.52-3.4A2.08127,2.08127,0,0,1,33.87,42.12Z"/>
      <path d="M51.65,32.78c.09.16.16.29.22.42.52,1.26,1.04,2.52,1.55,3.79a2.59524,2.59524,0,0,1-.63,3.11,1.59081,1.59081,0,0,1-2.27-.03,2.31894,2.31894,0,0,1-.72-2.53c.51-1.53,1.12-3.04,1.68-4.55C51.5,32.92,51.57,32.88,51.65,32.78Z" fill="#fff" opacity="0.75" style="isolation: isolate"/>
      <path d="M22.54,51.54a1.59793,1.59793,0,0,0,.17.03c.46,1.17.99,2.31,1.34,3.51a1.53414,1.53414,0,0,1-.83,1.67A1.00879,1.00879,0,0,1,22,56.67a1.57369,1.57369,0,0,1-.66-1.66C21.69,53.84,22.14,52.69,22.54,51.54Z" fill="#fff" opacity="0.75" style="isolation: isolate"/>
      <path d="M26.62,31.68a11.3178,11.3178,0,0,1,.63,1.83c.05.27-.25.63-.47.89-.08.09-.41.06-.57-.02a.8375.8375,0,0,1-.41-.92c.16-.6.41-1.18.61-1.76A.82191.82191,0,0,1,26.62,31.68Z" fill="#fff" opacity="0.75" style="isolation: isolate"/>
    </g>
  </g>
</svg>
