<svg id="Layer_1" data-name="Layer 1" xmlns="http://www.w3.org/2000/svg" viewBox="0 0 75.01461 75">
  <g id="shapes">
    <path id="square" d="M73.5,70.12506A3.171,3.171,0,0,1,70.5813,73.5H4.41978A3.171,3.171,0,0,1,1.5,70.12506V4.87494A3.17253,3.17253,0,0,1,4.41978,1.5H70.5813A3.17251,3.17251,0,0,1,73.5,4.87494Z" transform="translate(0.0073)" fill="#69c" stroke="#000" stroke-miterlimit="10" stroke-width="3" fill-rule="evenodd"/>
  </g>
  <g id="predict">
    <g>
      <path d="M53.457,52.93163c-.9895,3.15127-1.91521,6.09538-2.83788,9.04043a14.957,14.957,0,0,0-.719,2.41891c-.275,2.07017-1.59015,3.11563-3.34365,3.97133-7.01068,3.42121-13.83218,3.02553-20.54725-.79657A3.00759,3.00759,0,0,1,24.506,65.67417c-1.0718-3.59612-2.2265-7.16755-3.353-10.74733-.07913-.25145-.17754-.49683-.33328-.929-.33525.41418-.5928.71409-.83044,1.029-1.31594,1.74384-2.651,3.474-3.929,5.24535-.58159.80609-1.22544.90191-1.92912.30331q-5.343-4.54509-10.64616-9.137a1.1619,1.1619,0,0,1-.15978-1.73577c1.302-1.80164,2.56946-3.62959,3.92136-5.39287A2.50372,2.50372,0,0,1,8.581,43.54478q5.86-1.42715,11.743-2.75906a2.171,2.171,0,0,0,1.5565-1.15336c3.37-5.81278,8.44125-8.9458,15.16543-8.9337,6.57742.01184,11.574,3.0746,14.94359,8.71941A2.22129,2.22129,0,0,0,53.564,40.54921c4.25595.96989,8.50961,1.95211,12.746,3.00313a3.25636,3.25636,0,0,1,1.63846,1.07879c1.21387,1.52951,2.32007,3.14491,3.45708,4.73483.84942,1.18775.78882,1.725-.296,2.63774q-4.92753,4.146-9.865,8.28016c-1.17056.97882-1.41144.93164-2.35126-.29387C57.12855,57.689,55.35491,55.39481,53.457,52.93163ZM24.63565,39.66569c.29044-.017.44031-.01825.58827-.0357,1.60222-.18892,1.88523.26473,1.70091,1.87792-.26525,2.32149-1.309,3.828-3.65632,4.30883-.07407.01518-.14166.06-.21533.07937a1.18965,1.18965,0,0,0-.97435,1.37156q.00773.04561.019.09054a36.885,36.885,0,0,0,.7708,5.08531C24.01753,56.49414,25.32754,60.5,26.634,64.50388a2.57934,2.57934,0,0,0,1.07678,1.34859,17.9663,17.9663,0,0,0,18.60191-.04956,2.60649,2.60649,0,0,0,1.071-1.36127c1.33932-4.114,2.68375-8.22945,3.86524-12.39026a31.74769,31.74769,0,0,0,.66521-4.86888,1.515,1.515,0,0,0-1.295-1.83658A2.60537,2.60537,0,0,1,48.41032,42.79a3.8892,3.8892,0,0,0-.25121-1.00051c-.38987-1.10906-.38039-2.05324.99931-2.4323a14.81379,14.81379,0,0,0-24.52277.3085Zm-.38136,3-.11458-.26743a5.10209,5.10209,0,0,0-.85333.05608q-6.767,1.57875-13.52808,3.18308a1.528,1.528,0,0,0-.82569.34834c-1.08256,1.41245-2.11748,2.86142-3.18493,4.32208l9.11589,7.46158,3.93068-5.148c-1.07436-1.36268-2.09955-2.65056-3.11082-3.94929-.93972-1.20684-.78669-1.80448.64951-2.42471,2.28481-.98671,4.5841-1.9399,6.86812-2.9284a8.17554,8.17554,0,0,0,1.05323-.65331Zm44.96848,7.661c-1.0492-1.45456-1.98722-2.80866-2.99389-4.10965A1.96535,1.96535,0,0,0,65.175,45.6322c-4.43289-1.057-8.87236-2.08651-13.31157-3.11687-.33369-.07745-.67876-.10585-1.01855-.157l-.11871.33131a7.97718,7.97718,0,0,0,.96978.58614c2.35722,1.01414,4.72563,2.00225,7.08454,3.01253,1.26488.54173,1.4395,1.21546.592,2.305-.89428,1.14968-1.83613,2.263-2.70738,3.42945-.18158.24311-.31722.774-.182.96051,1.16,1.59958,2.3871,3.15045,3.64422,4.78078Zm-14.88683-3.399-.39178,4.73856L56.855,48.01214ZM18.119,48.00585l1.71837,2.12387-.13274-2.76991Z" transform="translate(0.0073)"/>
      <path d="M24.63565,39.66569a14.81379,14.81379,0,0,1,24.52277-.30846c-1.3797.37906-1.38918,1.32324-.99931,2.4323A3.88891,3.88891,0,0,1,48.41032,42.79a2.60537,2.60537,0,0,0,2.20881,2.55588,1.515,1.515,0,0,1,1.295,1.83657,31.749,31.749,0,0,1-.66521,4.86889c-1.18149,4.16081-2.52592,8.27622-3.86525,12.39026a2.60648,2.60648,0,0,1-1.071,1.36127,17.96628,17.96628,0,0,1-18.60191.04956A2.57941,2.57941,0,0,1,26.634,64.50388C25.32751,60.5,24.0175,56.49414,22.86858,52.44352a36.88491,36.88491,0,0,1-.7708-5.0853,1.18966,1.18966,0,0,1,.86483-1.44313q.04488-.01123.09054-.019c.07367-.01932.14126-.06419.21533-.07936,2.34732-.48079,3.39107-1.98734,3.65632-4.30883.18432-1.61319-.09869-2.06685-1.70091-1.87792C25.076,39.64744,24.92609,39.64864,24.63565,39.66569ZM42.33092,52.52787a6.81022,6.81022,0,0,0,5.10732-1.91093c.22441-.22486.17-.72794.24445-1.1025-.373-.0499-.91542-.28407-1.0928-.12106a6.00979,6.00979,0,0,1-5.77455,1.32918c-.28331-.06284-.6657.321-1.0022.49795.237.33187.40838.84278.72449.95853A9.07374,9.07374,0,0,0,42.33092,52.52787Zm-11.1815.003a7.06183,7.06183,0,0,0,1.64734-.27552c.406-.15349.99284-.63752.97563-.94447-.04577-.81619-.72865-.65114-1.3136-.52806a5.80713,5.80713,0,0,1-5.15731-1.16439c-.2829-.23154-.84627-.12038-1.28018-.16742.09119.4324.03678,1.00971.29836,1.27254A6.73063,6.73063,0,0,0,31.14942,52.53087Zm6.61329,3.6348h-.01024c0-.99544.06132-1.99674-.03285-2.9832-.0335-.35106-.44447-.6661-.68312-.99758-.26624.30316-.7533.59946-.763.9106-.06422,2.06534-.05435,4.13473.00992,6.20036.00931.29927.43894.58546.67407.8777.2684-.30219.73633-.58481.76823-.91018C37.82611,58.23941,37.76271,57.19943,37.76271,56.16567Z" transform="translate(0.0073)" fill="#fff"/>
      <path d="M24.25429,42.66571a8.17492,8.17492,0,0,1-1.05323.65338c-2.284.9885-4.58331,1.94169-6.86812,2.9284-1.4362.62023-1.58923,1.21787-.64951,2.42471,1.01127,1.29873,2.03646,2.58661,3.11082,3.94929l-3.93068,5.148L5.74768,50.30786c1.06745-1.46066,2.10237-2.90963,3.18493-4.32208a1.528,1.528,0,0,1,.82569-.34834q6.76106-1.60417,13.52808-3.18308a5.10209,5.10209,0,0,1,.85333-.05608Z" transform="translate(0.0073)" fill="#fff"/>
      <path d="M69.22277,50.3267l-9.09542,7.43735c-1.25712-1.63033-2.48426-3.1812-3.64422-4.78078-.13523-.1865.00041-.71739.182-.96051.87125-1.16643,1.81311-2.27976,2.70738-3.42945.84751-1.08959.67289-1.76331-.592-2.305C56.4216,45.278,54.05319,44.28988,51.696,43.27573a7.97668,7.97668,0,0,1-.96978-.58614l.11871-.33131c.33979.0512.68487.0796,1.01856.157,4.43921,1.03036,8.87868,2.05987,13.31157,3.11687a1.96528,1.96528,0,0,1,1.05384.58485C67.23555,47.518,68.17357,48.87214,69.22277,50.3267Z" transform="translate(0.0073)" fill="#fff"/>
      <path d="M42.33092,52.52787a9.07388,9.07388,0,0,1-1.79329-.34883c-.31611-.11575-.48752-.62666-.72449-.95853.3365-.177.71889-.56079,1.0022-.49795a6.00981,6.00981,0,0,0,5.77455-1.32918c.17738-.163.71976.07115,1.0928.121-.07441.37457-.02.87764-.24445,1.10251A6.81022,6.81022,0,0,1,42.33092,52.52787Z" transform="translate(0.0073)"/>
      <path d="M31.14942,52.53087a6.73059,6.73059,0,0,1-4.82976-1.80732c-.26158-.26283-.20717-.84014-.29836-1.27254.43391.047.99728-.06412,1.28018.16742a5.80712,5.80712,0,0,0,5.15731,1.16439c.58495-.12308,1.26783-.28813,1.3136.52806.01721.307-.56968.791-.97563.94447A7.06183,7.06183,0,0,1,31.14942,52.53087Z" transform="translate(0.0073)"/>
      <path d="M37.76271,56.16567c0,1.03376.0634,2.07374-.037,3.09767-.0319.32537-.49983.608-.76823.91018-.23513-.29224-.66476-.57843-.67407-.8777-.06427-2.06563-.07414-4.135-.00992-6.20036.00967-.31114.49674-.60744.763-.9106.23865.33148.64962.64652.68312.99758.09417.98646.03285,1.98776.03285,2.9832Z" transform="translate(0.0073)"/>
    </g>
    <rect x="9.45926" y="19.80893" width="6.87402" height="6.87402" stroke="#000" stroke-miterlimit="10"/>
    <rect x="22.68347" y="19.80893" width="6.87402" height="6.87402" fill="none" stroke="#000" stroke-miterlimit="10"/>
    <rect x="35.90766" y="19.80893" width="6.87402" height="6.87402" fill="none" stroke="#000" stroke-miterlimit="10"/>
    <rect x="49.13187" y="19.80893" width="6.87402" height="6.87402" fill="none" stroke="#000" stroke-miterlimit="10"/>
    <rect x="62.35606" y="19.80893" width="6.87402" height="6.87402" stroke="#000" stroke-miterlimit="10"/>
    <g>
      <path d="M12.889,16.81712A35.23678,35.23678,0,0,1,56.76521,11.9679" transform="translate(0.0073)" fill="none" stroke="#000" stroke-miterlimit="10" stroke-width="2"/>
      <polygon points="52.477 15.122 62.356 16.479 58.593 7.245 52.477 15.122"/>
    </g>
  </g>
</svg>
