<svg id="Layer_1" data-name="Layer 1" xmlns="http://www.w3.org/2000/svg" viewBox="0 0 75 75">
  <g id="shapes">
    <path id="square" d="M73.5,70.13a3.16553,3.16553,0,0,1-2.92,3.37H4.42A3.17186,3.17186,0,0,1,1.5,70.13V4.87A3.17186,3.17186,0,0,1,4.42,1.5H70.58A3.17186,3.17186,0,0,1,73.5,4.87Z" fill="#69c" stroke="#000" stroke-miterlimit="10" stroke-width="3" fill-rule="evenodd"/>
  </g>
  <g id="function">
    <g>
      <path d="M19.26,47.65a23.55828,23.55828,0,0,1-1.79-4.2.39945.39945,0,0,0-.3-.17c-.88-.01-1.75,0-2.63-.01a1.90441,1.90441,0,0,1-1.98-1.48,2.81038,2.81038,0,0,1-.06-.65c0-2.49-.01-4.98,0-7.47a1.91291,1.91291,0,0,1,1.95-1.94c1-.01,2,0,2.96,0,.34-.89.65-1.75,1-2.6.21-.5.46-.98.72-1.46a.33034.33034,0,0,0-.07-.48c-.62-.6-1.24-1.21-1.85-1.82a1.97453,1.97453,0,0,1,.01-2.96c1.73-1.72,3.45-3.45,5.17-5.17a1.95632,1.95632,0,0,1,3.02,0c.6.6,1.21,1.2,1.81,1.82a.2774.2774,0,0,0,.4.06,18.91012,18.91012,0,0,1,3.83-1.6.32678.32678,0,0,0,.28-.39c-.01-.88-.01-1.75,0-2.63a1.90586,1.90586,0,0,1,1.98-2q3.78-.015,7.57,0a1.9003,1.9003,0,0,1,2,1.98c.01.89.01,1.77,0,2.66,0,.2.05.29.25.35a19.43768,19.43768,0,0,1,3.88,1.63.25091.25091,0,0,0,.37-.05c.61-.63,1.23-1.24,1.85-1.86a1.93514,1.93514,0,0,1,2.95.01c1.75,1.75,3.51,3.51,5.26,5.27a1.92523,1.92523,0,0,1,.03,2.8c-.62.64-1.26,1.28-1.9,1.9a.31213.31213,0,0,0-.07.45,18.85892,18.85892,0,0,1,1.56,3.84.30033.30033,0,0,0,.35.26c.93-.01,1.86-.01,2.78,0a1.90368,1.90368,0,0,1,1.91,1.88c.01,2.58.01,5.17,0,7.75a1.86414,1.86414,0,0,1-1.43,1.83,3.35885,3.35885,0,0,1-.71.08c-.84.01-1.69,0-2.53,0-.15,0-.27,0-.33.19a21.22513,21.22513,0,0,1-1.77,4.16c.43.42.88.85,1.32,1.27.25.24.49.48.73.73a1.92829,1.92829,0,0,1,0,2.95l-3.45,3.45c-.58.58-1.16,1.17-1.74,1.75a1.93436,1.93436,0,0,1-2.93.02c-.62-.6-1.24-1.21-1.84-1.83a.32884.32884,0,0,0-.48-.06,20.05127,20.05127,0,0,1-3.8,1.58.30033.30033,0,0,0-.26.35c.01.85.01,1.71,0,2.56a1.94188,1.94188,0,0,1-2.11,2.1H33.82a1.93554,1.93554,0,0,1-2.09-2.08c0-.87-.01-1.73,0-2.6a.30556.30556,0,0,0-.25-.35,20.35836,20.35836,0,0,1-3.83-1.59.31085.31085,0,0,0-.45.07c-.6.62-1.22,1.23-1.83,1.84a1.94527,1.94527,0,0,1-2.94-.01q-2.61-2.595-5.2-5.19a1.95493,1.95493,0,0,1,.01-3C17.91,48.94,18.59,48.29,19.26,47.65ZM53.8,51.08c-.5-.5-1-.99-1.49-1.49a1.9528,1.9528,0,0,1-.3-2.77,17.189,17.189,0,0,0,2.38-5.67,1.96013,1.96013,0,0,1,2.17-1.73h2.08V35.58H56.51a1.98092,1.98092,0,0,1-2.15-1.75,16.55477,16.55477,0,0,0-2.28-5.61,2.03237,2.03237,0,0,1,.34-2.93c.47-.45.93-.91,1.36-1.33-.92-.94-1.81-1.83-2.72-2.76-.49.5-.97,1-1.46,1.49a1.95811,1.95811,0,0,1-2.73.28,16.58645,16.58645,0,0,0-5.64-2.36,1.99188,1.99188,0,0,1-1.8-2.21V16.37H35.62a.81442.81442,0,0,0-.02.09c0,.7,0,1.4-.01,2.09a1.94024,1.94024,0,0,1-1.64,2.02,17.39374,17.39374,0,0,0-5.87,2.47,2.34127,2.34127,0,0,1-.62.29,1.88627,1.88627,0,0,1-1.94-.55c-.53-.53-1.05-1.07-1.55-1.58l-2.71,2.71c.46.48.94.98,1.43,1.46a1.98136,1.98136,0,0,1,.34,2.76,17.09579,17.09579,0,0,0-2.43,5.85,1.91554,1.91554,0,0,1-1.96,1.59c-.64.01-1.27,0-1.91,0-.12,0-.24.01-.35.02v3.8a.44985.44985,0,0,0,.08.02h2.16a1.92041,1.92041,0,0,1,1.94,1.54A17.18078,17.18078,0,0,0,23.1,47a1.84211,1.84211,0,0,1,.11,1.93,2.7703,2.7703,0,0,1-.5.64c-.5.51-1.02,1-1.48,1.46l2.74,2.74c.47-.48.97-.98,1.47-1.49a1.93165,1.93165,0,0,1,2.7-.3,17.48681,17.48681,0,0,0,5.88,2.45,1.8992,1.8992,0,0,1,1.56,1.92c.01.65,0,1.29,0,1.94v.34h3.84V56.42a1.93424,1.93424,0,0,1,1.62-2A15.16221,15.16221,0,0,0,45.06,53c.66-.35,1.31-.73,1.95-1.12a1.90283,1.90283,0,0,1,2.43.29c.54.54,1.07,1.1,1.59,1.63C51.99,52.88,52.88,51.99,53.8,51.08Z"/>
      <path d="M53.8,51.08c-.92.91-1.81,1.8-2.76,2.74-.52-.54-1.05-1.09-1.59-1.63a1.89077,1.89077,0,0,0-2.43-.29c-.64.38-1.29.77-1.95,1.12a15.52318,15.52318,0,0,1-4.02,1.42,1.92572,1.92572,0,0,0-1.62,2v2.21H35.59V56.37a1.89012,1.89012,0,0,0-1.56-1.92A17.572,17.572,0,0,1,28.15,52a1.93064,1.93064,0,0,0-2.7.3c-.5.5-1,1.01-1.47,1.49-.91-.91-1.8-1.81-2.74-2.74.46-.45.98-.95,1.48-1.46a2.57434,2.57434,0,0,0,.5-.64,1.84092,1.84092,0,0,0-.11-1.93,17.7245,17.7245,0,0,1-2.55-6.04,1.92041,1.92041,0,0,0-1.94-1.54H16.46a.44985.44985,0,0,1-.08-.02v-3.8c.11-.01.23-.02.35-.02.64,0,1.27.01,1.91,0a1.90841,1.90841,0,0,0,1.96-1.59,17.01453,17.01453,0,0,1,2.43-5.85,1.98355,1.98355,0,0,0-.34-2.76c-.49-.48-.96-.98-1.43-1.46l2.71-2.71c.5.51,1.02,1.05,1.55,1.58a1.88627,1.88627,0,0,0,1.94.55,2.34136,2.34136,0,0,0,.62-.29,17.195,17.195,0,0,1,5.87-2.47,1.9471,1.9471,0,0,0,1.64-2.02c.01-.7,0-1.4.01-2.09a.81285.81285,0,0,1,.02-.09h3.81v2.03a1.99737,1.99737,0,0,0,1.8,2.21A16.58645,16.58645,0,0,1,46.87,23a1.977,1.977,0,0,0,2.73-.28c.49-.49.98-.99,1.46-1.49.91.93,1.8,1.82,2.72,2.76-.43.42-.89.88-1.36,1.33a2.03237,2.03237,0,0,0-.34,2.93,16.55477,16.55477,0,0,1,2.28,5.61,1.98092,1.98092,0,0,0,2.15,1.75h2.13v3.84H56.56a1.95313,1.95313,0,0,0-2.17,1.73,17.189,17.189,0,0,1-2.38,5.67,1.95186,1.95186,0,0,0,.3,2.77C52.8,50.08,53.3,50.57,53.8,51.08ZM27.88,37.51a9.61338,9.61338,0,1,0,9.87-9.63A9.656,9.656,0,0,0,27.88,37.51Z" fill="#fff"/>
      <path d="M27.88,37.51a9.61823,9.61823,0,1,1,9.28,9.6A9.672,9.672,0,0,1,27.88,37.51Zm3.85-.01a5.77065,5.77065,0,1,0,5.94-5.76A5.749,5.749,0,0,0,31.73,37.5Z"/>
    </g>
  </g>
</svg>
