<svg id="Layer_1" data-name="Layer 1" xmlns="http://www.w3.org/2000/svg" viewBox="0 0 75 75">
  <g id="shapes">
    <path id="square" d="M73.5,70.13a3.16553,3.16553,0,0,1-2.92,3.37H4.42A3.17186,3.17186,0,0,1,1.5,70.13V4.87A3.17186,3.17186,0,0,1,4.42,1.5H70.58A3.17186,3.17186,0,0,1,73.5,4.87Z" fill="#69c" stroke="#000" stroke-miterlimit="10" stroke-width="3" fill-rule="evenodd"/>
  </g>
  <g id="ip">
    <g>
      <path d="M7.5,56.25l7.26.03h15.2v5.01H7.5Z"/>
      <path d="M67.5,61.29H45.04V56.28H66.75c.25,0,.51-.02.76-.03C67.5,57.93,67.5,59.61,67.5,61.29Z"/>
      <path d="M39.98,43.8v7.47H35.02V43.83c-.27-.01-.48-.03-.68-.03H27.78a5.029,5.029,0,0,1-5.28-5.26V16.45a4.967,4.967,0,0,1,5.06-5.16q9.96-.045,19.92,0a4.97344,4.97344,0,0,1,5.01,5.16q0,11.1,0,22.21a5.02634,5.02634,0,0,1-5.15,5.15c-2.17.01-4.34,0-6.5,0C40.59,43.8,40.34,43.8,39.98,43.8Zm.01-15c.87,0,1.67.01,2.46,0a5.01075,5.01075,0,0,0,5.03-4.66,4.90768,4.90768,0,0,0-4.51-5.3,37.99791,37.99791,0,0,0-4.27-.04,1.22117,1.22117,0,0,0-1.19,1.39V34.84c0,.89.5,1.46,1.25,1.45.75,0,1.23-.57,1.23-1.47.01-1.54,0-3.09,0-4.63ZM30,27.48v7.44a1.24667,1.24667,0,1,0,2.48-.01q.015-7.38,0-14.76a1.76,1.76,0,0,0-.19-.78,1.18781,1.18781,0,0,0-1.36-.54A1.242,1.242,0,0,0,30,20.1Z"/>
      <path d="M32.52,63.74v-9.9h9.95v9.9Z"/>
      <path d="M39.99,28.8v6.02c0,.9-.48,1.47-1.23,1.47a1.28,1.28,0,0,1-1.25-1.45V20.19A1.22117,1.22117,0,0,1,38.7,18.8a35.76761,35.76761,0,0,1,4.27.04,4.89608,4.89608,0,0,1,4.51,5.3,5.00345,5.00345,0,0,1-5.03,4.66C41.65,28.81,40.86,28.8,39.99,28.8Zm.03-2.55c1,0,1.96.07,2.9-.02a2.47694,2.47694,0,0,0,.09-4.87,27.20871,27.20871,0,0,0-3-.02C40.02,22.97,40.02,24.58,40.02,26.25Z" fill="#fff" opacity="0.75" style="isolation: isolate"/>
      <path d="M30,27.48V20.1a1.21316,1.21316,0,0,1,.93-1.26,1.18781,1.18781,0,0,1,1.36.54,1.76,1.76,0,0,1,.19.78q.015,7.38,0,14.76a1.24667,1.24667,0,1,1-2.48.01Z" fill="#fff" opacity="0.75" style="isolation: isolate"/>
      <path d="M40.02,26.25V21.34a27.22664,27.22664,0,0,1,3,.02A2.41438,2.41438,0,0,1,45,23.83a2.44489,2.44489,0,0,1-2.07,2.4C41.98,26.31,41.03,26.25,40.02,26.25Z"/>
    </g>
  </g>
</svg>
