<svg id="Layer_1" data-name="Layer 1" xmlns="http://www.w3.org/2000/svg" viewBox="0 0 75.01461 75">
  <g id="shapes">
    <path id="square" d="M73.5,70.12506A3.171,3.171,0,0,1,70.5813,73.5H4.41978A3.171,3.171,0,0,1,1.5,70.12506V4.87494A3.17253,3.17253,0,0,1,4.41978,1.5H70.5813A3.17251,3.17251,0,0,1,73.5,4.87494Z" transform="translate(0.0073)" fill="#69c" stroke="#000" stroke-miterlimit="10" stroke-width="3" fill-rule="evenodd"/>
  </g>
  <g id="blockchain">
    <g>
      <path d="M27.1395,26.59825l-2.86425-2.94886a1.49264,1.49264,0,0,0-2.11058-.03759l-.03759.03759h0a1.60155,1.60155,0,0,0,0,2.21165l2.86425,2.94886a1.49266,1.49266,0,0,0,2.11059.03759l.03759-.03759h0A1.59757,1.59757,0,0,0,27.1395,26.59825Z" transform="translate(0.0073)" fill="none" stroke="#000" stroke-miterlimit="10"/>
      <line x1="31.50331" y1="33.29512" x2="25.77484" y2="27.39739" fill="none" stroke="#000" stroke-miterlimit="10"/>
      <line x1="23.52473" y1="25.08082" x2="17.79625" y2="19.18309" fill="none" stroke="#000" stroke-miterlimit="10"/>
    </g>
    <g>
      <path d="M13.581,11.596a14.31691,14.31691,0,0,1-4.64959-.73689,4.08076,4.08076,0,0,1-1.279-.70049A1.02116,1.02116,0,0,1,7.6582,8.41987a5.44916,5.44916,0,0,1,2.4416-1.04413,15.72163,15.72163,0,0,1,8.11977.28845,3.927,3.927,0,0,1,1.46609.78539A.997.997,0,0,1,19.67973,10.13a5.93037,5.93037,0,0,1-2.71461,1.1326A16.81574,16.81574,0,0,1,13.581,11.596Z" transform="translate(0.0073)"/>
      <path d="M20.15343,17.42863c0,.72311.00229,1.33733-.00072,1.95152a1.314,1.314,0,0,1-.69024,1.08635,6.20139,6.20139,0,0,1-2.3674.91871,15.70017,15.70017,0,0,1-8.12187-.36477,5.5,5.5,0,0,1-.76412-.33964,1.62618,1.62618,0,0,1-1.03749-1.73794,13.63059,13.63059,0,0,0,.00919-1.45543,8.01679,8.01679,0,0,0,4.81176,1.62108,16.03758,16.03758,0,0,0,5.9116-.448A4.45916,4.45916,0,0,0,20.15343,17.42863Z" transform="translate(0.0073)"/>
      <path d="M20.1502,14.0423c0,.74839.01727,1.40261-.006,2.05538a1.26336,1.26336,0,0,1-.66106.96976,6.3219,6.3219,0,0,1-2.48477.954,15.75349,15.75349,0,0,1-7.95686-.36113,6.266,6.266,0,0,1-.72972-.3126,1.68279,1.68279,0,0,1-1.13958-1.84055A12.61156,12.61156,0,0,0,7.18137,14.084a6.49557,6.49557,0,0,0,3.68035,1.5021,16.488,16.488,0,0,0,7.23228-.367A4.13641,4.13641,0,0,0,20.1502,14.0423Z" transform="translate(0.0073)"/>
      <path d="M7.17519,10.683A5.3154,5.3154,0,0,0,10.078,12.0549a16.43173,16.43173,0,0,0,8.17749-.27689,3.89754,3.89754,0,0,0,1.87569-1.10707c0,.765.0355,1.45767-.01294,2.14438a1.29568,1.29568,0,0,1-.72819.92646,7.49331,7.49331,0,0,1-2.95585,1.0017A15.95713,15.95713,0,0,1,9.32494,14.378a4.60759,4.60759,0,0,1-1.64173-.81408,1.27086,1.27086,0,0,1-.51311-1.09139C7.19136,11.90078,7.17519,11.32762,7.17519,10.683Z" transform="translate(0.0073)"/>
    </g>
    <g>
      <path d="M37.42462,34.73249a14.3167,14.3167,0,0,1-4.6496-.73689,4.08093,4.08093,0,0,1-1.279-.70048,1.02117,1.02117,0,0,1,.00582-1.73879,5.449,5.449,0,0,1,2.4416-1.04413,15.72152,15.72152,0,0,1,8.11977.28844,3.927,3.927,0,0,1,1.46609.78539.99705.99705,0,0,1-.00593,1.68046,5.93059,5.93059,0,0,1-2.71461,1.1326A16.81514,16.81514,0,0,1,37.42462,34.73249Z" transform="translate(0.0073)"/>
      <path d="M43.99706,40.56509c0,.72311.00229,1.33733-.00072,1.95152A1.314,1.314,0,0,1,43.3061,43.603a6.20151,6.20151,0,0,1-2.3674.91871,15.70017,15.70017,0,0,1-8.12187-.36477,5.49945,5.49945,0,0,1-.76412-.33964,1.62619,1.62619,0,0,1-1.03749-1.73794,13.6308,13.6308,0,0,0,.00919-1.45544A8.01668,8.01668,0,0,0,35.83617,42.245a16.03715,16.03715,0,0,0,5.9116-.448A4.45921,4.45921,0,0,0,43.99706,40.56509Z" transform="translate(0.0073)"/>
      <path d="M43.99383,37.17875c0,.7484.01727,1.40261-.006,2.05538a1.26332,1.26332,0,0,1-.66106.96976,6.322,6.322,0,0,1-2.48477.954,15.75359,15.75359,0,0,1-7.95686-.36114,6.266,6.266,0,0,1-.72972-.3126,1.68279,1.68279,0,0,1-1.13958-1.84054A12.61158,12.61158,0,0,0,31.025,37.2204a6.49562,6.49562,0,0,0,3.68035,1.50209,16.488,16.488,0,0,0,7.23228-.367A4.13646,4.13646,0,0,0,43.99383,37.17875Z" transform="translate(0.0073)"/>
      <path d="M31.01882,33.81945a5.31535,5.31535,0,0,0,2.90283,1.3719,16.43161,16.43161,0,0,0,8.17749-.27689,3.89754,3.89754,0,0,0,1.87569-1.10707c0,.765.0355,1.45767-.01294,2.14439a1.29571,1.29571,0,0,1-.72819.92646,7.4933,7.4933,0,0,1-2.95585,1.00169,15.95707,15.95707,0,0,1-7.10928-.36545,4.60776,4.60776,0,0,1-1.64173-.81408,1.27091,1.27091,0,0,1-.51311-1.09139C31.035,35.03724,31.01882,34.46408,31.01882,33.81945Z" transform="translate(0.0073)"/>
    </g>
    <g>
      <path d="M60.85487,58.08491a14.31664,14.31664,0,0,1-4.64959-.73689,4.08053,4.08053,0,0,1-1.279-.70048,1.02117,1.02117,0,0,1,.00583-1.73879,5.44916,5.44916,0,0,1,2.4416-1.04413,15.72159,15.72159,0,0,1,8.11976.28844,3.92686,3.92686,0,0,1,1.46609.78541.997.997,0,0,1-.00593,1.68045A5.93047,5.93047,0,0,1,64.239,57.75151,16.81459,16.81459,0,0,1,60.85487,58.08491Z" transform="translate(0.0073)"/>
      <path d="M67.42732,63.91751c0,.72311.00228,1.33733-.00073,1.95152a1.314,1.314,0,0,1-.69024,1.08635,6.20124,6.20124,0,0,1-2.36739.91871,15.70006,15.70006,0,0,1-8.12187-.36477,5.50058,5.50058,0,0,1-.76412-.33963,1.62621,1.62621,0,0,1-1.0375-1.73794,13.62817,13.62817,0,0,0,.0092-1.45544,8.01666,8.01666,0,0,0,4.81175,1.62109,16.0372,16.0372,0,0,0,5.91161-.448A4.4591,4.4591,0,0,0,67.42732,63.91751Z" transform="translate(0.0073)"/>
      <path d="M67.42409,60.53117c0,.7484.01727,1.40261-.006,2.05538a1.26331,1.26331,0,0,1-.66106.96976,6.32173,6.32173,0,0,1-2.48478.954,15.75367,15.75367,0,0,1-7.95685-.36112,6.26549,6.26549,0,0,1-.72973-.31262A1.68277,1.68277,0,0,1,54.44611,61.996a12.61158,12.61158,0,0,0,.00916-1.42321,6.49559,6.49559,0,0,0,3.68034,1.50209,16.48785,16.48785,0,0,0,7.23229-.367A4.13631,4.13631,0,0,0,67.42409,60.53117Z" transform="translate(0.0073)"/>
      <path d="M54.44907,57.17187a5.3153,5.3153,0,0,0,2.90284,1.37191,16.43172,16.43172,0,0,0,8.17749-.27689,3.89764,3.89764,0,0,0,1.87569-1.10708c0,.76505.03549,1.45767-.01294,2.14439a1.29576,1.29576,0,0,1-.72819.92646,7.49281,7.49281,0,0,1-2.95586,1.00169,15.95693,15.95693,0,0,1-7.10928-.36545,4.60759,4.60759,0,0,1-1.64173-.81408,1.27088,1.27088,0,0,1-.5131-1.09139C54.46524,58.38966,54.44907,57.8165,54.44907,57.17187Z" transform="translate(0.0073)"/>
    </g>
    <g>
      <path d="M51.45727,50.00378,48.593,47.05491a1.49264,1.49264,0,0,0-2.11059-.03759l-.03759.03759h0a1.6015,1.6015,0,0,0,0,2.21164l2.86424,2.94887a1.49266,1.49266,0,0,0,2.11059.03759l.03759-.03759h0A1.59949,1.59949,0,0,0,51.45727,50.00378Z" transform="translate(0.0073)" fill="none" stroke="#000" stroke-miterlimit="10"/>
      <line x1="55.82109" y1="56.70065" x2="50.09261" y2="50.80292" fill="none" stroke="#000" stroke-miterlimit="10"/>
      <line x1="47.84251" y1="48.48634" x2="42.11402" y2="42.58862" fill="none" stroke="#000" stroke-miterlimit="10"/>
    </g>
  </g>
</svg>
