<svg id="Layer_1" data-name="Layer 1" xmlns="http://www.w3.org/2000/svg" viewBox="0 0 75 75.43668">
  <g id="shapes">
    <path id="_Locate_" data-name=" Locate " d="M71.50327,33.53171C64.92686,50.43047,40.4297,70.9302,37.14837,73.5c0,0-30.56852-26.05263-34.35334-40.04925C-1.92666,15.98951,6.08349,1.5,29.78358,1.5H44.51316C68.21324,1.5,78.08652,16.61538,71.50327,33.53171Z" transform="translate(0)" fill="#69c" stroke="#000" stroke-miterlimit="10" stroke-width="3"/>
  </g>
  <g id="local_servers" data-name="local servers">
    <g>
      <g id="server">
        <path d="M34.541,21.94688q-.00075,6.711-.0014,13.42194c-.00122,1.92055-.65556,2.56546-2.60775,2.5677q-5.744.00656-11.488.00075c-1.71595-.00331-2.43068-.69892-2.43223-2.41217q-.01235-13.64943.00252-27.29884c.00188-1.70517.72379-2.39882,2.44477-2.40174q5.8577-.00993,11.71541.00135c1.63155.00394,2.362.7341,2.36458,2.35786Q34.55,15.06528,34.541,21.94688Z" transform="translate(0)" stroke="#fff" stroke-miterlimit="10" stroke-width="0.25"/>
        <path d="M26.24053,31.84977c1.474.0008,2.94811.01211,4.4219-.00471.59607-.0068,1.07875.10466,1.10048.81537.02347.76668-.46.91683-1.1191.91317-2.91011-.01612-5.82041-.01173-8.73059-.004-.58266.00155-1.05885-.06284-1.08367-.81384-.02673-.80917.46135-.917,1.1024-.911C23.368,31.85818,24.80432,31.849,26.24053,31.84977Z" transform="translate(0)" fill="#f7f7f7" stroke="#fff" stroke-miterlimit="10" stroke-width="0.25"/>
        <path d="M26.16019,22.08194c-1.43409-.00033-2.86824-.00793-4.30226.00329-.59729.00468-1.04462-.103-1.02917-.85151.01526-.73911.45993-.83545,1.05839-.833q4.41573.01816,8.83158.00008c.62383-.00312,1.04415.16434,1.043.86418-.00119.72951-.481.82754-1.07273.822C29.17951,22.07289,27.66982,22.08229,26.16019,22.08194Z" transform="translate(0)" fill="#fcfcfc" stroke="#fff" stroke-miterlimit="10" stroke-width="0.25"/>
        <path d="M26.4238,28.06629c1.4403.00139,2.88081.01512,4.32084-.00494.63138-.00882,1.05.17641,1.01667.88241-.02978.63179-.42368.79585-1.0046.79285q-4.49139-.02314-8.98293-.0016c-.59758.00264-.93334-.19182-.94421-.83556-.01113-.65884.3448-.84355.93219-.83881C23.31568,28.07316,24.86978,28.0649,26.4238,28.06629Z" transform="translate(0)" fill="#fcfcfc" stroke="#fff" stroke-miterlimit="10" stroke-width="0.25"/>
        <path d="M26.36324,24.23976c1.43426.00007,2.86868.01259,4.30269-.00594.58984-.00761,1.07572.07316,1.09472.80054.01819.69669-.38288.87464-1.01831.87075-2.98166-.01825-5.96353-.01219-8.94528-.002-.56412.00193-.95184-.11567-.96633-.79454-.01558-.72976.37778-.88333,1.00331-.87519C23.34355,24.253,24.85348,24.2397,26.36324,24.23976Z" transform="translate(0)" fill="#fdfdfd" stroke="#fff" stroke-miterlimit="10" stroke-width="0.25"/>
        <path d="M30.5946,10.43623c.70041.09812,1.16876.47657,1.14588,1.17767a1.10562,1.10562,0,0,1-2.21017-.06857C29.52816,10.85892,30.00539,10.57251,30.5946,10.43623Z" transform="translate(0)" fill="#f4f4f4" stroke="#fff" stroke-miterlimit="10" stroke-width="0.25"/>
      </g>
      <g id="server-2">
        <path d="M45.69449,29.95058q-.00075,6.711-.0014,13.42193c-.00123,1.92055-.65556,2.56546-2.60776,2.5677q-5.744.00655-11.48795.00075c-1.71594-.00331-2.43067-.69892-2.43223-2.41217q-.01233-13.6494.00253-27.29884c.00187-1.70517.72378-2.39882,2.44477-2.40174q5.8577-.00993,11.71541.00135c1.63154.00394,2.362.7341,2.36457,2.35786Q45.70343,23.069,45.69449,29.95058Z" transform="translate(0)" stroke="#fff" stroke-miterlimit="10" stroke-width="0.25"/>
        <path d="M37.394,39.85346c1.474.00081,2.94811.01211,4.42191-.00471.59607-.0068,1.07874.10467,1.10048.81537.02346.76669-.46.91682-1.1191.91318-2.91012-.01613-5.82041-.01174-8.7306-.004-.58266.00156-1.05885-.06284-1.08366-.81384-.02673-.80916.46134-.917,1.10239-.911C34.5215,39.86188,35.95779,39.85267,37.394,39.85346Z" transform="translate(0)" fill="#f7f7f7" stroke="#fff" stroke-miterlimit="10" stroke-width="0.25"/>
        <path d="M37.31366,30.08564c-1.4341-.00034-2.86825-.00793-4.30226.00329-.59729.00468-1.04463-.103-1.02917-.85152.01526-.7391.45993-.83545,1.05839-.833q4.41572.01816,8.83157.00008c.62383-.00312,1.04416.16434,1.043.86418-.00119.72951-.481.82754-1.07273.822C40.333,30.07658,38.82328,30.086,37.31366,30.08564Z" transform="translate(0)" fill="#fcfcfc" stroke="#fff" stroke-miterlimit="10" stroke-width="0.25"/>
        <path d="M37.57726,36.07c1.44031.00139,2.88082.01513,4.32085-.00494.63138-.00882,1.04995.17642,1.01667.88241-.02979.63179-.42369.79585-1.00461.79285q-4.49137-.02314-8.98292-.0016c-.59759.00264-.93334-.19181-.94422-.83556-.01112-.65884.34481-.84354.9322-.83881C34.46914,36.07686,36.02325,36.0686,37.57726,36.07Z" transform="translate(0)" fill="#fcfcfc" stroke="#fff" stroke-miterlimit="10" stroke-width="0.25"/>
        <path d="M37.51671,32.24346c1.43426.00007,2.86867.01258,4.30269-.00595.58983-.00761,1.07572.07316,1.09471.80054.01819.6967-.38287.87464-1.01831.87075-2.98166-.01824-5.96352-.01219-8.94528-.002-.56413.00193-.95184-.11568-.96632-.79454-.01558-.72976.37778-.88333,1.0033-.8752C34.497,32.25666,36.00694,32.24339,37.51671,32.24346Z" transform="translate(0)" fill="#fdfdfd" stroke="#fff" stroke-miterlimit="10" stroke-width="0.25"/>
        <path d="M41.74806,18.43992c.70042.09812,1.16876.47658,1.14589,1.17767a1.10563,1.10563,0,0,1-2.21018-.06857C40.68162,18.86262,41.15885,18.5762,41.74806,18.43992Z" transform="translate(0)" fill="#f4f4f4" stroke="#fff" stroke-miterlimit="10" stroke-width="0.25"/>
      </g>
      <g id="server-3">
        <path d="M55.077,38.78688q-.00075,6.711-.0014,13.42194c-.00122,1.92055-.65556,2.56546-2.60775,2.5677q-5.744.00654-11.48795.00075c-1.71595-.00331-2.43068-.69892-2.43223-2.41217q-.01234-13.64943.00252-27.29884c.00188-1.70517.72379-2.39882,2.44477-2.40174q5.85771-.00993,11.71541.00135c1.63155.00394,2.362.7341,2.36458,2.35786Q55.086,31.90528,55.077,38.78688Z" transform="translate(0)" stroke="#fff" stroke-miterlimit="10" stroke-width="0.25"/>
        <path d="M46.77653,48.68977c1.474.0008,2.94811.01211,4.4219-.00471.59607-.0068,1.07875.10466,1.10048.81537.02347.76668-.46.91683-1.1191.91317-2.91011-.01612-5.8204-.01173-8.73059-.004-.58266.00154-1.05885-.06284-1.08367-.81384-.02673-.80917.46135-.917,1.1024-.911C43.904,48.69818,45.34032,48.689,46.77653,48.68977Z" transform="translate(0)" fill="#f7f7f7" stroke="#fff" stroke-miterlimit="10" stroke-width="0.25"/>
        <path d="M46.69619,38.92194c-1.43409-.00033-2.86824-.00793-4.30226.00329-.59729.00468-1.04462-.103-1.02917-.85151.01526-.73911.45993-.83545,1.05839-.833q4.41573.01817,8.83158.00008c.62383-.00312,1.04415.16434,1.043.86418-.00119.72951-.481.82754-1.07273.822C49.71551,38.91289,48.20582,38.92229,46.69619,38.92194Z" transform="translate(0)" fill="#fcfcfc" stroke="#fff" stroke-miterlimit="10" stroke-width="0.25"/>
        <path d="M46.9598,44.90629c1.4403.00139,2.88081.01512,4.32084-.00494.63138-.00882,1.05.17641,1.01667.88241-.02978.63179-.42368.79585-1.0046.79285q-4.49139-.02314-8.98293-.0016c-.59758.00264-.93334-.19182-.94421-.83556-.01113-.65884.3448-.84355.93219-.83881C43.85168,44.91316,45.40578,44.9049,46.9598,44.90629Z" transform="translate(0)" fill="#fcfcfc" stroke="#fff" stroke-miterlimit="10" stroke-width="0.25"/>
        <path d="M46.89924,41.07976c1.43426.00007,2.86868.01259,4.30269-.00594.58984-.00761,1.07572.07316,1.09472.80054.01818.69669-.38289.87464-1.01831.87075-2.98166-.01825-5.96354-.01219-8.94529-.002-.56412.00193-.95184-.11566-.96633-.79454-.01558-.72976.37778-.88333,1.00331-.87519C43.87955,41.093,45.38948,41.0797,46.89924,41.07976Z" transform="translate(0)" fill="#fdfdfd" stroke="#fff" stroke-miterlimit="10" stroke-width="0.25"/>
        <path d="M51.1306,27.27623c.70041.09812,1.16876.47657,1.14588,1.17767a1.10562,1.10562,0,0,1-2.21017-.06857C50.06416,27.69892,50.54139,27.41251,51.1306,27.27623Z" transform="translate(0)" fill="#f4f4f4" stroke="#fff" stroke-miterlimit="10" stroke-width="0.25"/>
      </g>
    </g>
  </g>
</svg>
