<svg id="Layer_1" data-name="Layer 1" xmlns="http://www.w3.org/2000/svg" viewBox="0 0 75.01461 75">
  <g id="shapes">
    <path id="square" d="M73.5,70.12506A3.171,3.171,0,0,1,70.5813,73.5H4.41978A3.171,3.171,0,0,1,1.5,70.12506V4.87494A3.17253,3.17253,0,0,1,4.41978,1.5H70.5813A3.17251,3.17251,0,0,1,73.5,4.87494Z" transform="translate(0.0073)" fill="#69c" stroke="#000" stroke-miterlimit="10" stroke-width="3" fill-rule="evenodd"/>
  </g>
  <g id="server">
    <g id="building">
      <g>
        <path d="M60.42093,64.20079H14.57907V59.97656h4.16744V14.20079h37.507V60.05011H60.421ZM29.21111,62.04344h6.12257V53.83975H29.21111Zm16.54244.03534v-8.2403H39.64666v8.2403ZM27.059,18.45462H22.984V22.455h4.075Zm4.23377,4.00346H35.331V18.42514H31.2927Zm12.38554.029V18.4495h-4.04v4.03755Zm4.28134-.00313h4.067V18.436h-4.067ZM22.99,26.74468v4.03755h4.0337V26.74468Zm8.31179-.00013v4.06076h4.04313V26.74455Zm12.36968,4.08263V26.75292H39.645v4.07426Zm8.36435-.00073V26.76017H47.98718v4.06628ZM22.96889,35.07964v4.05728h4.03944V35.07964Zm8.336.00134v4.05458h4.037V35.081Zm12.38763,4.07024V35.102H39.66079v4.04926Zm8.328.02993V35.10884h-4.018v4.07231ZM27.0434,43.4494h-4.075v4.02114h4.075Zm4.26408-.03238v4.04926h4.03173V43.417Zm12.36572,4.0751V43.41786H39.64332v4.07426Zm4.29227-.014H52.0208V43.44188H47.96547Z" transform="translate(0.0073)"/>
        <path d="M29.21111,62.04344V53.83975h6.12257v8.20369Z" transform="translate(0.0073)" fill="#fff" opacity="0.75" style="isolation: isolate"/>
        <path d="M45.75355,62.07878H39.64666v-8.2403h6.10689Z" transform="translate(0.0073)" fill="#fff" opacity="0.75" style="isolation: isolate"/>
        <path d="M27.059,18.45462V22.455H22.984V18.45462Z" transform="translate(0.0073)" fill="#fff" opacity="0.75" style="isolation: isolate"/>
        <path d="M31.29274,22.45808V18.42514H35.331v4.03294Z" transform="translate(0.0073)" fill="#fff" opacity="0.75" style="isolation: isolate"/>
        <path d="M43.67828,22.48705h-4.04V18.4495h4.04Z" transform="translate(0.0073)" fill="#fff" opacity="0.75" style="isolation: isolate"/>
        <path d="M47.95962,22.48392V18.436h4.067v4.0479Z" transform="translate(0.0073)" fill="#fff" opacity="0.75" style="isolation: isolate"/>
        <path d="M22.99,26.74468h4.0337v4.03755H22.99Z" transform="translate(0.0073)" fill="#fff" opacity="0.75" style="isolation: isolate"/>
        <path d="M31.3018,26.74455h4.04313v4.06076H31.3018Z" transform="translate(0.0073)" fill="#fff" opacity="0.75" style="isolation: isolate"/>
        <path d="M43.67148,30.82718H39.645V26.75292h4.02644Z" transform="translate(0.0073)" fill="#fff" opacity="0.75" style="isolation: isolate"/>
        <path d="M52.03583,30.82645H47.98718V26.76017h4.04865Z" transform="translate(0.0073)" fill="#fff" opacity="0.75" style="isolation: isolate"/>
        <path d="M22.96889,35.07964h4.03944v4.05728H22.96889Z" transform="translate(0.0073)" fill="#fff" opacity="0.75" style="isolation: isolate"/>
        <path d="M31.30488,35.081h4.037v4.05458h-4.037Z" transform="translate(0.0073)" fill="#fff" opacity="0.75" style="isolation: isolate"/>
        <path d="M43.69251,39.15122H39.66079V35.102h4.03172Z" transform="translate(0.0073)" fill="#fff" opacity="0.75" style="isolation: isolate"/>
        <path d="M52.02046,39.18115H48.00252V35.10884h4.01794Z" transform="translate(0.0073)" fill="#fff" opacity="0.75" style="isolation: isolate"/>
        <path d="M27.0434,43.4494v4.02114h-4.075V43.4494Z" transform="translate(0.0073)" fill="#fff" opacity="0.75" style="isolation: isolate"/>
        <path d="M31.30748,43.417h4.03173v4.04926H31.30748Z" transform="translate(0.0073)" fill="#fff" opacity="0.75" style="isolation: isolate"/>
        <path d="M43.6732,47.49212H39.64332V43.41786H43.6732Z" transform="translate(0.0073)" fill="#fff" opacity="0.75" style="isolation: isolate"/>
        <path d="M47.96547,47.47809V43.44188H52.0208v4.03621Z" transform="translate(0.0073)" fill="#fff" opacity="0.75" style="isolation: isolate"/>
      </g>
      <path d="M63.41989,62.74633a.45527.45527,0,0,1,.00038-.06365.85023.85023,0,0,0-.55738-1.02454,2.83109,2.83109,0,0,1-1.3032-3.37226c.57222-1.65318,1.21647-3.28148,1.83347-4.91907a.59453.59453,0,0,1,1.13476-.02221c.65882,1.60995,1.35386,3.20676,1.95512,4.83807a2.91417,2.91417,0,0,1-1.59584,3.63544.36008.36008,0,0,0-.25705.38143c.01128.40316.00682.80692.00179,1.21034a.63241.63241,0,0,1-.54377.6748A.61046.61046,0,0,1,63.444,63.51l-.00007-.00128a5.66449,5.66449,0,0,1-.00649-.76235Zm.58975-7.45209c-.05944.07016-.10629.10369-.12313.14849-.40279,1.0718-.831,2.13527-1.19205,3.22107a1.64146,1.64146,0,0,0,.51262,1.79185,1.12361,1.12361,0,0,0,1.58867.03307l.01462-.01429a1.83545,1.83545,0,0,0,.44785-2.20178c-.35624-.89681-.72825-1.78737-1.09562-2.67973C64.12379,55.49869,64.0698,55.41072,64.00964,55.29424Z" transform="translate(0.0073)"/>
      <path d="M10.351,62.74633a.45373.45373,0,0,1,.00038-.06365A.85026.85026,0,0,0,9.794,61.65814a2.83108,2.83108,0,0,1-1.3032-3.37226c.57221-1.65318,1.21647-3.28148,1.83347-4.91907A.59453.59453,0,0,1,11.459,53.3446c.65881,1.60995,1.35386,3.20676,1.95512,4.83807a2.91417,2.91417,0,0,1-1.59584,3.63544.36006.36006,0,0,0-.257.38143c.01128.40316.00682.80692.00178,1.21034a.63238.63238,0,0,1-.54377.6748.61045.61045,0,0,1-.64419-.57474l-.00007-.00126a5.6612,5.6612,0,0,1-.00649-.76235Zm.58974-7.45209c-.05944.07016-.10628.10369-.12312.14849-.40279,1.0718-.831,2.13527-1.192,3.22107a1.64146,1.64146,0,0,0,.51262,1.79185,1.1236,1.1236,0,0,0,1.58866.03307l.01463-.01429a1.83548,1.83548,0,0,0,.44785-2.20178c-.35625-.89681-.72827-1.78737-1.09564-2.67973-.03882-.09423-.09281-.1822-.153-.29868Z" transform="translate(0.0073)"/>
    </g>
    <path d="M42.75864,58.50116c.53269-.02386,1.06669.003,1.59961-.00571.67239-.011,1.17639.75853,1.15718,1.66962-.04693,2.22576,1.33905,3.81433,2.9106,3.418,1.08106-.27262,1.9-1.60052,1.94246-3.17137.015-.55646.0024-1.1143.0024-1.67288.08595-.0355.15242-.06238.21864-.0904a3.29249,3.29249,0,0,0,1.8473-2.49748c.04618-.19783.07415-.40347.11054-.6055V53.14185c-.089-.26166-.24148-.36175-.45056-.34765-.18443.01243-.36966.0026-.576.0026,0-.79121.00527-1.54747-.00174-2.30352-.00522-.56108-.40909-.89128-.74863-.62239a.88263.88263,0,0,0-.26317.72845c-.00231.50575-.00075,1.01154-.0008,1.51731v.65419H49.16529v-.58776c-.00021-.55846.005-1.117-.00243-1.67533-.006-.44863-.19759-.71944-.49145-.72312-.29432-.00368-.50741.29485-.51044.73877-.00509.74552-.0014,1.49116-.0014,2.27614-.23714,0-.453-.003-.66886.00087a.36446.36446,0,0,0-.34959.37875q.00075.01837.00333.03661a9.73037,9.73037,0,0,0,.53733,4.28626,2.04958,2.04958,0,0,0,1.25543,1.08681c.27364.07882.37466.12587.36687.40128-.01161.41034-.013.82219-.00161,1.23255.03421,1.23365-.69,1.9657-1.317,1.97123-.788.00693-1.3764-.79843-1.40081-1.937a3.19032,3.19032,0,0,0-1.758-3.0898,2.8,2.8,0,0,0-.82869-.119c-.41147-.01891-.82456.01654-1.23545-.01164" transform="translate(0.0073)"/>
    <g id="server-2">
      <path d="M46.46657,49.65049q-.00082,7.27932-.00153,14.55862c-.00132,2.08319-.71107,2.78273-2.8286,2.78515q-6.23043.00714-12.46084.00081c-1.86127-.00359-2.63653-.75811-2.63822-2.61646q-.01338-14.80536.00274-29.61073c.002-1.84958.78508-2.602,2.65182-2.60514q6.35376-.01078,12.70757.00146c1.76972.00428,2.562.79627,2.56483,2.55754Q46.47627,42.18612,46.46657,49.65049Z" transform="translate(0.0073)" stroke="#fff" stroke-miterlimit="10"/>
      <path d="M37.46311,60.80492c1.59882.00087,3.19778.01313,4.79639-.00511.64655-.00738,1.17011.11353,1.19368.88442.02545.83161-.49893.99447-1.21387.99051-3.15657-.01749-6.31334-.01273-9.47-.00432-.632.00168-1.14852-.06816-1.17544-.88277-.029-.87769.50042-.99463,1.19576-.98814C34.34735,60.814,35.90528,60.80406,37.46311,60.80492Z" transform="translate(0.0073)" fill="#f7f7f7" stroke="#fff" stroke-miterlimit="10"/>
      <path d="M37.376,50.20987c-1.55555-.00036-3.11116-.0086-4.66662.00357-.64787.00507-1.13309-.11177-1.11633-.92363.01656-.8017.49888-.90621,1.148-.90354q4.78969.01968,9.57952.00009c.67666-.00339,1.13258.17825,1.13134.93737-.00129.79129-.52174.89761-1.16358.89162C40.651,50.20005,39.01345,50.21024,37.376,50.20987Z" transform="translate(0.0073)" fill="#fcfcfc" stroke="#fff" stroke-miterlimit="10"/>
      <path d="M37.66191,56.701c1.56228.00151,3.12478.0164,4.68676-.00536.68486-.00957,1.13888.19135,1.10278.95714-.03231.6853-.45957.86325-1.08969.86q-4.87174-.0251-9.74367-.00173c-.6482.00286-1.01239-.20806-1.02418-.90632-.01207-.71464.374-.915,1.01113-.90985C34.29056,56.70848,35.97628,56.69951,37.66191,56.701Z" transform="translate(0.0073)" fill="#fcfcfc" stroke="#fff" stroke-miterlimit="10"/>
      <path d="M37.59622,52.55043c1.55573.00008,3.11162.01365,4.66708-.00645.63979-.00825,1.16682.07935,1.18742.86834.01974.7557-.41529.94871-1.10455.94449-3.23417-.01979-6.46856-.01322-9.70284-.0022-.61189.0021-1.03245-.12547-1.04816-.86184-.0169-.79156.40977-.95812,1.08827-.94931C34.32079,52.56476,35.9586,52.55036,37.59622,52.55043Z" transform="translate(0.0073)" fill="#fdfdfd" stroke="#fff" stroke-miterlimit="10"/>
      <path d="M42.18592,37.57789c.75973.10643,1.26774.51694,1.24293,1.27741a1.19926,1.19926,0,0,1-2.39735-.07438C41.02917,38.03638,41.54681,37.72571,42.18592,37.57789Z" transform="translate(0.0073)" fill="#f4f4f4" stroke="#fff" stroke-miterlimit="10"/>
    </g>
  </g>
</svg>
