<svg id="Layer_1" data-name="Layer 1" xmlns="http://www.w3.org/2000/svg" viewBox="0 0 75.01461 75">
  <g id="shapes">
    <path id="square" d="M73.5,70.12506A3.171,3.171,0,0,1,70.5813,73.5H4.41978A3.171,3.171,0,0,1,1.5,70.12506V4.87494A3.17253,3.17253,0,0,1,4.41978,1.5H70.5813A3.17251,3.17251,0,0,1,73.5,4.87494Z" transform="translate(0.0073)" fill="#69c" stroke="#000" stroke-miterlimit="10" stroke-width="3" fill-rule="evenodd"/>
  </g>
  <g id="search">
    <g>
      <path d="M45.90875,38.982l-6.77788,7.05264c-1.28565-1.91461-3.00745-1.73075-4.90146-1.177A15.28555,15.28555,0,0,1,15.13827,34.71743q-.13622-.44484-.24517-.89734A15.7962,15.7962,0,0,1,26.16794,14.53492l.06016-.01564A15.36916,15.36916,0,0,1,44.85945,25.7128q.12042.48285.20939.97273a18.62168,18.62168,0,0,1-.258,7.24908C44.3351,36.0327,43.80466,37.77021,45.90875,38.982ZM29.9507,18.25925A11.60609,11.60609,0,1,0,41.40783,30.01241l.00087-.1065a11.41156,11.41156,0,0,0-11.174-11.64434Q30.09275,18.25865,29.9507,18.25925Z" transform="translate(0.0073)"/>
      <path d="M39.13087,46.03463c2.36157-2.64965,4.25193-4.58217,6.77788-7.05264,3.06187,3.228,10.21554,10.28629,13.36776,13.666,1.69163,1.81366,1.5113,4.43855-.346,6.401-1.83328,1.93712-4.56591,2.32473-6.331.66358C49.19772,56.51126,42.50287,49.35005,39.13087,46.03463Z" transform="translate(0.0073)"/>
      <path d="M29.9507,18.25925A11.41157,11.41157,0,0,1,41.411,29.62186q.0006.142-.00232.284a11.51113,11.51113,0,1,1-11.458-11.64666Z" transform="translate(0.0073)" fill="#fff" opacity="0.75" style="isolation: isolate"/>
    </g>
  </g>
</svg>
