<svg id="Layer_1" data-name="Layer 1" xmlns="http://www.w3.org/2000/svg" viewBox="0 0 75 75">
  <g id="shapes">
    <path id="square" d="M73.5,70.13a3.16553,3.16553,0,0,1-2.92,3.37H4.42A3.17186,3.17186,0,0,1,1.5,70.13V4.87A3.17186,3.17186,0,0,1,4.42,1.5H70.58A3.17186,3.17186,0,0,1,73.5,4.87Z" fill="#69c" stroke="#000" stroke-miterlimit="10" stroke-width="3" fill-rule="evenodd"/>
  </g>
  <g id="state_machine" data-name="state machine">
    <g>
      <g>
        <path d="M12.42,53.71a9.291,9.291,0,0,1-.01-1.9c0-.04-.05-.09-.09-.11-.33-.15-.67-.28-1.01-.43a.79174.79174,0,0,1-.52-.89,1.12236,1.12236,0,0,1,.08-.26c.4-.96.8-1.91,1.2-2.87a.79292.79292,0,0,1,1.06-.43c.38.16.77.32,1.13.48.27-.29.53-.57.8-.84a5.36666,5.36666,0,0,1,.51-.44c.07-.06.09-.11.05-.19-.14-.33-.28-.66-.42-1a.81162.81162,0,0,1,.48-1.13c.94-.38,1.88-.77,2.82-1.15a.81517.81517,0,0,1,1.16.49c.14.33.27.66.4.99a.12975.12975,0,0,0,.14.09,8.336,8.336,0,0,1,1.73,0,.13564.13564,0,0,0,.17-.1c.14-.34.28-.67.42-1.01a.79008.79008,0,0,1,1.08-.45c.97.4,1.94.81,2.9,1.22a.79426.79426,0,0,1,.45,1.08c-.14.34-.28.68-.43,1.02a.13209.13209,0,0,0,.04.18,8.07833,8.07833,0,0,1,1.23,1.25c.05.06.08.07.15.04.34-.14.67-.28,1.01-.42a.80519.80519,0,0,1,1.13.48c.39.96.78,1.91,1.17,2.87a.80348.80348,0,0,1-.44,1.08c-.34.15-.69.29-1.04.42a.13.13,0,0,0-.1.16,7.7,7.7,0,0,1-.02,1.73.11841.11841,0,0,0,.09.15c.36.14.71.29,1.07.45a.79089.79089,0,0,1,.43,1.03c-.41.99-.83,1.99-1.25,2.98a.76212.76212,0,0,1-.84.47,1.07768,1.07768,0,0,1-.29-.09c-.33-.13-.65-.27-.97-.41-.06-.02-.11-.04-.16.02a8.8258,8.8258,0,0,1-1.35,1.31c.1.23.2.47.3.7.06.13.11.26.16.4a.79837.79837,0,0,1-.47,1.13c-.63.26-1.25.51-1.88.77-.32.13-.63.26-.95.39a.81259.81259,0,0,1-1.13-.46c-.14-.33-.28-.66-.41-1a.13709.13709,0,0,0-.17-.1,8.14542,8.14542,0,0,1-1.71-.01.13283.13283,0,0,0-.16.09c-.13.33-.27.66-.41.98a.8146.8146,0,0,1-1.15.47c-.94-.39-1.88-.79-2.82-1.18a.81751.81751,0,0,1-.47-1.14c.14-.33.28-.66.42-1a.12522.12522,0,0,0-.04-.17,7.82063,7.82063,0,0,1-1.21-1.23.12237.12237,0,0,0-.18-.04c-.33.14-.66.28-1,.41a.814.814,0,0,1-1.13-.47c-.39-.94-.78-1.89-1.16-2.83a.808.808,0,0,1,.49-1.15C11.69,53.99,12.06,53.85,12.42,53.71Zm12.7,6.87-.33-.81a.80269.80269,0,0,1,.33-1.11,7.23959,7.23959,0,0,0,1.83-1.79.80684.80684,0,0,1,1.11-.31c.26.11.53.22.8.33.21-.49.41-.98.62-1.47-.05-.02-.09-.04-.13-.06-.23-.1-.46-.19-.68-.29a.82178.82178,0,0,1-.54-1.02,6.888,6.888,0,0,0,.03-2.52.84924.84924,0,0,1,.6-1.07c.25-.1.5-.2.74-.29-.2-.51-.4-.99-.6-1.5-.27.11-.53.23-.8.34a.83116.83116,0,0,1-1.1-.33,6.8851,6.8851,0,0,0-1.79-1.82.84285.84285,0,0,1-.34-1.14l.33-.78c-.5-.21-.98-.41-1.46-.61-.01.02-.02.02-.02.03-.11.27-.22.54-.34.8a.81411.81411,0,0,1-.96.51,7.15546,7.15546,0,0,0-2.65.01.87839.87839,0,0,1-.28.01.7951.7951,0,0,1-.66-.52c-.12-.29-.23-.58-.34-.86-.51.21-1,.41-1.48.6.1.26.2.53.31.79a.8243.8243,0,0,1-.31,1.11,7.00334,7.00334,0,0,0-1.87,1.85.80672.80672,0,0,1-1.01.3c-.25-.1-.49-.2-.73-.31-.05-.02-.09-.03-.14-.05-.21.5-.41.98-.61,1.46.01.01.02.02.03.02.28.12.55.23.83.35a.80491.80491,0,0,1,.5.9,7.16377,7.16377,0,0,0,.01,2.73.785.785,0,0,1-.27.76,1.02444,1.02444,0,0,1-.29.16c-.27.12-.55.22-.8.32.21.51.41,1,.61,1.49.26-.11.53-.22.8-.33a.80674.80674,0,0,1,1.09.32,7.42475,7.42475,0,0,0,1.86,1.89.79975.79975,0,0,1,.29.99c-.1.25-.21.5-.31.74a.50234.50234,0,0,0-.05.13c.5.21.98.41,1.47.62.12-.29.24-.57.35-.85a.80594.80594,0,0,1,.94-.51,6.58759,6.58759,0,0,0,1.77.1c.31-.03.62-.07.93-.11a.79773.79773,0,0,1,.89.5c.12.3.23.59.35.88C24.14,60.98,24.62,60.79,25.12,60.58Z" opacity="0.75" style="isolation: isolate"/>
        <path d="M25.12,60.58c-.5.2-.99.4-1.5.61-.11-.29-.23-.59-.35-.88a.79169.79169,0,0,0-.89-.5c-.31.04-.62.09-.93.11a6.56513,6.56513,0,0,1-1.77-.1.80072.80072,0,0,0-.94.51c-.12.28-.23.56-.35.85-.49-.21-.97-.41-1.47-.62a1.12151,1.12151,0,0,0,.05-.13c.1-.25.21-.5.31-.74a.78835.78835,0,0,0-.29-.99,7.26725,7.26725,0,0,1-1.86-1.89.80417.80417,0,0,0-1.09-.32c-.27.11-.54.23-.8.33-.2-.5-.4-.98-.61-1.49.25-.1.53-.21.8-.32a1.02444,1.02444,0,0,0,.29-.16.785.785,0,0,0,.27-.76,7.37066,7.37066,0,0,1-.01-2.73.7885.7885,0,0,0-.5-.9c-.28-.12-.55-.23-.83-.35-.01,0-.01-.01-.03-.02.2-.48.4-.96.61-1.46.05.02.09.03.14.05.24.1.49.21.73.31a.79575.79575,0,0,0,1.01-.3,7.15031,7.15031,0,0,1,1.87-1.85.81541.81541,0,0,0,.31-1.11c-.11-.26-.21-.53-.31-.79.48-.2.97-.4,1.48-.6.11.28.22.57.34.86a.779.779,0,0,0,.66.52,1.31356,1.31356,0,0,0,.28-.01,7.37526,7.37526,0,0,1,2.65-.01.81411.81411,0,0,0,.96-.51c.12-.27.23-.54.34-.8,0-.01.01-.01.02-.03.48.2.97.4,1.46.61l-.33.78a.83426.83426,0,0,0,.34,1.14,7.04018,7.04018,0,0,1,1.79,1.82.82558.82558,0,0,0,1.1.33c.27-.11.53-.22.8-.34.2.5.4.99.6,1.5-.23.09-.48.2-.74.29a.842.842,0,0,0-.6,1.07,6.888,6.888,0,0,1-.03,2.52.83067.83067,0,0,0,.54,1.02c.23.1.46.19.68.29.04.02.09.04.13.06-.21.5-.41.98-.62,1.47-.27-.11-.53-.22-.8-.33a.8154.8154,0,0,0-1.11.31,7.07947,7.07947,0,0,1-1.83,1.79.80269.80269,0,0,0-.33,1.11A6.18414,6.18414,0,0,1,25.12,60.58Zm-7.76-9.37a4.00113,4.00113,0,1,0,5.33-2.1A4.02024,4.02024,0,0,0,17.36,51.21Z" fill="#fff" opacity="0.75" style="isolation: isolate"/>
        <path d="M17.36,51.21a4.00388,4.00388,0,1,1,2.02,5.17A4.0264,4.0264,0,0,1,17.36,51.21Zm1.48.61a2.40109,2.40109,0,1,0,3.21-1.26A2.39021,2.39021,0,0,0,18.84,51.82Z" opacity="0.75" style="isolation: isolate"/>
      </g>
      <g>
        <path d="M48.13,56.97a9.45875,9.45875,0,0,1-.74-1.75.164.164,0,0,0-.12-.07c-.36-.01-.73,0-1.09,0a.80426.80426,0,0,1-.83-.62,1.22873,1.22873,0,0,1-.02-.27V51.15a.80039.80039,0,0,1,.81-.81h1.23c.14-.37.27-.73.42-1.08.09-.21.19-.41.3-.61a.14426.14426,0,0,0-.03-.2c-.26-.25-.51-.5-.77-.76a.81308.81308,0,0,1,.01-1.23c.72-.72,1.44-1.43,2.15-2.15a.8247.8247,0,0,1,1.26,0c.25.25.5.5.75.76a.116.116,0,0,0,.17.02,7.85369,7.85369,0,0,1,1.59-.66.14366.14366,0,0,0,.12-.16c-.01-.36,0-.73,0-1.09a.7902.7902,0,0,1,.82-.83h3.15a.78476.78476,0,0,1,.83.82c.01.37,0,.74,0,1.11a.13256.13256,0,0,0,.1.15,7.85573,7.85573,0,0,1,1.61.68c.06.04.1.03.16-.02.25-.26.51-.52.77-.77a.806.806,0,0,1,1.23,0l2.19,2.19a.79516.79516,0,0,1,.01,1.16c-.26.27-.52.53-.79.79a.14011.14011,0,0,0-.03.19,8.25722,8.25722,0,0,1,.65,1.6.12443.12443,0,0,0,.14.11h1.16a.78319.78319,0,0,1,.79.78v3.23a.77251.77251,0,0,1-.59.76,1.52625,1.52625,0,0,1-.3.03H64.19c-.06,0-.11,0-.14.08a8.42409,8.42409,0,0,1-.74,1.73c.18.17.36.35.55.53l.3.3a.806.806,0,0,1,0,1.23c-.48.48-.96.96-1.44,1.43-.24.24-.48.49-.73.73a.80921.80921,0,0,1-1.22.01c-.26-.25-.51-.5-.77-.76a.14426.14426,0,0,0-.2-.03,8.78258,8.78258,0,0,1-1.58.66.12443.12443,0,0,0-.11.14v1.07a.81433.81433,0,0,1-.88.88H54.17a.80394.80394,0,0,1-.87-.87V61.21c0-.08-.02-.12-.11-.14a8.87867,8.87867,0,0,1-1.59-.66.14012.14012,0,0,0-.19.03c-.25.26-.51.51-.76.76a.80921.80921,0,0,1-1.22,0l-2.16-2.16a.80746.80746,0,0,1,.01-1.25C47.57,57.51,47.85,57.24,48.13,56.97ZM62.51,58.4c-.21-.21-.42-.41-.62-.62a.81516.81516,0,0,1-.13-1.15,7.01529,7.01529,0,0,0,.99-2.36.8116.8116,0,0,1,.9-.72h.86v-1.6h-.88a.81685.81685,0,0,1-.89-.73,6.91455,6.91455,0,0,0-.95-2.34.84648.84648,0,0,1,.14-1.22c.2-.19.39-.38.57-.55-.38-.39-.75-.76-1.13-1.15-.2.21-.4.42-.61.62a.82.82,0,0,1-1.14.12,6.7493,6.7493,0,0,0-2.35-.98.82793.82793,0,0,1-.75-.92v-.84H54.94a.07559.07559,0,0,0-.01.04v.87a.80617.80617,0,0,1-.68.84,7.21294,7.21294,0,0,0-2.44,1.03.8755.8755,0,0,1-.26.12.79838.79838,0,0,1-.81-.23c-.22-.22-.44-.45-.64-.66L48.97,47.1c.19.2.39.41.59.61a.82464.82464,0,0,1,.14,1.15,7.00849,7.00849,0,0,0-1.01,2.43.80043.80043,0,0,1-.82.66h-.79a.75687.75687,0,0,0-.15.01v1.58a.0438.0438,0,0,1,.03.01h.9a.79883.79883,0,0,1,.81.64,7.34091,7.34091,0,0,0,1.06,2.51.74777.74777,0,0,1,.04.8,1.04359,1.04359,0,0,1-.21.26l-.61.61,1.14,1.14c.2-.2.4-.41.61-.62a.79579.79579,0,0,1,1.12-.12,7.539,7.539,0,0,0,2.45,1.02.78913.78913,0,0,1,.65.8v.95h1.6v-.92a.80318.80318,0,0,1,.67-.83,6.15245,6.15245,0,0,0,1.67-.59c.28-.15.54-.31.81-.46a.77918.77918,0,0,1,1.01.12c.23.23.45.46.66.68C61.75,59.15,62.12,58.78,62.51,58.4Z" opacity="0.75" style="isolation: isolate"/>
        <path d="M62.51,58.4c-.38.38-.75.75-1.15,1.14-.22-.22-.44-.45-.66-.68a.77918.77918,0,0,0-1.01-.12c-.27.16-.54.32-.81.46a6.2735,6.2735,0,0,1-1.67.59.80318.80318,0,0,0-.67.83v.92h-1.6v-.95a.78913.78913,0,0,0-.65-.8,7.327,7.327,0,0,1-2.45-1.02.80292.80292,0,0,0-1.12.12c-.21.21-.41.42-.61.62l-1.14-1.14c.19-.19.41-.39.61-.61a1.26175,1.26175,0,0,0,.21-.26.76776.76776,0,0,0-.04-.8,7.34091,7.34091,0,0,1-1.06-2.51.79883.79883,0,0,0-.81-.64h-.9a.03674.03674,0,0,1-.03-.01V51.96c.05,0,.1-.01.15-.01h.79a.80949.80949,0,0,0,.82-.66,7.12216,7.12216,0,0,1,1.01-2.43.82464.82464,0,0,0-.14-1.15c-.2-.2-.4-.41-.59-.61l1.13-1.13c.21.21.42.44.64.66a.79838.79838,0,0,0,.81.23.8755.8755,0,0,0,.26-.12,7.21294,7.21294,0,0,1,2.44-1.03.80617.80617,0,0,0,.68-.84V44a.07561.07561,0,0,1,.01-.04h1.58v.84a.83342.83342,0,0,0,.75.92,6.94428,6.94428,0,0,1,2.35.98.82.82,0,0,0,1.14-.12c.2-.21.41-.41.61-.62.38.39.75.76,1.13,1.15-.18.17-.37.37-.57.55a.84556.84556,0,0,0-.14,1.22,6.83315,6.83315,0,0,1,.95,2.34.82271.82271,0,0,0,.89.73h.88v1.6h-.86a.8116.8116,0,0,0-.9.72,7.015,7.015,0,0,1-.99,2.36.80552.80552,0,0,0,.13,1.15C62.09,57.99,62.3,58.19,62.51,58.4ZM51.72,52.76a4.00141,4.00141,0,1,0,4.11-4.01A4.02393,4.02393,0,0,0,51.72,52.76Z" fill="#fff" opacity="0.75" style="isolation: isolate"/>
        <path d="M51.72,52.76a4.0012,4.0012,0,1,1,3.86,4A4.01964,4.01964,0,0,1,51.72,52.76Zm1.6-.01a2.40532,2.40532,0,0,0,4.81.05,2.40522,2.40522,0,1,0-4.81-.05Z" opacity="0.75" style="isolation: isolate"/>
      </g>
      <g>
        <path d="M30.92,25.27a9.45875,9.45875,0,0,1-.74-1.75.164.164,0,0,0-.12-.07c-.36-.01-.73,0-1.09,0a.80426.80426,0,0,1-.83-.62,1.22873,1.22873,0,0,1-.02-.27V19.45a.80039.80039,0,0,1,.81-.81h1.23c.14-.37.27-.73.42-1.08.09-.21.19-.41.3-.61a.14426.14426,0,0,0-.03-.2c-.26-.25-.51-.5-.77-.76a.81308.81308,0,0,1,.01-1.23c.72-.72,1.44-1.43,2.15-2.15a.8247.8247,0,0,1,1.26,0c.25.25.5.5.75.76a.116.116,0,0,0,.17.02,7.85393,7.85393,0,0,1,1.59-.66.14366.14366,0,0,0,.12-.16c-.01-.36,0-.73,0-1.09a.79019.79019,0,0,1,.82-.83H40.1a.78476.78476,0,0,1,.83.82c.01.37,0,.74,0,1.11a.13255.13255,0,0,0,.1.15,7.8566,7.8566,0,0,1,1.61.68c.06.04.1.03.16-.02.25-.26.51-.52.77-.77a.80605.80605,0,0,1,1.23,0l2.19,2.19A.79514.79514,0,0,1,47,15.97c-.26.27-.52.53-.79.79a.14012.14012,0,0,0-.03.19,8.25722,8.25722,0,0,1,.65,1.6.12444.12444,0,0,0,.14.11h1.16a.7832.7832,0,0,1,.79.78v3.23a.77252.77252,0,0,1-.59.76,1.52617,1.52617,0,0,1-.3.03H46.98c-.06,0-.11,0-.14.08a8.42358,8.42358,0,0,1-.74,1.73c.18.17.36.35.55.53l.3.3a.806.806,0,0,1,0,1.23c-.48.48-.96.96-1.44,1.43-.24.24-.48.49-.73.73a.8092.8092,0,0,1-1.22.01c-.26-.25-.51-.5-.77-.76a.14426.14426,0,0,0-.2-.03,8.78258,8.78258,0,0,1-1.58.66.12443.12443,0,0,0-.11.14v1.07a.81433.81433,0,0,1-.88.88H36.96a.80394.80394,0,0,1-.87-.87V29.51c0-.08-.02-.12-.11-.14a8.87867,8.87867,0,0,1-1.59-.66.14012.14012,0,0,0-.19.03c-.25.26-.51.51-.76.76a.8092.8092,0,0,1-1.22,0l-2.16-2.16a.80746.80746,0,0,1,.01-1.25C30.36,25.81,30.64,25.54,30.92,25.27ZM45.29,26.7c-.21-.21-.42-.41-.62-.62a.81516.81516,0,0,1-.13-1.15,7.01529,7.01529,0,0,0,.99-2.36.8116.8116,0,0,1,.9-.72h.86v-1.6h-.88a.81685.81685,0,0,1-.89-.73,6.91455,6.91455,0,0,0-.95-2.34.84649.84649,0,0,1,.14-1.22c.2-.19.39-.38.57-.55-.38-.39-.75-.76-1.13-1.15-.2.21-.4.42-.61.62A.82.82,0,0,1,42.4,15a6.7493,6.7493,0,0,0-2.35-.98.82793.82793,0,0,1-.75-.92v-.84H37.72a.07559.07559,0,0,0-.01.04v.87a.80617.80617,0,0,1-.68.84,7.21294,7.21294,0,0,0-2.44,1.03.87544.87544,0,0,1-.26.12.79839.79839,0,0,1-.81-.23c-.22-.22-.44-.45-.64-.66L31.75,15.4c.19.2.39.41.59.61a.82464.82464,0,0,1,.14,1.15,7.00849,7.00849,0,0,0-1.01,2.43.80043.80043,0,0,1-.82.66h-.79a.75687.75687,0,0,0-.15.01v1.58a.0438.0438,0,0,1,.03.01h.9a.79883.79883,0,0,1,.81.64A7.34091,7.34091,0,0,0,32.51,25a.74777.74777,0,0,1,.04.8,1.04367,1.04367,0,0,1-.21.26l-.61.61,1.14,1.14c.2-.2.4-.41.61-.62a.79579.79579,0,0,1,1.12-.12,7.539,7.539,0,0,0,2.45,1.02.78913.78913,0,0,1,.65.8v.95h1.6v-.92a.80318.80318,0,0,1,.67-.83,6.15245,6.15245,0,0,0,1.67-.59c.28-.15.54-.31.81-.46a.77918.77918,0,0,1,1.01.12c.23.23.45.46.66.68C44.54,27.45,44.91,27.08,45.29,26.7Z" opacity="0.75" style="isolation: isolate"/>
        <path d="M45.29,26.7c-.38.38-.75.75-1.15,1.14-.22-.22-.44-.45-.66-.68a.77918.77918,0,0,0-1.01-.12c-.27.16-.54.32-.81.46a6.2735,6.2735,0,0,1-1.67.59.80318.80318,0,0,0-.67.83v.92h-1.6v-.95a.78913.78913,0,0,0-.65-.8,7.327,7.327,0,0,1-2.45-1.02.80292.80292,0,0,0-1.12.12c-.21.21-.41.42-.61.62l-1.14-1.14c.19-.19.41-.39.61-.61a1.26142,1.26142,0,0,0,.21-.26.76776.76776,0,0,0-.04-.8,7.34091,7.34091,0,0,1-1.06-2.51.79883.79883,0,0,0-.81-.64h-.9a.03674.03674,0,0,1-.03-.01V20.26c.05,0,.1-.01.15-.01h.79a.8095.8095,0,0,0,.82-.66,7.12216,7.12216,0,0,1,1.01-2.43.82463.82463,0,0,0-.14-1.15c-.2-.2-.4-.41-.59-.61l1.13-1.13c.21.21.42.44.64.66a.79839.79839,0,0,0,.81.23.87533.87533,0,0,0,.26-.12,7.213,7.213,0,0,1,2.44-1.03.80617.80617,0,0,0,.68-.84V12.3a.07559.07559,0,0,1,.01-.04h1.58v.84a.83342.83342,0,0,0,.75.92,6.94428,6.94428,0,0,1,2.35.98.82.82,0,0,0,1.14-.12c.2-.21.41-.41.61-.62.38.39.75.76,1.13,1.15-.18.17-.37.37-.57.55a.84556.84556,0,0,0-.14,1.22,6.8329,6.8329,0,0,1,.95,2.34.82272.82272,0,0,0,.89.73h.88v1.6h-.86a.8116.8116,0,0,0-.9.72,7.01529,7.01529,0,0,1-.99,2.36.80551.80551,0,0,0,.13,1.15C44.88,26.28,45.08,26.49,45.29,26.7ZM34.51,21.05a4.00141,4.00141,0,1,0,4.11-4.01A4.02393,4.02393,0,0,0,34.51,21.05Z" fill="#fff" opacity="0.75" style="isolation: isolate"/>
        <path d="M34.51,21.05a4.0012,4.0012,0,1,1,3.86,4A4.01964,4.01964,0,0,1,34.51,21.05Zm1.6,0a2.40532,2.40532,0,0,0,4.81.05,2.40522,2.40522,0,1,0-4.81-.05Z" opacity="0.75" style="isolation: isolate"/>
      </g>
      <g opacity="0.75">
        <g>
          <line x1="44.05" y1="52.76" x2="35.65" y2="52.76" fill="none" stroke="#000" stroke-miterlimit="10"/>
          <polygon points="36.52 49.77 31.34 52.76 36.52 55.75 36.52 49.77"/>
        </g>
      </g>
      <g opacity="0.75">
        <g>
          <line x1="26.4" y1="42.46" x2="30.51" y2="35.2" fill="none" stroke="#000" stroke-miterlimit="10"/>
          <polygon points="32.68 37.43 32.63 31.45 27.48 34.49 32.68 37.43"/>
        </g>
      </g>
      <g opacity="0.75">
        <g>
          <line x1="44.05" y1="30.66" x2="48.08" y2="38.3" fill="none" stroke="#000" stroke-miterlimit="10"/>
          <polygon points="45.03 38.92 50.1 42.1 50.32 36.13 45.03 38.92"/>
        </g>
      </g>
    </g>
  </g>
</svg>
