<svg id="Layer_1" data-name="Layer 1" xmlns="http://www.w3.org/2000/svg" viewBox="0 0 75 75">
  <g id="shapes">
    <path id="square" d="M73.5,70.13a3.16553,3.16553,0,0,1-2.92,3.37H4.42A3.17186,3.17186,0,0,1,1.5,70.13V4.87A3.17186,3.17186,0,0,1,4.42,1.5H70.58A3.17186,3.17186,0,0,1,73.5,4.87Z" fill="#69c" stroke="#000" stroke-miterlimit="10" stroke-width="3" fill-rule="evenodd"/>
  </g>
  <g id="telco">
    <g>
      <path d="M37.49,23.79c1.4,3.74,6.8,16.92,8.2,20.63q3.645,9.69,7.29,19.37c.14.37.27.75.39,1.13a1.52473,1.52473,0,0,1-.93,2.07c-.9.34-1.89.07-2.05-.89-.43-2.5-2.33-2.97-4.3-3.62-5.89-1.92-11.75-3.95-17.8-5.99-.84,2.23-1.66,4.4-2.48,6.57-.32.84-.64,1.67-.94,2.51-.4,1.12-1.1,1.9-2.34,1.41-1.26-.49-1.16-1.55-.75-2.64q2.565-6.75,5.09-13.51c2.05-5.45,8.54-21.62,10.62-27.04m10.4,35.84c-1.41-3.75-2.7-7.14-4.02-10.65-4,1.75-7.8,3.42-11.98,5.25C37.4,56.09,42.47,57.8,47.89,59.63Zm-17.67-8.3c3.64-1.59,6.96-3.04,10.52-4.59-2.5-1.57-4.75-2.98-7.11-4.47C32.48,45.31,31.41,48.16,30.22,51.33Zm4.6-12.22c2.26,1.42,4.44,2.79,7.01,4.41l-1.19-3.18"/>
      <path d="M62.05,25.86a24.35517,24.35517,0,0,1-6.68,16.78c-.75.81-1.55,1.31-2.6.65-.93-.59-.89-1.74.1-2.81a20.84036,20.84036,0,0,0,5.3-9.84,20.92423,20.92423,0,0,0-4.7-18.91c-.35-.42-.93-.79-1.02-1.25-.13-.68-.16-1.72.24-2.07.41-.36,1.4-.17,2.1-.04.32.06.57.52.84.82A24.379,24.379,0,0,1,62.05,25.86Z"/>
      <path d="M12.95,25.38A24.21717,24.21717,0,0,1,19.3,9.24c1.29-1.44,2.31-1.75,3.09-.9,1.14,1.25.21,2.14-.61,3.06a21.0199,21.0199,0,0,0-3.33,23.71,33.06372,33.06372,0,0,0,3.62,5.24c.7.91,1.26,1.73.33,2.74-.73.79-1.77.56-2.79-.54A24.36654,24.36654,0,0,1,12.95,25.38Z"/>
      <path d="M20.02,25.84a16.29372,16.29372,0,0,1,4.22-11.16c.78-.88,1.63-1.57,2.8-.67.84.65.71,1.68-.29,2.84-4.66,5.35-4.64,12.42.08,17.87.64.74,1.15,1.54.49,2.36a2.55749,2.55749,0,0,1-1.78.67c-.38.01-.84-.48-1.16-.83A16.0013,16.0013,0,0,1,20.02,25.84Z"/>
      <path d="M54.97,25.81a16.27981,16.27981,0,0,1-4.36,11.13c-.79.87-1.71,1.38-2.69.47s-.51-1.83.27-2.72c4.71-5.44,4.72-12.48.04-17.87-.99-1.14-1.11-2.19-.26-2.84,1.1-.82,1.93-.25,2.7.6A16.31191,16.31191,0,0,1,54.97,25.81Z"/>
    </g>
    <g>
      <path d="M37.91,38.91a14.22907,14.22907,0,0,1-5.6-1.06,13.39876,13.39876,0,0,1-3.07-1.81,14.517,14.517,0,0,1-1.99-1.93,14.16222,14.16222,0,0,1-2.03-3.28A12.46657,12.46657,0,0,1,24.2,26.7a9.92053,9.92053,0,0,1-.09-1.72,14.87452,14.87452,0,0,1,.95-4.48,15.13828,15.13828,0,0,1,.97-1.93,13.42692,13.42692,0,0,1,1.94-2.49,13.19226,13.19226,0,0,1,3.06-2.33,13.423,13.423,0,0,1,5.26-1.61,13.28118,13.28118,0,0,1,6.35.96,12.74589,12.74589,0,0,1,3.43,2.08,13.4872,13.4872,0,0,1,4.16,14.61,12.35461,12.35461,0,0,1-.97,2.2,12.95537,12.95537,0,0,1-1.95,2.68,13.15134,13.15134,0,0,1-7.34,4C39.15,38.81,38.32,38.86,37.91,38.91Zm5.63-14.43a.93224.93224,0,0,0,.02-.14,10.95083,10.95083,0,0,0-.57-3.11.33885.33885,0,0,0-.26-.14c-.88.04-1.77.1-2.65.14-.51.02-1.02,0-1.53,0v3.24C40.21,24.48,41.87,24.48,43.54,24.48Zm.12,2.03H38.53v3.17a.13293.13293,0,0,0,.07.03c1.35.07,2.7.13,4.05.19a.279.279,0,0,0,.21-.14,4.67043,4.67043,0,0,0,.33-.88C43.36,28.11,43.5,27.33,43.66,26.51Zm-12.1-2.03h4.95V21.3a.80841.80841,0,0,0-.15-.01c-1.25-.06-2.51-.11-3.76-.19a.421.421,0,0,0-.51.38C31.91,22.46,31.74,23.45,31.56,24.48Zm4.96,2.03H31.61a8.73393,8.73393,0,0,0,.8,3.38c1.38-.07,2.75-.13,4.12-.2C36.52,28.63,36.52,27.58,36.52,26.51Zm-6.89-2.02a16.9333,16.9333,0,0,1,.59-3.59c-.93-.14-1.83-.28-2.74-.41a.29876.29876,0,0,0-.23.06,1.44736,1.44736,0,0,0-.26.47c-.21.66-.43,1.33-.6,2-.12.47-.15.96-.23,1.46C27.35,24.49,28.48,24.49,29.63,24.49Zm-3.41,2.02c-.02.02-.03.03-.03.04a10.91072,10.91072,0,0,0,.87,3.61c.11.27.29.46.62.32a1.76328,1.76328,0,0,1,.4-.07c.74-.1,1.48-.21,2.26-.32a11.06428,11.06428,0,0,1-.75-3.58Zm19.41-2.03h3.23v-.17a10.06567,10.06567,0,0,0-1.03-3.7.25093.25093,0,0,0-.22-.12c-.87.12-1.75.26-2.56.38C45.24,22.07,45.43,23.27,45.63,24.48Zm-.04,2.02a10.98733,10.98733,0,0,1-.74,3.58c.08.03.1.05.13.06.88.13,1.75.26,2.63.37a.24485.24485,0,0,0,.21-.13,8.77631,8.77631,0,0,0,.86-2.51c.08-.45.14-.9.21-1.37ZM38.54,14.72v4.61c1.24-.06,2.45-.12,3.68-.17A11.00185,11.00185,0,0,0,38.54,14.72Zm-2.02.1a11.32492,11.32492,0,0,0-3.56,4.33c1.21.05,2.38.11,3.56.16ZM28.46,32.35c.66,1.45,4.56,4.13,5.83,4.04-.42-.48-.88-.95-1.26-1.46a15.18351,15.18351,0,0,1-1.74-2.7.28673.28673,0,0,0-.34-.2C30.13,32.14,29.31,32.24,28.46,32.35ZM40.91,36.4a11.54166,11.54166,0,0,0,5.73-4.04c-.87-.11-1.66-.22-2.45-.31-.09-.01-.21.1-.27.19-.55.85-1.1,1.72-1.65,2.58a.74137.74137,0,0,1-.12.13C41.75,35.42,41.35,35.89,40.91,36.4Zm.94-4.58c-1.13-.04-2.22-.09-3.3-.13V35.9A16.69026,16.69026,0,0,0,41.85,31.82Zm-8.48,0A13.61872,13.61872,0,0,0,36.5,35.7V31.69C35.45,31.73,34.42,31.78,33.37,31.82Zm-5-13.18c.85.1,1.61.2,2.37.29.05.01.14-.06.17-.12a5.53692,5.53692,0,0,0,.33-.64,11.48568,11.48568,0,0,1,1.46-2.4c.24-.32.5-.61.76-.91A11.09556,11.09556,0,0,0,28.37,18.64Zm18.29,0a10.83563,10.83563,0,0,0-4.86-3.66c.12.19.32.31.45.49a13.26736,13.26736,0,0,1,1.66,2.63c.11.25.24.49.37.72a.21506.21506,0,0,0,.15.1C45.15,18.84,45.87,18.74,46.66,18.64Z"/>
      <path d="M43.54,24.48h-5V21.24c.51,0,1.02.02,1.53,0,.88-.04,1.77-.1,2.65-.14a.33885.33885,0,0,1,.26.14,10.95083,10.95083,0,0,1,.57,3.11C43.55,24.39,43.54,24.43,43.54,24.48Z" fill="#fff"/>
      <path d="M43.66,26.51c-.16.82-.3,1.59-.47,2.37a5.85951,5.85951,0,0,1-.33.88.25566.25566,0,0,1-.21.14c-1.35-.06-2.7-.12-4.05-.19-.02,0-.03-.02-.07-.03V26.51Z" fill="#fff"/>
      <path d="M31.56,24.48c.18-1.03.35-2.02.54-3.01a.421.421,0,0,1,.51-.38c1.25.09,2.51.13,3.76.19.05,0,.09.01.15.01v3.18C34.89,24.48,33.28,24.48,31.56,24.48Z" fill="#fff"/>
      <path d="M36.52,26.51v3.18c-1.37.07-2.74.13-4.12.2a8.91681,8.91681,0,0,1-.8-3.38Z" fill="#fff"/>
      <path d="M29.63,24.49H26.16c.08-.5.11-.99.23-1.46.17-.68.39-1.34.6-2a1.66118,1.66118,0,0,1,.26-.47.28772.28772,0,0,1,.23-.06c.91.13,1.81.27,2.74.41A16.73617,16.73617,0,0,0,29.63,24.49Z" fill="#fff"/>
      <path d="M26.22,26.51H29.6a10.9552,10.9552,0,0,0,.75,3.58c-.78.11-1.52.21-2.26.32a1.76328,1.76328,0,0,0-.4.07c-.33.14-.51-.05-.62-.32a10.43988,10.43988,0,0,1-.87-3.61C26.19,26.54,26.2,26.53,26.22,26.51Z" fill="#fff"/>
      <path d="M45.63,24.48c-.2-1.21-.39-2.41-.58-3.61.81-.12,1.68-.26,2.56-.38a.25093.25093,0,0,1,.22.12,9.8248,9.8248,0,0,1,1.03,3.7v.17Z" fill="#fff"/>
      <path d="M45.59,26.5h3.3c-.07.47-.13.92-.21,1.37a8.77631,8.77631,0,0,1-.86,2.51.25778.25778,0,0,1-.21.13c-.88-.11-1.75-.24-2.63-.37-.03,0-.05-.02-.13-.06A10.98733,10.98733,0,0,0,45.59,26.5Z" fill="#fff"/>
      <path d="M38.54,14.72a11.10593,11.10593,0,0,1,3.68,4.43c-1.23.06-2.44.12-3.68.17Z" fill="#fff"/>
      <path d="M36.52,14.82v4.49c-1.18-.05-2.35-.11-3.56-.16A11.23557,11.23557,0,0,1,36.52,14.82Z" fill="#fff"/>
      <path d="M28.46,32.35c.85-.11,1.67-.21,2.49-.32a.28673.28673,0,0,1,.34.2,14.46271,14.46271,0,0,0,1.74,2.7c.39.52.84.98,1.26,1.46C33.01,36.48,29.11,33.8,28.46,32.35Z" fill="#fff"/>
      <path d="M40.91,36.4c.44-.51.84-.98,1.24-1.45a1.42009,1.42009,0,0,0,.12-.13c.55-.86,1.09-1.72,1.65-2.58.06-.09.19-.2.27-.19.79.09,1.58.2,2.45.31A11.54166,11.54166,0,0,1,40.91,36.4Z" fill="#fff"/>
      <path d="M41.85,31.82a16.45813,16.45813,0,0,1-3.3,4.08V31.69C39.63,31.73,40.72,31.78,41.85,31.82Z" fill="#fff"/>
      <path d="M33.37,31.82c1.04-.04,2.08-.08,3.13-.13V35.7A13.96616,13.96616,0,0,1,33.37,31.82Z" fill="#fff"/>
      <path d="M28.37,18.64a11.071,11.071,0,0,1,5.1-3.78c-.25.3-.52.59-.76.91a11.48568,11.48568,0,0,0-1.46,2.4,5.53692,5.53692,0,0,1-.33.64.24878.24878,0,0,1-.17.12C29.98,18.84,29.22,18.75,28.37,18.64Z" fill="#fff"/>
      <path d="M46.66,18.64c-.79.1-1.5.2-2.22.28-.05.01-.12-.05-.15-.1a6.99478,6.99478,0,0,1-.37-.72,13.26736,13.26736,0,0,0-1.66-2.63c-.13-.18-.33-.3-.45-.49A10.86266,10.86266,0,0,1,46.66,18.64Z" fill="#fff"/>
    </g>
  </g>
</svg>
