<svg id="Layer_1" data-name="Layer 1" xmlns="http://www.w3.org/2000/svg" viewBox="0 0 75 75">
  <g id="shapes">
    <path id="square" d="M73.5,70.13a3.16553,3.16553,0,0,1-2.92,3.37H4.42A3.17186,3.17186,0,0,1,1.5,70.13V4.87A3.17186,3.17186,0,0,1,4.42,1.5H70.58A3.17186,3.17186,0,0,1,73.5,4.87Z" fill="#69c" stroke="#000" stroke-miterlimit="10" stroke-width="3" fill-rule="evenodd"/>
  </g>
  <g id="transcode">
    <g>
      <path d="M18.8,64.95H14.23a2.00588,2.00588,0,0,1-2-2V58.38a2.00588,2.00588,0,0,1,2-2H18.8a2.00588,2.00588,0,0,1,2,2v4.57A2.00588,2.00588,0,0,1,18.8,64.95Z"/>
      <polyline points="19.02 60.6 14.78 62.99 14.78 58.2" fill="#fff"/>
    </g>
    <g>
      <path d="M39.8,64.95H35.23a2.00588,2.00588,0,0,1-2-2V58.38a2.00588,2.00588,0,0,1,2-2H39.8a2.00588,2.00588,0,0,1,2,2v4.57A1.99944,1.99944,0,0,1,39.8,64.95Z"/>
      <polyline points="40.03 60.6 35.79 62.99 35.79 58.2" fill="#fff"/>
    </g>
    <g>
      <path d="M60.81,64.95H56.24a2.00588,2.00588,0,0,1-2-2V58.38a2.00588,2.00588,0,0,1,2-2h4.57a2.00588,2.00588,0,0,1,2,2v4.57A1.99944,1.99944,0,0,1,60.81,64.95Z"/>
      <polyline points="61.04 60.6 56.8 62.99 56.8 58.2" fill="#fff"/>
    </g>
    <line x1="37.5" y1="36.94" x2="37.5" y2="56.37" fill="none" stroke="#000" stroke-miterlimit="10"/>
    <polyline points="58.92 56.37 58.92 51.73 16.51 51.73 16.51 56.37" fill="none" stroke="#000" stroke-miterlimit="10"/>
    <g>
      <path d="M55.79,36.6H19.21a2.00588,2.00588,0,0,1-2-2V8.6a2.00588,2.00588,0,0,1,2-2H55.8a2.00588,2.00588,0,0,1,2,2v26A2.021,2.021,0,0,1,55.79,36.6Z"/>
      <rect x="19.52" y="7.78" width="3.91" height="3.91" fill="#fff"/>
      <rect x="27.53" y="7.78" width="3.91" height="3.91" fill="#fff"/>
      <rect x="35.54" y="7.78" width="3.91" height="3.91" fill="#fff"/>
      <rect x="43.56" y="7.78" width="3.91" height="3.91" fill="#fff"/>
      <rect x="51.57" y="7.78" width="3.91" height="3.91" fill="#fff"/>
      <rect x="19.52" y="31.5" width="3.91" height="3.91" fill="#fff"/>
      <rect x="27.53" y="31.5" width="3.91" height="3.91" fill="#fff"/>
      <rect x="35.54" y="31.5" width="3.91" height="3.91" fill="#fff"/>
      <rect x="43.56" y="31.5" width="3.91" height="3.91" fill="#fff"/>
      <rect x="51.57" y="31.5" width="3.91" height="3.91" fill="#fff"/>
      <rect x="19.52" y="13.14" width="35.97" height="16.91" fill="#fff"/>
      <polyline points="33.83 14.26 45.08 21.34 34.34 28.93"/>
    </g>
  </g>
</svg>
