<svg id="Layer_1" data-name="Layer 1" xmlns="http://www.w3.org/2000/svg" viewBox="0 0 75 75">
  <g id="shapes">
    <path id="square" d="M73.5,70.13a3.16553,3.16553,0,0,1-2.92,3.37H4.42A3.17186,3.17186,0,0,1,1.5,70.13V4.87A3.17186,3.17186,0,0,1,4.42,1.5H70.58A3.17186,3.17186,0,0,1,73.5,4.87Z" fill="#69c" stroke="#000" stroke-miterlimit="10" stroke-width="3" fill-rule="evenodd"/>
  </g>
  <g id="stream">
    <g>
      <path d="M52.67,19.17a3.38239,3.38239,0,0,1,.72.59.8842.8842,0,0,1-.07.97,30.80445,30.80445,0,0,0-1.66,3.03,22.45452,22.45452,0,0,0-1.22,3.66,5.57432,5.57432,0,0,0,1.51,5.05,19.06671,19.06671,0,0,0,4.26,3.28c1.62,1.05,3.26,2.09,4.79,3.27a7.7582,7.7582,0,0,1,2.83,5.54,14.921,14.921,0,0,1-3.77,11.55c-.17.21-.34.42-.52.62-.47.54-.9.63-1.31.29-.43-.35-.41-.8.03-1.38.71-.95,1.46-1.87,2.1-2.87a12.33861,12.33861,0,0,0,1.83-7.79,6.86237,6.86237,0,0,0-3.21-5.46c-1.83-1.2-3.7-2.34-5.52-3.56a11.57838,11.57838,0,0,1-4.04-4.27A7.30463,7.30463,0,0,1,49,26.06a20.80249,20.80249,0,0,1,2.84-6.14A6.40048,6.40048,0,0,1,52.67,19.17Z"/>
      <path d="M47.1,20.26c-.13.2-.27.46-.45.69-1.58,1.96-3.2,3.9-4.75,5.88a26.46929,26.46929,0,0,0-1.84,2.72,4.37335,4.37335,0,0,0,.02,4.92c.66,1.04,1.39,2.04,1.94,3.13a8.448,8.448,0,0,1-.1,7.95,27.43459,27.43459,0,0,1-3.65,5.17,48.88781,48.88781,0,0,1-6.59,6.19c-.62.51-1.3.33-1.48-.37a.828.828,0,0,1,.38-.89c.93-.8,1.89-1.58,2.81-2.4a31.73669,31.73669,0,0,0,6.99-8.4,6.85411,6.85411,0,0,0-.19-7.14c-.44-.71-.92-1.4-1.39-2.1a6.082,6.082,0,0,1-.07-7.1,60.60557,60.60557,0,0,1,6.83-8.82.83262.83262,0,0,1,1.49.27A.87972.87972,0,0,0,47.1,20.26Z"/>
      <path d="M59.69,32.73v-.09a1.20267,1.20267,0,0,0-.79-1.45,3.9925,3.9925,0,0,1-1.84-4.76c.81-2.34,1.72-4.64,2.59-6.95a.83774.83774,0,0,1,1.6-.04c.93,2.27,1.91,4.53,2.76,6.84a4.12086,4.12086,0,0,1-2.25,5.14.50332.50332,0,0,0-.36.54c.02.57.01,1.14,0,1.71a.88615.88615,0,0,1-.77.95.86034.86034,0,0,1-.91-.81,7.77168,7.77168,0,0,1-.01-1.08Zm.83-10.53c-.08.1-.15.15-.17.21-.57,1.51-1.17,3.02-1.68,4.55a2.31894,2.31894,0,0,0,.72,2.53,1.59955,1.59955,0,0,0,2.27.03,2.59524,2.59524,0,0,0,.63-3.11c-.5-1.27-1.03-2.53-1.55-3.79C60.68,22.49,60.61,22.36,60.52,22.2Z"/>
      <path d="M30.76,49.04a2.43188,2.43188,0,0,1,0-.27,1.0435,1.0435,0,0,0-.66-1.2,3.39058,3.39058,0,0,1-1.44-4c.64-1.79,1.33-3.57,2-5.35a.85534.85534,0,0,1,.79-.63.842.842,0,0,1,.85.61c.72,1.76,1.48,3.51,2.15,5.29a3.43621,3.43621,0,0,1-1.63,4.2.70168.70168,0,0,0-.43.74c.02.46.01.93,0,1.4a.76354.76354,0,0,1-.83.85.7921.7921,0,0,1-.81-.88C30.75,49.55,30.76,49.3,30.76,49.04Zm.65-8.08c-.4,1.15-.84,2.3-1.18,3.47a1.55758,1.55758,0,0,0,.66,1.66,1.00881,1.00881,0,0,0,1.22.08,1.528,1.528,0,0,0,.83-1.67c-.35-1.2-.89-2.34-1.34-3.51A.96787.96787,0,0,1,31.41,40.96Z"/>
      <path d="M37.88,23a2.78932,2.78932,0,0,1-1.25,2.22.74292.74292,0,0,0-.37.74,5.14278,5.14278,0,0,1,0,.68.84644.84644,0,0,1-1.69.09c-.04-.3.01-.6-.03-.9a.81172.81172,0,0,0-.26-.5,2.75557,2.75557,0,0,1-1.09-3.36c.42-1.17.87-2.33,1.31-3.5.15-.39.36-.69.83-.71.49-.01.72.29.89.69.47,1.14.95,2.27,1.39,3.42A8.8412,8.8412,0,0,1,37.88,23ZM35.5,21.1c-.06,0-.13.01-.19.01-.21.59-.45,1.16-.61,1.76a.80071.80071,0,0,0,.41.92c.15.09.49.12.57.02.22-.26.52-.62.47-.89A15.83263,15.83263,0,0,0,35.5,21.1Z"/>
      <path d="M57.19,45.39a5.827,5.827,0,0,1-.61,2.37c-.2.47-.39.94-.61,1.4a.83757.83757,0,1,1-1.53-.67c.21-.54.43-1.09.69-1.61a3.13486,3.13486,0,0,0-.71-3.85,20.55329,20.55329,0,0,0-3.5-2.88c-.21-.14-.43-.27-.63-.43a.82455.82455,0,0,1,.93-1.36c.74.48,1.48.97,2.18,1.51a12.60064,12.60064,0,0,1,3.17,3.22A3.91478,3.91478,0,0,1,57.19,45.39Z"/>
      <path d="M48.61,47.44a9.52493,9.52493,0,0,1-1.43,4.17,23.6934,23.6934,0,0,1-3.23,4.03.815.815,0,0,1-1.24.09.8752.8752,0,0,1,.03-1.25c.87-1.03,1.77-2.04,2.58-3.12a7.89242,7.89242,0,0,0,1.59-3.96c.08-.78.65-1.16,1.22-.86A.866.866,0,0,1,48.61,47.44Z"/>
      <path d="M42.74,31.54a5.51507,5.51507,0,0,1,1.19-3.2,12.20835,12.20835,0,0,1,.84-1.06.83187.83187,0,1,1,1.29,1.05c-.42.6-.88,1.18-1.25,1.81a2.50929,2.50929,0,0,0-.04,2.54c.33.64.66,1.28.96,1.93a.83511.83511,0,0,1-.19,1.07.76045.76045,0,0,1-1,.05.661.661,0,0,1-.22-.22c-.51-1.13-1.03-2.26-1.52-3.4A2.08137,2.08137,0,0,1,42.74,31.54Z"/>
      <path d="M60.52,22.2c.09.16.16.29.22.42.52,1.26,1.04,2.52,1.55,3.79a2.59524,2.59524,0,0,1-.63,3.11,1.59081,1.59081,0,0,1-2.27-.03,2.31894,2.31894,0,0,1-.72-2.53c.51-1.53,1.12-3.04,1.68-4.55C60.37,22.35,60.44,22.3,60.52,22.2Z" fill="#fff" opacity="0.75" style="isolation: isolate"/>
      <path d="M31.41,40.96a1.59793,1.59793,0,0,0,.17.03c.46,1.17.99,2.31,1.34,3.51a1.53412,1.53412,0,0,1-.83,1.67,1.00879,1.00879,0,0,1-1.22-.08,1.5737,1.5737,0,0,1-.66-1.66C30.56,43.26,31.01,42.12,31.41,40.96Z" fill="#fff" opacity="0.75" style="isolation: isolate"/>
      <path d="M35.5,21.1a11.3178,11.3178,0,0,1,.63,1.83c.05.27-.25.63-.47.89-.08.09-.41.06-.57-.02a.8375.8375,0,0,1-.41-.92c.16-.6.41-1.18.61-1.76A.78445.78445,0,0,1,35.5,21.1Z" fill="#fff" opacity="0.75" style="isolation: isolate"/>
    </g>
  </g>
  <g id="video">
    <g>
      <path d="M17.67,31.34a10.763,10.763,0,0,1-.01-1.27,6.65918,6.65918,0,0,1,3.11-5.16,6.83193,6.83193,0,1,1,7.41,11.48c-.05.03-.1.06-.17.11a3.94605,3.94605,0,0,1,1.37,2.94c.09-.06.16-.1.23-.14q2.745-1.83,5.5-3.65a.62036.62036,0,0,1,.32-.09,1.94158,1.94158,0,0,1,1.77,1.81V49.21a1.96461,1.96461,0,0,1-1.52,1.94.70928.70928,0,0,1-.69-.16c-1.8-1.52-3.62-3.02-5.43-4.53-.05-.04-.1-.08-.19-.14v1.03a3.75928,3.75928,0,0,1-.72,2.2,3.904,3.904,0,0,1-3.08,1.65H9.87a3.91652,3.91652,0,0,1-3.89-3.05,4.31775,4.31775,0,0,1-.1-.95c-.01-2.55-.01-5.11,0-7.66a3.82059,3.82059,0,0,1,1.89-3.4,1.26466,1.26466,0,0,0,.15-.1c-.18-.18-.37-.33-.53-.51a5.85618,5.85618,0,0,1,3.28-9.65,5.84541,5.84541,0,0,1,6.91,4.96c.02.16.06.33.09.5a1.84573,1.84573,0,0,0-.04.23,5.72717,5.72717,0,0,1-.99,3.28c-.15.23-.33.45-.5.68h3.53c-.08-.08-.13-.14-.18-.19A6.75332,6.75332,0,0,1,17.67,31.34Zm-.02,17.9h7.74a1.95923,1.95923,0,0,0,2.04-2.02v-7.7A1.95109,1.95109,0,0,0,25.4,37.5H9.9a1.96107,1.96107,0,0,0-2.05,2.04v7.64a1.99782,1.99782,0,0,0,.02.35,1.958,1.958,0,0,0,1.99,1.7Q13.745,49.245,17.65,49.24Zm1.93-18.61a4.90506,4.90506,0,1,0,4.96-4.88A4.91545,4.91545,0,0,0,19.58,30.63Zm-7.94,4.91a3.914,3.914,0,1,0-3.79-4.11A3.92026,3.92026,0,0,0,11.64,35.54Zm23.6,1.98c-.07.04-.1.06-.13.08q-2.805,1.86-5.61,3.74a.29356.29356,0,0,0-.12.23q-.015,1.305,0,2.61a.45491.45491,0,0,0,.13.28q2.775,2.325,5.55,4.63c.05.04.1.07.17.13C35.24,45.3,35.24,41.42,35.24,37.52Z"/>
      <path d="M17.65,49.24H9.85a1.9569,1.9569,0,0,1-1.99-1.7,2.05541,2.05541,0,0,1-.02-.35V39.55a1.95014,1.95014,0,0,1,2.05-2.04h15.5a1.95109,1.95109,0,0,1,2.03,2.02v7.7a1.95362,1.95362,0,0,1-2.04,2.02Q21.525,49.235,17.65,49.24Z" fill="#fff"/>
      <path d="M19.58,30.63a4.90507,4.90507,0,1,1,4.82,4.92A4.90394,4.90394,0,0,1,19.58,30.63Z" fill="#fff"/>
      <path d="M11.64,35.54a3.914,3.914,0,1,1,4.03-3.71A3.92107,3.92107,0,0,1,11.64,35.54Z" fill="#fff"/>
      <path d="M35.24,37.52V49.2c-.07-.05-.12-.09-.17-.13-1.85-1.54-3.71-3.08-5.55-4.63a.41038.41038,0,0,1-.13-.28q-.015-1.305,0-2.61a.32615.32615,0,0,1,.12-.23c1.87-1.25,3.74-2.49,5.61-3.74A.30928.30928,0,0,0,35.24,37.52Z" fill="#fff"/>
    </g>
  </g>
</svg>
